<?xml version="1.0" standalone="no"?>
<!DOCTYPE svg PUBLIC "-//W3C//DTD SVG 1.1//EN" "http://www.w3.org/Graphics/SVG/1.1/DTD/svg11.dtd">
<svg version="1.1" width="1200" height="342" onload="init(evt)" viewBox="0 0 1200 342" xmlns="http://www.w3.org/2000/svg" xmlns:xlink="http://www.w3.org/1999/xlink">
<!-- Flame graph stack visualization. See https://github.com/brendangregg/FlameGraph for latest version, and http://www.brendangregg.com/flamegraphs.html for examples. -->
<!-- NOTES:  -->
<defs>
	<linearGradient id="background" y1="0" y2="1" x1="0" x2="0" >
		<stop stop-color="#eeeeee" offset="5%" />
		<stop stop-color="#eeeeb0" offset="95%" />
	</linearGradient>
</defs>
<style type="text/css">
	text { font-family:Verdana; font-size:12px; fill:rgb(0,0,0); }
	#search, #ignorecase { opacity:0.1; cursor:pointer; }
	#search:hover, #search.show, #ignorecase:hover, #ignorecase.show { opacity:1; }
	#subtitle { text-anchor:middle; font-color:rgb(160,160,160); }
	#title { text-anchor:middle; font-size:17px}
	#unzoom { cursor:pointer; }
	#frames > *:hover { stroke:black; stroke-width:0.5; cursor:pointer; }
	.hide { display:none; }
	.parent { opacity:0.5; }
</style>
<script type="text/ecmascript">
<![CDATA[
	"use strict";
	var details, searchbtn, unzoombtn, matchedtxt, svg, searching, currentSearchTerm, ignorecase, ignorecaseBtn;
	function init(evt) {
		details = document.getElementById("details").firstChild;
		searchbtn = document.getElementById("search");
		ignorecaseBtn = document.getElementById("ignorecase");
		unzoombtn = document.getElementById("unzoom");
		matchedtxt = document.getElementById("matched");
		svg = document.getElementsByTagName("svg")[0];
		searching = 0;
		currentSearchTerm = null;

		// use GET parameters to restore a flamegraphs state.
		var params = get_params();
		if (params.x && params.y)
			zoom(find_group(document.querySelector('[x="' + params.x + '"][y="' + params.y + '"]')));
                if (params.s) search(params.s);
	}

	// event listeners
	window.addEventListener("click", function(e) {
		var target = find_group(e.target);
		if (target) {
			if (target.nodeName == "a") {
				if (e.ctrlKey === false) return;
				e.preventDefault();
			}
			if (target.classList.contains("parent")) unzoom();
			zoom(target);
			if (!document.querySelector('.parent')) {
				clearzoom();
				return;
			}

			// set parameters for zoom state
			var el = target.querySelector("rect");
			if (el && el.attributes && el.attributes.y && el.attributes._orig_x) {
				var params = get_params()
				params.x = el.attributes._orig_x.value;
				params.y = el.attributes.y.value;
				history.replaceState(null, null, parse_params(params));
			}
		}
		else if (e.target.id == "unzoom") clearzoom();
		else if (e.target.id == "search") search_prompt();
		else if (e.target.id == "ignorecase") toggle_ignorecase();
	}, false)

	// mouse-over for info
	// show
	window.addEventListener("mouseover", function(e) {
		var target = find_group(e.target);
		if (target) details.nodeValue = "Function: " + g_to_text(target);
	}, false)

	// clear
	window.addEventListener("mouseout", function(e) {
		var target = find_group(e.target);
		if (target) details.nodeValue = ' ';
	}, false)

	// ctrl-F for search
	// ctrl-I to toggle case-sensitive search
	window.addEventListener("keydown",function (e) {
		if (e.keyCode === 114 || (e.ctrlKey && e.keyCode === 70)) {
			e.preventDefault();
			search_prompt();
		}
		else if (e.ctrlKey && e.keyCode === 73) {
			e.preventDefault();
			toggle_ignorecase();
		}
	}, false)

	// functions
	function get_params() {
		var params = {};
		var paramsarr = window.location.search.substr(1).split('&');
		for (var i = 0; i < paramsarr.length; ++i) {
			var tmp = paramsarr[i].split("=");
			if (!tmp[0] || !tmp[1]) continue;
			params[tmp[0]]  = decodeURIComponent(tmp[1]);
		}
		return params;
	}
	function parse_params(params) {
		var uri = "?";
		for (var key in params) {
			uri += key + '=' + encodeURIComponent(params[key]) + '&';
		}
		if (uri.slice(-1) == "&")
			uri = uri.substring(0, uri.length - 1);
		if (uri == '?')
			uri = window.location.href.split('?')[0];
		return uri;
	}
	function find_child(node, selector) {
		var children = node.querySelectorAll(selector);
		if (children.length) return children[0];
	}
	function find_group(node) {
		var parent = node.parentElement;
		if (!parent) return;
		if (parent.id == "frames") return node;
		return find_group(parent);
	}
	function orig_save(e, attr, val) {
		if (e.attributes["_orig_" + attr] != undefined) return;
		if (e.attributes[attr] == undefined) return;
		if (val == undefined) val = e.attributes[attr].value;
		e.setAttribute("_orig_" + attr, val);
	}
	function orig_load(e, attr) {
		if (e.attributes["_orig_"+attr] == undefined) return;
		e.attributes[attr].value = e.attributes["_orig_" + attr].value;
		e.removeAttribute("_orig_"+attr);
	}
	function g_to_text(e) {
		var text = find_child(e, "title").firstChild.nodeValue;
		return (text)
	}
	function g_to_func(e) {
		var func = g_to_text(e);
		// if there's any manipulation we want to do to the function
		// name before it's searched, do it here before returning.
		return (func);
	}
	function update_text(e) {
		var r = find_child(e, "rect");
		var t = find_child(e, "text");
		var w = parseFloat(r.attributes.width.value) -3;
		var txt = find_child(e, "title").textContent.replace(/\([^(]*\)$/,"");
		t.attributes.x.value = parseFloat(r.attributes.x.value) + 3;

		// Smaller than this size won't fit anything
		if (w < 2 * 12 * 0.59) {
			t.textContent = "";
			return;
		}

		t.textContent = txt;
		// Fit in full text width
		if (/^ *$/.test(txt) || t.getSubStringLength(0, txt.length) < w)
			return;

		for (var x = txt.length - 2; x > 0; x--) {
			if (t.getSubStringLength(0, x + 2) <= w) {
				t.textContent = txt.substring(0, x) + "..";
				return;
			}
		}
		t.textContent = "";
	}

	// zoom
	function zoom_reset(e) {
		if (e.attributes != undefined) {
			orig_load(e, "x");
			orig_load(e, "width");
		}
		if (e.childNodes == undefined) return;
		for (var i = 0, c = e.childNodes; i < c.length; i++) {
			zoom_reset(c[i]);
		}
	}
	function zoom_child(e, x, ratio) {
		if (e.attributes != undefined) {
			if (e.attributes.x != undefined) {
				orig_save(e, "x");
				e.attributes.x.value = (parseFloat(e.attributes.x.value) - x - 10) * ratio + 10;
				if (e.tagName == "text")
					e.attributes.x.value = find_child(e.parentNode, "rect[x]").attributes.x.value + 3;
			}
			if (e.attributes.width != undefined) {
				orig_save(e, "width");
				e.attributes.width.value = parseFloat(e.attributes.width.value) * ratio;
			}
		}

		if (e.childNodes == undefined) return;
		for (var i = 0, c = e.childNodes; i < c.length; i++) {
			zoom_child(c[i], x - 10, ratio);
		}
	}
	function zoom_parent(e) {
		if (e.attributes) {
			if (e.attributes.x != undefined) {
				orig_save(e, "x");
				e.attributes.x.value = 10;
			}
			if (e.attributes.width != undefined) {
				orig_save(e, "width");
				e.attributes.width.value = parseInt(svg.width.baseVal.value) - (10 * 2);
			}
		}
		if (e.childNodes == undefined) return;
		for (var i = 0, c = e.childNodes; i < c.length; i++) {
			zoom_parent(c[i]);
		}
	}
	function zoom(node) {
		var attr = find_child(node, "rect").attributes;
		var width = parseFloat(attr.width.value);
		var xmin = parseFloat(attr.x.value);
		var xmax = parseFloat(xmin + width);
		var ymin = parseFloat(attr.y.value);
		var ratio = (svg.width.baseVal.value - 2 * 10) / width;

		// XXX: Workaround for JavaScript float issues (fix me)
		var fudge = 0.0001;

		unzoombtn.classList.remove("hide");

		var el = document.getElementById("frames").children;
		for (var i = 0; i < el.length; i++) {
			var e = el[i];
			var a = find_child(e, "rect").attributes;
			var ex = parseFloat(a.x.value);
			var ew = parseFloat(a.width.value);
			var upstack;
			// Is it an ancestor
			if (0 == 0) {
				upstack = parseFloat(a.y.value) > ymin;
			} else {
				upstack = parseFloat(a.y.value) < ymin;
			}
			if (upstack) {
				// Direct ancestor
				if (ex <= xmin && (ex+ew+fudge) >= xmax) {
					e.classList.add("parent");
					zoom_parent(e);
					update_text(e);
				}
				// not in current path
				else
					e.classList.add("hide");
			}
			// Children maybe
			else {
				// no common path
				if (ex < xmin || ex + fudge >= xmax) {
					e.classList.add("hide");
				}
				else {
					zoom_child(e, xmin, ratio);
					update_text(e);
				}
			}
		}
		search();
	}
	function unzoom() {
		unzoombtn.classList.add("hide");
		var el = document.getElementById("frames").children;
		for(var i = 0; i < el.length; i++) {
			el[i].classList.remove("parent");
			el[i].classList.remove("hide");
			zoom_reset(el[i]);
			update_text(el[i]);
		}
		search();
	}
	function clearzoom() {
		unzoom();

		// remove zoom state
		var params = get_params();
		if (params.x) delete params.x;
		if (params.y) delete params.y;
		history.replaceState(null, null, parse_params(params));
	}

	// search
	function toggle_ignorecase() {
		ignorecase = !ignorecase;
		if (ignorecase) {
			ignorecaseBtn.classList.add("show");
		} else {
			ignorecaseBtn.classList.remove("show");
		}
		reset_search();
		search();
	}
	function reset_search() {
		var el = document.querySelectorAll("#frames rect");
		for (var i = 0; i < el.length; i++) {
			orig_load(el[i], "fill")
		}
		var params = get_params();
		delete params.s;
		history.replaceState(null, null, parse_params(params));
	}
	function search_prompt() {
		if (!searching) {
			var term = prompt("Enter a search term (regexp " +
			    "allowed, eg: ^ext4_)"
			    + (ignorecase ? ", ignoring case" : "")
			    + "\nPress Ctrl-i to toggle case sensitivity", "");
			if (term != null) search(term);
		} else {
			reset_search();
			searching = 0;
			currentSearchTerm = null;
			searchbtn.classList.remove("show");
			searchbtn.firstChild.nodeValue = "Search"
			matchedtxt.classList.add("hide");
			matchedtxt.firstChild.nodeValue = ""
		}
	}
	function search(term) {
		if (term) currentSearchTerm = term;

		var re = new RegExp(currentSearchTerm, ignorecase ? 'i' : '');
		var el = document.getElementById("frames").children;
		var matches = new Object();
		var maxwidth = 0;
		for (var i = 0; i < el.length; i++) {
			var e = el[i];
			var func = g_to_func(e);
			var rect = find_child(e, "rect");
			if (func == null || rect == null)
				continue;

			// Save max width. Only works as we have a root frame
			var w = parseFloat(rect.attributes.width.value);
			if (w > maxwidth)
				maxwidth = w;

			if (func.match(re)) {
				// highlight
				var x = parseFloat(rect.attributes.x.value);
				orig_save(rect, "fill");
				rect.attributes.fill.value = "rgb(230,0,230)";

				// remember matches
				if (matches[x] == undefined) {
					matches[x] = w;
				} else {
					if (w > matches[x]) {
						// overwrite with parent
						matches[x] = w;
					}
				}
				searching = 1;
			}
		}
		if (!searching)
			return;
		var params = get_params();
		params.s = currentSearchTerm;
		history.replaceState(null, null, parse_params(params));

		searchbtn.classList.add("show");
		searchbtn.firstChild.nodeValue = "Reset Search";

		// calculate percent matched, excluding vertical overlap
		var count = 0;
		var lastx = -1;
		var lastw = 0;
		var keys = Array();
		for (k in matches) {
			if (matches.hasOwnProperty(k))
				keys.push(k);
		}
		// sort the matched frames by their x location
		// ascending, then width descending
		keys.sort(function(a, b){
			return a - b;
		});
		// Step through frames saving only the biggest bottom-up frames
		// thanks to the sort order. This relies on the tree property
		// where children are always smaller than their parents.
		var fudge = 0.0001;	// JavaScript floating point
		for (var k in keys) {
			var x = parseFloat(keys[k]);
			var w = matches[keys[k]];
			if (x >= lastx + lastw - fudge) {
				count += w;
				lastx = x;
				lastw = w;
			}
		}
		// display matched percent
		matchedtxt.classList.remove("hide");
		var pct = 100 * count / maxwidth;
		if (pct != 100) pct = pct.toFixed(1)
		matchedtxt.firstChild.nodeValue = "Matched: " + pct + "%";
	}
]]>
</script>
<rect x="0.0" y="0" width="1200.0" height="342.0" fill="url(#background)"  />
<text id="title" x="600.00" y="24" >Flame Graph</text>
<text id="details" x="10.00" y="325" > </text>
<text id="unzoom" x="10.00" y="24" class="hide">Reset Zoom</text>
<text id="search" x="1090.00" y="24" >Search</text>
<text id="ignorecase" x="1174.00" y="24" >ic</text>
<text id="matched" x="1090.00" y="325" > </text>
<g id="frames">
<g >
<title>uma_zfree_arg (149 samples, 0.28%)</title><rect x="10.4" y="37" width="3.3" height="15.0" fill="rgb(239,222,21)" rx="2" ry="2" />
<text  x="13.40" y="47.5" ></text>
</g>
<g >
<title>write_gl_to_txd (28 samples, 0.05%)</title><rect x="1184.0" y="37" width="0.6" height="15.0" fill="rgb(211,209,16)" rx="2" ry="2" />
<text  x="1187.01" y="47.5" ></text>
</g>
<g >
<title>service_iq_fl (238 samples, 0.45%)</title><rect x="1184.6" y="261" width="5.4" height="15.0" fill="rgb(249,8,23)" rx="2" ry="2" />
<text  x="1187.64" y="271.5" ></text>
</g>
<g >
<title>uma_zfree_arg (26 samples, 0.05%)</title><rect x="1180.0" y="53" width="0.6" height="15.0" fill="rgb(214,201,40)" rx="2" ry="2" />
<text  x="1183.00" y="63.5" ></text>
</g>
<g >
<title>write_txpkt_wr (185 samples, 0.35%)</title><rect x="1185.1" y="37" width="4.2" height="15.0" fill="rgb(208,66,14)" rx="2" ry="2" />
<text  x="1188.14" y="47.5" ></text>
</g>
<g >
<title>_epoch_exit_preempt (88 samples, 0.17%)</title><rect x="29.2" y="197" width="2.0" height="15.0" fill="rgb(215,149,41)" rx="2" ry="2" />
<text  x="32.24" y="207.5" ></text>
</g>
<g >
<title>ipf_scanlist (7,089 samples, 13.47%)</title><rect x="676.8" y="53" width="159.0" height="15.0" fill="rgb(217,142,3)" rx="2" ry="2" />
<text  x="679.84" y="63.5" >ipf_scanlist</text>
</g>
<g >
<title>ether_output_frame (623 samples, 1.18%)</title><rect x="857.4" y="101" width="14.0" height="15.0" fill="rgb(211,31,8)" rx="2" ry="2" />
<text  x="860.42" y="111.5" ></text>
</g>
<g >
<title>sglist_count (11 samples, 0.02%)</title><rect x="871.1" y="53" width="0.3" height="15.0" fill="rgb(219,28,17)" rx="2" ry="2" />
<text  x="874.14" y="63.5" ></text>
</g>
<g >
<title>ipf_nat_checkin (58 samples, 0.11%)</title><rect x="673.9" y="53" width="1.3" height="15.0" fill="rgb(248,221,26)" rx="2" ry="2" />
<text  x="676.90" y="63.5" ></text>
</g>
<g >
<title>ether_nh_input (161 samples, 0.31%)</title><rect x="1181.0" y="229" width="3.6" height="15.0" fill="rgb(228,142,22)" rx="2" ry="2" />
<text  x="1184.03" y="239.5" ></text>
</g>
<g >
<title>service_iq_fl (14,331 samples, 27.23%)</title><rect x="857.4" y="245" width="321.3" height="15.0" fill="rgb(219,208,17)" rx="2" ry="2" />
<text  x="860.42" y="255.5" >service_iq_fl</text>
</g>
<g >
<title>t4_intr (37,503 samples, 71.25%)</title><rect x="14.5" y="245" width="840.7" height="15.0" fill="rgb(239,4,8)" rx="2" ry="2" />
<text  x="17.48" y="255.5" >t4_intr</text>
</g>
<g >
<title>ether_demux (14,331 samples, 27.23%)</title><rect x="857.4" y="181" width="321.3" height="15.0" fill="rgb(223,193,22)" rx="2" ry="2" />
<text  x="860.42" y="191.5" >ether_demux</text>
</g>
<g >
<title>lapic_handle_timer (58 samples, 0.11%)</title><rect x="1178.7" y="277" width="1.3" height="15.0" fill="rgb(240,27,2)" rx="2" ry="2" />
<text  x="1181.70" y="287.5" ></text>
</g>
<g >
<title>netisr_dispatch_src (36,250 samples, 68.87%)</title><rect x="31.3" y="197" width="812.7" height="15.0" fill="rgb(219,99,29)" rx="2" ry="2" />
<text  x="34.30" y="207.5" >netisr_dispatch_src</text>
</g>
<g >
<title>ether_output (160 samples, 0.30%)</title><rect x="10.4" y="165" width="3.6" height="15.0" fill="rgb(238,52,34)" rx="2" ry="2" />
<text  x="13.40" y="175.5" ></text>
</g>
<g >
<title>oce_mbox_dispatch (31 samples, 0.06%)</title><rect x="856.5" y="165" width="0.7" height="15.0" fill="rgb(235,144,22)" rx="2" ry="2" />
<text  x="859.55" y="175.5" ></text>
</g>
<g >
<title>__mtx_lock_sleep (1,885 samples, 3.58%)</title><rect x="793.5" y="37" width="42.3" height="15.0" fill="rgb(229,61,21)" rx="2" ry="2" />
<text  x="796.51" y="47.5" >__m..</text>
</g>
<g >
<title>m_free (26 samples, 0.05%)</title><rect x="1180.0" y="69" width="0.6" height="15.0" fill="rgb(243,36,52)" rx="2" ry="2" />
<text  x="1183.00" y="79.5" ></text>
</g>
<g >
<title>netisr_dispatch_src (161 samples, 0.31%)</title><rect x="1181.0" y="245" width="3.6" height="15.0" fill="rgb(236,125,24)" rx="2" ry="2" />
<text  x="1184.03" y="255.5" ></text>
</g>
<g >
<title>ip_tryforward (35,479 samples, 67.41%)</title><rect x="47.9" y="117" width="795.4" height="15.0" fill="rgb(243,157,54)" rx="2" ry="2" />
<text  x="50.86" y="127.5" >ip_tryforward</text>
</g>
<g >
<title>ether_nh_input (46 samples, 0.09%)</title><rect x="1180.0" y="261" width="1.0" height="15.0" fill="rgb(229,21,16)" rx="2" ry="2" />
<text  x="1183.00" y="271.5" ></text>
</g>
<g >
<title>eth_tx (161 samples, 0.31%)</title><rect x="1181.0" y="69" width="3.6" height="15.0" fill="rgb(226,101,31)" rx="2" ry="2" />
<text  x="1184.03" y="79.5" ></text>
</g>
<g >
<title>ip_tryforward (46 samples, 0.09%)</title><rect x="1180.0" y="197" width="1.0" height="15.0" fill="rgb(224,98,44)" rx="2" ry="2" />
<text  x="1183.00" y="207.5" ></text>
</g>
<g >
<title>ipf_makefrip (757 samples, 1.44%)</title><rect x="656.9" y="53" width="17.0" height="15.0" fill="rgb(213,88,50)" rx="2" ry="2" />
<text  x="659.93" y="63.5" ></text>
</g>
<g >
<title>all (52,635 samples, 100%)</title><rect x="10.0" y="293" width="1180.0" height="15.0" fill="rgb(228,225,46)" rx="2" ry="2" />
<text  x="13.00" y="303.5" ></text>
</g>
<g >
<title>eth_tx (46 samples, 0.09%)</title><rect x="1180.0" y="101" width="1.0" height="15.0" fill="rgb(223,8,27)" rx="2" ry="2" />
<text  x="1183.00" y="111.5" ></text>
</g>
<g >
<title>drain_ring (612 samples, 1.16%)</title><rect x="857.4" y="53" width="13.7" height="15.0" fill="rgb(214,115,6)" rx="2" ry="2" />
<text  x="860.42" y="63.5" ></text>
</g>
<g >
<title>netisr_dispatch_src (46 samples, 0.09%)</title><rect x="1180.0" y="277" width="1.0" height="15.0" fill="rgb(224,116,24)" rx="2" ry="2" />
<text  x="1183.00" y="287.5" ></text>
</g>
<g >
<title>ether_nh_input (238 samples, 0.45%)</title><rect x="1184.6" y="213" width="5.4" height="15.0" fill="rgb(205,115,38)" rx="2" ry="2" />
<text  x="1187.64" y="223.5" ></text>
</g>
<g >
<title>ether_output_frame (46 samples, 0.09%)</title><rect x="1180.0" y="165" width="1.0" height="15.0" fill="rgb(234,34,2)" rx="2" ry="2" />
<text  x="1183.00" y="175.5" ></text>
</g>
<g >
<title>softclock_call_cc (31 samples, 0.06%)</title><rect x="856.5" y="245" width="0.7" height="15.0" fill="rgb(213,24,25)" rx="2" ry="2" />
<text  x="859.55" y="255.5" ></text>
</g>
<g >
<title>ether_demux (46 samples, 0.09%)</title><rect x="1180.0" y="245" width="1.0" height="15.0" fill="rgb(242,33,25)" rx="2" ry="2" />
<text  x="1183.00" y="255.5" ></text>
</g>
<g >
<title>uma_zalloc_arg (179 samples, 0.34%)</title><rect x="850.9" y="197" width="4.0" height="15.0" fill="rgb(248,179,27)" rx="2" ry="2" />
<text  x="853.87" y="207.5" ></text>
</g>
<g >
<title>ipf_derefrule (8,059 samples, 15.31%)</title><rect x="871.4" y="69" width="180.7" height="15.0" fill="rgb(219,38,5)" rx="2" ry="2" />
<text  x="874.39" y="79.5" >ipf_derefrule</text>
</g>
<g >
<title>netisr_dispatch_src (238 samples, 0.45%)</title><rect x="1184.6" y="181" width="5.4" height="15.0" fill="rgb(243,9,37)" rx="2" ry="2" />
<text  x="1187.64" y="191.5" ></text>
</g>
<g >
<title>memset_erms (244 samples, 0.46%)</title><rect x="837.8" y="53" width="5.5" height="15.0" fill="rgb(225,127,2)" rx="2" ry="2" />
<text  x="840.78" y="63.5" ></text>
</g>
<g >
<title>netisr_dispatch_src (238 samples, 0.45%)</title><rect x="1184.6" y="229" width="5.4" height="15.0" fill="rgb(221,211,19)" rx="2" ry="2" />
<text  x="1187.64" y="239.5" ></text>
</g>
<g >
<title>write_txpkts_wr (20 samples, 0.04%)</title><rect x="1180.6" y="85" width="0.4" height="15.0" fill="rgb(224,39,36)" rx="2" ry="2" />
<text  x="1183.58" y="95.5" ></text>
</g>
<g >
<title>ether_output_frame (160 samples, 0.30%)</title><rect x="10.4" y="149" width="3.6" height="15.0" fill="rgb(242,176,45)" rx="2" ry="2" />
<text  x="13.40" y="159.5" ></text>
</g>
<g >
<title>mi_switch (18 samples, 0.03%)</title><rect x="14.1" y="245" width="0.4" height="15.0" fill="rgb(213,26,35)" rx="2" ry="2" />
<text  x="17.08" y="255.5" ></text>
</g>
<g >
<title>netisr_dispatch (5 samples, 0.01%)</title><rect x="854.9" y="213" width="0.1" height="15.0" fill="rgb(242,227,46)" rx="2" ry="2" />
<text  x="857.91" y="223.5" ></text>
</g>
<g >
<title>get_scatter_segment (487 samples, 0.93%)</title><rect x="844.0" y="213" width="10.9" height="15.0" fill="rgb(206,15,22)" rx="2" ry="2" />
<text  x="846.97" y="223.5" ></text>
</g>
<g >
<title>m_freem (22 samples, 0.04%)</title><rect x="1184.6" y="37" width="0.5" height="15.0" fill="rgb(229,225,43)" rx="2" ry="2" />
<text  x="1187.64" y="47.5" ></text>
</g>
<g >
<title>lock_delay (8,059 samples, 15.31%)</title><rect x="871.4" y="37" width="180.7" height="15.0" fill="rgb(239,47,4)" rx="2" ry="2" />
<text  x="874.39" y="47.5" >lock_delay</text>
</g>
<g >
<title>__mtx_lock_sleep (5,649 samples, 10.73%)</title><rect x="1052.1" y="53" width="126.6" height="15.0" fill="rgb(236,5,45)" rx="2" ry="2" />
<text  x="1055.06" y="63.5" >__mtx_lock_sleep</text>
</g>
<g >
<title>cpu_activeclock (5 samples, 0.01%)</title><rect x="855.4" y="229" width="0.1" height="15.0" fill="rgb(236,83,42)" rx="2" ry="2" />
<text  x="858.38" y="239.5" ></text>
</g>
<g >
<title>drain_ring (238 samples, 0.45%)</title><rect x="1184.6" y="69" width="5.4" height="15.0" fill="rgb(221,203,6)" rx="2" ry="2" />
<text  x="1187.64" y="79.5" ></text>
</g>
<g >
<title>ether_input (238 samples, 0.45%)</title><rect x="1184.6" y="245" width="5.4" height="15.0" fill="rgb(233,116,36)" rx="2" ry="2" />
<text  x="1187.64" y="255.5" ></text>
</g>
<g >
<title>mp_ring_enqueue (1,372 samples, 2.61%)</title><rect x="80.5" y="53" width="30.7" height="15.0" fill="rgb(209,98,3)" rx="2" ry="2" />
<text  x="83.46" y="63.5" >mp..</text>
</g>
<g >
<title>ether_output (2,805 samples, 5.33%)</title><rect x="54.6" y="101" width="62.9" height="15.0" fill="rgb(209,35,18)" rx="2" ry="2" />
<text  x="57.57" y="111.5" >ether_..</text>
</g>
<g >
<title>hardclock (35 samples, 0.07%)</title><rect x="1179.0" y="229" width="0.8" height="15.0" fill="rgb(238,101,49)" rx="2" ry="2" />
<text  x="1181.99" y="239.5" ></text>
</g>
<g >
<title>ipf_check_wrapper (13,708 samples, 26.04%)</title><rect x="871.4" y="101" width="307.3" height="15.0" fill="rgb(222,219,10)" rx="2" ry="2" />
<text  x="874.39" y="111.5" >ipf_check_wrapper</text>
</g>
<g >
<title>ipf_state_check (90 samples, 0.17%)</title><rect x="835.8" y="53" width="2.0" height="15.0" fill="rgb(226,224,5)" rx="2" ry="2" />
<text  x="838.76" y="63.5" ></text>
</g>
<g >
<title>ipf_checkv4sum (130 samples, 0.25%)</title><rect x="669.6" y="37" width="3.0" height="15.0" fill="rgb(217,122,28)" rx="2" ry="2" />
<text  x="672.64" y="47.5" ></text>
</g>
<g >
<title>mb_ctor_mbuf (115 samples, 0.22%)</title><rect x="852.3" y="181" width="2.6" height="15.0" fill="rgb(225,70,8)" rx="2" ry="2" />
<text  x="855.31" y="191.5" ></text>
</g>
<g >
<title>sched_idletd (57 samples, 0.11%)</title><rect x="855.3" y="261" width="1.2" height="15.0" fill="rgb(241,161,19)" rx="2" ry="2" />
<text  x="858.27" y="271.5" ></text>
</g>
<g >
<title>ether_demux (161 samples, 0.31%)</title><rect x="1181.0" y="213" width="3.6" height="15.0" fill="rgb(248,205,34)" rx="2" ry="2" />
<text  x="1184.03" y="223.5" ></text>
</g>
<g >
<title>cxgbe_transmit (1,826 samples, 3.47%)</title><rect x="75.6" y="69" width="41.0" height="15.0" fill="rgb(213,116,18)" rx="2" ry="2" />
<text  x="78.64" y="79.5" >cxg..</text>
</g>
<g >
<title>sglist_append_mbuf (20 samples, 0.04%)</title><rect x="1180.6" y="53" width="0.4" height="15.0" fill="rgb(236,139,31)" rx="2" ry="2" />
<text  x="1183.58" y="63.5" ></text>
</g>
<g >
<title>__mtx_lock_sleep (9,513 samples, 18.07%)</title><rect x="219.9" y="53" width="213.3" height="15.0" fill="rgb(205,197,39)" rx="2" ry="2" />
<text  x="222.90" y="63.5" >__mtx_lock_sleep</text>
</g>
<g >
<title>ip_input (161 samples, 0.31%)</title><rect x="1181.0" y="181" width="3.6" height="15.0" fill="rgb(223,85,27)" rx="2" ry="2" />
<text  x="1184.03" y="191.5" ></text>
</g>
<g >
<title>netisr_dispatch_src (160 samples, 0.30%)</title><rect x="10.4" y="261" width="3.6" height="15.0" fill="rgb(211,63,1)" rx="2" ry="2" />
<text  x="13.40" y="271.5" ></text>
</g>
<g >
<title>soft_get_config (5 samples, 0.01%)</title><rect x="1179.6" y="181" width="0.1" height="15.0" fill="rgb(239,148,43)" rx="2" ry="2" />
<text  x="1182.62" y="191.5" ></text>
</g>
<g >
<title>parse_pkt (11 samples, 0.02%)</title><rect x="871.1" y="69" width="0.3" height="15.0" fill="rgb(229,178,41)" rx="2" ry="2" />
<text  x="874.14" y="79.5" ></text>
</g>
<g >
<title>ipf_pr_pullup (60 samples, 0.11%)</title><rect x="672.6" y="37" width="1.3" height="15.0" fill="rgb(237,103,33)" rx="2" ry="2" />
<text  x="675.56" y="47.5" ></text>
</g>
<g >
<title>write_gl_to_txd (20 samples, 0.04%)</title><rect x="1180.6" y="69" width="0.4" height="15.0" fill="rgb(207,20,39)" rx="2" ry="2" />
<text  x="1183.58" y="79.5" ></text>
</g>
<g >
<title>mp_ring_enqueue (612 samples, 1.16%)</title><rect x="857.4" y="69" width="13.7" height="15.0" fill="rgb(238,103,20)" rx="2" ry="2" />
<text  x="860.42" y="79.5" ></text>
</g>
<g >
<title>ether_output (161 samples, 0.31%)</title><rect x="1181.0" y="149" width="3.6" height="15.0" fill="rgb(230,203,14)" rx="2" ry="2" />
<text  x="1184.03" y="159.5" ></text>
</g>
<g >
<title>in_lltable_lookup (125 samples, 0.24%)</title><rect x="67.1" y="69" width="2.8" height="15.0" fill="rgb(214,106,11)" rx="2" ry="2" />
<text  x="70.08" y="79.5" ></text>
</g>
<g >
<title>ether_input (36,518 samples, 69.38%)</title><rect x="25.3" y="213" width="818.7" height="15.0" fill="rgb(234,99,18)" rx="2" ry="2" />
<text  x="28.29" y="223.5" >ether_input</text>
</g>
<g >
<title>ip_input (35,617 samples, 67.67%)</title><rect x="44.8" y="133" width="798.5" height="15.0" fill="rgb(249,40,18)" rx="2" ry="2" />
<text  x="47.77" y="143.5" >ip_input</text>
</g>
<g >
<title>ether_demux (160 samples, 0.30%)</title><rect x="10.4" y="229" width="3.6" height="15.0" fill="rgb(227,200,10)" rx="2" ry="2" />
<text  x="13.40" y="239.5" ></text>
</g>
<g >
<title>pmc_process_samples (25 samples, 0.05%)</title><rect x="1179.2" y="197" width="0.5" height="15.0" fill="rgb(223,10,16)" rx="2" ry="2" />
<text  x="1182.17" y="207.5" ></text>
</g>
<g >
<title>write_txpkts_wr (11 samples, 0.02%)</title><rect x="13.7" y="69" width="0.3" height="15.0" fill="rgb(247,10,38)" rx="2" ry="2" />
<text  x="16.74" y="79.5" ></text>
</g>
<g >
<title>arpresolve (501 samples, 0.95%)</title><rect x="58.9" y="85" width="11.3" height="15.0" fill="rgb(253,61,22)" rx="2" ry="2" />
<text  x="61.94" y="95.5" ></text>
</g>
<g >
<title>ether_nh_input (14,331 samples, 27.23%)</title><rect x="857.4" y="197" width="321.3" height="15.0" fill="rgb(224,85,49)" rx="2" ry="2" />
<text  x="860.42" y="207.5" >ether_nh_input</text>
</g>
<g >
<title>netisr_dispatch_src (35,707 samples, 67.84%)</title><rect x="42.8" y="149" width="800.5" height="15.0" fill="rgb(229,54,24)" rx="2" ry="2" />
<text  x="45.75" y="159.5" >netisr_dispatch_src</text>
</g>
<g >
<title>pmap_kextract (34 samples, 0.06%)</title><rect x="115.1" y="37" width="0.8" height="15.0" fill="rgb(225,97,42)" rx="2" ry="2" />
<text  x="118.10" y="47.5" ></text>
</g>
<g >
<title>ether_output (623 samples, 1.18%)</title><rect x="857.4" y="117" width="14.0" height="15.0" fill="rgb(227,194,54)" rx="2" ry="2" />
<text  x="860.42" y="127.5" ></text>
</g>
<g >
<title>write_txpkt_wr (66 samples, 0.13%)</title><rect x="1182.5" y="53" width="1.5" height="15.0" fill="rgb(224,67,53)" rx="2" ry="2" />
<text  x="1185.53" y="63.5" ></text>
</g>
<g >
<title>ether_demux (238 samples, 0.45%)</title><rect x="1184.6" y="197" width="5.4" height="15.0" fill="rgb(249,56,21)" rx="2" ry="2" />
<text  x="1187.64" y="207.5" ></text>
</g>
<g >
<title>ip_input (160 samples, 0.30%)</title><rect x="10.4" y="197" width="3.6" height="15.0" fill="rgb(227,149,18)" rx="2" ry="2" />
<text  x="13.40" y="207.5" ></text>
</g>
<g >
<title>m_pkthdr_init (36 samples, 0.07%)</title><rect x="854.1" y="165" width="0.8" height="15.0" fill="rgb(253,142,14)" rx="2" ry="2" />
<text  x="857.08" y="175.5" ></text>
</g>
<g >
<title>intr_execute_handlers (6 samples, 0.01%)</title><rect x="857.3" y="277" width="0.1" height="15.0" fill="rgb(213,7,15)" rx="2" ry="2" />
<text  x="860.26" y="287.5" ></text>
</g>
<g >
<title>eth_tx (612 samples, 1.16%)</title><rect x="857.4" y="37" width="13.7" height="15.0" fill="rgb(227,227,45)" rx="2" ry="2" />
<text  x="860.42" y="47.5" ></text>
</g>
<g >
<title>oce_mbox_post (31 samples, 0.06%)</title><rect x="856.5" y="181" width="0.7" height="15.0" fill="rgb(240,221,36)" rx="2" ry="2" />
<text  x="859.55" y="191.5" ></text>
</g>
<g >
<title>netisr_dispatch (10 samples, 0.02%)</title><rect x="42.5" y="149" width="0.3" height="15.0" fill="rgb(215,148,5)" rx="2" ry="2" />
<text  x="45.53" y="159.5" ></text>
</g>
<g >
<title>cxgbe_transmit (238 samples, 0.45%)</title><rect x="1184.6" y="101" width="5.4" height="15.0" fill="rgb(215,9,38)" rx="2" ry="2" />
<text  x="1187.64" y="111.5" ></text>
</g>
<g >
<title>cpu_switch (5 samples, 0.01%)</title><rect x="14.1" y="229" width="0.1" height="15.0" fill="rgb(249,155,42)" rx="2" ry="2" />
<text  x="17.10" y="239.5" ></text>
</g>
<g >
<title>acpi_cpu_idle_mwait (29 samples, 0.06%)</title><rect x="855.5" y="197" width="0.7" height="15.0" fill="rgb(226,9,31)" rx="2" ry="2" />
<text  x="858.52" y="207.5" ></text>
</g>
<g >
<title>fork_exit (37,614 samples, 71.46%)</title><rect x="14.0" y="277" width="843.3" height="15.0" fill="rgb(220,173,2)" rx="2" ry="2" />
<text  x="17.01" y="287.5" >fork_exit</text>
</g>
<g >
<title>m_freem (67 samples, 0.13%)</title><rect x="1181.0" y="53" width="1.5" height="15.0" fill="rgb(218,154,31)" rx="2" ry="2" />
<text  x="1184.03" y="63.5" ></text>
</g>
<g >
<title>write_gl_to_txd (11 samples, 0.02%)</title><rect x="13.7" y="53" width="0.3" height="15.0" fill="rgb(233,188,42)" rx="2" ry="2" />
<text  x="16.74" y="63.5" ></text>
</g>
<g >
<title>refill_fl (10 samples, 0.02%)</title><rect x="855.0" y="213" width="0.2" height="15.0" fill="rgb(225,24,4)" rx="2" ry="2" />
<text  x="858.02" y="223.5" ></text>
</g>
<g >
<title>ether_demux (35,880 samples, 68.17%)</title><rect x="38.9" y="165" width="804.4" height="15.0" fill="rgb(212,21,17)" rx="2" ry="2" />
<text  x="41.88" y="175.5" >ether_demux</text>
</g>
<g >
<title>ether_nh_input (160 samples, 0.30%)</title><rect x="10.4" y="245" width="3.6" height="15.0" fill="rgb(242,18,24)" rx="2" ry="2" />
<text  x="13.40" y="255.5" ></text>
</g>
<g >
<title>memmove_erms (66 samples, 0.13%)</title><rect x="1182.5" y="37" width="1.5" height="15.0" fill="rgb(226,11,49)" rx="2" ry="2" />
<text  x="1185.53" y="47.5" ></text>
</g>
<g >
<title>mp_ring_enqueue (160 samples, 0.30%)</title><rect x="10.4" y="117" width="3.6" height="15.0" fill="rgb(247,145,43)" rx="2" ry="2" />
<text  x="13.40" y="127.5" ></text>
</g>
<g >
<title>pmap_kextract (11 samples, 0.02%)</title><rect x="871.1" y="37" width="0.3" height="15.0" fill="rgb(208,139,20)" rx="2" ry="2" />
<text  x="874.14" y="47.5" ></text>
</g>
<g >
<title>_rw_wowned (777 samples, 1.48%)</title><rect x="530.4" y="53" width="17.4" height="15.0" fill="rgb(213,76,44)" rx="2" ry="2" />
<text  x="533.36" y="63.5" ></text>
</g>
<g >
<title>cpu_idle (42 samples, 0.08%)</title><rect x="855.4" y="245" width="0.9" height="15.0" fill="rgb(223,102,47)" rx="2" ry="2" />
<text  x="858.38" y="255.5" ></text>
</g>
<g >
<title>ipf_check_wrapper (31,986 samples, 60.77%)</title><rect x="126.2" y="85" width="717.1" height="15.0" fill="rgb(237,87,39)" rx="2" ry="2" />
<text  x="129.17" y="95.5" >ipf_check_wrapper</text>
</g>
<g >
<title>mb_dtor_mbuf (8 samples, 0.02%)</title><rect x="1180.0" y="37" width="0.2" height="15.0" fill="rgb(228,145,34)" rx="2" ry="2" />
<text  x="1183.00" y="47.5" ></text>
</g>
<g >
<title>drain_ring (46 samples, 0.09%)</title><rect x="1180.0" y="117" width="1.0" height="15.0" fill="rgb(229,135,43)" rx="2" ry="2" />
<text  x="1183.00" y="127.5" ></text>
</g>
<g >
<title>ipf_check (13,708 samples, 26.04%)</title><rect x="871.4" y="85" width="307.3" height="15.0" fill="rgb(253,73,52)" rx="2" ry="2" />
<text  x="874.39" y="95.5" >ipf_check</text>
</g>
<g >
<title>__mtx_lock_sleep (2,300 samples, 4.37%)</title><rect x="605.4" y="37" width="51.5" height="15.0" fill="rgb(222,59,52)" rx="2" ry="2" />
<text  x="608.37" y="47.5" >__mtx..</text>
</g>
<g >
<title>service_iq_fl (161 samples, 0.31%)</title><rect x="1181.0" y="277" width="3.6" height="15.0" fill="rgb(215,120,23)" rx="2" ry="2" />
<text  x="1184.03" y="287.5" ></text>
</g>
<g >
<title>ether_output_frame (238 samples, 0.45%)</title><rect x="1184.6" y="117" width="5.4" height="15.0" fill="rgb(250,108,14)" rx="2" ry="2" />
<text  x="1187.64" y="127.5" ></text>
</g>
<g >
<title>write_txpkts_wr (28 samples, 0.05%)</title><rect x="1184.0" y="53" width="0.6" height="15.0" fill="rgb(220,111,17)" rx="2" ry="2" />
<text  x="1187.01" y="63.5" ></text>
</g>
<g >
<title>drain_ring (160 samples, 0.30%)</title><rect x="10.4" y="101" width="3.6" height="15.0" fill="rgb(237,17,27)" rx="2" ry="2" />
<text  x="13.40" y="111.5" ></text>
</g>
<g >
<title>acpi_cpu_idle (30 samples, 0.06%)</title><rect x="855.5" y="213" width="0.7" height="15.0" fill="rgb(207,168,19)" rx="2" ry="2" />
<text  x="858.49" y="223.5" ></text>
</g>
<g >
<title>memcpy_erms (39 samples, 0.07%)</title><rect x="116.6" y="85" width="0.9" height="15.0" fill="rgb(248,52,34)" rx="2" ry="2" />
<text  x="119.58" y="95.5" ></text>
</g>
<g >
<title>oce_refresh_nic_stats (31 samples, 0.06%)</title><rect x="856.5" y="213" width="0.7" height="15.0" fill="rgb(222,187,50)" rx="2" ry="2" />
<text  x="859.55" y="223.5" ></text>
</g>
<g >
<title>ipf_derefrule (4,770 samples, 9.06%)</title><rect x="550.0" y="53" width="106.9" height="15.0" fill="rgb(217,125,31)" rx="2" ry="2" />
<text  x="553.00" y="63.5" >ipf_derefrule</text>
</g>
<g >
<title>ipf_auth_check (99 samples, 0.19%)</title><rect x="547.8" y="53" width="2.2" height="15.0" fill="rgb(236,91,54)" rx="2" ry="2" />
<text  x="550.78" y="63.5" ></text>
</g>
<g >
<title>_epoch_enter_preempt (111 samples, 0.21%)</title><rect x="26.7" y="197" width="2.5" height="15.0" fill="rgb(221,101,35)" rx="2" ry="2" />
<text  x="29.75" y="207.5" ></text>
</g>
<g >
<title>ip_findroute (166 samples, 0.32%)</title><rect x="119.2" y="101" width="3.7" height="15.0" fill="rgb(215,55,50)" rx="2" ry="2" />
<text  x="122.20" y="111.5" ></text>
</g>
<g >
<title>Xtimerint_pti (12 samples, 0.02%)</title><rect x="10.1" y="277" width="0.2" height="15.0" fill="rgb(226,28,24)" rx="2" ry="2" />
<text  x="13.07" y="287.5" ></text>
</g>
<g >
<title>ip_tryforward (161 samples, 0.31%)</title><rect x="1181.0" y="165" width="3.6" height="15.0" fill="rgb(227,204,9)" rx="2" ry="2" />
<text  x="1184.03" y="175.5" ></text>
</g>
<g >
<title>memmove_erms (104 samples, 0.20%)</title><rect x="848.5" y="197" width="2.4" height="15.0" fill="rgb(246,177,1)" rx="2" ry="2" />
<text  x="851.54" y="207.5" ></text>
</g>
<g >
<title>lock_delay (7,311 samples, 13.89%)</title><rect x="269.3" y="37" width="163.9" height="15.0" fill="rgb(235,171,12)" rx="2" ry="2" />
<text  x="272.27" y="47.5" >lock_delay</text>
</g>
<g >
<title>ether_output_frame (2,070 samples, 3.93%)</title><rect x="70.2" y="85" width="46.4" height="15.0" fill="rgb(251,206,6)" rx="2" ry="2" />
<text  x="73.17" y="95.5" >ethe..</text>
</g>
<g >
<title>netisr_dispatch_src (161 samples, 0.31%)</title><rect x="1181.0" y="197" width="3.6" height="15.0" fill="rgb(216,20,25)" rx="2" ry="2" />
<text  x="1184.03" y="207.5" ></text>
</g>
<g >
<title>ether_input (161 samples, 0.31%)</title><rect x="1181.0" y="261" width="3.6" height="15.0" fill="rgb(229,169,7)" rx="2" ry="2" />
<text  x="1184.03" y="271.5" ></text>
</g>
<g >
<title>softclock_thread (31 samples, 0.06%)</title><rect x="856.5" y="261" width="0.7" height="15.0" fill="rgb(205,174,22)" rx="2" ry="2" />
<text  x="859.55" y="271.5" ></text>
</g>
<g >
<title>m_free (149 samples, 0.28%)</title><rect x="10.4" y="53" width="3.3" height="15.0" fill="rgb(241,10,2)" rx="2" ry="2" />
<text  x="13.40" y="63.5" ></text>
</g>
<g >
<title>cpu_idle_acpi (30 samples, 0.06%)</title><rect x="855.5" y="229" width="0.7" height="15.0" fill="rgb(235,57,12)" rx="2" ry="2" />
<text  x="858.49" y="239.5" ></text>
</g>
<g >
<title>ipf_check (31,895 samples, 60.60%)</title><rect x="128.2" y="69" width="715.1" height="15.0" fill="rgb(248,23,26)" rx="2" ry="2" />
<text  x="131.21" y="79.5" >ipf_check</text>
</g>
<g >
<title>eth_tx (160 samples, 0.30%)</title><rect x="10.4" y="85" width="3.6" height="15.0" fill="rgb(240,163,31)" rx="2" ry="2" />
<text  x="13.40" y="95.5" ></text>
</g>
<g >
<title>__mtx_lock_sleep (8,059 samples, 15.31%)</title><rect x="871.4" y="53" width="180.7" height="15.0" fill="rgb(224,139,21)" rx="2" ry="2" />
<text  x="874.39" y="63.5" >__mtx_lock_sleep</text>
</g>
<g >
<title>oce_local_timer (31 samples, 0.06%)</title><rect x="856.5" y="229" width="0.7" height="15.0" fill="rgb(229,65,18)" rx="2" ry="2" />
<text  x="859.55" y="239.5" ></text>
</g>
<g >
<title>ether_nh_input (36,011 samples, 68.42%)</title><rect x="36.7" y="181" width="807.3" height="15.0" fill="rgb(222,51,20)" rx="2" ry="2" />
<text  x="39.66" y="191.5" >ether_nh_input</text>
</g>
<g >
<title>mp_ring_enqueue (46 samples, 0.09%)</title><rect x="1180.0" y="133" width="1.0" height="15.0" fill="rgb(221,153,51)" rx="2" ry="2" />
<text  x="1183.00" y="143.5" ></text>
</g>
<g >
<title>cxgbe_transmit (160 samples, 0.30%)</title><rect x="10.4" y="133" width="3.6" height="15.0" fill="rgb(220,121,53)" rx="2" ry="2" />
<text  x="13.40" y="143.5" ></text>
</g>
<g >
<title>m_adj (44 samples, 0.08%)</title><rect x="41.5" y="149" width="1.0" height="15.0" fill="rgb(253,87,50)" rx="2" ry="2" />
<text  x="44.54" y="159.5" ></text>
</g>
<g >
<title>parse_pkt (239 samples, 0.45%)</title><rect x="111.2" y="53" width="5.4" height="15.0" fill="rgb(205,80,38)" rx="2" ry="2" />
<text  x="114.22" y="63.5" ></text>
</g>
<g >
<title>oce_mbox_get_nic_stats_v1 (31 samples, 0.06%)</title><rect x="856.5" y="197" width="0.7" height="15.0" fill="rgb(222,102,34)" rx="2" ry="2" />
<text  x="859.55" y="207.5" ></text>
</g>
<g >
<title>in_localip (78 samples, 0.15%)</title><rect x="117.5" y="101" width="1.7" height="15.0" fill="rgb(236,33,21)" rx="2" ry="2" />
<text  x="120.45" y="111.5" ></text>
</g>
<g >
<title>sglist_count (32 samples, 0.06%)</title><rect x="115.9" y="37" width="0.7" height="15.0" fill="rgb(253,116,23)" rx="2" ry="2" />
<text  x="118.86" y="47.5" ></text>
</g>
<g >
<title>ip_tryforward (160 samples, 0.30%)</title><rect x="10.4" y="181" width="3.6" height="15.0" fill="rgb(239,1,18)" rx="2" ry="2" />
<text  x="13.40" y="191.5" ></text>
</g>
<g >
<title>ip_input (14,331 samples, 27.23%)</title><rect x="857.4" y="149" width="321.3" height="15.0" fill="rgb(223,18,54)" rx="2" ry="2" />
<text  x="860.42" y="159.5" >ip_input</text>
</g>
<g >
<title>intr_event_handle (5 samples, 0.01%)</title><rect x="857.3" y="261" width="0.1" height="15.0" fill="rgb(241,191,37)" rx="2" ry="2" />
<text  x="860.26" y="271.5" ></text>
</g>
<g >
<title>ether_input (14,331 samples, 27.23%)</title><rect x="857.4" y="229" width="321.3" height="15.0" fill="rgb(211,141,2)" rx="2" ry="2" />
<text  x="860.42" y="239.5" >ether_input</text>
</g>
<g >
<title>eth_tx (238 samples, 0.45%)</title><rect x="1184.6" y="53" width="5.4" height="15.0" fill="rgb(242,162,48)" rx="2" ry="2" />
<text  x="1187.64" y="63.5" ></text>
</g>
<g >
<title>fib4_lookup (138 samples, 0.26%)</title><rect x="119.8" y="85" width="3.1" height="15.0" fill="rgb(235,220,40)" rx="2" ry="2" />
<text  x="122.83" y="95.5" ></text>
</g>
<g >
<title>netisr_dispatch_src (14,331 samples, 27.23%)</title><rect x="857.4" y="213" width="321.3" height="15.0" fill="rgb(223,116,28)" rx="2" ry="2" />
<text  x="860.42" y="223.5" >netisr_dispatch_src</text>
</g>
<g >
<title>netisr_dispatch_src (160 samples, 0.30%)</title><rect x="10.4" y="213" width="3.6" height="15.0" fill="rgb(212,114,0)" rx="2" ry="2" />
<text  x="13.40" y="223.5" ></text>
</g>
<g >
<title>lapic_et_start (5 samples, 0.01%)</title><rect x="1179.8" y="229" width="0.1" height="15.0" fill="rgb(250,117,46)" rx="2" ry="2" />
<text  x="1182.78" y="239.5" ></text>
</g>
<g >
<title>write_txpkts_wr (31 samples, 0.06%)</title><rect x="1189.3" y="37" width="0.7" height="15.0" fill="rgb(230,100,8)" rx="2" ry="2" />
<text  x="1192.28" y="47.5" ></text>
</g>
<g >
<title>ithread_loop (14,331 samples, 27.23%)</title><rect x="857.4" y="277" width="321.3" height="15.0" fill="rgb(231,36,14)" rx="2" ry="2" />
<text  x="860.42" y="287.5" >ithread_loop</text>
</g>
<g >
<title>sglist_append_mbuf (11 samples, 0.02%)</title><rect x="13.7" y="37" width="0.3" height="15.0" fill="rgb(238,169,16)" rx="2" ry="2" />
<text  x="16.74" y="47.5" ></text>
</g>
<g >
<title>netisr_dispatch_src (46 samples, 0.09%)</title><rect x="1180.0" y="229" width="1.0" height="15.0" fill="rgb(240,68,22)" rx="2" ry="2" />
<text  x="1183.00" y="239.5" ></text>
</g>
<g >
<title>cxgbe_transmit (161 samples, 0.31%)</title><rect x="1181.0" y="117" width="3.6" height="15.0" fill="rgb(216,16,49)" rx="2" ry="2" />
<text  x="1184.03" y="127.5" ></text>
</g>
<g >
<title>ether_input (160 samples, 0.30%)</title><rect x="10.4" y="277" width="3.6" height="15.0" fill="rgb(233,180,23)" rx="2" ry="2" />
<text  x="13.40" y="287.5" ></text>
</g>
<g >
<title>ether_output (46 samples, 0.09%)</title><rect x="1180.0" y="181" width="1.0" height="15.0" fill="rgb(214,121,0)" rx="2" ry="2" />
<text  x="1183.00" y="191.5" ></text>
</g>
<g >
<title>drain_ring (908 samples, 1.73%)</title><rect x="90.9" y="37" width="20.3" height="15.0" fill="rgb(229,225,4)" rx="2" ry="2" />
<text  x="93.86" y="47.5" ></text>
</g>
<g >
<title>ip_tryforward (238 samples, 0.45%)</title><rect x="1184.6" y="149" width="5.4" height="15.0" fill="rgb(245,212,0)" rx="2" ry="2" />
<text  x="1187.64" y="159.5" ></text>
</g>
<g >
<title>handleevents (48 samples, 0.09%)</title><rect x="1178.9" y="245" width="1.1" height="15.0" fill="rgb(218,49,10)" rx="2" ry="2" />
<text  x="1181.93" y="255.5" ></text>
</g>
<g >
<title>ipf_nat_checkout (73 samples, 0.14%)</title><rect x="675.2" y="53" width="1.6" height="15.0" fill="rgb(216,13,18)" rx="2" ry="2" />
<text  x="678.20" y="63.5" ></text>
</g>
<g >
<title>service_iq_fl (37,503 samples, 71.25%)</title><rect x="14.5" y="229" width="840.7" height="15.0" fill="rgb(214,152,11)" rx="2" ry="2" />
<text  x="17.48" y="239.5" >service_iq_fl</text>
</g>
<g >
<title>cxgbe_transmit (46 samples, 0.09%)</title><rect x="1180.0" y="149" width="1.0" height="15.0" fill="rgb(211,226,23)" rx="2" ry="2" />
<text  x="1183.00" y="159.5" ></text>
</g>
<g >
<title>t4_intr (14,331 samples, 27.23%)</title><rect x="857.4" y="261" width="321.3" height="15.0" fill="rgb(207,124,33)" rx="2" ry="2" />
<text  x="860.42" y="271.5" >t4_intr</text>
</g>
<g >
<title>mp_ring_enqueue (238 samples, 0.45%)</title><rect x="1184.6" y="85" width="5.4" height="15.0" fill="rgb(237,191,25)" rx="2" ry="2" />
<text  x="1187.64" y="95.5" ></text>
</g>
<g >
<title>ipf_scanlist (5,649 samples, 10.73%)</title><rect x="1052.1" y="69" width="126.6" height="15.0" fill="rgb(214,159,33)" rx="2" ry="2" />
<text  x="1055.06" y="79.5" >ipf_scanlist</text>
</g>
<g >
<title>__rw_rlock_int (2,364 samples, 4.49%)</title><rect x="433.2" y="53" width="53.0" height="15.0" fill="rgb(232,142,9)" rx="2" ry="2" />
<text  x="436.17" y="63.5" >__rw_..</text>
</g>
<g >
<title>memcmp (32 samples, 0.06%)</title><rect x="843.3" y="165" width="0.7" height="15.0" fill="rgb(230,9,27)" rx="2" ry="2" />
<text  x="846.25" y="175.5" ></text>
</g>
<g >
<title>_ck_epoch_delref (17 samples, 0.03%)</title><rect x="30.8" y="181" width="0.4" height="15.0" fill="rgb(245,171,51)" rx="2" ry="2" />
<text  x="33.83" y="191.5" ></text>
</g>
<g >
<title>cxgbe_transmit (623 samples, 1.18%)</title><rect x="857.4" y="85" width="14.0" height="15.0" fill="rgb(244,47,16)" rx="2" ry="2" />
<text  x="860.42" y="95.5" ></text>
</g>
<g >
<title>DELAY (31 samples, 0.06%)</title><rect x="856.5" y="149" width="0.7" height="15.0" fill="rgb(240,83,43)" rx="2" ry="2" />
<text  x="859.55" y="159.5" ></text>
</g>
<g >
<title>ithread_loop (37,524 samples, 71.29%)</title><rect x="14.0" y="261" width="841.2" height="15.0" fill="rgb(209,142,39)" rx="2" ry="2" />
<text  x="17.01" y="271.5" >ithread_loop</text>
</g>
<g >
<title>_rw_runlock_cookie_int (1,971 samples, 3.74%)</title><rect x="486.2" y="53" width="44.2" height="15.0" fill="rgb(231,70,33)" rx="2" ry="2" />
<text  x="489.17" y="63.5" >_rw_..</text>
</g>
<g >
<title>pmc_hook_handler (27 samples, 0.05%)</title><rect x="1179.1" y="213" width="0.6" height="15.0" fill="rgb(226,11,21)" rx="2" ry="2" />
<text  x="1182.13" y="223.5" ></text>
</g>
<g >
<title>pfil_run_hooks (32,131 samples, 61.04%)</title><rect x="122.9" y="101" width="720.4" height="15.0" fill="rgb(218,47,31)" rx="2" ry="2" />
<text  x="125.92" y="111.5" >pfil_run_hooks</text>
</g>
<g >
<title>ip_input (238 samples, 0.45%)</title><rect x="1184.6" y="165" width="5.4" height="15.0" fill="rgb(227,195,7)" rx="2" ry="2" />
<text  x="1187.64" y="175.5" ></text>
</g>
<g >
<title>sglist_append (20 samples, 0.04%)</title><rect x="1180.6" y="37" width="0.4" height="15.0" fill="rgb(239,208,6)" rx="2" ry="2" />
<text  x="1183.58" y="47.5" ></text>
</g>
<g >
<title>memmove_erms (13 samples, 0.02%)</title><rect x="69.9" y="69" width="0.3" height="15.0" fill="rgb(218,114,8)" rx="2" ry="2" />
<text  x="72.88" y="79.5" ></text>
</g>
<g >
<title>m_freem (149 samples, 0.28%)</title><rect x="10.4" y="69" width="3.3" height="15.0" fill="rgb(235,21,0)" rx="2" ry="2" />
<text  x="13.40" y="79.5" ></text>
</g>
<g >
<title>ip_tryforward (14,331 samples, 27.23%)</title><rect x="857.4" y="133" width="321.3" height="15.0" fill="rgb(224,18,31)" rx="2" ry="2" />
<text  x="860.42" y="143.5" >ip_tryforward</text>
</g>
<g >
<title>sched_switch (11 samples, 0.02%)</title><rect x="14.2" y="229" width="0.3" height="15.0" fill="rgb(249,162,15)" rx="2" ry="2" />
<text  x="17.24" y="239.5" ></text>
</g>
<g >
<title>ip_input (46 samples, 0.09%)</title><rect x="1180.0" y="213" width="1.0" height="15.0" fill="rgb(253,209,52)" rx="2" ry="2" />
<text  x="1183.00" y="223.5" ></text>
</g>
<g >
<title>m_free (67 samples, 0.13%)</title><rect x="1181.0" y="37" width="1.5" height="15.0" fill="rgb(234,129,43)" rx="2" ry="2" />
<text  x="1184.03" y="47.5" ></text>
</g>
<g >
<title>mp_ring_enqueue (161 samples, 0.31%)</title><rect x="1181.0" y="101" width="3.6" height="15.0" fill="rgb(241,32,16)" rx="2" ry="2" />
<text  x="1184.03" y="111.5" ></text>
</g>
<g >
<title>pmap_kextract (18 samples, 0.03%)</title><rect x="1180.2" y="37" width="0.4" height="15.0" fill="rgb(252,63,10)" rx="2" ry="2" />
<text  x="1183.18" y="47.5" ></text>
</g>
<g >
<title>cpu_idleclock (7 samples, 0.01%)</title><rect x="856.2" y="229" width="0.1" height="15.0" fill="rgb(232,49,50)" rx="2" ry="2" />
<text  x="859.17" y="239.5" ></text>
</g>
<g >
<title>ether_output (238 samples, 0.45%)</title><rect x="1184.6" y="133" width="5.4" height="15.0" fill="rgb(242,99,2)" rx="2" ry="2" />
<text  x="1187.64" y="143.5" ></text>
</g>
<g >
<title>timercb (49 samples, 0.09%)</title><rect x="1178.9" y="261" width="1.1" height="15.0" fill="rgb(245,166,43)" rx="2" ry="2" />
<text  x="1181.90" y="271.5" ></text>
</g>
<g >
<title>_ck_epoch_addref (42 samples, 0.08%)</title><rect x="28.3" y="181" width="0.9" height="15.0" fill="rgb(224,175,18)" rx="2" ry="2" />
<text  x="31.29" y="191.5" ></text>
</g>
<g >
<title>lock_delay (5,649 samples, 10.73%)</title><rect x="1052.1" y="37" width="126.6" height="15.0" fill="rgb(232,157,26)" rx="2" ry="2" />
<text  x="1055.06" y="47.5" >lock_delay</text>
</g>
<g >
<title>bsearch4_lookup (100 samples, 0.19%)</title><rect x="120.7" y="69" width="2.2" height="15.0" fill="rgb(213,35,24)" rx="2" ry="2" />
<text  x="123.68" y="79.5" ></text>
</g>
<g >
<title>ether_output_frame (161 samples, 0.31%)</title><rect x="1181.0" y="133" width="3.6" height="15.0" fill="rgb(245,181,5)" rx="2" ry="2" />
<text  x="1184.03" y="143.5" ></text>
</g>
<g >
<title>drain_ring (161 samples, 0.31%)</title><rect x="1181.0" y="85" width="3.6" height="15.0" fill="rgb(208,101,12)" rx="2" ry="2" />
<text  x="1184.03" y="95.5" ></text>
</g>
<g >
<title>t4_intr (238 samples, 0.45%)</title><rect x="1184.6" y="277" width="5.4" height="15.0" fill="rgb(235,58,6)" rx="2" ry="2" />
<text  x="1187.64" y="287.5" ></text>
</g>
<g >
<title>m_freem (26 samples, 0.05%)</title><rect x="1180.0" y="85" width="0.6" height="15.0" fill="rgb(208,32,34)" rx="2" ry="2" />
<text  x="1183.00" y="95.5" ></text>
</g>
<g >
<title>pfil_run_hooks (13,708 samples, 26.04%)</title><rect x="871.4" y="117" width="307.3" height="15.0" fill="rgb(218,93,23)" rx="2" ry="2" />
<text  x="874.39" y="127.5" >pfil_run_hooks</text>
</g>
<g >
<title>netisr_dispatch_src (14,331 samples, 27.23%)</title><rect x="857.4" y="165" width="321.3" height="15.0" fill="rgb(205,100,52)" rx="2" ry="2" />
<text  x="860.42" y="175.5" >netisr_dispatch_src</text>
</g>
</g>
</svg>
