<?xml version="1.0" standalone="no"?>
<!DOCTYPE svg PUBLIC "-//W3C//DTD SVG 1.1//EN" "http://www.w3.org/Graphics/SVG/1.1/DTD/svg11.dtd">
<svg version="1.1" width="1200" height="342" onload="init(evt)" viewBox="0 0 1200 342" xmlns="http://www.w3.org/2000/svg" xmlns:xlink="http://www.w3.org/1999/xlink">
<!-- Flame graph stack visualization. See https://github.com/brendangregg/FlameGraph for latest version, and http://www.brendangregg.com/flamegraphs.html for examples. -->
<!-- NOTES:  -->
<defs>
	<linearGradient id="background" y1="0" y2="1" x1="0" x2="0" >
		<stop stop-color="#eeeeee" offset="5%" />
		<stop stop-color="#eeeeb0" offset="95%" />
	</linearGradient>
</defs>
<style type="text/css">
	text { font-family:Verdana; font-size:12px; fill:rgb(0,0,0); }
	#search, #ignorecase { opacity:0.1; cursor:pointer; }
	#search:hover, #search.show, #ignorecase:hover, #ignorecase.show { opacity:1; }
	#subtitle { text-anchor:middle; font-color:rgb(160,160,160); }
	#title { text-anchor:middle; font-size:17px}
	#unzoom { cursor:pointer; }
	#frames > *:hover { stroke:black; stroke-width:0.5; cursor:pointer; }
	.hide { display:none; }
	.parent { opacity:0.5; }
</style>
<script type="text/ecmascript">
<![CDATA[
	"use strict";
	var details, searchbtn, unzoombtn, matchedtxt, svg, searching, currentSearchTerm, ignorecase, ignorecaseBtn;
	function init(evt) {
		details = document.getElementById("details").firstChild;
		searchbtn = document.getElementById("search");
		ignorecaseBtn = document.getElementById("ignorecase");
		unzoombtn = document.getElementById("unzoom");
		matchedtxt = document.getElementById("matched");
		svg = document.getElementsByTagName("svg")[0];
		searching = 0;
		currentSearchTerm = null;

		// use GET parameters to restore a flamegraphs state.
		var params = get_params();
		if (params.x && params.y)
			zoom(find_group(document.querySelector('[x="' + params.x + '"][y="' + params.y + '"]')));
                if (params.s) search(params.s);
	}

	// event listeners
	window.addEventListener("click", function(e) {
		var target = find_group(e.target);
		if (target) {
			if (target.nodeName == "a") {
				if (e.ctrlKey === false) return;
				e.preventDefault();
			}
			if (target.classList.contains("parent")) unzoom();
			zoom(target);
			if (!document.querySelector('.parent')) {
				clearzoom();
				return;
			}

			// set parameters for zoom state
			var el = target.querySelector("rect");
			if (el && el.attributes && el.attributes.y && el.attributes._orig_x) {
				var params = get_params()
				params.x = el.attributes._orig_x.value;
				params.y = el.attributes.y.value;
				history.replaceState(null, null, parse_params(params));
			}
		}
		else if (e.target.id == "unzoom") clearzoom();
		else if (e.target.id == "search") search_prompt();
		else if (e.target.id == "ignorecase") toggle_ignorecase();
	}, false)

	// mouse-over for info
	// show
	window.addEventListener("mouseover", function(e) {
		var target = find_group(e.target);
		if (target) details.nodeValue = "Function: " + g_to_text(target);
	}, false)

	// clear
	window.addEventListener("mouseout", function(e) {
		var target = find_group(e.target);
		if (target) details.nodeValue = ' ';
	}, false)

	// ctrl-F for search
	// ctrl-I to toggle case-sensitive search
	window.addEventListener("keydown",function (e) {
		if (e.keyCode === 114 || (e.ctrlKey && e.keyCode === 70)) {
			e.preventDefault();
			search_prompt();
		}
		else if (e.ctrlKey && e.keyCode === 73) {
			e.preventDefault();
			toggle_ignorecase();
		}
	}, false)

	// functions
	function get_params() {
		var params = {};
		var paramsarr = window.location.search.substr(1).split('&');
		for (var i = 0; i < paramsarr.length; ++i) {
			var tmp = paramsarr[i].split("=");
			if (!tmp[0] || !tmp[1]) continue;
			params[tmp[0]]  = decodeURIComponent(tmp[1]);
		}
		return params;
	}
	function parse_params(params) {
		var uri = "?";
		for (var key in params) {
			uri += key + '=' + encodeURIComponent(params[key]) + '&';
		}
		if (uri.slice(-1) == "&")
			uri = uri.substring(0, uri.length - 1);
		if (uri == '?')
			uri = window.location.href.split('?')[0];
		return uri;
	}
	function find_child(node, selector) {
		var children = node.querySelectorAll(selector);
		if (children.length) return children[0];
	}
	function find_group(node) {
		var parent = node.parentElement;
		if (!parent) return;
		if (parent.id == "frames") return node;
		return find_group(parent);
	}
	function orig_save(e, attr, val) {
		if (e.attributes["_orig_" + attr] != undefined) return;
		if (e.attributes[attr] == undefined) return;
		if (val == undefined) val = e.attributes[attr].value;
		e.setAttribute("_orig_" + attr, val);
	}
	function orig_load(e, attr) {
		if (e.attributes["_orig_"+attr] == undefined) return;
		e.attributes[attr].value = e.attributes["_orig_" + attr].value;
		e.removeAttribute("_orig_"+attr);
	}
	function g_to_text(e) {
		var text = find_child(e, "title").firstChild.nodeValue;
		return (text)
	}
	function g_to_func(e) {
		var func = g_to_text(e);
		// if there's any manipulation we want to do to the function
		// name before it's searched, do it here before returning.
		return (func);
	}
	function update_text(e) {
		var r = find_child(e, "rect");
		var t = find_child(e, "text");
		var w = parseFloat(r.attributes.width.value) -3;
		var txt = find_child(e, "title").textContent.replace(/\([^(]*\)$/,"");
		t.attributes.x.value = parseFloat(r.attributes.x.value) + 3;

		// Smaller than this size won't fit anything
		if (w < 2 * 12 * 0.59) {
			t.textContent = "";
			return;
		}

		t.textContent = txt;
		// Fit in full text width
		if (/^ *$/.test(txt) || t.getSubStringLength(0, txt.length) < w)
			return;

		for (var x = txt.length - 2; x > 0; x--) {
			if (t.getSubStringLength(0, x + 2) <= w) {
				t.textContent = txt.substring(0, x) + "..";
				return;
			}
		}
		t.textContent = "";
	}

	// zoom
	function zoom_reset(e) {
		if (e.attributes != undefined) {
			orig_load(e, "x");
			orig_load(e, "width");
		}
		if (e.childNodes == undefined) return;
		for (var i = 0, c = e.childNodes; i < c.length; i++) {
			zoom_reset(c[i]);
		}
	}
	function zoom_child(e, x, ratio) {
		if (e.attributes != undefined) {
			if (e.attributes.x != undefined) {
				orig_save(e, "x");
				e.attributes.x.value = (parseFloat(e.attributes.x.value) - x - 10) * ratio + 10;
				if (e.tagName == "text")
					e.attributes.x.value = find_child(e.parentNode, "rect[x]").attributes.x.value + 3;
			}
			if (e.attributes.width != undefined) {
				orig_save(e, "width");
				e.attributes.width.value = parseFloat(e.attributes.width.value) * ratio;
			}
		}

		if (e.childNodes == undefined) return;
		for (var i = 0, c = e.childNodes; i < c.length; i++) {
			zoom_child(c[i], x - 10, ratio);
		}
	}
	function zoom_parent(e) {
		if (e.attributes) {
			if (e.attributes.x != undefined) {
				orig_save(e, "x");
				e.attributes.x.value = 10;
			}
			if (e.attributes.width != undefined) {
				orig_save(e, "width");
				e.attributes.width.value = parseInt(svg.width.baseVal.value) - (10 * 2);
			}
		}
		if (e.childNodes == undefined) return;
		for (var i = 0, c = e.childNodes; i < c.length; i++) {
			zoom_parent(c[i]);
		}
	}
	function zoom(node) {
		var attr = find_child(node, "rect").attributes;
		var width = parseFloat(attr.width.value);
		var xmin = parseFloat(attr.x.value);
		var xmax = parseFloat(xmin + width);
		var ymin = parseFloat(attr.y.value);
		var ratio = (svg.width.baseVal.value - 2 * 10) / width;

		// XXX: Workaround for JavaScript float issues (fix me)
		var fudge = 0.0001;

		unzoombtn.classList.remove("hide");

		var el = document.getElementById("frames").children;
		for (var i = 0; i < el.length; i++) {
			var e = el[i];
			var a = find_child(e, "rect").attributes;
			var ex = parseFloat(a.x.value);
			var ew = parseFloat(a.width.value);
			var upstack;
			// Is it an ancestor
			if (0 == 0) {
				upstack = parseFloat(a.y.value) > ymin;
			} else {
				upstack = parseFloat(a.y.value) < ymin;
			}
			if (upstack) {
				// Direct ancestor
				if (ex <= xmin && (ex+ew+fudge) >= xmax) {
					e.classList.add("parent");
					zoom_parent(e);
					update_text(e);
				}
				// not in current path
				else
					e.classList.add("hide");
			}
			// Children maybe
			else {
				// no common path
				if (ex < xmin || ex + fudge >= xmax) {
					e.classList.add("hide");
				}
				else {
					zoom_child(e, xmin, ratio);
					update_text(e);
				}
			}
		}
		search();
	}
	function unzoom() {
		unzoombtn.classList.add("hide");
		var el = document.getElementById("frames").children;
		for(var i = 0; i < el.length; i++) {
			el[i].classList.remove("parent");
			el[i].classList.remove("hide");
			zoom_reset(el[i]);
			update_text(el[i]);
		}
		search();
	}
	function clearzoom() {
		unzoom();

		// remove zoom state
		var params = get_params();
		if (params.x) delete params.x;
		if (params.y) delete params.y;
		history.replaceState(null, null, parse_params(params));
	}

	// search
	function toggle_ignorecase() {
		ignorecase = !ignorecase;
		if (ignorecase) {
			ignorecaseBtn.classList.add("show");
		} else {
			ignorecaseBtn.classList.remove("show");
		}
		reset_search();
		search();
	}
	function reset_search() {
		var el = document.querySelectorAll("#frames rect");
		for (var i = 0; i < el.length; i++) {
			orig_load(el[i], "fill")
		}
		var params = get_params();
		delete params.s;
		history.replaceState(null, null, parse_params(params));
	}
	function search_prompt() {
		if (!searching) {
			var term = prompt("Enter a search term (regexp " +
			    "allowed, eg: ^ext4_)"
			    + (ignorecase ? ", ignoring case" : "")
			    + "\nPress Ctrl-i to toggle case sensitivity", "");
			if (term != null) search(term);
		} else {
			reset_search();
			searching = 0;
			currentSearchTerm = null;
			searchbtn.classList.remove("show");
			searchbtn.firstChild.nodeValue = "Search"
			matchedtxt.classList.add("hide");
			matchedtxt.firstChild.nodeValue = ""
		}
	}
	function search(term) {
		if (term) currentSearchTerm = term;

		var re = new RegExp(currentSearchTerm, ignorecase ? 'i' : '');
		var el = document.getElementById("frames").children;
		var matches = new Object();
		var maxwidth = 0;
		for (var i = 0; i < el.length; i++) {
			var e = el[i];
			var func = g_to_func(e);
			var rect = find_child(e, "rect");
			if (func == null || rect == null)
				continue;

			// Save max width. Only works as we have a root frame
			var w = parseFloat(rect.attributes.width.value);
			if (w > maxwidth)
				maxwidth = w;

			if (func.match(re)) {
				// highlight
				var x = parseFloat(rect.attributes.x.value);
				orig_save(rect, "fill");
				rect.attributes.fill.value = "rgb(230,0,230)";

				// remember matches
				if (matches[x] == undefined) {
					matches[x] = w;
				} else {
					if (w > matches[x]) {
						// overwrite with parent
						matches[x] = w;
					}
				}
				searching = 1;
			}
		}
		if (!searching)
			return;
		var params = get_params();
		params.s = currentSearchTerm;
		history.replaceState(null, null, parse_params(params));

		searchbtn.classList.add("show");
		searchbtn.firstChild.nodeValue = "Reset Search";

		// calculate percent matched, excluding vertical overlap
		var count = 0;
		var lastx = -1;
		var lastw = 0;
		var keys = Array();
		for (k in matches) {
			if (matches.hasOwnProperty(k))
				keys.push(k);
		}
		// sort the matched frames by their x location
		// ascending, then width descending
		keys.sort(function(a, b){
			return a - b;
		});
		// Step through frames saving only the biggest bottom-up frames
		// thanks to the sort order. This relies on the tree property
		// where children are always smaller than their parents.
		var fudge = 0.0001;	// JavaScript floating point
		for (var k in keys) {
			var x = parseFloat(keys[k]);
			var w = matches[keys[k]];
			if (x >= lastx + lastw - fudge) {
				count += w;
				lastx = x;
				lastw = w;
			}
		}
		// display matched percent
		matchedtxt.classList.remove("hide");
		var pct = 100 * count / maxwidth;
		if (pct != 100) pct = pct.toFixed(1)
		matchedtxt.firstChild.nodeValue = "Matched: " + pct + "%";
	}
]]>
</script>
<rect x="0.0" y="0" width="1200.0" height="342.0" fill="url(#background)"  />
<text id="title" x="600.00" y="24" >Flame Graph</text>
<text id="details" x="10.00" y="325" > </text>
<text id="unzoom" x="10.00" y="24" class="hide">Reset Zoom</text>
<text id="search" x="1090.00" y="24" >Search</text>
<text id="ignorecase" x="1174.00" y="24" >ic</text>
<text id="matched" x="1090.00" y="325" > </text>
<g id="frames">
<g >
<title>netisr_dispatch (37 samples, 0.02%)</title><rect x="25.1" y="197" width="0.3" height="15.0" fill="rgb(207,49,10)" rx="2" ry="2" />
<text  x="28.15" y="207.5" ></text>
</g>
<g >
<title>tdq_move (27 samples, 0.01%)</title><rect x="726.3" y="245" width="0.2" height="15.0" fill="rgb(206,127,11)" rx="2" ry="2" />
<text  x="729.35" y="255.5" ></text>
</g>
<g >
<title>mb_dtor_mbuf (23 samples, 0.01%)</title><rect x="1184.7" y="37" width="0.1" height="15.0" fill="rgb(238,92,3)" rx="2" ry="2" />
<text  x="1187.66" y="47.5" ></text>
</g>
<g >
<title>t4_intr (121,279 samples, 60.26%)</title><rect x="13.7" y="245" width="711.0" height="15.0" fill="rgb(246,193,53)" rx="2" ry="2" />
<text  x="16.67" y="255.5" >t4_intr</text>
</g>
<g >
<title>drain_ring (302 samples, 0.15%)</title><rect x="1185.2" y="85" width="1.8" height="15.0" fill="rgb(234,89,2)" rx="2" ry="2" />
<text  x="1188.25" y="95.5" ></text>
</g>
<g >
<title>netisr_dispatch_src (509 samples, 0.25%)</title><rect x="1187.0" y="229" width="3.0" height="15.0" fill="rgb(233,90,42)" rx="2" ry="2" />
<text  x="1190.02" y="239.5" ></text>
</g>
<g >
<title>t4_intr (509 samples, 0.25%)</title><rect x="1187.0" y="277" width="3.0" height="15.0" fill="rgb(207,63,24)" rx="2" ry="2" />
<text  x="1190.02" y="287.5" ></text>
</g>
<g >
<title>m_freem (76 samples, 0.04%)</title><rect x="1187.0" y="37" width="0.5" height="15.0" fill="rgb(251,133,45)" rx="2" ry="2" />
<text  x="1190.02" y="47.5" ></text>
</g>
<g >
<title>fork_exit (121,699 samples, 60.46%)</title><rect x="13.0" y="277" width="713.5" height="15.0" fill="rgb(229,63,43)" rx="2" ry="2" />
<text  x="16.05" y="287.5" >fork_exit</text>
</g>
<g >
<title>ether_output_frame (99 samples, 0.05%)</title><rect x="1184.7" y="165" width="0.5" height="15.0" fill="rgb(219,6,22)" rx="2" ry="2" />
<text  x="1187.66" y="175.5" ></text>
</g>
<g >
<title>pmap_kextract (54 samples, 0.03%)</title><rect x="735.5" y="37" width="0.4" height="15.0" fill="rgb(244,59,14)" rx="2" ry="2" />
<text  x="738.54" y="47.5" ></text>
</g>
<g >
<title>write_txpkts_wr (26 samples, 0.01%)</title><rect x="1189.8" y="37" width="0.2" height="15.0" fill="rgb(218,125,11)" rx="2" ry="2" />
<text  x="1192.85" y="47.5" ></text>
</g>
<g >
<title>netisr_dispatch_src (118,059 samples, 58.66%)</title><rect x="25.4" y="197" width="692.1" height="15.0" fill="rgb(219,160,53)" rx="2" ry="2" />
<text  x="28.37" y="207.5" >netisr_dispatch_src</text>
</g>
<g >
<title>__mtx_lock_sleep (8,233 samples, 4.09%)</title><rect x="529.7" y="37" width="48.2" height="15.0" fill="rgb(210,224,39)" rx="2" ry="2" />
<text  x="532.67" y="47.5" >__mt..</text>
</g>
<g >
<title>ether_demux (117,290 samples, 58.27%)</title><rect x="29.5" y="165" width="687.6" height="15.0" fill="rgb(209,166,35)" rx="2" ry="2" />
<text  x="32.51" y="175.5" >ether_demux</text>
</g>
<g >
<title>Xapic_isr1_pti (23 samples, 0.01%)</title><rect x="10.0" y="277" width="0.2" height="15.0" fill="rgb(216,77,26)" rx="2" ry="2" />
<text  x="13.02" y="287.5" ></text>
</g>
<g >
<title>m_pkthdr_init (96 samples, 0.05%)</title><rect x="723.7" y="165" width="0.6" height="15.0" fill="rgb(215,23,29)" rx="2" ry="2" />
<text  x="726.73" y="175.5" ></text>
</g>
<g >
<title>write_txpkts_wr (36 samples, 0.02%)</title><rect x="1186.8" y="53" width="0.2" height="15.0" fill="rgb(218,6,38)" rx="2" ry="2" />
<text  x="1189.80" y="63.5" ></text>
</g>
<g >
<title>bsearch4_lookup (282 samples, 0.14%)</title><rect x="84.1" y="69" width="1.6" height="15.0" fill="rgb(216,45,43)" rx="2" ry="2" />
<text  x="87.07" y="79.5" ></text>
</g>
<g >
<title>_epoch_exit_preempt (204 samples, 0.10%)</title><rect x="24.0" y="197" width="1.1" height="15.0" fill="rgb(214,23,52)" rx="2" ry="2" />
<text  x="26.95" y="207.5" ></text>
</g>
<g >
<title>cxgbe_transmit (509 samples, 0.25%)</title><rect x="1187.0" y="101" width="3.0" height="15.0" fill="rgb(242,127,25)" rx="2" ry="2" />
<text  x="1190.02" y="111.5" ></text>
</g>
<g >
<title>_ck_epoch_delref (40 samples, 0.02%)</title><rect x="24.9" y="181" width="0.2" height="15.0" fill="rgb(208,129,29)" rx="2" ry="2" />
<text  x="27.91" y="191.5" ></text>
</g>
<g >
<title>cxgbe_transmit (4,873 samples, 2.42%)</title><rect x="52.7" y="69" width="28.5" height="15.0" fill="rgb(214,121,41)" rx="2" ry="2" />
<text  x="55.65" y="79.5" >cx..</text>
</g>
<g >
<title>mi_switch (22 samples, 0.01%)</title><rect x="726.2" y="245" width="0.1" height="15.0" fill="rgb(231,72,1)" rx="2" ry="2" />
<text  x="729.19" y="255.5" ></text>
</g>
<g >
<title>ether_output_frame (438 samples, 0.22%)</title><rect x="10.4" y="149" width="2.6" height="15.0" fill="rgb(210,184,49)" rx="2" ry="2" />
<text  x="13.43" y="159.5" ></text>
</g>
<g >
<title>keg_alloc_slab (29 samples, 0.01%)</title><rect x="724.5" y="149" width="0.2" height="15.0" fill="rgb(253,158,0)" rx="2" ry="2" />
<text  x="727.49" y="159.5" ></text>
</g>
<g >
<title>ether_output_frame (1,545 samples, 0.77%)</title><rect x="726.8" y="101" width="9.1" height="15.0" fill="rgb(233,49,0)" rx="2" ry="2" />
<text  x="729.80" y="111.5" ></text>
</g>
<g >
<title>ipf_state_check (198 samples, 0.10%)</title><rect x="711.5" y="53" width="1.2" height="15.0" fill="rgb(243,141,3)" rx="2" ry="2" />
<text  x="714.52" y="63.5" ></text>
</g>
<g >
<title>ether_nh_input (302 samples, 0.15%)</title><rect x="1185.2" y="229" width="1.8" height="15.0" fill="rgb(251,139,34)" rx="2" ry="2" />
<text  x="1188.25" y="239.5" ></text>
</g>
<g >
<title>__rw_rlock_int (6,575 samples, 3.27%)</title><rect x="406.8" y="53" width="38.5" height="15.0" fill="rgb(207,148,48)" rx="2" ry="2" />
<text  x="409.78" y="63.5" >__r..</text>
</g>
<g >
<title>eth_tx (99 samples, 0.05%)</title><rect x="1184.7" y="101" width="0.5" height="15.0" fill="rgb(223,4,8)" rx="2" ry="2" />
<text  x="1187.66" y="111.5" ></text>
</g>
<g >
<title>ithread_loop (77,928 samples, 38.72%)</title><rect x="726.8" y="277" width="456.9" height="15.0" fill="rgb(213,77,35)" rx="2" ry="2" />
<text  x="729.80" y="287.5" >ithread_loop</text>
</g>
<g >
<title>ip_tryforward (99 samples, 0.05%)</title><rect x="1184.7" y="197" width="0.5" height="15.0" fill="rgb(248,1,21)" rx="2" ry="2" />
<text  x="1187.66" y="207.5" ></text>
</g>
<g >
<title>cpu_idle_acpi (138 samples, 0.07%)</title><rect x="725.0" y="229" width="0.8" height="15.0" fill="rgb(213,205,50)" rx="2" ry="2" />
<text  x="728.03" y="239.5" ></text>
</g>
<g >
<title>cxgbe_transmit (99 samples, 0.05%)</title><rect x="1184.7" y="149" width="0.5" height="15.0" fill="rgb(209,172,7)" rx="2" ry="2" />
<text  x="1187.66" y="159.5" ></text>
</g>
<g >
<title>ip_tryforward (77,928 samples, 38.72%)</title><rect x="726.8" y="133" width="456.9" height="15.0" fill="rgb(227,150,28)" rx="2" ry="2" />
<text  x="729.80" y="143.5" >ip_tryforward</text>
</g>
<g >
<title>pfil_run_hooks (76,383 samples, 37.95%)</title><rect x="735.9" y="117" width="447.8" height="15.0" fill="rgb(213,182,33)" rx="2" ry="2" />
<text  x="738.86" y="127.5" >pfil_run_hooks</text>
</g>
<g >
<title>sglist_count (66 samples, 0.03%)</title><rect x="80.8" y="37" width="0.4" height="15.0" fill="rgb(209,121,43)" rx="2" ry="2" />
<text  x="83.83" y="47.5" ></text>
</g>
<g >
<title>eth_tx (438 samples, 0.22%)</title><rect x="10.4" y="85" width="2.6" height="15.0" fill="rgb(235,49,19)" rx="2" ry="2" />
<text  x="13.43" y="95.5" ></text>
</g>
<g >
<title>parse_pkt (54 samples, 0.03%)</title><rect x="735.5" y="69" width="0.4" height="15.0" fill="rgb(252,57,11)" rx="2" ry="2" />
<text  x="738.54" y="79.5" ></text>
</g>
<g >
<title>uma_zalloc_arg (484 samples, 0.24%)</title><rect x="721.5" y="197" width="2.8" height="15.0" fill="rgb(213,97,10)" rx="2" ry="2" />
<text  x="724.46" y="207.5" ></text>
</g>
<g >
<title>uma_zfree_arg (67 samples, 0.03%)</title><rect x="1184.7" y="53" width="0.4" height="15.0" fill="rgb(220,158,41)" rx="2" ry="2" />
<text  x="1187.66" y="63.5" ></text>
</g>
<g >
<title>t4_intr (77,928 samples, 38.72%)</title><rect x="726.8" y="261" width="456.9" height="15.0" fill="rgb(221,106,46)" rx="2" ry="2" />
<text  x="729.80" y="271.5" >t4_intr</text>
</g>
<g >
<title>write_txpkts_wr (32 samples, 0.02%)</title><rect x="1185.1" y="85" width="0.1" height="15.0" fill="rgb(227,33,26)" rx="2" ry="2" />
<text  x="1188.06" y="95.5" ></text>
</g>
<g >
<title>ipf_checkv4sum (301 samples, 0.15%)</title><rect x="586.9" y="37" width="1.8" height="15.0" fill="rgb(225,114,3)" rx="2" ry="2" />
<text  x="589.94" y="47.5" ></text>
</g>
<g >
<title>lapic_handle_timer (167 samples, 0.08%)</title><rect x="1183.7" y="277" width="1.0" height="15.0" fill="rgb(233,208,21)" rx="2" ry="2" />
<text  x="1186.69" y="287.5" ></text>
</g>
<g >
<title>ip_input (302 samples, 0.15%)</title><rect x="1185.2" y="181" width="1.8" height="15.0" fill="rgb(238,60,17)" rx="2" ry="2" />
<text  x="1188.25" y="191.5" ></text>
</g>
<g >
<title>sglist_count (54 samples, 0.03%)</title><rect x="735.5" y="53" width="0.4" height="15.0" fill="rgb(229,137,48)" rx="2" ry="2" />
<text  x="738.54" y="63.5" ></text>
</g>
<g >
<title>service_iq_fl (509 samples, 0.25%)</title><rect x="1187.0" y="261" width="3.0" height="15.0" fill="rgb(217,6,7)" rx="2" ry="2" />
<text  x="1190.02" y="271.5" ></text>
</g>
<g >
<title>ether_input (302 samples, 0.15%)</title><rect x="1185.2" y="261" width="1.8" height="15.0" fill="rgb(228,63,41)" rx="2" ry="2" />
<text  x="1188.25" y="271.5" ></text>
</g>
<g >
<title>memset_erms (761 samples, 0.38%)</title><rect x="712.7" y="53" width="4.4" height="15.0" fill="rgb(206,189,12)" rx="2" ry="2" />
<text  x="715.68" y="63.5" ></text>
</g>
<g >
<title>ether_demux (99 samples, 0.05%)</title><rect x="1184.7" y="245" width="0.5" height="15.0" fill="rgb(211,77,22)" rx="2" ry="2" />
<text  x="1187.66" y="255.5" ></text>
</g>
<g >
<title>sched_switch (58 samples, 0.03%)</title><rect x="13.3" y="229" width="0.4" height="15.0" fill="rgb(225,218,23)" rx="2" ry="2" />
<text  x="16.31" y="239.5" ></text>
</g>
<g >
<title>ether_input (509 samples, 0.25%)</title><rect x="1187.0" y="245" width="3.0" height="15.0" fill="rgb(210,12,5)" rx="2" ry="2" />
<text  x="1190.02" y="255.5" ></text>
</g>
<g >
<title>ipf_nat_checkin (154 samples, 0.08%)</title><rect x="589.9" y="53" width="0.9" height="15.0" fill="rgb(213,120,6)" rx="2" ry="2" />
<text  x="592.86" y="63.5" ></text>
</g>
<g >
<title>hardclock (105 samples, 0.05%)</title><rect x="1183.9" y="229" width="0.6" height="15.0" fill="rgb(231,52,15)" rx="2" ry="2" />
<text  x="1186.89" y="239.5" ></text>
</g>
<g >
<title>in_lltable_lookup (110 samples, 0.05%)</title><rect x="44.2" y="69" width="0.6" height="15.0" fill="rgb(245,143,44)" rx="2" ry="2" />
<text  x="47.16" y="79.5" ></text>
</g>
<g >
<title>netisr_dispatch_src (302 samples, 0.15%)</title><rect x="1185.2" y="197" width="1.8" height="15.0" fill="rgb(246,49,7)" rx="2" ry="2" />
<text  x="1188.25" y="207.5" ></text>
</g>
<g >
<title>ipf_derefrule (15,904 samples, 7.90%)</title><rect x="484.7" y="53" width="93.2" height="15.0" fill="rgb(233,142,49)" rx="2" ry="2" />
<text  x="487.70" y="63.5" >ipf_derefrule</text>
</g>
<g >
<title>ipf_scanlist (33,444 samples, 16.62%)</title><rect x="987.6" y="69" width="196.1" height="15.0" fill="rgb(221,70,35)" rx="2" ry="2" />
<text  x="990.60" y="79.5" >ipf_scanlist</text>
</g>
<g >
<title>m_freem (401 samples, 0.20%)</title><rect x="10.4" y="69" width="2.4" height="15.0" fill="rgb(242,114,29)" rx="2" ry="2" />
<text  x="13.43" y="79.5" ></text>
</g>
<g >
<title>ipf_check_wrapper (107,348 samples, 53.33%)</title><rect x="87.8" y="85" width="629.3" height="15.0" fill="rgb(240,43,41)" rx="2" ry="2" />
<text  x="90.80" y="95.5" >ipf_check_wrapper</text>
</g>
<g >
<title>ip_findroute (470 samples, 0.23%)</title><rect x="83.0" y="101" width="2.7" height="15.0" fill="rgb(225,220,30)" rx="2" ry="2" />
<text  x="85.97" y="111.5" ></text>
</g>
<g >
<title>_ck_epoch_addref (67 samples, 0.03%)</title><rect x="23.6" y="181" width="0.4" height="15.0" fill="rgb(250,160,7)" rx="2" ry="2" />
<text  x="26.56" y="191.5" ></text>
</g>
<g >
<title>cxgbe_transmit (438 samples, 0.22%)</title><rect x="10.4" y="133" width="2.6" height="15.0" fill="rgb(233,29,12)" rx="2" ry="2" />
<text  x="13.43" y="143.5" ></text>
</g>
<g >
<title>ithread_loop (121,385 samples, 60.31%)</title><rect x="13.0" y="261" width="711.7" height="15.0" fill="rgb(247,172,50)" rx="2" ry="2" />
<text  x="16.05" y="271.5" >ithread_loop</text>
</g>
<g >
<title>ether_output (302 samples, 0.15%)</title><rect x="1185.2" y="149" width="1.8" height="15.0" fill="rgb(243,17,47)" rx="2" ry="2" />
<text  x="1188.25" y="159.5" ></text>
</g>
<g >
<title>ether_output (99 samples, 0.05%)</title><rect x="1184.7" y="181" width="0.5" height="15.0" fill="rgb(230,149,28)" rx="2" ry="2" />
<text  x="1187.66" y="191.5" ></text>
</g>
<g >
<title>uma_small_alloc (18 samples, 0.01%)</title><rect x="724.5" y="133" width="0.1" height="15.0" fill="rgb(254,130,35)" rx="2" ry="2" />
<text  x="727.53" y="143.5" ></text>
</g>
<g >
<title>mp_ring_enqueue (509 samples, 0.25%)</title><rect x="1187.0" y="85" width="3.0" height="15.0" fill="rgb(216,104,19)" rx="2" ry="2" />
<text  x="1190.02" y="95.5" ></text>
</g>
<g >
<title>ether_input (77,928 samples, 38.72%)</title><rect x="726.8" y="229" width="456.9" height="15.0" fill="rgb(231,123,47)" rx="2" ry="2" />
<text  x="729.80" y="239.5" >ether_input</text>
</g>
<g >
<title>ether_nh_input (77,928 samples, 38.72%)</title><rect x="726.8" y="197" width="456.9" height="15.0" fill="rgb(206,19,29)" rx="2" ry="2" />
<text  x="729.80" y="207.5" >ether_nh_input</text>
</g>
<g >
<title>__mtx_lock_sleep (42,939 samples, 21.33%)</title><rect x="735.9" y="53" width="251.7" height="15.0" fill="rgb(233,14,16)" rx="2" ry="2" />
<text  x="738.86" y="63.5" >__mtx_lock_sleep</text>
</g>
<g >
<title>ether_nh_input (99 samples, 0.05%)</title><rect x="1184.7" y="261" width="0.5" height="15.0" fill="rgb(243,160,29)" rx="2" ry="2" />
<text  x="1187.66" y="271.5" ></text>
</g>
<g >
<title>ether_nh_input (509 samples, 0.25%)</title><rect x="1187.0" y="213" width="3.0" height="15.0" fill="rgb(224,7,11)" rx="2" ry="2" />
<text  x="1190.02" y="223.5" ></text>
</g>
<g >
<title>ether_output_frame (509 samples, 0.25%)</title><rect x="1187.0" y="117" width="3.0" height="15.0" fill="rgb(231,6,11)" rx="2" ry="2" />
<text  x="1190.02" y="127.5" ></text>
</g>
<g >
<title>cache_alloc_retry (34 samples, 0.02%)</title><rect x="724.5" y="197" width="0.2" height="15.0" fill="rgb(219,51,45)" rx="2" ry="2" />
<text  x="727.48" y="207.5" ></text>
</g>
<g >
<title>mp_ring_enqueue (302 samples, 0.15%)</title><rect x="1185.2" y="101" width="1.8" height="15.0" fill="rgb(218,189,33)" rx="2" ry="2" />
<text  x="1188.25" y="111.5" ></text>
</g>
<g >
<title>intr_execute_handlers (47 samples, 0.02%)</title><rect x="726.5" y="277" width="0.3" height="15.0" fill="rgb(241,65,48)" rx="2" ry="2" />
<text  x="729.53" y="287.5" ></text>
</g>
<g >
<title>pmc_process_samples (61 samples, 0.03%)</title><rect x="1184.1" y="197" width="0.3" height="15.0" fill="rgb(229,102,21)" rx="2" ry="2" />
<text  x="1187.06" y="207.5" ></text>
</g>
<g >
<title>cpu_search_highest (18 samples, 0.01%)</title><rect x="13.5" y="213" width="0.1" height="15.0" fill="rgb(251,227,44)" rx="2" ry="2" />
<text  x="16.45" y="223.5" ></text>
</g>
<g >
<title>mp_ring_enqueue (1,491 samples, 0.74%)</title><rect x="726.8" y="69" width="8.7" height="15.0" fill="rgb(215,194,9)" rx="2" ry="2" />
<text  x="729.80" y="79.5" ></text>
</g>
<g >
<title>cxgbe_transmit (1,545 samples, 0.77%)</title><rect x="726.8" y="85" width="9.1" height="15.0" fill="rgb(231,4,9)" rx="2" ry="2" />
<text  x="729.80" y="95.5" ></text>
</g>
<g >
<title>eth_tx (509 samples, 0.25%)</title><rect x="1187.0" y="53" width="3.0" height="15.0" fill="rgb(247,10,6)" rx="2" ry="2" />
<text  x="1190.02" y="63.5" ></text>
</g>
<g >
<title>netisr_dispatch_src (509 samples, 0.25%)</title><rect x="1187.0" y="181" width="3.0" height="15.0" fill="rgb(226,204,26)" rx="2" ry="2" />
<text  x="1190.02" y="191.5" ></text>
</g>
<g >
<title>timercb (152 samples, 0.08%)</title><rect x="1183.8" y="261" width="0.9" height="15.0" fill="rgb(248,53,40)" rx="2" ry="2" />
<text  x="1186.77" y="271.5" ></text>
</g>
<g >
<title>refill_fl (43 samples, 0.02%)</title><rect x="724.4" y="213" width="0.3" height="15.0" fill="rgb(253,121,16)" rx="2" ry="2" />
<text  x="727.43" y="223.5" ></text>
</g>
<g >
<title>Xtimerint_pti (42 samples, 0.02%)</title><rect x="10.2" y="277" width="0.2" height="15.0" fill="rgb(221,81,1)" rx="2" ry="2" />
<text  x="13.18" y="287.5" ></text>
</g>
<g >
<title>ether_input (438 samples, 0.22%)</title><rect x="10.4" y="277" width="2.6" height="15.0" fill="rgb(236,224,21)" rx="2" ry="2" />
<text  x="13.43" y="287.5" ></text>
</g>
<g >
<title>ip_tryforward (438 samples, 0.22%)</title><rect x="10.4" y="181" width="2.6" height="15.0" fill="rgb(215,125,16)" rx="2" ry="2" />
<text  x="13.43" y="191.5" ></text>
</g>
<g >
<title>write_gl_to_txd (37 samples, 0.02%)</title><rect x="12.8" y="53" width="0.2" height="15.0" fill="rgb(243,175,41)" rx="2" ry="2" />
<text  x="15.78" y="63.5" ></text>
</g>
<g >
<title>memmove_erms (275 samples, 0.14%)</title><rect x="719.8" y="197" width="1.7" height="15.0" fill="rgb(236,174,0)" rx="2" ry="2" />
<text  x="722.84" y="207.5" ></text>
</g>
<g >
<title>_rw_runlock_cookie_int (4,637 samples, 2.30%)</title><rect x="445.3" y="53" width="27.2" height="15.0" fill="rgb(205,52,43)" rx="2" ry="2" />
<text  x="448.33" y="63.5" >_..</text>
</g>
<g >
<title>ipf_auth_check (283 samples, 0.14%)</title><rect x="483.0" y="53" width="1.7" height="15.0" fill="rgb(214,58,10)" rx="2" ry="2" />
<text  x="486.04" y="63.5" ></text>
</g>
<g >
<title>ether_output_frame (302 samples, 0.15%)</title><rect x="1185.2" y="133" width="1.8" height="15.0" fill="rgb(226,195,34)" rx="2" ry="2" />
<text  x="1188.25" y="143.5" ></text>
</g>
<g >
<title>ether_demux (438 samples, 0.22%)</title><rect x="10.4" y="229" width="2.6" height="15.0" fill="rgb(247,130,20)" rx="2" ry="2" />
<text  x="13.43" y="239.5" ></text>
</g>
<g >
<title>mp_ring_enqueue (438 samples, 0.22%)</title><rect x="10.4" y="117" width="2.6" height="15.0" fill="rgb(250,229,37)" rx="2" ry="2" />
<text  x="13.43" y="127.5" ></text>
</g>
<g >
<title>all (201,274 samples, 100%)</title><rect x="10.0" y="293" width="1180.0" height="15.0" fill="rgb(207,166,48)" rx="2" ry="2" />
<text  x="13.00" y="303.5" ></text>
</g>
<g >
<title>netisr_dispatch (27 samples, 0.01%)</title><rect x="31.7" y="149" width="0.1" height="15.0" fill="rgb(246,2,20)" rx="2" ry="2" />
<text  x="34.68" y="159.5" ></text>
</g>
<g >
<title>memmove_erms (138 samples, 0.07%)</title><rect x="1186.0" y="37" width="0.8" height="15.0" fill="rgb(231,122,37)" rx="2" ry="2" />
<text  x="1189.00" y="47.5" ></text>
</g>
<g >
<title>__mtx_lock_sleep (6,464 samples, 3.21%)</title><rect x="673.6" y="37" width="37.9" height="15.0" fill="rgb(248,98,39)" rx="2" ry="2" />
<text  x="676.62" y="47.5" >__m..</text>
</g>
<g >
<title>write_gl_to_txd (32 samples, 0.02%)</title><rect x="1185.1" y="69" width="0.1" height="15.0" fill="rgb(230,201,16)" rx="2" ry="2" />
<text  x="1188.06" y="79.5" ></text>
</g>
<g >
<title>mi_switch (84 samples, 0.04%)</title><rect x="13.2" y="245" width="0.5" height="15.0" fill="rgb(239,21,36)" rx="2" ry="2" />
<text  x="16.16" y="255.5" ></text>
</g>
<g >
<title>drain_ring (509 samples, 0.25%)</title><rect x="1187.0" y="69" width="3.0" height="15.0" fill="rgb(237,116,15)" rx="2" ry="2" />
<text  x="1190.02" y="79.5" ></text>
</g>
<g >
<title>_epoch_enter_preempt (240 samples, 0.12%)</title><rect x="22.5" y="197" width="1.5" height="15.0" fill="rgb(241,217,27)" rx="2" ry="2" />
<text  x="25.55" y="207.5" ></text>
</g>
<g >
<title>drain_ring (2,570 samples, 1.28%)</title><rect x="63.1" y="37" width="15.1" height="15.0" fill="rgb(223,163,4)" rx="2" ry="2" />
<text  x="66.14" y="47.5" ></text>
</g>
<g >
<title>pfil_run_hooks (107,701 samples, 53.51%)</title><rect x="85.7" y="101" width="631.4" height="15.0" fill="rgb(236,67,8)" rx="2" ry="2" />
<text  x="88.73" y="111.5" >pfil_run_hooks</text>
</g>
<g >
<title>handleevents (143 samples, 0.07%)</title><rect x="1183.8" y="245" width="0.9" height="15.0" fill="rgb(241,100,33)" rx="2" ry="2" />
<text  x="1186.83" y="255.5" ></text>
</g>
<g >
<title>acpi_cpu_idle_mwait (112 samples, 0.06%)</title><rect x="725.2" y="197" width="0.6" height="15.0" fill="rgb(214,219,1)" rx="2" ry="2" />
<text  x="728.17" y="207.5" ></text>
</g>
<g >
<title>netisr_dispatch_src (77,928 samples, 38.72%)</title><rect x="726.8" y="165" width="456.9" height="15.0" fill="rgb(213,23,42)" rx="2" ry="2" />
<text  x="729.80" y="175.5" >netisr_dispatch_src</text>
</g>
<g >
<title>ether_output_frame (5,203 samples, 2.59%)</title><rect x="50.7" y="85" width="30.5" height="15.0" fill="rgb(206,136,12)" rx="2" ry="2" />
<text  x="53.72" y="95.5" >et..</text>
</g>
<g >
<title>ether_nh_input (117,615 samples, 58.44%)</title><rect x="28.0" y="181" width="689.5" height="15.0" fill="rgb(229,149,4)" rx="2" ry="2" />
<text  x="30.97" y="191.5" >ether_nh_input</text>
</g>
<g >
<title>write_txpkt_wr (138 samples, 0.07%)</title><rect x="1186.0" y="53" width="0.8" height="15.0" fill="rgb(227,26,25)" rx="2" ry="2" />
<text  x="1189.00" y="63.5" ></text>
</g>
<g >
<title>ether_demux (509 samples, 0.25%)</title><rect x="1187.0" y="197" width="3.0" height="15.0" fill="rgb(206,180,39)" rx="2" ry="2" />
<text  x="1190.02" y="207.5" ></text>
</g>
<g >
<title>drain_ring (99 samples, 0.05%)</title><rect x="1184.7" y="117" width="0.5" height="15.0" fill="rgb(243,79,4)" rx="2" ry="2" />
<text  x="1187.66" y="127.5" ></text>
</g>
<g >
<title>lock_delay (33,444 samples, 16.62%)</title><rect x="987.6" y="37" width="196.1" height="15.0" fill="rgb(224,129,27)" rx="2" ry="2" />
<text  x="990.60" y="47.5" >lock_delay</text>
</g>
<g >
<title>ip_tryforward (116,316 samples, 57.79%)</title><rect x="35.2" y="117" width="681.9" height="15.0" fill="rgb(218,92,42)" rx="2" ry="2" />
<text  x="38.22" y="127.5" >ip_tryforward</text>
</g>
<g >
<title>netisr_dispatch_src (438 samples, 0.22%)</title><rect x="10.4" y="261" width="2.6" height="15.0" fill="rgb(209,137,47)" rx="2" ry="2" />
<text  x="13.43" y="271.5" ></text>
</g>
<g >
<title>ether_output (7,118 samples, 3.54%)</title><rect x="39.9" y="101" width="41.7" height="15.0" fill="rgb(240,148,39)" rx="2" ry="2" />
<text  x="42.87" y="111.5" >eth..</text>
</g>
<g >
<title>memmove_erms (1,009 samples, 0.50%)</title><rect x="44.8" y="69" width="5.9" height="15.0" fill="rgb(210,56,25)" rx="2" ry="2" />
<text  x="47.80" y="79.5" ></text>
</g>
<g >
<title>m_freem (67 samples, 0.03%)</title><rect x="1184.7" y="85" width="0.4" height="15.0" fill="rgb(249,78,29)" rx="2" ry="2" />
<text  x="1187.66" y="95.5" ></text>
</g>
<g >
<title>parse_pkt (513 samples, 0.25%)</title><rect x="78.2" y="53" width="3.0" height="15.0" fill="rgb(230,189,16)" rx="2" ry="2" />
<text  x="81.21" y="63.5" ></text>
</g>
<g >
<title>m_free (401 samples, 0.20%)</title><rect x="10.4" y="53" width="2.4" height="15.0" fill="rgb(242,160,9)" rx="2" ry="2" />
<text  x="13.43" y="63.5" ></text>
</g>
<g >
<title>m_adj (100 samples, 0.05%)</title><rect x="31.1" y="149" width="0.6" height="15.0" fill="rgb(229,178,46)" rx="2" ry="2" />
<text  x="34.09" y="159.5" ></text>
</g>
<g >
<title>pmap_kextract (89 samples, 0.04%)</title><rect x="80.3" y="37" width="0.5" height="15.0" fill="rgb(243,102,46)" rx="2" ry="2" />
<text  x="83.31" y="47.5" ></text>
</g>
<g >
<title>netisr_dispatch_src (116,893 samples, 58.08%)</title><rect x="31.8" y="149" width="685.3" height="15.0" fill="rgb(207,195,52)" rx="2" ry="2" />
<text  x="34.84" y="159.5" >netisr_dispatch_src</text>
</g>
<g >
<title>zone_import (34 samples, 0.02%)</title><rect x="724.5" y="165" width="0.2" height="15.0" fill="rgb(234,6,8)" rx="2" ry="2" />
<text  x="727.48" y="175.5" ></text>
</g>
<g >
<title>intr_event_schedule_thread (22 samples, 0.01%)</title><rect x="726.7" y="245" width="0.1" height="15.0" fill="rgb(230,203,8)" rx="2" ry="2" />
<text  x="729.67" y="255.5" ></text>
</g>
<g >
<title>arpresolve (1,355 samples, 0.67%)</title><rect x="42.8" y="85" width="7.9" height="15.0" fill="rgb(228,118,21)" rx="2" ry="2" />
<text  x="45.77" y="95.5" ></text>
</g>
<g >
<title>mb_ctor_mbuf (290 samples, 0.14%)</title><rect x="722.6" y="181" width="1.7" height="15.0" fill="rgb(208,29,12)" rx="2" ry="2" />
<text  x="725.59" y="191.5" ></text>
</g>
<g >
<title>memcpy_erms (65 samples, 0.03%)</title><rect x="81.2" y="85" width="0.4" height="15.0" fill="rgb(250,2,38)" rx="2" ry="2" />
<text  x="84.22" y="95.5" ></text>
</g>
<g >
<title>drain_ring (438 samples, 0.22%)</title><rect x="10.4" y="101" width="2.6" height="15.0" fill="rgb(221,59,14)" rx="2" ry="2" />
<text  x="13.43" y="111.5" ></text>
</g>
<g >
<title>mp_ring_enqueue (3,794 samples, 1.88%)</title><rect x="56.0" y="53" width="22.2" height="15.0" fill="rgb(232,222,22)" rx="2" ry="2" />
<text  x="58.97" y="63.5" >m..</text>
</g>
<g >
<title>service_iq_fl (77,928 samples, 38.72%)</title><rect x="726.8" y="245" width="456.9" height="15.0" fill="rgb(219,13,51)" rx="2" ry="2" />
<text  x="729.80" y="255.5" >service_iq_fl</text>
</g>
<g >
<title>mp_ring_enqueue (99 samples, 0.05%)</title><rect x="1184.7" y="133" width="0.5" height="15.0" fill="rgb(212,5,44)" rx="2" ry="2" />
<text  x="1187.66" y="143.5" ></text>
</g>
<g >
<title>lock_delay (42,939 samples, 21.33%)</title><rect x="735.9" y="37" width="251.7" height="15.0" fill="rgb(211,96,10)" rx="2" ry="2" />
<text  x="738.86" y="47.5" >lock_delay</text>
</g>
<g >
<title>_rw_wowned (1,796 samples, 0.89%)</title><rect x="472.5" y="53" width="10.5" height="15.0" fill="rgb(210,219,5)" rx="2" ry="2" />
<text  x="475.51" y="63.5" ></text>
</g>
<g >
<title>eth_tx (302 samples, 0.15%)</title><rect x="1185.2" y="69" width="1.8" height="15.0" fill="rgb(214,16,26)" rx="2" ry="2" />
<text  x="1188.25" y="79.5" ></text>
</g>
<g >
<title>ipf_derefrule (42,939 samples, 21.33%)</title><rect x="735.9" y="69" width="251.7" height="15.0" fill="rgb(254,85,9)" rx="2" ry="2" />
<text  x="738.86" y="79.5" >ipf_derefrule</text>
</g>
<g >
<title>write_gl_to_txd (36 samples, 0.02%)</title><rect x="1186.8" y="37" width="0.2" height="15.0" fill="rgb(239,15,54)" rx="2" ry="2" />
<text  x="1189.80" y="47.5" ></text>
</g>
<g >
<title>ipf_scanlist (20,425 samples, 10.15%)</title><rect x="591.8" y="53" width="119.7" height="15.0" fill="rgb(242,8,1)" rx="2" ry="2" />
<text  x="594.77" y="63.5" >ipf_scanlist</text>
</g>
<g >
<title>ipf_pr_pullup (197 samples, 0.10%)</title><rect x="588.7" y="37" width="1.2" height="15.0" fill="rgb(238,98,13)" rx="2" ry="2" />
<text  x="591.71" y="47.5" ></text>
</g>
<g >
<title>ether_output (1,545 samples, 0.77%)</title><rect x="726.8" y="117" width="9.1" height="15.0" fill="rgb(238,59,16)" rx="2" ry="2" />
<text  x="729.80" y="127.5" ></text>
</g>
<g >
<title>ip_input (99 samples, 0.05%)</title><rect x="1184.7" y="213" width="0.5" height="15.0" fill="rgb(214,109,24)" rx="2" ry="2" />
<text  x="1187.66" y="223.5" ></text>
</g>
<g >
<title>ip_input (77,928 samples, 38.72%)</title><rect x="726.8" y="149" width="456.9" height="15.0" fill="rgb(243,39,2)" rx="2" ry="2" />
<text  x="729.80" y="159.5" >ip_input</text>
</g>
<g >
<title>handleevents (20 samples, 0.01%)</title><rect x="724.9" y="213" width="0.1" height="15.0" fill="rgb(248,46,15)" rx="2" ry="2" />
<text  x="727.90" y="223.5" ></text>
</g>
<g >
<title>ether_output (438 samples, 0.22%)</title><rect x="10.4" y="165" width="2.6" height="15.0" fill="rgb(232,179,50)" rx="2" ry="2" />
<text  x="13.43" y="175.5" ></text>
</g>
<g >
<title>acpi_cpu_idle (137 samples, 0.07%)</title><rect x="725.0" y="213" width="0.8" height="15.0" fill="rgb(213,97,33)" rx="2" ry="2" />
<text  x="728.03" y="223.5" ></text>
</g>
<g >
<title>netisr_dispatch_src (438 samples, 0.22%)</title><rect x="10.4" y="213" width="2.6" height="15.0" fill="rgb(228,24,23)" rx="2" ry="2" />
<text  x="13.43" y="223.5" ></text>
</g>
<g >
<title>pmc_hook_handler (67 samples, 0.03%)</title><rect x="1184.0" y="213" width="0.4" height="15.0" fill="rgb(248,89,14)" rx="2" ry="2" />
<text  x="1187.02" y="223.5" ></text>
</g>
<g >
<title>cache_alloc (34 samples, 0.02%)</title><rect x="724.5" y="181" width="0.2" height="15.0" fill="rgb(247,61,1)" rx="2" ry="2" />
<text  x="727.48" y="191.5" ></text>
</g>
<g >
<title>ether_nh_input (438 samples, 0.22%)</title><rect x="10.4" y="245" width="2.6" height="15.0" fill="rgb(229,151,21)" rx="2" ry="2" />
<text  x="13.43" y="255.5" ></text>
</g>
<g >
<title>netisr_dispatch_src (99 samples, 0.05%)</title><rect x="1184.7" y="229" width="0.5" height="15.0" fill="rgb(225,153,51)" rx="2" ry="2" />
<text  x="1187.66" y="239.5" ></text>
</g>
<g >
<title>netisr_dispatch_src (77,928 samples, 38.72%)</title><rect x="726.8" y="213" width="456.9" height="15.0" fill="rgb(223,40,8)" rx="2" ry="2" />
<text  x="729.80" y="223.5" >netisr_dispatch_src</text>
</g>
<g >
<title>drain_ring (1,489 samples, 0.74%)</title><rect x="726.8" y="53" width="8.7" height="15.0" fill="rgb(231,167,32)" rx="2" ry="2" />
<text  x="729.82" y="63.5" ></text>
</g>
<g >
<title>ip_tryforward (302 samples, 0.15%)</title><rect x="1185.2" y="165" width="1.8" height="15.0" fill="rgb(250,9,5)" rx="2" ry="2" />
<text  x="1188.25" y="175.5" ></text>
</g>
<g >
<title>in_localip (234 samples, 0.12%)</title><rect x="81.6" y="101" width="1.4" height="15.0" fill="rgb(231,178,53)" rx="2" ry="2" />
<text  x="84.60" y="111.5" ></text>
</g>
<g >
<title>ipf_check (76,383 samples, 37.95%)</title><rect x="735.9" y="85" width="447.8" height="15.0" fill="rgb(246,10,25)" rx="2" ry="2" />
<text  x="738.86" y="95.5" >ipf_check</text>
</g>
<g >
<title>m_freem (128 samples, 0.06%)</title><rect x="1185.2" y="53" width="0.8" height="15.0" fill="rgb(205,76,34)" rx="2" ry="2" />
<text  x="1188.25" y="63.5" ></text>
</g>
<g >
<title>__mtx_lock_sleep (41,355 samples, 20.55%)</title><rect x="164.3" y="53" width="242.5" height="15.0" fill="rgb(222,170,18)" rx="2" ry="2" />
<text  x="167.33" y="63.5" >__mtx_lock_sleep</text>
</g>
<g >
<title>cpu_idle (182 samples, 0.09%)</title><rect x="724.9" y="245" width="1.0" height="15.0" fill="rgb(240,208,1)" rx="2" ry="2" />
<text  x="727.87" y="255.5" ></text>
</g>
<g >
<title>sched_idletd (314 samples, 0.16%)</title><rect x="724.7" y="261" width="1.8" height="15.0" fill="rgb(240,227,5)" rx="2" ry="2" />
<text  x="727.69" y="271.5" ></text>
</g>
<g >
<title>netisr_dispatch_src (99 samples, 0.05%)</title><rect x="1184.7" y="277" width="0.5" height="15.0" fill="rgb(251,140,25)" rx="2" ry="2" />
<text  x="1187.66" y="287.5" ></text>
</g>
<g >
<title>uma_zfree_arg (401 samples, 0.20%)</title><rect x="10.4" y="37" width="2.4" height="15.0" fill="rgb(219,217,14)" rx="2" ry="2" />
<text  x="13.43" y="47.5" ></text>
</g>
<g >
<title>eth_tx (1,489 samples, 0.74%)</title><rect x="726.8" y="37" width="8.7" height="15.0" fill="rgb(234,118,18)" rx="2" ry="2" />
<text  x="729.82" y="47.5" ></text>
</g>
<g >
<title>fib4_lookup (398 samples, 0.20%)</title><rect x="83.4" y="85" width="2.3" height="15.0" fill="rgb(229,4,39)" rx="2" ry="2" />
<text  x="86.39" y="95.5" ></text>
</g>
<g >
<title>sglist_append_mbuf (32 samples, 0.02%)</title><rect x="1185.1" y="53" width="0.1" height="15.0" fill="rgb(213,191,23)" rx="2" ry="2" />
<text  x="1188.06" y="63.5" ></text>
</g>
<g >
<title>cxgbe_transmit (302 samples, 0.15%)</title><rect x="1185.2" y="117" width="1.8" height="15.0" fill="rgb(244,188,52)" rx="2" ry="2" />
<text  x="1188.25" y="127.5" ></text>
</g>
<g >
<title>m_free (128 samples, 0.06%)</title><rect x="1185.2" y="37" width="0.8" height="15.0" fill="rgb(245,56,16)" rx="2" ry="2" />
<text  x="1188.25" y="47.5" ></text>
</g>
<g >
<title>ether_demux (77,928 samples, 38.72%)</title><rect x="726.8" y="181" width="456.9" height="15.0" fill="rgb(243,3,9)" rx="2" ry="2" />
<text  x="729.80" y="191.5" >ether_demux</text>
</g>
<g >
<title>ether_output (509 samples, 0.25%)</title><rect x="1187.0" y="133" width="3.0" height="15.0" fill="rgb(206,86,14)" rx="2" ry="2" />
<text  x="1190.02" y="143.5" ></text>
</g>
<g >
<title>ether_demux (302 samples, 0.15%)</title><rect x="1185.2" y="213" width="1.8" height="15.0" fill="rgb(223,123,48)" rx="2" ry="2" />
<text  x="1188.25" y="223.5" ></text>
</g>
<g >
<title>ipf_nat_checkout (172 samples, 0.09%)</title><rect x="590.8" y="53" width="1.0" height="15.0" fill="rgb(246,84,17)" rx="2" ry="2" />
<text  x="593.77" y="63.5" ></text>
</g>
<g >
<title>memcmp (62 samples, 0.03%)</title><rect x="717.1" y="165" width="0.4" height="15.0" fill="rgb(248,225,35)" rx="2" ry="2" />
<text  x="720.14" y="175.5" ></text>
</g>
<g >
<title>intr_event_handle (39 samples, 0.02%)</title><rect x="726.6" y="261" width="0.2" height="15.0" fill="rgb(223,208,31)" rx="2" ry="2" />
<text  x="729.57" y="271.5" ></text>
</g>
<g >
<title>ip_input (438 samples, 0.22%)</title><rect x="10.4" y="197" width="2.6" height="15.0" fill="rgb(233,62,41)" rx="2" ry="2" />
<text  x="13.43" y="207.5" ></text>
</g>
<g >
<title>sglist_append (32 samples, 0.02%)</title><rect x="1185.1" y="37" width="0.1" height="15.0" fill="rgb(226,102,13)" rx="2" ry="2" />
<text  x="1188.06" y="47.5" ></text>
</g>
<g >
<title>write_txpkts_wr (37 samples, 0.02%)</title><rect x="12.8" y="69" width="0.2" height="15.0" fill="rgb(235,127,6)" rx="2" ry="2" />
<text  x="15.78" y="79.5" ></text>
</g>
<g >
<title>get_scatter_segment (1,158 samples, 0.58%)</title><rect x="717.5" y="213" width="6.8" height="15.0" fill="rgb(242,133,30)" rx="2" ry="2" />
<text  x="720.51" y="223.5" ></text>
</g>
<g >
<title>m_free (67 samples, 0.03%)</title><rect x="1184.7" y="69" width="0.4" height="15.0" fill="rgb(217,111,4)" rx="2" ry="2" />
<text  x="1187.66" y="79.5" ></text>
</g>
<g >
<title>service_iq_fl (302 samples, 0.15%)</title><rect x="1185.2" y="277" width="1.8" height="15.0" fill="rgb(210,204,53)" rx="2" ry="2" />
<text  x="1188.25" y="287.5" ></text>
</g>
<g >
<title>__mtx_lock_sleep (33,444 samples, 16.62%)</title><rect x="987.6" y="53" width="196.1" height="15.0" fill="rgb(247,30,23)" rx="2" ry="2" />
<text  x="990.60" y="63.5" >__mtx_lock_sleep</text>
</g>
<g >
<title>pmap_kextract (44 samples, 0.02%)</title><rect x="1184.8" y="37" width="0.3" height="15.0" fill="rgb(230,170,15)" rx="2" ry="2" />
<text  x="1187.80" y="47.5" ></text>
</g>
<g >
<title>sglist_append_mbuf (37 samples, 0.02%)</title><rect x="12.8" y="37" width="0.2" height="15.0" fill="rgb(233,166,7)" rx="2" ry="2" />
<text  x="15.78" y="47.5" ></text>
</g>
<g >
<title>ipf_makefrip (2,034 samples, 1.01%)</title><rect x="577.9" y="53" width="12.0" height="15.0" fill="rgb(220,107,28)" rx="2" ry="2" />
<text  x="580.94" y="63.5" ></text>
</g>
<g >
<title>service_iq_fl (121,277 samples, 60.25%)</title><rect x="13.7" y="229" width="711.0" height="15.0" fill="rgb(230,194,1)" rx="2" ry="2" />
<text  x="16.68" y="239.5" >service_iq_fl</text>
</g>
<g >
<title>netisr_dispatch_src (302 samples, 0.15%)</title><rect x="1185.2" y="245" width="1.8" height="15.0" fill="rgb(205,148,44)" rx="2" ry="2" />
<text  x="1188.25" y="255.5" ></text>
</g>
<g >
<title>lock_delay (35,115 samples, 17.45%)</title><rect x="200.9" y="37" width="205.9" height="15.0" fill="rgb(220,228,8)" rx="2" ry="2" />
<text  x="203.91" y="47.5" >lock_delay</text>
</g>
<g >
<title>ipf_check_wrapper (76,383 samples, 37.95%)</title><rect x="735.9" y="101" width="447.8" height="15.0" fill="rgb(249,182,12)" rx="2" ry="2" />
<text  x="738.86" y="111.5" >ipf_check_wrapper</text>
</g>
<g >
<title>write_txpkt_wr (407 samples, 0.20%)</title><rect x="1187.5" y="37" width="2.3" height="15.0" fill="rgb(248,48,40)" rx="2" ry="2" />
<text  x="1190.46" y="47.5" ></text>
</g>
<g >
<title>ip_input (509 samples, 0.25%)</title><rect x="1187.0" y="165" width="3.0" height="15.0" fill="rgb(254,87,41)" rx="2" ry="2" />
<text  x="1190.02" y="175.5" ></text>
</g>
<g >
<title>cpu_search_highest (43 samples, 0.02%)</title><rect x="725.9" y="245" width="0.3" height="15.0" fill="rgb(220,165,43)" rx="2" ry="2" />
<text  x="728.94" y="255.5" ></text>
</g>
<g >
<title>cpu_activeclock (27 samples, 0.01%)</title><rect x="724.9" y="229" width="0.1" height="15.0" fill="rgb(233,130,28)" rx="2" ry="2" />
<text  x="727.87" y="239.5" ></text>
</g>
<g >
<title>ip_input (116,728 samples, 57.99%)</title><rect x="32.8" y="133" width="684.3" height="15.0" fill="rgb(239,214,48)" rx="2" ry="2" />
<text  x="35.81" y="143.5" >ip_input</text>
</g>
<g >
<title>ipf_check (107,129 samples, 53.23%)</title><rect x="89.1" y="69" width="628.0" height="15.0" fill="rgb(243,180,30)" rx="2" ry="2" />
<text  x="92.08" y="79.5" >ipf_check</text>
</g>
<g >
<title>ip_tryforward (509 samples, 0.25%)</title><rect x="1187.0" y="149" width="3.0" height="15.0" fill="rgb(247,135,11)" rx="2" ry="2" />
<text  x="1190.02" y="159.5" ></text>
</g>
<g >
<title>ether_input (118,697 samples, 58.97%)</title><rect x="21.6" y="213" width="695.9" height="15.0" fill="rgb(210,104,24)" rx="2" ry="2" />
<text  x="24.63" y="223.5" >ether_input</text>
</g>
</g>
</svg>
