<?xml version="1.0" standalone="no"?>
<!DOCTYPE svg PUBLIC "-//W3C//DTD SVG 1.1//EN" "http://www.w3.org/Graphics/SVG/1.1/DTD/svg11.dtd">
<svg version="1.1" width="1200" height="342" onload="init(evt)" viewBox="0 0 1200 342" xmlns="http://www.w3.org/2000/svg" xmlns:xlink="http://www.w3.org/1999/xlink">
<!-- Flame graph stack visualization. See https://github.com/brendangregg/FlameGraph for latest version, and http://www.brendangregg.com/flamegraphs.html for examples. -->
<!-- NOTES:  -->
<defs>
	<linearGradient id="background" y1="0" y2="1" x1="0" x2="0" >
		<stop stop-color="#eeeeee" offset="5%" />
		<stop stop-color="#eeeeb0" offset="95%" />
	</linearGradient>
</defs>
<style type="text/css">
	text { font-family:Verdana; font-size:12px; fill:rgb(0,0,0); }
	#search, #ignorecase { opacity:0.1; cursor:pointer; }
	#search:hover, #search.show, #ignorecase:hover, #ignorecase.show { opacity:1; }
	#subtitle { text-anchor:middle; font-color:rgb(160,160,160); }
	#title { text-anchor:middle; font-size:17px}
	#unzoom { cursor:pointer; }
	#frames > *:hover { stroke:black; stroke-width:0.5; cursor:pointer; }
	.hide { display:none; }
	.parent { opacity:0.5; }
</style>
<script type="text/ecmascript">
<![CDATA[
	"use strict";
	var details, searchbtn, unzoombtn, matchedtxt, svg, searching, currentSearchTerm, ignorecase, ignorecaseBtn;
	function init(evt) {
		details = document.getElementById("details").firstChild;
		searchbtn = document.getElementById("search");
		ignorecaseBtn = document.getElementById("ignorecase");
		unzoombtn = document.getElementById("unzoom");
		matchedtxt = document.getElementById("matched");
		svg = document.getElementsByTagName("svg")[0];
		searching = 0;
		currentSearchTerm = null;

		// use GET parameters to restore a flamegraphs state.
		var params = get_params();
		if (params.x && params.y)
			zoom(find_group(document.querySelector('[x="' + params.x + '"][y="' + params.y + '"]')));
                if (params.s) search(params.s);
	}

	// event listeners
	window.addEventListener("click", function(e) {
		var target = find_group(e.target);
		if (target) {
			if (target.nodeName == "a") {
				if (e.ctrlKey === false) return;
				e.preventDefault();
			}
			if (target.classList.contains("parent")) unzoom();
			zoom(target);
			if (!document.querySelector('.parent')) {
				clearzoom();
				return;
			}

			// set parameters for zoom state
			var el = target.querySelector("rect");
			if (el && el.attributes && el.attributes.y && el.attributes._orig_x) {
				var params = get_params()
				params.x = el.attributes._orig_x.value;
				params.y = el.attributes.y.value;
				history.replaceState(null, null, parse_params(params));
			}
		}
		else if (e.target.id == "unzoom") clearzoom();
		else if (e.target.id == "search") search_prompt();
		else if (e.target.id == "ignorecase") toggle_ignorecase();
	}, false)

	// mouse-over for info
	// show
	window.addEventListener("mouseover", function(e) {
		var target = find_group(e.target);
		if (target) details.nodeValue = "Function: " + g_to_text(target);
	}, false)

	// clear
	window.addEventListener("mouseout", function(e) {
		var target = find_group(e.target);
		if (target) details.nodeValue = ' ';
	}, false)

	// ctrl-F for search
	// ctrl-I to toggle case-sensitive search
	window.addEventListener("keydown",function (e) {
		if (e.keyCode === 114 || (e.ctrlKey && e.keyCode === 70)) {
			e.preventDefault();
			search_prompt();
		}
		else if (e.ctrlKey && e.keyCode === 73) {
			e.preventDefault();
			toggle_ignorecase();
		}
	}, false)

	// functions
	function get_params() {
		var params = {};
		var paramsarr = window.location.search.substr(1).split('&');
		for (var i = 0; i < paramsarr.length; ++i) {
			var tmp = paramsarr[i].split("=");
			if (!tmp[0] || !tmp[1]) continue;
			params[tmp[0]]  = decodeURIComponent(tmp[1]);
		}
		return params;
	}
	function parse_params(params) {
		var uri = "?";
		for (var key in params) {
			uri += key + '=' + encodeURIComponent(params[key]) + '&';
		}
		if (uri.slice(-1) == "&")
			uri = uri.substring(0, uri.length - 1);
		if (uri == '?')
			uri = window.location.href.split('?')[0];
		return uri;
	}
	function find_child(node, selector) {
		var children = node.querySelectorAll(selector);
		if (children.length) return children[0];
	}
	function find_group(node) {
		var parent = node.parentElement;
		if (!parent) return;
		if (parent.id == "frames") return node;
		return find_group(parent);
	}
	function orig_save(e, attr, val) {
		if (e.attributes["_orig_" + attr] != undefined) return;
		if (e.attributes[attr] == undefined) return;
		if (val == undefined) val = e.attributes[attr].value;
		e.setAttribute("_orig_" + attr, val);
	}
	function orig_load(e, attr) {
		if (e.attributes["_orig_"+attr] == undefined) return;
		e.attributes[attr].value = e.attributes["_orig_" + attr].value;
		e.removeAttribute("_orig_"+attr);
	}
	function g_to_text(e) {
		var text = find_child(e, "title").firstChild.nodeValue;
		return (text)
	}
	function g_to_func(e) {
		var func = g_to_text(e);
		// if there's any manipulation we want to do to the function
		// name before it's searched, do it here before returning.
		return (func);
	}
	function update_text(e) {
		var r = find_child(e, "rect");
		var t = find_child(e, "text");
		var w = parseFloat(r.attributes.width.value) -3;
		var txt = find_child(e, "title").textContent.replace(/\([^(]*\)$/,"");
		t.attributes.x.value = parseFloat(r.attributes.x.value) + 3;

		// Smaller than this size won't fit anything
		if (w < 2 * 12 * 0.59) {
			t.textContent = "";
			return;
		}

		t.textContent = txt;
		// Fit in full text width
		if (/^ *$/.test(txt) || t.getSubStringLength(0, txt.length) < w)
			return;

		for (var x = txt.length - 2; x > 0; x--) {
			if (t.getSubStringLength(0, x + 2) <= w) {
				t.textContent = txt.substring(0, x) + "..";
				return;
			}
		}
		t.textContent = "";
	}

	// zoom
	function zoom_reset(e) {
		if (e.attributes != undefined) {
			orig_load(e, "x");
			orig_load(e, "width");
		}
		if (e.childNodes == undefined) return;
		for (var i = 0, c = e.childNodes; i < c.length; i++) {
			zoom_reset(c[i]);
		}
	}
	function zoom_child(e, x, ratio) {
		if (e.attributes != undefined) {
			if (e.attributes.x != undefined) {
				orig_save(e, "x");
				e.attributes.x.value = (parseFloat(e.attributes.x.value) - x - 10) * ratio + 10;
				if (e.tagName == "text")
					e.attributes.x.value = find_child(e.parentNode, "rect[x]").attributes.x.value + 3;
			}
			if (e.attributes.width != undefined) {
				orig_save(e, "width");
				e.attributes.width.value = parseFloat(e.attributes.width.value) * ratio;
			}
		}

		if (e.childNodes == undefined) return;
		for (var i = 0, c = e.childNodes; i < c.length; i++) {
			zoom_child(c[i], x - 10, ratio);
		}
	}
	function zoom_parent(e) {
		if (e.attributes) {
			if (e.attributes.x != undefined) {
				orig_save(e, "x");
				e.attributes.x.value = 10;
			}
			if (e.attributes.width != undefined) {
				orig_save(e, "width");
				e.attributes.width.value = parseInt(svg.width.baseVal.value) - (10 * 2);
			}
		}
		if (e.childNodes == undefined) return;
		for (var i = 0, c = e.childNodes; i < c.length; i++) {
			zoom_parent(c[i]);
		}
	}
	function zoom(node) {
		var attr = find_child(node, "rect").attributes;
		var width = parseFloat(attr.width.value);
		var xmin = parseFloat(attr.x.value);
		var xmax = parseFloat(xmin + width);
		var ymin = parseFloat(attr.y.value);
		var ratio = (svg.width.baseVal.value - 2 * 10) / width;

		// XXX: Workaround for JavaScript float issues (fix me)
		var fudge = 0.0001;

		unzoombtn.classList.remove("hide");

		var el = document.getElementById("frames").children;
		for (var i = 0; i < el.length; i++) {
			var e = el[i];
			var a = find_child(e, "rect").attributes;
			var ex = parseFloat(a.x.value);
			var ew = parseFloat(a.width.value);
			var upstack;
			// Is it an ancestor
			if (0 == 0) {
				upstack = parseFloat(a.y.value) > ymin;
			} else {
				upstack = parseFloat(a.y.value) < ymin;
			}
			if (upstack) {
				// Direct ancestor
				if (ex <= xmin && (ex+ew+fudge) >= xmax) {
					e.classList.add("parent");
					zoom_parent(e);
					update_text(e);
				}
				// not in current path
				else
					e.classList.add("hide");
			}
			// Children maybe
			else {
				// no common path
				if (ex < xmin || ex + fudge >= xmax) {
					e.classList.add("hide");
				}
				else {
					zoom_child(e, xmin, ratio);
					update_text(e);
				}
			}
		}
		search();
	}
	function unzoom() {
		unzoombtn.classList.add("hide");
		var el = document.getElementById("frames").children;
		for(var i = 0; i < el.length; i++) {
			el[i].classList.remove("parent");
			el[i].classList.remove("hide");
			zoom_reset(el[i]);
			update_text(el[i]);
		}
		search();
	}
	function clearzoom() {
		unzoom();

		// remove zoom state
		var params = get_params();
		if (params.x) delete params.x;
		if (params.y) delete params.y;
		history.replaceState(null, null, parse_params(params));
	}

	// search
	function toggle_ignorecase() {
		ignorecase = !ignorecase;
		if (ignorecase) {
			ignorecaseBtn.classList.add("show");
		} else {
			ignorecaseBtn.classList.remove("show");
		}
		reset_search();
		search();
	}
	function reset_search() {
		var el = document.querySelectorAll("#frames rect");
		for (var i = 0; i < el.length; i++) {
			orig_load(el[i], "fill")
		}
		var params = get_params();
		delete params.s;
		history.replaceState(null, null, parse_params(params));
	}
	function search_prompt() {
		if (!searching) {
			var term = prompt("Enter a search term (regexp " +
			    "allowed, eg: ^ext4_)"
			    + (ignorecase ? ", ignoring case" : "")
			    + "\nPress Ctrl-i to toggle case sensitivity", "");
			if (term != null) search(term);
		} else {
			reset_search();
			searching = 0;
			currentSearchTerm = null;
			searchbtn.classList.remove("show");
			searchbtn.firstChild.nodeValue = "Search"
			matchedtxt.classList.add("hide");
			matchedtxt.firstChild.nodeValue = ""
		}
	}
	function search(term) {
		if (term) currentSearchTerm = term;

		var re = new RegExp(currentSearchTerm, ignorecase ? 'i' : '');
		var el = document.getElementById("frames").children;
		var matches = new Object();
		var maxwidth = 0;
		for (var i = 0; i < el.length; i++) {
			var e = el[i];
			var func = g_to_func(e);
			var rect = find_child(e, "rect");
			if (func == null || rect == null)
				continue;

			// Save max width. Only works as we have a root frame
			var w = parseFloat(rect.attributes.width.value);
			if (w > maxwidth)
				maxwidth = w;

			if (func.match(re)) {
				// highlight
				var x = parseFloat(rect.attributes.x.value);
				orig_save(rect, "fill");
				rect.attributes.fill.value = "rgb(230,0,230)";

				// remember matches
				if (matches[x] == undefined) {
					matches[x] = w;
				} else {
					if (w > matches[x]) {
						// overwrite with parent
						matches[x] = w;
					}
				}
				searching = 1;
			}
		}
		if (!searching)
			return;
		var params = get_params();
		params.s = currentSearchTerm;
		history.replaceState(null, null, parse_params(params));

		searchbtn.classList.add("show");
		searchbtn.firstChild.nodeValue = "Reset Search";

		// calculate percent matched, excluding vertical overlap
		var count = 0;
		var lastx = -1;
		var lastw = 0;
		var keys = Array();
		for (k in matches) {
			if (matches.hasOwnProperty(k))
				keys.push(k);
		}
		// sort the matched frames by their x location
		// ascending, then width descending
		keys.sort(function(a, b){
			return a - b;
		});
		// Step through frames saving only the biggest bottom-up frames
		// thanks to the sort order. This relies on the tree property
		// where children are always smaller than their parents.
		var fudge = 0.0001;	// JavaScript floating point
		for (var k in keys) {
			var x = parseFloat(keys[k]);
			var w = matches[keys[k]];
			if (x >= lastx + lastw - fudge) {
				count += w;
				lastx = x;
				lastw = w;
			}
		}
		// display matched percent
		matchedtxt.classList.remove("hide");
		var pct = 100 * count / maxwidth;
		if (pct != 100) pct = pct.toFixed(1)
		matchedtxt.firstChild.nodeValue = "Matched: " + pct + "%";
	}
]]>
</script>
<rect x="0.0" y="0" width="1200.0" height="342.0" fill="url(#background)"  />
<text id="title" x="600.00" y="24" >Flame Graph</text>
<text id="details" x="10.00" y="325" > </text>
<text id="unzoom" x="10.00" y="24" class="hide">Reset Zoom</text>
<text id="search" x="1090.00" y="24" >Search</text>
<text id="ignorecase" x="1174.00" y="24" >ic</text>
<text id="matched" x="1090.00" y="325" > </text>
<g id="frames">
<g >
<title>pfil_run_hooks (826 samples, 58.71%)</title><rect x="145.0" y="117" width="692.8" height="15.0" fill="rgb(245,12,54)" rx="2" ry="2" />
<text  x="148.02" y="127.5" >pfil_run_hooks</text>
</g>
<g >
<title>ether_output (3 samples, 0.21%)</title><rect x="142.5" y="117" width="2.5" height="15.0" fill="rgb(224,198,6)" rx="2" ry="2" />
<text  x="145.51" y="127.5" ></text>
</g>
<g >
<title>ether_nh_input (90 samples, 6.40%)</title><rect x="65.4" y="165" width="75.4" height="15.0" fill="rgb(234,228,27)" rx="2" ry="2" />
<text  x="68.35" y="175.5" >ether_nh..</text>
</g>
<g >
<title>m_freem (2 samples, 0.14%)</title><rect x="1188.3" y="53" width="1.7" height="15.0" fill="rgb(224,18,47)" rx="2" ry="2" />
<text  x="1191.32" y="63.5" ></text>
</g>
<g >
<title>ip_input (2 samples, 0.14%)</title><rect x="140.8" y="165" width="1.7" height="15.0" fill="rgb(209,212,36)" rx="2" ry="2" />
<text  x="143.83" y="175.5" ></text>
</g>
<g >
<title>ether_demux (418 samples, 29.71%)</title><rect x="837.8" y="165" width="350.5" height="15.0" fill="rgb(250,94,36)" rx="2" ry="2" />
<text  x="840.76" y="175.5" >ether_demux</text>
</g>
<g >
<title>cxgbe_transmit (8 samples, 0.57%)</title><rect x="65.4" y="53" width="6.7" height="15.0" fill="rgb(230,167,35)" rx="2" ry="2" />
<text  x="68.35" y="63.5" ></text>
</g>
<g >
<title>ether_output_frame (2 samples, 0.14%)</title><rect x="140.8" y="117" width="1.7" height="15.0" fill="rgb(254,114,51)" rx="2" ry="2" />
<text  x="143.83" y="127.5" ></text>
</g>
<g >
<title>ip_input (418 samples, 29.71%)</title><rect x="837.8" y="133" width="350.5" height="15.0" fill="rgb(253,0,17)" rx="2" ry="2" />
<text  x="840.76" y="143.5" >ip_input</text>
</g>
<g >
<title>ip_input (90 samples, 6.40%)</title><rect x="65.4" y="117" width="75.4" height="15.0" fill="rgb(224,68,12)" rx="2" ry="2" />
<text  x="68.35" y="127.5" >ip_input</text>
</g>
<g >
<title>mlx5_msix_handler (90 samples, 6.40%)</title><rect x="65.4" y="261" width="75.4" height="15.0" fill="rgb(219,98,49)" rx="2" ry="2" />
<text  x="68.35" y="271.5" >mlx5_msi..</text>
</g>
<g >
<title>all (1,407 samples, 100%)</title><rect x="10.0" y="293" width="1180.0" height="15.0" fill="rgb(222,2,25)" rx="2" ry="2" />
<text  x="13.00" y="303.5" ></text>
</g>
<g >
<title>ipf_check_wrapper (826 samples, 58.71%)</title><rect x="145.0" y="101" width="692.8" height="15.0" fill="rgb(235,192,36)" rx="2" ry="2" />
<text  x="148.02" y="111.5" >ipf_check_wrapper</text>
</g>
<g >
<title>netisr_dispatch_src (90 samples, 6.40%)</title><rect x="65.4" y="181" width="75.4" height="15.0" fill="rgb(238,36,42)" rx="2" ry="2" />
<text  x="68.35" y="191.5" >netisr_d..</text>
</g>
<g >
<title>ipf_check (410 samples, 29.14%)</title><rect x="844.5" y="69" width="343.8" height="15.0" fill="rgb(252,173,0)" rx="2" ry="2" />
<text  x="847.47" y="79.5" >ipf_check</text>
</g>
<g >
<title>refill_fl (2 samples, 0.14%)</title><rect x="41.9" y="213" width="1.6" height="15.0" fill="rgb(254,182,0)" rx="2" ry="2" />
<text  x="44.87" y="223.5" ></text>
</g>
<g >
<title>ether_demux (24 samples, 1.71%)</title><rect x="43.5" y="133" width="20.2" height="15.0" fill="rgb(215,212,3)" rx="2" ry="2" />
<text  x="46.55" y="143.5" ></text>
</g>
<g >
<title>m_freem (1 samples, 0.07%)</title><rect x="140.8" y="37" width="0.9" height="15.0" fill="rgb(227,185,19)" rx="2" ry="2" />
<text  x="143.83" y="47.5" ></text>
</g>
<g >
<title>ipf_check_wrapper (22 samples, 1.56%)</title><rect x="45.2" y="53" width="18.5" height="15.0" fill="rgb(221,203,23)" rx="2" ry="2" />
<text  x="48.22" y="63.5" ></text>
</g>
<g >
<title>cxgbe_transmit (2 samples, 0.14%)</title><rect x="10.0" y="133" width="1.7" height="15.0" fill="rgb(241,94,30)" rx="2" ry="2" />
<text  x="13.00" y="143.5" ></text>
</g>
<g >
<title>cxgbe_transmit (1 samples, 0.07%)</title><rect x="44.4" y="37" width="0.8" height="15.0" fill="rgb(213,216,6)" rx="2" ry="2" />
<text  x="47.39" y="47.5" ></text>
</g>
<g >
<title>eth_tx (2 samples, 0.14%)</title><rect x="1188.3" y="69" width="1.7" height="15.0" fill="rgb(216,156,50)" rx="2" ry="2" />
<text  x="1191.32" y="79.5" ></text>
</g>
<g >
<title>ip_input (16 samples, 1.14%)</title><rect x="18.4" y="85" width="13.4" height="15.0" fill="rgb(216,83,12)" rx="2" ry="2" />
<text  x="21.39" y="95.5" ></text>
</g>
<g >
<title>lapic_handle_timer (2 samples, 0.14%)</title><rect x="63.7" y="277" width="1.7" height="15.0" fill="rgb(213,29,17)" rx="2" ry="2" />
<text  x="66.67" y="287.5" ></text>
</g>
<g >
<title>ether_output (8 samples, 0.57%)</title><rect x="837.8" y="101" width="6.7" height="15.0" fill="rgb(218,212,0)" rx="2" ry="2" />
<text  x="840.76" y="111.5" ></text>
</g>
<g >
<title>ipf_derefrule (24 samples, 1.71%)</title><rect x="1150.6" y="53" width="20.1" height="15.0" fill="rgb(226,168,3)" rx="2" ry="2" />
<text  x="1153.58" y="63.5" ></text>
</g>
<g >
<title>mlx5e_rx_cq_comp (24 samples, 1.71%)</title><rect x="43.5" y="197" width="20.2" height="15.0" fill="rgb(209,42,3)" rx="2" ry="2" />
<text  x="46.55" y="207.5" ></text>
</g>
<g >
<title>netisr_dispatch_src (2 samples, 0.14%)</title><rect x="10.0" y="213" width="1.7" height="15.0" fill="rgb(241,23,23)" rx="2" ry="2" />
<text  x="13.00" y="223.5" ></text>
</g>
<g >
<title>eth_tx (3 samples, 0.21%)</title><rect x="142.5" y="37" width="2.5" height="15.0" fill="rgb(252,107,29)" rx="2" ry="2" />
<text  x="145.51" y="47.5" ></text>
</g>
<g >
<title>ether_input (2 samples, 0.14%)</title><rect x="10.0" y="277" width="1.7" height="15.0" fill="rgb(252,192,38)" rx="2" ry="2" />
<text  x="13.00" y="287.5" ></text>
</g>
<g >
<title>netisr_dispatch_src (2 samples, 0.14%)</title><rect x="140.8" y="181" width="1.7" height="15.0" fill="rgb(207,196,53)" rx="2" ry="2" />
<text  x="143.83" y="191.5" ></text>
</g>
<g >
<title>ether_nh_input (2 samples, 0.14%)</title><rect x="10.0" y="245" width="1.7" height="15.0" fill="rgb(248,65,16)" rx="2" ry="2" />
<text  x="13.00" y="255.5" ></text>
</g>
<g >
<title>m_freem (2 samples, 0.14%)</title><rect x="10.0" y="69" width="1.7" height="15.0" fill="rgb(249,128,37)" rx="2" ry="2" />
<text  x="13.00" y="79.5" ></text>
</g>
<g >
<title>ipf_check_wrapper (82 samples, 5.83%)</title><rect x="72.1" y="69" width="68.7" height="15.0" fill="rgb(221,198,22)" rx="2" ry="2" />
<text  x="75.06" y="79.5" >ipf_che..</text>
</g>
<g >
<title>zone_import (2 samples, 0.14%)</title><rect x="41.9" y="165" width="1.6" height="15.0" fill="rgb(229,143,14)" rx="2" ry="2" />
<text  x="44.87" y="175.5" ></text>
</g>
<g >
<title>cxgbe_transmit (2 samples, 0.14%)</title><rect x="140.8" y="101" width="1.7" height="15.0" fill="rgb(219,19,35)" rx="2" ry="2" />
<text  x="143.83" y="111.5" ></text>
</g>
<g >
<title>mlx5e_rx_cq_comp (2 samples, 0.14%)</title><rect x="140.8" y="261" width="1.7" height="15.0" fill="rgb(251,61,3)" rx="2" ry="2" />
<text  x="143.83" y="271.5" ></text>
</g>
<g >
<title>ether_input (2 samples, 0.14%)</title><rect x="140.8" y="245" width="1.7" height="15.0" fill="rgb(229,180,43)" rx="2" ry="2" />
<text  x="143.83" y="255.5" ></text>
</g>
<g >
<title>netisr_dispatch_src (24 samples, 1.71%)</title><rect x="12.5" y="149" width="20.1" height="15.0" fill="rgb(254,96,35)" rx="2" ry="2" />
<text  x="15.52" y="159.5" ></text>
</g>
<g >
<title>netisr_dispatch_src (829 samples, 58.92%)</title><rect x="142.5" y="213" width="695.3" height="15.0" fill="rgb(231,0,20)" rx="2" ry="2" />
<text  x="145.51" y="223.5" >netisr_dispatch_src</text>
</g>
<g >
<title>write_txpkt_wr (1 samples, 0.07%)</title><rect x="141.7" y="37" width="0.8" height="15.0" fill="rgb(224,111,42)" rx="2" ry="2" />
<text  x="144.67" y="47.5" ></text>
</g>
<g >
<title>mlx5e_rx_cq_comp (829 samples, 58.92%)</title><rect x="142.5" y="245" width="695.3" height="15.0" fill="rgb(223,9,7)" rx="2" ry="2" />
<text  x="145.51" y="255.5" >mlx5e_rx_cq_comp</text>
</g>
<g >
<title>ether_output (8 samples, 0.57%)</title><rect x="65.4" y="85" width="6.7" height="15.0" fill="rgb(216,215,4)" rx="2" ry="2" />
<text  x="68.35" y="95.5" ></text>
</g>
<g >
<title>pmc_process_samples (1 samples, 0.07%)</title><rect x="64.5" y="197" width="0.9" height="15.0" fill="rgb(234,216,6)" rx="2" ry="2" />
<text  x="67.51" y="207.5" ></text>
</g>
<g >
<title>netisr_dispatch_src (2 samples, 0.14%)</title><rect x="140.8" y="229" width="1.7" height="15.0" fill="rgb(214,161,40)" rx="2" ry="2" />
<text  x="143.83" y="239.5" ></text>
</g>
<g >
<title>ether_output_frame (3 samples, 0.21%)</title><rect x="142.5" y="101" width="2.5" height="15.0" fill="rgb(213,217,22)" rx="2" ry="2" />
<text  x="145.51" y="111.5" ></text>
</g>
<g >
<title>ether_demux (2 samples, 0.14%)</title><rect x="10.0" y="229" width="1.7" height="15.0" fill="rgb(250,90,21)" rx="2" ry="2" />
<text  x="13.00" y="239.5" ></text>
</g>
<g >
<title>netisr_dispatch_src (2 samples, 0.14%)</title><rect x="10.0" y="261" width="1.7" height="15.0" fill="rgb(217,76,4)" rx="2" ry="2" />
<text  x="13.00" y="271.5" ></text>
</g>
<g >
<title>mlx5_eq_int (24 samples, 1.71%)</title><rect x="43.5" y="229" width="20.2" height="15.0" fill="rgb(243,14,6)" rx="2" ry="2" />
<text  x="46.55" y="239.5" ></text>
</g>
<g >
<title>ether_output (2 samples, 0.14%)</title><rect x="1188.3" y="149" width="1.7" height="15.0" fill="rgb(225,141,1)" rx="2" ry="2" />
<text  x="1191.32" y="159.5" ></text>
</g>
<g >
<title>ether_output_frame (1 samples, 0.07%)</title><rect x="44.4" y="53" width="0.8" height="15.0" fill="rgb(250,65,51)" rx="2" ry="2" />
<text  x="47.39" y="63.5" ></text>
</g>
<g >
<title>ip_tryforward (829 samples, 58.92%)</title><rect x="142.5" y="133" width="695.3" height="15.0" fill="rgb(237,137,26)" rx="2" ry="2" />
<text  x="145.51" y="143.5" >ip_tryforward</text>
</g>
<g >
<title>arpresolve (1 samples, 0.07%)</title><rect x="27.6" y="37" width="0.9" height="15.0" fill="rgb(215,10,2)" rx="2" ry="2" />
<text  x="30.61" y="47.5" ></text>
</g>
<g >
<title>lkpi_irq_handler (24 samples, 1.71%)</title><rect x="43.5" y="261" width="20.2" height="15.0" fill="rgb(218,168,13)" rx="2" ry="2" />
<text  x="46.55" y="271.5" ></text>
</g>
<g >
<title>mp_ring_enqueue (2 samples, 0.14%)</title><rect x="1188.3" y="101" width="1.7" height="15.0" fill="rgb(246,89,39)" rx="2" ry="2" />
<text  x="1191.32" y="111.5" ></text>
</g>
<g >
<title>mlx5_cq_completion (36 samples, 2.56%)</title><rect x="11.7" y="197" width="30.2" height="15.0" fill="rgb(221,22,15)" rx="2" ry="2" />
<text  x="14.68" y="207.5" >ml..</text>
</g>
<g >
<title>ether_output (2 samples, 0.14%)</title><rect x="140.8" y="133" width="1.7" height="15.0" fill="rgb(226,111,3)" rx="2" ry="2" />
<text  x="143.83" y="143.5" ></text>
</g>
<g >
<title>ip_tryforward (2 samples, 0.14%)</title><rect x="140.8" y="149" width="1.7" height="15.0" fill="rgb(207,85,27)" rx="2" ry="2" />
<text  x="143.83" y="159.5" ></text>
</g>
<g >
<title>soft_get_config (1 samples, 0.07%)</title><rect x="64.5" y="181" width="0.9" height="15.0" fill="rgb(246,106,49)" rx="2" ry="2" />
<text  x="67.51" y="191.5" ></text>
</g>
<g >
<title>__mtx_lock_sleep (449 samples, 31.91%)</title><rect x="145.0" y="53" width="376.6" height="15.0" fill="rgb(209,191,16)" rx="2" ry="2" />
<text  x="148.02" y="63.5" >__mtx_lock_sleep</text>
</g>
<g >
<title>ipf_check (826 samples, 58.71%)</title><rect x="145.0" y="85" width="692.8" height="15.0" fill="rgb(221,227,45)" rx="2" ry="2" />
<text  x="148.02" y="95.5" >ipf_check</text>
</g>
<g >
<title>__mtx_lock_sleep (24 samples, 1.71%)</title><rect x="1150.6" y="37" width="20.1" height="15.0" fill="rgb(207,178,44)" rx="2" ry="2" />
<text  x="1153.58" y="47.5" ></text>
</g>
<g >
<title>pfil_run_hooks (22 samples, 1.56%)</title><rect x="45.2" y="69" width="18.5" height="15.0" fill="rgb(233,228,16)" rx="2" ry="2" />
<text  x="48.22" y="79.5" ></text>
</g>
<g >
<title>ether_output_frame (2 samples, 0.14%)</title><rect x="10.0" y="149" width="1.7" height="15.0" fill="rgb(250,111,0)" rx="2" ry="2" />
<text  x="13.00" y="159.5" ></text>
</g>
<g >
<title>mlx5e_rx_cq_comp (418 samples, 29.71%)</title><rect x="837.8" y="229" width="350.5" height="15.0" fill="rgb(241,221,39)" rx="2" ry="2" />
<text  x="840.76" y="239.5" >mlx5e_rx_cq_comp</text>
</g>
<g >
<title>ip_input (2 samples, 0.14%)</title><rect x="1188.3" y="181" width="1.7" height="15.0" fill="rgb(239,181,5)" rx="2" ry="2" />
<text  x="1191.32" y="191.5" ></text>
</g>
<g >
<title>netisr_dispatch_src (418 samples, 29.71%)</title><rect x="837.8" y="197" width="350.5" height="15.0" fill="rgb(226,219,41)" rx="2" ry="2" />
<text  x="840.76" y="207.5" >netisr_dispatch_src</text>
</g>
<g >
<title>ether_nh_input (2 samples, 0.14%)</title><rect x="1188.3" y="229" width="1.7" height="15.0" fill="rgb(206,62,51)" rx="2" ry="2" />
<text  x="1191.32" y="239.5" ></text>
</g>
<g >
<title>timercb (2 samples, 0.14%)</title><rect x="63.7" y="261" width="1.7" height="15.0" fill="rgb(234,22,2)" rx="2" ry="2" />
<text  x="66.67" y="271.5" ></text>
</g>
<g >
<title>ether_demux (2 samples, 0.14%)</title><rect x="140.8" y="197" width="1.7" height="15.0" fill="rgb(210,223,25)" rx="2" ry="2" />
<text  x="143.83" y="207.5" ></text>
</g>
<g >
<title>cache_alloc_retry (2 samples, 0.14%)</title><rect x="41.9" y="197" width="1.6" height="15.0" fill="rgb(218,168,7)" rx="2" ry="2" />
<text  x="44.87" y="207.5" ></text>
</g>
<g >
<title>lkpi_irq_handler (90 samples, 6.40%)</title><rect x="65.4" y="277" width="75.4" height="15.0" fill="rgb(216,52,0)" rx="2" ry="2" />
<text  x="68.35" y="287.5" >lkpi_irq..</text>
</g>
<g >
<title>drain_ring (2 samples, 0.14%)</title><rect x="10.0" y="101" width="1.7" height="15.0" fill="rgb(236,73,6)" rx="2" ry="2" />
<text  x="13.00" y="111.5" ></text>
</g>
<g >
<title>cxgbe_transmit (8 samples, 0.57%)</title><rect x="837.8" y="69" width="6.7" height="15.0" fill="rgb(210,40,14)" rx="2" ry="2" />
<text  x="840.76" y="79.5" ></text>
</g>
<g >
<title>ipf_derefrule (15 samples, 1.07%)</title><rect x="103.9" y="37" width="12.6" height="15.0" fill="rgb(238,63,24)" rx="2" ry="2" />
<text  x="106.93" y="47.5" ></text>
</g>
<g >
<title>eth_tx (2 samples, 0.14%)</title><rect x="10.0" y="85" width="1.7" height="15.0" fill="rgb(241,92,28)" rx="2" ry="2" />
<text  x="13.00" y="95.5" ></text>
</g>
<g >
<title>lock_delay (2 samples, 0.14%)</title><rect x="41.9" y="117" width="1.6" height="15.0" fill="rgb(220,29,0)" rx="2" ry="2" />
<text  x="44.87" y="127.5" ></text>
</g>
<g >
<title>__mtx_lock_sleep (20 samples, 1.42%)</title><rect x="1171.5" y="37" width="16.8" height="15.0" fill="rgb(242,171,32)" rx="2" ry="2" />
<text  x="1174.55" y="47.5" ></text>
</g>
<g >
<title>mp_ring_enqueue (3 samples, 0.21%)</title><rect x="142.5" y="69" width="2.5" height="15.0" fill="rgb(210,208,29)" rx="2" ry="2" />
<text  x="145.51" y="79.5" ></text>
</g>
<g >
<title>ether_nh_input (2 samples, 0.14%)</title><rect x="140.8" y="213" width="1.7" height="15.0" fill="rgb(223,167,4)" rx="2" ry="2" />
<text  x="143.83" y="223.5" ></text>
</g>
<g >
<title>netisr_dispatch_src (2 samples, 0.14%)</title><rect x="1188.3" y="245" width="1.7" height="15.0" fill="rgb(205,183,16)" rx="2" ry="2" />
<text  x="1191.32" y="255.5" ></text>
</g>
<g >
<title>netisr_dispatch (1 samples, 0.07%)</title><rect x="31.8" y="117" width="0.8" height="15.0" fill="rgb(236,116,38)" rx="2" ry="2" />
<text  x="34.81" y="127.5" ></text>
</g>
<g >
<title>__mtx_lock_sleep (377 samples, 26.79%)</title><rect x="521.6" y="53" width="316.2" height="15.0" fill="rgb(227,111,46)" rx="2" ry="2" />
<text  x="524.58" y="63.5" >__mtx_lock_sleep</text>
</g>
<g >
<title>ether_output_frame (8 samples, 0.57%)</title><rect x="837.8" y="85" width="6.7" height="15.0" fill="rgb(212,66,29)" rx="2" ry="2" />
<text  x="840.76" y="95.5" ></text>
</g>
<g >
<title>drain_ring (3 samples, 0.21%)</title><rect x="142.5" y="53" width="2.5" height="15.0" fill="rgb(216,162,3)" rx="2" ry="2" />
<text  x="145.51" y="63.5" ></text>
</g>
<g >
<title>lock_delay (377 samples, 26.79%)</title><rect x="521.6" y="37" width="316.2" height="15.0" fill="rgb(251,174,21)" rx="2" ry="2" />
<text  x="524.58" y="47.5" >lock_delay</text>
</g>
<g >
<title>cache_alloc (2 samples, 0.14%)</title><rect x="41.9" y="181" width="1.6" height="15.0" fill="rgb(241,211,10)" rx="2" ry="2" />
<text  x="44.87" y="191.5" ></text>
</g>
<g >
<title>ether_output_frame (2 samples, 0.14%)</title><rect x="1188.3" y="133" width="1.7" height="15.0" fill="rgb(246,113,22)" rx="2" ry="2" />
<text  x="1191.32" y="143.5" ></text>
</g>
<g >
<title>ether_input (24 samples, 1.71%)</title><rect x="43.5" y="181" width="20.2" height="15.0" fill="rgb(219,33,29)" rx="2" ry="2" />
<text  x="46.55" y="191.5" ></text>
</g>
<g >
<title>netisr_dispatch_src (24 samples, 1.71%)</title><rect x="43.5" y="117" width="20.2" height="15.0" fill="rgb(239,165,32)" rx="2" ry="2" />
<text  x="46.55" y="127.5" ></text>
</g>
<g >
<title>netisr_dispatch_src (418 samples, 29.71%)</title><rect x="837.8" y="149" width="350.5" height="15.0" fill="rgb(215,85,29)" rx="2" ry="2" />
<text  x="840.76" y="159.5" >netisr_dispatch_src</text>
</g>
<g >
<title>ether_nh_input (23 samples, 1.63%)</title><rect x="13.4" y="133" width="19.2" height="15.0" fill="rgb(224,13,33)" rx="2" ry="2" />
<text  x="16.35" y="143.5" ></text>
</g>
<g >
<title>__rw_rlock_int (11 samples, 0.78%)</title><rect x="84.6" y="37" width="9.3" height="15.0" fill="rgb(212,108,22)" rx="2" ry="2" />
<text  x="87.64" y="47.5" ></text>
</g>
<g >
<title>netisr_dispatch_src (18 samples, 1.28%)</title><rect x="16.7" y="101" width="15.1" height="15.0" fill="rgb(252,95,26)" rx="2" ry="2" />
<text  x="19.71" y="111.5" ></text>
</g>
<g >
<title>ip_input (24 samples, 1.71%)</title><rect x="43.5" y="101" width="20.2" height="15.0" fill="rgb(236,119,23)" rx="2" ry="2" />
<text  x="46.55" y="111.5" ></text>
</g>
<g >
<title>fork_exit (38 samples, 2.70%)</title><rect x="11.7" y="277" width="31.8" height="15.0" fill="rgb(248,217,2)" rx="2" ry="2" />
<text  x="14.68" y="287.5" >fo..</text>
</g>
<g >
<title>binuptime (1 samples, 0.07%)</title><rect x="63.7" y="245" width="0.8" height="15.0" fill="rgb(241,202,51)" rx="2" ry="2" />
<text  x="66.67" y="255.5" ></text>
</g>
<g >
<title>__mtx_lock_sleep (365 samples, 25.94%)</title><rect x="844.5" y="53" width="306.1" height="15.0" fill="rgb(231,164,20)" rx="2" ry="2" />
<text  x="847.47" y="63.5" >__mtx_lock_sleep</text>
</g>
<g >
<title>__mtx_lock_sleep (2 samples, 0.14%)</title><rect x="41.9" y="133" width="1.6" height="15.0" fill="rgb(216,49,38)" rx="2" ry="2" />
<text  x="44.87" y="143.5" ></text>
</g>
<g >
<title>hardclock (1 samples, 0.07%)</title><rect x="64.5" y="229" width="0.9" height="15.0" fill="rgb(216,12,50)" rx="2" ry="2" />
<text  x="67.51" y="239.5" ></text>
</g>
<g >
<title>ip_tryforward (418 samples, 29.71%)</title><rect x="837.8" y="117" width="350.5" height="15.0" fill="rgb(209,201,46)" rx="2" ry="2" />
<text  x="840.76" y="127.5" >ip_tryforward</text>
</g>
<g >
<title>ip_tryforward (24 samples, 1.71%)</title><rect x="43.5" y="85" width="20.2" height="15.0" fill="rgb(222,165,8)" rx="2" ry="2" />
<text  x="46.55" y="95.5" ></text>
</g>
<g >
<title>ipf_makefrip (2 samples, 0.14%)</title><rect x="116.5" y="37" width="1.7" height="15.0" fill="rgb(241,80,7)" rx="2" ry="2" />
<text  x="119.51" y="47.5" ></text>
</g>
<g >
<title>drain_ring (2 samples, 0.14%)</title><rect x="1188.3" y="85" width="1.7" height="15.0" fill="rgb(231,70,36)" rx="2" ry="2" />
<text  x="1191.32" y="95.5" ></text>
</g>
<g >
<title>m_adj (1 samples, 0.07%)</title><rect x="15.9" y="101" width="0.8" height="15.0" fill="rgb(226,92,27)" rx="2" ry="2" />
<text  x="18.87" y="111.5" ></text>
</g>
<g >
<title>tscp_get_timecount_low (1 samples, 0.07%)</title><rect x="63.7" y="229" width="0.8" height="15.0" fill="rgb(233,82,33)" rx="2" ry="2" />
<text  x="66.67" y="239.5" ></text>
</g>
<g >
<title>pfil_run_hooks (410 samples, 29.14%)</title><rect x="844.5" y="101" width="343.8" height="15.0" fill="rgb(225,162,9)" rx="2" ry="2" />
<text  x="847.47" y="111.5" >pfil_run_hooks</text>
</g>
<g >
<title>mp_ring_enqueue (2 samples, 0.14%)</title><rect x="140.8" y="85" width="1.7" height="15.0" fill="rgb(212,170,50)" rx="2" ry="2" />
<text  x="143.83" y="95.5" ></text>
</g>
<g >
<title>ip_input (2 samples, 0.14%)</title><rect x="10.0" y="197" width="1.7" height="15.0" fill="rgb(218,145,28)" rx="2" ry="2" />
<text  x="13.00" y="207.5" ></text>
</g>
<g >
<title>ether_demux (2 samples, 0.14%)</title><rect x="1188.3" y="213" width="1.7" height="15.0" fill="rgb(217,57,20)" rx="2" ry="2" />
<text  x="1191.32" y="223.5" ></text>
</g>
<g >
<title>mp_ring_enqueue (8 samples, 0.57%)</title><rect x="837.8" y="53" width="6.7" height="15.0" fill="rgb(251,0,8)" rx="2" ry="2" />
<text  x="840.76" y="63.5" ></text>
</g>
<g >
<title>ipf_checkv4sum (1 samples, 0.07%)</title><rect x="1170.7" y="37" width="0.8" height="15.0" fill="rgb(224,139,40)" rx="2" ry="2" />
<text  x="1173.71" y="47.5" ></text>
</g>
<g >
<title>ether_input (829 samples, 58.92%)</title><rect x="142.5" y="229" width="695.3" height="15.0" fill="rgb(225,201,39)" rx="2" ry="2" />
<text  x="145.51" y="239.5" >ether_input</text>
</g>
<g >
<title>drain_ring (2 samples, 0.14%)</title><rect x="140.8" y="69" width="1.7" height="15.0" fill="rgb(233,121,30)" rx="2" ry="2" />
<text  x="143.83" y="79.5" ></text>
</g>
<g >
<title>mlx5_cq_completion (418 samples, 29.71%)</title><rect x="837.8" y="245" width="350.5" height="15.0" fill="rgb(208,187,11)" rx="2" ry="2" />
<text  x="840.76" y="255.5" >mlx5_cq_completion</text>
</g>
<g >
<title>mlx5e_rx_cq_comp (36 samples, 2.56%)</title><rect x="11.7" y="181" width="30.2" height="15.0" fill="rgb(252,187,14)" rx="2" ry="2" />
<text  x="14.68" y="191.5" >ml..</text>
</g>
<g >
<title>eth_tx (2 samples, 0.14%)</title><rect x="140.8" y="53" width="1.7" height="15.0" fill="rgb(207,135,42)" rx="2" ry="2" />
<text  x="143.83" y="63.5" ></text>
</g>
<g >
<title>netisr_dispatch_src (90 samples, 6.40%)</title><rect x="65.4" y="133" width="75.4" height="15.0" fill="rgb(214,76,43)" rx="2" ry="2" />
<text  x="68.35" y="143.5" >netisr_d..</text>
</g>
<g >
<title>ether_demux (829 samples, 58.92%)</title><rect x="142.5" y="181" width="695.3" height="15.0" fill="rgb(224,125,49)" rx="2" ry="2" />
<text  x="145.51" y="191.5" >ether_demux</text>
</g>
<g >
<title>ipf_scanlist (20 samples, 1.42%)</title><rect x="1171.5" y="53" width="16.8" height="15.0" fill="rgb(249,85,18)" rx="2" ry="2" />
<text  x="1174.55" y="63.5" ></text>
</g>
<g >
<title>m_free (2 samples, 0.14%)</title><rect x="1188.3" y="37" width="1.7" height="15.0" fill="rgb(227,222,21)" rx="2" ry="2" />
<text  x="1191.32" y="47.5" ></text>
</g>
<g >
<title>cxgbe_transmit (3 samples, 0.21%)</title><rect x="142.5" y="85" width="2.5" height="15.0" fill="rgb(243,102,41)" rx="2" ry="2" />
<text  x="145.51" y="95.5" ></text>
</g>
<g >
<title>ether_input (418 samples, 29.71%)</title><rect x="837.8" y="213" width="350.5" height="15.0" fill="rgb(224,14,51)" rx="2" ry="2" />
<text  x="840.76" y="223.5" >ether_input</text>
</g>
<g >
<title>ipf_derefrule (449 samples, 31.91%)</title><rect x="145.0" y="69" width="376.6" height="15.0" fill="rgb(211,220,40)" rx="2" ry="2" />
<text  x="148.02" y="79.5" >ipf_derefrule</text>
</g>
<g >
<title>ipf_scanlist (377 samples, 26.79%)</title><rect x="521.6" y="69" width="316.2" height="15.0" fill="rgb(238,211,48)" rx="2" ry="2" />
<text  x="524.58" y="79.5" >ipf_scanlist</text>
</g>
<g >
<title>uma_zfree_arg (2 samples, 0.14%)</title><rect x="10.0" y="37" width="1.7" height="15.0" fill="rgb(223,21,25)" rx="2" ry="2" />
<text  x="13.00" y="47.5" ></text>
</g>
<g >
<title>ether_nh_input (418 samples, 29.71%)</title><rect x="837.8" y="181" width="350.5" height="15.0" fill="rgb(205,74,29)" rx="2" ry="2" />
<text  x="840.76" y="191.5" >ether_nh_input</text>
</g>
<g >
<title>lock_delay (365 samples, 25.94%)</title><rect x="844.5" y="37" width="306.1" height="15.0" fill="rgb(210,58,3)" rx="2" ry="2" />
<text  x="847.47" y="47.5" >lock_delay</text>
</g>
<g >
<title>ether_input (90 samples, 6.40%)</title><rect x="65.4" y="197" width="75.4" height="15.0" fill="rgb(224,51,25)" rx="2" ry="2" />
<text  x="68.35" y="207.5" >ether_in..</text>
</g>
<g >
<title>arpresolve (1 samples, 0.07%)</title><rect x="43.5" y="53" width="0.9" height="15.0" fill="rgb(248,109,52)" rx="2" ry="2" />
<text  x="46.55" y="63.5" ></text>
</g>
<g >
<title>pfil_run_hooks (82 samples, 5.83%)</title><rect x="72.1" y="85" width="68.7" height="15.0" fill="rgb(252,181,44)" rx="2" ry="2" />
<text  x="75.06" y="95.5" >pfil_ru..</text>
</g>
<g >
<title>mp_ring_enqueue (2 samples, 0.14%)</title><rect x="10.0" y="117" width="1.7" height="15.0" fill="rgb(251,152,32)" rx="2" ry="2" />
<text  x="13.00" y="127.5" ></text>
</g>
<g >
<title>ip_tryforward (90 samples, 6.40%)</title><rect x="65.4" y="101" width="75.4" height="15.0" fill="rgb(239,169,15)" rx="2" ry="2" />
<text  x="68.35" y="111.5" >ip_tryfo..</text>
</g>
<g >
<title>ip_tryforward (2 samples, 0.14%)</title><rect x="1188.3" y="165" width="1.7" height="15.0" fill="rgb(211,92,38)" rx="2" ry="2" />
<text  x="1191.32" y="175.5" ></text>
</g>
<g >
<title>_rw_wowned (1 samples, 0.07%)</title><rect x="103.1" y="37" width="0.8" height="15.0" fill="rgb(239,128,1)" rx="2" ry="2" />
<text  x="106.09" y="47.5" ></text>
</g>
<g >
<title>service_iq_fl (2 samples, 0.14%)</title><rect x="41.9" y="229" width="1.6" height="15.0" fill="rgb(243,96,40)" rx="2" ry="2" />
<text  x="44.87" y="239.5" ></text>
</g>
<g >
<title>ether_output (2 samples, 0.14%)</title><rect x="43.5" y="69" width="1.7" height="15.0" fill="rgb(218,132,34)" rx="2" ry="2" />
<text  x="46.55" y="79.5" ></text>
</g>
<g >
<title>ip_tryforward (2 samples, 0.14%)</title><rect x="10.0" y="181" width="1.7" height="15.0" fill="rgb(236,223,43)" rx="2" ry="2" />
<text  x="13.00" y="191.5" ></text>
</g>
<g >
<title>mlx5_eq_int (36 samples, 2.56%)</title><rect x="11.7" y="213" width="30.2" height="15.0" fill="rgb(222,138,9)" rx="2" ry="2" />
<text  x="14.68" y="223.5" >ml..</text>
</g>
<g >
<title>ip_tryforward (13 samples, 0.92%)</title><rect x="20.9" y="69" width="10.9" height="15.0" fill="rgb(240,72,0)" rx="2" ry="2" />
<text  x="23.90" y="79.5" ></text>
</g>
<g >
<title>__mtx_lock_sleep (15 samples, 1.07%)</title><rect x="72.1" y="37" width="12.5" height="15.0" fill="rgb(208,187,30)" rx="2" ry="2" />
<text  x="75.06" y="47.5" ></text>
</g>
<g >
<title>pfil_run_hooks (1 samples, 0.07%)</title><rect x="31.0" y="53" width="0.8" height="15.0" fill="rgb(232,114,29)" rx="2" ry="2" />
<text  x="33.97" y="63.5" ></text>
</g>
<g >
<title>_rw_runlock_cookie_int (11 samples, 0.78%)</title><rect x="93.9" y="37" width="9.2" height="15.0" fill="rgb(253,225,4)" rx="2" ry="2" />
<text  x="96.87" y="47.5" ></text>
</g>
<g >
<title>ether_nh_input (24 samples, 1.71%)</title><rect x="43.5" y="149" width="20.2" height="15.0" fill="rgb(242,152,28)" rx="2" ry="2" />
<text  x="46.55" y="159.5" ></text>
</g>
<g >
<title>ether_demux (19 samples, 1.35%)</title><rect x="15.9" y="117" width="15.9" height="15.0" fill="rgb(229,107,4)" rx="2" ry="2" />
<text  x="18.87" y="127.5" ></text>
</g>
<g >
<title>uma_zalloc_arg (4 samples, 0.28%)</title><rect x="38.5" y="165" width="3.4" height="15.0" fill="rgb(235,196,38)" rx="2" ry="2" />
<text  x="41.51" y="175.5" ></text>
</g>
<g >
<title>netisr_dispatch_src (24 samples, 1.71%)</title><rect x="43.5" y="165" width="20.2" height="15.0" fill="rgb(229,75,39)" rx="2" ry="2" />
<text  x="46.55" y="175.5" ></text>
</g>
<g >
<title>ipf_check (82 samples, 5.83%)</title><rect x="72.1" y="53" width="68.7" height="15.0" fill="rgb(217,61,7)" rx="2" ry="2" />
<text  x="75.06" y="63.5" >ipf_check</text>
</g>
<g >
<title>t4_intr (2 samples, 0.14%)</title><rect x="41.9" y="245" width="1.6" height="15.0" fill="rgb(251,179,16)" rx="2" ry="2" />
<text  x="44.87" y="255.5" ></text>
</g>
<g >
<title>lock_delay (449 samples, 31.91%)</title><rect x="145.0" y="37" width="376.6" height="15.0" fill="rgb(207,190,8)" rx="2" ry="2" />
<text  x="148.02" y="47.5" >lock_delay</text>
</g>
<g >
<title>ip_input (829 samples, 58.92%)</title><rect x="142.5" y="149" width="695.3" height="15.0" fill="rgb(231,105,22)" rx="2" ry="2" />
<text  x="145.51" y="159.5" >ip_input</text>
</g>
<g >
<title>mp_ring_enqueue (7 samples, 0.50%)</title><rect x="65.4" y="37" width="5.8" height="15.0" fill="rgb(212,124,37)" rx="2" ry="2" />
<text  x="68.35" y="47.5" ></text>
</g>
<g >
<title>mlx5e_rx_cq_comp (90 samples, 6.40%)</title><rect x="65.4" y="213" width="75.4" height="15.0" fill="rgb(226,57,53)" rx="2" ry="2" />
<text  x="68.35" y="223.5" >mlx5e_rx..</text>
</g>
<g >
<title>ithread_loop (38 samples, 2.70%)</title><rect x="11.7" y="261" width="31.8" height="15.0" fill="rgb(233,58,24)" rx="2" ry="2" />
<text  x="14.68" y="271.5" >it..</text>
</g>
<g >
<title>ipf_check_wrapper (410 samples, 29.14%)</title><rect x="844.5" y="85" width="343.8" height="15.0" fill="rgb(238,56,4)" rx="2" ry="2" />
<text  x="847.47" y="95.5" >ipf_check_wrapper</text>
</g>
<g >
<title>handleevents (1 samples, 0.07%)</title><rect x="64.5" y="245" width="0.9" height="15.0" fill="rgb(207,36,35)" rx="2" ry="2" />
<text  x="67.51" y="255.5" ></text>
</g>
<g >
<title>mlx5_cq_completion (90 samples, 6.40%)</title><rect x="65.4" y="229" width="75.4" height="15.0" fill="rgb(251,26,6)" rx="2" ry="2" />
<text  x="68.35" y="239.5" >mlx5_cq_..</text>
</g>
<g >
<title>mlx5_cq_completion (2 samples, 0.14%)</title><rect x="140.8" y="277" width="1.7" height="15.0" fill="rgb(233,66,3)" rx="2" ry="2" />
<text  x="143.83" y="287.5" ></text>
</g>
<g >
<title>mlx5_eq_int (90 samples, 6.40%)</title><rect x="65.4" y="245" width="75.4" height="15.0" fill="rgb(215,30,27)" rx="2" ry="2" />
<text  x="68.35" y="255.5" >mlx5_eq_..</text>
</g>
<g >
<title>mb_ctor_mbuf (2 samples, 0.14%)</title><rect x="40.2" y="149" width="1.7" height="15.0" fill="rgb(246,159,1)" rx="2" ry="2" />
<text  x="43.19" y="159.5" ></text>
</g>
<g >
<title>memmove_erms (7 samples, 0.50%)</title><rect x="32.6" y="165" width="5.9" height="15.0" fill="rgb(225,10,2)" rx="2" ry="2" />
<text  x="35.64" y="175.5" ></text>
</g>
<g >
<title>m_pkthdr_init (2 samples, 0.14%)</title><rect x="40.2" y="133" width="1.7" height="15.0" fill="rgb(241,160,6)" rx="2" ry="2" />
<text  x="43.19" y="143.5" ></text>
</g>
<g >
<title>cxgbe_transmit (2 samples, 0.14%)</title><rect x="1188.3" y="117" width="1.7" height="15.0" fill="rgb(250,102,24)" rx="2" ry="2" />
<text  x="1191.32" y="127.5" ></text>
</g>
<g >
<title>mlx5e_rx_cq_comp (2 samples, 0.14%)</title><rect x="1188.3" y="277" width="1.7" height="15.0" fill="rgb(245,10,5)" rx="2" ry="2" />
<text  x="1191.32" y="287.5" ></text>
</g>
<g >
<title>netisr_dispatch_src (2 samples, 0.14%)</title><rect x="1188.3" y="197" width="1.7" height="15.0" fill="rgb(246,86,40)" rx="2" ry="2" />
<text  x="1191.32" y="207.5" ></text>
</g>
<g >
<title>ipf_makefrip (1 samples, 0.07%)</title><rect x="1170.7" y="53" width="0.8" height="15.0" fill="rgb(228,43,44)" rx="2" ry="2" />
<text  x="1173.71" y="63.5" ></text>
</g>
<g >
<title>m_free (2 samples, 0.14%)</title><rect x="10.0" y="53" width="1.7" height="15.0" fill="rgb(230,74,23)" rx="2" ry="2" />
<text  x="13.00" y="63.5" ></text>
</g>
<g >
<title>pmc_hook_handler (1 samples, 0.07%)</title><rect x="64.5" y="213" width="0.9" height="15.0" fill="rgb(222,93,45)" rx="2" ry="2" />
<text  x="67.51" y="223.5" ></text>
</g>
<g >
<title>drain_ring (8 samples, 0.57%)</title><rect x="837.8" y="37" width="6.7" height="15.0" fill="rgb(234,180,32)" rx="2" ry="2" />
<text  x="840.76" y="47.5" ></text>
</g>
<g >
<title>mlx5_cq_completion (24 samples, 1.71%)</title><rect x="43.5" y="213" width="20.2" height="15.0" fill="rgb(217,82,31)" rx="2" ry="2" />
<text  x="46.55" y="223.5" ></text>
</g>
<g >
<title>mlx5_msix_handler (36 samples, 2.56%)</title><rect x="11.7" y="229" width="30.2" height="15.0" fill="rgb(244,146,53)" rx="2" ry="2" />
<text  x="14.68" y="239.5" >ml..</text>
</g>
<g >
<title>ipf_check (22 samples, 1.56%)</title><rect x="45.2" y="37" width="18.5" height="15.0" fill="rgb(237,221,0)" rx="2" ry="2" />
<text  x="48.22" y="47.5" ></text>
</g>
<g >
<title>in_localip (1 samples, 0.07%)</title><rect x="28.5" y="53" width="0.8" height="15.0" fill="rgb(216,147,53)" rx="2" ry="2" />
<text  x="31.45" y="63.5" ></text>
</g>
<g >
<title>ether_output (2 samples, 0.14%)</title><rect x="10.0" y="165" width="1.7" height="15.0" fill="rgb(244,25,51)" rx="2" ry="2" />
<text  x="13.00" y="175.5" ></text>
</g>
<g >
<title>ether_output (7 samples, 0.50%)</title><rect x="22.6" y="53" width="5.9" height="15.0" fill="rgb(217,0,40)" rx="2" ry="2" />
<text  x="25.58" y="63.5" ></text>
</g>
<g >
<title>lkpi_irq_handler (36 samples, 2.56%)</title><rect x="11.7" y="245" width="30.2" height="15.0" fill="rgb(221,50,51)" rx="2" ry="2" />
<text  x="14.68" y="255.5" >lk..</text>
</g>
<g >
<title>keg_alloc_slab (2 samples, 0.14%)</title><rect x="41.9" y="149" width="1.6" height="15.0" fill="rgb(239,22,21)" rx="2" ry="2" />
<text  x="44.87" y="159.5" ></text>
</g>
<g >
<title>ether_nh_input (829 samples, 58.92%)</title><rect x="142.5" y="197" width="695.3" height="15.0" fill="rgb(240,14,22)" rx="2" ry="2" />
<text  x="145.51" y="207.5" >ether_nh_input</text>
</g>
<g >
<title>parse_pkt (1 samples, 0.07%)</title><rect x="71.2" y="37" width="0.9" height="15.0" fill="rgb(219,153,0)" rx="2" ry="2" />
<text  x="74.22" y="47.5" ></text>
</g>
<g >
<title>ether_output_frame (8 samples, 0.57%)</title><rect x="65.4" y="69" width="6.7" height="15.0" fill="rgb(247,138,31)" rx="2" ry="2" />
<text  x="68.35" y="79.5" ></text>
</g>
<g >
<title>mlx5_cq_completion (829 samples, 58.92%)</title><rect x="142.5" y="261" width="695.3" height="15.0" fill="rgb(252,98,42)" rx="2" ry="2" />
<text  x="145.51" y="271.5" >mlx5_cq_completion</text>
</g>
<g >
<title>mlx5_eq_int (418 samples, 29.71%)</title><rect x="837.8" y="261" width="350.5" height="15.0" fill="rgb(232,220,36)" rx="2" ry="2" />
<text  x="840.76" y="271.5" >mlx5_eq_int</text>
</g>
<g >
<title>mlx5_eq_int (829 samples, 58.92%)</title><rect x="142.5" y="277" width="695.3" height="15.0" fill="rgb(215,28,41)" rx="2" ry="2" />
<text  x="145.51" y="287.5" >mlx5_eq_int</text>
</g>
<g >
<title>ether_demux (90 samples, 6.40%)</title><rect x="65.4" y="149" width="75.4" height="15.0" fill="rgb(249,174,47)" rx="2" ry="2" />
<text  x="68.35" y="159.5" >ether_de..</text>
</g>
<g >
<title>ether_input (24 samples, 1.71%)</title><rect x="12.5" y="165" width="20.1" height="15.0" fill="rgb(221,159,23)" rx="2" ry="2" />
<text  x="15.52" y="175.5" ></text>
</g>
<g >
<title>ipf_scanlist (27 samples, 1.92%)</title><rect x="118.2" y="37" width="22.6" height="15.0" fill="rgb(252,6,4)" rx="2" ry="2" />
<text  x="121.19" y="47.5" >i..</text>
</g>
<g >
<title>memmove_erms (1 samples, 0.07%)</title><rect x="43.5" y="37" width="0.9" height="15.0" fill="rgb(216,96,14)" rx="2" ry="2" />
<text  x="46.55" y="47.5" ></text>
</g>
<g >
<title>mlx5_msix_handler (24 samples, 1.71%)</title><rect x="43.5" y="245" width="20.2" height="15.0" fill="rgb(226,139,5)" rx="2" ry="2" />
<text  x="46.55" y="255.5" ></text>
</g>
<g >
<title>ithread_loop (24 samples, 1.71%)</title><rect x="43.5" y="277" width="20.2" height="15.0" fill="rgb(221,138,22)" rx="2" ry="2" />
<text  x="46.55" y="287.5" ></text>
</g>
<g >
<title>netisr_dispatch_src (829 samples, 58.92%)</title><rect x="142.5" y="165" width="695.3" height="15.0" fill="rgb(217,188,49)" rx="2" ry="2" />
<text  x="145.51" y="175.5" >netisr_dispatch_src</text>
</g>
<g >
<title>mlx5_msix_handler (418 samples, 29.71%)</title><rect x="837.8" y="277" width="350.5" height="15.0" fill="rgb(242,175,29)" rx="2" ry="2" />
<text  x="840.76" y="287.5" >mlx5_msix_handler</text>
</g>
<g >
<title>ether_input (2 samples, 0.14%)</title><rect x="1188.3" y="261" width="1.7" height="15.0" fill="rgb(248,141,13)" rx="2" ry="2" />
<text  x="1191.32" y="271.5" ></text>
</g>
<g >
<title>ip_findroute (2 samples, 0.14%)</title><rect x="29.3" y="53" width="1.7" height="15.0" fill="rgb(218,85,8)" rx="2" ry="2" />
<text  x="32.29" y="63.5" ></text>
</g>
</g>
</svg>
