<?xml version="1.0" standalone="no"?>
<!DOCTYPE svg PUBLIC "-//W3C//DTD SVG 1.1//EN" "http://www.w3.org/Graphics/SVG/1.1/DTD/svg11.dtd">
<svg version="1.1" width="1200" height="342" onload="init(evt)" viewBox="0 0 1200 342" xmlns="http://www.w3.org/2000/svg" xmlns:xlink="http://www.w3.org/1999/xlink">
<!-- Flame graph stack visualization. See https://github.com/brendangregg/FlameGraph for latest version, and http://www.brendangregg.com/flamegraphs.html for examples. -->
<!-- NOTES:  -->
<defs>
	<linearGradient id="background" y1="0" y2="1" x1="0" x2="0" >
		<stop stop-color="#eeeeee" offset="5%" />
		<stop stop-color="#eeeeb0" offset="95%" />
	</linearGradient>
</defs>
<style type="text/css">
	text { font-family:Verdana; font-size:12px; fill:rgb(0,0,0); }
	#search, #ignorecase { opacity:0.1; cursor:pointer; }
	#search:hover, #search.show, #ignorecase:hover, #ignorecase.show { opacity:1; }
	#subtitle { text-anchor:middle; font-color:rgb(160,160,160); }
	#title { text-anchor:middle; font-size:17px}
	#unzoom { cursor:pointer; }
	#frames > *:hover { stroke:black; stroke-width:0.5; cursor:pointer; }
	.hide { display:none; }
	.parent { opacity:0.5; }
</style>
<script type="text/ecmascript">
<![CDATA[
	"use strict";
	var details, searchbtn, unzoombtn, matchedtxt, svg, searching, currentSearchTerm, ignorecase, ignorecaseBtn;
	function init(evt) {
		details = document.getElementById("details").firstChild;
		searchbtn = document.getElementById("search");
		ignorecaseBtn = document.getElementById("ignorecase");
		unzoombtn = document.getElementById("unzoom");
		matchedtxt = document.getElementById("matched");
		svg = document.getElementsByTagName("svg")[0];
		searching = 0;
		currentSearchTerm = null;

		// use GET parameters to restore a flamegraphs state.
		var params = get_params();
		if (params.x && params.y)
			zoom(find_group(document.querySelector('[x="' + params.x + '"][y="' + params.y + '"]')));
                if (params.s) search(params.s);
	}

	// event listeners
	window.addEventListener("click", function(e) {
		var target = find_group(e.target);
		if (target) {
			if (target.nodeName == "a") {
				if (e.ctrlKey === false) return;
				e.preventDefault();
			}
			if (target.classList.contains("parent")) unzoom();
			zoom(target);
			if (!document.querySelector('.parent')) {
				clearzoom();
				return;
			}

			// set parameters for zoom state
			var el = target.querySelector("rect");
			if (el && el.attributes && el.attributes.y && el.attributes._orig_x) {
				var params = get_params()
				params.x = el.attributes._orig_x.value;
				params.y = el.attributes.y.value;
				history.replaceState(null, null, parse_params(params));
			}
		}
		else if (e.target.id == "unzoom") clearzoom();
		else if (e.target.id == "search") search_prompt();
		else if (e.target.id == "ignorecase") toggle_ignorecase();
	}, false)

	// mouse-over for info
	// show
	window.addEventListener("mouseover", function(e) {
		var target = find_group(e.target);
		if (target) details.nodeValue = "Function: " + g_to_text(target);
	}, false)

	// clear
	window.addEventListener("mouseout", function(e) {
		var target = find_group(e.target);
		if (target) details.nodeValue = ' ';
	}, false)

	// ctrl-F for search
	// ctrl-I to toggle case-sensitive search
	window.addEventListener("keydown",function (e) {
		if (e.keyCode === 114 || (e.ctrlKey && e.keyCode === 70)) {
			e.preventDefault();
			search_prompt();
		}
		else if (e.ctrlKey && e.keyCode === 73) {
			e.preventDefault();
			toggle_ignorecase();
		}
	}, false)

	// functions
	function get_params() {
		var params = {};
		var paramsarr = window.location.search.substr(1).split('&');
		for (var i = 0; i < paramsarr.length; ++i) {
			var tmp = paramsarr[i].split("=");
			if (!tmp[0] || !tmp[1]) continue;
			params[tmp[0]]  = decodeURIComponent(tmp[1]);
		}
		return params;
	}
	function parse_params(params) {
		var uri = "?";
		for (var key in params) {
			uri += key + '=' + encodeURIComponent(params[key]) + '&';
		}
		if (uri.slice(-1) == "&")
			uri = uri.substring(0, uri.length - 1);
		if (uri == '?')
			uri = window.location.href.split('?')[0];
		return uri;
	}
	function find_child(node, selector) {
		var children = node.querySelectorAll(selector);
		if (children.length) return children[0];
	}
	function find_group(node) {
		var parent = node.parentElement;
		if (!parent) return;
		if (parent.id == "frames") return node;
		return find_group(parent);
	}
	function orig_save(e, attr, val) {
		if (e.attributes["_orig_" + attr] != undefined) return;
		if (e.attributes[attr] == undefined) return;
		if (val == undefined) val = e.attributes[attr].value;
		e.setAttribute("_orig_" + attr, val);
	}
	function orig_load(e, attr) {
		if (e.attributes["_orig_"+attr] == undefined) return;
		e.attributes[attr].value = e.attributes["_orig_" + attr].value;
		e.removeAttribute("_orig_"+attr);
	}
	function g_to_text(e) {
		var text = find_child(e, "title").firstChild.nodeValue;
		return (text)
	}
	function g_to_func(e) {
		var func = g_to_text(e);
		// if there's any manipulation we want to do to the function
		// name before it's searched, do it here before returning.
		return (func);
	}
	function update_text(e) {
		var r = find_child(e, "rect");
		var t = find_child(e, "text");
		var w = parseFloat(r.attributes.width.value) -3;
		var txt = find_child(e, "title").textContent.replace(/\([^(]*\)$/,"");
		t.attributes.x.value = parseFloat(r.attributes.x.value) + 3;

		// Smaller than this size won't fit anything
		if (w < 2 * 12 * 0.59) {
			t.textContent = "";
			return;
		}

		t.textContent = txt;
		// Fit in full text width
		if (/^ *$/.test(txt) || t.getSubStringLength(0, txt.length) < w)
			return;

		for (var x = txt.length - 2; x > 0; x--) {
			if (t.getSubStringLength(0, x + 2) <= w) {
				t.textContent = txt.substring(0, x) + "..";
				return;
			}
		}
		t.textContent = "";
	}

	// zoom
	function zoom_reset(e) {
		if (e.attributes != undefined) {
			orig_load(e, "x");
			orig_load(e, "width");
		}
		if (e.childNodes == undefined) return;
		for (var i = 0, c = e.childNodes; i < c.length; i++) {
			zoom_reset(c[i]);
		}
	}
	function zoom_child(e, x, ratio) {
		if (e.attributes != undefined) {
			if (e.attributes.x != undefined) {
				orig_save(e, "x");
				e.attributes.x.value = (parseFloat(e.attributes.x.value) - x - 10) * ratio + 10;
				if (e.tagName == "text")
					e.attributes.x.value = find_child(e.parentNode, "rect[x]").attributes.x.value + 3;
			}
			if (e.attributes.width != undefined) {
				orig_save(e, "width");
				e.attributes.width.value = parseFloat(e.attributes.width.value) * ratio;
			}
		}

		if (e.childNodes == undefined) return;
		for (var i = 0, c = e.childNodes; i < c.length; i++) {
			zoom_child(c[i], x - 10, ratio);
		}
	}
	function zoom_parent(e) {
		if (e.attributes) {
			if (e.attributes.x != undefined) {
				orig_save(e, "x");
				e.attributes.x.value = 10;
			}
			if (e.attributes.width != undefined) {
				orig_save(e, "width");
				e.attributes.width.value = parseInt(svg.width.baseVal.value) - (10 * 2);
			}
		}
		if (e.childNodes == undefined) return;
		for (var i = 0, c = e.childNodes; i < c.length; i++) {
			zoom_parent(c[i]);
		}
	}
	function zoom(node) {
		var attr = find_child(node, "rect").attributes;
		var width = parseFloat(attr.width.value);
		var xmin = parseFloat(attr.x.value);
		var xmax = parseFloat(xmin + width);
		var ymin = parseFloat(attr.y.value);
		var ratio = (svg.width.baseVal.value - 2 * 10) / width;

		// XXX: Workaround for JavaScript float issues (fix me)
		var fudge = 0.0001;

		unzoombtn.classList.remove("hide");

		var el = document.getElementById("frames").children;
		for (var i = 0; i < el.length; i++) {
			var e = el[i];
			var a = find_child(e, "rect").attributes;
			var ex = parseFloat(a.x.value);
			var ew = parseFloat(a.width.value);
			var upstack;
			// Is it an ancestor
			if (0 == 0) {
				upstack = parseFloat(a.y.value) > ymin;
			} else {
				upstack = parseFloat(a.y.value) < ymin;
			}
			if (upstack) {
				// Direct ancestor
				if (ex <= xmin && (ex+ew+fudge) >= xmax) {
					e.classList.add("parent");
					zoom_parent(e);
					update_text(e);
				}
				// not in current path
				else
					e.classList.add("hide");
			}
			// Children maybe
			else {
				// no common path
				if (ex < xmin || ex + fudge >= xmax) {
					e.classList.add("hide");
				}
				else {
					zoom_child(e, xmin, ratio);
					update_text(e);
				}
			}
		}
		search();
	}
	function unzoom() {
		unzoombtn.classList.add("hide");
		var el = document.getElementById("frames").children;
		for(var i = 0; i < el.length; i++) {
			el[i].classList.remove("parent");
			el[i].classList.remove("hide");
			zoom_reset(el[i]);
			update_text(el[i]);
		}
		search();
	}
	function clearzoom() {
		unzoom();

		// remove zoom state
		var params = get_params();
		if (params.x) delete params.x;
		if (params.y) delete params.y;
		history.replaceState(null, null, parse_params(params));
	}

	// search
	function toggle_ignorecase() {
		ignorecase = !ignorecase;
		if (ignorecase) {
			ignorecaseBtn.classList.add("show");
		} else {
			ignorecaseBtn.classList.remove("show");
		}
		reset_search();
		search();
	}
	function reset_search() {
		var el = document.querySelectorAll("#frames rect");
		for (var i = 0; i < el.length; i++) {
			orig_load(el[i], "fill")
		}
		var params = get_params();
		delete params.s;
		history.replaceState(null, null, parse_params(params));
	}
	function search_prompt() {
		if (!searching) {
			var term = prompt("Enter a search term (regexp " +
			    "allowed, eg: ^ext4_)"
			    + (ignorecase ? ", ignoring case" : "")
			    + "\nPress Ctrl-i to toggle case sensitivity", "");
			if (term != null) search(term);
		} else {
			reset_search();
			searching = 0;
			currentSearchTerm = null;
			searchbtn.classList.remove("show");
			searchbtn.firstChild.nodeValue = "Search"
			matchedtxt.classList.add("hide");
			matchedtxt.firstChild.nodeValue = ""
		}
	}
	function search(term) {
		if (term) currentSearchTerm = term;

		var re = new RegExp(currentSearchTerm, ignorecase ? 'i' : '');
		var el = document.getElementById("frames").children;
		var matches = new Object();
		var maxwidth = 0;
		for (var i = 0; i < el.length; i++) {
			var e = el[i];
			var func = g_to_func(e);
			var rect = find_child(e, "rect");
			if (func == null || rect == null)
				continue;

			// Save max width. Only works as we have a root frame
			var w = parseFloat(rect.attributes.width.value);
			if (w > maxwidth)
				maxwidth = w;

			if (func.match(re)) {
				// highlight
				var x = parseFloat(rect.attributes.x.value);
				orig_save(rect, "fill");
				rect.attributes.fill.value = "rgb(230,0,230)";

				// remember matches
				if (matches[x] == undefined) {
					matches[x] = w;
				} else {
					if (w > matches[x]) {
						// overwrite with parent
						matches[x] = w;
					}
				}
				searching = 1;
			}
		}
		if (!searching)
			return;
		var params = get_params();
		params.s = currentSearchTerm;
		history.replaceState(null, null, parse_params(params));

		searchbtn.classList.add("show");
		searchbtn.firstChild.nodeValue = "Reset Search";

		// calculate percent matched, excluding vertical overlap
		var count = 0;
		var lastx = -1;
		var lastw = 0;
		var keys = Array();
		for (k in matches) {
			if (matches.hasOwnProperty(k))
				keys.push(k);
		}
		// sort the matched frames by their x location
		// ascending, then width descending
		keys.sort(function(a, b){
			return a - b;
		});
		// Step through frames saving only the biggest bottom-up frames
		// thanks to the sort order. This relies on the tree property
		// where children are always smaller than their parents.
		var fudge = 0.0001;	// JavaScript floating point
		for (var k in keys) {
			var x = parseFloat(keys[k]);
			var w = matches[keys[k]];
			if (x >= lastx + lastw - fudge) {
				count += w;
				lastx = x;
				lastw = w;
			}
		}
		// display matched percent
		matchedtxt.classList.remove("hide");
		var pct = 100 * count / maxwidth;
		if (pct != 100) pct = pct.toFixed(1)
		matchedtxt.firstChild.nodeValue = "Matched: " + pct + "%";
	}
]]>
</script>
<rect x="0.0" y="0" width="1200.0" height="342.0" fill="url(#background)"  />
<text id="title" x="600.00" y="24" >Flame Graph</text>
<text id="details" x="10.00" y="325" > </text>
<text id="unzoom" x="10.00" y="24" class="hide">Reset Zoom</text>
<text id="search" x="1090.00" y="24" >Search</text>
<text id="ignorecase" x="1174.00" y="24" >ic</text>
<text id="matched" x="1090.00" y="325" > </text>
<g id="frames">
<g >
<title>drain_ring_lockless (4,093 samples, 15.52%)</title><rect x="985.9" y="85" width="183.2" height="15.0" fill="rgb(212,219,54)" rx="2" ry="2" />
<text  x="988.93" y="95.5" >drain_ring_lockless</text>
</g>
<g >
<title>in6_localip (2,975 samples, 11.28%)</title><rect x="447.0" y="85" width="133.1" height="15.0" fill="rgb(219,205,17)" rx="2" ry="2" />
<text  x="449.95" y="95.5" >in6_localip</text>
</g>
<g >
<title>ether_nh_input (4,093 samples, 15.52%)</title><rect x="985.9" y="229" width="183.2" height="15.0" fill="rgb(211,216,16)" rx="2" ry="2" />
<text  x="988.93" y="239.5" >ether_nh_input</text>
</g>
<g >
<title>spinlock_enter (90 samples, 0.34%)</title><rect x="121.8" y="165" width="4.0" height="15.0" fill="rgb(241,222,25)" rx="2" ry="2" />
<text  x="124.79" y="175.5" ></text>
</g>
<g >
<title>drain_ring_lockless (32 samples, 0.12%)</title><rect x="82.9" y="133" width="1.4" height="15.0" fill="rgb(232,22,17)" rx="2" ry="2" />
<text  x="85.85" y="143.5" ></text>
</g>
<g >
<title>fib6_lookup (3,504 samples, 13.29%)</title><rect x="656.3" y="69" width="156.9" height="15.0" fill="rgb(240,212,42)" rx="2" ry="2" />
<text  x="659.34" y="79.5" >fib6_lookup</text>
</g>
<g >
<title>netisr_dispatch_src (32 samples, 0.12%)</title><rect x="82.9" y="245" width="1.4" height="15.0" fill="rgb(205,26,45)" rx="2" ry="2" />
<text  x="85.85" y="255.5" ></text>
</g>
<g >
<title>iflib_txq_drain (710 samples, 2.69%)</title><rect x="845.9" y="37" width="31.7" height="15.0" fill="rgb(243,202,42)" rx="2" ry="2" />
<text  x="848.86" y="47.5" >if..</text>
</g>
<g >
<title>gtaskqueue_thread_loop (17,017 samples, 64.54%)</title><rect x="84.3" y="261" width="761.5" height="15.0" fill="rgb(208,119,21)" rx="2" ry="2" />
<text  x="87.29" y="271.5" >gtaskqueue_thread_loop</text>
</g>
<g >
<title>netisr_dispatch_src (4,093 samples, 15.52%)</title><rect x="985.9" y="197" width="183.2" height="15.0" fill="rgb(222,39,41)" rx="2" ry="2" />
<text  x="988.93" y="207.5" >netisr_dispatch_src</text>
</g>
<g >
<title>drain_ring_lockless (371 samples, 1.41%)</title><rect x="1172.6" y="117" width="16.6" height="15.0" fill="rgb(220,183,5)" rx="2" ry="2" />
<text  x="1175.59" y="127.5" ></text>
</g>
<g >
<title>pmclog_process_callchain (42 samples, 0.16%)</title><rect x="1170.7" y="181" width="1.9" height="15.0" fill="rgb(240,213,34)" rx="2" ry="2" />
<text  x="1173.71" y="191.5" ></text>
</g>
<g >
<title>ether_demux (15,126 samples, 57.36%)</title><rect x="136.2" y="149" width="677.0" height="15.0" fill="rgb(227,100,32)" rx="2" ry="2" />
<text  x="139.24" y="159.5" >ether_demux</text>
</g>
<g >
<title>iflib_txq_drain (370 samples, 1.40%)</title><rect x="66.3" y="85" width="16.6" height="15.0" fill="rgb(227,157,6)" rx="2" ry="2" />
<text  x="69.30" y="95.5" ></text>
</g>
<g >
<title>netisr_dispatch_src (710 samples, 2.69%)</title><rect x="845.9" y="213" width="31.7" height="15.0" fill="rgb(206,55,30)" rx="2" ry="2" />
<text  x="848.86" y="223.5" >ne..</text>
</g>
<g >
<title>gtaskqueue_run_locked (710 samples, 2.69%)</title><rect x="845.9" y="277" width="31.7" height="15.0" fill="rgb(234,44,6)" rx="2" ry="2" />
<text  x="848.86" y="287.5" >gt..</text>
</g>
<g >
<title>ifmp_ring_enqueue (400 samples, 1.52%)</title><rect x="399.4" y="37" width="17.9" height="15.0" fill="rgb(228,12,52)" rx="2" ry="2" />
<text  x="402.43" y="47.5" ></text>
</g>
<g >
<title>ip6_tryforward (4,093 samples, 15.52%)</title><rect x="985.9" y="165" width="183.2" height="15.0" fill="rgb(235,162,29)" rx="2" ry="2" />
<text  x="988.93" y="175.5" >ip6_tryforward</text>
</g>
<g >
<title>ip6_tryforward (32 samples, 0.12%)</title><rect x="82.9" y="213" width="1.4" height="15.0" fill="rgb(205,215,1)" rx="2" ry="2" />
<text  x="85.85" y="223.5" ></text>
</g>
<g >
<title>netisr_dispatch_src (2,420 samples, 9.18%)</title><rect x="877.6" y="149" width="108.3" height="15.0" fill="rgb(208,59,26)" rx="2" ry="2" />
<text  x="880.64" y="159.5" >netisr_dispat..</text>
</g>
<g >
<title>ixl_isc_txd_encap (3,582 samples, 13.58%)</title><rect x="997.2" y="37" width="160.3" height="15.0" fill="rgb(247,128,16)" rx="2" ry="2" />
<text  x="1000.17" y="47.5" >ixl_isc_txd_encap</text>
</g>
<g >
<title>ether_input (4,093 samples, 15.52%)</title><rect x="985.9" y="261" width="183.2" height="15.0" fill="rgb(215,52,40)" rx="2" ry="2" />
<text  x="988.93" y="271.5" >ether_input</text>
</g>
<g >
<title>ip6_tryforward (710 samples, 2.69%)</title><rect x="845.9" y="133" width="31.7" height="15.0" fill="rgb(206,197,25)" rx="2" ry="2" />
<text  x="848.86" y="143.5" >ip..</text>
</g>
<g >
<title>ether_demux (710 samples, 2.69%)</title><rect x="845.9" y="181" width="31.7" height="15.0" fill="rgb(212,84,42)" rx="2" ry="2" />
<text  x="848.86" y="191.5" >et..</text>
</g>
<g >
<title>_rm_rlock (762 samples, 2.89%)</title><rect x="512.2" y="69" width="34.1" height="15.0" fill="rgb(218,26,21)" rx="2" ry="2" />
<text  x="515.20" y="79.5" >_r..</text>
</g>
<g >
<title>iflib_encap (343 samples, 1.30%)</title><rect x="38.6" y="37" width="15.3" height="15.0" fill="rgb(217,147,5)" rx="2" ry="2" />
<text  x="41.60" y="47.5" ></text>
</g>
<g >
<title>netisr_dispatch_src (370 samples, 1.40%)</title><rect x="66.3" y="213" width="16.6" height="15.0" fill="rgb(239,55,53)" rx="2" ry="2" />
<text  x="69.30" y="223.5" ></text>
</g>
<g >
<title>intr_execute_handlers (36 samples, 0.14%)</title><rect x="1169.1" y="277" width="1.6" height="15.0" fill="rgb(247,160,39)" rx="2" ry="2" />
<text  x="1172.10" y="287.5" ></text>
</g>
<g >
<title>netisr_dispatch_src (2,420 samples, 9.18%)</title><rect x="877.6" y="197" width="108.3" height="15.0" fill="rgb(208,156,43)" rx="2" ry="2" />
<text  x="880.64" y="207.5" >netisr_dispat..</text>
</g>
<g >
<title>_task_fn_rx (2,420 samples, 9.18%)</title><rect x="877.6" y="245" width="108.3" height="15.0" fill="rgb(216,8,27)" rx="2" ry="2" />
<text  x="880.64" y="255.5" >_task_fn_rx</text>
</g>
<g >
<title>iflib_txq_drain (1,088 samples, 4.13%)</title><rect x="17.6" y="53" width="48.7" height="15.0" fill="rgb(234,190,48)" rx="2" ry="2" />
<text  x="20.61" y="63.5" >ifli..</text>
</g>
<g >
<title>ether_nh_input (15,146 samples, 57.44%)</title><rect x="135.3" y="165" width="677.9" height="15.0" fill="rgb(240,121,41)" rx="2" ry="2" />
<text  x="138.35" y="175.5" >ether_nh_input</text>
</g>
<g >
<title>uma_zfree_arg (295 samples, 1.12%)</title><rect x="1176.0" y="37" width="13.2" height="15.0" fill="rgb(238,213,3)" rx="2" ry="2" />
<text  x="1178.99" y="47.5" ></text>
</g>
<g >
<title>ixl_isc_rxd_pkt_get (165 samples, 0.63%)</title><rect x="821.1" y="197" width="7.4" height="15.0" fill="rgb(241,166,3)" rx="2" ry="2" />
<text  x="824.12" y="207.5" ></text>
</g>
<g >
<title>_task_fn_rx (1,088 samples, 4.13%)</title><rect x="17.6" y="277" width="48.7" height="15.0" fill="rgb(226,9,3)" rx="2" ry="2" />
<text  x="20.61" y="287.5" >_tas..</text>
</g>
<g >
<title>ether_input (15,155 samples, 57.47%)</title><rect x="134.9" y="197" width="678.3" height="15.0" fill="rgb(229,90,35)" rx="2" ry="2" />
<text  x="137.95" y="207.5" >ether_input</text>
</g>
<g >
<title>ether_demux (370 samples, 1.40%)</title><rect x="66.3" y="229" width="16.6" height="15.0" fill="rgb(228,42,13)" rx="2" ry="2" />
<text  x="69.30" y="239.5" ></text>
</g>
<g >
<title>gtaskqueue_thread_enqueue (35 samples, 0.13%)</title><rect x="95.7" y="197" width="1.6" height="15.0" fill="rgb(206,172,23)" rx="2" ry="2" />
<text  x="98.74" y="207.5" ></text>
</g>
<g >
<title>netisr_dispatch_src (4,093 samples, 15.52%)</title><rect x="985.9" y="245" width="183.2" height="15.0" fill="rgb(254,144,17)" rx="2" ry="2" />
<text  x="988.93" y="255.5" >netisr_dispatch_src</text>
</g>
<g >
<title>ether_input (710 samples, 2.69%)</title><rect x="845.9" y="229" width="31.7" height="15.0" fill="rgb(250,44,41)" rx="2" ry="2" />
<text  x="848.86" y="239.5" >et..</text>
</g>
<g >
<title>ether_demux (371 samples, 1.41%)</title><rect x="1172.6" y="245" width="16.6" height="15.0" fill="rgb(243,57,10)" rx="2" ry="2" />
<text  x="1175.59" y="255.5" ></text>
</g>
<g >
<title>netisr_dispatch_src (1,088 samples, 4.13%)</title><rect x="17.6" y="181" width="48.7" height="15.0" fill="rgb(241,29,48)" rx="2" ry="2" />
<text  x="20.61" y="191.5" >neti..</text>
</g>
<g >
<title>ether_demux (2,420 samples, 9.18%)</title><rect x="877.6" y="165" width="108.3" height="15.0" fill="rgb(205,148,44)" rx="2" ry="2" />
<text  x="880.64" y="175.5" >ether_demux</text>
</g>
<g >
<title>ether_input (2,420 samples, 9.18%)</title><rect x="877.6" y="213" width="108.3" height="15.0" fill="rgb(221,14,9)" rx="2" ry="2" />
<text  x="880.64" y="223.5" >ether_input</text>
</g>
<g >
<title>m_freem (32 samples, 0.12%)</title><rect x="82.9" y="85" width="1.4" height="15.0" fill="rgb(207,190,30)" rx="2" ry="2" />
<text  x="85.85" y="95.5" ></text>
</g>
<g >
<title>pmap_kextract (7 samples, 0.03%)</title><rect x="82.5" y="37" width="0.4" height="15.0" fill="rgb(213,216,47)" rx="2" ry="2" />
<text  x="85.54" y="47.5" ></text>
</g>
<g >
<title>ifmp_ring_enqueue (710 samples, 2.69%)</title><rect x="845.9" y="69" width="31.7" height="15.0" fill="rgb(235,59,51)" rx="2" ry="2" />
<text  x="848.86" y="79.5" >if..</text>
</g>
<g >
<title>iflib_rxeof (1,088 samples, 4.13%)</title><rect x="17.6" y="261" width="48.7" height="15.0" fill="rgb(245,0,22)" rx="2" ry="2" />
<text  x="20.61" y="271.5" >ifli..</text>
</g>
<g >
<title>Xapic_isr1 (170 samples, 0.64%)</title><rect x="10.0" y="277" width="7.6" height="15.0" fill="rgb(210,96,14)" rx="2" ry="2" />
<text  x="13.00" y="287.5" ></text>
</g>
<g >
<title>_epoch_enter_preempt (48 samples, 0.18%)</title><rect x="86.8" y="229" width="2.2" height="15.0" fill="rgb(239,73,3)" rx="2" ry="2" />
<text  x="89.84" y="239.5" ></text>
</g>
<g >
<title>iflib_encap (325 samples, 1.23%)</title><rect x="68.3" y="69" width="14.6" height="15.0" fill="rgb(223,15,13)" rx="2" ry="2" />
<text  x="71.31" y="79.5" ></text>
</g>
<g >
<title>bounce_bus_dmamap_load_buffer (318 samples, 1.21%)</title><rect x="68.3" y="37" width="14.2" height="15.0" fill="rgb(215,165,17)" rx="2" ry="2" />
<text  x="71.31" y="47.5" ></text>
</g>
<g >
<title>iflib_rxeof (4,093 samples, 15.52%)</title><rect x="985.9" y="277" width="183.2" height="15.0" fill="rgb(215,174,32)" rx="2" ry="2" />
<text  x="988.93" y="287.5" >iflib_rxeof</text>
</g>
<g >
<title>sleepq_lock (302 samples, 1.15%)</title><rect x="112.3" y="181" width="13.5" height="15.0" fill="rgb(219,209,27)" rx="2" ry="2" />
<text  x="115.30" y="191.5" ></text>
</g>
<g >
<title>netisr_dispatch_src (370 samples, 1.40%)</title><rect x="66.3" y="261" width="16.6" height="15.0" fill="rgb(207,59,22)" rx="2" ry="2" />
<text  x="69.30" y="271.5" ></text>
</g>
<g >
<title>if_getafdata (3 samples, 0.01%)</title><rect x="442.7" y="53" width="0.2" height="15.0" fill="rgb(214,188,41)" rx="2" ry="2" />
<text  x="445.74" y="63.5" ></text>
</g>
<g >
<title>ether_nh_input (1,088 samples, 4.13%)</title><rect x="17.6" y="213" width="48.7" height="15.0" fill="rgb(205,48,44)" rx="2" ry="2" />
<text  x="20.61" y="223.5" >ethe..</text>
</g>
<g >
<title>iflib_rxeof (710 samples, 2.69%)</title><rect x="845.9" y="245" width="31.7" height="15.0" fill="rgb(215,154,47)" rx="2" ry="2" />
<text  x="848.86" y="255.5" >if..</text>
</g>
<g >
<title>handleevents (42 samples, 0.16%)</title><rect x="1170.7" y="245" width="1.9" height="15.0" fill="rgb(246,63,39)" rx="2" ry="2" />
<text  x="1173.71" y="255.5" ></text>
</g>
<g >
<title>m_freem (371 samples, 1.41%)</title><rect x="1172.6" y="69" width="16.6" height="15.0" fill="rgb(246,105,44)" rx="2" ry="2" />
<text  x="1175.59" y="79.5" ></text>
</g>
<g >
<title>ip6_tryforward (2,420 samples, 9.18%)</title><rect x="877.6" y="117" width="108.3" height="15.0" fill="rgb(212,188,26)" rx="2" ry="2" />
<text  x="880.64" y="127.5" >ip6_tryforward</text>
</g>
<g >
<title>ether_output_frame (32 samples, 0.12%)</title><rect x="82.9" y="181" width="1.4" height="15.0" fill="rgb(210,41,39)" rx="2" ry="2" />
<text  x="85.85" y="191.5" ></text>
</g>
<g >
<title>ether_nh_input (710 samples, 2.69%)</title><rect x="845.9" y="197" width="31.7" height="15.0" fill="rgb(232,130,37)" rx="2" ry="2" />
<text  x="848.86" y="207.5" >et..</text>
</g>
<g >
<title>if_getdrvflags (9 samples, 0.03%)</title><rect x="813.2" y="197" width="0.4" height="15.0" fill="rgb(223,33,28)" rx="2" ry="2" />
<text  x="816.15" y="207.5" ></text>
</g>
<g >
<title>pagezero_erms (18 samples, 0.07%)</title><rect x="1189.2" y="245" width="0.8" height="15.0" fill="rgb(210,223,22)" rx="2" ry="2" />
<text  x="1192.19" y="255.5" ></text>
</g>
<g >
<title>iflib_txq_drain (371 samples, 1.41%)</title><rect x="1172.6" y="101" width="16.6" height="15.0" fill="rgb(247,150,5)" rx="2" ry="2" />
<text  x="1175.59" y="111.5" ></text>
</g>
<g >
<title>intr_event_handle (12 samples, 0.05%)</title><rect x="1170.2" y="261" width="0.5" height="15.0" fill="rgb(213,116,42)" rx="2" ry="2" />
<text  x="1173.18" y="271.5" ></text>
</g>
<g >
<title>spinlock_enter (3 samples, 0.01%)</title><rect x="845.7" y="197" width="0.1" height="15.0" fill="rgb(215,208,33)" rx="2" ry="2" />
<text  x="848.68" y="207.5" ></text>
</g>
<g >
<title>pmap_kextract (76 samples, 0.29%)</title><rect x="1172.6" y="37" width="3.4" height="15.0" fill="rgb(228,30,25)" rx="2" ry="2" />
<text  x="1175.59" y="47.5" ></text>
</g>
<g >
<title>ether_demux (32 samples, 0.12%)</title><rect x="82.9" y="261" width="1.4" height="15.0" fill="rgb(210,33,16)" rx="2" ry="2" />
<text  x="85.85" y="271.5" ></text>
</g>
<g >
<title>ip6_input (32 samples, 0.12%)</title><rect x="82.9" y="229" width="1.4" height="15.0" fill="rgb(217,203,36)" rx="2" ry="2" />
<text  x="85.85" y="239.5" ></text>
</g>
<g >
<title>uma_sm (18 samples, 0.07%)</title><rect x="1189.2" y="277" width="0.8" height="15.0" fill="rgb(239,110,30)" rx="2" ry="2" />
<text  x="1192.19" y="287.5" ></text>
</g>
<g >
<title>ip6_input (2,420 samples, 9.18%)</title><rect x="877.6" y="133" width="108.3" height="15.0" fill="rgb(207,101,46)" rx="2" ry="2" />
<text  x="880.64" y="143.5" >ip6_input</text>
</g>
<g >
<title>mb_dtor_mbuf (32 samples, 0.12%)</title><rect x="82.9" y="37" width="1.4" height="15.0" fill="rgb(227,31,26)" rx="2" ry="2" />
<text  x="85.85" y="47.5" ></text>
</g>
<g >
<title>spinlock_exit (319 samples, 1.21%)</title><rect x="98.0" y="197" width="14.3" height="15.0" fill="rgb(206,36,35)" rx="2" ry="2" />
<text  x="101.03" y="207.5" ></text>
</g>
<g >
<title>netisr_dispatch_src (15,155 samples, 57.47%)</title><rect x="134.9" y="181" width="678.3" height="15.0" fill="rgb(225,0,44)" rx="2" ry="2" />
<text  x="137.95" y="191.5" >netisr_dispatch_src</text>
</g>
<g >
<title>netisr_dispatch_src (15,126 samples, 57.36%)</title><rect x="136.2" y="133" width="677.0" height="15.0" fill="rgb(217,163,0)" rx="2" ry="2" />
<text  x="139.24" y="143.5" >netisr_dispatch_src</text>
</g>
<g >
<title>ether_output (4,093 samples, 15.52%)</title><rect x="985.9" y="149" width="183.2" height="15.0" fill="rgb(218,23,7)" rx="2" ry="2" />
<text  x="988.93" y="159.5" >ether_output</text>
</g>
<g >
<title>bus_dmamap_load_mbuf_sg (77 samples, 0.29%)</title><rect x="993.7" y="37" width="3.5" height="15.0" fill="rgb(252,35,41)" rx="2" ry="2" />
<text  x="996.72" y="47.5" ></text>
</g>
<g >
<title>lapic_handle_timer (42 samples, 0.16%)</title><rect x="1170.7" y="277" width="1.9" height="15.0" fill="rgb(242,171,4)" rx="2" ry="2" />
<text  x="1173.71" y="287.5" ></text>
</g>
<g >
<title>iflib_if_transmit (4,093 samples, 15.52%)</title><rect x="985.9" y="117" width="183.2" height="15.0" fill="rgb(218,229,23)" rx="2" ry="2" />
<text  x="988.93" y="127.5" >iflib_if_transmit</text>
</g>
<g >
<title>iflib_fl_refill (167 samples, 0.63%)</title><rect x="813.6" y="197" width="7.5" height="15.0" fill="rgb(229,155,48)" rx="2" ry="2" />
<text  x="816.64" y="207.5" ></text>
</g>
<g >
<title>all (26,368 samples, 100%)</title><rect x="10.0" y="293" width="1180.0" height="15.0" fill="rgb(238,9,19)" rx="2" ry="2" />
<text  x="13.00" y="303.5" ></text>
</g>
<g >
<title>iflib_rxeof (2,420 samples, 9.18%)</title><rect x="877.6" y="229" width="108.3" height="15.0" fill="rgb(209,161,15)" rx="2" ry="2" />
<text  x="880.64" y="239.5" >iflib_rxeof</text>
</g>
<g >
<title>hardclock (42 samples, 0.16%)</title><rect x="1170.7" y="229" width="1.9" height="15.0" fill="rgb(235,170,6)" rx="2" ry="2" />
<text  x="1173.71" y="239.5" ></text>
</g>
<g >
<title>timercb (42 samples, 0.16%)</title><rect x="1170.7" y="261" width="1.9" height="15.0" fill="rgb(250,8,5)" rx="2" ry="2" />
<text  x="1173.71" y="271.5" ></text>
</g>
<g >
<title>ip6_tryforward (370 samples, 1.40%)</title><rect x="66.3" y="181" width="16.6" height="15.0" fill="rgb(250,179,5)" rx="2" ry="2" />
<text  x="69.30" y="191.5" ></text>
</g>
<g >
<title>drain_ring_lockless (1,088 samples, 4.13%)</title><rect x="17.6" y="69" width="48.7" height="15.0" fill="rgb(252,89,23)" rx="2" ry="2" />
<text  x="20.61" y="79.5" >drai..</text>
</g>
<g >
<title>iflib_txq_drain (4,093 samples, 15.52%)</title><rect x="985.9" y="69" width="183.2" height="15.0" fill="rgb(216,107,38)" rx="2" ry="2" />
<text  x="988.93" y="79.5" >iflib_txq_drain</text>
</g>
<g >
<title>iflib_if_transmit (428 samples, 1.62%)</title><rect x="398.2" y="53" width="19.1" height="15.0" fill="rgb(254,107,31)" rx="2" ry="2" />
<text  x="401.17" y="63.5" ></text>
</g>
<g >
<title>iflib_encap (3,659 samples, 13.88%)</title><rect x="993.7" y="53" width="163.8" height="15.0" fill="rgb(240,138,1)" rx="2" ry="2" />
<text  x="996.72" y="63.5" >iflib_encap</text>
</g>
<g >
<title>ifmp_ring_enqueue (1,088 samples, 4.13%)</title><rect x="17.6" y="85" width="48.7" height="15.0" fill="rgb(228,162,54)" rx="2" ry="2" />
<text  x="20.61" y="95.5" >ifmp..</text>
</g>
<g >
<title>bus_dmamap_load_mbuf_sg (325 samples, 1.23%)</title><rect x="68.3" y="53" width="14.6" height="15.0" fill="rgb(215,135,24)" rx="2" ry="2" />
<text  x="71.31" y="63.5" ></text>
</g>
<g >
<title>wakeup (24 samples, 0.09%)</title><rect x="844.7" y="229" width="1.1" height="15.0" fill="rgb(214,96,45)" rx="2" ry="2" />
<text  x="847.74" y="239.5" ></text>
</g>
<g >
<title>ether_output (32 samples, 0.12%)</title><rect x="82.9" y="197" width="1.4" height="15.0" fill="rgb(247,5,39)" rx="2" ry="2" />
<text  x="85.85" y="207.5" ></text>
</g>
<g >
<title>ether_output_frame (2,420 samples, 9.18%)</title><rect x="877.6" y="85" width="108.3" height="15.0" fill="rgb(244,5,50)" rx="2" ry="2" />
<text  x="880.64" y="95.5" >ether_output_..</text>
</g>
<g >
<title>ether_output (710 samples, 2.69%)</title><rect x="845.9" y="117" width="31.7" height="15.0" fill="rgb(237,81,45)" rx="2" ry="2" />
<text  x="848.86" y="127.5" >et..</text>
</g>
<g >
<title>ip6_input (710 samples, 2.69%)</title><rect x="845.9" y="149" width="31.7" height="15.0" fill="rgb(247,69,21)" rx="2" ry="2" />
<text  x="848.86" y="159.5" >ip..</text>
</g>
<g >
<title>ether_output (1,214 samples, 4.60%)</title><rect x="392.6" y="85" width="54.4" height="15.0" fill="rgb(228,223,31)" rx="2" ry="2" />
<text  x="395.62" y="95.5" >ether..</text>
</g>
<g >
<title>ether_nh_input (32 samples, 0.12%)</title><rect x="82.9" y="277" width="1.4" height="15.0" fill="rgb(237,20,50)" rx="2" ry="2" />
<text  x="85.85" y="287.5" ></text>
</g>
<g >
<title>uma_zalloc_arg (86 samples, 0.33%)</title><rect x="817.3" y="181" width="3.8" height="15.0" fill="rgb(217,144,16)" rx="2" ry="2" />
<text  x="820.27" y="191.5" ></text>
</g>
<g >
<title>ether_output (2,420 samples, 9.18%)</title><rect x="877.6" y="101" width="108.3" height="15.0" fill="rgb(225,143,20)" rx="2" ry="2" />
<text  x="880.64" y="111.5" >ether_output</text>
</g>
<g >
<title>ip6_input (4,093 samples, 15.52%)</title><rect x="985.9" y="181" width="183.2" height="15.0" fill="rgb(220,221,8)" rx="2" ry="2" />
<text  x="988.93" y="191.5" >ip6_input</text>
</g>
<g >
<title>ether_output_frame (710 samples, 2.69%)</title><rect x="845.9" y="101" width="31.7" height="15.0" fill="rgb(211,107,25)" rx="2" ry="2" />
<text  x="848.86" y="111.5" >et..</text>
</g>
<g >
<title>iflib_completed_tx_reclaim (45 samples, 0.17%)</title><rect x="66.3" y="69" width="2.0" height="15.0" fill="rgb(235,36,34)" rx="2" ry="2" />
<text  x="69.30" y="79.5" ></text>
</g>
<g >
<title>netisr_dispatch_src (1,088 samples, 4.13%)</title><rect x="17.6" y="229" width="48.7" height="15.0" fill="rgb(208,166,7)" rx="2" ry="2" />
<text  x="20.61" y="239.5" >neti..</text>
</g>
<g >
<title>gtaskqueue_run_locked (2,420 samples, 9.18%)</title><rect x="877.6" y="261" width="108.3" height="15.0" fill="rgb(232,89,43)" rx="2" ry="2" />
<text  x="880.64" y="271.5" >gtaskqueue_ru..</text>
</g>
<g >
<title>ixl_isc_txd_credits_update_hwb (174 samples, 0.66%)</title><rect x="985.9" y="37" width="7.8" height="15.0" fill="rgb(219,224,43)" rx="2" ry="2" />
<text  x="988.93" y="47.5" ></text>
</g>
<g >
<title>iflib_if_transmit (2,420 samples, 9.18%)</title><rect x="877.6" y="69" width="108.3" height="15.0" fill="rgb(252,18,5)" rx="2" ry="2" />
<text  x="880.64" y="79.5" >iflib_if_tran..</text>
</g>
<g >
<title>spinlock_enter (16 samples, 0.06%)</title><rect x="97.3" y="197" width="0.7" height="15.0" fill="rgb(242,160,53)" rx="2" ry="2" />
<text  x="100.31" y="207.5" ></text>
</g>
<g >
<title>ifmp_ring_enqueue (4,093 samples, 15.52%)</title><rect x="985.9" y="101" width="183.2" height="15.0" fill="rgb(224,42,17)" rx="2" ry="2" />
<text  x="988.93" y="111.5" >ifmp_ring_enqueue</text>
</g>
<g >
<title>netisr_dispatch_src (371 samples, 1.41%)</title><rect x="1172.6" y="229" width="16.6" height="15.0" fill="rgb(238,21,39)" rx="2" ry="2" />
<text  x="1175.59" y="239.5" ></text>
</g>
<g >
<title>ixl_isc_txd_flush (260 samples, 0.99%)</title><rect x="1157.5" y="37" width="11.6" height="15.0" fill="rgb(207,165,18)" rx="2" ry="2" />
<text  x="1160.47" y="47.5" ></text>
</g>
<g >
<title>nd6_resolve (133 samples, 0.50%)</title><rect x="441.0" y="69" width="6.0" height="15.0" fill="rgb(205,119,0)" rx="2" ry="2" />
<text  x="444.00" y="79.5" ></text>
</g>
<g >
<title>iflib_completed_tx_reclaim (371 samples, 1.41%)</title><rect x="1172.6" y="85" width="16.6" height="15.0" fill="rgb(245,198,29)" rx="2" ry="2" />
<text  x="1175.59" y="95.5" ></text>
</g>
<g >
<title>m_free (32 samples, 0.12%)</title><rect x="82.9" y="69" width="1.4" height="15.0" fill="rgb(240,142,4)" rx="2" ry="2" />
<text  x="85.85" y="79.5" ></text>
</g>
<g >
<title>ether_output (1,088 samples, 4.13%)</title><rect x="17.6" y="133" width="48.7" height="15.0" fill="rgb(246,100,53)" rx="2" ry="2" />
<text  x="20.61" y="143.5" >ethe..</text>
</g>
<g >
<title>m_freem (45 samples, 0.17%)</title><rect x="66.3" y="53" width="2.0" height="15.0" fill="rgb(248,141,3)" rx="2" ry="2" />
<text  x="69.30" y="63.5" ></text>
</g>
<g >
<title>grouptaskqueue_enqueue (823 samples, 3.12%)</title><rect x="89.0" y="213" width="36.8" height="15.0" fill="rgb(216,46,7)" rx="2" ry="2" />
<text  x="91.99" y="223.5" >gro..</text>
</g>
<g >
<title>pmc_process_samples (42 samples, 0.16%)</title><rect x="1170.7" y="197" width="1.9" height="15.0" fill="rgb(250,30,10)" rx="2" ry="2" />
<text  x="1173.71" y="207.5" ></text>
</g>
<g >
<title>iflib_rxeof (16,050 samples, 60.87%)</title><rect x="125.9" y="213" width="718.3" height="15.0" fill="rgb(219,149,2)" rx="2" ry="2" />
<text  x="128.91" y="223.5" >iflib_rxeof</text>
</g>
<g >
<title>fork_exit (17,018 samples, 64.54%)</title><rect x="84.3" y="277" width="761.6" height="15.0" fill="rgb(253,167,14)" rx="2" ry="2" />
<text  x="87.29" y="287.5" >fork_exit</text>
</g>
<g >
<title>ether_output (371 samples, 1.41%)</title><rect x="1172.6" y="181" width="16.6" height="15.0" fill="rgb(223,101,30)" rx="2" ry="2" />
<text  x="1175.59" y="191.5" ></text>
</g>
<g >
<title>iflib_if_transmit (32 samples, 0.12%)</title><rect x="82.9" y="165" width="1.4" height="15.0" fill="rgb(228,92,23)" rx="2" ry="2" />
<text  x="85.85" y="175.5" ></text>
</g>
<g >
<title>iflib_completed_tx_reclaim (174 samples, 0.66%)</title><rect x="985.9" y="53" width="7.8" height="15.0" fill="rgb(224,117,42)" rx="2" ry="2" />
<text  x="988.93" y="63.5" ></text>
</g>
<g >
<title>if_inc_counter (105 samples, 0.40%)</title><rect x="19.4" y="37" width="4.7" height="15.0" fill="rgb(214,137,6)" rx="2" ry="2" />
<text  x="22.35" y="47.5" ></text>
</g>
<g >
<title>_rm_runlock (755 samples, 2.86%)</title><rect x="546.3" y="69" width="33.8" height="15.0" fill="rgb(211,96,49)" rx="2" ry="2" />
<text  x="549.30" y="79.5" >_r..</text>
</g>
<g >
<title>spinlock_enter (13 samples, 0.05%)</title><rect x="844.2" y="229" width="0.5" height="15.0" fill="rgb(211,44,41)" rx="2" ry="2" />
<text  x="847.16" y="239.5" ></text>
</g>
<g >
<title>gtaskqueue_thread_loop (2,420 samples, 9.18%)</title><rect x="877.6" y="277" width="108.3" height="15.0" fill="rgb(214,163,11)" rx="2" ry="2" />
<text  x="880.64" y="287.5" >gtaskqueue_th..</text>
</g>
<g >
<title>in6_lltable_lookup (72 samples, 0.27%)</title><rect x="442.9" y="53" width="3.2" height="15.0" fill="rgb(237,84,31)" rx="2" ry="2" />
<text  x="445.88" y="63.5" ></text>
</g>
<g >
<title>ip6_input (15,112 samples, 57.31%)</title><rect x="136.9" y="117" width="676.3" height="15.0" fill="rgb(247,176,49)" rx="2" ry="2" />
<text  x="139.87" y="127.5" >ip6_input</text>
</g>
<g >
<title>iflib_if_transmit (371 samples, 1.41%)</title><rect x="1172.6" y="149" width="16.6" height="15.0" fill="rgb(219,38,26)" rx="2" ry="2" />
<text  x="1175.59" y="159.5" ></text>
</g>
<g >
<title>m_free (45 samples, 0.17%)</title><rect x="66.3" y="37" width="2.0" height="15.0" fill="rgb(223,23,25)" rx="2" ry="2" />
<text  x="69.30" y="47.5" ></text>
</g>
<g >
<title>pmc_hook_handler (42 samples, 0.16%)</title><rect x="1170.7" y="213" width="1.9" height="15.0" fill="rgb(233,147,1)" rx="2" ry="2" />
<text  x="1173.71" y="223.5" ></text>
</g>
<g >
<title>lradix6_lookup (327 samples, 1.24%)</title><rect x="798.5" y="53" width="14.7" height="15.0" fill="rgb(239,27,43)" rx="2" ry="2" />
<text  x="801.52" y="63.5" ></text>
</g>
<g >
<title>ether_demux (1,088 samples, 4.13%)</title><rect x="17.6" y="197" width="48.7" height="15.0" fill="rgb(232,169,51)" rx="2" ry="2" />
<text  x="20.61" y="207.5" >ethe..</text>
</g>
<g >
<title>if_getafdata (42 samples, 0.16%)</title><rect x="171.4" y="101" width="1.9" height="15.0" fill="rgb(226,113,10)" rx="2" ry="2" />
<text  x="174.37" y="111.5" ></text>
</g>
<g >
<title>iflib_txd_db_check (260 samples, 0.99%)</title><rect x="1157.5" y="53" width="11.6" height="15.0" fill="rgb(246,106,5)" rx="2" ry="2" />
<text  x="1160.47" y="63.5" ></text>
</g>
<g >
<title>if_getdrvflags (39 samples, 0.15%)</title><rect x="17.6" y="37" width="1.8" height="15.0" fill="rgb(246,14,26)" rx="2" ry="2" />
<text  x="20.61" y="47.5" ></text>
</g>
<g >
<title>ifmp_ring_enqueue (370 samples, 1.40%)</title><rect x="66.3" y="117" width="16.6" height="15.0" fill="rgb(211,7,21)" rx="2" ry="2" />
<text  x="69.30" y="127.5" ></text>
</g>
<g >
<title>ip6_tryforward (1,088 samples, 4.13%)</title><rect x="17.6" y="149" width="48.7" height="15.0" fill="rgb(219,25,52)" rx="2" ry="2" />
<text  x="20.61" y="159.5" >ip6_..</text>
</g>
<g >
<title>vm_page_alloc_noobj_domain (18 samples, 0.07%)</title><rect x="1189.2" y="261" width="0.8" height="15.0" fill="rgb(222,215,12)" rx="2" ry="2" />
<text  x="1192.19" y="271.5" ></text>
</g>
<g >
<title>gtaskqueue_run_locked (17,017 samples, 64.54%)</title><rect x="84.3" y="245" width="761.5" height="15.0" fill="rgb(230,174,19)" rx="2" ry="2" />
<text  x="87.29" y="255.5" >gtaskqueue_run_locked</text>
</g>
<g >
<title>grouptaskqueue_enqueue (12 samples, 0.05%)</title><rect x="1170.2" y="229" width="0.5" height="15.0" fill="rgb(231,136,11)" rx="2" ry="2" />
<text  x="1173.18" y="239.5" ></text>
</g>
<g >
<title>ether_nh_input (2,420 samples, 9.18%)</title><rect x="877.6" y="181" width="108.3" height="15.0" fill="rgb(210,3,21)" rx="2" ry="2" />
<text  x="880.64" y="191.5" >ether_nh_input</text>
</g>
<g >
<title>iflib_if_transmit (1,088 samples, 4.13%)</title><rect x="17.6" y="101" width="48.7" height="15.0" fill="rgb(254,11,23)" rx="2" ry="2" />
<text  x="20.61" y="111.5" >ifli..</text>
</g>
<g >
<title>ifmp_ring_enqueue (371 samples, 1.41%)</title><rect x="1172.6" y="133" width="16.6" height="15.0" fill="rgb(229,190,44)" rx="2" ry="2" />
<text  x="1175.59" y="143.5" ></text>
</g>
<g >
<title>m_free (371 samples, 1.41%)</title><rect x="1172.6" y="53" width="16.6" height="15.0" fill="rgb(249,102,49)" rx="2" ry="2" />
<text  x="1175.59" y="63.5" ></text>
</g>
<g >
<title>iflib_if_transmit (370 samples, 1.40%)</title><rect x="66.3" y="133" width="16.6" height="15.0" fill="rgb(238,58,35)" rx="2" ry="2" />
<text  x="69.30" y="143.5" ></text>
</g>
<g >
<title>ether_output (370 samples, 1.40%)</title><rect x="66.3" y="165" width="16.6" height="15.0" fill="rgb(245,173,7)" rx="2" ry="2" />
<text  x="69.30" y="175.5" ></text>
</g>
<g >
<title>rn_match (327 samples, 1.24%)</title><rect x="798.5" y="37" width="14.7" height="15.0" fill="rgb(253,108,48)" rx="2" ry="2" />
<text  x="801.52" y="47.5" ></text>
</g>
<g >
<title>ether_nh_input (370 samples, 1.40%)</title><rect x="66.3" y="245" width="16.6" height="15.0" fill="rgb(221,155,2)" rx="2" ry="2" />
<text  x="69.30" y="255.5" ></text>
</g>
<g >
<title>sleepq_lock (24 samples, 0.09%)</title><rect x="844.7" y="213" width="1.1" height="15.0" fill="rgb(254,191,5)" rx="2" ry="2" />
<text  x="847.74" y="223.5" ></text>
</g>
<g >
<title>ether_output_frame (428 samples, 1.62%)</title><rect x="398.2" y="69" width="19.1" height="15.0" fill="rgb(214,115,2)" rx="2" ry="2" />
<text  x="401.17" y="79.5" ></text>
</g>
<g >
<title>rxd_frag_to_sd (249 samples, 0.94%)</title><rect x="833.0" y="197" width="11.2" height="15.0" fill="rgb(210,29,11)" rx="2" ry="2" />
<text  x="836.02" y="207.5" ></text>
</g>
<g >
<title>memmove_erms (19 samples, 0.07%)</title><rect x="446.1" y="53" width="0.9" height="15.0" fill="rgb(254,176,23)" rx="2" ry="2" />
<text  x="449.10" y="63.5" ></text>
</g>
<g >
<title>netisr_dispatch_src (710 samples, 2.69%)</title><rect x="845.9" y="165" width="31.7" height="15.0" fill="rgb(210,218,32)" rx="2" ry="2" />
<text  x="848.86" y="175.5" >ne..</text>
</g>
<g >
<title>memcpy_erms (28 samples, 0.11%)</title><rect x="831.8" y="197" width="1.2" height="15.0" fill="rgb(216,3,28)" rx="2" ry="2" />
<text  x="834.77" y="207.5" ></text>
</g>
<g >
<title>ether_input (370 samples, 1.40%)</title><rect x="66.3" y="277" width="16.6" height="15.0" fill="rgb(252,84,10)" rx="2" ry="2" />
<text  x="69.30" y="287.5" ></text>
</g>
<g >
<title>memcpy_erms (529 samples, 2.01%)</title><rect x="417.3" y="69" width="23.7" height="15.0" fill="rgb(244,45,39)" rx="2" ry="2" />
<text  x="420.33" y="79.5" >m..</text>
</g>
<g >
<title>iflib_completed_tx_reclaim (32 samples, 0.12%)</title><rect x="82.9" y="101" width="1.4" height="15.0" fill="rgb(221,201,45)" rx="2" ry="2" />
<text  x="85.85" y="111.5" ></text>
</g>
<g >
<title>ether_input (1,088 samples, 4.13%)</title><rect x="17.6" y="245" width="48.7" height="15.0" fill="rgb(208,149,44)" rx="2" ry="2" />
<text  x="20.61" y="255.5" >ethe..</text>
</g>
<g >
<title>ether_output_frame (371 samples, 1.41%)</title><rect x="1172.6" y="165" width="16.6" height="15.0" fill="rgb(206,42,9)" rx="2" ry="2" />
<text  x="1175.59" y="175.5" ></text>
</g>
<g >
<title>uma_zfree_arg (32 samples, 0.12%)</title><rect x="82.9" y="53" width="1.4" height="15.0" fill="rgb(236,203,50)" rx="2" ry="2" />
<text  x="85.85" y="63.5" ></text>
</g>
<g >
<title>iflib_if_transmit (710 samples, 2.69%)</title><rect x="845.9" y="85" width="31.7" height="15.0" fill="rgb(205,137,6)" rx="2" ry="2" />
<text  x="848.86" y="95.5" >if..</text>
</g>
<g >
<title>iflib_txq_drain (32 samples, 0.12%)</title><rect x="82.9" y="117" width="1.4" height="15.0" fill="rgb(212,178,34)" rx="2" ry="2" />
<text  x="85.85" y="127.5" ></text>
</g>
<g >
<title>iflib_fast_intr_rxtx (12 samples, 0.05%)</title><rect x="1170.2" y="245" width="0.5" height="15.0" fill="rgb(206,195,1)" rx="2" ry="2" />
<text  x="1173.18" y="255.5" ></text>
</g>
<g >
<title>ifmp_ring_enqueue (2,420 samples, 9.18%)</title><rect x="877.6" y="53" width="108.3" height="15.0" fill="rgb(235,78,10)" rx="2" ry="2" />
<text  x="880.64" y="63.5" >ifmp_ring_enq..</text>
</g>
<g >
<title>iflib_completed_tx_reclaim (325 samples, 1.23%)</title><rect x="24.1" y="37" width="14.5" height="15.0" fill="rgb(206,155,22)" rx="2" ry="2" />
<text  x="27.05" y="47.5" ></text>
</g>
<g >
<title>ether_nh_input (371 samples, 1.41%)</title><rect x="1172.6" y="261" width="16.6" height="15.0" fill="rgb(250,44,45)" rx="2" ry="2" />
<text  x="1175.59" y="271.5" ></text>
</g>
<g >
<title>wakeup_any (302 samples, 1.15%)</title><rect x="112.3" y="197" width="13.5" height="15.0" fill="rgb(238,174,45)" rx="2" ry="2" />
<text  x="115.30" y="207.5" ></text>
</g>
<g >
<title>ip6_input (370 samples, 1.40%)</title><rect x="66.3" y="197" width="16.6" height="15.0" fill="rgb(244,117,49)" rx="2" ry="2" />
<text  x="69.30" y="207.5" ></text>
</g>
<g >
<title>ip6_input (371 samples, 1.41%)</title><rect x="1172.6" y="213" width="16.6" height="15.0" fill="rgb(229,85,8)" rx="2" ry="2" />
<text  x="1175.59" y="223.5" ></text>
</g>
<g >
<title>ether_output_frame (1,088 samples, 4.13%)</title><rect x="17.6" y="117" width="48.7" height="15.0" fill="rgb(254,209,51)" rx="2" ry="2" />
<text  x="20.61" y="127.5" >ethe..</text>
</g>
<g >
<title>drain_ring_lockless (710 samples, 2.69%)</title><rect x="845.9" y="53" width="31.7" height="15.0" fill="rgb(222,161,28)" rx="2" ry="2" />
<text  x="848.86" y="63.5" >dr..</text>
</g>
<g >
<title>ether_output_frame (4,093 samples, 15.52%)</title><rect x="985.9" y="133" width="183.2" height="15.0" fill="rgb(206,52,7)" rx="2" ry="2" />
<text  x="988.93" y="143.5" >ether_output_frame</text>
</g>
<g >
<title>drain_ring_lockless (370 samples, 1.40%)</title><rect x="66.3" y="101" width="16.6" height="15.0" fill="rgb(234,164,3)" rx="2" ry="2" />
<text  x="69.30" y="111.5" ></text>
</g>
<g >
<title>_task_fn_rx (710 samples, 2.69%)</title><rect x="845.9" y="261" width="31.7" height="15.0" fill="rgb(229,38,21)" rx="2" ry="2" />
<text  x="848.86" y="271.5" >_t..</text>
</g>
<g >
<title>drain_ring_lockless (2,420 samples, 9.18%)</title><rect x="877.6" y="37" width="108.3" height="15.0" fill="rgb(217,89,29)" rx="2" ry="2" />
<text  x="880.64" y="47.5" >drain_ring_lo..</text>
</g>
<g >
<title>ifmp_ring_enqueue (32 samples, 0.12%)</title><rect x="82.9" y="149" width="1.4" height="15.0" fill="rgb(224,196,21)" rx="2" ry="2" />
<text  x="85.85" y="159.5" ></text>
</g>
<g >
<title>netisr_dispatch_src (371 samples, 1.41%)</title><rect x="1172.6" y="277" width="16.6" height="15.0" fill="rgb(218,165,19)" rx="2" ry="2" />
<text  x="1175.59" y="287.5" ></text>
</g>
<g >
<title>iflib_txd_db_check (276 samples, 1.05%)</title><rect x="53.9" y="37" width="12.4" height="15.0" fill="rgb(214,53,38)" rx="2" ry="2" />
<text  x="56.95" y="47.5" ></text>
</g>
<g >
<title>mb_ctor_mbuf (28 samples, 0.11%)</title><rect x="819.9" y="165" width="1.2" height="15.0" fill="rgb(230,81,20)" rx="2" ry="2" />
<text  x="822.86" y="175.5" ></text>
</g>
<g >
<title>ip6_tryforward (371 samples, 1.41%)</title><rect x="1172.6" y="197" width="16.6" height="15.0" fill="rgb(222,89,14)" rx="2" ry="2" />
<text  x="1175.59" y="207.5" ></text>
</g>
<g >
<title>ip6_tryforward (14,299 samples, 54.23%)</title><rect x="173.3" y="101" width="639.9" height="15.0" fill="rgb(218,124,34)" rx="2" ry="2" />
<text  x="176.25" y="111.5" >ip6_tryforward</text>
</g>
<g >
<title>_task_fn_rx (16,875 samples, 64.00%)</title><rect x="89.0" y="229" width="755.2" height="15.0" fill="rgb(213,75,3)" rx="2" ry="2" />
<text  x="91.99" y="239.5" >_task_fn_rx</text>
</g>
<g >
<title>ether_demux (4,093 samples, 15.52%)</title><rect x="985.9" y="213" width="183.2" height="15.0" fill="rgb(205,83,32)" rx="2" ry="2" />
<text  x="988.93" y="223.5" >ether_demux</text>
</g>
<g >
<title>ip6_findroute (5,208 samples, 19.75%)</title><rect x="580.1" y="85" width="233.1" height="15.0" fill="rgb(208,38,35)" rx="2" ry="2" />
<text  x="583.09" y="95.5" >ip6_findroute</text>
</g>
<g >
<title>m_pkthdr_init (73 samples, 0.28%)</title><rect x="828.5" y="197" width="3.3" height="15.0" fill="rgb(246,25,18)" rx="2" ry="2" />
<text  x="831.50" y="207.5" ></text>
</g>
<g >
<title>spinlock_exit (4 samples, 0.02%)</title><rect x="1170.5" y="213" width="0.2" height="15.0" fill="rgb(236,143,17)" rx="2" ry="2" />
<text  x="1173.49" y="223.5" ></text>
</g>
<g >
<title>ether_output_frame (370 samples, 1.40%)</title><rect x="66.3" y="149" width="16.6" height="15.0" fill="rgb(248,31,9)" rx="2" ry="2" />
<text  x="69.30" y="159.5" ></text>
</g>
<g >
<title>ip6_input (1,088 samples, 4.13%)</title><rect x="17.6" y="165" width="48.7" height="15.0" fill="rgb(212,106,23)" rx="2" ry="2" />
<text  x="20.61" y="175.5" >ip6_..</text>
</g>
</g>
</svg>
