<?xml version="1.0" standalone="no"?>
<!DOCTYPE svg PUBLIC "-//W3C//DTD SVG 1.1//EN" "http://www.w3.org/Graphics/SVG/1.1/DTD/svg11.dtd">
<svg version="1.1" width="1200" height="342" onload="init(evt)" viewBox="0 0 1200 342" xmlns="http://www.w3.org/2000/svg" xmlns:xlink="http://www.w3.org/1999/xlink">
<!-- Flame graph stack visualization. See https://github.com/brendangregg/FlameGraph for latest version, and http://www.brendangregg.com/flamegraphs.html for examples. -->
<!-- NOTES:  -->
<defs>
	<linearGradient id="background" y1="0" y2="1" x1="0" x2="0" >
		<stop stop-color="#eeeeee" offset="5%" />
		<stop stop-color="#eeeeb0" offset="95%" />
	</linearGradient>
</defs>
<style type="text/css">
	text { font-family:Verdana; font-size:12px; fill:rgb(0,0,0); }
	#search, #ignorecase { opacity:0.1; cursor:pointer; }
	#search:hover, #search.show, #ignorecase:hover, #ignorecase.show { opacity:1; }
	#subtitle { text-anchor:middle; font-color:rgb(160,160,160); }
	#title { text-anchor:middle; font-size:17px}
	#unzoom { cursor:pointer; }
	#frames > *:hover { stroke:black; stroke-width:0.5; cursor:pointer; }
	.hide { display:none; }
	.parent { opacity:0.5; }
</style>
<script type="text/ecmascript">
<![CDATA[
	"use strict";
	var details, searchbtn, unzoombtn, matchedtxt, svg, searching, currentSearchTerm, ignorecase, ignorecaseBtn;
	function init(evt) {
		details = document.getElementById("details").firstChild;
		searchbtn = document.getElementById("search");
		ignorecaseBtn = document.getElementById("ignorecase");
		unzoombtn = document.getElementById("unzoom");
		matchedtxt = document.getElementById("matched");
		svg = document.getElementsByTagName("svg")[0];
		searching = 0;
		currentSearchTerm = null;

		// use GET parameters to restore a flamegraphs state.
		var params = get_params();
		if (params.x && params.y)
			zoom(find_group(document.querySelector('[x="' + params.x + '"][y="' + params.y + '"]')));
                if (params.s) search(params.s);
	}

	// event listeners
	window.addEventListener("click", function(e) {
		var target = find_group(e.target);
		if (target) {
			if (target.nodeName == "a") {
				if (e.ctrlKey === false) return;
				e.preventDefault();
			}
			if (target.classList.contains("parent")) unzoom();
			zoom(target);
			if (!document.querySelector('.parent')) {
				clearzoom();
				return;
			}

			// set parameters for zoom state
			var el = target.querySelector("rect");
			if (el && el.attributes && el.attributes.y && el.attributes._orig_x) {
				var params = get_params()
				params.x = el.attributes._orig_x.value;
				params.y = el.attributes.y.value;
				history.replaceState(null, null, parse_params(params));
			}
		}
		else if (e.target.id == "unzoom") clearzoom();
		else if (e.target.id == "search") search_prompt();
		else if (e.target.id == "ignorecase") toggle_ignorecase();
	}, false)

	// mouse-over for info
	// show
	window.addEventListener("mouseover", function(e) {
		var target = find_group(e.target);
		if (target) details.nodeValue = "Function: " + g_to_text(target);
	}, false)

	// clear
	window.addEventListener("mouseout", function(e) {
		var target = find_group(e.target);
		if (target) details.nodeValue = ' ';
	}, false)

	// ctrl-F for search
	// ctrl-I to toggle case-sensitive search
	window.addEventListener("keydown",function (e) {
		if (e.keyCode === 114 || (e.ctrlKey && e.keyCode === 70)) {
			e.preventDefault();
			search_prompt();
		}
		else if (e.ctrlKey && e.keyCode === 73) {
			e.preventDefault();
			toggle_ignorecase();
		}
	}, false)

	// functions
	function get_params() {
		var params = {};
		var paramsarr = window.location.search.substr(1).split('&');
		for (var i = 0; i < paramsarr.length; ++i) {
			var tmp = paramsarr[i].split("=");
			if (!tmp[0] || !tmp[1]) continue;
			params[tmp[0]]  = decodeURIComponent(tmp[1]);
		}
		return params;
	}
	function parse_params(params) {
		var uri = "?";
		for (var key in params) {
			uri += key + '=' + encodeURIComponent(params[key]) + '&';
		}
		if (uri.slice(-1) == "&")
			uri = uri.substring(0, uri.length - 1);
		if (uri == '?')
			uri = window.location.href.split('?')[0];
		return uri;
	}
	function find_child(node, selector) {
		var children = node.querySelectorAll(selector);
		if (children.length) return children[0];
	}
	function find_group(node) {
		var parent = node.parentElement;
		if (!parent) return;
		if (parent.id == "frames") return node;
		return find_group(parent);
	}
	function orig_save(e, attr, val) {
		if (e.attributes["_orig_" + attr] != undefined) return;
		if (e.attributes[attr] == undefined) return;
		if (val == undefined) val = e.attributes[attr].value;
		e.setAttribute("_orig_" + attr, val);
	}
	function orig_load(e, attr) {
		if (e.attributes["_orig_"+attr] == undefined) return;
		e.attributes[attr].value = e.attributes["_orig_" + attr].value;
		e.removeAttribute("_orig_"+attr);
	}
	function g_to_text(e) {
		var text = find_child(e, "title").firstChild.nodeValue;
		return (text)
	}
	function g_to_func(e) {
		var func = g_to_text(e);
		// if there's any manipulation we want to do to the function
		// name before it's searched, do it here before returning.
		return (func);
	}
	function update_text(e) {
		var r = find_child(e, "rect");
		var t = find_child(e, "text");
		var w = parseFloat(r.attributes.width.value) -3;
		var txt = find_child(e, "title").textContent.replace(/\([^(]*\)$/,"");
		t.attributes.x.value = parseFloat(r.attributes.x.value) + 3;

		// Smaller than this size won't fit anything
		if (w < 2 * 12 * 0.59) {
			t.textContent = "";
			return;
		}

		t.textContent = txt;
		// Fit in full text width
		if (/^ *$/.test(txt) || t.getSubStringLength(0, txt.length) < w)
			return;

		for (var x = txt.length - 2; x > 0; x--) {
			if (t.getSubStringLength(0, x + 2) <= w) {
				t.textContent = txt.substring(0, x) + "..";
				return;
			}
		}
		t.textContent = "";
	}

	// zoom
	function zoom_reset(e) {
		if (e.attributes != undefined) {
			orig_load(e, "x");
			orig_load(e, "width");
		}
		if (e.childNodes == undefined) return;
		for (var i = 0, c = e.childNodes; i < c.length; i++) {
			zoom_reset(c[i]);
		}
	}
	function zoom_child(e, x, ratio) {
		if (e.attributes != undefined) {
			if (e.attributes.x != undefined) {
				orig_save(e, "x");
				e.attributes.x.value = (parseFloat(e.attributes.x.value) - x - 10) * ratio + 10;
				if (e.tagName == "text")
					e.attributes.x.value = find_child(e.parentNode, "rect[x]").attributes.x.value + 3;
			}
			if (e.attributes.width != undefined) {
				orig_save(e, "width");
				e.attributes.width.value = parseFloat(e.attributes.width.value) * ratio;
			}
		}

		if (e.childNodes == undefined) return;
		for (var i = 0, c = e.childNodes; i < c.length; i++) {
			zoom_child(c[i], x - 10, ratio);
		}
	}
	function zoom_parent(e) {
		if (e.attributes) {
			if (e.attributes.x != undefined) {
				orig_save(e, "x");
				e.attributes.x.value = 10;
			}
			if (e.attributes.width != undefined) {
				orig_save(e, "width");
				e.attributes.width.value = parseInt(svg.width.baseVal.value) - (10 * 2);
			}
		}
		if (e.childNodes == undefined) return;
		for (var i = 0, c = e.childNodes; i < c.length; i++) {
			zoom_parent(c[i]);
		}
	}
	function zoom(node) {
		var attr = find_child(node, "rect").attributes;
		var width = parseFloat(attr.width.value);
		var xmin = parseFloat(attr.x.value);
		var xmax = parseFloat(xmin + width);
		var ymin = parseFloat(attr.y.value);
		var ratio = (svg.width.baseVal.value - 2 * 10) / width;

		// XXX: Workaround for JavaScript float issues (fix me)
		var fudge = 0.0001;

		unzoombtn.classList.remove("hide");

		var el = document.getElementById("frames").children;
		for (var i = 0; i < el.length; i++) {
			var e = el[i];
			var a = find_child(e, "rect").attributes;
			var ex = parseFloat(a.x.value);
			var ew = parseFloat(a.width.value);
			var upstack;
			// Is it an ancestor
			if (0 == 0) {
				upstack = parseFloat(a.y.value) > ymin;
			} else {
				upstack = parseFloat(a.y.value) < ymin;
			}
			if (upstack) {
				// Direct ancestor
				if (ex <= xmin && (ex+ew+fudge) >= xmax) {
					e.classList.add("parent");
					zoom_parent(e);
					update_text(e);
				}
				// not in current path
				else
					e.classList.add("hide");
			}
			// Children maybe
			else {
				// no common path
				if (ex < xmin || ex + fudge >= xmax) {
					e.classList.add("hide");
				}
				else {
					zoom_child(e, xmin, ratio);
					update_text(e);
				}
			}
		}
		search();
	}
	function unzoom() {
		unzoombtn.classList.add("hide");
		var el = document.getElementById("frames").children;
		for(var i = 0; i < el.length; i++) {
			el[i].classList.remove("parent");
			el[i].classList.remove("hide");
			zoom_reset(el[i]);
			update_text(el[i]);
		}
		search();
	}
	function clearzoom() {
		unzoom();

		// remove zoom state
		var params = get_params();
		if (params.x) delete params.x;
		if (params.y) delete params.y;
		history.replaceState(null, null, parse_params(params));
	}

	// search
	function toggle_ignorecase() {
		ignorecase = !ignorecase;
		if (ignorecase) {
			ignorecaseBtn.classList.add("show");
		} else {
			ignorecaseBtn.classList.remove("show");
		}
		reset_search();
		search();
	}
	function reset_search() {
		var el = document.querySelectorAll("#frames rect");
		for (var i = 0; i < el.length; i++) {
			orig_load(el[i], "fill")
		}
		var params = get_params();
		delete params.s;
		history.replaceState(null, null, parse_params(params));
	}
	function search_prompt() {
		if (!searching) {
			var term = prompt("Enter a search term (regexp " +
			    "allowed, eg: ^ext4_)"
			    + (ignorecase ? ", ignoring case" : "")
			    + "\nPress Ctrl-i to toggle case sensitivity", "");
			if (term != null) search(term);
		} else {
			reset_search();
			searching = 0;
			currentSearchTerm = null;
			searchbtn.classList.remove("show");
			searchbtn.firstChild.nodeValue = "Search"
			matchedtxt.classList.add("hide");
			matchedtxt.firstChild.nodeValue = ""
		}
	}
	function search(term) {
		if (term) currentSearchTerm = term;

		var re = new RegExp(currentSearchTerm, ignorecase ? 'i' : '');
		var el = document.getElementById("frames").children;
		var matches = new Object();
		var maxwidth = 0;
		for (var i = 0; i < el.length; i++) {
			var e = el[i];
			var func = g_to_func(e);
			var rect = find_child(e, "rect");
			if (func == null || rect == null)
				continue;

			// Save max width. Only works as we have a root frame
			var w = parseFloat(rect.attributes.width.value);
			if (w > maxwidth)
				maxwidth = w;

			if (func.match(re)) {
				// highlight
				var x = parseFloat(rect.attributes.x.value);
				orig_save(rect, "fill");
				rect.attributes.fill.value = "rgb(230,0,230)";

				// remember matches
				if (matches[x] == undefined) {
					matches[x] = w;
				} else {
					if (w > matches[x]) {
						// overwrite with parent
						matches[x] = w;
					}
				}
				searching = 1;
			}
		}
		if (!searching)
			return;
		var params = get_params();
		params.s = currentSearchTerm;
		history.replaceState(null, null, parse_params(params));

		searchbtn.classList.add("show");
		searchbtn.firstChild.nodeValue = "Reset Search";

		// calculate percent matched, excluding vertical overlap
		var count = 0;
		var lastx = -1;
		var lastw = 0;
		var keys = Array();
		for (k in matches) {
			if (matches.hasOwnProperty(k))
				keys.push(k);
		}
		// sort the matched frames by their x location
		// ascending, then width descending
		keys.sort(function(a, b){
			return a - b;
		});
		// Step through frames saving only the biggest bottom-up frames
		// thanks to the sort order. This relies on the tree property
		// where children are always smaller than their parents.
		var fudge = 0.0001;	// JavaScript floating point
		for (var k in keys) {
			var x = parseFloat(keys[k]);
			var w = matches[keys[k]];
			if (x >= lastx + lastw - fudge) {
				count += w;
				lastx = x;
				lastw = w;
			}
		}
		// display matched percent
		matchedtxt.classList.remove("hide");
		var pct = 100 * count / maxwidth;
		if (pct != 100) pct = pct.toFixed(1)
		matchedtxt.firstChild.nodeValue = "Matched: " + pct + "%";
	}
]]>
</script>
<rect x="0.0" y="0" width="1200.0" height="342.0" fill="url(#background)"  />
<text id="title" x="600.00" y="24" >Flame Graph</text>
<text id="details" x="10.00" y="325" > </text>
<text id="unzoom" x="10.00" y="24" class="hide">Reset Zoom</text>
<text id="search" x="1090.00" y="24" >Search</text>
<text id="ignorecase" x="1174.00" y="24" >ic</text>
<text id="matched" x="1090.00" y="325" > </text>
<g id="frames">
<g >
<title>bounce_bus_dmamap_load_buffer (365 samples, 1.53%)</title><rect x="70.8" y="37" width="18.1" height="15.0" fill="rgb(241,139,52)" rx="2" ry="2" />
<text  x="73.79" y="47.5" ></text>
</g>
<g >
<title>uma_zfree_arg (224 samples, 0.94%)</title><rect x="1178.9" y="37" width="11.1" height="15.0" fill="rgb(239,70,26)" rx="2" ry="2" />
<text  x="1181.89" y="47.5" ></text>
</g>
<g >
<title>ip_input (224 samples, 0.94%)</title><rect x="1178.9" y="213" width="11.1" height="15.0" fill="rgb(223,219,47)" rx="2" ry="2" />
<text  x="1181.89" y="223.5" ></text>
</g>
<g >
<title>ether_output (2,111 samples, 8.87%)</title><rect x="849.3" y="101" width="104.7" height="15.0" fill="rgb(220,157,54)" rx="2" ry="2" />
<text  x="852.34" y="111.5" >ether_output</text>
</g>
<g >
<title>ifmp_ring_enqueue (3,248 samples, 13.65%)</title><rect x="1017.6" y="101" width="161.1" height="15.0" fill="rgb(233,183,42)" rx="2" ry="2" />
<text  x="1020.64" y="111.5" >ifmp_ring_enqueue</text>
</g>
<g >
<title>pf_check_in (9,840 samples, 41.35%)</title><rect x="271.4" y="69" width="487.9" height="15.0" fill="rgb(223,185,52)" rx="2" ry="2" />
<text  x="274.37" y="79.5" >pf_check_in</text>
</g>
<g >
<title>pf_test_rule (263 samples, 1.11%)</title><rect x="746.3" y="37" width="13.0" height="15.0" fill="rgb(243,184,3)" rx="2" ry="2" />
<text  x="749.25" y="47.5" ></text>
</g>
<g >
<title>ifmp_ring_enqueue (1,226 samples, 5.15%)</title><rect x="10.0" y="85" width="60.8" height="15.0" fill="rgb(239,81,33)" rx="2" ry="2" />
<text  x="13.00" y="95.5" >ifmp_r..</text>
</g>
<g >
<title>_task_fn_rx (3,394 samples, 14.26%)</title><rect x="849.3" y="245" width="168.3" height="15.0" fill="rgb(208,74,2)" rx="2" ry="2" />
<text  x="852.34" y="255.5" >_task_fn_rx</text>
</g>
<g >
<title>grouptaskqueue_enqueue (405 samples, 1.70%)</title><rect x="93.3" y="213" width="20.1" height="15.0" fill="rgb(244,90,32)" rx="2" ry="2" />
<text  x="96.30" y="223.5" ></text>
</g>
<g >
<title>murmur3_32_hash32 (8 samples, 0.03%)</title><rect x="979.3" y="37" width="0.4" height="15.0" fill="rgb(250,106,53)" rx="2" ry="2" />
<text  x="982.31" y="47.5" ></text>
</g>
<g >
<title>drain_ring_lockless (224 samples, 0.94%)</title><rect x="1178.9" y="117" width="11.1" height="15.0" fill="rgb(238,129,50)" rx="2" ry="2" />
<text  x="1181.89" y="127.5" ></text>
</g>
<g >
<title>netisr_dispatch_src (224 samples, 0.94%)</title><rect x="1178.9" y="229" width="11.1" height="15.0" fill="rgb(216,106,0)" rx="2" ry="2" />
<text  x="1181.89" y="239.5" ></text>
</g>
<g >
<title>_rm_rlock (5,129 samples, 21.55%)</title><rect x="385.4" y="37" width="254.3" height="15.0" fill="rgb(218,3,17)" rx="2" ry="2" />
<text  x="388.37" y="47.5" >_rm_rlock</text>
</g>
<g >
<title>sleepq_lock (405 samples, 1.70%)</title><rect x="93.3" y="181" width="20.1" height="15.0" fill="rgb(209,55,16)" rx="2" ry="2" />
<text  x="96.30" y="191.5" ></text>
</g>
<g >
<title>iflib_if_transmit (3,248 samples, 13.65%)</title><rect x="1017.6" y="117" width="161.1" height="15.0" fill="rgb(230,90,1)" rx="2" ry="2" />
<text  x="1020.64" y="127.5" >iflib_if_transmit</text>
</g>
<g >
<title>pf_match_rule (131 samples, 0.55%)</title><rect x="1003.3" y="37" width="6.5" height="15.0" fill="rgb(247,32,44)" rx="2" ry="2" />
<text  x="1006.31" y="47.5" ></text>
</g>
<g >
<title>pf_find_state (109 samples, 0.46%)</title><rect x="979.7" y="37" width="5.4" height="15.0" fill="rgb(232,109,10)" rx="2" ry="2" />
<text  x="982.71" y="47.5" ></text>
</g>
<g >
<title>pfil_mbuf_in (446 samples, 1.87%)</title><rect x="827.2" y="117" width="22.1" height="15.0" fill="rgb(205,106,41)" rx="2" ry="2" />
<text  x="830.23" y="127.5" >p..</text>
</g>
<g >
<title>uma_zfree_arg (21 samples, 0.09%)</title><rect x="1009.8" y="37" width="1.0" height="15.0" fill="rgb(251,10,10)" rx="2" ry="2" />
<text  x="1012.80" y="47.5" ></text>
</g>
<g >
<title>ether_output (852 samples, 3.58%)</title><rect x="153.4" y="85" width="42.3" height="15.0" fill="rgb(239,120,27)" rx="2" ry="2" />
<text  x="156.40" y="95.5" >eth..</text>
</g>
<g >
<title>murmur3_32_hash32 (370 samples, 1.55%)</title><rect x="831.0" y="37" width="18.3" height="15.0" fill="rgb(234,133,47)" rx="2" ry="2" />
<text  x="834.00" y="47.5" ></text>
</g>
<g >
<title>pf_check_out (373 samples, 1.57%)</title><rect x="808.7" y="101" width="18.5" height="15.0" fill="rgb(233,8,28)" rx="2" ry="2" />
<text  x="811.73" y="111.5" ></text>
</g>
<g >
<title>fork_exit (14,056 samples, 59.07%)</title><rect x="93.3" y="277" width="697.0" height="15.0" fill="rgb(208,88,14)" rx="2" ry="2" />
<text  x="96.30" y="287.5" >fork_exit</text>
</g>
<g >
<title>murmur3_32_hash32 (287 samples, 1.21%)</title><rect x="813.0" y="37" width="14.2" height="15.0" fill="rgb(239,11,3)" rx="2" ry="2" />
<text  x="816.00" y="47.5" ></text>
</g>
<g >
<title>iflib_encap (446 samples, 1.87%)</title><rect x="26.4" y="37" width="22.1" height="15.0" fill="rgb(244,113,14)" rx="2" ry="2" />
<text  x="29.36" y="47.5" >i..</text>
</g>
<g >
<title>pf_check_in (446 samples, 1.87%)</title><rect x="827.2" y="101" width="22.1" height="15.0" fill="rgb(241,79,37)" rx="2" ry="2" />
<text  x="830.23" y="111.5" >p..</text>
</g>
<g >
<title>ip_input (89 samples, 0.37%)</title><rect x="88.9" y="229" width="4.4" height="15.0" fill="rgb(207,144,37)" rx="2" ry="2" />
<text  x="91.89" y="239.5" ></text>
</g>
<g >
<title>ip_tryforward (12,631 samples, 53.08%)</title><rect x="133.0" y="101" width="626.3" height="15.0" fill="rgb(234,20,17)" rx="2" ry="2" />
<text  x="135.97" y="111.5" >ip_tryforward</text>
</g>
<g >
<title>memset_erms (367 samples, 1.54%)</title><rect x="985.1" y="37" width="18.2" height="15.0" fill="rgb(246,108,51)" rx="2" ry="2" />
<text  x="988.11" y="47.5" ></text>
</g>
<g >
<title>pf_check_out (1,372 samples, 5.77%)</title><rect x="203.3" y="69" width="68.1" height="15.0" fill="rgb(232,32,14)" rx="2" ry="2" />
<text  x="206.34" y="79.5" >pf_chec..</text>
</g>
<g >
<title>pf_check_in (89 samples, 0.37%)</title><rect x="88.9" y="181" width="4.4" height="15.0" fill="rgb(219,24,26)" rx="2" ry="2" />
<text  x="91.89" y="191.5" ></text>
</g>
<g >
<title>ip_input (365 samples, 1.53%)</title><rect x="70.8" y="197" width="18.1" height="15.0" fill="rgb(228,183,48)" rx="2" ry="2" />
<text  x="73.79" y="207.5" ></text>
</g>
<g >
<title>ip_input (1,191 samples, 5.00%)</title><rect x="790.3" y="149" width="59.0" height="15.0" fill="rgb(243,17,38)" rx="2" ry="2" />
<text  x="793.29" y="159.5" >ip_input</text>
</g>
<g >
<title>ether_demux (224 samples, 0.94%)</title><rect x="1178.9" y="245" width="11.1" height="15.0" fill="rgb(205,168,12)" rx="2" ry="2" />
<text  x="1181.89" y="255.5" ></text>
</g>
<g >
<title>netisr_dispatch_src (365 samples, 1.53%)</title><rect x="70.8" y="213" width="18.1" height="15.0" fill="rgb(239,18,47)" rx="2" ry="2" />
<text  x="73.79" y="223.5" ></text>
</g>
<g >
<title>ether_output_frame (3,248 samples, 13.65%)</title><rect x="1017.6" y="133" width="161.1" height="15.0" fill="rgb(217,87,3)" rx="2" ry="2" />
<text  x="1020.64" y="143.5" >ether_output_frame</text>
</g>
<g >
<title>ether_nh_input (89 samples, 0.37%)</title><rect x="88.9" y="277" width="4.4" height="15.0" fill="rgb(233,38,29)" rx="2" ry="2" />
<text  x="91.89" y="287.5" ></text>
</g>
<g >
<title>pf_match_translation_rule (76 samples, 0.32%)</title><rect x="827.2" y="37" width="3.8" height="15.0" fill="rgb(251,197,20)" rx="2" ry="2" />
<text  x="830.23" y="47.5" ></text>
</g>
<g >
<title>ether_demux (365 samples, 1.53%)</title><rect x="70.8" y="229" width="18.1" height="15.0" fill="rgb(210,191,44)" rx="2" ry="2" />
<text  x="73.79" y="239.5" ></text>
</g>
<g >
<title>intr_execute_handlers (4 samples, 0.02%)</title><rect x="1178.7" y="277" width="0.2" height="15.0" fill="rgb(213,218,44)" rx="2" ry="2" />
<text  x="1181.69" y="287.5" ></text>
</g>
<g >
<title>netisr_dispatch_src (3,248 samples, 13.65%)</title><rect x="1017.6" y="245" width="161.1" height="15.0" fill="rgb(217,15,45)" rx="2" ry="2" />
<text  x="1020.64" y="255.5" >netisr_dispatch_src</text>
</g>
<g >
<title>iflib_rxeof (1,226 samples, 5.15%)</title><rect x="10.0" y="261" width="60.8" height="15.0" fill="rgb(226,198,52)" rx="2" ry="2" />
<text  x="13.00" y="271.5" >iflib_..</text>
</g>
<g >
<title>ip_tryforward (1,226 samples, 5.15%)</title><rect x="10.0" y="149" width="60.8" height="15.0" fill="rgb(231,173,16)" rx="2" ry="2" />
<text  x="13.00" y="159.5" >ip_try..</text>
</g>
<g >
<title>ether_input (1,191 samples, 5.00%)</title><rect x="790.3" y="229" width="59.0" height="15.0" fill="rgb(225,3,3)" rx="2" ry="2" />
<text  x="793.29" y="239.5" >ether_..</text>
</g>
<g >
<title>iflib_if_transmit (411 samples, 1.73%)</title><rect x="164.5" y="53" width="20.4" height="15.0" fill="rgb(236,111,3)" rx="2" ry="2" />
<text  x="167.51" y="63.5" ></text>
</g>
<g >
<title>iflib_txd_db_check (321 samples, 1.35%)</title><rect x="1162.8" y="53" width="15.9" height="15.0" fill="rgb(249,116,41)" rx="2" ry="2" />
<text  x="1165.78" y="63.5" ></text>
</g>
<g >
<title>drain_ring_lockless (365 samples, 1.53%)</title><rect x="70.8" y="101" width="18.1" height="15.0" fill="rgb(245,131,52)" rx="2" ry="2" />
<text  x="73.79" y="111.5" ></text>
</g>
<g >
<title>netisr_dispatch_src (12,803 samples, 53.80%)</title><rect x="124.4" y="181" width="634.9" height="15.0" fill="rgb(229,186,46)" rx="2" ry="2" />
<text  x="127.44" y="191.5" >netisr_dispatch_src</text>
</g>
<g >
<title>ether_output_frame (1,226 samples, 5.15%)</title><rect x="10.0" y="117" width="60.8" height="15.0" fill="rgb(233,192,8)" rx="2" ry="2" />
<text  x="13.00" y="127.5" >ether_..</text>
</g>
<g >
<title>pf_test_state (117 samples, 0.49%)</title><rect x="979.3" y="53" width="5.8" height="15.0" fill="rgb(238,213,5)" rx="2" ry="2" />
<text  x="982.31" y="63.5" ></text>
</g>
<g >
<title>ixl_isc_rxd_pkt_get (204 samples, 0.86%)</title><rect x="759.4" y="197" width="10.1" height="15.0" fill="rgb(235,44,20)" rx="2" ry="2" />
<text  x="762.39" y="207.5" ></text>
</g>
<g >
<title>sleepq_lock (12 samples, 0.05%)</title><rect x="789.7" y="213" width="0.6" height="15.0" fill="rgb(246,178,41)" rx="2" ry="2" />
<text  x="792.69" y="223.5" ></text>
</g>
<g >
<title>rxd_frag_to_sd (380 samples, 1.60%)</title><rect x="770.8" y="197" width="18.9" height="15.0" fill="rgb(220,43,43)" rx="2" ry="2" />
<text  x="773.85" y="207.5" ></text>
</g>
<g >
<title>ether_output_frame (2,111 samples, 8.87%)</title><rect x="849.3" y="85" width="104.7" height="15.0" fill="rgb(208,201,0)" rx="2" ry="2" />
<text  x="852.34" y="95.5" >ether_output..</text>
</g>
<g >
<title>_rm_rlock (167 samples, 0.70%)</title><rect x="231.1" y="37" width="8.2" height="15.0" fill="rgb(226,94,39)" rx="2" ry="2" />
<text  x="234.05" y="47.5" ></text>
</g>
<g >
<title>iflib_txq_drain (1,226 samples, 5.15%)</title><rect x="10.0" y="53" width="60.8" height="15.0" fill="rgb(245,226,31)" rx="2" ry="2" />
<text  x="13.00" y="63.5" >iflib_..</text>
</g>
<g >
<title>ip_tryforward (89 samples, 0.37%)</title><rect x="88.9" y="213" width="4.4" height="15.0" fill="rgb(242,18,18)" rx="2" ry="2" />
<text  x="91.89" y="223.5" ></text>
</g>
<g >
<title>in_localip (155 samples, 0.65%)</title><rect x="195.7" y="85" width="7.6" height="15.0" fill="rgb(238,155,42)" rx="2" ry="2" />
<text  x="198.65" y="95.5" ></text>
</g>
<g >
<title>netisr_dispatch_src (365 samples, 1.53%)</title><rect x="70.8" y="261" width="18.1" height="15.0" fill="rgb(218,128,46)" rx="2" ry="2" />
<text  x="73.79" y="271.5" ></text>
</g>
<g >
<title>iflib_rxeof (13,639 samples, 57.31%)</title><rect x="113.4" y="213" width="676.3" height="15.0" fill="rgb(215,112,26)" rx="2" ry="2" />
<text  x="116.39" y="223.5" >iflib_rxeof</text>
</g>
<g >
<title>ip_tryforward (1,191 samples, 5.00%)</title><rect x="790.3" y="133" width="59.0" height="15.0" fill="rgb(213,23,23)" rx="2" ry="2" />
<text  x="793.29" y="143.5" >ip_try..</text>
</g>
<g >
<title>pf_test_rule (76 samples, 0.32%)</title><rect x="827.2" y="69" width="3.8" height="15.0" fill="rgb(242,81,1)" rx="2" ry="2" />
<text  x="830.23" y="79.5" ></text>
</g>
<g >
<title>netisr_dispatch_src (3,394 samples, 14.26%)</title><rect x="849.3" y="197" width="168.3" height="15.0" fill="rgb(221,222,10)" rx="2" ry="2" />
<text  x="852.34" y="207.5" >netisr_dispatch_src</text>
</g>
<g >
<title>ether_input (12,803 samples, 53.80%)</title><rect x="124.4" y="197" width="634.9" height="15.0" fill="rgb(217,205,18)" rx="2" ry="2" />
<text  x="127.44" y="207.5" >ether_input</text>
</g>
<g >
<title>iflib_if_transmit (2,111 samples, 8.87%)</title><rect x="849.3" y="69" width="104.7" height="15.0" fill="rgb(229,220,54)" rx="2" ry="2" />
<text  x="852.34" y="79.5" >iflib_if_tra..</text>
</g>
<g >
<title>ether_input (365 samples, 1.53%)</title><rect x="70.8" y="277" width="18.1" height="15.0" fill="rgb(225,186,48)" rx="2" ry="2" />
<text  x="73.79" y="287.5" ></text>
</g>
<g >
<title>ip_input (1,226 samples, 5.15%)</title><rect x="10.0" y="165" width="60.8" height="15.0" fill="rgb(233,101,9)" rx="2" ry="2" />
<text  x="13.00" y="175.5" >ip_input</text>
</g>
<g >
<title>ifmp_ring_enqueue (411 samples, 1.73%)</title><rect x="164.5" y="37" width="20.4" height="15.0" fill="rgb(219,200,6)" rx="2" ry="2" />
<text  x="167.51" y="47.5" ></text>
</g>
<g >
<title>iflib_rxeof (3,394 samples, 14.26%)</title><rect x="849.3" y="229" width="168.3" height="15.0" fill="rgb(229,2,36)" rx="2" ry="2" />
<text  x="852.34" y="239.5" >iflib_rxeof</text>
</g>
<g >
<title>ip_input (3,248 samples, 13.65%)</title><rect x="1017.6" y="181" width="161.1" height="15.0" fill="rgb(236,51,3)" rx="2" ry="2" />
<text  x="1020.64" y="191.5" >ip_input</text>
</g>
<g >
<title>iflib_rxeof (1,191 samples, 5.00%)</title><rect x="790.3" y="245" width="59.0" height="15.0" fill="rgb(219,110,43)" rx="2" ry="2" />
<text  x="793.29" y="255.5" >iflib_..</text>
</g>
<g >
<title>ether_nh_input (1,191 samples, 5.00%)</title><rect x="790.3" y="197" width="59.0" height="15.0" fill="rgb(233,177,15)" rx="2" ry="2" />
<text  x="793.29" y="207.5" >ether_..</text>
</g>
<g >
<title>netisr_dispatch_src (224 samples, 0.94%)</title><rect x="1178.9" y="277" width="11.1" height="15.0" fill="rgb(229,24,48)" rx="2" ry="2" />
<text  x="1181.89" y="287.5" ></text>
</g>
<g >
<title>ether_nh_input (365 samples, 1.53%)</title><rect x="70.8" y="245" width="18.1" height="15.0" fill="rgb(241,171,23)" rx="2" ry="2" />
<text  x="73.79" y="255.5" ></text>
</g>
<g >
<title>ip_tryforward (3,394 samples, 14.26%)</title><rect x="849.3" y="117" width="168.3" height="15.0" fill="rgb(211,184,41)" rx="2" ry="2" />
<text  x="852.34" y="127.5" >ip_tryforward</text>
</g>
<g >
<title>ether_output_frame (365 samples, 1.53%)</title><rect x="70.8" y="149" width="18.1" height="15.0" fill="rgb(252,42,14)" rx="2" ry="2" />
<text  x="73.79" y="159.5" ></text>
</g>
<g >
<title>pf_test_rule (86 samples, 0.36%)</title><rect x="808.7" y="69" width="4.3" height="15.0" fill="rgb(215,189,34)" rx="2" ry="2" />
<text  x="811.73" y="79.5" ></text>
</g>
<g >
<title>iflib_rxeof (3,248 samples, 13.65%)</title><rect x="1017.6" y="277" width="161.1" height="15.0" fill="rgb(253,208,28)" rx="2" ry="2" />
<text  x="1020.64" y="287.5" >iflib_rxeof</text>
</g>
<g >
<title>ip_tryforward (224 samples, 0.94%)</title><rect x="1178.9" y="197" width="11.1" height="15.0" fill="rgb(213,173,45)" rx="2" ry="2" />
<text  x="1181.89" y="207.5" ></text>
</g>
<g >
<title>pf_test (627 samples, 2.63%)</title><rect x="954.0" y="69" width="31.1" height="15.0" fill="rgb(207,193,14)" rx="2" ry="2" />
<text  x="957.02" y="79.5" >pf..</text>
</g>
<g >
<title>netisr_dispatch_src (1,226 samples, 5.15%)</title><rect x="10.0" y="229" width="60.8" height="15.0" fill="rgb(230,78,41)" rx="2" ry="2" />
<text  x="13.00" y="239.5" >netisr..</text>
</g>
<g >
<title>netisr_dispatch_src (89 samples, 0.37%)</title><rect x="88.9" y="245" width="4.4" height="15.0" fill="rgb(213,106,11)" rx="2" ry="2" />
<text  x="91.89" y="255.5" ></text>
</g>
<g >
<title>pf_find_state (287 samples, 1.21%)</title><rect x="813.0" y="53" width="14.2" height="15.0" fill="rgb(219,122,53)" rx="2" ry="2" />
<text  x="816.00" y="63.5" ></text>
</g>
<g >
<title>iflib_completed_tx_reclaim (224 samples, 0.94%)</title><rect x="1178.9" y="85" width="11.1" height="15.0" fill="rgb(234,75,32)" rx="2" ry="2" />
<text  x="1181.89" y="95.5" ></text>
</g>
<g >
<title>wakeup (12 samples, 0.05%)</title><rect x="789.7" y="229" width="0.6" height="15.0" fill="rgb(207,29,2)" rx="2" ry="2" />
<text  x="792.69" y="239.5" ></text>
</g>
<g >
<title>pf_test_state (287 samples, 1.21%)</title><rect x="813.0" y="69" width="14.2" height="15.0" fill="rgb(220,144,1)" rx="2" ry="2" />
<text  x="816.00" y="79.5" ></text>
</g>
<g >
<title>ether_output_frame (411 samples, 1.73%)</title><rect x="164.5" y="69" width="20.4" height="15.0" fill="rgb(218,119,17)" rx="2" ry="2" />
<text  x="167.51" y="79.5" ></text>
</g>
<g >
<title>iflib_txd_db_check (450 samples, 1.89%)</title><rect x="48.5" y="37" width="22.3" height="15.0" fill="rgb(213,174,54)" rx="2" ry="2" />
<text  x="51.48" y="47.5" >i..</text>
</g>
<g >
<title>iflib_if_transmit (1,226 samples, 5.15%)</title><rect x="10.0" y="101" width="60.8" height="15.0" fill="rgb(249,194,40)" rx="2" ry="2" />
<text  x="13.00" y="111.5" >iflib_..</text>
</g>
<g >
<title>iflib_txq_drain (224 samples, 0.94%)</title><rect x="1178.9" y="101" width="11.1" height="15.0" fill="rgb(242,19,21)" rx="2" ry="2" />
<text  x="1181.89" y="111.5" ></text>
</g>
<g >
<title>murmur3_32_hash32 (17 samples, 0.07%)</title><rect x="1010.8" y="37" width="0.9" height="15.0" fill="rgb(236,191,15)" rx="2" ry="2" />
<text  x="1013.85" y="47.5" ></text>
</g>
<g >
<title>ether_output (365 samples, 1.53%)</title><rect x="70.8" y="165" width="18.1" height="15.0" fill="rgb(217,82,45)" rx="2" ry="2" />
<text  x="73.79" y="175.5" ></text>
</g>
<g >
<title>pf_normalize_ip (324 samples, 1.36%)</title><rect x="245.4" y="37" width="16.1" height="15.0" fill="rgb(247,136,18)" rx="2" ry="2" />
<text  x="248.39" y="47.5" ></text>
</g>
<g >
<title>gtaskqueue_run_locked (14,056 samples, 59.07%)</title><rect x="93.3" y="245" width="697.0" height="15.0" fill="rgb(224,16,22)" rx="2" ry="2" />
<text  x="96.30" y="255.5" >gtaskqueue_run_locked</text>
</g>
<g >
<title>gtaskqueue_thread_loop (14,056 samples, 59.07%)</title><rect x="93.3" y="261" width="697.0" height="15.0" fill="rgb(239,19,43)" rx="2" ry="2" />
<text  x="96.30" y="271.5" >gtaskqueue_thread_loop</text>
</g>
<g >
<title>pf_check_out (627 samples, 2.63%)</title><rect x="954.0" y="85" width="31.1" height="15.0" fill="rgb(237,63,29)" rx="2" ry="2" />
<text  x="957.02" y="95.5" >pf..</text>
</g>
<g >
<title>pf_get_translation (86 samples, 0.36%)</title><rect x="808.7" y="53" width="4.3" height="15.0" fill="rgb(209,6,35)" rx="2" ry="2" />
<text  x="811.73" y="63.5" ></text>
</g>
<g >
<title>pf_test_state (137 samples, 0.58%)</title><rect x="1010.8" y="53" width="6.8" height="15.0" fill="rgb(249,2,22)" rx="2" ry="2" />
<text  x="1013.85" y="63.5" ></text>
</g>
<g >
<title>memset_erms (1,924 samples, 8.09%)</title><rect x="639.7" y="37" width="95.4" height="15.0" fill="rgb(220,52,4)" rx="2" ry="2" />
<text  x="642.69" y="47.5" >memset_erms</text>
</g>
<g >
<title>bus_dmamap_load_mbuf_sg (365 samples, 1.53%)</title><rect x="70.8" y="53" width="18.1" height="15.0" fill="rgb(208,143,6)" rx="2" ry="2" />
<text  x="73.79" y="63.5" ></text>
</g>
<g >
<title>ether_demux (1,226 samples, 5.15%)</title><rect x="10.0" y="197" width="60.8" height="15.0" fill="rgb(228,161,5)" rx="2" ry="2" />
<text  x="13.00" y="207.5" >ether_..</text>
</g>
<g >
<title>_task_fn_rx (1,226 samples, 5.15%)</title><rect x="10.0" y="277" width="60.8" height="15.0" fill="rgb(249,66,35)" rx="2" ry="2" />
<text  x="13.00" y="287.5" >_task_..</text>
</g>
<g >
<title>ether_nh_input (12,803 samples, 53.80%)</title><rect x="124.4" y="165" width="634.9" height="15.0" fill="rgb(206,25,24)" rx="2" ry="2" />
<text  x="127.44" y="175.5" >ether_nh_input</text>
</g>
<g >
<title>pf_get_translation (76 samples, 0.32%)</title><rect x="827.2" y="53" width="3.8" height="15.0" fill="rgb(230,166,10)" rx="2" ry="2" />
<text  x="830.23" y="63.5" ></text>
</g>
<g >
<title>ixl_isc_txd_credits_update_hwb (3 samples, 0.01%)</title><rect x="1178.7" y="229" width="0.2" height="15.0" fill="rgb(250,93,9)" rx="2" ry="2" />
<text  x="1181.74" y="239.5" ></text>
</g>
<g >
<title>ether_demux (12,631 samples, 53.08%)</title><rect x="133.0" y="149" width="626.3" height="15.0" fill="rgb(224,48,38)" rx="2" ry="2" />
<text  x="135.97" y="159.5" >ether_demux</text>
</g>
<g >
<title>drain_ring_lockless (372 samples, 1.56%)</title><rect x="790.3" y="53" width="18.4" height="15.0" fill="rgb(247,81,42)" rx="2" ry="2" />
<text  x="793.29" y="63.5" ></text>
</g>
<g >
<title>iflib_completed_tx_reclaim (330 samples, 1.39%)</title><rect x="10.0" y="37" width="16.4" height="15.0" fill="rgb(239,144,44)" rx="2" ry="2" />
<text  x="13.00" y="47.5" ></text>
</g>
<g >
<title>pf_test (446 samples, 1.87%)</title><rect x="827.2" y="85" width="22.1" height="15.0" fill="rgb(250,133,28)" rx="2" ry="2" />
<text  x="830.23" y="95.5" >p..</text>
</g>
<g >
<title>pf_test_state (370 samples, 1.55%)</title><rect x="831.0" y="69" width="18.3" height="15.0" fill="rgb(235,26,3)" rx="2" ry="2" />
<text  x="834.00" y="79.5" ></text>
</g>
<g >
<title>ether_demux (1,191 samples, 5.00%)</title><rect x="790.3" y="181" width="59.0" height="15.0" fill="rgb(217,117,37)" rx="2" ry="2" />
<text  x="793.29" y="191.5" >ether_..</text>
</g>
<g >
<title>pf_find_state (370 samples, 1.55%)</title><rect x="831.0" y="53" width="18.3" height="15.0" fill="rgb(241,57,53)" rx="2" ry="2" />
<text  x="834.00" y="63.5" ></text>
</g>
<g >
<title>_task_fn_rx (14,044 samples, 59.02%)</title><rect x="93.3" y="229" width="696.4" height="15.0" fill="rgb(230,122,44)" rx="2" ry="2" />
<text  x="96.30" y="239.5" >_task_fn_rx</text>
</g>
<g >
<title>iflib_completed_tx_reclaim (160 samples, 0.67%)</title><rect x="1017.6" y="53" width="8.0" height="15.0" fill="rgb(236,109,28)" rx="2" ry="2" />
<text  x="1020.64" y="63.5" ></text>
</g>
<g >
<title>ifmp_ring_enqueue (2,111 samples, 8.87%)</title><rect x="849.3" y="53" width="104.7" height="15.0" fill="rgb(249,216,0)" rx="2" ry="2" />
<text  x="852.34" y="63.5" >ifmp_ring_en..</text>
</g>
<g >
<title>ether_input (3,394 samples, 14.26%)</title><rect x="849.3" y="213" width="168.3" height="15.0" fill="rgb(233,57,4)" rx="2" ry="2" />
<text  x="852.34" y="223.5" >ether_input</text>
</g>
<g >
<title>ifmp_ring_enqueue (365 samples, 1.53%)</title><rect x="70.8" y="117" width="18.1" height="15.0" fill="rgb(211,17,47)" rx="2" ry="2" />
<text  x="73.79" y="127.5" ></text>
</g>
<g >
<title>intr_event_handle (4 samples, 0.02%)</title><rect x="1178.7" y="261" width="0.2" height="15.0" fill="rgb(250,22,42)" rx="2" ry="2" />
<text  x="1181.69" y="271.5" ></text>
</g>
<g >
<title>ether_output_frame (372 samples, 1.56%)</title><rect x="790.3" y="101" width="18.4" height="15.0" fill="rgb(239,220,15)" rx="2" ry="2" />
<text  x="793.29" y="111.5" ></text>
</g>
<g >
<title>uma_zfree_arg (19 samples, 0.08%)</title><rect x="978.4" y="37" width="0.9" height="15.0" fill="rgb(225,220,17)" rx="2" ry="2" />
<text  x="981.37" y="47.5" ></text>
</g>
<g >
<title>m_free (224 samples, 0.94%)</title><rect x="1178.9" y="53" width="11.1" height="15.0" fill="rgb(231,45,45)" rx="2" ry="2" />
<text  x="1181.89" y="63.5" ></text>
</g>
<g >
<title>pfil_mbuf_in (656 samples, 2.76%)</title><rect x="985.1" y="101" width="32.5" height="15.0" fill="rgb(227,12,9)" rx="2" ry="2" />
<text  x="988.11" y="111.5" >pf..</text>
</g>
<g >
<title>ixl_isc_txd_flush (321 samples, 1.35%)</title><rect x="1162.8" y="37" width="15.9" height="15.0" fill="rgb(213,100,3)" rx="2" ry="2" />
<text  x="1165.78" y="47.5" ></text>
</g>
<g >
<title>gtaskqueue_run_locked (3,394 samples, 14.26%)</title><rect x="849.3" y="261" width="168.3" height="15.0" fill="rgb(207,78,35)" rx="2" ry="2" />
<text  x="852.34" y="271.5" >gtaskqueue_run_locked</text>
</g>
<g >
<title>pfil_mbuf_in (9,840 samples, 41.35%)</title><rect x="271.4" y="85" width="487.9" height="15.0" fill="rgb(211,150,25)" rx="2" ry="2" />
<text  x="274.37" y="95.5" >pfil_mbuf_in</text>
</g>
<g >
<title>iflib_fast_intr_rxtx (4 samples, 0.02%)</title><rect x="1178.7" y="245" width="0.2" height="15.0" fill="rgb(235,150,43)" rx="2" ry="2" />
<text  x="1181.69" y="255.5" ></text>
</g>
<g >
<title>pf_match_rule (120 samples, 0.50%)</title><rect x="972.4" y="37" width="6.0" height="15.0" fill="rgb(245,107,41)" rx="2" ry="2" />
<text  x="975.42" y="47.5" ></text>
</g>
<g >
<title>pf_match_translation_rule (86 samples, 0.36%)</title><rect x="808.7" y="37" width="4.3" height="15.0" fill="rgb(225,146,47)" rx="2" ry="2" />
<text  x="811.73" y="47.5" ></text>
</g>
<g >
<title>ixl_isc_txd_credits_update_hwb (160 samples, 0.67%)</title><rect x="1017.6" y="37" width="8.0" height="15.0" fill="rgb(242,24,34)" rx="2" ry="2" />
<text  x="1020.64" y="47.5" ></text>
</g>
<g >
<title>ether_nh_input (3,248 samples, 13.65%)</title><rect x="1017.6" y="229" width="161.1" height="15.0" fill="rgb(209,66,22)" rx="2" ry="2" />
<text  x="1020.64" y="239.5" >ether_nh_input</text>
</g>
<g >
<title>ip_tryforward (3,248 samples, 13.65%)</title><rect x="1017.6" y="165" width="161.1" height="15.0" fill="rgb(236,168,31)" rx="2" ry="2" />
<text  x="1020.64" y="175.5" >ip_tryforward</text>
</g>
<g >
<title>pfil_mbuf_in (89 samples, 0.37%)</title><rect x="88.9" y="197" width="4.4" height="15.0" fill="rgb(214,156,42)" rx="2" ry="2" />
<text  x="91.89" y="207.5" ></text>
</g>
<g >
<title>pf_test_rule (519 samples, 2.18%)</title><rect x="985.1" y="53" width="25.7" height="15.0" fill="rgb(216,51,50)" rx="2" ry="2" />
<text  x="988.11" y="63.5" >p..</text>
</g>
<g >
<title>m_freem (224 samples, 0.94%)</title><rect x="1178.9" y="69" width="11.1" height="15.0" fill="rgb(239,10,2)" rx="2" ry="2" />
<text  x="1181.89" y="79.5" ></text>
</g>
<g >
<title>_task_fn_rx (1,191 samples, 5.00%)</title><rect x="790.3" y="261" width="59.0" height="15.0" fill="rgb(205,135,14)" rx="2" ry="2" />
<text  x="793.29" y="271.5" >_task_..</text>
</g>
<g >
<title>pfil_mbuf_fwd (627 samples, 2.63%)</title><rect x="954.0" y="101" width="31.1" height="15.0" fill="rgb(248,154,41)" rx="2" ry="2" />
<text  x="957.02" y="111.5" >pf..</text>
</g>
<g >
<title>netisr_dispatch_src (1,226 samples, 5.15%)</title><rect x="10.0" y="181" width="60.8" height="15.0" fill="rgb(246,135,39)" rx="2" ry="2" />
<text  x="13.00" y="191.5" >netisr..</text>
</g>
<g >
<title>memcpy_erms (217 samples, 0.91%)</title><rect x="184.9" y="69" width="10.8" height="15.0" fill="rgb(206,107,43)" rx="2" ry="2" />
<text  x="187.89" y="79.5" ></text>
</g>
<g >
<title>pfil_mbuf_fwd (373 samples, 1.57%)</title><rect x="808.7" y="117" width="18.5" height="15.0" fill="rgb(233,17,13)" rx="2" ry="2" />
<text  x="811.73" y="127.5" ></text>
</g>
<g >
<title>gtaskqueue_thread_loop (3,394 samples, 14.26%)</title><rect x="849.3" y="277" width="168.3" height="15.0" fill="rgb(218,22,9)" rx="2" ry="2" />
<text  x="852.34" y="287.5" >gtaskqueue_thread_loop</text>
</g>
<g >
<title>drain_ring_lockless (2,111 samples, 8.87%)</title><rect x="849.3" y="37" width="104.7" height="15.0" fill="rgb(236,155,4)" rx="2" ry="2" />
<text  x="852.34" y="47.5" >drain_ring_l..</text>
</g>
<g >
<title>memset_erms (371 samples, 1.56%)</title><rect x="954.0" y="37" width="18.4" height="15.0" fill="rgb(222,91,52)" rx="2" ry="2" />
<text  x="957.02" y="47.5" ></text>
</g>
<g >
<title>ether_output_frame (224 samples, 0.94%)</title><rect x="1178.9" y="165" width="11.1" height="15.0" fill="rgb(211,102,18)" rx="2" ry="2" />
<text  x="1181.89" y="175.5" ></text>
</g>
<g >
<title>ip_input (12,631 samples, 53.08%)</title><rect x="133.0" y="117" width="626.3" height="15.0" fill="rgb(243,113,26)" rx="2" ry="2" />
<text  x="135.97" y="127.5" >ip_input</text>
</g>
<g >
<title>ether_output (372 samples, 1.56%)</title><rect x="790.3" y="117" width="18.4" height="15.0" fill="rgb(239,17,2)" rx="2" ry="2" />
<text  x="793.29" y="127.5" ></text>
</g>
<g >
<title>pf_check_in (656 samples, 2.76%)</title><rect x="985.1" y="85" width="32.5" height="15.0" fill="rgb(243,26,3)" rx="2" ry="2" />
<text  x="988.11" y="95.5" >pf..</text>
</g>
<g >
<title>ether_demux (89 samples, 0.37%)</title><rect x="88.9" y="261" width="4.4" height="15.0" fill="rgb(247,14,22)" rx="2" ry="2" />
<text  x="91.89" y="271.5" ></text>
</g>
<g >
<title>pf_test_rule (510 samples, 2.14%)</title><rect x="954.0" y="53" width="25.3" height="15.0" fill="rgb(249,4,42)" rx="2" ry="2" />
<text  x="957.02" y="63.5" >p..</text>
</g>
<g >
<title>ether_input (3,248 samples, 13.65%)</title><rect x="1017.6" y="261" width="161.1" height="15.0" fill="rgb(248,122,39)" rx="2" ry="2" />
<text  x="1020.64" y="271.5" >ether_input</text>
</g>
<g >
<title>ether_output (224 samples, 0.94%)</title><rect x="1178.9" y="181" width="11.1" height="15.0" fill="rgb(239,159,45)" rx="2" ry="2" />
<text  x="1181.89" y="191.5" ></text>
</g>
<g >
<title>pf_test (373 samples, 1.57%)</title><rect x="808.7" y="85" width="18.5" height="15.0" fill="rgb(214,164,47)" rx="2" ry="2" />
<text  x="811.73" y="95.5" ></text>
</g>
<g >
<title>iflib_txq_drain (365 samples, 1.53%)</title><rect x="70.8" y="85" width="18.1" height="15.0" fill="rgb(253,93,54)" rx="2" ry="2" />
<text  x="73.79" y="95.5" ></text>
</g>
<g >
<title>ether_nh_input (224 samples, 0.94%)</title><rect x="1178.9" y="261" width="11.1" height="15.0" fill="rgb(247,134,50)" rx="2" ry="2" />
<text  x="1181.89" y="271.5" ></text>
</g>
<g >
<title>netisr_dispatch_src (1,191 samples, 5.00%)</title><rect x="790.3" y="165" width="59.0" height="15.0" fill="rgb(222,145,35)" rx="2" ry="2" />
<text  x="793.29" y="175.5" >netisr..</text>
</g>
<g >
<title>ip_tryforward (365 samples, 1.53%)</title><rect x="70.8" y="181" width="18.1" height="15.0" fill="rgb(210,185,48)" rx="2" ry="2" />
<text  x="73.79" y="191.5" ></text>
</g>
<g >
<title>pf_test_rule (200 samples, 0.84%)</title><rect x="261.5" y="37" width="9.9" height="15.0" fill="rgb(239,199,27)" rx="2" ry="2" />
<text  x="264.45" y="47.5" ></text>
</g>
<g >
<title>pf_normalize_ip (225 samples, 0.95%)</title><rect x="735.1" y="37" width="11.2" height="15.0" fill="rgb(246,28,5)" rx="2" ry="2" />
<text  x="738.10" y="47.5" ></text>
</g>
<g >
<title>ether_output (1,226 samples, 5.15%)</title><rect x="10.0" y="133" width="60.8" height="15.0" fill="rgb(220,64,18)" rx="2" ry="2" />
<text  x="13.00" y="143.5" >ether_..</text>
</g>
<g >
<title>memcpy_erms (27 samples, 0.11%)</title><rect x="769.5" y="197" width="1.3" height="15.0" fill="rgb(206,191,47)" rx="2" ry="2" />
<text  x="772.51" y="207.5" ></text>
</g>
<g >
<title>netisr_dispatch_src (3,394 samples, 14.26%)</title><rect x="849.3" y="149" width="168.3" height="15.0" fill="rgb(225,184,21)" rx="2" ry="2" />
<text  x="852.34" y="159.5" >netisr_dispatch_src</text>
</g>
<g >
<title>ifmp_ring_enqueue (224 samples, 0.94%)</title><rect x="1178.9" y="133" width="11.1" height="15.0" fill="rgb(240,187,15)" rx="2" ry="2" />
<text  x="1181.89" y="143.5" ></text>
</g>
<g >
<title>pf_find_state (120 samples, 0.50%)</title><rect x="1011.7" y="37" width="5.9" height="15.0" fill="rgb(245,3,5)" rx="2" ry="2" />
<text  x="1014.69" y="47.5" ></text>
</g>
<g >
<title>iflib_encap (2,767 samples, 11.63%)</title><rect x="1025.6" y="53" width="137.2" height="15.0" fill="rgb(206,218,39)" rx="2" ry="2" />
<text  x="1028.57" y="63.5" >iflib_encap</text>
</g>
<g >
<title>pf_test (89 samples, 0.37%)</title><rect x="88.9" y="165" width="4.4" height="15.0" fill="rgb(223,145,23)" rx="2" ry="2" />
<text  x="91.89" y="175.5" ></text>
</g>
<g >
<title>drain_ring_lockless (3,248 samples, 13.65%)</title><rect x="1017.6" y="85" width="161.1" height="15.0" fill="rgb(236,87,8)" rx="2" ry="2" />
<text  x="1020.64" y="95.5" >drain_ring_lockless</text>
</g>
<g >
<title>wakeup_any (405 samples, 1.70%)</title><rect x="93.3" y="197" width="20.1" height="15.0" fill="rgb(207,40,15)" rx="2" ry="2" />
<text  x="96.30" y="207.5" ></text>
</g>
<g >
<title>ether_demux (3,394 samples, 14.26%)</title><rect x="849.3" y="165" width="168.3" height="15.0" fill="rgb(207,99,51)" rx="2" ry="2" />
<text  x="852.34" y="175.5" >ether_demux</text>
</g>
<g >
<title>pf_test (9,840 samples, 41.35%)</title><rect x="271.4" y="53" width="487.9" height="15.0" fill="rgb(232,131,37)" rx="2" ry="2" />
<text  x="274.37" y="63.5" >pf_test</text>
</g>
<g >
<title>pfil_mbuf_fwd (1,372 samples, 5.77%)</title><rect x="203.3" y="85" width="68.1" height="15.0" fill="rgb(237,56,36)" rx="2" ry="2" />
<text  x="206.34" y="95.5" >pfil_mb..</text>
</g>
<g >
<title>ether_demux (3,248 samples, 13.65%)</title><rect x="1017.6" y="213" width="161.1" height="15.0" fill="rgb(242,5,18)" rx="2" ry="2" />
<text  x="1020.64" y="223.5" >ether_demux</text>
</g>
<g >
<title>iflib_encap (365 samples, 1.53%)</title><rect x="70.8" y="69" width="18.1" height="15.0" fill="rgb(229,25,32)" rx="2" ry="2" />
<text  x="73.79" y="79.5" ></text>
</g>
<g >
<title>iflib_if_transmit (224 samples, 0.94%)</title><rect x="1178.9" y="149" width="11.1" height="15.0" fill="rgb(241,162,22)" rx="2" ry="2" />
<text  x="1181.89" y="159.5" ></text>
</g>
<g >
<title>memset_erms (122 samples, 0.51%)</title><rect x="239.3" y="37" width="6.1" height="15.0" fill="rgb(234,135,38)" rx="2" ry="2" />
<text  x="242.34" y="47.5" ></text>
</g>
<g >
<title>ether_nh_input (1,226 samples, 5.15%)</title><rect x="10.0" y="213" width="60.8" height="15.0" fill="rgb(208,200,18)" rx="2" ry="2" />
<text  x="13.00" y="223.5" >ether_..</text>
</g>
<g >
<title>pf_test (1,372 samples, 5.77%)</title><rect x="203.3" y="53" width="68.1" height="15.0" fill="rgb(218,190,36)" rx="2" ry="2" />
<text  x="206.34" y="63.5" >pf_test</text>
</g>
<g >
<title>iflib_if_transmit (372 samples, 1.56%)</title><rect x="790.3" y="85" width="18.4" height="15.0" fill="rgb(221,80,33)" rx="2" ry="2" />
<text  x="793.29" y="95.5" ></text>
</g>
<g >
<title>iflib_txq_drain (372 samples, 1.56%)</title><rect x="790.3" y="37" width="18.4" height="15.0" fill="rgb(235,9,23)" rx="2" ry="2" />
<text  x="793.29" y="47.5" ></text>
</g>
<g >
<title>pf_dummynet_route (89 samples, 0.37%)</title><rect x="88.9" y="149" width="4.4" height="15.0" fill="rgb(217,25,48)" rx="2" ry="2" />
<text  x="91.89" y="159.5" ></text>
</g>
<g >
<title>ether_input (1,226 samples, 5.15%)</title><rect x="10.0" y="245" width="60.8" height="15.0" fill="rgb(216,96,3)" rx="2" ry="2" />
<text  x="13.00" y="255.5" >ether_..</text>
</g>
<g >
<title>iflib_if_transmit (365 samples, 1.53%)</title><rect x="70.8" y="133" width="18.1" height="15.0" fill="rgb(227,42,10)" rx="2" ry="2" />
<text  x="73.79" y="143.5" ></text>
</g>
<g >
<title>ixl_isc_txd_encap (2,767 samples, 11.63%)</title><rect x="1025.6" y="37" width="137.2" height="15.0" fill="rgb(233,76,29)" rx="2" ry="2" />
<text  x="1028.57" y="47.5" >ixl_isc_txd_encap</text>
</g>
<g >
<title>ifmp_ring_enqueue (372 samples, 1.56%)</title><rect x="790.3" y="69" width="18.4" height="15.0" fill="rgb(250,18,11)" rx="2" ry="2" />
<text  x="793.29" y="79.5" ></text>
</g>
<g >
<title>all (23,797 samples, 100%)</title><rect x="10.0" y="293" width="1180.0" height="15.0" fill="rgb(249,166,0)" rx="2" ry="2" />
<text  x="13.00" y="303.5" ></text>
</g>
<g >
<title>ip_input (3,394 samples, 14.26%)</title><rect x="849.3" y="133" width="168.3" height="15.0" fill="rgb(251,75,8)" rx="2" ry="2" />
<text  x="852.34" y="143.5" >ip_input</text>
</g>
<g >
<title>ether_nh_input (3,394 samples, 14.26%)</title><rect x="849.3" y="181" width="168.3" height="15.0" fill="rgb(239,145,17)" rx="2" ry="2" />
<text  x="852.34" y="191.5" >ether_nh_input</text>
</g>
<g >
<title>netisr_dispatch_src (12,631 samples, 53.08%)</title><rect x="133.0" y="133" width="626.3" height="15.0" fill="rgb(246,152,43)" rx="2" ry="2" />
<text  x="135.97" y="143.5" >netisr_dispatch_src</text>
</g>
<g >
<title>drain_ring_lockless (1,226 samples, 5.15%)</title><rect x="10.0" y="69" width="60.8" height="15.0" fill="rgb(214,158,10)" rx="2" ry="2" />
<text  x="13.00" y="79.5" >drain_..</text>
</g>
<g >
<title>netisr_dispatch_src (3,248 samples, 13.65%)</title><rect x="1017.6" y="197" width="161.1" height="15.0" fill="rgb(241,30,19)" rx="2" ry="2" />
<text  x="1020.64" y="207.5" >netisr_dispatch_src</text>
</g>
<g >
<title>netisr_dispatch_src (1,191 samples, 5.00%)</title><rect x="790.3" y="213" width="59.0" height="15.0" fill="rgb(215,45,51)" rx="2" ry="2" />
<text  x="793.29" y="223.5" >netisr..</text>
</g>
<g >
<title>iflib_txq_drain (3,248 samples, 13.65%)</title><rect x="1017.6" y="69" width="161.1" height="15.0" fill="rgb(226,54,25)" rx="2" ry="2" />
<text  x="1020.64" y="79.5" >iflib_txq_drain</text>
</g>
<g >
<title>pf_test (656 samples, 2.76%)</title><rect x="985.1" y="69" width="32.5" height="15.0" fill="rgb(222,220,16)" rx="2" ry="2" />
<text  x="988.11" y="79.5" >pf..</text>
</g>
<g >
<title>gtaskqueue_run_locked (1,191 samples, 5.00%)</title><rect x="790.3" y="277" width="59.0" height="15.0" fill="rgb(225,130,48)" rx="2" ry="2" />
<text  x="793.29" y="287.5" >gtaskq..</text>
</g>
<g >
<title>ether_output (3,248 samples, 13.65%)</title><rect x="1017.6" y="149" width="161.1" height="15.0" fill="rgb(238,99,5)" rx="2" ry="2" />
<text  x="1020.64" y="159.5" >ether_output</text>
</g>
</g>
</svg>
