<?xml version="1.0" standalone="no"?>
<!DOCTYPE svg PUBLIC "-//W3C//DTD SVG 1.1//EN" "http://www.w3.org/Graphics/SVG/1.1/DTD/svg11.dtd">
<svg version="1.1" width="1200" height="342" onload="init(evt)" viewBox="0 0 1200 342" xmlns="http://www.w3.org/2000/svg" xmlns:xlink="http://www.w3.org/1999/xlink">
<!-- Flame graph stack visualization. See https://github.com/brendangregg/FlameGraph for latest version, and http://www.brendangregg.com/flamegraphs.html for examples. -->
<!-- NOTES:  -->
<defs>
	<linearGradient id="background" y1="0" y2="1" x1="0" x2="0" >
		<stop stop-color="#eeeeee" offset="5%" />
		<stop stop-color="#eeeeb0" offset="95%" />
	</linearGradient>
</defs>
<style type="text/css">
	text { font-family:Verdana; font-size:12px; fill:rgb(0,0,0); }
	#search, #ignorecase { opacity:0.1; cursor:pointer; }
	#search:hover, #search.show, #ignorecase:hover, #ignorecase.show { opacity:1; }
	#subtitle { text-anchor:middle; font-color:rgb(160,160,160); }
	#title { text-anchor:middle; font-size:17px}
	#unzoom { cursor:pointer; }
	#frames > *:hover { stroke:black; stroke-width:0.5; cursor:pointer; }
	.hide { display:none; }
	.parent { opacity:0.5; }
</style>
<script type="text/ecmascript">
<![CDATA[
	"use strict";
	var details, searchbtn, unzoombtn, matchedtxt, svg, searching, currentSearchTerm, ignorecase, ignorecaseBtn;
	function init(evt) {
		details = document.getElementById("details").firstChild;
		searchbtn = document.getElementById("search");
		ignorecaseBtn = document.getElementById("ignorecase");
		unzoombtn = document.getElementById("unzoom");
		matchedtxt = document.getElementById("matched");
		svg = document.getElementsByTagName("svg")[0];
		searching = 0;
		currentSearchTerm = null;

		// use GET parameters to restore a flamegraphs state.
		var params = get_params();
		if (params.x && params.y)
			zoom(find_group(document.querySelector('[x="' + params.x + '"][y="' + params.y + '"]')));
                if (params.s) search(params.s);
	}

	// event listeners
	window.addEventListener("click", function(e) {
		var target = find_group(e.target);
		if (target) {
			if (target.nodeName == "a") {
				if (e.ctrlKey === false) return;
				e.preventDefault();
			}
			if (target.classList.contains("parent")) unzoom();
			zoom(target);
			if (!document.querySelector('.parent')) {
				clearzoom();
				return;
			}

			// set parameters for zoom state
			var el = target.querySelector("rect");
			if (el && el.attributes && el.attributes.y && el.attributes._orig_x) {
				var params = get_params()
				params.x = el.attributes._orig_x.value;
				params.y = el.attributes.y.value;
				history.replaceState(null, null, parse_params(params));
			}
		}
		else if (e.target.id == "unzoom") clearzoom();
		else if (e.target.id == "search") search_prompt();
		else if (e.target.id == "ignorecase") toggle_ignorecase();
	}, false)

	// mouse-over for info
	// show
	window.addEventListener("mouseover", function(e) {
		var target = find_group(e.target);
		if (target) details.nodeValue = "Function: " + g_to_text(target);
	}, false)

	// clear
	window.addEventListener("mouseout", function(e) {
		var target = find_group(e.target);
		if (target) details.nodeValue = ' ';
	}, false)

	// ctrl-F for search
	// ctrl-I to toggle case-sensitive search
	window.addEventListener("keydown",function (e) {
		if (e.keyCode === 114 || (e.ctrlKey && e.keyCode === 70)) {
			e.preventDefault();
			search_prompt();
		}
		else if (e.ctrlKey && e.keyCode === 73) {
			e.preventDefault();
			toggle_ignorecase();
		}
	}, false)

	// functions
	function get_params() {
		var params = {};
		var paramsarr = window.location.search.substr(1).split('&');
		for (var i = 0; i < paramsarr.length; ++i) {
			var tmp = paramsarr[i].split("=");
			if (!tmp[0] || !tmp[1]) continue;
			params[tmp[0]]  = decodeURIComponent(tmp[1]);
		}
		return params;
	}
	function parse_params(params) {
		var uri = "?";
		for (var key in params) {
			uri += key + '=' + encodeURIComponent(params[key]) + '&';
		}
		if (uri.slice(-1) == "&")
			uri = uri.substring(0, uri.length - 1);
		if (uri == '?')
			uri = window.location.href.split('?')[0];
		return uri;
	}
	function find_child(node, selector) {
		var children = node.querySelectorAll(selector);
		if (children.length) return children[0];
	}
	function find_group(node) {
		var parent = node.parentElement;
		if (!parent) return;
		if (parent.id == "frames") return node;
		return find_group(parent);
	}
	function orig_save(e, attr, val) {
		if (e.attributes["_orig_" + attr] != undefined) return;
		if (e.attributes[attr] == undefined) return;
		if (val == undefined) val = e.attributes[attr].value;
		e.setAttribute("_orig_" + attr, val);
	}
	function orig_load(e, attr) {
		if (e.attributes["_orig_"+attr] == undefined) return;
		e.attributes[attr].value = e.attributes["_orig_" + attr].value;
		e.removeAttribute("_orig_"+attr);
	}
	function g_to_text(e) {
		var text = find_child(e, "title").firstChild.nodeValue;
		return (text)
	}
	function g_to_func(e) {
		var func = g_to_text(e);
		// if there's any manipulation we want to do to the function
		// name before it's searched, do it here before returning.
		return (func);
	}
	function update_text(e) {
		var r = find_child(e, "rect");
		var t = find_child(e, "text");
		var w = parseFloat(r.attributes.width.value) -3;
		var txt = find_child(e, "title").textContent.replace(/\([^(]*\)$/,"");
		t.attributes.x.value = parseFloat(r.attributes.x.value) + 3;

		// Smaller than this size won't fit anything
		if (w < 2 * 12 * 0.59) {
			t.textContent = "";
			return;
		}

		t.textContent = txt;
		// Fit in full text width
		if (/^ *$/.test(txt) || t.getSubStringLength(0, txt.length) < w)
			return;

		for (var x = txt.length - 2; x > 0; x--) {
			if (t.getSubStringLength(0, x + 2) <= w) {
				t.textContent = txt.substring(0, x) + "..";
				return;
			}
		}
		t.textContent = "";
	}

	// zoom
	function zoom_reset(e) {
		if (e.attributes != undefined) {
			orig_load(e, "x");
			orig_load(e, "width");
		}
		if (e.childNodes == undefined) return;
		for (var i = 0, c = e.childNodes; i < c.length; i++) {
			zoom_reset(c[i]);
		}
	}
	function zoom_child(e, x, ratio) {
		if (e.attributes != undefined) {
			if (e.attributes.x != undefined) {
				orig_save(e, "x");
				e.attributes.x.value = (parseFloat(e.attributes.x.value) - x - 10) * ratio + 10;
				if (e.tagName == "text")
					e.attributes.x.value = find_child(e.parentNode, "rect[x]").attributes.x.value + 3;
			}
			if (e.attributes.width != undefined) {
				orig_save(e, "width");
				e.attributes.width.value = parseFloat(e.attributes.width.value) * ratio;
			}
		}

		if (e.childNodes == undefined) return;
		for (var i = 0, c = e.childNodes; i < c.length; i++) {
			zoom_child(c[i], x - 10, ratio);
		}
	}
	function zoom_parent(e) {
		if (e.attributes) {
			if (e.attributes.x != undefined) {
				orig_save(e, "x");
				e.attributes.x.value = 10;
			}
			if (e.attributes.width != undefined) {
				orig_save(e, "width");
				e.attributes.width.value = parseInt(svg.width.baseVal.value) - (10 * 2);
			}
		}
		if (e.childNodes == undefined) return;
		for (var i = 0, c = e.childNodes; i < c.length; i++) {
			zoom_parent(c[i]);
		}
	}
	function zoom(node) {
		var attr = find_child(node, "rect").attributes;
		var width = parseFloat(attr.width.value);
		var xmin = parseFloat(attr.x.value);
		var xmax = parseFloat(xmin + width);
		var ymin = parseFloat(attr.y.value);
		var ratio = (svg.width.baseVal.value - 2 * 10) / width;

		// XXX: Workaround for JavaScript float issues (fix me)
		var fudge = 0.0001;

		unzoombtn.classList.remove("hide");

		var el = document.getElementById("frames").children;
		for (var i = 0; i < el.length; i++) {
			var e = el[i];
			var a = find_child(e, "rect").attributes;
			var ex = parseFloat(a.x.value);
			var ew = parseFloat(a.width.value);
			var upstack;
			// Is it an ancestor
			if (0 == 0) {
				upstack = parseFloat(a.y.value) > ymin;
			} else {
				upstack = parseFloat(a.y.value) < ymin;
			}
			if (upstack) {
				// Direct ancestor
				if (ex <= xmin && (ex+ew+fudge) >= xmax) {
					e.classList.add("parent");
					zoom_parent(e);
					update_text(e);
				}
				// not in current path
				else
					e.classList.add("hide");
			}
			// Children maybe
			else {
				// no common path
				if (ex < xmin || ex + fudge >= xmax) {
					e.classList.add("hide");
				}
				else {
					zoom_child(e, xmin, ratio);
					update_text(e);
				}
			}
		}
		search();
	}
	function unzoom() {
		unzoombtn.classList.add("hide");
		var el = document.getElementById("frames").children;
		for(var i = 0; i < el.length; i++) {
			el[i].classList.remove("parent");
			el[i].classList.remove("hide");
			zoom_reset(el[i]);
			update_text(el[i]);
		}
		search();
	}
	function clearzoom() {
		unzoom();

		// remove zoom state
		var params = get_params();
		if (params.x) delete params.x;
		if (params.y) delete params.y;
		history.replaceState(null, null, parse_params(params));
	}

	// search
	function toggle_ignorecase() {
		ignorecase = !ignorecase;
		if (ignorecase) {
			ignorecaseBtn.classList.add("show");
		} else {
			ignorecaseBtn.classList.remove("show");
		}
		reset_search();
		search();
	}
	function reset_search() {
		var el = document.querySelectorAll("#frames rect");
		for (var i = 0; i < el.length; i++) {
			orig_load(el[i], "fill")
		}
		var params = get_params();
		delete params.s;
		history.replaceState(null, null, parse_params(params));
	}
	function search_prompt() {
		if (!searching) {
			var term = prompt("Enter a search term (regexp " +
			    "allowed, eg: ^ext4_)"
			    + (ignorecase ? ", ignoring case" : "")
			    + "\nPress Ctrl-i to toggle case sensitivity", "");
			if (term != null) search(term);
		} else {
			reset_search();
			searching = 0;
			currentSearchTerm = null;
			searchbtn.classList.remove("show");
			searchbtn.firstChild.nodeValue = "Search"
			matchedtxt.classList.add("hide");
			matchedtxt.firstChild.nodeValue = ""
		}
	}
	function search(term) {
		if (term) currentSearchTerm = term;

		var re = new RegExp(currentSearchTerm, ignorecase ? 'i' : '');
		var el = document.getElementById("frames").children;
		var matches = new Object();
		var maxwidth = 0;
		for (var i = 0; i < el.length; i++) {
			var e = el[i];
			var func = g_to_func(e);
			var rect = find_child(e, "rect");
			if (func == null || rect == null)
				continue;

			// Save max width. Only works as we have a root frame
			var w = parseFloat(rect.attributes.width.value);
			if (w > maxwidth)
				maxwidth = w;

			if (func.match(re)) {
				// highlight
				var x = parseFloat(rect.attributes.x.value);
				orig_save(rect, "fill");
				rect.attributes.fill.value = "rgb(230,0,230)";

				// remember matches
				if (matches[x] == undefined) {
					matches[x] = w;
				} else {
					if (w > matches[x]) {
						// overwrite with parent
						matches[x] = w;
					}
				}
				searching = 1;
			}
		}
		if (!searching)
			return;
		var params = get_params();
		params.s = currentSearchTerm;
		history.replaceState(null, null, parse_params(params));

		searchbtn.classList.add("show");
		searchbtn.firstChild.nodeValue = "Reset Search";

		// calculate percent matched, excluding vertical overlap
		var count = 0;
		var lastx = -1;
		var lastw = 0;
		var keys = Array();
		for (k in matches) {
			if (matches.hasOwnProperty(k))
				keys.push(k);
		}
		// sort the matched frames by their x location
		// ascending, then width descending
		keys.sort(function(a, b){
			return a - b;
		});
		// Step through frames saving only the biggest bottom-up frames
		// thanks to the sort order. This relies on the tree property
		// where children are always smaller than their parents.
		var fudge = 0.0001;	// JavaScript floating point
		for (var k in keys) {
			var x = parseFloat(keys[k]);
			var w = matches[keys[k]];
			if (x >= lastx + lastw - fudge) {
				count += w;
				lastx = x;
				lastw = w;
			}
		}
		// display matched percent
		matchedtxt.classList.remove("hide");
		var pct = 100 * count / maxwidth;
		if (pct != 100) pct = pct.toFixed(1)
		matchedtxt.firstChild.nodeValue = "Matched: " + pct + "%";
	}
]]>
</script>
<rect x="0.0" y="0" width="1200.0" height="342.0" fill="url(#background)"  />
<text id="title" x="600.00" y="24" >Flame Graph</text>
<text id="details" x="10.00" y="325" > </text>
<text id="unzoom" x="10.00" y="24" class="hide">Reset Zoom</text>
<text id="search" x="1090.00" y="24" >Search</text>
<text id="ignorecase" x="1174.00" y="24" >ic</text>
<text id="matched" x="1090.00" y="325" > </text>
<g id="frames">
<g >
<title>in6_localip (612 samples, 2.83%)</title><rect x="348.6" y="85" width="33.4" height="15.0" fill="rgb(238,113,27)" rx="2" ry="2" />
<text  x="351.56" y="95.5" >in..</text>
</g>
<g >
<title>pf_find_state (204 samples, 0.94%)</title><rect x="856.0" y="53" width="11.1" height="15.0" fill="rgb(249,63,0)" rx="2" ry="2" />
<text  x="858.97" y="63.5" ></text>
</g>
<g >
<title>_task_fn_rx (1,039 samples, 4.81%)</title><rect x="10.0" y="277" width="56.7" height="15.0" fill="rgb(224,61,50)" rx="2" ry="2" />
<text  x="13.00" y="287.5" >_task_..</text>
</g>
<g >
<title>ether_input (292 samples, 1.35%)</title><rect x="66.7" y="277" width="15.9" height="15.0" fill="rgb(254,32,49)" rx="2" ry="2" />
<text  x="69.70" y="287.5" ></text>
</g>
<g >
<title>iflib_rxeof (1,039 samples, 4.81%)</title><rect x="10.0" y="261" width="56.7" height="15.0" fill="rgb(232,177,13)" rx="2" ry="2" />
<text  x="13.00" y="271.5" >iflib_..</text>
</g>
<g >
<title>ether_output_frame (1,037 samples, 4.80%)</title><rect x="10.0" y="117" width="56.6" height="15.0" fill="rgb(212,194,15)" rx="2" ry="2" />
<text  x="13.00" y="127.5" >ether..</text>
</g>
<g >
<title>pf_test_rule (2 samples, 0.01%)</title><rect x="834.6" y="69" width="0.1" height="15.0" fill="rgb(206,21,34)" rx="2" ry="2" />
<text  x="837.58" y="79.5" ></text>
</g>
<g >
<title>ether_demux (2,057 samples, 9.51%)</title><rect x="754.8" y="181" width="112.3" height="15.0" fill="rgb(225,116,27)" rx="2" ry="2" />
<text  x="757.85" y="191.5" >ether_demux</text>
</g>
<g >
<title>netisr_dispatch_src (1,039 samples, 4.81%)</title><rect x="10.0" y="229" width="56.7" height="15.0" fill="rgb(247,37,36)" rx="2" ry="2" />
<text  x="13.00" y="239.5" >netisr..</text>
</g>
<g >
<title>_rm_rlock (114 samples, 0.53%)</title><rect x="647.3" y="37" width="6.2" height="15.0" fill="rgb(221,139,43)" rx="2" ry="2" />
<text  x="650.29" y="47.5" ></text>
</g>
<g >
<title>pfil_mbuf_out (1,341 samples, 6.20%)</title><rect x="681.6" y="85" width="73.2" height="15.0" fill="rgb(229,145,20)" rx="2" ry="2" />
<text  x="684.61" y="95.5" >pfil_mbu..</text>
</g>
<g >
<title>ip6_tryforward (2,057 samples, 9.51%)</title><rect x="754.8" y="133" width="112.3" height="15.0" fill="rgb(221,119,31)" rx="2" ry="2" />
<text  x="757.85" y="143.5" >ip6_tryforward</text>
</g>
<g >
<title>memset_erms (141 samples, 0.65%)</title><rect x="724.5" y="37" width="7.6" height="15.0" fill="rgb(228,164,15)" rx="2" ry="2" />
<text  x="727.45" y="47.5" ></text>
</g>
<g >
<title>pfil_mbuf_out (847 samples, 3.92%)</title><rect x="970.5" y="101" width="46.2" height="15.0" fill="rgb(247,1,44)" rx="2" ry="2" />
<text  x="973.51" y="111.5" >pfil..</text>
</g>
<g >
<title>murmur3_32_hash32 (204 samples, 0.94%)</title><rect x="856.0" y="37" width="11.1" height="15.0" fill="rgb(243,10,13)" rx="2" ry="2" />
<text  x="858.97" y="47.5" ></text>
</g>
<g >
<title>pf_test (596 samples, 2.76%)</title><rect x="834.6" y="85" width="32.5" height="15.0" fill="rgb(224,188,12)" rx="2" ry="2" />
<text  x="837.58" y="95.5" >pf..</text>
</g>
<g >
<title>ether_input (2,869 samples, 13.27%)</title><rect x="1016.7" y="261" width="156.6" height="15.0" fill="rgb(218,225,17)" rx="2" ry="2" />
<text  x="1019.74" y="271.5" >ether_input</text>
</g>
<g >
<title>pf_test_state (657 samples, 3.04%)</title><rect x="798.7" y="69" width="35.9" height="15.0" fill="rgb(237,123,26)" rx="2" ry="2" />
<text  x="801.72" y="79.5" >pf_..</text>
</g>
<g >
<title>pfil_mbuf_out (596 samples, 2.76%)</title><rect x="834.6" y="117" width="32.5" height="15.0" fill="rgb(216,8,47)" rx="2" ry="2" />
<text  x="837.58" y="127.5" >pf..</text>
</g>
<g >
<title>ip6_tryforward (292 samples, 1.35%)</title><rect x="66.7" y="181" width="15.9" height="15.0" fill="rgb(228,178,10)" rx="2" ry="2" />
<text  x="69.70" y="191.5" ></text>
</g>
<g >
<title>iflib_if_transmit (2,869 samples, 13.27%)</title><rect x="1016.7" y="117" width="156.6" height="15.0" fill="rgb(223,24,8)" rx="2" ry="2" />
<text  x="1019.74" y="127.5" >iflib_if_transmit</text>
</g>
<g >
<title>ether_nh_input (306 samples, 1.42%)</title><rect x="1173.3" y="261" width="16.7" height="15.0" fill="rgb(226,171,48)" rx="2" ry="2" />
<text  x="1176.30" y="271.5" ></text>
</g>
<g >
<title>iflib_txq_drain (2,869 samples, 13.27%)</title><rect x="1016.7" y="69" width="156.6" height="15.0" fill="rgb(209,215,52)" rx="2" ry="2" />
<text  x="1019.74" y="79.5" >iflib_txq_drain</text>
</g>
<g >
<title>ip6_input (2,742 samples, 12.68%)</title><rect x="867.1" y="133" width="149.6" height="15.0" fill="rgb(221,146,40)" rx="2" ry="2" />
<text  x="870.10" y="143.5" >ip6_input</text>
</g>
<g >
<title>iflib_rxeof (12,051 samples, 55.73%)</title><rect x="97.2" y="213" width="657.6" height="15.0" fill="rgb(214,82,40)" rx="2" ry="2" />
<text  x="100.21" y="223.5" >iflib_rxeof</text>
</g>
<g >
<title>iflib_if_transmit (306 samples, 1.42%)</title><rect x="1173.3" y="149" width="16.7" height="15.0" fill="rgb(248,71,51)" rx="2" ry="2" />
<text  x="1176.30" y="159.5" ></text>
</g>
<g >
<title>pf_check6_in (5,213 samples, 24.11%)</title><rect x="397.1" y="69" width="284.5" height="15.0" fill="rgb(209,53,42)" rx="2" ry="2" />
<text  x="400.13" y="79.5" >pf_check6_in</text>
</g>
<g >
<title>pf_test (847 samples, 3.92%)</title><rect x="970.5" y="69" width="46.2" height="15.0" fill="rgb(247,124,21)" rx="2" ry="2" />
<text  x="973.51" y="79.5" >pf_t..</text>
</g>
<g >
<title>m_freem (306 samples, 1.42%)</title><rect x="1173.3" y="69" width="16.7" height="15.0" fill="rgb(213,22,17)" rx="2" ry="2" />
<text  x="1176.30" y="79.5" ></text>
</g>
<g >
<title>ether_output_frame (803 samples, 3.71%)</title><rect x="754.8" y="101" width="43.9" height="15.0" fill="rgb(237,129,27)" rx="2" ry="2" />
<text  x="757.85" y="111.5" >ethe..</text>
</g>
<g >
<title>netisr_dispatch_src (2,869 samples, 13.27%)</title><rect x="1016.7" y="197" width="156.6" height="15.0" fill="rgb(230,46,18)" rx="2" ry="2" />
<text  x="1019.74" y="207.5" >netisr_dispatch_src</text>
</g>
<g >
<title>netisr_dispatch_src (2,057 samples, 9.51%)</title><rect x="754.8" y="165" width="112.3" height="15.0" fill="rgb(230,153,46)" rx="2" ry="2" />
<text  x="757.85" y="175.5" >netisr_dispat..</text>
</g>
<g >
<title>netisr_dispatch_src (292 samples, 1.35%)</title><rect x="66.7" y="261" width="15.9" height="15.0" fill="rgb(244,159,31)" rx="2" ry="2" />
<text  x="69.70" y="271.5" ></text>
</g>
<g >
<title>_task_fn_rx (12,318 samples, 56.97%)</title><rect x="82.6" y="229" width="672.2" height="15.0" fill="rgb(232,225,52)" rx="2" ry="2" />
<text  x="85.63" y="239.5" >_task_fn_rx</text>
</g>
<g >
<title>all (21,623 samples, 100%)</title><rect x="10.0" y="293" width="1180.0" height="15.0" fill="rgb(248,163,22)" rx="2" ry="2" />
<text  x="13.00" y="303.5" ></text>
</g>
<g >
<title>iflib_if_transmit (1,035 samples, 4.79%)</title><rect x="867.1" y="69" width="56.5" height="15.0" fill="rgb(224,199,22)" rx="2" ry="2" />
<text  x="870.10" y="79.5" >iflib..</text>
</g>
<g >
<title>ip6_tryforward (306 samples, 1.42%)</title><rect x="1173.3" y="197" width="16.7" height="15.0" fill="rgb(237,97,13)" rx="2" ry="2" />
<text  x="1176.30" y="207.5" ></text>
</g>
<g >
<title>pf_check6_out (1,341 samples, 6.20%)</title><rect x="681.6" y="69" width="73.2" height="15.0" fill="rgb(215,99,25)" rx="2" ry="2" />
<text  x="684.61" y="79.5" >pf_check..</text>
</g>
<g >
<title>ether_input (12,050 samples, 55.73%)</title><rect x="97.2" y="197" width="657.6" height="15.0" fill="rgb(234,108,15)" rx="2" ry="2" />
<text  x="100.21" y="207.5" >ether_input</text>
</g>
<g >
<title>netisr_dispatch_src (306 samples, 1.42%)</title><rect x="1173.3" y="229" width="16.7" height="15.0" fill="rgb(238,95,29)" rx="2" ry="2" />
<text  x="1176.30" y="239.5" ></text>
</g>
<g >
<title>netisr_dispatch_src (2,742 samples, 12.68%)</title><rect x="867.1" y="197" width="149.6" height="15.0" fill="rgb(232,115,43)" rx="2" ry="2" />
<text  x="870.10" y="207.5" >netisr_dispatch_src</text>
</g>
<g >
<title>iflib_rxeof (2,742 samples, 12.68%)</title><rect x="867.1" y="229" width="149.6" height="15.0" fill="rgb(219,167,30)" rx="2" ry="2" />
<text  x="870.10" y="239.5" >iflib_rxeof</text>
</g>
<g >
<title>bus_dmamap_load_mbuf_sg (291 samples, 1.35%)</title><rect x="66.7" y="53" width="15.9" height="15.0" fill="rgb(254,73,35)" rx="2" ry="2" />
<text  x="69.70" y="63.5" ></text>
</g>
<g >
<title>ether_demux (2,742 samples, 12.68%)</title><rect x="867.1" y="165" width="149.6" height="15.0" fill="rgb(217,218,28)" rx="2" ry="2" />
<text  x="870.10" y="175.5" >ether_demux</text>
</g>
<g >
<title>ifmp_ring_enqueue (306 samples, 1.42%)</title><rect x="1173.3" y="133" width="16.7" height="15.0" fill="rgb(243,4,38)" rx="2" ry="2" />
<text  x="1176.30" y="143.5" ></text>
</g>
<g >
<title>iflib_rxeof (2,057 samples, 9.51%)</title><rect x="754.8" y="245" width="112.3" height="15.0" fill="rgb(241,155,9)" rx="2" ry="2" />
<text  x="757.85" y="255.5" >iflib_rxeof</text>
</g>
<g >
<title>pf_check6_in (658 samples, 3.04%)</title><rect x="798.7" y="101" width="35.9" height="15.0" fill="rgb(222,147,42)" rx="2" ry="2" />
<text  x="801.67" y="111.5" >pf_..</text>
</g>
<g >
<title>drain_ring_lockless (2,869 samples, 13.27%)</title><rect x="1016.7" y="85" width="156.6" height="15.0" fill="rgb(252,22,39)" rx="2" ry="2" />
<text  x="1019.74" y="95.5" >drain_ring_lockless</text>
</g>
<g >
<title>ip6_input (2,869 samples, 13.27%)</title><rect x="1016.7" y="181" width="156.6" height="15.0" fill="rgb(240,227,11)" rx="2" ry="2" />
<text  x="1019.74" y="191.5" >ip6_input</text>
</g>
<g >
<title>gtaskqueue_thread_loop (2,742 samples, 12.68%)</title><rect x="867.1" y="277" width="149.6" height="15.0" fill="rgb(217,109,11)" rx="2" ry="2" />
<text  x="870.10" y="287.5" >gtaskqueue_thread_l..</text>
</g>
<g >
<title>pf_walk_header6 (248 samples, 1.15%)</title><rect x="668.1" y="37" width="13.5" height="15.0" fill="rgb(213,78,34)" rx="2" ry="2" />
<text  x="671.08" y="47.5" ></text>
</g>
<g >
<title>_task_fn_rx (2,057 samples, 9.51%)</title><rect x="754.8" y="261" width="112.3" height="15.0" fill="rgb(254,159,18)" rx="2" ry="2" />
<text  x="757.85" y="271.5" >_task_fn_rx</text>
</g>
<g >
<title>netisr_dispatch_src (1,039 samples, 4.81%)</title><rect x="10.0" y="181" width="56.7" height="15.0" fill="rgb(235,151,39)" rx="2" ry="2" />
<text  x="13.00" y="191.5" >netisr..</text>
</g>
<g >
<title>pf_test (1,794 samples, 8.30%)</title><rect x="583.7" y="53" width="97.9" height="15.0" fill="rgb(226,27,42)" rx="2" ry="2" />
<text  x="586.71" y="63.5" >pf_test</text>
</g>
<g >
<title>ip6_tryforward (2,742 samples, 12.68%)</title><rect x="867.1" y="117" width="149.6" height="15.0" fill="rgb(205,90,40)" rx="2" ry="2" />
<text  x="870.10" y="127.5" >ip6_tryforward</text>
</g>
<g >
<title>ether_nh_input (1,039 samples, 4.81%)</title><rect x="10.0" y="213" width="56.7" height="15.0" fill="rgb(220,32,32)" rx="2" ry="2" />
<text  x="13.00" y="223.5" >ether_..</text>
</g>
<g >
<title>pf_check6_out (847 samples, 3.92%)</title><rect x="970.5" y="85" width="46.2" height="15.0" fill="rgb(249,159,25)" rx="2" ry="2" />
<text  x="973.51" y="95.5" >pf_c..</text>
</g>
<g >
<title>ether_output (291 samples, 1.35%)</title><rect x="66.7" y="165" width="15.9" height="15.0" fill="rgb(245,110,32)" rx="2" ry="2" />
<text  x="69.70" y="175.5" ></text>
</g>
<g >
<title>fork_exit (12,318 samples, 56.97%)</title><rect x="82.6" y="277" width="672.2" height="15.0" fill="rgb(208,71,19)" rx="2" ry="2" />
<text  x="85.63" y="287.5" >fork_exit</text>
</g>
<g >
<title>ip6_tryforward (11,682 samples, 54.03%)</title><rect x="117.3" y="101" width="637.5" height="15.0" fill="rgb(237,115,9)" rx="2" ry="2" />
<text  x="120.29" y="111.5" >ip6_tryforward</text>
</g>
<g >
<title>gtaskqueue_thread_enqueue (267 samples, 1.23%)</title><rect x="82.6" y="197" width="14.6" height="15.0" fill="rgb(250,45,43)" rx="2" ry="2" />
<text  x="85.63" y="207.5" ></text>
</g>
<g >
<title>ip6_tryforward (2,869 samples, 13.27%)</title><rect x="1016.7" y="165" width="156.6" height="15.0" fill="rgb(249,52,41)" rx="2" ry="2" />
<text  x="1019.74" y="175.5" >ip6_tryforward</text>
</g>
<g >
<title>pfil_mbuf_in (658 samples, 3.04%)</title><rect x="798.7" y="117" width="35.9" height="15.0" fill="rgb(245,174,21)" rx="2" ry="2" />
<text  x="801.67" y="127.5" >pfi..</text>
</g>
<g >
<title>pfil_mbuf_in (860 samples, 3.98%)</title><rect x="923.6" y="101" width="46.9" height="15.0" fill="rgb(237,75,52)" rx="2" ry="2" />
<text  x="926.58" y="111.5" >pfil..</text>
</g>
<g >
<title>tscp_get_timecount_low (390 samples, 1.80%)</title><rect x="834.7" y="37" width="21.3" height="15.0" fill="rgb(253,143,37)" rx="2" ry="2" />
<text  x="837.68" y="47.5" >t..</text>
</g>
<g >
<title>ether_output (2,869 samples, 13.27%)</title><rect x="1016.7" y="149" width="156.6" height="15.0" fill="rgb(236,179,45)" rx="2" ry="2" />
<text  x="1019.74" y="159.5" >ether_output</text>
</g>
<g >
<title>pf_check6_out (596 samples, 2.76%)</title><rect x="834.6" y="101" width="32.5" height="15.0" fill="rgb(220,40,46)" rx="2" ry="2" />
<text  x="837.58" y="111.5" >pf..</text>
</g>
<g >
<title>pf_find_state (272 samples, 1.26%)</title><rect x="819.7" y="53" width="14.9" height="15.0" fill="rgb(211,16,1)" rx="2" ry="2" />
<text  x="822.73" y="63.5" ></text>
</g>
<g >
<title>pf_find_state (612 samples, 2.83%)</title><rect x="983.3" y="37" width="33.4" height="15.0" fill="rgb(233,63,53)" rx="2" ry="2" />
<text  x="986.34" y="47.5" >pf..</text>
</g>
<g >
<title>pfil_mbuf_in (5,213 samples, 24.11%)</title><rect x="397.1" y="85" width="284.5" height="15.0" fill="rgb(246,134,8)" rx="2" ry="2" />
<text  x="400.13" y="95.5" >pfil_mbuf_in</text>
</g>
<g >
<title>drain_ring_lockless (1,035 samples, 4.79%)</title><rect x="867.1" y="37" width="56.5" height="15.0" fill="rgb(222,94,37)" rx="2" ry="2" />
<text  x="870.10" y="47.5" >drain..</text>
</g>
<g >
<title>ifmp_ring_enqueue (419 samples, 1.94%)</title><rect x="325.7" y="37" width="22.9" height="15.0" fill="rgb(251,5,4)" rx="2" ry="2" />
<text  x="328.70" y="47.5" >i..</text>
</g>
<g >
<title>drain_ring_lockless (803 samples, 3.71%)</title><rect x="754.8" y="53" width="43.9" height="15.0" fill="rgb(233,82,21)" rx="2" ry="2" />
<text  x="757.85" y="63.5" >drai..</text>
</g>
<g >
<title>ip6_findroute (278 samples, 1.29%)</title><rect x="382.0" y="85" width="15.1" height="15.0" fill="rgb(246,227,24)" rx="2" ry="2" />
<text  x="384.96" y="95.5" ></text>
</g>
<g >
<title>pf_find_state (648 samples, 3.00%)</title><rect x="935.2" y="37" width="35.3" height="15.0" fill="rgb(244,62,47)" rx="2" ry="2" />
<text  x="938.15" y="47.5" >pf..</text>
</g>
<g >
<title>iflib_completed_tx_reclaim (306 samples, 1.42%)</title><rect x="1173.3" y="85" width="16.7" height="15.0" fill="rgb(216,164,42)" rx="2" ry="2" />
<text  x="1176.30" y="95.5" ></text>
</g>
<g >
<title>pf_test_state (594 samples, 2.75%)</title><rect x="834.7" y="69" width="32.4" height="15.0" fill="rgb(219,75,14)" rx="2" ry="2" />
<text  x="837.68" y="79.5" >pf..</text>
</g>
<g >
<title>pf_walk_header6 (318 samples, 1.47%)</title><rect x="737.4" y="37" width="17.4" height="15.0" fill="rgb(208,21,9)" rx="2" ry="2" />
<text  x="740.44" y="47.5" ></text>
</g>
<g >
<title>ether_input (2,057 samples, 9.51%)</title><rect x="754.8" y="229" width="112.3" height="15.0" fill="rgb(225,90,45)" rx="2" ry="2" />
<text  x="757.85" y="239.5" >ether_input</text>
</g>
<g >
<title>drain_ring_lockless (306 samples, 1.42%)</title><rect x="1173.3" y="117" width="16.7" height="15.0" fill="rgb(224,193,22)" rx="2" ry="2" />
<text  x="1176.30" y="127.5" ></text>
</g>
<g >
<title>_rm_rlock (266 samples, 1.23%)</title><rect x="709.9" y="37" width="14.6" height="15.0" fill="rgb(248,192,48)" rx="2" ry="2" />
<text  x="712.93" y="47.5" ></text>
</g>
<g >
<title>memset_erms (106 samples, 0.49%)</title><rect x="653.5" y="37" width="5.8" height="15.0" fill="rgb(210,71,32)" rx="2" ry="2" />
<text  x="656.51" y="47.5" ></text>
</g>
<g >
<title>ether_nh_input (2,869 samples, 13.27%)</title><rect x="1016.7" y="229" width="156.6" height="15.0" fill="rgb(237,207,36)" rx="2" ry="2" />
<text  x="1019.74" y="239.5" >ether_nh_input</text>
</g>
<g >
<title>ether_nh_input (292 samples, 1.35%)</title><rect x="66.7" y="245" width="15.9" height="15.0" fill="rgb(238,198,31)" rx="2" ry="2" />
<text  x="69.70" y="255.5" ></text>
</g>
<g >
<title>iflib_txd_db_check (487 samples, 2.25%)</title><rect x="1146.7" y="53" width="26.6" height="15.0" fill="rgb(222,125,42)" rx="2" ry="2" />
<text  x="1149.72" y="63.5" >i..</text>
</g>
<g >
<title>ether_input (1,039 samples, 4.81%)</title><rect x="10.0" y="245" width="56.7" height="15.0" fill="rgb(205,13,44)" rx="2" ry="2" />
<text  x="13.00" y="255.5" >ether_..</text>
</g>
<g >
<title>ether_output (306 samples, 1.42%)</title><rect x="1173.3" y="181" width="16.7" height="15.0" fill="rgb(215,179,41)" rx="2" ry="2" />
<text  x="1176.30" y="191.5" ></text>
</g>
<g >
<title>iflib_if_transmit (419 samples, 1.94%)</title><rect x="325.7" y="53" width="22.9" height="15.0" fill="rgb(205,30,12)" rx="2" ry="2" />
<text  x="328.70" y="63.5" >i..</text>
</g>
<g >
<title>iflib_rxeof (2,869 samples, 13.27%)</title><rect x="1016.7" y="277" width="156.6" height="15.0" fill="rgb(247,210,13)" rx="2" ry="2" />
<text  x="1019.74" y="287.5" >iflib_rxeof</text>
</g>
<g >
<title>ether_nh_input (2,057 samples, 9.51%)</title><rect x="754.8" y="197" width="112.3" height="15.0" fill="rgb(205,116,19)" rx="2" ry="2" />
<text  x="757.85" y="207.5" >ether_nh_input</text>
</g>
<g >
<title>iflib_txq_drain (291 samples, 1.35%)</title><rect x="66.7" y="85" width="15.9" height="15.0" fill="rgb(245,38,9)" rx="2" ry="2" />
<text  x="69.70" y="95.5" ></text>
</g>
<g >
<title>_rm_rlock (141 samples, 0.65%)</title><rect x="374.3" y="69" width="7.7" height="15.0" fill="rgb(246,194,6)" rx="2" ry="2" />
<text  x="377.26" y="79.5" ></text>
</g>
<g >
<title>netisr_dispatch_src (292 samples, 1.35%)</title><rect x="66.7" y="213" width="15.9" height="15.0" fill="rgb(222,168,38)" rx="2" ry="2" />
<text  x="69.70" y="223.5" ></text>
</g>
<g >
<title>netisr_dispatch_src (12,050 samples, 55.73%)</title><rect x="97.2" y="181" width="657.6" height="15.0" fill="rgb(252,155,9)" rx="2" ry="2" />
<text  x="100.21" y="191.5" >netisr_dispatch_src</text>
</g>
<g >
<title>microuptime (228 samples, 1.05%)</title><rect x="970.5" y="37" width="12.5" height="15.0" fill="rgb(253,183,41)" rx="2" ry="2" />
<text  x="973.51" y="47.5" ></text>
</g>
<g >
<title>ether_output_frame (291 samples, 1.35%)</title><rect x="66.7" y="149" width="15.9" height="15.0" fill="rgb(219,76,33)" rx="2" ry="2" />
<text  x="69.70" y="159.5" ></text>
</g>
<g >
<title>drain_ring_lockless (291 samples, 1.35%)</title><rect x="66.7" y="101" width="15.9" height="15.0" fill="rgb(215,142,17)" rx="2" ry="2" />
<text  x="69.70" y="111.5" ></text>
</g>
<g >
<title>m_free (306 samples, 1.42%)</title><rect x="1173.3" y="53" width="16.7" height="15.0" fill="rgb(229,15,21)" rx="2" ry="2" />
<text  x="1176.30" y="63.5" ></text>
</g>
<g >
<title>ether_demux (1,039 samples, 4.81%)</title><rect x="10.0" y="197" width="56.7" height="15.0" fill="rgb(241,191,46)" rx="2" ry="2" />
<text  x="13.00" y="207.5" >ether_..</text>
</g>
<g >
<title>pf_create_state (2 samples, 0.01%)</title><rect x="834.6" y="53" width="0.1" height="15.0" fill="rgb(254,195,47)" rx="2" ry="2" />
<text  x="837.58" y="63.5" ></text>
</g>
<g >
<title>pf_test (658 samples, 3.04%)</title><rect x="798.7" y="85" width="35.9" height="15.0" fill="rgb(254,76,25)" rx="2" ry="2" />
<text  x="801.67" y="95.5" >pf_..</text>
</g>
<g >
<title>fib6_lookup (278 samples, 1.29%)</title><rect x="382.0" y="69" width="15.1" height="15.0" fill="rgb(220,61,29)" rx="2" ry="2" />
<text  x="384.96" y="79.5" ></text>
</g>
<g >
<title>iflib_txq_drain (306 samples, 1.42%)</title><rect x="1173.3" y="101" width="16.7" height="15.0" fill="rgb(217,165,46)" rx="2" ry="2" />
<text  x="1176.30" y="111.5" ></text>
</g>
<g >
<title>netisr_dispatch_src (306 samples, 1.42%)</title><rect x="1173.3" y="277" width="16.7" height="15.0" fill="rgb(215,209,16)" rx="2" ry="2" />
<text  x="1176.30" y="287.5" ></text>
</g>
<g >
<title>microuptime (210 samples, 0.97%)</title><rect x="923.6" y="37" width="11.4" height="15.0" fill="rgb(205,177,26)" rx="2" ry="2" />
<text  x="926.58" y="47.5" ></text>
</g>
<g >
<title>ip6_input (292 samples, 1.35%)</title><rect x="66.7" y="197" width="15.9" height="15.0" fill="rgb(253,203,52)" rx="2" ry="2" />
<text  x="69.70" y="207.5" ></text>
</g>
<g >
<title>ip6_input (2,057 samples, 9.51%)</title><rect x="754.8" y="149" width="112.3" height="15.0" fill="rgb(218,191,5)" rx="2" ry="2" />
<text  x="757.85" y="159.5" >ip6_input</text>
</g>
<g >
<title>ixl_isc_txd_flush (487 samples, 2.25%)</title><rect x="1146.7" y="37" width="26.6" height="15.0" fill="rgb(220,28,5)" rx="2" ry="2" />
<text  x="1149.72" y="47.5" >i..</text>
</g>
<g >
<title>ip6_tryforward (1,039 samples, 4.81%)</title><rect x="10.0" y="149" width="56.7" height="15.0" fill="rgb(210,142,37)" rx="2" ry="2" />
<text  x="13.00" y="159.5" >ip6_tr..</text>
</g>
<g >
<title>ether_output_frame (1,035 samples, 4.79%)</title><rect x="867.1" y="85" width="56.5" height="15.0" fill="rgb(245,42,48)" rx="2" ry="2" />
<text  x="870.10" y="95.5" >ether..</text>
</g>
<g >
<title>ether_output (686 samples, 3.17%)</title><rect x="311.1" y="85" width="37.5" height="15.0" fill="rgb(245,183,37)" rx="2" ry="2" />
<text  x="314.13" y="95.5" >eth..</text>
</g>
<g >
<title>iflib_if_transmit (1,037 samples, 4.80%)</title><rect x="10.0" y="101" width="56.6" height="15.0" fill="rgb(223,209,30)" rx="2" ry="2" />
<text  x="13.00" y="111.5" >iflib..</text>
</g>
<g >
<title>ifmp_ring_enqueue (803 samples, 3.71%)</title><rect x="754.8" y="69" width="43.9" height="15.0" fill="rgb(215,184,31)" rx="2" ry="2" />
<text  x="757.85" y="79.5" >ifmp..</text>
</g>
<g >
<title>pf_test_state (847 samples, 3.92%)</title><rect x="970.5" y="53" width="46.2" height="15.0" fill="rgb(230,110,9)" rx="2" ry="2" />
<text  x="973.51" y="63.5" >pf_t..</text>
</g>
<g >
<title>ether_demux (12,050 samples, 55.73%)</title><rect x="97.2" y="149" width="657.6" height="15.0" fill="rgb(246,65,0)" rx="2" ry="2" />
<text  x="100.21" y="159.5" >ether_demux</text>
</g>
<g >
<title>iflib_txd_db_check (381 samples, 1.76%)</title><rect x="45.8" y="37" width="20.8" height="15.0" fill="rgb(227,197,37)" rx="2" ry="2" />
<text  x="48.80" y="47.5" ></text>
</g>
<g >
<title>ifmp_ring_enqueue (2,869 samples, 13.27%)</title><rect x="1016.7" y="101" width="156.6" height="15.0" fill="rgb(222,185,18)" rx="2" ry="2" />
<text  x="1019.74" y="111.5" >ifmp_ring_enqueue</text>
</g>
<g >
<title>pf_test_state (860 samples, 3.98%)</title><rect x="923.6" y="53" width="46.9" height="15.0" fill="rgb(233,96,53)" rx="2" ry="2" />
<text  x="926.58" y="63.5" >pf_t..</text>
</g>
<g >
<title>iflib_txq_drain (803 samples, 3.71%)</title><rect x="754.8" y="37" width="43.9" height="15.0" fill="rgb(228,28,18)" rx="2" ry="2" />
<text  x="757.85" y="47.5" >ifli..</text>
</g>
<g >
<title>iflib_if_transmit (803 samples, 3.71%)</title><rect x="754.8" y="85" width="43.9" height="15.0" fill="rgb(216,155,54)" rx="2" ry="2" />
<text  x="757.85" y="95.5" >ifli..</text>
</g>
<g >
<title>iflib_encap (291 samples, 1.35%)</title><rect x="66.7" y="69" width="15.9" height="15.0" fill="rgb(224,4,25)" rx="2" ry="2" />
<text  x="69.70" y="79.5" ></text>
</g>
<g >
<title>gtaskqueue_run_locked (2,057 samples, 9.51%)</title><rect x="754.8" y="277" width="112.3" height="15.0" fill="rgb(228,227,52)" rx="2" ry="2" />
<text  x="757.85" y="287.5" >gtaskqueue_ru..</text>
</g>
<g >
<title>iflib_encap (298 samples, 1.38%)</title><rect x="29.5" y="37" width="16.3" height="15.0" fill="rgb(249,80,8)" rx="2" ry="2" />
<text  x="32.54" y="47.5" ></text>
</g>
<g >
<title>pf_test (1,341 samples, 6.20%)</title><rect x="681.6" y="53" width="73.2" height="15.0" fill="rgb(242,64,27)" rx="2" ry="2" />
<text  x="684.61" y="63.5" >pf_test</text>
</g>
<g >
<title>ifmp_ring_enqueue (1,037 samples, 4.80%)</title><rect x="10.0" y="85" width="56.6" height="15.0" fill="rgb(248,224,46)" rx="2" ry="2" />
<text  x="13.00" y="95.5" >ifmp_..</text>
</g>
<g >
<title>pf_check6_in (860 samples, 3.98%)</title><rect x="923.6" y="85" width="46.9" height="15.0" fill="rgb(214,131,23)" rx="2" ry="2" />
<text  x="926.58" y="95.5" >pf_c..</text>
</g>
<g >
<title>ether_output (803 samples, 3.71%)</title><rect x="754.8" y="117" width="43.9" height="15.0" fill="rgb(251,71,12)" rx="2" ry="2" />
<text  x="757.85" y="127.5" >ethe..</text>
</g>
<g >
<title>ether_output_frame (2,869 samples, 13.27%)</title><rect x="1016.7" y="133" width="156.6" height="15.0" fill="rgb(225,14,14)" rx="2" ry="2" />
<text  x="1019.74" y="143.5" >ether_output_frame</text>
</g>
<g >
<title>pf_test_state (97 samples, 0.45%)</title><rect x="732.1" y="37" width="5.3" height="15.0" fill="rgb(225,219,16)" rx="2" ry="2" />
<text  x="735.14" y="47.5" ></text>
</g>
<g >
<title>ether_input (2,742 samples, 12.68%)</title><rect x="867.1" y="213" width="149.6" height="15.0" fill="rgb(229,33,34)" rx="2" ry="2" />
<text  x="870.10" y="223.5" >ether_input</text>
</g>
<g >
<title>tscp_get_timecount_low (385 samples, 1.78%)</title><rect x="798.7" y="37" width="21.0" height="15.0" fill="rgb(208,135,6)" rx="2" ry="2" />
<text  x="801.72" y="47.5" ></text>
</g>
<g >
<title>murmur3_32_hash32 (7 samples, 0.03%)</title><rect x="983.0" y="37" width="0.3" height="15.0" fill="rgb(220,56,24)" rx="2" ry="2" />
<text  x="985.96" y="47.5" ></text>
</g>
<g >
<title>microuptime (385 samples, 1.78%)</title><rect x="798.7" y="53" width="21.0" height="15.0" fill="rgb(226,209,30)" rx="2" ry="2" />
<text  x="801.72" y="63.5" ></text>
</g>
<g >
<title>murmur3_32_hash32 (272 samples, 1.26%)</title><rect x="819.7" y="37" width="14.9" height="15.0" fill="rgb(231,44,36)" rx="2" ry="2" />
<text  x="822.73" y="47.5" ></text>
</g>
<g >
<title>iflib_if_transmit (291 samples, 1.35%)</title><rect x="66.7" y="133" width="15.9" height="15.0" fill="rgb(241,100,20)" rx="2" ry="2" />
<text  x="69.70" y="143.5" ></text>
</g>
<g >
<title>ether_demux (292 samples, 1.35%)</title><rect x="66.7" y="229" width="15.9" height="15.0" fill="rgb(230,190,30)" rx="2" ry="2" />
<text  x="69.70" y="239.5" ></text>
</g>
<g >
<title>ether_demux (306 samples, 1.42%)</title><rect x="1173.3" y="245" width="16.7" height="15.0" fill="rgb(218,77,42)" rx="2" ry="2" />
<text  x="1176.30" y="255.5" ></text>
</g>
<g >
<title>drain_ring_lockless (1,037 samples, 4.80%)</title><rect x="10.0" y="69" width="56.6" height="15.0" fill="rgb(244,184,44)" rx="2" ry="2" />
<text  x="13.00" y="79.5" >drain..</text>
</g>
<g >
<title>netisr_dispatch_src (12,050 samples, 55.73%)</title><rect x="97.2" y="133" width="657.6" height="15.0" fill="rgb(232,17,16)" rx="2" ry="2" />
<text  x="100.21" y="143.5" >netisr_dispatch_src</text>
</g>
<g >
<title>pf_test (860 samples, 3.98%)</title><rect x="923.6" y="69" width="46.9" height="15.0" fill="rgb(218,141,21)" rx="2" ry="2" />
<text  x="926.58" y="79.5" >pf_t..</text>
</g>
<g >
<title>iflib_encap (2,382 samples, 11.02%)</title><rect x="1016.7" y="53" width="130.0" height="15.0" fill="rgb(239,132,53)" rx="2" ry="2" />
<text  x="1019.74" y="63.5" >iflib_encap</text>
</g>
<g >
<title>ether_demux (2,869 samples, 13.27%)</title><rect x="1016.7" y="213" width="156.6" height="15.0" fill="rgb(253,88,43)" rx="2" ry="2" />
<text  x="1019.74" y="223.5" >ether_demux</text>
</g>
<g >
<title>bounce_bus_dmamap_load_buffer (291 samples, 1.35%)</title><rect x="66.7" y="37" width="15.9" height="15.0" fill="rgb(213,129,44)" rx="2" ry="2" />
<text  x="69.70" y="47.5" ></text>
</g>
<g >
<title>microuptime (390 samples, 1.80%)</title><rect x="834.7" y="53" width="21.3" height="15.0" fill="rgb(205,79,39)" rx="2" ry="2" />
<text  x="837.68" y="63.5" >m..</text>
</g>
<g >
<title>ifmp_ring_enqueue (291 samples, 1.35%)</title><rect x="66.7" y="117" width="15.9" height="15.0" fill="rgb(248,52,14)" rx="2" ry="2" />
<text  x="69.70" y="127.5" ></text>
</g>
<g >
<title>grouptaskqueue_enqueue (267 samples, 1.23%)</title><rect x="82.6" y="213" width="14.6" height="15.0" fill="rgb(245,157,4)" rx="2" ry="2" />
<text  x="85.63" y="223.5" ></text>
</g>
<g >
<title>ip6_input (1,039 samples, 4.81%)</title><rect x="10.0" y="165" width="56.7" height="15.0" fill="rgb(205,94,21)" rx="2" ry="2" />
<text  x="13.00" y="175.5" >ip6_in..</text>
</g>
<g >
<title>netisr_dispatch_src (2,869 samples, 13.27%)</title><rect x="1016.7" y="245" width="156.6" height="15.0" fill="rgb(248,32,0)" rx="2" ry="2" />
<text  x="1019.74" y="255.5" >netisr_dispatch_src</text>
</g>
<g >
<title>ip6_input (306 samples, 1.42%)</title><rect x="1173.3" y="213" width="16.7" height="15.0" fill="rgb(227,117,5)" rx="2" ry="2" />
<text  x="1176.30" y="223.5" ></text>
</g>
<g >
<title>ifmp_ring_enqueue (1,035 samples, 4.79%)</title><rect x="867.1" y="53" width="56.5" height="15.0" fill="rgb(231,227,54)" rx="2" ry="2" />
<text  x="870.10" y="63.5" >ifmp_..</text>
</g>
<g >
<title>murmur3_32_hash32 (2 samples, 0.01%)</title><rect x="935.0" y="37" width="0.2" height="15.0" fill="rgb(228,157,15)" rx="2" ry="2" />
<text  x="938.04" y="47.5" ></text>
</g>
<g >
<title>ether_output_frame (306 samples, 1.42%)</title><rect x="1173.3" y="165" width="16.7" height="15.0" fill="rgb(225,165,44)" rx="2" ry="2" />
<text  x="1176.30" y="175.5" ></text>
</g>
<g >
<title>pf_test_state (161 samples, 0.74%)</title><rect x="659.3" y="37" width="8.8" height="15.0" fill="rgb(218,205,2)" rx="2" ry="2" />
<text  x="662.29" y="47.5" ></text>
</g>
<g >
<title>_task_fn_rx (2,742 samples, 12.68%)</title><rect x="867.1" y="245" width="149.6" height="15.0" fill="rgb(214,155,41)" rx="2" ry="2" />
<text  x="870.10" y="255.5" >_task_fn_rx</text>
</g>
<g >
<title>iflib_txq_drain (1,037 samples, 4.80%)</title><rect x="10.0" y="53" width="56.6" height="15.0" fill="rgb(238,131,21)" rx="2" ry="2" />
<text  x="13.00" y="63.5" >iflib..</text>
</g>
<g >
<title>ether_output_frame (419 samples, 1.94%)</title><rect x="325.7" y="69" width="22.9" height="15.0" fill="rgb(254,20,42)" rx="2" ry="2" />
<text  x="328.70" y="79.5" >e..</text>
</g>
<g >
<title>ip6_input (12,050 samples, 55.73%)</title><rect x="97.2" y="117" width="657.6" height="15.0" fill="rgb(214,138,23)" rx="2" ry="2" />
<text  x="100.21" y="127.5" >ip6_input</text>
</g>
<g >
<title>ixl_isc_txd_encap (2,382 samples, 11.02%)</title><rect x="1016.7" y="37" width="130.0" height="15.0" fill="rgb(236,189,17)" rx="2" ry="2" />
<text  x="1019.74" y="47.5" >ixl_isc_txd_encap</text>
</g>
<g >
<title>ether_nh_input (12,050 samples, 55.73%)</title><rect x="97.2" y="165" width="657.6" height="15.0" fill="rgb(210,170,24)" rx="2" ry="2" />
<text  x="100.21" y="175.5" >ether_nh_input</text>
</g>
<g >
<title>gtaskqueue_run_locked (2,742 samples, 12.68%)</title><rect x="867.1" y="261" width="149.6" height="15.0" fill="rgb(206,164,17)" rx="2" ry="2" />
<text  x="870.10" y="271.5" >gtaskqueue_run_locked</text>
</g>
<g >
<title>netisr_dispatch_src (2,742 samples, 12.68%)</title><rect x="867.1" y="149" width="149.6" height="15.0" fill="rgb(211,148,10)" rx="2" ry="2" />
<text  x="870.10" y="159.5" >netisr_dispatch_src</text>
</g>
<g >
<title>netisr_dispatch_src (2,057 samples, 9.51%)</title><rect x="754.8" y="213" width="112.3" height="15.0" fill="rgb(214,49,33)" rx="2" ry="2" />
<text  x="757.85" y="223.5" >netisr_dispat..</text>
</g>
<g >
<title>uma_zfree_arg (306 samples, 1.42%)</title><rect x="1173.3" y="37" width="16.7" height="15.0" fill="rgb(206,92,8)" rx="2" ry="2" />
<text  x="1176.30" y="47.5" ></text>
</g>
<g >
<title>ether_output (1,037 samples, 4.80%)</title><rect x="10.0" y="133" width="56.6" height="15.0" fill="rgb(215,30,3)" rx="2" ry="2" />
<text  x="13.00" y="143.5" >ether..</text>
</g>
<g >
<title>gtaskqueue_run_locked (12,318 samples, 56.97%)</title><rect x="82.6" y="245" width="672.2" height="15.0" fill="rgb(215,118,40)" rx="2" ry="2" />
<text  x="85.63" y="255.5" >gtaskqueue_run_locked</text>
</g>
<g >
<title>iflib_completed_tx_reclaim (358 samples, 1.66%)</title><rect x="10.0" y="37" width="19.5" height="15.0" fill="rgb(230,4,11)" rx="2" ry="2" />
<text  x="13.00" y="47.5" ></text>
</g>
<g >
<title>ether_output (1,035 samples, 4.79%)</title><rect x="867.1" y="101" width="56.5" height="15.0" fill="rgb(251,208,4)" rx="2" ry="2" />
<text  x="870.10" y="111.5" >ether..</text>
</g>
<g >
<title>ether_nh_input (2,742 samples, 12.68%)</title><rect x="867.1" y="181" width="149.6" height="15.0" fill="rgb(207,74,6)" rx="2" ry="2" />
<text  x="870.10" y="191.5" >ether_nh_input</text>
</g>
<g >
<title>gtaskqueue_thread_loop (12,318 samples, 56.97%)</title><rect x="82.6" y="261" width="672.2" height="15.0" fill="rgb(226,86,25)" rx="2" ry="2" />
<text  x="85.63" y="271.5" >gtaskqueue_thread_loop</text>
</g>
</g>
</svg>
