<?xml version="1.0" standalone="no"?>
<!DOCTYPE svg PUBLIC "-//W3C//DTD SVG 1.1//EN" "http://www.w3.org/Graphics/SVG/1.1/DTD/svg11.dtd">
<svg version="1.1" width="1200" height="342" onload="init(evt)" viewBox="0 0 1200 342" xmlns="http://www.w3.org/2000/svg" xmlns:xlink="http://www.w3.org/1999/xlink">
<!-- Flame graph stack visualization. See https://github.com/brendangregg/FlameGraph for latest version, and http://www.brendangregg.com/flamegraphs.html for examples. -->
<!-- NOTES:  -->
<defs>
	<linearGradient id="background" y1="0" y2="1" x1="0" x2="0" >
		<stop stop-color="#eeeeee" offset="5%" />
		<stop stop-color="#eeeeb0" offset="95%" />
	</linearGradient>
</defs>
<style type="text/css">
	text { font-family:Verdana; font-size:12px; fill:rgb(0,0,0); }
	#search, #ignorecase { opacity:0.1; cursor:pointer; }
	#search:hover, #search.show, #ignorecase:hover, #ignorecase.show { opacity:1; }
	#subtitle { text-anchor:middle; font-color:rgb(160,160,160); }
	#title { text-anchor:middle; font-size:17px}
	#unzoom { cursor:pointer; }
	#frames > *:hover { stroke:black; stroke-width:0.5; cursor:pointer; }
	.hide { display:none; }
	.parent { opacity:0.5; }
</style>
<script type="text/ecmascript">
<![CDATA[
	"use strict";
	var details, searchbtn, unzoombtn, matchedtxt, svg, searching, currentSearchTerm, ignorecase, ignorecaseBtn;
	function init(evt) {
		details = document.getElementById("details").firstChild;
		searchbtn = document.getElementById("search");
		ignorecaseBtn = document.getElementById("ignorecase");
		unzoombtn = document.getElementById("unzoom");
		matchedtxt = document.getElementById("matched");
		svg = document.getElementsByTagName("svg")[0];
		searching = 0;
		currentSearchTerm = null;

		// use GET parameters to restore a flamegraphs state.
		var params = get_params();
		if (params.x && params.y)
			zoom(find_group(document.querySelector('[x="' + params.x + '"][y="' + params.y + '"]')));
                if (params.s) search(params.s);
	}

	// event listeners
	window.addEventListener("click", function(e) {
		var target = find_group(e.target);
		if (target) {
			if (target.nodeName == "a") {
				if (e.ctrlKey === false) return;
				e.preventDefault();
			}
			if (target.classList.contains("parent")) unzoom();
			zoom(target);
			if (!document.querySelector('.parent')) {
				clearzoom();
				return;
			}

			// set parameters for zoom state
			var el = target.querySelector("rect");
			if (el && el.attributes && el.attributes.y && el.attributes._orig_x) {
				var params = get_params()
				params.x = el.attributes._orig_x.value;
				params.y = el.attributes.y.value;
				history.replaceState(null, null, parse_params(params));
			}
		}
		else if (e.target.id == "unzoom") clearzoom();
		else if (e.target.id == "search") search_prompt();
		else if (e.target.id == "ignorecase") toggle_ignorecase();
	}, false)

	// mouse-over for info
	// show
	window.addEventListener("mouseover", function(e) {
		var target = find_group(e.target);
		if (target) details.nodeValue = "Function: " + g_to_text(target);
	}, false)

	// clear
	window.addEventListener("mouseout", function(e) {
		var target = find_group(e.target);
		if (target) details.nodeValue = ' ';
	}, false)

	// ctrl-F for search
	// ctrl-I to toggle case-sensitive search
	window.addEventListener("keydown",function (e) {
		if (e.keyCode === 114 || (e.ctrlKey && e.keyCode === 70)) {
			e.preventDefault();
			search_prompt();
		}
		else if (e.ctrlKey && e.keyCode === 73) {
			e.preventDefault();
			toggle_ignorecase();
		}
	}, false)

	// functions
	function get_params() {
		var params = {};
		var paramsarr = window.location.search.substr(1).split('&');
		for (var i = 0; i < paramsarr.length; ++i) {
			var tmp = paramsarr[i].split("=");
			if (!tmp[0] || !tmp[1]) continue;
			params[tmp[0]]  = decodeURIComponent(tmp[1]);
		}
		return params;
	}
	function parse_params(params) {
		var uri = "?";
		for (var key in params) {
			uri += key + '=' + encodeURIComponent(params[key]) + '&';
		}
		if (uri.slice(-1) == "&")
			uri = uri.substring(0, uri.length - 1);
		if (uri == '?')
			uri = window.location.href.split('?')[0];
		return uri;
	}
	function find_child(node, selector) {
		var children = node.querySelectorAll(selector);
		if (children.length) return children[0];
	}
	function find_group(node) {
		var parent = node.parentElement;
		if (!parent) return;
		if (parent.id == "frames") return node;
		return find_group(parent);
	}
	function orig_save(e, attr, val) {
		if (e.attributes["_orig_" + attr] != undefined) return;
		if (e.attributes[attr] == undefined) return;
		if (val == undefined) val = e.attributes[attr].value;
		e.setAttribute("_orig_" + attr, val);
	}
	function orig_load(e, attr) {
		if (e.attributes["_orig_"+attr] == undefined) return;
		e.attributes[attr].value = e.attributes["_orig_" + attr].value;
		e.removeAttribute("_orig_"+attr);
	}
	function g_to_text(e) {
		var text = find_child(e, "title").firstChild.nodeValue;
		return (text)
	}
	function g_to_func(e) {
		var func = g_to_text(e);
		// if there's any manipulation we want to do to the function
		// name before it's searched, do it here before returning.
		return (func);
	}
	function update_text(e) {
		var r = find_child(e, "rect");
		var t = find_child(e, "text");
		var w = parseFloat(r.attributes.width.value) -3;
		var txt = find_child(e, "title").textContent.replace(/\([^(]*\)$/,"");
		t.attributes.x.value = parseFloat(r.attributes.x.value) + 3;

		// Smaller than this size won't fit anything
		if (w < 2 * 12 * 0.59) {
			t.textContent = "";
			return;
		}

		t.textContent = txt;
		// Fit in full text width
		if (/^ *$/.test(txt) || t.getSubStringLength(0, txt.length) < w)
			return;

		for (var x = txt.length - 2; x > 0; x--) {
			if (t.getSubStringLength(0, x + 2) <= w) {
				t.textContent = txt.substring(0, x) + "..";
				return;
			}
		}
		t.textContent = "";
	}

	// zoom
	function zoom_reset(e) {
		if (e.attributes != undefined) {
			orig_load(e, "x");
			orig_load(e, "width");
		}
		if (e.childNodes == undefined) return;
		for (var i = 0, c = e.childNodes; i < c.length; i++) {
			zoom_reset(c[i]);
		}
	}
	function zoom_child(e, x, ratio) {
		if (e.attributes != undefined) {
			if (e.attributes.x != undefined) {
				orig_save(e, "x");
				e.attributes.x.value = (parseFloat(e.attributes.x.value) - x - 10) * ratio + 10;
				if (e.tagName == "text")
					e.attributes.x.value = find_child(e.parentNode, "rect[x]").attributes.x.value + 3;
			}
			if (e.attributes.width != undefined) {
				orig_save(e, "width");
				e.attributes.width.value = parseFloat(e.attributes.width.value) * ratio;
			}
		}

		if (e.childNodes == undefined) return;
		for (var i = 0, c = e.childNodes; i < c.length; i++) {
			zoom_child(c[i], x - 10, ratio);
		}
	}
	function zoom_parent(e) {
		if (e.attributes) {
			if (e.attributes.x != undefined) {
				orig_save(e, "x");
				e.attributes.x.value = 10;
			}
			if (e.attributes.width != undefined) {
				orig_save(e, "width");
				e.attributes.width.value = parseInt(svg.width.baseVal.value) - (10 * 2);
			}
		}
		if (e.childNodes == undefined) return;
		for (var i = 0, c = e.childNodes; i < c.length; i++) {
			zoom_parent(c[i]);
		}
	}
	function zoom(node) {
		var attr = find_child(node, "rect").attributes;
		var width = parseFloat(attr.width.value);
		var xmin = parseFloat(attr.x.value);
		var xmax = parseFloat(xmin + width);
		var ymin = parseFloat(attr.y.value);
		var ratio = (svg.width.baseVal.value - 2 * 10) / width;

		// XXX: Workaround for JavaScript float issues (fix me)
		var fudge = 0.0001;

		unzoombtn.classList.remove("hide");

		var el = document.getElementById("frames").children;
		for (var i = 0; i < el.length; i++) {
			var e = el[i];
			var a = find_child(e, "rect").attributes;
			var ex = parseFloat(a.x.value);
			var ew = parseFloat(a.width.value);
			var upstack;
			// Is it an ancestor
			if (0 == 0) {
				upstack = parseFloat(a.y.value) > ymin;
			} else {
				upstack = parseFloat(a.y.value) < ymin;
			}
			if (upstack) {
				// Direct ancestor
				if (ex <= xmin && (ex+ew+fudge) >= xmax) {
					e.classList.add("parent");
					zoom_parent(e);
					update_text(e);
				}
				// not in current path
				else
					e.classList.add("hide");
			}
			// Children maybe
			else {
				// no common path
				if (ex < xmin || ex + fudge >= xmax) {
					e.classList.add("hide");
				}
				else {
					zoom_child(e, xmin, ratio);
					update_text(e);
				}
			}
		}
		search();
	}
	function unzoom() {
		unzoombtn.classList.add("hide");
		var el = document.getElementById("frames").children;
		for(var i = 0; i < el.length; i++) {
			el[i].classList.remove("parent");
			el[i].classList.remove("hide");
			zoom_reset(el[i]);
			update_text(el[i]);
		}
		search();
	}
	function clearzoom() {
		unzoom();

		// remove zoom state
		var params = get_params();
		if (params.x) delete params.x;
		if (params.y) delete params.y;
		history.replaceState(null, null, parse_params(params));
	}

	// search
	function toggle_ignorecase() {
		ignorecase = !ignorecase;
		if (ignorecase) {
			ignorecaseBtn.classList.add("show");
		} else {
			ignorecaseBtn.classList.remove("show");
		}
		reset_search();
		search();
	}
	function reset_search() {
		var el = document.querySelectorAll("#frames rect");
		for (var i = 0; i < el.length; i++) {
			orig_load(el[i], "fill")
		}
		var params = get_params();
		delete params.s;
		history.replaceState(null, null, parse_params(params));
	}
	function search_prompt() {
		if (!searching) {
			var term = prompt("Enter a search term (regexp " +
			    "allowed, eg: ^ext4_)"
			    + (ignorecase ? ", ignoring case" : "")
			    + "\nPress Ctrl-i to toggle case sensitivity", "");
			if (term != null) search(term);
		} else {
			reset_search();
			searching = 0;
			currentSearchTerm = null;
			searchbtn.classList.remove("show");
			searchbtn.firstChild.nodeValue = "Search"
			matchedtxt.classList.add("hide");
			matchedtxt.firstChild.nodeValue = ""
		}
	}
	function search(term) {
		if (term) currentSearchTerm = term;

		var re = new RegExp(currentSearchTerm, ignorecase ? 'i' : '');
		var el = document.getElementById("frames").children;
		var matches = new Object();
		var maxwidth = 0;
		for (var i = 0; i < el.length; i++) {
			var e = el[i];
			var func = g_to_func(e);
			var rect = find_child(e, "rect");
			if (func == null || rect == null)
				continue;

			// Save max width. Only works as we have a root frame
			var w = parseFloat(rect.attributes.width.value);
			if (w > maxwidth)
				maxwidth = w;

			if (func.match(re)) {
				// highlight
				var x = parseFloat(rect.attributes.x.value);
				orig_save(rect, "fill");
				rect.attributes.fill.value = "rgb(230,0,230)";

				// remember matches
				if (matches[x] == undefined) {
					matches[x] = w;
				} else {
					if (w > matches[x]) {
						// overwrite with parent
						matches[x] = w;
					}
				}
				searching = 1;
			}
		}
		if (!searching)
			return;
		var params = get_params();
		params.s = currentSearchTerm;
		history.replaceState(null, null, parse_params(params));

		searchbtn.classList.add("show");
		searchbtn.firstChild.nodeValue = "Reset Search";

		// calculate percent matched, excluding vertical overlap
		var count = 0;
		var lastx = -1;
		var lastw = 0;
		var keys = Array();
		for (k in matches) {
			if (matches.hasOwnProperty(k))
				keys.push(k);
		}
		// sort the matched frames by their x location
		// ascending, then width descending
		keys.sort(function(a, b){
			return a - b;
		});
		// Step through frames saving only the biggest bottom-up frames
		// thanks to the sort order. This relies on the tree property
		// where children are always smaller than their parents.
		var fudge = 0.0001;	// JavaScript floating point
		for (var k in keys) {
			var x = parseFloat(keys[k]);
			var w = matches[keys[k]];
			if (x >= lastx + lastw - fudge) {
				count += w;
				lastx = x;
				lastw = w;
			}
		}
		// display matched percent
		matchedtxt.classList.remove("hide");
		var pct = 100 * count / maxwidth;
		if (pct != 100) pct = pct.toFixed(1)
		matchedtxt.firstChild.nodeValue = "Matched: " + pct + "%";
	}
]]>
</script>
<rect x="0.0" y="0" width="1200.0" height="342.0" fill="url(#background)"  />
<text id="title" x="600.00" y="24" >Flame Graph</text>
<text id="details" x="10.00" y="325" > </text>
<text id="unzoom" x="10.00" y="24" class="hide">Reset Zoom</text>
<text id="search" x="1090.00" y="24" >Search</text>
<text id="ignorecase" x="1174.00" y="24" >ic</text>
<text id="matched" x="1090.00" y="325" > </text>
<g id="frames">
<g >
<title>ipfw_dyn_lookup_state (99 samples, 0.41%)</title><rect x="890.3" y="69" width="4.8" height="15.0" fill="rgb(227,149,14)" rx="2" ry="2" />
<text  x="893.27" y="79.5" ></text>
</g>
<g >
<title>hash_packet (80 samples, 0.33%)</title><rect x="895.1" y="53" width="4.0" height="15.0" fill="rgb(242,29,49)" rx="2" ry="2" />
<text  x="898.15" y="63.5" ></text>
</g>
<g >
<title>ether_nh_input (654 samples, 2.73%)</title><rect x="866.9" y="197" width="32.2" height="15.0" fill="rgb(237,117,10)" rx="2" ry="2" />
<text  x="869.86" y="207.5" >et..</text>
</g>
<g >
<title>iflib_rxeof (1,375 samples, 5.74%)</title><rect x="10.0" y="261" width="67.8" height="15.0" fill="rgb(216,79,32)" rx="2" ry="2" />
<text  x="13.00" y="271.5" >iflib_r..</text>
</g>
<g >
<title>all (23,948 samples, 100%)</title><rect x="10.0" y="293" width="1180.0" height="15.0" fill="rgb(250,20,42)" rx="2" ry="2" />
<text  x="13.00" y="303.5" ></text>
</g>
<g >
<title>iflib_encap (220 samples, 0.92%)</title><rect x="37.5" y="37" width="10.9" height="15.0" fill="rgb(211,190,42)" rx="2" ry="2" />
<text  x="40.54" y="47.5" ></text>
</g>
<g >
<title>memcpy_erms (41 samples, 0.17%)</title><rect x="852.9" y="197" width="2.0" height="15.0" fill="rgb(249,13,26)" rx="2" ry="2" />
<text  x="855.87" y="207.5" ></text>
</g>
<g >
<title>iflib_rxeof (3,347 samples, 13.98%)</title><rect x="1014.8" y="277" width="165.0" height="15.0" fill="rgb(254,21,44)" rx="2" ry="2" />
<text  x="1017.83" y="287.5" >iflib_rxeof</text>
</g>
<g >
<title>iflib_encap (308 samples, 1.29%)</title><rect x="77.8" y="69" width="15.1" height="15.0" fill="rgb(246,81,25)" rx="2" ry="2" />
<text  x="80.75" y="79.5" ></text>
</g>
<g >
<title>ipfw_chk (466 samples, 1.95%)</title><rect x="991.9" y="69" width="22.9" height="15.0" fill="rgb(232,95,50)" rx="2" ry="2" />
<text  x="994.87" y="79.5" >i..</text>
</g>
<g >
<title>memcmp (8 samples, 0.03%)</title><rect x="898.7" y="37" width="0.4" height="15.0" fill="rgb(232,40,7)" rx="2" ry="2" />
<text  x="901.70" y="47.5" ></text>
</g>
<g >
<title>netisr_dispatch_src (308 samples, 1.29%)</title><rect x="77.8" y="213" width="15.1" height="15.0" fill="rgb(235,97,17)" rx="2" ry="2" />
<text  x="80.75" y="223.5" ></text>
</g>
<g >
<title>ip6_input (14,598 samples, 60.96%)</title><rect x="123.2" y="117" width="719.3" height="15.0" fill="rgb(233,158,30)" rx="2" ry="2" />
<text  x="126.23" y="127.5" >ip6_input</text>
</g>
<g >
<title>ip6_tryforward (14,189 samples, 59.25%)</title><rect x="143.4" y="101" width="699.1" height="15.0" fill="rgb(230,149,33)" rx="2" ry="2" />
<text  x="146.38" y="111.5" >ip6_tryforward</text>
</g>
<g >
<title>drain_ring_lockless (208 samples, 0.87%)</title><rect x="1179.8" y="117" width="10.2" height="15.0" fill="rgb(236,63,7)" rx="2" ry="2" />
<text  x="1182.75" y="127.5" ></text>
</g>
<g >
<title>netisr_dispatch_src (208 samples, 0.87%)</title><rect x="1179.8" y="229" width="10.2" height="15.0" fill="rgb(251,8,49)" rx="2" ry="2" />
<text  x="1182.75" y="239.5" ></text>
</g>
<g >
<title>ip6_input (130 samples, 0.54%)</title><rect x="92.9" y="229" width="6.4" height="15.0" fill="rgb(228,83,52)" rx="2" ry="2" />
<text  x="95.93" y="239.5" ></text>
</g>
<g >
<title>rxd_frag_to_sd (243 samples, 1.01%)</title><rect x="854.9" y="197" width="12.0" height="15.0" fill="rgb(220,99,34)" rx="2" ry="2" />
<text  x="857.89" y="207.5" ></text>
</g>
<g >
<title>fib6_lookup (572 samples, 2.39%)</title><rect x="427.3" y="69" width="28.2" height="15.0" fill="rgb(222,116,16)" rx="2" ry="2" />
<text  x="430.35" y="79.5" >f..</text>
</g>
<g >
<title>_rm_runlock (13 samples, 0.05%)</title><rect x="804.3" y="37" width="0.6" height="15.0" fill="rgb(229,102,15)" rx="2" ry="2" />
<text  x="807.29" y="47.5" ></text>
</g>
<g >
<title>iflib_txd_db_check (596 samples, 2.49%)</title><rect x="48.4" y="37" width="29.4" height="15.0" fill="rgb(216,13,42)" rx="2" ry="2" />
<text  x="51.38" y="47.5" >if..</text>
</g>
<g >
<title>gtaskqueue_run_locked (2,349 samples, 9.81%)</title><rect x="899.1" y="261" width="115.7" height="15.0" fill="rgb(247,30,18)" rx="2" ry="2" />
<text  x="902.09" y="271.5" >gtaskqueue_run..</text>
</g>
<g >
<title>_rm_runlock (14 samples, 0.06%)</title><rect x="669.8" y="37" width="0.7" height="15.0" fill="rgb(249,86,8)" rx="2" ry="2" />
<text  x="672.82" y="47.5" ></text>
</g>
<g >
<title>lradix6_lookup (572 samples, 2.39%)</title><rect x="427.3" y="53" width="28.2" height="15.0" fill="rgb(242,91,28)" rx="2" ry="2" />
<text  x="430.35" y="63.5" >l..</text>
</g>
<g >
<title>netisr_dispatch_src (130 samples, 0.54%)</title><rect x="92.9" y="245" width="6.4" height="15.0" fill="rgb(221,205,43)" rx="2" ry="2" />
<text  x="95.93" y="255.5" ></text>
</g>
<g >
<title>netisr_dispatch_src (654 samples, 2.73%)</title><rect x="866.9" y="165" width="32.2" height="15.0" fill="rgb(253,39,5)" rx="2" ry="2" />
<text  x="869.86" y="175.5" >ne..</text>
</g>
<g >
<title>netisr_dispatch_src (2,349 samples, 9.81%)</title><rect x="899.1" y="149" width="115.7" height="15.0" fill="rgb(235,216,5)" rx="2" ry="2" />
<text  x="902.09" y="159.5" >netisr_dispatc..</text>
</g>
<g >
<title>ipfw_dyn_install_state (5 samples, 0.02%)</title><rect x="890.0" y="69" width="0.3" height="15.0" fill="rgb(208,184,45)" rx="2" ry="2" />
<text  x="893.02" y="79.5" ></text>
</g>
<g >
<title>ifmp_ring_enqueue (208 samples, 0.87%)</title><rect x="1179.8" y="133" width="10.2" height="15.0" fill="rgb(247,142,53)" rx="2" ry="2" />
<text  x="1182.75" y="143.5" ></text>
</g>
<g >
<title>iflib_rxeof (15,290 samples, 63.85%)</title><rect x="113.5" y="213" width="753.4" height="15.0" fill="rgb(252,189,5)" rx="2" ry="2" />
<text  x="116.47" y="223.5" >iflib_rxeof</text>
</g>
<g >
<title>ether_output_frame (3,347 samples, 13.98%)</title><rect x="1014.8" y="133" width="165.0" height="15.0" fill="rgb(247,207,20)" rx="2" ry="2" />
<text  x="1017.83" y="143.5" >ether_output_frame</text>
</g>
<g >
<title>ether_output_frame (1,375 samples, 5.74%)</title><rect x="10.0" y="117" width="67.8" height="15.0" fill="rgb(226,91,39)" rx="2" ry="2" />
<text  x="13.00" y="127.5" >ether_o..</text>
</g>
<g >
<title>hash_packet (99 samples, 0.41%)</title><rect x="890.3" y="53" width="4.8" height="15.0" fill="rgb(235,116,17)" rx="2" ry="2" />
<text  x="893.27" y="63.5" ></text>
</g>
<g >
<title>nd6_resolve (142 samples, 0.59%)</title><rect x="377.1" y="69" width="7.0" height="15.0" fill="rgb(237,74,41)" rx="2" ry="2" />
<text  x="380.09" y="79.5" ></text>
</g>
<g >
<title>dyn_update_proto_state (103 samples, 0.43%)</title><rect x="955.0" y="37" width="5.1" height="15.0" fill="rgb(231,132,3)" rx="2" ry="2" />
<text  x="958.02" y="47.5" ></text>
</g>
<g >
<title>_rm_runlock (203 samples, 0.85%)</title><rect x="417.3" y="69" width="10.0" height="15.0" fill="rgb(215,161,51)" rx="2" ry="2" />
<text  x="420.34" y="79.5" ></text>
</g>
<g >
<title>ether_output_frame (1,135 samples, 4.74%)</title><rect x="899.1" y="85" width="55.9" height="15.0" fill="rgb(234,128,53)" rx="2" ry="2" />
<text  x="902.09" y="95.5" >ether..</text>
</g>
<g >
<title>ether_output_frame (208 samples, 0.87%)</title><rect x="1179.8" y="165" width="10.2" height="15.0" fill="rgb(205,130,44)" rx="2" ry="2" />
<text  x="1182.75" y="175.5" ></text>
</g>
<g >
<title>ifmp_ring_enqueue (1,375 samples, 5.74%)</title><rect x="10.0" y="85" width="67.8" height="15.0" fill="rgb(227,201,12)" rx="2" ry="2" />
<text  x="13.00" y="95.5" >ifmp_ri..</text>
</g>
<g >
<title>ether_input (2,349 samples, 9.81%)</title><rect x="899.1" y="213" width="115.7" height="15.0" fill="rgb(237,194,16)" rx="2" ry="2" />
<text  x="902.09" y="223.5" >ether_input</text>
</g>
<g >
<title>ipfw_chk (104 samples, 0.43%)</title><rect x="890.0" y="85" width="5.1" height="15.0" fill="rgb(212,67,31)" rx="2" ry="2" />
<text  x="893.02" y="95.5" ></text>
</g>
<g >
<title>uma_zfree_arg (208 samples, 0.87%)</title><rect x="1179.8" y="37" width="10.2" height="15.0" fill="rgb(228,147,15)" rx="2" ry="2" />
<text  x="1182.75" y="47.5" ></text>
</g>
<g >
<title>pfil_mbuf_in (104 samples, 0.43%)</title><rect x="890.0" y="117" width="5.1" height="15.0" fill="rgb(233,113,34)" rx="2" ry="2" />
<text  x="893.02" y="127.5" ></text>
</g>
<g >
<title>ether_output_frame (437 samples, 1.82%)</title><rect x="344.0" y="69" width="21.5" height="15.0" fill="rgb(229,92,42)" rx="2" ry="2" />
<text  x="346.98" y="79.5" >e..</text>
</g>
<g >
<title>iflib_if_transmit (208 samples, 0.87%)</title><rect x="1179.8" y="149" width="10.2" height="15.0" fill="rgb(213,77,49)" rx="2" ry="2" />
<text  x="1182.75" y="159.5" ></text>
</g>
<g >
<title>fork_exit (15,577 samples, 65.05%)</title><rect x="99.3" y="277" width="767.6" height="15.0" fill="rgb(224,183,28)" rx="2" ry="2" />
<text  x="102.33" y="287.5" >fork_exit</text>
</g>
<g >
<title>gtaskqueue_thread_loop (15,577 samples, 65.05%)</title><rect x="99.3" y="261" width="767.6" height="15.0" fill="rgb(252,115,52)" rx="2" ry="2" />
<text  x="102.33" y="271.5" >gtaskqueue_thread_loop</text>
</g>
<g >
<title>jenkins_hash32 (4 samples, 0.02%)</title><rect x="890.0" y="37" width="0.2" height="15.0" fill="rgb(220,214,52)" rx="2" ry="2" />
<text  x="893.02" y="47.5" ></text>
</g>
<g >
<title>ipfw_check_packet (80 samples, 0.33%)</title><rect x="895.1" y="101" width="4.0" height="15.0" fill="rgb(250,53,38)" rx="2" ry="2" />
<text  x="898.15" y="111.5" ></text>
</g>
<g >
<title>ether_input (654 samples, 2.73%)</title><rect x="866.9" y="229" width="32.2" height="15.0" fill="rgb(219,88,11)" rx="2" ry="2" />
<text  x="869.86" y="239.5" >et..</text>
</g>
<g >
<title>ether_demux (14,598 samples, 60.96%)</title><rect x="123.2" y="149" width="719.3" height="15.0" fill="rgb(205,71,44)" rx="2" ry="2" />
<text  x="126.23" y="159.5" >ether_demux</text>
</g>
<g >
<title>iflib_txq_drain (308 samples, 1.29%)</title><rect x="77.8" y="85" width="15.1" height="15.0" fill="rgb(224,227,18)" rx="2" ry="2" />
<text  x="80.75" y="95.5" ></text>
</g>
<g >
<title>memcmp (16 samples, 0.07%)</title><rect x="455.5" y="85" width="0.8" height="15.0" fill="rgb(230,2,28)" rx="2" ry="2" />
<text  x="458.53" y="95.5" ></text>
</g>
<g >
<title>ether_nh_input (208 samples, 0.87%)</title><rect x="1179.8" y="261" width="10.2" height="15.0" fill="rgb(243,211,46)" rx="2" ry="2" />
<text  x="1182.75" y="271.5" ></text>
</g>
<g >
<title>ether_output (814 samples, 3.40%)</title><rect x="344.0" y="85" width="40.1" height="15.0" fill="rgb(237,5,41)" rx="2" ry="2" />
<text  x="346.98" y="95.5" >eth..</text>
</g>
<g >
<title>ip6_input (654 samples, 2.73%)</title><rect x="866.9" y="149" width="32.2" height="15.0" fill="rgb(233,87,21)" rx="2" ry="2" />
<text  x="869.86" y="159.5" >ip..</text>
</g>
<g >
<title>ether_output_frame (308 samples, 1.29%)</title><rect x="77.8" y="149" width="15.1" height="15.0" fill="rgb(206,88,46)" rx="2" ry="2" />
<text  x="80.75" y="159.5" ></text>
</g>
<g >
<title>jenkins_hash32 (81 samples, 0.34%)</title><rect x="890.3" y="37" width="4.0" height="15.0" fill="rgb(213,113,51)" rx="2" ry="2" />
<text  x="893.27" y="47.5" ></text>
</g>
<g >
<title>ether_output (1,375 samples, 5.74%)</title><rect x="10.0" y="133" width="67.8" height="15.0" fill="rgb(236,53,26)" rx="2" ry="2" />
<text  x="13.00" y="143.5" >ether_o..</text>
</g>
<g >
<title>ether_demux (208 samples, 0.87%)</title><rect x="1179.8" y="245" width="10.2" height="15.0" fill="rgb(217,52,28)" rx="2" ry="2" />
<text  x="1182.75" y="255.5" ></text>
</g>
<g >
<title>netisr_dispatch_src (14,598 samples, 60.96%)</title><rect x="123.2" y="133" width="719.3" height="15.0" fill="rgb(248,203,26)" rx="2" ry="2" />
<text  x="126.23" y="143.5" >netisr_dispatch_src</text>
</g>
<g >
<title>ipfw_dyn_lookup_state (1,115 samples, 4.66%)</title><rect x="670.5" y="37" width="55.0" height="15.0" fill="rgb(215,85,32)" rx="2" ry="2" />
<text  x="673.51" y="47.5" >ipfw_..</text>
</g>
<g >
<title>ixl_isc_txd_encap (2,547 samples, 10.64%)</title><rect x="1022.5" y="37" width="125.5" height="15.0" fill="rgb(221,83,16)" rx="2" ry="2" />
<text  x="1025.47" y="47.5" >ixl_isc_txd_encap</text>
</g>
<g >
<title>iflib_encap (2,547 samples, 10.64%)</title><rect x="1022.5" y="53" width="125.5" height="15.0" fill="rgb(254,219,31)" rx="2" ry="2" />
<text  x="1025.47" y="63.5" >iflib_encap</text>
</g>
<g >
<title>ip6_findroute (572 samples, 2.39%)</title><rect x="427.3" y="85" width="28.2" height="15.0" fill="rgb(213,66,6)" rx="2" ry="2" />
<text  x="430.35" y="95.5" >i..</text>
</g>
<g >
<title>ipfw_check_packet (748 samples, 3.12%)</title><rect x="955.0" y="85" width="36.9" height="15.0" fill="rgb(211,77,45)" rx="2" ry="2" />
<text  x="958.02" y="95.5" >ipf..</text>
</g>
<g >
<title>ixl_isc_txd_credits_update_hwb (155 samples, 0.65%)</title><rect x="1014.8" y="37" width="7.7" height="15.0" fill="rgb(206,42,0)" rx="2" ry="2" />
<text  x="1017.83" y="47.5" ></text>
</g>
<g >
<title>memcmp (417 samples, 1.74%)</title><rect x="994.3" y="37" width="20.5" height="15.0" fill="rgb(216,17,41)" rx="2" ry="2" />
<text  x="997.29" y="47.5" ></text>
</g>
<g >
<title>ether_nh_input (2,349 samples, 9.81%)</title><rect x="899.1" y="181" width="115.7" height="15.0" fill="rgb(221,82,20)" rx="2" ry="2" />
<text  x="902.09" y="191.5" >ether_nh_input</text>
</g>
<g >
<title>ipfw_check_packet (466 samples, 1.95%)</title><rect x="991.9" y="85" width="22.9" height="15.0" fill="rgb(249,189,41)" rx="2" ry="2" />
<text  x="994.87" y="95.5" >i..</text>
</g>
<g >
<title>ether_output (130 samples, 0.54%)</title><rect x="92.9" y="197" width="6.4" height="15.0" fill="rgb(254,73,50)" rx="2" ry="2" />
<text  x="95.93" y="207.5" ></text>
</g>
<g >
<title>ether_output (208 samples, 0.87%)</title><rect x="1179.8" y="181" width="10.2" height="15.0" fill="rgb(244,189,50)" rx="2" ry="2" />
<text  x="1182.75" y="191.5" ></text>
</g>
<g >
<title>ether_output (1,135 samples, 4.74%)</title><rect x="899.1" y="101" width="55.9" height="15.0" fill="rgb(209,31,48)" rx="2" ry="2" />
<text  x="902.09" y="111.5" >ether..</text>
</g>
<g >
<title>_task_fn_rx (15,577 samples, 65.05%)</title><rect x="99.3" y="229" width="767.6" height="15.0" fill="rgb(238,132,44)" rx="2" ry="2" />
<text  x="102.33" y="239.5" >_task_fn_rx</text>
</g>
<g >
<title>ether_demux (130 samples, 0.54%)</title><rect x="92.9" y="261" width="6.4" height="15.0" fill="rgb(221,119,6)" rx="2" ry="2" />
<text  x="95.93" y="271.5" ></text>
</g>
<g >
<title>_rm_rlock (47 samples, 0.20%)</title><rect x="802.0" y="37" width="2.3" height="15.0" fill="rgb(235,126,27)" rx="2" ry="2" />
<text  x="804.97" y="47.5" ></text>
</g>
<g >
<title>ip6_input (1,375 samples, 5.74%)</title><rect x="10.0" y="165" width="67.8" height="15.0" fill="rgb(236,205,40)" rx="2" ry="2" />
<text  x="13.00" y="175.5" >ip6_input</text>
</g>
<g >
<title>ether_nh_input (308 samples, 1.29%)</title><rect x="77.8" y="245" width="15.1" height="15.0" fill="rgb(246,180,31)" rx="2" ry="2" />
<text  x="80.75" y="255.5" ></text>
</g>
<g >
<title>ip6_tryforward (208 samples, 0.87%)</title><rect x="1179.8" y="197" width="10.2" height="15.0" fill="rgb(249,195,42)" rx="2" ry="2" />
<text  x="1182.75" y="207.5" ></text>
</g>
<g >
<title>iflib_completed_tx_reclaim (559 samples, 2.33%)</title><rect x="10.0" y="37" width="27.5" height="15.0" fill="rgb(232,26,18)" rx="2" ry="2" />
<text  x="13.00" y="47.5" >i..</text>
</g>
<g >
<title>ether_output (308 samples, 1.29%)</title><rect x="77.8" y="165" width="15.1" height="15.0" fill="rgb(213,75,8)" rx="2" ry="2" />
<text  x="80.75" y="175.5" ></text>
</g>
<g >
<title>ether_input (3,347 samples, 13.98%)</title><rect x="1014.8" y="261" width="165.0" height="15.0" fill="rgb(209,4,2)" rx="2" ry="2" />
<text  x="1017.83" y="271.5" >ether_input</text>
</g>
<g >
<title>ether_nh_input (14,663 samples, 61.23%)</title><rect x="123.2" y="165" width="722.5" height="15.0" fill="rgb(216,18,32)" rx="2" ry="2" />
<text  x="126.23" y="175.5" >ether_nh_input</text>
</g>
<g >
<title>drain_ring_lockless (470 samples, 1.96%)</title><rect x="866.9" y="53" width="23.1" height="15.0" fill="rgb(249,99,45)" rx="2" ry="2" />
<text  x="869.86" y="63.5" >d..</text>
</g>
<g >
<title>dyn_update_proto_state (49 samples, 0.20%)</title><rect x="991.9" y="37" width="2.4" height="15.0" fill="rgb(234,136,35)" rx="2" ry="2" />
<text  x="994.87" y="47.5" ></text>
</g>
<g >
<title>rn_match (572 samples, 2.39%)</title><rect x="427.3" y="37" width="28.2" height="15.0" fill="rgb(253,211,38)" rx="2" ry="2" />
<text  x="430.35" y="47.5" >r..</text>
</g>
<g >
<title>jenkins_hash32 (72 samples, 0.30%)</title><rect x="895.1" y="37" width="3.6" height="15.0" fill="rgb(237,23,27)" rx="2" ry="2" />
<text  x="898.15" y="47.5" ></text>
</g>
<g >
<title>ifmp_ring_enqueue (308 samples, 1.29%)</title><rect x="77.8" y="117" width="15.1" height="15.0" fill="rgb(221,9,43)" rx="2" ry="2" />
<text  x="80.75" y="127.5" ></text>
</g>
<g >
<title>iflib_txq_drain (470 samples, 1.96%)</title><rect x="866.9" y="37" width="23.1" height="15.0" fill="rgb(227,131,16)" rx="2" ry="2" />
<text  x="869.86" y="47.5" >i..</text>
</g>
<g >
<title>ipfw_chk (748 samples, 3.12%)</title><rect x="955.0" y="69" width="36.9" height="15.0" fill="rgb(228,33,23)" rx="2" ry="2" />
<text  x="958.02" y="79.5" >ipf..</text>
</g>
<g >
<title>iflib_completed_tx_reclaim (155 samples, 0.65%)</title><rect x="1014.8" y="53" width="7.7" height="15.0" fill="rgb(217,54,13)" rx="2" ry="2" />
<text  x="1017.83" y="63.5" ></text>
</g>
<g >
<title>ipfw_check_packet (6,007 samples, 25.08%)</title><rect x="456.3" y="69" width="296.0" height="15.0" fill="rgb(225,30,26)" rx="2" ry="2" />
<text  x="459.32" y="79.5" >ipfw_check_packet</text>
</g>
<g >
<title>_task_fn_rx (654 samples, 2.73%)</title><rect x="866.9" y="261" width="32.2" height="15.0" fill="rgb(221,115,37)" rx="2" ry="2" />
<text  x="869.86" y="271.5" >_t..</text>
</g>
<g >
<title>ip6_input (308 samples, 1.29%)</title><rect x="77.8" y="197" width="15.1" height="15.0" fill="rgb(232,104,16)" rx="2" ry="2" />
<text  x="80.75" y="207.5" ></text>
</g>
<g >
<title>ether_demux (1,375 samples, 5.74%)</title><rect x="10.0" y="197" width="67.8" height="15.0" fill="rgb(233,146,4)" rx="2" ry="2" />
<text  x="13.00" y="207.5" >ether_d..</text>
</g>
<g >
<title>iflib_txq_drain (3,347 samples, 13.98%)</title><rect x="1014.8" y="69" width="165.0" height="15.0" fill="rgb(229,141,2)" rx="2" ry="2" />
<text  x="1017.83" y="79.5" >iflib_txq_drain</text>
</g>
<g >
<title>iflib_txq_drain (208 samples, 0.87%)</title><rect x="1179.8" y="101" width="10.2" height="15.0" fill="rgb(245,102,34)" rx="2" ry="2" />
<text  x="1182.75" y="111.5" ></text>
</g>
<g >
<title>bounce_bus_dmamap_load_buffer (308 samples, 1.29%)</title><rect x="77.8" y="37" width="15.1" height="15.0" fill="rgb(211,137,3)" rx="2" ry="2" />
<text  x="80.75" y="47.5" ></text>
</g>
<g >
<title>_task_fn_rx (1,375 samples, 5.74%)</title><rect x="10.0" y="277" width="67.8" height="15.0" fill="rgb(208,168,5)" rx="2" ry="2" />
<text  x="13.00" y="287.5" >_task_f..</text>
</g>
<g >
<title>ipfw_chk (3,682 samples, 15.37%)</title><rect x="544.0" y="53" width="181.5" height="15.0" fill="rgb(207,77,38)" rx="2" ry="2" />
<text  x="547.03" y="63.5" >ipfw_chk</text>
</g>
<g >
<title>ip6_tryforward (3,347 samples, 13.98%)</title><rect x="1014.8" y="165" width="165.0" height="15.0" fill="rgb(217,181,6)" rx="2" ry="2" />
<text  x="1017.83" y="175.5" >ip6_tryforward</text>
</g>
<g >
<title>ipfw_chk (1,799 samples, 7.51%)</title><rect x="753.8" y="53" width="88.7" height="15.0" fill="rgb(234,29,1)" rx="2" ry="2" />
<text  x="756.83" y="63.5" >ipfw_chk</text>
</g>
<g >
<title>gtaskqueue_run_locked (15,577 samples, 65.05%)</title><rect x="99.3" y="245" width="767.6" height="15.0" fill="rgb(219,42,50)" rx="2" ry="2" />
<text  x="102.33" y="255.5" >gtaskqueue_run_locked</text>
</g>
<g >
<title>ifmp_ring_enqueue (437 samples, 1.82%)</title><rect x="344.0" y="37" width="21.5" height="15.0" fill="rgb(234,167,51)" rx="2" ry="2" />
<text  x="346.98" y="47.5" >i..</text>
</g>
<g >
<title>netisr_dispatch_src (1,375 samples, 5.74%)</title><rect x="10.0" y="181" width="67.8" height="15.0" fill="rgb(239,3,12)" rx="2" ry="2" />
<text  x="13.00" y="191.5" >netisr_..</text>
</g>
<g >
<title>ether_nh_input (3,347 samples, 13.98%)</title><rect x="1014.8" y="229" width="165.0" height="15.0" fill="rgb(245,214,54)" rx="2" ry="2" />
<text  x="1017.83" y="239.5" >ether_nh_input</text>
</g>
<g >
<title>memcmp (65 samples, 0.27%)</title><rect x="842.5" y="149" width="3.2" height="15.0" fill="rgb(237,217,0)" rx="2" ry="2" />
<text  x="845.52" y="159.5" ></text>
</g>
<g >
<title>hash_packet (5 samples, 0.02%)</title><rect x="890.0" y="53" width="0.3" height="15.0" fill="rgb(238,170,36)" rx="2" ry="2" />
<text  x="893.02" y="63.5" ></text>
</g>
<g >
<title>ip6_input (208 samples, 0.87%)</title><rect x="1179.8" y="213" width="10.2" height="15.0" fill="rgb(210,196,22)" rx="2" ry="2" />
<text  x="1182.75" y="223.5" ></text>
</g>
<g >
<title>iflib_completed_tx_reclaim (208 samples, 0.87%)</title><rect x="1179.8" y="85" width="10.2" height="15.0" fill="rgb(236,120,4)" rx="2" ry="2" />
<text  x="1182.75" y="95.5" ></text>
</g>
<g >
<title>drain_ring_lockless (1,135 samples, 4.74%)</title><rect x="899.1" y="37" width="55.9" height="15.0" fill="rgb(248,34,20)" rx="2" ry="2" />
<text  x="902.09" y="47.5" >drain..</text>
</g>
<g >
<title>ipfw_check_packet (104 samples, 0.43%)</title><rect x="890.0" y="101" width="5.1" height="15.0" fill="rgb(225,140,29)" rx="2" ry="2" />
<text  x="893.02" y="111.5" ></text>
</g>
<g >
<title>iflib_if_transmit (437 samples, 1.82%)</title><rect x="344.0" y="53" width="21.5" height="15.0" fill="rgb(231,115,6)" rx="2" ry="2" />
<text  x="346.98" y="63.5" >i..</text>
</g>
<g >
<title>ether_input (308 samples, 1.29%)</title><rect x="77.8" y="277" width="15.1" height="15.0" fill="rgb(212,148,50)" rx="2" ry="2" />
<text  x="80.75" y="287.5" ></text>
</g>
<g >
<title>netisr_dispatch_src (308 samples, 1.29%)</title><rect x="77.8" y="261" width="15.1" height="15.0" fill="rgb(230,78,26)" rx="2" ry="2" />
<text  x="80.75" y="271.5" ></text>
</g>
<g >
<title>grouptaskqueue_enqueue (287 samples, 1.20%)</title><rect x="99.3" y="213" width="14.2" height="15.0" fill="rgb(241,52,16)" rx="2" ry="2" />
<text  x="102.33" y="223.5" ></text>
</g>
<g >
<title>ipfw_dyn_lookup_state (80 samples, 0.33%)</title><rect x="895.1" y="69" width="4.0" height="15.0" fill="rgb(223,20,46)" rx="2" ry="2" />
<text  x="898.15" y="79.5" ></text>
</g>
<g >
<title>memcmp (645 samples, 2.69%)</title><rect x="960.1" y="37" width="31.8" height="15.0" fill="rgb(225,206,30)" rx="2" ry="2" />
<text  x="963.09" y="47.5" >me..</text>
</g>
<g >
<title>ether_demux (3,347 samples, 13.98%)</title><rect x="1014.8" y="213" width="165.0" height="15.0" fill="rgb(231,194,47)" rx="2" ry="2" />
<text  x="1017.83" y="223.5" >ether_demux</text>
</g>
<g >
<title>drain_ring_lockless (1,375 samples, 5.74%)</title><rect x="10.0" y="69" width="67.8" height="15.0" fill="rgb(225,34,51)" rx="2" ry="2" />
<text  x="13.00" y="79.5" >drain_r..</text>
</g>
<g >
<title>iflib_if_transmit (3,347 samples, 13.98%)</title><rect x="1014.8" y="117" width="165.0" height="15.0" fill="rgb(208,6,25)" rx="2" ry="2" />
<text  x="1017.83" y="127.5" >iflib_if_transmit</text>
</g>
<g >
<title>iflib_txd_db_check (645 samples, 2.69%)</title><rect x="1148.0" y="53" width="31.8" height="15.0" fill="rgb(211,176,13)" rx="2" ry="2" />
<text  x="1150.97" y="63.5" >if..</text>
</g>
<g >
<title>iflib_rxeof (654 samples, 2.73%)</title><rect x="866.9" y="245" width="32.2" height="15.0" fill="rgb(249,131,1)" rx="2" ry="2" />
<text  x="869.86" y="255.5" >if..</text>
</g>
<g >
<title>ether_demux (308 samples, 1.29%)</title><rect x="77.8" y="229" width="15.1" height="15.0" fill="rgb(217,206,34)" rx="2" ry="2" />
<text  x="80.75" y="239.5" ></text>
</g>
<g >
<title>ether_demux (654 samples, 2.73%)</title><rect x="866.9" y="181" width="32.2" height="15.0" fill="rgb(223,55,33)" rx="2" ry="2" />
<text  x="869.86" y="191.5" >et..</text>
</g>
<g >
<title>ether_nh_input (1,375 samples, 5.74%)</title><rect x="10.0" y="213" width="67.8" height="15.0" fill="rgb(217,12,30)" rx="2" ry="2" />
<text  x="13.00" y="223.5" >ether_n..</text>
</g>
<g >
<title>ixl_isc_txd_flush (645 samples, 2.69%)</title><rect x="1148.0" y="37" width="31.8" height="15.0" fill="rgb(211,63,44)" rx="2" ry="2" />
<text  x="1150.97" y="47.5" >ix..</text>
</g>
<g >
<title>ip6_tryforward (1,375 samples, 5.74%)</title><rect x="10.0" y="149" width="67.8" height="15.0" fill="rgb(221,116,30)" rx="2" ry="2" />
<text  x="13.00" y="159.5" >ip6_try..</text>
</g>
<g >
<title>netisr_dispatch_src (14,663 samples, 61.23%)</title><rect x="123.2" y="181" width="722.5" height="15.0" fill="rgb(222,65,19)" rx="2" ry="2" />
<text  x="126.23" y="191.5" >netisr_dispatch_src</text>
</g>
<g >
<title>ipfw_dyn_lookup_state (762 samples, 3.18%)</title><rect x="804.9" y="37" width="37.6" height="15.0" fill="rgb(243,30,33)" rx="2" ry="2" />
<text  x="807.93" y="47.5" >ipf..</text>
</g>
<g >
<title>ip6_tryforward (2,349 samples, 9.81%)</title><rect x="899.1" y="117" width="115.7" height="15.0" fill="rgb(227,189,5)" rx="2" ry="2" />
<text  x="902.09" y="127.5" >ip6_tryforward</text>
</g>
<g >
<title>iflib_if_transmit (470 samples, 1.96%)</title><rect x="866.9" y="85" width="23.1" height="15.0" fill="rgb(231,110,16)" rx="2" ry="2" />
<text  x="869.86" y="95.5" >i..</text>
</g>
<g >
<title>memcpy_erms (235 samples, 0.98%)</title><rect x="365.5" y="69" width="11.6" height="15.0" fill="rgb(243,90,18)" rx="2" ry="2" />
<text  x="368.51" y="79.5" ></text>
</g>
<g >
<title>m_free (208 samples, 0.87%)</title><rect x="1179.8" y="53" width="10.2" height="15.0" fill="rgb(240,99,51)" rx="2" ry="2" />
<text  x="1182.75" y="63.5" ></text>
</g>
<g >
<title>pfil_mbuf_in (6,007 samples, 25.08%)</title><rect x="456.3" y="85" width="296.0" height="15.0" fill="rgb(237,214,42)" rx="2" ry="2" />
<text  x="459.32" y="95.5" >pfil_mbuf_in</text>
</g>
<g >
<title>gtaskqueue_run_locked (654 samples, 2.73%)</title><rect x="866.9" y="277" width="32.2" height="15.0" fill="rgb(253,141,18)" rx="2" ry="2" />
<text  x="869.86" y="287.5" >gt..</text>
</g>
<g >
<title>drain_ring_lockless (308 samples, 1.29%)</title><rect x="77.8" y="101" width="15.1" height="15.0" fill="rgb(241,128,16)" rx="2" ry="2" />
<text  x="80.75" y="111.5" ></text>
</g>
<g >
<title>netisr_dispatch_src (3,347 samples, 13.98%)</title><rect x="1014.8" y="245" width="165.0" height="15.0" fill="rgb(242,224,23)" rx="2" ry="2" />
<text  x="1017.83" y="255.5" >netisr_dispatch_src</text>
</g>
<g >
<title>m_freem (208 samples, 0.87%)</title><rect x="1179.8" y="69" width="10.2" height="15.0" fill="rgb(206,146,16)" rx="2" ry="2" />
<text  x="1182.75" y="79.5" ></text>
</g>
<g >
<title>ether_input (1,375 samples, 5.74%)</title><rect x="10.0" y="245" width="67.8" height="15.0" fill="rgb(239,45,0)" rx="2" ry="2" />
<text  x="13.00" y="255.5" >ether_i..</text>
</g>
<g >
<title>ipfw_dyn_lookup_state (466 samples, 1.95%)</title><rect x="991.9" y="53" width="22.9" height="15.0" fill="rgb(232,83,42)" rx="2" ry="2" />
<text  x="994.87" y="63.5" >i..</text>
</g>
<g >
<title>pfil_mbuf_in (748 samples, 3.12%)</title><rect x="955.0" y="101" width="36.9" height="15.0" fill="rgb(245,24,40)" rx="2" ry="2" />
<text  x="958.02" y="111.5" >pfi..</text>
</g>
<g >
<title>ether_input (14,663 samples, 61.23%)</title><rect x="123.2" y="197" width="722.5" height="15.0" fill="rgb(209,206,22)" rx="2" ry="2" />
<text  x="126.23" y="207.5" >ether_input</text>
</g>
<g >
<title>netisr_dispatch_src (654 samples, 2.73%)</title><rect x="866.9" y="213" width="32.2" height="15.0" fill="rgb(245,185,46)" rx="2" ry="2" />
<text  x="869.86" y="223.5" >ne..</text>
</g>
<g >
<title>in6_localip (878 samples, 3.67%)</title><rect x="384.1" y="85" width="43.2" height="15.0" fill="rgb(223,139,22)" rx="2" ry="2" />
<text  x="387.08" y="95.5" >in6_..</text>
</g>
<g >
<title>pfil_mbuf_out (466 samples, 1.95%)</title><rect x="991.9" y="101" width="22.9" height="15.0" fill="rgb(214,121,2)" rx="2" ry="2" />
<text  x="994.87" y="111.5" >p..</text>
</g>
<g >
<title>ip6_tryforward (130 samples, 0.54%)</title><rect x="92.9" y="213" width="6.4" height="15.0" fill="rgb(231,93,34)" rx="2" ry="2" />
<text  x="95.93" y="223.5" ></text>
</g>
<g >
<title>iflib_if_transmit (1,375 samples, 5.74%)</title><rect x="10.0" y="101" width="67.8" height="15.0" fill="rgb(248,203,15)" rx="2" ry="2" />
<text  x="13.00" y="111.5" >iflib_i..</text>
</g>
<g >
<title>ipfw_chk (80 samples, 0.33%)</title><rect x="895.1" y="85" width="4.0" height="15.0" fill="rgb(220,178,38)" rx="2" ry="2" />
<text  x="898.15" y="95.5" ></text>
</g>
<g >
<title>ifmp_ring_enqueue (470 samples, 1.96%)</title><rect x="866.9" y="69" width="23.1" height="15.0" fill="rgb(224,48,47)" rx="2" ry="2" />
<text  x="869.86" y="79.5" >i..</text>
</g>
<g >
<title>iflib_if_transmit (1,135 samples, 4.74%)</title><rect x="899.1" y="69" width="55.9" height="15.0" fill="rgb(240,35,25)" rx="2" ry="2" />
<text  x="902.09" y="79.5" >iflib..</text>
</g>
<g >
<title>_rm_rlock (200 samples, 0.84%)</title><rect x="407.5" y="69" width="9.8" height="15.0" fill="rgb(225,128,1)" rx="2" ry="2" />
<text  x="410.49" y="79.5" ></text>
</g>
<g >
<title>ipfw_dyn_lookup_state (748 samples, 3.12%)</title><rect x="955.0" y="53" width="36.9" height="15.0" fill="rgb(218,27,19)" rx="2" ry="2" />
<text  x="958.02" y="63.5" >ipf..</text>
</g>
<g >
<title>netisr_dispatch_src (1,375 samples, 5.74%)</title><rect x="10.0" y="229" width="67.8" height="15.0" fill="rgb(232,194,31)" rx="2" ry="2" />
<text  x="13.00" y="239.5" >netisr_..</text>
</g>
<g >
<title>m_tag_locate (545 samples, 2.28%)</title><rect x="725.5" y="53" width="26.8" height="15.0" fill="rgb(242,106,11)" rx="2" ry="2" />
<text  x="728.45" y="63.5" >m..</text>
</g>
<g >
<title>ipfw_check_packet (1,831 samples, 7.65%)</title><rect x="752.3" y="69" width="90.2" height="15.0" fill="rgb(232,151,23)" rx="2" ry="2" />
<text  x="755.30" y="79.5" >ipfw_check..</text>
</g>
<g >
<title>iflib_txq_drain (1,375 samples, 5.74%)</title><rect x="10.0" y="53" width="67.8" height="15.0" fill="rgb(254,47,49)" rx="2" ry="2" />
<text  x="13.00" y="63.5" >iflib_t..</text>
</g>
<g >
<title>_rm_rlock (36 samples, 0.15%)</title><rect x="668.0" y="37" width="1.8" height="15.0" fill="rgb(227,19,45)" rx="2" ry="2" />
<text  x="671.05" y="47.5" ></text>
</g>
<g >
<title>ip6_tryforward (654 samples, 2.73%)</title><rect x="866.9" y="133" width="32.2" height="15.0" fill="rgb(251,166,8)" rx="2" ry="2" />
<text  x="869.86" y="143.5" >ip..</text>
</g>
<g >
<title>ip6_tryforward (308 samples, 1.29%)</title><rect x="77.8" y="181" width="15.1" height="15.0" fill="rgb(241,177,52)" rx="2" ry="2" />
<text  x="80.75" y="191.5" ></text>
</g>
<g >
<title>drain_ring_lockless (3,347 samples, 13.98%)</title><rect x="1014.8" y="85" width="165.0" height="15.0" fill="rgb(249,188,44)" rx="2" ry="2" />
<text  x="1017.83" y="95.5" >drain_ring_lockless</text>
</g>
<g >
<title>pfil_mbuf_out (1,831 samples, 7.65%)</title><rect x="752.3" y="85" width="90.2" height="15.0" fill="rgb(234,124,32)" rx="2" ry="2" />
<text  x="755.30" y="95.5" >pfil_mbuf_..</text>
</g>
<g >
<title>ifmp_ring_enqueue (1,135 samples, 4.74%)</title><rect x="899.1" y="53" width="55.9" height="15.0" fill="rgb(240,120,18)" rx="2" ry="2" />
<text  x="902.09" y="63.5" >ifmp_..</text>
</g>
<g >
<title>ip6_input (3,347 samples, 13.98%)</title><rect x="1014.8" y="181" width="165.0" height="15.0" fill="rgb(211,126,12)" rx="2" ry="2" />
<text  x="1017.83" y="191.5" >ip6_input</text>
</g>
<g >
<title>pfil_mbuf_out (80 samples, 0.33%)</title><rect x="895.1" y="117" width="4.0" height="15.0" fill="rgb(230,192,52)" rx="2" ry="2" />
<text  x="898.15" y="127.5" ></text>
</g>
<g >
<title>ixl_isc_rxd_pkt_get (145 samples, 0.61%)</title><rect x="845.7" y="197" width="7.2" height="15.0" fill="rgb(215,73,15)" rx="2" ry="2" />
<text  x="848.73" y="207.5" ></text>
</g>
<g >
<title>gtaskqueue_thread_loop (2,349 samples, 9.81%)</title><rect x="899.1" y="277" width="115.7" height="15.0" fill="rgb(250,176,54)" rx="2" ry="2" />
<text  x="902.09" y="287.5" >gtaskqueue_thr..</text>
</g>
<g >
<title>bus_dmamap_load_mbuf_sg (308 samples, 1.29%)</title><rect x="77.8" y="53" width="15.1" height="15.0" fill="rgb(242,118,20)" rx="2" ry="2" />
<text  x="80.75" y="63.5" ></text>
</g>
<g >
<title>iflib_if_transmit (308 samples, 1.29%)</title><rect x="77.8" y="133" width="15.1" height="15.0" fill="rgb(210,11,28)" rx="2" ry="2" />
<text  x="80.75" y="143.5" ></text>
</g>
<g >
<title>netisr_dispatch_src (3,347 samples, 13.98%)</title><rect x="1014.8" y="197" width="165.0" height="15.0" fill="rgb(241,171,24)" rx="2" ry="2" />
<text  x="1017.83" y="207.5" >netisr_dispatch_src</text>
</g>
<g >
<title>ether_output_frame (470 samples, 1.96%)</title><rect x="866.9" y="101" width="23.1" height="15.0" fill="rgb(250,190,20)" rx="2" ry="2" />
<text  x="869.86" y="111.5" >e..</text>
</g>
<g >
<title>ether_output (470 samples, 1.96%)</title><rect x="866.9" y="117" width="23.1" height="15.0" fill="rgb(243,208,43)" rx="2" ry="2" />
<text  x="869.86" y="127.5" >e..</text>
</g>
<g >
<title>ifmp_ring_enqueue (3,347 samples, 13.98%)</title><rect x="1014.8" y="101" width="165.0" height="15.0" fill="rgb(226,114,34)" rx="2" ry="2" />
<text  x="1017.83" y="111.5" >ifmp_ring_enqueue</text>
</g>
<g >
<title>gtaskqueue_thread_enqueue (287 samples, 1.20%)</title><rect x="99.3" y="197" width="14.2" height="15.0" fill="rgb(207,0,45)" rx="2" ry="2" />
<text  x="102.33" y="207.5" ></text>
</g>
<g >
<title>ether_output (3,347 samples, 13.98%)</title><rect x="1014.8" y="149" width="165.0" height="15.0" fill="rgb(241,115,52)" rx="2" ry="2" />
<text  x="1017.83" y="159.5" >ether_output</text>
</g>
<g >
<title>netisr_dispatch_src (208 samples, 0.87%)</title><rect x="1179.8" y="277" width="10.2" height="15.0" fill="rgb(254,10,39)" rx="2" ry="2" />
<text  x="1182.75" y="287.5" ></text>
</g>
<g >
<title>_task_fn_rx (2,349 samples, 9.81%)</title><rect x="899.1" y="245" width="115.7" height="15.0" fill="rgb(208,93,22)" rx="2" ry="2" />
<text  x="902.09" y="255.5" >_task_fn_rx</text>
</g>
<g >
<title>iflib_rxeof (2,349 samples, 9.81%)</title><rect x="899.1" y="229" width="115.7" height="15.0" fill="rgb(242,30,22)" rx="2" ry="2" />
<text  x="902.09" y="239.5" >iflib_rxeof</text>
</g>
<g >
<title>in6_lltable_lookup (142 samples, 0.59%)</title><rect x="377.1" y="53" width="7.0" height="15.0" fill="rgb(225,56,0)" rx="2" ry="2" />
<text  x="380.09" y="63.5" ></text>
</g>
<g >
<title>memcmp (18 samples, 0.08%)</title><rect x="894.3" y="37" width="0.8" height="15.0" fill="rgb(245,25,13)" rx="2" ry="2" />
<text  x="897.26" y="47.5" ></text>
</g>
<g >
<title>ether_nh_input (130 samples, 0.54%)</title><rect x="92.9" y="277" width="6.4" height="15.0" fill="rgb(240,123,1)" rx="2" ry="2" />
<text  x="95.93" y="287.5" ></text>
</g>
<g >
<title>ether_demux (2,349 samples, 9.81%)</title><rect x="899.1" y="165" width="115.7" height="15.0" fill="rgb(232,91,7)" rx="2" ry="2" />
<text  x="902.09" y="175.5" >ether_demux</text>
</g>
<g >
<title>netisr_dispatch_src (2,349 samples, 9.81%)</title><rect x="899.1" y="197" width="115.7" height="15.0" fill="rgb(234,59,11)" rx="2" ry="2" />
<text  x="902.09" y="207.5" >netisr_dispatc..</text>
</g>
<g >
<title>ip6_input (2,349 samples, 9.81%)</title><rect x="899.1" y="133" width="115.7" height="15.0" fill="rgb(226,82,8)" rx="2" ry="2" />
<text  x="902.09" y="143.5" >ip6_input</text>
</g>
</g>
</svg>
