<?xml version="1.0" standalone="no"?>
<!DOCTYPE svg PUBLIC "-//W3C//DTD SVG 1.1//EN" "http://www.w3.org/Graphics/SVG/1.1/DTD/svg11.dtd">
<svg version="1.1" width="1200" height="342" onload="init(evt)" viewBox="0 0 1200 342" xmlns="http://www.w3.org/2000/svg" xmlns:xlink="http://www.w3.org/1999/xlink">
<!-- Flame graph stack visualization. See https://github.com/brendangregg/FlameGraph for latest version, and http://www.brendangregg.com/flamegraphs.html for examples. -->
<!-- NOTES:  -->
<defs>
	<linearGradient id="background" y1="0" y2="1" x1="0" x2="0" >
		<stop stop-color="#eeeeee" offset="5%" />
		<stop stop-color="#eeeeb0" offset="95%" />
	</linearGradient>
</defs>
<style type="text/css">
	text { font-family:Verdana; font-size:12px; fill:rgb(0,0,0); }
	#search, #ignorecase { opacity:0.1; cursor:pointer; }
	#search:hover, #search.show, #ignorecase:hover, #ignorecase.show { opacity:1; }
	#subtitle { text-anchor:middle; font-color:rgb(160,160,160); }
	#title { text-anchor:middle; font-size:17px}
	#unzoom { cursor:pointer; }
	#frames > *:hover { stroke:black; stroke-width:0.5; cursor:pointer; }
	.hide { display:none; }
	.parent { opacity:0.5; }
</style>
<script type="text/ecmascript">
<![CDATA[
	"use strict";
	var details, searchbtn, unzoombtn, matchedtxt, svg, searching, currentSearchTerm, ignorecase, ignorecaseBtn;
	function init(evt) {
		details = document.getElementById("details").firstChild;
		searchbtn = document.getElementById("search");
		ignorecaseBtn = document.getElementById("ignorecase");
		unzoombtn = document.getElementById("unzoom");
		matchedtxt = document.getElementById("matched");
		svg = document.getElementsByTagName("svg")[0];
		searching = 0;
		currentSearchTerm = null;

		// use GET parameters to restore a flamegraphs state.
		var params = get_params();
		if (params.x && params.y)
			zoom(find_group(document.querySelector('[x="' + params.x + '"][y="' + params.y + '"]')));
                if (params.s) search(params.s);
	}

	// event listeners
	window.addEventListener("click", function(e) {
		var target = find_group(e.target);
		if (target) {
			if (target.nodeName == "a") {
				if (e.ctrlKey === false) return;
				e.preventDefault();
			}
			if (target.classList.contains("parent")) unzoom();
			zoom(target);
			if (!document.querySelector('.parent')) {
				clearzoom();
				return;
			}

			// set parameters for zoom state
			var el = target.querySelector("rect");
			if (el && el.attributes && el.attributes.y && el.attributes._orig_x) {
				var params = get_params()
				params.x = el.attributes._orig_x.value;
				params.y = el.attributes.y.value;
				history.replaceState(null, null, parse_params(params));
			}
		}
		else if (e.target.id == "unzoom") clearzoom();
		else if (e.target.id == "search") search_prompt();
		else if (e.target.id == "ignorecase") toggle_ignorecase();
	}, false)

	// mouse-over for info
	// show
	window.addEventListener("mouseover", function(e) {
		var target = find_group(e.target);
		if (target) details.nodeValue = "Function: " + g_to_text(target);
	}, false)

	// clear
	window.addEventListener("mouseout", function(e) {
		var target = find_group(e.target);
		if (target) details.nodeValue = ' ';
	}, false)

	// ctrl-F for search
	// ctrl-I to toggle case-sensitive search
	window.addEventListener("keydown",function (e) {
		if (e.keyCode === 114 || (e.ctrlKey && e.keyCode === 70)) {
			e.preventDefault();
			search_prompt();
		}
		else if (e.ctrlKey && e.keyCode === 73) {
			e.preventDefault();
			toggle_ignorecase();
		}
	}, false)

	// functions
	function get_params() {
		var params = {};
		var paramsarr = window.location.search.substr(1).split('&');
		for (var i = 0; i < paramsarr.length; ++i) {
			var tmp = paramsarr[i].split("=");
			if (!tmp[0] || !tmp[1]) continue;
			params[tmp[0]]  = decodeURIComponent(tmp[1]);
		}
		return params;
	}
	function parse_params(params) {
		var uri = "?";
		for (var key in params) {
			uri += key + '=' + encodeURIComponent(params[key]) + '&';
		}
		if (uri.slice(-1) == "&")
			uri = uri.substring(0, uri.length - 1);
		if (uri == '?')
			uri = window.location.href.split('?')[0];
		return uri;
	}
	function find_child(node, selector) {
		var children = node.querySelectorAll(selector);
		if (children.length) return children[0];
	}
	function find_group(node) {
		var parent = node.parentElement;
		if (!parent) return;
		if (parent.id == "frames") return node;
		return find_group(parent);
	}
	function orig_save(e, attr, val) {
		if (e.attributes["_orig_" + attr] != undefined) return;
		if (e.attributes[attr] == undefined) return;
		if (val == undefined) val = e.attributes[attr].value;
		e.setAttribute("_orig_" + attr, val);
	}
	function orig_load(e, attr) {
		if (e.attributes["_orig_"+attr] == undefined) return;
		e.attributes[attr].value = e.attributes["_orig_" + attr].value;
		e.removeAttribute("_orig_"+attr);
	}
	function g_to_text(e) {
		var text = find_child(e, "title").firstChild.nodeValue;
		return (text)
	}
	function g_to_func(e) {
		var func = g_to_text(e);
		// if there's any manipulation we want to do to the function
		// name before it's searched, do it here before returning.
		return (func);
	}
	function update_text(e) {
		var r = find_child(e, "rect");
		var t = find_child(e, "text");
		var w = parseFloat(r.attributes.width.value) -3;
		var txt = find_child(e, "title").textContent.replace(/\([^(]*\)$/,"");
		t.attributes.x.value = parseFloat(r.attributes.x.value) + 3;

		// Smaller than this size won't fit anything
		if (w < 2 * 12 * 0.59) {
			t.textContent = "";
			return;
		}

		t.textContent = txt;
		// Fit in full text width
		if (/^ *$/.test(txt) || t.getSubStringLength(0, txt.length) < w)
			return;

		for (var x = txt.length - 2; x > 0; x--) {
			if (t.getSubStringLength(0, x + 2) <= w) {
				t.textContent = txt.substring(0, x) + "..";
				return;
			}
		}
		t.textContent = "";
	}

	// zoom
	function zoom_reset(e) {
		if (e.attributes != undefined) {
			orig_load(e, "x");
			orig_load(e, "width");
		}
		if (e.childNodes == undefined) return;
		for (var i = 0, c = e.childNodes; i < c.length; i++) {
			zoom_reset(c[i]);
		}
	}
	function zoom_child(e, x, ratio) {
		if (e.attributes != undefined) {
			if (e.attributes.x != undefined) {
				orig_save(e, "x");
				e.attributes.x.value = (parseFloat(e.attributes.x.value) - x - 10) * ratio + 10;
				if (e.tagName == "text")
					e.attributes.x.value = find_child(e.parentNode, "rect[x]").attributes.x.value + 3;
			}
			if (e.attributes.width != undefined) {
				orig_save(e, "width");
				e.attributes.width.value = parseFloat(e.attributes.width.value) * ratio;
			}
		}

		if (e.childNodes == undefined) return;
		for (var i = 0, c = e.childNodes; i < c.length; i++) {
			zoom_child(c[i], x - 10, ratio);
		}
	}
	function zoom_parent(e) {
		if (e.attributes) {
			if (e.attributes.x != undefined) {
				orig_save(e, "x");
				e.attributes.x.value = 10;
			}
			if (e.attributes.width != undefined) {
				orig_save(e, "width");
				e.attributes.width.value = parseInt(svg.width.baseVal.value) - (10 * 2);
			}
		}
		if (e.childNodes == undefined) return;
		for (var i = 0, c = e.childNodes; i < c.length; i++) {
			zoom_parent(c[i]);
		}
	}
	function zoom(node) {
		var attr = find_child(node, "rect").attributes;
		var width = parseFloat(attr.width.value);
		var xmin = parseFloat(attr.x.value);
		var xmax = parseFloat(xmin + width);
		var ymin = parseFloat(attr.y.value);
		var ratio = (svg.width.baseVal.value - 2 * 10) / width;

		// XXX: Workaround for JavaScript float issues (fix me)
		var fudge = 0.0001;

		unzoombtn.classList.remove("hide");

		var el = document.getElementById("frames").children;
		for (var i = 0; i < el.length; i++) {
			var e = el[i];
			var a = find_child(e, "rect").attributes;
			var ex = parseFloat(a.x.value);
			var ew = parseFloat(a.width.value);
			var upstack;
			// Is it an ancestor
			if (0 == 0) {
				upstack = parseFloat(a.y.value) > ymin;
			} else {
				upstack = parseFloat(a.y.value) < ymin;
			}
			if (upstack) {
				// Direct ancestor
				if (ex <= xmin && (ex+ew+fudge) >= xmax) {
					e.classList.add("parent");
					zoom_parent(e);
					update_text(e);
				}
				// not in current path
				else
					e.classList.add("hide");
			}
			// Children maybe
			else {
				// no common path
				if (ex < xmin || ex + fudge >= xmax) {
					e.classList.add("hide");
				}
				else {
					zoom_child(e, xmin, ratio);
					update_text(e);
				}
			}
		}
		search();
	}
	function unzoom() {
		unzoombtn.classList.add("hide");
		var el = document.getElementById("frames").children;
		for(var i = 0; i < el.length; i++) {
			el[i].classList.remove("parent");
			el[i].classList.remove("hide");
			zoom_reset(el[i]);
			update_text(el[i]);
		}
		search();
	}
	function clearzoom() {
		unzoom();

		// remove zoom state
		var params = get_params();
		if (params.x) delete params.x;
		if (params.y) delete params.y;
		history.replaceState(null, null, parse_params(params));
	}

	// search
	function toggle_ignorecase() {
		ignorecase = !ignorecase;
		if (ignorecase) {
			ignorecaseBtn.classList.add("show");
		} else {
			ignorecaseBtn.classList.remove("show");
		}
		reset_search();
		search();
	}
	function reset_search() {
		var el = document.querySelectorAll("#frames rect");
		for (var i = 0; i < el.length; i++) {
			orig_load(el[i], "fill")
		}
		var params = get_params();
		delete params.s;
		history.replaceState(null, null, parse_params(params));
	}
	function search_prompt() {
		if (!searching) {
			var term = prompt("Enter a search term (regexp " +
			    "allowed, eg: ^ext4_)"
			    + (ignorecase ? ", ignoring case" : "")
			    + "\nPress Ctrl-i to toggle case sensitivity", "");
			if (term != null) search(term);
		} else {
			reset_search();
			searching = 0;
			currentSearchTerm = null;
			searchbtn.classList.remove("show");
			searchbtn.firstChild.nodeValue = "Search"
			matchedtxt.classList.add("hide");
			matchedtxt.firstChild.nodeValue = ""
		}
	}
	function search(term) {
		if (term) currentSearchTerm = term;

		var re = new RegExp(currentSearchTerm, ignorecase ? 'i' : '');
		var el = document.getElementById("frames").children;
		var matches = new Object();
		var maxwidth = 0;
		for (var i = 0; i < el.length; i++) {
			var e = el[i];
			var func = g_to_func(e);
			var rect = find_child(e, "rect");
			if (func == null || rect == null)
				continue;

			// Save max width. Only works as we have a root frame
			var w = parseFloat(rect.attributes.width.value);
			if (w > maxwidth)
				maxwidth = w;

			if (func.match(re)) {
				// highlight
				var x = parseFloat(rect.attributes.x.value);
				orig_save(rect, "fill");
				rect.attributes.fill.value = "rgb(230,0,230)";

				// remember matches
				if (matches[x] == undefined) {
					matches[x] = w;
				} else {
					if (w > matches[x]) {
						// overwrite with parent
						matches[x] = w;
					}
				}
				searching = 1;
			}
		}
		if (!searching)
			return;
		var params = get_params();
		params.s = currentSearchTerm;
		history.replaceState(null, null, parse_params(params));

		searchbtn.classList.add("show");
		searchbtn.firstChild.nodeValue = "Reset Search";

		// calculate percent matched, excluding vertical overlap
		var count = 0;
		var lastx = -1;
		var lastw = 0;
		var keys = Array();
		for (k in matches) {
			if (matches.hasOwnProperty(k))
				keys.push(k);
		}
		// sort the matched frames by their x location
		// ascending, then width descending
		keys.sort(function(a, b){
			return a - b;
		});
		// Step through frames saving only the biggest bottom-up frames
		// thanks to the sort order. This relies on the tree property
		// where children are always smaller than their parents.
		var fudge = 0.0001;	// JavaScript floating point
		for (var k in keys) {
			var x = parseFloat(keys[k]);
			var w = matches[keys[k]];
			if (x >= lastx + lastw - fudge) {
				count += w;
				lastx = x;
				lastw = w;
			}
		}
		// display matched percent
		matchedtxt.classList.remove("hide");
		var pct = 100 * count / maxwidth;
		if (pct != 100) pct = pct.toFixed(1)
		matchedtxt.firstChild.nodeValue = "Matched: " + pct + "%";
	}
]]>
</script>
<rect x="0.0" y="0" width="1200.0" height="342.0" fill="url(#background)"  />
<text id="title" x="600.00" y="24" >Flame Graph</text>
<text id="details" x="10.00" y="325" > </text>
<text id="unzoom" x="10.00" y="24" class="hide">Reset Zoom</text>
<text id="search" x="1090.00" y="24" >Search</text>
<text id="ignorecase" x="1174.00" y="24" >ic</text>
<text id="matched" x="1090.00" y="325" > </text>
<g id="frames">
<g >
<title>ipfw_check_packet (941 samples, 3.63%)</title><rect x="257.8" y="69" width="42.8" height="15.0" fill="rgb(223,204,42)" rx="2" ry="2" />
<text  x="260.82" y="79.5" >ipfw..</text>
</g>
<g >
<title>iflib_txq_drain (378 samples, 1.46%)</title><rect x="84.3" y="85" width="17.1" height="15.0" fill="rgb(244,42,53)" rx="2" ry="2" />
<text  x="87.26" y="95.5" ></text>
</g>
<g >
<title>rxd_frag_to_sd (286 samples, 1.10%)</title><rect x="810.6" y="197" width="13.0" height="15.0" fill="rgb(206,95,10)" rx="2" ry="2" />
<text  x="813.58" y="207.5" ></text>
</g>
<g >
<title>gtaskqueue_thread_loop (2,282 samples, 8.79%)</title><rect x="873.8" y="277" width="103.8" height="15.0" fill="rgb(241,127,48)" rx="2" ry="2" />
<text  x="876.83" y="287.5" >gtaskqueue_t..</text>
</g>
<g >
<title>fib4_lookup (416 samples, 1.60%)</title><rect x="238.9" y="69" width="18.9" height="15.0" fill="rgb(252,94,50)" rx="2" ry="2" />
<text  x="241.91" y="79.5" ></text>
</g>
<g >
<title>grouptaskqueue_enqueue (3 samples, 0.01%)</title><rect x="1180.5" y="229" width="0.1" height="15.0" fill="rgb(220,138,28)" rx="2" ry="2" />
<text  x="1183.50" y="239.5" ></text>
</g>
<g >
<title>drain_ring_lockless (378 samples, 1.46%)</title><rect x="84.3" y="101" width="17.1" height="15.0" fill="rgb(229,101,32)" rx="2" ry="2" />
<text  x="87.26" y="111.5" ></text>
</g>
<g >
<title>ether_nh_input (4,462 samples, 17.19%)</title><rect x="977.6" y="229" width="202.9" height="15.0" fill="rgb(251,133,13)" rx="2" ry="2" />
<text  x="980.60" y="239.5" >ether_nh_input</text>
</g>
<g >
<title>ipfw_dyn_lookup_state (385 samples, 1.48%)</title><rect x="856.3" y="69" width="17.5" height="15.0" fill="rgb(208,88,41)" rx="2" ry="2" />
<text  x="859.33" y="79.5" ></text>
</g>
<g >
<title>gtaskqueue_run_locked (2,282 samples, 8.79%)</title><rect x="873.8" y="261" width="103.8" height="15.0" fill="rgb(235,204,49)" rx="2" ry="2" />
<text  x="876.83" y="271.5" >gtaskqueue_r..</text>
</g>
<g >
<title>drain_ring_lockless (1,478 samples, 5.70%)</title><rect x="17.0" y="69" width="67.3" height="15.0" fill="rgb(240,188,15)" rx="2" ry="2" />
<text  x="20.05" y="79.5" >drain_r..</text>
</g>
<g >
<title>ether_nh_input (1,091 samples, 4.20%)</title><rect x="824.2" y="197" width="49.6" height="15.0" fill="rgb(216,161,38)" rx="2" ry="2" />
<text  x="827.22" y="207.5" >ether..</text>
</g>
<g >
<title>ipfw_dyn_lookup_state (222 samples, 0.86%)</title><rect x="935.4" y="53" width="10.1" height="15.0" fill="rgb(212,226,51)" rx="2" ry="2" />
<text  x="938.36" y="63.5" ></text>
</g>
<g >
<title>ifmp_ring_enqueue (378 samples, 1.46%)</title><rect x="84.3" y="117" width="17.1" height="15.0" fill="rgb(207,103,49)" rx="2" ry="2" />
<text  x="87.26" y="127.5" ></text>
</g>
<g >
<title>dyn_lookup_ipv4_state (707 samples, 2.72%)</title><rect x="945.5" y="37" width="32.1" height="15.0" fill="rgb(242,60,42)" rx="2" ry="2" />
<text  x="948.45" y="47.5" >dy..</text>
</g>
<g >
<title>iflib_encap (3,222 samples, 12.42%)</title><rect x="983.6" y="53" width="146.6" height="15.0" fill="rgb(242,111,17)" rx="2" ry="2" />
<text  x="986.65" y="63.5" >iflib_encap</text>
</g>
<g >
<title>in_localip (150 samples, 0.58%)</title><rect x="227.9" y="85" width="6.8" height="15.0" fill="rgb(248,177,15)" rx="2" ry="2" />
<text  x="230.90" y="95.5" ></text>
</g>
<g >
<title>m_free (45 samples, 0.17%)</title><rect x="84.3" y="37" width="2.0" height="15.0" fill="rgb(219,19,10)" rx="2" ry="2" />
<text  x="87.26" y="47.5" ></text>
</g>
<g >
<title>ether_output_frame (1,353 samples, 5.21%)</title><rect x="873.8" y="85" width="61.6" height="15.0" fill="rgb(214,55,2)" rx="2" ry="2" />
<text  x="876.83" y="95.5" >ether_..</text>
</g>
<g >
<title>ifmp_ring_enqueue (419 samples, 1.61%)</title><rect x="824.2" y="69" width="19.1" height="15.0" fill="rgb(232,128,8)" rx="2" ry="2" />
<text  x="827.22" y="79.5" ></text>
</g>
<g >
<title>ipfw_chk (707 samples, 2.72%)</title><rect x="945.5" y="69" width="32.1" height="15.0" fill="rgb(207,187,41)" rx="2" ry="2" />
<text  x="948.45" y="79.5" >ip..</text>
</g>
<g >
<title>ether_input (1,091 samples, 4.20%)</title><rect x="824.2" y="229" width="49.6" height="15.0" fill="rgb(210,34,30)" rx="2" ry="2" />
<text  x="827.22" y="239.5" >ether..</text>
</g>
<g >
<title>iflib_completed_tx_reclaim (206 samples, 0.79%)</title><rect x="1180.6" y="85" width="9.4" height="15.0" fill="rgb(215,196,2)" rx="2" ry="2" />
<text  x="1183.63" y="95.5" ></text>
</g>
<g >
<title>ixl_isc_txd_credits_update_hwb (133 samples, 0.51%)</title><rect x="977.6" y="37" width="6.0" height="15.0" fill="rgb(221,205,40)" rx="2" ry="2" />
<text  x="980.60" y="47.5" ></text>
</g>
<g >
<title>all (25,950 samples, 100%)</title><rect x="10.0" y="293" width="1180.0" height="15.0" fill="rgb(241,134,35)" rx="2" ry="2" />
<text  x="13.00" y="303.5" ></text>
</g>
<g >
<title>iflib_txq_drain (4,462 samples, 17.19%)</title><rect x="977.6" y="69" width="202.9" height="15.0" fill="rgb(231,180,12)" rx="2" ry="2" />
<text  x="980.60" y="79.5" >iflib_txq_drain</text>
</g>
<g >
<title>ipfw_check_packet (707 samples, 2.72%)</title><rect x="945.5" y="85" width="32.1" height="15.0" fill="rgb(248,152,44)" rx="2" ry="2" />
<text  x="948.45" y="95.5" >ip..</text>
</g>
<g >
<title>netisr_dispatch_src (4,462 samples, 17.19%)</title><rect x="977.6" y="197" width="202.9" height="15.0" fill="rgb(205,139,11)" rx="2" ry="2" />
<text  x="980.60" y="207.5" >netisr_dispatch_src</text>
</g>
<g >
<title>ifmp_ring_enqueue (1,478 samples, 5.70%)</title><rect x="17.0" y="85" width="67.3" height="15.0" fill="rgb(215,220,24)" rx="2" ry="2" />
<text  x="20.05" y="95.5" >ifmp_ri..</text>
</g>
<g >
<title>ether_nh_input (416 samples, 1.60%)</title><rect x="84.3" y="245" width="18.9" height="15.0" fill="rgb(221,209,32)" rx="2" ry="2" />
<text  x="87.26" y="255.5" ></text>
</g>
<g >
<title>ipfw_dyn_lookup_state (281 samples, 1.08%)</title><rect x="843.3" y="69" width="12.8" height="15.0" fill="rgb(237,78,27)" rx="2" ry="2" />
<text  x="846.28" y="79.5" ></text>
</g>
<g >
<title>iflib_if_transmit (419 samples, 1.61%)</title><rect x="824.2" y="85" width="19.1" height="15.0" fill="rgb(228,186,27)" rx="2" ry="2" />
<text  x="827.22" y="95.5" ></text>
</g>
<g >
<title>m_freem (45 samples, 0.17%)</title><rect x="84.3" y="53" width="2.0" height="15.0" fill="rgb(229,220,51)" rx="2" ry="2" />
<text  x="87.26" y="63.5" ></text>
</g>
<g >
<title>pfil_mbuf_fwd (941 samples, 3.63%)</title><rect x="257.8" y="85" width="42.8" height="15.0" fill="rgb(237,174,9)" rx="2" ry="2" />
<text  x="260.82" y="95.5" >pfil..</text>
</g>
<g >
<title>ipfw_dyn_lookup_state (71 samples, 0.27%)</title><rect x="789.1" y="37" width="3.2" height="15.0" fill="rgb(220,103,14)" rx="2" ry="2" />
<text  x="792.12" y="47.5" ></text>
</g>
<g >
<title>ip_input (2,282 samples, 8.79%)</title><rect x="873.8" y="133" width="103.8" height="15.0" fill="rgb(251,32,25)" rx="2" ry="2" />
<text  x="876.83" y="143.5" >ip_input</text>
</g>
<g >
<title>pfil_mbuf_fwd (281 samples, 1.08%)</title><rect x="843.3" y="117" width="12.8" height="15.0" fill="rgb(212,147,27)" rx="2" ry="2" />
<text  x="846.28" y="127.5" ></text>
</g>
<g >
<title>ether_output (206 samples, 0.79%)</title><rect x="1180.6" y="181" width="9.4" height="15.0" fill="rgb(235,206,0)" rx="2" ry="2" />
<text  x="1183.63" y="191.5" ></text>
</g>
<g >
<title>iflib_txd_db_check (568 samples, 2.19%)</title><rect x="58.4" y="37" width="25.9" height="15.0" fill="rgb(209,228,39)" rx="2" ry="2" />
<text  x="61.43" y="47.5" >i..</text>
</g>
<g >
<title>ip_tryforward (416 samples, 1.60%)</title><rect x="84.3" y="181" width="18.9" height="15.0" fill="rgb(253,184,17)" rx="2" ry="2" />
<text  x="87.26" y="191.5" ></text>
</g>
<g >
<title>ether_output_frame (4,462 samples, 17.19%)</title><rect x="977.6" y="133" width="202.9" height="15.0" fill="rgb(217,100,39)" rx="2" ry="2" />
<text  x="980.60" y="143.5" >ether_output_frame</text>
</g>
<g >
<title>pfil_mbuf_in (10,814 samples, 41.67%)</title><rect x="300.6" y="85" width="491.7" height="15.0" fill="rgb(213,150,26)" rx="2" ry="2" />
<text  x="303.61" y="95.5" >pfil_mbuf_in</text>
</g>
<g >
<title>ether_output_frame (419 samples, 1.61%)</title><rect x="824.2" y="101" width="19.1" height="15.0" fill="rgb(215,82,11)" rx="2" ry="2" />
<text  x="827.22" y="111.5" ></text>
</g>
<g >
<title>ether_nh_input (206 samples, 0.79%)</title><rect x="1180.6" y="261" width="9.4" height="15.0" fill="rgb(219,111,22)" rx="2" ry="2" />
<text  x="1183.63" y="271.5" ></text>
</g>
<g >
<title>ether_input (1,478 samples, 5.70%)</title><rect x="17.0" y="245" width="67.3" height="15.0" fill="rgb(208,5,5)" rx="2" ry="2" />
<text  x="20.05" y="255.5" >ether_i..</text>
</g>
<g >
<title>iflib_if_transmit (377 samples, 1.45%)</title><rect x="198.6" y="53" width="17.2" height="15.0" fill="rgb(233,79,5)" rx="2" ry="2" />
<text  x="201.62" y="63.5" ></text>
</g>
<g >
<title>ipfw_chk (10,629 samples, 40.96%)</title><rect x="309.0" y="53" width="483.3" height="15.0" fill="rgb(230,53,16)" rx="2" ry="2" />
<text  x="312.02" y="63.5" >ipfw_chk</text>
</g>
<g >
<title>wakeup_any (568 samples, 2.19%)</title><rect x="109.3" y="197" width="25.8" height="15.0" fill="rgb(249,209,46)" rx="2" ry="2" />
<text  x="112.27" y="207.5" >w..</text>
</g>
<g >
<title>ether_demux (416 samples, 1.60%)</title><rect x="84.3" y="229" width="18.9" height="15.0" fill="rgb(240,40,48)" rx="2" ry="2" />
<text  x="87.26" y="239.5" ></text>
</g>
<g >
<title>m_tag_locate (38 samples, 0.15%)</title><rect x="101.4" y="133" width="1.8" height="15.0" fill="rgb(215,81,10)" rx="2" ry="2" />
<text  x="104.44" y="143.5" ></text>
</g>
<g >
<title>iflib_rxeof (15,141 samples, 58.35%)</title><rect x="135.1" y="213" width="688.5" height="15.0" fill="rgb(239,3,38)" rx="2" ry="2" />
<text  x="138.09" y="223.5" >iflib_rxeof</text>
</g>
<g >
<title>ipfw_check_packet (222 samples, 0.86%)</title><rect x="935.4" y="85" width="10.1" height="15.0" fill="rgb(228,20,38)" rx="2" ry="2" />
<text  x="938.36" y="95.5" ></text>
</g>
<g >
<title>drain_ring_lockless (419 samples, 1.61%)</title><rect x="824.2" y="53" width="19.1" height="15.0" fill="rgb(211,225,15)" rx="2" ry="2" />
<text  x="827.22" y="63.5" ></text>
</g>
<g >
<title>ifmp_ring_enqueue (206 samples, 0.79%)</title><rect x="1180.6" y="133" width="9.4" height="15.0" fill="rgb(240,10,16)" rx="2" ry="2" />
<text  x="1183.63" y="143.5" ></text>
</g>
<g >
<title>ipfw_check_packet (391 samples, 1.51%)</title><rect x="856.1" y="101" width="17.7" height="15.0" fill="rgb(239,6,23)" rx="2" ry="2" />
<text  x="859.05" y="111.5" ></text>
</g>
<g >
<title>netisr_dispatch_src (2,282 samples, 8.79%)</title><rect x="873.8" y="149" width="103.8" height="15.0" fill="rgb(214,49,18)" rx="2" ry="2" />
<text  x="876.83" y="159.5" >netisr_dispa..</text>
</g>
<g >
<title>dyn_update_proto_state (62 samples, 0.24%)</title><rect x="843.3" y="37" width="2.8" height="15.0" fill="rgb(237,62,20)" rx="2" ry="2" />
<text  x="846.28" y="47.5" ></text>
</g>
<g >
<title>bus_dmamap_load_mbuf_sg (333 samples, 1.28%)</title><rect x="86.3" y="53" width="15.1" height="15.0" fill="rgb(219,86,47)" rx="2" ry="2" />
<text  x="89.30" y="63.5" ></text>
</g>
<g >
<title>fork_exit (15,857 samples, 61.11%)</title><rect x="103.2" y="277" width="721.0" height="15.0" fill="rgb(237,36,50)" rx="2" ry="2" />
<text  x="106.17" y="287.5" >fork_exit</text>
</g>
<g >
<title>ifmp_ring_enqueue (377 samples, 1.45%)</title><rect x="198.6" y="37" width="17.2" height="15.0" fill="rgb(219,201,22)" rx="2" ry="2" />
<text  x="201.62" y="47.5" ></text>
</g>
<g >
<title>ip_input (1,478 samples, 5.70%)</title><rect x="17.0" y="165" width="67.3" height="15.0" fill="rgb(235,123,51)" rx="2" ry="2" />
<text  x="20.05" y="175.5" >ip_input</text>
</g>
<g >
<title>dyn_lookup_ipv4_state (222 samples, 0.86%)</title><rect x="935.4" y="37" width="10.1" height="15.0" fill="rgb(237,162,22)" rx="2" ry="2" />
<text  x="938.36" y="47.5" ></text>
</g>
<g >
<title>ether_output_frame (377 samples, 1.45%)</title><rect x="198.6" y="69" width="17.2" height="15.0" fill="rgb(213,84,6)" rx="2" ry="2" />
<text  x="201.62" y="79.5" ></text>
</g>
<g >
<title>ether_input (416 samples, 1.60%)</title><rect x="84.3" y="277" width="18.9" height="15.0" fill="rgb(213,229,27)" rx="2" ry="2" />
<text  x="87.26" y="287.5" ></text>
</g>
<g >
<title>ether_demux (1,478 samples, 5.70%)</title><rect x="17.0" y="197" width="67.3" height="15.0" fill="rgb(245,122,8)" rx="2" ry="2" />
<text  x="20.05" y="207.5" >ether_d..</text>
</g>
<g >
<title>hash_packet (222 samples, 0.86%)</title><rect x="863.7" y="53" width="10.1" height="15.0" fill="rgb(225,21,0)" rx="2" ry="2" />
<text  x="866.74" y="63.5" ></text>
</g>
<g >
<title>dyn_lookup_ipv4_state (163 samples, 0.63%)</title><rect x="856.3" y="53" width="7.4" height="15.0" fill="rgb(224,44,24)" rx="2" ry="2" />
<text  x="859.33" y="63.5" ></text>
</g>
<g >
<title>gtaskqueue_run_locked (15,856 samples, 61.10%)</title><rect x="103.2" y="245" width="721.0" height="15.0" fill="rgb(207,120,50)" rx="2" ry="2" />
<text  x="106.17" y="255.5" >gtaskqueue_run_locked</text>
</g>
<g >
<title>ipfw_chk (281 samples, 1.08%)</title><rect x="843.3" y="85" width="12.8" height="15.0" fill="rgb(232,155,3)" rx="2" ry="2" />
<text  x="846.28" y="95.5" ></text>
</g>
<g >
<title>jenkins_hash32 (6 samples, 0.02%)</title><rect x="856.1" y="37" width="0.2" height="15.0" fill="rgb(230,179,26)" rx="2" ry="2" />
<text  x="859.05" y="47.5" ></text>
</g>
<g >
<title>sleepq_lock (3 samples, 0.01%)</title><rect x="1180.5" y="197" width="0.1" height="15.0" fill="rgb(243,111,20)" rx="2" ry="2" />
<text  x="1183.50" y="207.5" ></text>
</g>
<g >
<title>m_free (206 samples, 0.79%)</title><rect x="1180.6" y="53" width="9.4" height="15.0" fill="rgb(253,0,37)" rx="2" ry="2" />
<text  x="1183.63" y="63.5" ></text>
</g>
<g >
<title>ip_tryforward (206 samples, 0.79%)</title><rect x="1180.6" y="197" width="9.4" height="15.0" fill="rgb(215,56,45)" rx="2" ry="2" />
<text  x="1183.63" y="207.5" ></text>
</g>
<g >
<title>iflib_if_transmit (378 samples, 1.46%)</title><rect x="84.3" y="133" width="17.1" height="15.0" fill="rgb(218,68,10)" rx="2" ry="2" />
<text  x="87.26" y="143.5" ></text>
</g>
<g >
<title>drain_ring_lockless (1,353 samples, 5.21%)</title><rect x="873.8" y="37" width="61.6" height="15.0" fill="rgb(236,131,24)" rx="2" ry="2" />
<text  x="876.83" y="47.5" >drain_..</text>
</g>
<g >
<title>_task_fn_rx (1,091 samples, 4.20%)</title><rect x="824.2" y="261" width="49.6" height="15.0" fill="rgb(226,83,51)" rx="2" ry="2" />
<text  x="827.22" y="271.5" >_task..</text>
</g>
<g >
<title>ipfw_chk (915 samples, 3.53%)</title><rect x="259.0" y="53" width="41.6" height="15.0" fill="rgb(254,129,12)" rx="2" ry="2" />
<text  x="262.01" y="63.5" >ipf..</text>
</g>
<g >
<title>bounce_bus_dmamap_load_buffer (333 samples, 1.28%)</title><rect x="86.3" y="37" width="15.1" height="15.0" fill="rgb(221,199,1)" rx="2" ry="2" />
<text  x="89.30" y="47.5" ></text>
</g>
<g >
<title>iflib_if_transmit (1,478 samples, 5.70%)</title><rect x="17.0" y="101" width="67.3" height="15.0" fill="rgb(236,105,25)" rx="2" ry="2" />
<text  x="20.05" y="111.5" >iflib_i..</text>
</g>
<g >
<title>iflib_if_transmit (1,353 samples, 5.21%)</title><rect x="873.8" y="69" width="61.6" height="15.0" fill="rgb(246,26,54)" rx="2" ry="2" />
<text  x="876.83" y="79.5" >iflib_..</text>
</g>
<g >
<title>iflib_if_transmit (206 samples, 0.79%)</title><rect x="1180.6" y="149" width="9.4" height="15.0" fill="rgb(248,140,24)" rx="2" ry="2" />
<text  x="1183.63" y="159.5" ></text>
</g>
<g >
<title>wakeup (13 samples, 0.05%)</title><rect x="823.6" y="229" width="0.6" height="15.0" fill="rgb(225,3,21)" rx="2" ry="2" />
<text  x="826.59" y="239.5" ></text>
</g>
<g >
<title>netisr_dispatch_src (1,478 samples, 5.70%)</title><rect x="17.0" y="229" width="67.3" height="15.0" fill="rgb(212,182,36)" rx="2" ry="2" />
<text  x="20.05" y="239.5" >netisr_..</text>
</g>
<g >
<title>ipfw_dyn_install_state (6 samples, 0.02%)</title><rect x="856.1" y="69" width="0.2" height="15.0" fill="rgb(217,89,54)" rx="2" ry="2" />
<text  x="859.05" y="79.5" ></text>
</g>
<g >
<title>netisr_dispatch_src (416 samples, 1.60%)</title><rect x="84.3" y="261" width="18.9" height="15.0" fill="rgb(207,141,36)" rx="2" ry="2" />
<text  x="87.26" y="271.5" ></text>
</g>
<g >
<title>memcpy_erms (267 samples, 1.03%)</title><rect x="215.8" y="69" width="12.1" height="15.0" fill="rgb(214,36,21)" rx="2" ry="2" />
<text  x="218.76" y="79.5" ></text>
</g>
<g >
<title>netisr_dispatch_src (1,478 samples, 5.70%)</title><rect x="17.0" y="181" width="67.3" height="15.0" fill="rgb(229,185,11)" rx="2" ry="2" />
<text  x="20.05" y="191.5" >netisr_..</text>
</g>
<g >
<title>ether_nh_input (14,251 samples, 54.92%)</title><rect x="146.2" y="165" width="648.1" height="15.0" fill="rgb(208,213,21)" rx="2" ry="2" />
<text  x="149.23" y="175.5" >ether_nh_input</text>
</g>
<g >
<title>dyn_lookup_ipv4_state (62 samples, 0.24%)</title><rect x="843.3" y="53" width="2.8" height="15.0" fill="rgb(205,223,6)" rx="2" ry="2" />
<text  x="846.28" y="63.5" ></text>
</g>
<g >
<title>ip_input (416 samples, 1.60%)</title><rect x="84.3" y="197" width="18.9" height="15.0" fill="rgb(225,57,24)" rx="2" ry="2" />
<text  x="87.26" y="207.5" ></text>
</g>
<g >
<title>netisr_dispatch_src (206 samples, 0.79%)</title><rect x="1180.6" y="229" width="9.4" height="15.0" fill="rgb(247,144,43)" rx="2" ry="2" />
<text  x="1183.63" y="239.5" ></text>
</g>
<g >
<title>ip_tryforward (4,462 samples, 17.19%)</title><rect x="977.6" y="165" width="202.9" height="15.0" fill="rgb(253,132,23)" rx="2" ry="2" />
<text  x="980.60" y="175.5" >ip_tryforward</text>
</g>
<g >
<title>ip_input (206 samples, 0.79%)</title><rect x="1180.6" y="213" width="9.4" height="15.0" fill="rgb(213,124,17)" rx="2" ry="2" />
<text  x="1183.63" y="223.5" ></text>
</g>
<g >
<title>iflib_completed_tx_reclaim (45 samples, 0.17%)</title><rect x="84.3" y="69" width="2.0" height="15.0" fill="rgb(250,32,38)" rx="2" ry="2" />
<text  x="87.26" y="79.5" ></text>
</g>
<g >
<title>drain_ring_lockless (206 samples, 0.79%)</title><rect x="1180.6" y="117" width="9.4" height="15.0" fill="rgb(230,114,23)" rx="2" ry="2" />
<text  x="1183.63" y="127.5" ></text>
</g>
<g >
<title>gtaskqueue_thread_loop (15,856 samples, 61.10%)</title><rect x="103.2" y="261" width="721.0" height="15.0" fill="rgb(208,14,3)" rx="2" ry="2" />
<text  x="106.17" y="271.5" >gtaskqueue_thread_loop</text>
</g>
<g >
<title>bus_dmamap_load_mbuf_sg (79 samples, 0.30%)</title><rect x="983.6" y="37" width="3.6" height="15.0" fill="rgb(243,166,23)" rx="2" ry="2" />
<text  x="986.65" y="47.5" ></text>
</g>
<g >
<title>_rm_rlock (198 samples, 0.76%)</title><rect x="780.1" y="37" width="9.0" height="15.0" fill="rgb(239,213,49)" rx="2" ry="2" />
<text  x="783.11" y="47.5" ></text>
</g>
<g >
<title>pfil_mbuf_in (707 samples, 2.72%)</title><rect x="945.5" y="101" width="32.1" height="15.0" fill="rgb(222,85,40)" rx="2" ry="2" />
<text  x="948.45" y="111.5" >pf..</text>
</g>
<g >
<title>iflib_rxeof (1,478 samples, 5.70%)</title><rect x="17.0" y="261" width="67.3" height="15.0" fill="rgb(243,85,31)" rx="2" ry="2" />
<text  x="20.05" y="271.5" >iflib_r..</text>
</g>
<g >
<title>dyn_update_proto_state (163 samples, 0.63%)</title><rect x="856.3" y="37" width="7.4" height="15.0" fill="rgb(213,117,2)" rx="2" ry="2" />
<text  x="859.33" y="47.5" ></text>
</g>
<g >
<title>ixl_isc_txd_flush (1,107 samples, 4.27%)</title><rect x="1130.2" y="37" width="50.3" height="15.0" fill="rgb(253,36,28)" rx="2" ry="2" />
<text  x="1133.16" y="47.5" >ixl_i..</text>
</g>
<g >
<title>ether_output (1,478 samples, 5.70%)</title><rect x="17.0" y="133" width="67.3" height="15.0" fill="rgb(243,174,0)" rx="2" ry="2" />
<text  x="20.05" y="143.5" >ether_o..</text>
</g>
<g >
<title>ip_tryforward (2,282 samples, 8.79%)</title><rect x="873.8" y="117" width="103.8" height="15.0" fill="rgb(224,42,36)" rx="2" ry="2" />
<text  x="876.83" y="127.5" >ip_tryforward</text>
</g>
<g >
<title>memcpy_erms (29 samples, 0.11%)</title><rect x="809.3" y="197" width="1.3" height="15.0" fill="rgb(250,129,46)" rx="2" ry="2" />
<text  x="812.26" y="207.5" ></text>
</g>
<g >
<title>ether_demux (1,091 samples, 4.20%)</title><rect x="824.2" y="181" width="49.6" height="15.0" fill="rgb(226,81,8)" rx="2" ry="2" />
<text  x="827.22" y="191.5" >ether..</text>
</g>
<g >
<title>Xapic_isr1 (155 samples, 0.60%)</title><rect x="10.0" y="277" width="7.0" height="15.0" fill="rgb(224,186,9)" rx="2" ry="2" />
<text  x="13.00" y="287.5" ></text>
</g>
<g >
<title>_task_fn_rx (2,282 samples, 8.79%)</title><rect x="873.8" y="245" width="103.8" height="15.0" fill="rgb(221,95,41)" rx="2" ry="2" />
<text  x="876.83" y="255.5" >_task_fn_rx</text>
</g>
<g >
<title>uma_zalloc_arg (70 samples, 0.27%)</title><rect x="798.1" y="181" width="3.2" height="15.0" fill="rgb(246,118,29)" rx="2" ry="2" />
<text  x="801.08" y="191.5" ></text>
</g>
<g >
<title>ipfw_check_packet (10,745 samples, 41.41%)</title><rect x="303.7" y="69" width="488.6" height="15.0" fill="rgb(208,131,5)" rx="2" ry="2" />
<text  x="306.75" y="79.5" >ipfw_check_packet</text>
</g>
<g >
<title>ether_input (4,462 samples, 17.19%)</title><rect x="977.6" y="261" width="202.9" height="15.0" fill="rgb(213,208,37)" rx="2" ry="2" />
<text  x="980.60" y="271.5" >ether_input</text>
</g>
<g >
<title>iflib_fl_refill (154 samples, 0.59%)</title><rect x="794.3" y="197" width="7.0" height="15.0" fill="rgb(225,133,33)" rx="2" ry="2" />
<text  x="797.26" y="207.5" ></text>
</g>
<g >
<title>ipfw_chk (222 samples, 0.86%)</title><rect x="935.4" y="69" width="10.1" height="15.0" fill="rgb(212,1,4)" rx="2" ry="2" />
<text  x="938.36" y="79.5" ></text>
</g>
<g >
<title>ether_input (14,317 samples, 55.17%)</title><rect x="143.2" y="197" width="651.1" height="15.0" fill="rgb(245,52,50)" rx="2" ry="2" />
<text  x="146.23" y="207.5" >ether_input</text>
</g>
<g >
<title>ip_input (1,091 samples, 4.20%)</title><rect x="824.2" y="149" width="49.6" height="15.0" fill="rgb(237,135,38)" rx="2" ry="2" />
<text  x="827.22" y="159.5" >ip_in..</text>
</g>
<g >
<title>ether_nh_input (1,478 samples, 5.70%)</title><rect x="17.0" y="213" width="67.3" height="15.0" fill="rgb(207,225,52)" rx="2" ry="2" />
<text  x="20.05" y="223.5" >ether_n..</text>
</g>
<g >
<title>netisr_dispatch_src (14,114 samples, 54.39%)</title><rect x="150.6" y="133" width="641.7" height="15.0" fill="rgb(246,142,36)" rx="2" ry="2" />
<text  x="153.55" y="143.5" >netisr_dispatch_src</text>
</g>
<g >
<title>iflib_rxeof (2,282 samples, 8.79%)</title><rect x="873.8" y="229" width="103.8" height="15.0" fill="rgb(249,152,5)" rx="2" ry="2" />
<text  x="876.83" y="239.5" >iflib_rxeof</text>
</g>
<g >
<title>iflib_txd_db_check (1,107 samples, 4.27%)</title><rect x="1130.2" y="53" width="50.3" height="15.0" fill="rgb(235,30,29)" rx="2" ry="2" />
<text  x="1133.16" y="63.5" >iflib..</text>
</g>
<g >
<title>m_freem (206 samples, 0.79%)</title><rect x="1180.6" y="69" width="9.4" height="15.0" fill="rgb(241,204,15)" rx="2" ry="2" />
<text  x="1183.63" y="79.5" ></text>
</g>
<g >
<title>ip_input (14,077 samples, 54.25%)</title><rect x="152.2" y="117" width="640.1" height="15.0" fill="rgb(245,63,17)" rx="2" ry="2" />
<text  x="155.24" y="127.5" >ip_input</text>
</g>
<g >
<title>ifmp_ring_enqueue (4,462 samples, 17.19%)</title><rect x="977.6" y="101" width="202.9" height="15.0" fill="rgb(242,92,12)" rx="2" ry="2" />
<text  x="980.60" y="111.5" >ifmp_ring_enqueue</text>
</g>
<g >
<title>memcmp (42 samples, 0.16%)</title><rect x="792.3" y="149" width="2.0" height="15.0" fill="rgb(252,112,48)" rx="2" ry="2" />
<text  x="795.35" y="159.5" ></text>
</g>
<g >
<title>ipfw_check_packet (281 samples, 1.08%)</title><rect x="843.3" y="101" width="12.8" height="15.0" fill="rgb(221,131,4)" rx="2" ry="2" />
<text  x="846.28" y="111.5" ></text>
</g>
<g >
<title>netisr_dispatch_src (1,091 samples, 4.20%)</title><rect x="824.2" y="165" width="49.6" height="15.0" fill="rgb(253,13,19)" rx="2" ry="2" />
<text  x="827.22" y="175.5" >netis..</text>
</g>
<g >
<title>_task_fn_rx (15,709 samples, 60.54%)</title><rect x="109.3" y="229" width="714.3" height="15.0" fill="rgb(235,200,18)" rx="2" ry="2" />
<text  x="112.27" y="239.5" >_task_fn_rx</text>
</g>
<g >
<title>intr_event_handle (3 samples, 0.01%)</title><rect x="1180.5" y="261" width="0.1" height="15.0" fill="rgb(245,14,39)" rx="2" ry="2" />
<text  x="1183.50" y="271.5" ></text>
</g>
<g >
<title>iflib_txq_drain (206 samples, 0.79%)</title><rect x="1180.6" y="101" width="9.4" height="15.0" fill="rgb(238,83,6)" rx="2" ry="2" />
<text  x="1183.63" y="111.5" ></text>
</g>
<g >
<title>ether_output_frame (1,478 samples, 5.70%)</title><rect x="17.0" y="117" width="67.3" height="15.0" fill="rgb(224,73,45)" rx="2" ry="2" />
<text  x="20.05" y="127.5" >ether_o..</text>
</g>
<g >
<title>ip_tryforward (1,478 samples, 5.70%)</title><rect x="17.0" y="149" width="67.3" height="15.0" fill="rgb(250,151,15)" rx="2" ry="2" />
<text  x="20.05" y="159.5" >ip_tryf..</text>
</g>
<g >
<title>intr_execute_handlers (3 samples, 0.01%)</title><rect x="1180.5" y="277" width="0.1" height="15.0" fill="rgb(253,51,53)" rx="2" ry="2" />
<text  x="1183.50" y="287.5" ></text>
</g>
<g >
<title>ip_tryforward (1,091 samples, 4.20%)</title><rect x="824.2" y="133" width="49.6" height="15.0" fill="rgb(209,13,52)" rx="2" ry="2" />
<text  x="827.22" y="143.5" >ip_tr..</text>
</g>
<g >
<title>sleepq_lock (13 samples, 0.05%)</title><rect x="823.6" y="213" width="0.6" height="15.0" fill="rgb(239,47,20)" rx="2" ry="2" />
<text  x="826.59" y="223.5" ></text>
</g>
<g >
<title>grouptaskqueue_enqueue (568 samples, 2.19%)</title><rect x="109.3" y="213" width="25.8" height="15.0" fill="rgb(215,100,17)" rx="2" ry="2" />
<text  x="112.27" y="223.5" >g..</text>
</g>
<g >
<title>hash_packet (219 samples, 0.84%)</title><rect x="846.1" y="53" width="10.0" height="15.0" fill="rgb(233,147,25)" rx="2" ry="2" />
<text  x="849.09" y="63.5" ></text>
</g>
<g >
<title>iflib_if_transmit (4,462 samples, 17.19%)</title><rect x="977.6" y="117" width="202.9" height="15.0" fill="rgb(231,65,33)" rx="2" ry="2" />
<text  x="980.60" y="127.5" >iflib_if_transmit</text>
</g>
<g >
<title>ether_output (1,353 samples, 5.21%)</title><rect x="873.8" y="101" width="61.6" height="15.0" fill="rgb(223,103,48)" rx="2" ry="2" />
<text  x="876.83" y="111.5" >ether_..</text>
</g>
<g >
<title>ether_demux (2,282 samples, 8.79%)</title><rect x="873.8" y="165" width="103.8" height="15.0" fill="rgb(251,228,25)" rx="2" ry="2" />
<text  x="876.83" y="175.5" >ether_demux</text>
</g>
<g >
<title>netisr_dispatch_src (14,317 samples, 55.17%)</title><rect x="143.2" y="181" width="651.1" height="15.0" fill="rgb(222,208,5)" rx="2" ry="2" />
<text  x="146.23" y="191.5" >netisr_dispatch_src</text>
</g>
<g >
<title>ipfw_dyn_lookup_state (43 samples, 0.17%)</title><rect x="298.7" y="37" width="1.9" height="15.0" fill="rgb(206,138,8)" rx="2" ry="2" />
<text  x="301.66" y="47.5" ></text>
</g>
<g >
<title>iflib_encap (333 samples, 1.28%)</title><rect x="86.3" y="69" width="15.1" height="15.0" fill="rgb(234,56,21)" rx="2" ry="2" />
<text  x="89.30" y="79.5" ></text>
</g>
<g >
<title>ifmp_ring_enqueue (1,353 samples, 5.21%)</title><rect x="873.8" y="53" width="61.6" height="15.0" fill="rgb(224,60,48)" rx="2" ry="2" />
<text  x="876.83" y="63.5" >ifmp_r..</text>
</g>
<g >
<title>ether_nh_input (2,282 samples, 8.79%)</title><rect x="873.8" y="181" width="103.8" height="15.0" fill="rgb(243,118,21)" rx="2" ry="2" />
<text  x="876.83" y="191.5" >ether_nh_input</text>
</g>
<g >
<title>ether_demux (206 samples, 0.79%)</title><rect x="1180.6" y="245" width="9.4" height="15.0" fill="rgb(241,160,36)" rx="2" ry="2" />
<text  x="1183.63" y="255.5" ></text>
</g>
<g >
<title>ether_output_frame (206 samples, 0.79%)</title><rect x="1180.6" y="165" width="9.4" height="15.0" fill="rgb(241,23,23)" rx="2" ry="2" />
<text  x="1183.63" y="175.5" ></text>
</g>
<g >
<title>iflib_txq_drain (1,478 samples, 5.70%)</title><rect x="17.0" y="53" width="67.3" height="15.0" fill="rgb(216,36,10)" rx="2" ry="2" />
<text  x="20.05" y="63.5" >iflib_t..</text>
</g>
<g >
<title>pfil_mbuf_in (38 samples, 0.15%)</title><rect x="101.4" y="165" width="1.8" height="15.0" fill="rgb(216,117,2)" rx="2" ry="2" />
<text  x="104.44" y="175.5" ></text>
</g>
<g >
<title>in_lltable_lookup (71 samples, 0.27%)</title><rect x="195.4" y="53" width="3.2" height="15.0" fill="rgb(230,6,40)" rx="2" ry="2" />
<text  x="198.39" y="63.5" ></text>
</g>
<g >
<title>pfil_mbuf_in (391 samples, 1.51%)</title><rect x="856.1" y="117" width="17.7" height="15.0" fill="rgb(219,159,24)" rx="2" ry="2" />
<text  x="859.05" y="127.5" ></text>
</g>
<g >
<title>ip_input (4,462 samples, 17.19%)</title><rect x="977.6" y="181" width="202.9" height="15.0" fill="rgb(207,92,10)" rx="2" ry="2" />
<text  x="980.60" y="191.5" >ip_input</text>
</g>
<g >
<title>ether_output (419 samples, 1.61%)</title><rect x="824.2" y="117" width="19.1" height="15.0" fill="rgb(235,213,44)" rx="2" ry="2" />
<text  x="827.22" y="127.5" ></text>
</g>
<g >
<title>ether_output (4,462 samples, 17.19%)</title><rect x="977.6" y="149" width="202.9" height="15.0" fill="rgb(212,137,41)" rx="2" ry="2" />
<text  x="980.60" y="159.5" >ether_output</text>
</g>
<g >
<title>netisr_dispatch_src (1,091 samples, 4.20%)</title><rect x="824.2" y="213" width="49.6" height="15.0" fill="rgb(223,91,40)" rx="2" ry="2" />
<text  x="827.22" y="223.5" >netis..</text>
</g>
<g >
<title>netisr_dispatch_src (416 samples, 1.60%)</title><rect x="84.3" y="213" width="18.9" height="15.0" fill="rgb(253,171,43)" rx="2" ry="2" />
<text  x="87.26" y="223.5" ></text>
</g>
<g >
<title>iflib_rxeof (4,462 samples, 17.19%)</title><rect x="977.6" y="277" width="202.9" height="15.0" fill="rgb(253,25,22)" rx="2" ry="2" />
<text  x="980.60" y="287.5" >iflib_rxeof</text>
</g>
<g >
<title>jenkins_hash32 (219 samples, 0.84%)</title><rect x="846.1" y="37" width="10.0" height="15.0" fill="rgb(239,4,4)" rx="2" ry="2" />
<text  x="849.09" y="47.5" ></text>
</g>
<g >
<title>ether_demux (4,462 samples, 17.19%)</title><rect x="977.6" y="213" width="202.9" height="15.0" fill="rgb(215,73,49)" rx="2" ry="2" />
<text  x="980.60" y="223.5" >ether_demux</text>
</g>
<g >
<title>ether_output (936 samples, 3.61%)</title><rect x="185.3" y="85" width="42.6" height="15.0" fill="rgb(242,128,4)" rx="2" ry="2" />
<text  x="188.34" y="95.5" >ethe..</text>
</g>
<g >
<title>_rm_rlock (316 samples, 1.22%)</title><rect x="284.3" y="37" width="14.4" height="15.0" fill="rgb(220,142,49)" rx="2" ry="2" />
<text  x="287.29" y="47.5" ></text>
</g>
<g >
<title>iflib_completed_tx_reclaim (133 samples, 0.51%)</title><rect x="977.6" y="53" width="6.0" height="15.0" fill="rgb(220,192,19)" rx="2" ry="2" />
<text  x="980.60" y="63.5" ></text>
</g>
<g >
<title>_task_fn_rx (1,478 samples, 5.70%)</title><rect x="17.0" y="277" width="67.3" height="15.0" fill="rgb(214,144,52)" rx="2" ry="2" />
<text  x="20.05" y="287.5" >_task_f..</text>
</g>
<g >
<title>ip_findroute (508 samples, 1.96%)</title><rect x="234.7" y="85" width="23.1" height="15.0" fill="rgb(225,77,20)" rx="2" ry="2" />
<text  x="237.72" y="95.5" >i..</text>
</g>
<g >
<title>ipfw_chk (391 samples, 1.51%)</title><rect x="856.1" y="85" width="17.7" height="15.0" fill="rgb(232,178,28)" rx="2" ry="2" />
<text  x="859.05" y="95.5" ></text>
</g>
<g >
<title>drain_ring_lockless (4,462 samples, 17.19%)</title><rect x="977.6" y="85" width="202.9" height="15.0" fill="rgb(229,125,4)" rx="2" ry="2" />
<text  x="980.60" y="95.5" >drain_ring_lockless</text>
</g>
<g >
<title>iflib_txq_drain (419 samples, 1.61%)</title><rect x="824.2" y="37" width="19.1" height="15.0" fill="rgb(219,176,22)" rx="2" ry="2" />
<text  x="827.22" y="47.5" ></text>
</g>
<g >
<title>netisr_dispatch_src (4,462 samples, 17.19%)</title><rect x="977.6" y="245" width="202.9" height="15.0" fill="rgb(227,163,27)" rx="2" ry="2" />
<text  x="980.60" y="255.5" >netisr_dispatch_src</text>
</g>
<g >
<title>ether_output (378 samples, 1.46%)</title><rect x="84.3" y="165" width="17.1" height="15.0" fill="rgb(212,4,27)" rx="2" ry="2" />
<text  x="87.26" y="175.5" ></text>
</g>
<g >
<title>ip_tryforward (14,019 samples, 54.02%)</title><rect x="154.9" y="101" width="637.4" height="15.0" fill="rgb(235,174,24)" rx="2" ry="2" />
<text  x="157.87" y="111.5" >ip_tryforward</text>
</g>
<g >
<title>iflib_fast_intr_rxtx (3 samples, 0.01%)</title><rect x="1180.5" y="245" width="0.1" height="15.0" fill="rgb(252,101,22)" rx="2" ry="2" />
<text  x="1183.50" y="255.5" ></text>
</g>
<g >
<title>ipfw_dyn_lookup_state (707 samples, 2.72%)</title><rect x="945.5" y="53" width="32.1" height="15.0" fill="rgb(254,45,41)" rx="2" ry="2" />
<text  x="948.45" y="63.5" >ip..</text>
</g>
<g >
<title>ether_output_frame (378 samples, 1.46%)</title><rect x="84.3" y="149" width="17.1" height="15.0" fill="rgb(215,87,28)" rx="2" ry="2" />
<text  x="87.26" y="159.5" ></text>
</g>
<g >
<title>netisr_dispatch_src (2,282 samples, 8.79%)</title><rect x="873.8" y="197" width="103.8" height="15.0" fill="rgb(245,55,18)" rx="2" ry="2" />
<text  x="876.83" y="207.5" >netisr_dispa..</text>
</g>
<g >
<title>jenkins_hash32 (222 samples, 0.86%)</title><rect x="863.7" y="37" width="10.1" height="15.0" fill="rgb(212,199,33)" rx="2" ry="2" />
<text  x="866.74" y="47.5" ></text>
</g>
<g >
<title>bsearch4_lookup (92 samples, 0.35%)</title><rect x="234.7" y="69" width="4.2" height="15.0" fill="rgb(210,43,23)" rx="2" ry="2" />
<text  x="237.72" y="79.5" ></text>
</g>
<g >
<title>ixl_isc_rxd_pkt_get (176 samples, 0.68%)</title><rect x="801.3" y="197" width="8.0" height="15.0" fill="rgb(247,103,23)" rx="2" ry="2" />
<text  x="804.26" y="207.5" ></text>
</g>
<g >
<title>netisr_dispatch_src (206 samples, 0.79%)</title><rect x="1180.6" y="277" width="9.4" height="15.0" fill="rgb(215,90,34)" rx="2" ry="2" />
<text  x="1183.63" y="287.5" ></text>
</g>
<g >
<title>wakeup_any (3 samples, 0.01%)</title><rect x="1180.5" y="213" width="0.1" height="15.0" fill="rgb(208,82,15)" rx="2" ry="2" />
<text  x="1183.50" y="223.5" ></text>
</g>
<g >
<title>sleepq_lock (568 samples, 2.19%)</title><rect x="109.3" y="181" width="25.8" height="15.0" fill="rgb(245,58,12)" rx="2" ry="2" />
<text  x="112.27" y="191.5" >s..</text>
</g>
<g >
<title>iflib_encap (423 samples, 1.63%)</title><rect x="39.2" y="37" width="19.2" height="15.0" fill="rgb(215,146,43)" rx="2" ry="2" />
<text  x="42.19" y="47.5" ></text>
</g>
<g >
<title>hash_packet (6 samples, 0.02%)</title><rect x="856.1" y="53" width="0.2" height="15.0" fill="rgb(239,102,44)" rx="2" ry="2" />
<text  x="859.05" y="63.5" ></text>
</g>
<g >
<title>uma_zfree_arg (206 samples, 0.79%)</title><rect x="1180.6" y="37" width="9.4" height="15.0" fill="rgb(228,221,54)" rx="2" ry="2" />
<text  x="1183.63" y="47.5" ></text>
</g>
<g >
<title>ether_input (2,282 samples, 8.79%)</title><rect x="873.8" y="213" width="103.8" height="15.0" fill="rgb(245,103,19)" rx="2" ry="2" />
<text  x="876.83" y="223.5" >ether_input</text>
</g>
<g >
<title>ether_demux (14,114 samples, 54.39%)</title><rect x="150.6" y="149" width="641.7" height="15.0" fill="rgb(249,172,39)" rx="2" ry="2" />
<text  x="153.55" y="159.5" >ether_demux</text>
</g>
<g >
<title>iflib_completed_tx_reclaim (487 samples, 1.88%)</title><rect x="17.0" y="37" width="22.2" height="15.0" fill="rgb(248,86,39)" rx="2" ry="2" />
<text  x="20.05" y="47.5" >i..</text>
</g>
<g >
<title>ixl_isc_txd_encap (3,143 samples, 12.11%)</title><rect x="987.2" y="37" width="143.0" height="15.0" fill="rgb(247,72,41)" rx="2" ry="2" />
<text  x="990.24" y="47.5" >ixl_isc_txd_encap</text>
</g>
<g >
<title>ipfw_check_packet (38 samples, 0.15%)</title><rect x="101.4" y="149" width="1.8" height="15.0" fill="rgb(210,57,5)" rx="2" ry="2" />
<text  x="104.44" y="159.5" ></text>
</g>
<g >
<title>iflib_rxeof (1,091 samples, 4.20%)</title><rect x="824.2" y="245" width="49.6" height="15.0" fill="rgb(209,4,46)" rx="2" ry="2" />
<text  x="827.22" y="255.5" >iflib..</text>
</g>
<g >
<title>arpresolve (126 samples, 0.49%)</title><rect x="192.9" y="69" width="5.7" height="15.0" fill="rgb(245,68,21)" rx="2" ry="2" />
<text  x="195.89" y="79.5" ></text>
</g>
<g >
<title>pfil_mbuf_fwd (222 samples, 0.86%)</title><rect x="935.4" y="101" width="10.1" height="15.0" fill="rgb(248,162,8)" rx="2" ry="2" />
<text  x="938.36" y="111.5" ></text>
</g>
<g >
<title>gtaskqueue_run_locked (1,091 samples, 4.20%)</title><rect x="824.2" y="277" width="49.6" height="15.0" fill="rgb(233,23,23)" rx="2" ry="2" />
<text  x="827.22" y="287.5" >gtask..</text>
</g>
</g>
</svg>
