<?xml version="1.0" standalone="no"?>
<!DOCTYPE svg PUBLIC "-//W3C//DTD SVG 1.1//EN" "http://www.w3.org/Graphics/SVG/1.1/DTD/svg11.dtd">
<svg version="1.1" width="1200" height="342" onload="init(evt)" viewBox="0 0 1200 342" xmlns="http://www.w3.org/2000/svg" xmlns:xlink="http://www.w3.org/1999/xlink">
<!-- Flame graph stack visualization. See https://github.com/brendangregg/FlameGraph for latest version, and http://www.brendangregg.com/flamegraphs.html for examples. -->
<!-- NOTES:  -->
<defs>
	<linearGradient id="background" y1="0" y2="1" x1="0" x2="0" >
		<stop stop-color="#eeeeee" offset="5%" />
		<stop stop-color="#eeeeb0" offset="95%" />
	</linearGradient>
</defs>
<style type="text/css">
	text { font-family:Verdana; font-size:12px; fill:rgb(0,0,0); }
	#search, #ignorecase { opacity:0.1; cursor:pointer; }
	#search:hover, #search.show, #ignorecase:hover, #ignorecase.show { opacity:1; }
	#subtitle { text-anchor:middle; font-color:rgb(160,160,160); }
	#title { text-anchor:middle; font-size:17px}
	#unzoom { cursor:pointer; }
	#frames > *:hover { stroke:black; stroke-width:0.5; cursor:pointer; }
	.hide { display:none; }
	.parent { opacity:0.5; }
</style>
<script type="text/ecmascript">
<![CDATA[
	"use strict";
	var details, searchbtn, unzoombtn, matchedtxt, svg, searching, currentSearchTerm, ignorecase, ignorecaseBtn;
	function init(evt) {
		details = document.getElementById("details").firstChild;
		searchbtn = document.getElementById("search");
		ignorecaseBtn = document.getElementById("ignorecase");
		unzoombtn = document.getElementById("unzoom");
		matchedtxt = document.getElementById("matched");
		svg = document.getElementsByTagName("svg")[0];
		searching = 0;
		currentSearchTerm = null;

		// use GET parameters to restore a flamegraphs state.
		var params = get_params();
		if (params.x && params.y)
			zoom(find_group(document.querySelector('[x="' + params.x + '"][y="' + params.y + '"]')));
                if (params.s) search(params.s);
	}

	// event listeners
	window.addEventListener("click", function(e) {
		var target = find_group(e.target);
		if (target) {
			if (target.nodeName == "a") {
				if (e.ctrlKey === false) return;
				e.preventDefault();
			}
			if (target.classList.contains("parent")) unzoom();
			zoom(target);
			if (!document.querySelector('.parent')) {
				clearzoom();
				return;
			}

			// set parameters for zoom state
			var el = target.querySelector("rect");
			if (el && el.attributes && el.attributes.y && el.attributes._orig_x) {
				var params = get_params()
				params.x = el.attributes._orig_x.value;
				params.y = el.attributes.y.value;
				history.replaceState(null, null, parse_params(params));
			}
		}
		else if (e.target.id == "unzoom") clearzoom();
		else if (e.target.id == "search") search_prompt();
		else if (e.target.id == "ignorecase") toggle_ignorecase();
	}, false)

	// mouse-over for info
	// show
	window.addEventListener("mouseover", function(e) {
		var target = find_group(e.target);
		if (target) details.nodeValue = "Function: " + g_to_text(target);
	}, false)

	// clear
	window.addEventListener("mouseout", function(e) {
		var target = find_group(e.target);
		if (target) details.nodeValue = ' ';
	}, false)

	// ctrl-F for search
	// ctrl-I to toggle case-sensitive search
	window.addEventListener("keydown",function (e) {
		if (e.keyCode === 114 || (e.ctrlKey && e.keyCode === 70)) {
			e.preventDefault();
			search_prompt();
		}
		else if (e.ctrlKey && e.keyCode === 73) {
			e.preventDefault();
			toggle_ignorecase();
		}
	}, false)

	// functions
	function get_params() {
		var params = {};
		var paramsarr = window.location.search.substr(1).split('&');
		for (var i = 0; i < paramsarr.length; ++i) {
			var tmp = paramsarr[i].split("=");
			if (!tmp[0] || !tmp[1]) continue;
			params[tmp[0]]  = decodeURIComponent(tmp[1]);
		}
		return params;
	}
	function parse_params(params) {
		var uri = "?";
		for (var key in params) {
			uri += key + '=' + encodeURIComponent(params[key]) + '&';
		}
		if (uri.slice(-1) == "&")
			uri = uri.substring(0, uri.length - 1);
		if (uri == '?')
			uri = window.location.href.split('?')[0];
		return uri;
	}
	function find_child(node, selector) {
		var children = node.querySelectorAll(selector);
		if (children.length) return children[0];
	}
	function find_group(node) {
		var parent = node.parentElement;
		if (!parent) return;
		if (parent.id == "frames") return node;
		return find_group(parent);
	}
	function orig_save(e, attr, val) {
		if (e.attributes["_orig_" + attr] != undefined) return;
		if (e.attributes[attr] == undefined) return;
		if (val == undefined) val = e.attributes[attr].value;
		e.setAttribute("_orig_" + attr, val);
	}
	function orig_load(e, attr) {
		if (e.attributes["_orig_"+attr] == undefined) return;
		e.attributes[attr].value = e.attributes["_orig_" + attr].value;
		e.removeAttribute("_orig_"+attr);
	}
	function g_to_text(e) {
		var text = find_child(e, "title").firstChild.nodeValue;
		return (text)
	}
	function g_to_func(e) {
		var func = g_to_text(e);
		// if there's any manipulation we want to do to the function
		// name before it's searched, do it here before returning.
		return (func);
	}
	function update_text(e) {
		var r = find_child(e, "rect");
		var t = find_child(e, "text");
		var w = parseFloat(r.attributes.width.value) -3;
		var txt = find_child(e, "title").textContent.replace(/\([^(]*\)$/,"");
		t.attributes.x.value = parseFloat(r.attributes.x.value) + 3;

		// Smaller than this size won't fit anything
		if (w < 2 * 12 * 0.59) {
			t.textContent = "";
			return;
		}

		t.textContent = txt;
		// Fit in full text width
		if (/^ *$/.test(txt) || t.getSubStringLength(0, txt.length) < w)
			return;

		for (var x = txt.length - 2; x > 0; x--) {
			if (t.getSubStringLength(0, x + 2) <= w) {
				t.textContent = txt.substring(0, x) + "..";
				return;
			}
		}
		t.textContent = "";
	}

	// zoom
	function zoom_reset(e) {
		if (e.attributes != undefined) {
			orig_load(e, "x");
			orig_load(e, "width");
		}
		if (e.childNodes == undefined) return;
		for (var i = 0, c = e.childNodes; i < c.length; i++) {
			zoom_reset(c[i]);
		}
	}
	function zoom_child(e, x, ratio) {
		if (e.attributes != undefined) {
			if (e.attributes.x != undefined) {
				orig_save(e, "x");
				e.attributes.x.value = (parseFloat(e.attributes.x.value) - x - 10) * ratio + 10;
				if (e.tagName == "text")
					e.attributes.x.value = find_child(e.parentNode, "rect[x]").attributes.x.value + 3;
			}
			if (e.attributes.width != undefined) {
				orig_save(e, "width");
				e.attributes.width.value = parseFloat(e.attributes.width.value) * ratio;
			}
		}

		if (e.childNodes == undefined) return;
		for (var i = 0, c = e.childNodes; i < c.length; i++) {
			zoom_child(c[i], x - 10, ratio);
		}
	}
	function zoom_parent(e) {
		if (e.attributes) {
			if (e.attributes.x != undefined) {
				orig_save(e, "x");
				e.attributes.x.value = 10;
			}
			if (e.attributes.width != undefined) {
				orig_save(e, "width");
				e.attributes.width.value = parseInt(svg.width.baseVal.value) - (10 * 2);
			}
		}
		if (e.childNodes == undefined) return;
		for (var i = 0, c = e.childNodes; i < c.length; i++) {
			zoom_parent(c[i]);
		}
	}
	function zoom(node) {
		var attr = find_child(node, "rect").attributes;
		var width = parseFloat(attr.width.value);
		var xmin = parseFloat(attr.x.value);
		var xmax = parseFloat(xmin + width);
		var ymin = parseFloat(attr.y.value);
		var ratio = (svg.width.baseVal.value - 2 * 10) / width;

		// XXX: Workaround for JavaScript float issues (fix me)
		var fudge = 0.0001;

		unzoombtn.classList.remove("hide");

		var el = document.getElementById("frames").children;
		for (var i = 0; i < el.length; i++) {
			var e = el[i];
			var a = find_child(e, "rect").attributes;
			var ex = parseFloat(a.x.value);
			var ew = parseFloat(a.width.value);
			var upstack;
			// Is it an ancestor
			if (0 == 0) {
				upstack = parseFloat(a.y.value) > ymin;
			} else {
				upstack = parseFloat(a.y.value) < ymin;
			}
			if (upstack) {
				// Direct ancestor
				if (ex <= xmin && (ex+ew+fudge) >= xmax) {
					e.classList.add("parent");
					zoom_parent(e);
					update_text(e);
				}
				// not in current path
				else
					e.classList.add("hide");
			}
			// Children maybe
			else {
				// no common path
				if (ex < xmin || ex + fudge >= xmax) {
					e.classList.add("hide");
				}
				else {
					zoom_child(e, xmin, ratio);
					update_text(e);
				}
			}
		}
		search();
	}
	function unzoom() {
		unzoombtn.classList.add("hide");
		var el = document.getElementById("frames").children;
		for(var i = 0; i < el.length; i++) {
			el[i].classList.remove("parent");
			el[i].classList.remove("hide");
			zoom_reset(el[i]);
			update_text(el[i]);
		}
		search();
	}
	function clearzoom() {
		unzoom();

		// remove zoom state
		var params = get_params();
		if (params.x) delete params.x;
		if (params.y) delete params.y;
		history.replaceState(null, null, parse_params(params));
	}

	// search
	function toggle_ignorecase() {
		ignorecase = !ignorecase;
		if (ignorecase) {
			ignorecaseBtn.classList.add("show");
		} else {
			ignorecaseBtn.classList.remove("show");
		}
		reset_search();
		search();
	}
	function reset_search() {
		var el = document.querySelectorAll("#frames rect");
		for (var i = 0; i < el.length; i++) {
			orig_load(el[i], "fill")
		}
		var params = get_params();
		delete params.s;
		history.replaceState(null, null, parse_params(params));
	}
	function search_prompt() {
		if (!searching) {
			var term = prompt("Enter a search term (regexp " +
			    "allowed, eg: ^ext4_)"
			    + (ignorecase ? ", ignoring case" : "")
			    + "\nPress Ctrl-i to toggle case sensitivity", "");
			if (term != null) search(term);
		} else {
			reset_search();
			searching = 0;
			currentSearchTerm = null;
			searchbtn.classList.remove("show");
			searchbtn.firstChild.nodeValue = "Search"
			matchedtxt.classList.add("hide");
			matchedtxt.firstChild.nodeValue = ""
		}
	}
	function search(term) {
		if (term) currentSearchTerm = term;

		var re = new RegExp(currentSearchTerm, ignorecase ? 'i' : '');
		var el = document.getElementById("frames").children;
		var matches = new Object();
		var maxwidth = 0;
		for (var i = 0; i < el.length; i++) {
			var e = el[i];
			var func = g_to_func(e);
			var rect = find_child(e, "rect");
			if (func == null || rect == null)
				continue;

			// Save max width. Only works as we have a root frame
			var w = parseFloat(rect.attributes.width.value);
			if (w > maxwidth)
				maxwidth = w;

			if (func.match(re)) {
				// highlight
				var x = parseFloat(rect.attributes.x.value);
				orig_save(rect, "fill");
				rect.attributes.fill.value = "rgb(230,0,230)";

				// remember matches
				if (matches[x] == undefined) {
					matches[x] = w;
				} else {
					if (w > matches[x]) {
						// overwrite with parent
						matches[x] = w;
					}
				}
				searching = 1;
			}
		}
		if (!searching)
			return;
		var params = get_params();
		params.s = currentSearchTerm;
		history.replaceState(null, null, parse_params(params));

		searchbtn.classList.add("show");
		searchbtn.firstChild.nodeValue = "Reset Search";

		// calculate percent matched, excluding vertical overlap
		var count = 0;
		var lastx = -1;
		var lastw = 0;
		var keys = Array();
		for (k in matches) {
			if (matches.hasOwnProperty(k))
				keys.push(k);
		}
		// sort the matched frames by their x location
		// ascending, then width descending
		keys.sort(function(a, b){
			return a - b;
		});
		// Step through frames saving only the biggest bottom-up frames
		// thanks to the sort order. This relies on the tree property
		// where children are always smaller than their parents.
		var fudge = 0.0001;	// JavaScript floating point
		for (var k in keys) {
			var x = parseFloat(keys[k]);
			var w = matches[keys[k]];
			if (x >= lastx + lastw - fudge) {
				count += w;
				lastx = x;
				lastw = w;
			}
		}
		// display matched percent
		matchedtxt.classList.remove("hide");
		var pct = 100 * count / maxwidth;
		if (pct != 100) pct = pct.toFixed(1)
		matchedtxt.firstChild.nodeValue = "Matched: " + pct + "%";
	}
]]>
</script>
<rect x="0.0" y="0" width="1200.0" height="342.0" fill="url(#background)"  />
<text id="title" x="600.00" y="24" >Flame Graph</text>
<text id="details" x="10.00" y="325" > </text>
<text id="unzoom" x="10.00" y="24" class="hide">Reset Zoom</text>
<text id="search" x="1090.00" y="24" >Search</text>
<text id="ignorecase" x="1174.00" y="24" >ic</text>
<text id="matched" x="1090.00" y="325" > </text>
<g id="frames">
<g >
<title>pf_test_rule (163 samples, 0.74%)</title><rect x="828.5" y="69" width="8.7" height="15.0" fill="rgb(209,154,31)" rx="2" ry="2" />
<text  x="831.50" y="79.5" ></text>
</g>
<g >
<title>ether_demux (2,535 samples, 11.44%)</title><rect x="877.9" y="165" width="135.0" height="15.0" fill="rgb(228,185,6)" rx="2" ry="2" />
<text  x="880.89" y="175.5" >ether_demux</text>
</g>
<g >
<title>ether_output (343 samples, 1.55%)</title><rect x="62.5" y="165" width="18.3" height="15.0" fill="rgb(229,22,49)" rx="2" ry="2" />
<text  x="65.52" y="175.5" ></text>
</g>
<g >
<title>pf_match_translation_rule (182 samples, 0.82%)</title><rect x="856.0" y="37" width="9.7" height="15.0" fill="rgb(250,188,2)" rx="2" ry="2" />
<text  x="858.99" y="47.5" ></text>
</g>
<g >
<title>ixl_isc_txd_encap (2,483 samples, 11.21%)</title><rect x="1012.9" y="37" width="132.3" height="15.0" fill="rgb(221,51,31)" rx="2" ry="2" />
<text  x="1015.93" y="47.5" >ixl_isc_txd_encap</text>
</g>
<g >
<title>ip6_input (12,805 samples, 57.81%)</title><rect x="104.9" y="117" width="682.1" height="15.0" fill="rgb(236,76,1)" rx="2" ry="2" />
<text  x="107.88" y="127.5" >ip6_input</text>
</g>
<g >
<title>ip6_tryforward (986 samples, 4.45%)</title><rect x="10.0" y="149" width="52.5" height="15.0" fill="rgb(251,192,3)" rx="2" ry="2" />
<text  x="13.00" y="159.5" >ip6_t..</text>
</g>
<g >
<title>iflib_rxeof (13,256 samples, 59.84%)</title><rect x="95.1" y="213" width="706.1" height="15.0" fill="rgb(227,209,21)" rx="2" ry="2" />
<text  x="98.07" y="223.5" >iflib_rxeof</text>
</g>
<g >
<title>iflib_encap (2,483 samples, 11.21%)</title><rect x="1012.9" y="53" width="132.3" height="15.0" fill="rgb(243,149,24)" rx="2" ry="2" />
<text  x="1015.93" y="63.5" >iflib_encap</text>
</g>
<g >
<title>netisr_dispatch_src (1,439 samples, 6.50%)</title><rect x="801.2" y="165" width="76.7" height="15.0" fill="rgb(224,228,10)" rx="2" ry="2" />
<text  x="804.23" y="175.5" >netisr_d..</text>
</g>
<g >
<title>drain_ring_lockless (1,534 samples, 6.93%)</title><rect x="877.9" y="37" width="81.7" height="15.0" fill="rgb(225,7,0)" rx="2" ry="2" />
<text  x="880.89" y="47.5" >drain_rin..</text>
</g>
<g >
<title>pf_find_state (102 samples, 0.46%)</title><rect x="1007.5" y="37" width="5.4" height="15.0" fill="rgb(220,212,22)" rx="2" ry="2" />
<text  x="1010.49" y="47.5" ></text>
</g>
<g >
<title>pf_test (491 samples, 2.22%)</title><rect x="959.6" y="69" width="26.2" height="15.0" fill="rgb(220,191,46)" rx="2" ry="2" />
<text  x="962.60" y="79.5" >p..</text>
</g>
<g >
<title>bus_dmamap_load_mbuf_sg (343 samples, 1.55%)</title><rect x="62.5" y="53" width="18.3" height="15.0" fill="rgb(231,123,39)" rx="2" ry="2" />
<text  x="65.52" y="63.5" ></text>
</g>
<g >
<title>ether_demux (343 samples, 1.55%)</title><rect x="62.5" y="229" width="18.3" height="15.0" fill="rgb(222,99,31)" rx="2" ry="2" />
<text  x="65.52" y="239.5" ></text>
</g>
<g >
<title>pf_test_rule (182 samples, 0.82%)</title><rect x="856.0" y="69" width="9.7" height="15.0" fill="rgb(222,173,37)" rx="2" ry="2" />
<text  x="858.99" y="79.5" ></text>
</g>
<g >
<title>iflib_if_transmit (478 samples, 2.16%)</title><rect x="335.8" y="53" width="25.4" height="15.0" fill="rgb(253,193,54)" rx="2" ry="2" />
<text  x="338.75" y="63.5" >i..</text>
</g>
<g >
<title>pf_get_translation (182 samples, 0.82%)</title><rect x="856.0" y="53" width="9.7" height="15.0" fill="rgb(231,93,22)" rx="2" ry="2" />
<text  x="858.99" y="63.5" ></text>
</g>
<g >
<title>gtaskqueue_thread_enqueue (267 samples, 1.21%)</title><rect x="80.8" y="197" width="14.2" height="15.0" fill="rgb(215,194,50)" rx="2" ry="2" />
<text  x="83.80" y="207.5" ></text>
</g>
<g >
<title>uma_zfree_arg (36 samples, 0.16%)</title><rect x="1005.3" y="37" width="1.9" height="15.0" fill="rgb(226,145,3)" rx="2" ry="2" />
<text  x="1008.26" y="47.5" ></text>
</g>
<g >
<title>ip6_tryforward (12,407 samples, 56.01%)</title><rect x="126.1" y="101" width="660.9" height="15.0" fill="rgb(207,153,2)" rx="2" ry="2" />
<text  x="129.08" y="111.5" >ip6_tryforward</text>
</g>
<g >
<title>memset_erms (655 samples, 2.96%)</title><rect x="637.0" y="37" width="34.9" height="15.0" fill="rgb(213,227,51)" rx="2" ry="2" />
<text  x="640.00" y="47.5" >me..</text>
</g>
<g >
<title>iflib_rxeof (1,439 samples, 6.50%)</title><rect x="801.2" y="245" width="76.7" height="15.0" fill="rgb(251,222,36)" rx="2" ry="2" />
<text  x="804.23" y="255.5" >iflib_rx..</text>
</g>
<g >
<title>ip6_tryforward (2,825 samples, 12.75%)</title><rect x="1012.9" y="165" width="150.5" height="15.0" fill="rgb(246,79,50)" rx="2" ry="2" />
<text  x="1015.93" y="175.5" >ip6_tryforward</text>
</g>
<g >
<title>iflib_txd_db_check (392 samples, 1.77%)</title><rect x="41.6" y="37" width="20.9" height="15.0" fill="rgb(238,207,45)" rx="2" ry="2" />
<text  x="44.64" y="47.5" ></text>
</g>
<g >
<title>pf_test_rule (366 samples, 1.65%)</title><rect x="959.6" y="53" width="19.5" height="15.0" fill="rgb(247,94,15)" rx="2" ry="2" />
<text  x="962.60" y="63.5" ></text>
</g>
<g >
<title>netisr_dispatch_src (2,535 samples, 11.44%)</title><rect x="877.9" y="197" width="135.0" height="15.0" fill="rgb(234,88,0)" rx="2" ry="2" />
<text  x="880.89" y="207.5" >netisr_dispatch_src</text>
</g>
<g >
<title>pf_test_state (353 samples, 1.59%)</title><rect x="837.2" y="69" width="18.8" height="15.0" fill="rgb(213,127,42)" rx="2" ry="2" />
<text  x="840.19" y="79.5" ></text>
</g>
<g >
<title>ifmp_ring_enqueue (478 samples, 2.16%)</title><rect x="335.8" y="37" width="25.4" height="15.0" fill="rgb(253,11,23)" rx="2" ry="2" />
<text  x="338.75" y="47.5" >i..</text>
</g>
<g >
<title>rn_match (449 samples, 2.03%)</title><rect x="400.5" y="37" width="23.9" height="15.0" fill="rgb(221,185,40)" rx="2" ry="2" />
<text  x="403.53" y="47.5" >r..</text>
</g>
<g >
<title>pf_test_state (85 samples, 0.38%)</title><rect x="765.5" y="37" width="4.6" height="15.0" fill="rgb(211,126,40)" rx="2" ry="2" />
<text  x="768.54" y="47.5" ></text>
</g>
<g >
<title>ip6_input (986 samples, 4.45%)</title><rect x="10.0" y="165" width="52.5" height="15.0" fill="rgb(222,52,22)" rx="2" ry="2" />
<text  x="13.00" y="175.5" >ip6_i..</text>
</g>
<g >
<title>_task_fn_rx (986 samples, 4.45%)</title><rect x="10.0" y="277" width="52.5" height="15.0" fill="rgb(221,130,32)" rx="2" ry="2" />
<text  x="13.00" y="287.5" >_task..</text>
</g>
<g >
<title>ip6_tryforward (2,535 samples, 11.44%)</title><rect x="877.9" y="117" width="135.0" height="15.0" fill="rgb(239,227,3)" rx="2" ry="2" />
<text  x="880.89" y="127.5" >ip6_tryforward</text>
</g>
<g >
<title>grouptaskqueue_enqueue (267 samples, 1.21%)</title><rect x="80.8" y="213" width="14.2" height="15.0" fill="rgb(220,218,46)" rx="2" ry="2" />
<text  x="83.80" y="223.5" ></text>
</g>
<g >
<title>_task_fn_rx (1,439 samples, 6.50%)</title><rect x="801.2" y="261" width="76.7" height="15.0" fill="rgb(254,150,14)" rx="2" ry="2" />
<text  x="804.23" y="271.5" >_task_fn..</text>
</g>
<g >
<title>_rm_rlock (140 samples, 0.63%)</title><rect x="393.1" y="69" width="7.4" height="15.0" fill="rgb(208,109,52)" rx="2" ry="2" />
<text  x="396.07" y="79.5" ></text>
</g>
<g >
<title>ip6_tryforward (1,439 samples, 6.50%)</title><rect x="801.2" y="133" width="76.7" height="15.0" fill="rgb(205,160,21)" rx="2" ry="2" />
<text  x="804.23" y="143.5" >ip6_tryf..</text>
</g>
<g >
<title>drain_ring_lockless (986 samples, 4.45%)</title><rect x="10.0" y="69" width="52.5" height="15.0" fill="rgb(248,12,1)" rx="2" ry="2" />
<text  x="13.00" y="79.5" >drain..</text>
</g>
<g >
<title>pf_test_state (143 samples, 0.65%)</title><rect x="684.1" y="37" width="7.7" height="15.0" fill="rgb(252,114,31)" rx="2" ry="2" />
<text  x="687.14" y="47.5" ></text>
</g>
<g >
<title>ip6_input (2,535 samples, 11.44%)</title><rect x="877.9" y="133" width="135.0" height="15.0" fill="rgb(231,64,19)" rx="2" ry="2" />
<text  x="880.89" y="143.5" >ip6_input</text>
</g>
<g >
<title>rxd_frag_to_sd (232 samples, 1.05%)</title><rect x="788.9" y="197" width="12.3" height="15.0" fill="rgb(232,112,0)" rx="2" ry="2" />
<text  x="791.87" y="207.5" ></text>
</g>
<g >
<title>_rm_rlock (89 samples, 0.40%)</title><rect x="632.3" y="37" width="4.7" height="15.0" fill="rgb(236,152,4)" rx="2" ry="2" />
<text  x="635.26" y="47.5" ></text>
</g>
<g >
<title>ether_output_frame (512 samples, 2.31%)</title><rect x="801.2" y="101" width="27.3" height="15.0" fill="rgb(242,214,49)" rx="2" ry="2" />
<text  x="804.23" y="111.5" >e..</text>
</g>
<g >
<title>ether_output (512 samples, 2.31%)</title><rect x="801.2" y="117" width="27.3" height="15.0" fill="rgb(242,177,23)" rx="2" ry="2" />
<text  x="804.23" y="127.5" >e..</text>
</g>
<g >
<title>ether_demux (12,805 samples, 57.81%)</title><rect x="104.9" y="149" width="682.1" height="15.0" fill="rgb(214,198,19)" rx="2" ry="2" />
<text  x="107.88" y="159.5" >ether_demux</text>
</g>
<g >
<title>ether_output (2,825 samples, 12.75%)</title><rect x="1012.9" y="149" width="150.5" height="15.0" fill="rgb(227,17,16)" rx="2" ry="2" />
<text  x="1015.93" y="159.5" >ether_output</text>
</g>
<g >
<title>ether_output_frame (499 samples, 2.25%)</title><rect x="1163.4" y="165" width="26.6" height="15.0" fill="rgb(210,76,2)" rx="2" ry="2" />
<text  x="1166.42" y="175.5" >e..</text>
</g>
<g >
<title>memcpy_erms (34 samples, 0.15%)</title><rect x="787.1" y="197" width="1.8" height="15.0" fill="rgb(222,105,20)" rx="2" ry="2" />
<text  x="790.06" y="207.5" ></text>
</g>
<g >
<title>ip6_tryforward (343 samples, 1.55%)</title><rect x="62.5" y="181" width="18.3" height="15.0" fill="rgb(248,204,30)" rx="2" ry="2" />
<text  x="65.52" y="191.5" ></text>
</g>
<g >
<title>all (22,151 samples, 100%)</title><rect x="10.0" y="293" width="1180.0" height="15.0" fill="rgb(224,136,42)" rx="2" ry="2" />
<text  x="13.00" y="303.5" ></text>
</g>
<g >
<title>pfil_mbuf_in (5,296 samples, 23.91%)</title><rect x="424.4" y="85" width="282.2" height="15.0" fill="rgb(223,58,18)" rx="2" ry="2" />
<text  x="427.45" y="95.5" >pfil_mbuf_in</text>
</g>
<g >
<title>murmur3_32_hash32 (229 samples, 1.03%)</title><rect x="865.7" y="37" width="12.2" height="15.0" fill="rgb(230,138,38)" rx="2" ry="2" />
<text  x="868.69" y="47.5" ></text>
</g>
<g >
<title>pf_check6_in (491 samples, 2.22%)</title><rect x="959.6" y="85" width="26.2" height="15.0" fill="rgb(234,111,24)" rx="2" ry="2" />
<text  x="962.60" y="95.5" >p..</text>
</g>
<g >
<title>drain_ring_lockless (499 samples, 2.25%)</title><rect x="1163.4" y="117" width="26.6" height="15.0" fill="rgb(241,140,46)" rx="2" ry="2" />
<text  x="1166.42" y="127.5" >d..</text>
</g>
<g >
<title>ether_demux (2,825 samples, 12.75%)</title><rect x="1012.9" y="213" width="150.5" height="15.0" fill="rgb(215,82,24)" rx="2" ry="2" />
<text  x="1015.93" y="223.5" >ether_demux</text>
</g>
<g >
<title>pf_test_rule (402 samples, 1.81%)</title><rect x="985.8" y="53" width="21.4" height="15.0" fill="rgb(236,19,6)" rx="2" ry="2" />
<text  x="988.76" y="63.5" >p..</text>
</g>
<g >
<title>iflib_if_transmit (512 samples, 2.31%)</title><rect x="801.2" y="85" width="27.3" height="15.0" fill="rgb(220,83,27)" rx="2" ry="2" />
<text  x="804.23" y="95.5" >i..</text>
</g>
<g >
<title>iflib_txq_drain (512 samples, 2.31%)</title><rect x="801.2" y="37" width="27.3" height="15.0" fill="rgb(234,190,41)" rx="2" ry="2" />
<text  x="804.23" y="47.5" >i..</text>
</g>
<g >
<title>ixl_isc_txd_credits_update_hwb (170 samples, 0.77%)</title><rect x="1163.4" y="69" width="9.1" height="15.0" fill="rgb(232,141,32)" rx="2" ry="2" />
<text  x="1166.42" y="79.5" ></text>
</g>
<g >
<title>fib6_lookup (449 samples, 2.03%)</title><rect x="400.5" y="69" width="23.9" height="15.0" fill="rgb(237,177,5)" rx="2" ry="2" />
<text  x="403.53" y="79.5" >f..</text>
</g>
<g >
<title>pf_find_state (229 samples, 1.03%)</title><rect x="865.7" y="53" width="12.2" height="15.0" fill="rgb(229,91,54)" rx="2" ry="2" />
<text  x="868.69" y="63.5" ></text>
</g>
<g >
<title>ether_nh_input (986 samples, 4.45%)</title><rect x="10.0" y="213" width="52.5" height="15.0" fill="rgb(249,227,17)" rx="2" ry="2" />
<text  x="13.00" y="223.5" >ether..</text>
</g>
<g >
<title>ether_output_frame (343 samples, 1.55%)</title><rect x="62.5" y="149" width="18.3" height="15.0" fill="rgb(250,208,34)" rx="2" ry="2" />
<text  x="65.52" y="159.5" ></text>
</g>
<g >
<title>pf_test_rule (230 samples, 1.04%)</title><rect x="671.9" y="37" width="12.2" height="15.0" fill="rgb(214,19,33)" rx="2" ry="2" />
<text  x="674.89" y="47.5" ></text>
</g>
<g >
<title>pf_check6_out (411 samples, 1.86%)</title><rect x="856.0" y="101" width="21.9" height="15.0" fill="rgb(241,198,43)" rx="2" ry="2" />
<text  x="858.99" y="111.5" >p..</text>
</g>
<g >
<title>ether_output (1,534 samples, 6.93%)</title><rect x="877.9" y="101" width="81.7" height="15.0" fill="rgb(207,40,47)" rx="2" ry="2" />
<text  x="880.89" y="111.5" >ether_out..</text>
</g>
<g >
<title>uma_zfree_arg (329 samples, 1.49%)</title><rect x="1172.5" y="37" width="17.5" height="15.0" fill="rgb(210,158,48)" rx="2" ry="2" />
<text  x="1175.47" y="47.5" ></text>
</g>
<g >
<title>iflib_txq_drain (2,825 samples, 12.75%)</title><rect x="1012.9" y="69" width="150.5" height="15.0" fill="rgb(244,62,9)" rx="2" ry="2" />
<text  x="1015.93" y="79.5" >iflib_txq_drain</text>
</g>
<g >
<title>iflib_if_transmit (986 samples, 4.45%)</title><rect x="10.0" y="101" width="52.5" height="15.0" fill="rgb(214,91,37)" rx="2" ry="2" />
<text  x="13.00" y="111.5" >iflib..</text>
</g>
<g >
<title>m_free (329 samples, 1.49%)</title><rect x="1172.5" y="53" width="17.5" height="15.0" fill="rgb(247,200,43)" rx="2" ry="2" />
<text  x="1175.47" y="63.5" ></text>
</g>
<g >
<title>bounce_bus_dmamap_load_buffer (343 samples, 1.55%)</title><rect x="62.5" y="37" width="18.3" height="15.0" fill="rgb(250,144,21)" rx="2" ry="2" />
<text  x="65.52" y="47.5" ></text>
</g>
<g >
<title>pf_get_translation (163 samples, 0.74%)</title><rect x="828.5" y="53" width="8.7" height="15.0" fill="rgb(234,199,44)" rx="2" ry="2" />
<text  x="831.50" y="63.5" ></text>
</g>
<g >
<title>iflib_completed_tx_reclaim (312 samples, 1.41%)</title><rect x="10.0" y="37" width="16.6" height="15.0" fill="rgb(229,84,18)" rx="2" ry="2" />
<text  x="13.00" y="47.5" ></text>
</g>
<g >
<title>pf_match_translation_rule (163 samples, 0.74%)</title><rect x="828.5" y="37" width="8.7" height="15.0" fill="rgb(216,206,51)" rx="2" ry="2" />
<text  x="831.50" y="47.5" ></text>
</g>
<g >
<title>pf_test_state (108 samples, 0.49%)</title><rect x="1007.2" y="53" width="5.7" height="15.0" fill="rgb(214,33,50)" rx="2" ry="2" />
<text  x="1010.17" y="63.5" ></text>
</g>
<g >
<title>murmur3_32_hash32 (6 samples, 0.03%)</title><rect x="1007.2" y="37" width="0.3" height="15.0" fill="rgb(220,207,0)" rx="2" ry="2" />
<text  x="1010.17" y="47.5" ></text>
</g>
<g >
<title>netisr_dispatch_src (986 samples, 4.45%)</title><rect x="10.0" y="181" width="52.5" height="15.0" fill="rgb(234,104,9)" rx="2" ry="2" />
<text  x="13.00" y="191.5" >netis..</text>
</g>
<g >
<title>memset_erms (366 samples, 1.65%)</title><rect x="985.8" y="37" width="19.5" height="15.0" fill="rgb(222,186,17)" rx="2" ry="2" />
<text  x="988.76" y="47.5" ></text>
</g>
<g >
<title>drain_ring_lockless (512 samples, 2.31%)</title><rect x="801.2" y="53" width="27.3" height="15.0" fill="rgb(248,171,34)" rx="2" ry="2" />
<text  x="804.23" y="63.5" >d..</text>
</g>
<g >
<title>ether_output (762 samples, 3.44%)</title><rect x="335.8" y="85" width="40.5" height="15.0" fill="rgb(235,189,21)" rx="2" ry="2" />
<text  x="338.75" y="95.5" >eth..</text>
</g>
<g >
<title>ether_input (986 samples, 4.45%)</title><rect x="10.0" y="245" width="52.5" height="15.0" fill="rgb(248,133,15)" rx="2" ry="2" />
<text  x="13.00" y="255.5" >ether..</text>
</g>
<g >
<title>pfil_mbuf_out (510 samples, 2.30%)</title><rect x="985.8" y="101" width="27.1" height="15.0" fill="rgb(228,76,8)" rx="2" ry="2" />
<text  x="988.76" y="111.5" >p..</text>
</g>
<g >
<title>ether_output (986 samples, 4.45%)</title><rect x="10.0" y="133" width="52.5" height="15.0" fill="rgb(239,86,46)" rx="2" ry="2" />
<text  x="13.00" y="143.5" >ether..</text>
</g>
<g >
<title>gtaskqueue_thread_loop (13,524 samples, 61.05%)</title><rect x="80.8" y="261" width="720.4" height="15.0" fill="rgb(239,6,25)" rx="2" ry="2" />
<text  x="83.80" y="271.5" >gtaskqueue_thread_loop</text>
</g>
<g >
<title>uma_zfree_arg (17 samples, 0.08%)</title><rect x="978.2" y="37" width="0.9" height="15.0" fill="rgb(240,32,53)" rx="2" ry="2" />
<text  x="981.20" y="47.5" ></text>
</g>
<g >
<title>iflib_encap (343 samples, 1.55%)</title><rect x="62.5" y="69" width="18.3" height="15.0" fill="rgb(247,24,21)" rx="2" ry="2" />
<text  x="65.52" y="79.5" ></text>
</g>
<g >
<title>ether_output_frame (986 samples, 4.45%)</title><rect x="10.0" y="117" width="52.5" height="15.0" fill="rgb(205,99,18)" rx="2" ry="2" />
<text  x="13.00" y="127.5" >ether..</text>
</g>
<g >
<title>lradix6_lookup (449 samples, 2.03%)</title><rect x="400.5" y="53" width="23.9" height="15.0" fill="rgb(229,198,29)" rx="2" ry="2" />
<text  x="403.53" y="63.5" >l..</text>
</g>
<g >
<title>pfil_mbuf_in (491 samples, 2.22%)</title><rect x="959.6" y="101" width="26.2" height="15.0" fill="rgb(252,185,38)" rx="2" ry="2" />
<text  x="962.60" y="111.5" >p..</text>
</g>
<g >
<title>_task_fn_rx (2,535 samples, 11.44%)</title><rect x="877.9" y="245" width="135.0" height="15.0" fill="rgb(220,222,0)" rx="2" ry="2" />
<text  x="880.89" y="255.5" >_task_fn_rx</text>
</g>
<g >
<title>ether_input (2,825 samples, 12.75%)</title><rect x="1012.9" y="261" width="150.5" height="15.0" fill="rgb(240,183,0)" rx="2" ry="2" />
<text  x="1015.93" y="271.5" >ether_input</text>
</g>
<g >
<title>ip6_input (499 samples, 2.25%)</title><rect x="1163.4" y="213" width="26.6" height="15.0" fill="rgb(225,125,28)" rx="2" ry="2" />
<text  x="1166.42" y="223.5" >i..</text>
</g>
<g >
<title>ip6_input (343 samples, 1.55%)</title><rect x="62.5" y="197" width="18.3" height="15.0" fill="rgb(215,151,9)" rx="2" ry="2" />
<text  x="65.52" y="207.5" ></text>
</g>
<g >
<title>ifmp_ring_enqueue (1,534 samples, 6.93%)</title><rect x="877.9" y="53" width="81.7" height="15.0" fill="rgb(253,70,11)" rx="2" ry="2" />
<text  x="880.89" y="63.5" >ifmp_ring..</text>
</g>
<g >
<title>ether_input (1,439 samples, 6.50%)</title><rect x="801.2" y="229" width="76.7" height="15.0" fill="rgb(212,62,29)" rx="2" ry="2" />
<text  x="804.23" y="239.5" >ether_in..</text>
</g>
<g >
<title>pf_test (411 samples, 1.86%)</title><rect x="856.0" y="85" width="21.9" height="15.0" fill="rgb(245,198,44)" rx="2" ry="2" />
<text  x="858.99" y="95.5" >p..</text>
</g>
<g >
<title>ether_nh_input (1,439 samples, 6.50%)</title><rect x="801.2" y="197" width="76.7" height="15.0" fill="rgb(214,73,41)" rx="2" ry="2" />
<text  x="804.23" y="207.5" >ether_nh..</text>
</g>
<g >
<title>pf_test (510 samples, 2.30%)</title><rect x="985.8" y="69" width="27.1" height="15.0" fill="rgb(215,195,10)" rx="2" ry="2" />
<text  x="988.76" y="79.5" >p..</text>
</g>
<g >
<title>murmur3_32_hash32 (3 samples, 0.01%)</title><rect x="979.1" y="37" width="0.2" height="15.0" fill="rgb(239,119,6)" rx="2" ry="2" />
<text  x="982.10" y="47.5" ></text>
</g>
<g >
<title>pf_test_rule (186 samples, 0.84%)</title><rect x="755.6" y="37" width="9.9" height="15.0" fill="rgb(250,55,54)" rx="2" ry="2" />
<text  x="758.63" y="47.5" ></text>
</g>
<g >
<title>pfil_mbuf_out (1,510 samples, 6.82%)</title><rect x="706.6" y="85" width="80.4" height="15.0" fill="rgb(215,201,11)" rx="2" ry="2" />
<text  x="709.57" y="95.5" >pfil_mbuf..</text>
</g>
<g >
<title>murmur3_32_hash32 (353 samples, 1.59%)</title><rect x="837.2" y="37" width="18.8" height="15.0" fill="rgb(245,174,33)" rx="2" ry="2" />
<text  x="840.19" y="47.5" ></text>
</g>
<g >
<title>netisr_dispatch_src (986 samples, 4.45%)</title><rect x="10.0" y="229" width="52.5" height="15.0" fill="rgb(215,127,0)" rx="2" ry="2" />
<text  x="13.00" y="239.5" >netis..</text>
</g>
<g >
<title>pf_find_state (353 samples, 1.59%)</title><rect x="837.2" y="53" width="18.8" height="15.0" fill="rgb(242,172,16)" rx="2" ry="2" />
<text  x="840.19" y="63.5" ></text>
</g>
<g >
<title>iflib_txq_drain (986 samples, 4.45%)</title><rect x="10.0" y="53" width="52.5" height="15.0" fill="rgb(226,108,34)" rx="2" ry="2" />
<text  x="13.00" y="63.5" >iflib..</text>
</g>
<g >
<title>ifmp_ring_enqueue (499 samples, 2.25%)</title><rect x="1163.4" y="133" width="26.6" height="15.0" fill="rgb(234,203,19)" rx="2" ry="2" />
<text  x="1166.42" y="143.5" >i..</text>
</g>
<g >
<title>ether_output_frame (1,534 samples, 6.93%)</title><rect x="877.9" y="85" width="81.7" height="15.0" fill="rgb(236,129,28)" rx="2" ry="2" />
<text  x="880.89" y="95.5" >ether_out..</text>
</g>
<g >
<title>ip6_input (2,825 samples, 12.75%)</title><rect x="1012.9" y="181" width="150.5" height="15.0" fill="rgb(215,133,24)" rx="2" ry="2" />
<text  x="1015.93" y="191.5" >ip6_input</text>
</g>
<g >
<title>_task_fn_rx (13,524 samples, 61.05%)</title><rect x="80.8" y="229" width="720.4" height="15.0" fill="rgb(207,67,21)" rx="2" ry="2" />
<text  x="83.80" y="239.5" >_task_fn_rx</text>
</g>
<g >
<title>netisr_dispatch_src (343 samples, 1.55%)</title><rect x="62.5" y="261" width="18.3" height="15.0" fill="rgb(215,99,50)" rx="2" ry="2" />
<text  x="65.52" y="271.5" ></text>
</g>
<g >
<title>ifmp_ring_enqueue (2,825 samples, 12.75%)</title><rect x="1012.9" y="101" width="150.5" height="15.0" fill="rgb(215,111,29)" rx="2" ry="2" />
<text  x="1015.93" y="111.5" >ifmp_ring_enqueue</text>
</g>
<g >
<title>netisr_dispatch_src (2,825 samples, 12.75%)</title><rect x="1012.9" y="245" width="150.5" height="15.0" fill="rgb(211,10,50)" rx="2" ry="2" />
<text  x="1015.93" y="255.5" >netisr_dispatch_src</text>
</g>
<g >
<title>gtaskqueue_run_locked (2,535 samples, 11.44%)</title><rect x="877.9" y="261" width="135.0" height="15.0" fill="rgb(227,129,48)" rx="2" ry="2" />
<text  x="880.89" y="271.5" >gtaskqueue_run_lo..</text>
</g>
<g >
<title>iflib_rxeof (986 samples, 4.45%)</title><rect x="10.0" y="261" width="52.5" height="15.0" fill="rgb(231,189,22)" rx="2" ry="2" />
<text  x="13.00" y="271.5" >iflib..</text>
</g>
<g >
<title>ether_nh_input (2,535 samples, 11.44%)</title><rect x="877.9" y="181" width="135.0" height="15.0" fill="rgb(209,226,16)" rx="2" ry="2" />
<text  x="880.89" y="191.5" >ether_nh_input</text>
</g>
<g >
<title>pf_check6_in (5,296 samples, 23.91%)</title><rect x="424.4" y="69" width="282.2" height="15.0" fill="rgb(221,143,25)" rx="2" ry="2" />
<text  x="427.45" y="79.5" >pf_check6_in</text>
</g>
<g >
<title>_rm_rlock (309 samples, 1.39%)</title><rect x="733.5" y="37" width="16.4" height="15.0" fill="rgb(232,219,8)" rx="2" ry="2" />
<text  x="736.47" y="47.5" ></text>
</g>
<g >
<title>iflib_txq_drain (343 samples, 1.55%)</title><rect x="62.5" y="85" width="18.3" height="15.0" fill="rgb(215,214,53)" rx="2" ry="2" />
<text  x="65.52" y="95.5" ></text>
</g>
<g >
<title>ether_demux (1,439 samples, 6.50%)</title><rect x="801.2" y="181" width="76.7" height="15.0" fill="rgb(233,164,10)" rx="2" ry="2" />
<text  x="804.23" y="191.5" >ether_de..</text>
</g>
<g >
<title>ether_demux (499 samples, 2.25%)</title><rect x="1163.4" y="245" width="26.6" height="15.0" fill="rgb(206,17,46)" rx="2" ry="2" />
<text  x="1166.42" y="255.5" >e..</text>
</g>
<g >
<title>ifmp_ring_enqueue (343 samples, 1.55%)</title><rect x="62.5" y="117" width="18.3" height="15.0" fill="rgb(223,186,32)" rx="2" ry="2" />
<text  x="65.52" y="127.5" ></text>
</g>
<g >
<title>ether_input (2,535 samples, 11.44%)</title><rect x="877.9" y="213" width="135.0" height="15.0" fill="rgb(246,98,3)" rx="2" ry="2" />
<text  x="880.89" y="223.5" >ether_input</text>
</g>
<g >
<title>memset_erms (107 samples, 0.48%)</title><rect x="749.9" y="37" width="5.7" height="15.0" fill="rgb(207,98,16)" rx="2" ry="2" />
<text  x="752.93" y="47.5" ></text>
</g>
<g >
<title>iflib_completed_tx_reclaim (499 samples, 2.25%)</title><rect x="1163.4" y="85" width="26.6" height="15.0" fill="rgb(206,14,1)" rx="2" ry="2" />
<text  x="1166.42" y="95.5" >i..</text>
</g>
<g >
<title>pf_check6_in (516 samples, 2.33%)</title><rect x="828.5" y="101" width="27.5" height="15.0" fill="rgb(214,220,34)" rx="2" ry="2" />
<text  x="831.50" y="111.5" >p..</text>
</g>
<g >
<title>pf_check6_out (510 samples, 2.30%)</title><rect x="985.8" y="85" width="27.1" height="15.0" fill="rgb(238,131,22)" rx="2" ry="2" />
<text  x="988.76" y="95.5" >p..</text>
</g>
<g >
<title>ether_nh_input (499 samples, 2.25%)</title><rect x="1163.4" y="261" width="26.6" height="15.0" fill="rgb(234,165,41)" rx="2" ry="2" />
<text  x="1166.42" y="271.5" >e..</text>
</g>
<g >
<title>pf_test_state (125 samples, 0.56%)</title><rect x="979.1" y="53" width="6.7" height="15.0" fill="rgb(239,120,34)" rx="2" ry="2" />
<text  x="982.10" y="63.5" ></text>
</g>
<g >
<title>ether_nh_input (12,805 samples, 57.81%)</title><rect x="104.9" y="165" width="682.1" height="15.0" fill="rgb(226,108,38)" rx="2" ry="2" />
<text  x="107.88" y="175.5" >ether_nh_input</text>
</g>
<g >
<title>fork_exit (13,524 samples, 61.05%)</title><rect x="80.8" y="277" width="720.4" height="15.0" fill="rgb(216,84,25)" rx="2" ry="2" />
<text  x="83.80" y="287.5" >fork_exit</text>
</g>
<g >
<title>ixl_isc_txd_flush (342 samples, 1.54%)</title><rect x="1145.2" y="37" width="18.2" height="15.0" fill="rgb(252,117,10)" rx="2" ry="2" />
<text  x="1148.20" y="47.5" ></text>
</g>
<g >
<title>netisr_dispatch_src (499 samples, 2.25%)</title><rect x="1163.4" y="229" width="26.6" height="15.0" fill="rgb(214,88,38)" rx="2" ry="2" />
<text  x="1166.42" y="239.5" >n..</text>
</g>
<g >
<title>m_freem (329 samples, 1.49%)</title><rect x="1172.5" y="69" width="17.5" height="15.0" fill="rgb(227,147,14)" rx="2" ry="2" />
<text  x="1175.47" y="79.5" ></text>
</g>
<g >
<title>ether_nh_input (2,825 samples, 12.75%)</title><rect x="1012.9" y="229" width="150.5" height="15.0" fill="rgb(221,227,31)" rx="2" ry="2" />
<text  x="1015.93" y="239.5" >ether_nh_input</text>
</g>
<g >
<title>iflib_if_transmit (343 samples, 1.55%)</title><rect x="62.5" y="133" width="18.3" height="15.0" fill="rgb(252,118,21)" rx="2" ry="2" />
<text  x="65.52" y="143.5" ></text>
</g>
<g >
<title>iflib_if_transmit (2,825 samples, 12.75%)</title><rect x="1012.9" y="117" width="150.5" height="15.0" fill="rgb(241,208,43)" rx="2" ry="2" />
<text  x="1015.93" y="127.5" >iflib_if_transmit</text>
</g>
<g >
<title>ifmp_ring_enqueue (986 samples, 4.45%)</title><rect x="10.0" y="85" width="52.5" height="15.0" fill="rgb(222,186,36)" rx="2" ry="2" />
<text  x="13.00" y="95.5" >ifmp_..</text>
</g>
<g >
<title>ip6_tryforward (499 samples, 2.25%)</title><rect x="1163.4" y="197" width="26.6" height="15.0" fill="rgb(250,12,15)" rx="2" ry="2" />
<text  x="1166.42" y="207.5" >i..</text>
</g>
<g >
<title>ifmp_ring_enqueue (512 samples, 2.31%)</title><rect x="801.2" y="69" width="27.3" height="15.0" fill="rgb(208,37,22)" rx="2" ry="2" />
<text  x="804.23" y="79.5" >i..</text>
</g>
<g >
<title>ip6_findroute (449 samples, 2.03%)</title><rect x="400.5" y="85" width="23.9" height="15.0" fill="rgb(231,216,37)" rx="2" ry="2" />
<text  x="403.53" y="95.5" >i..</text>
</g>
<g >
<title>pf_test (5,296 samples, 23.91%)</title><rect x="424.4" y="53" width="282.2" height="15.0" fill="rgb(249,41,40)" rx="2" ry="2" />
<text  x="427.45" y="63.5" >pf_test</text>
</g>
<g >
<title>netisr_dispatch_src (2,825 samples, 12.75%)</title><rect x="1012.9" y="197" width="150.5" height="15.0" fill="rgb(207,121,54)" rx="2" ry="2" />
<text  x="1015.93" y="207.5" >netisr_dispatch_src</text>
</g>
<g >
<title>netisr_dispatch_src (1,439 samples, 6.50%)</title><rect x="801.2" y="213" width="76.7" height="15.0" fill="rgb(228,4,47)" rx="2" ry="2" />
<text  x="804.23" y="223.5" >netisr_d..</text>
</g>
<g >
<title>pfil_mbuf_in (516 samples, 2.33%)</title><rect x="828.5" y="117" width="27.5" height="15.0" fill="rgb(226,82,23)" rx="2" ry="2" />
<text  x="831.50" y="127.5" >p..</text>
</g>
<g >
<title>drain_ring_lockless (343 samples, 1.55%)</title><rect x="62.5" y="101" width="18.3" height="15.0" fill="rgb(223,117,14)" rx="2" ry="2" />
<text  x="65.52" y="111.5" ></text>
</g>
<g >
<title>ether_input (12,805 samples, 57.81%)</title><rect x="104.9" y="197" width="682.1" height="15.0" fill="rgb(253,168,44)" rx="2" ry="2" />
<text  x="107.88" y="207.5" >ether_input</text>
</g>
<g >
<title>ether_demux (986 samples, 4.45%)</title><rect x="10.0" y="197" width="52.5" height="15.0" fill="rgb(214,173,25)" rx="2" ry="2" />
<text  x="13.00" y="207.5" >ether..</text>
</g>
<g >
<title>gtaskqueue_run_locked (1,439 samples, 6.50%)</title><rect x="801.2" y="277" width="76.7" height="15.0" fill="rgb(245,41,13)" rx="2" ry="2" />
<text  x="804.23" y="287.5" >gtaskque..</text>
</g>
<g >
<title>pf_find_state (122 samples, 0.55%)</title><rect x="979.3" y="37" width="6.5" height="15.0" fill="rgb(205,33,25)" rx="2" ry="2" />
<text  x="982.26" y="47.5" ></text>
</g>
<g >
<title>memcpy_erms (284 samples, 1.28%)</title><rect x="361.2" y="69" width="15.1" height="15.0" fill="rgb(235,82,5)" rx="2" ry="2" />
<text  x="364.21" y="79.5" ></text>
</g>
<g >
<title>drain_ring_lockless (2,825 samples, 12.75%)</title><rect x="1012.9" y="85" width="150.5" height="15.0" fill="rgb(208,9,43)" rx="2" ry="2" />
<text  x="1015.93" y="95.5" >drain_ring_lockless</text>
</g>
<g >
<title>iflib_encap (282 samples, 1.27%)</title><rect x="26.6" y="37" width="15.0" height="15.0" fill="rgb(211,116,8)" rx="2" ry="2" />
<text  x="29.62" y="47.5" ></text>
</g>
<g >
<title>pf_walk_header6 (278 samples, 1.26%)</title><rect x="691.8" y="37" width="14.8" height="15.0" fill="rgb(251,214,32)" rx="2" ry="2" />
<text  x="694.76" y="47.5" ></text>
</g>
<g >
<title>ether_output_frame (478 samples, 2.16%)</title><rect x="335.8" y="69" width="25.4" height="15.0" fill="rgb(211,132,35)" rx="2" ry="2" />
<text  x="338.75" y="79.5" >e..</text>
</g>
<g >
<title>pf_test_state (229 samples, 1.03%)</title><rect x="865.7" y="69" width="12.2" height="15.0" fill="rgb(235,47,31)" rx="2" ry="2" />
<text  x="868.69" y="79.5" ></text>
</g>
<g >
<title>netisr_dispatch_src (2,535 samples, 11.44%)</title><rect x="877.9" y="149" width="135.0" height="15.0" fill="rgb(214,109,10)" rx="2" ry="2" />
<text  x="880.89" y="159.5" >netisr_dispatch_src</text>
</g>
<g >
<title>iflib_txd_db_check (342 samples, 1.54%)</title><rect x="1145.2" y="53" width="18.2" height="15.0" fill="rgb(235,52,49)" rx="2" ry="2" />
<text  x="1148.20" y="63.5" ></text>
</g>
<g >
<title>in6_localip (454 samples, 2.05%)</title><rect x="376.3" y="85" width="24.2" height="15.0" fill="rgb(244,204,2)" rx="2" ry="2" />
<text  x="379.34" y="95.5" >i..</text>
</g>
<g >
<title>pf_check6_out (1,510 samples, 6.82%)</title><rect x="706.6" y="69" width="80.4" height="15.0" fill="rgb(211,66,24)" rx="2" ry="2" />
<text  x="709.57" y="79.5" >pf_check6..</text>
</g>
<g >
<title>ether_nh_input (343 samples, 1.55%)</title><rect x="62.5" y="245" width="18.3" height="15.0" fill="rgb(236,120,1)" rx="2" ry="2" />
<text  x="65.52" y="255.5" ></text>
</g>
<g >
<title>ether_input (343 samples, 1.55%)</title><rect x="62.5" y="277" width="18.3" height="15.0" fill="rgb(246,149,27)" rx="2" ry="2" />
<text  x="65.52" y="287.5" ></text>
</g>
<g >
<title>netisr_dispatch_src (343 samples, 1.55%)</title><rect x="62.5" y="213" width="18.3" height="15.0" fill="rgb(225,161,22)" rx="2" ry="2" />
<text  x="65.52" y="223.5" ></text>
</g>
<g >
<title>pf_test (1,510 samples, 6.82%)</title><rect x="706.6" y="53" width="80.4" height="15.0" fill="rgb(217,152,35)" rx="2" ry="2" />
<text  x="709.57" y="63.5" >pf_test</text>
</g>
<g >
<title>netisr_dispatch_src (12,805 samples, 57.81%)</title><rect x="104.9" y="133" width="682.1" height="15.0" fill="rgb(244,217,6)" rx="2" ry="2" />
<text  x="107.88" y="143.5" >netisr_dispatch_src</text>
</g>
<g >
<title>iflib_rxeof (2,825 samples, 12.75%)</title><rect x="1012.9" y="277" width="150.5" height="15.0" fill="rgb(223,100,43)" rx="2" ry="2" />
<text  x="1015.93" y="287.5" >iflib_rxeof</text>
</g>
<g >
<title>ether_output_frame (2,825 samples, 12.75%)</title><rect x="1012.9" y="133" width="150.5" height="15.0" fill="rgb(239,160,18)" rx="2" ry="2" />
<text  x="1015.93" y="143.5" >ether_output_frame</text>
</g>
<g >
<title>iflib_if_transmit (499 samples, 2.25%)</title><rect x="1163.4" y="149" width="26.6" height="15.0" fill="rgb(249,77,48)" rx="2" ry="2" />
<text  x="1166.42" y="159.5" >i..</text>
</g>
<g >
<title>iflib_rxeof (2,535 samples, 11.44%)</title><rect x="877.9" y="229" width="135.0" height="15.0" fill="rgb(223,22,34)" rx="2" ry="2" />
<text  x="880.89" y="239.5" >iflib_rxeof</text>
</g>
<g >
<title>pf_walk_header6 (318 samples, 1.44%)</title><rect x="770.1" y="37" width="16.9" height="15.0" fill="rgb(218,182,1)" rx="2" ry="2" />
<text  x="773.07" y="47.5" ></text>
</g>
<g >
<title>gtaskqueue_run_locked (13,524 samples, 61.05%)</title><rect x="80.8" y="245" width="720.4" height="15.0" fill="rgb(225,79,40)" rx="2" ry="2" />
<text  x="83.80" y="255.5" >gtaskqueue_run_locked</text>
</g>
<g >
<title>iflib_txq_drain (499 samples, 2.25%)</title><rect x="1163.4" y="101" width="26.6" height="15.0" fill="rgb(215,74,54)" rx="2" ry="2" />
<text  x="1166.42" y="111.5" >i..</text>
</g>
<g >
<title>pfil_mbuf_out (411 samples, 1.86%)</title><rect x="856.0" y="117" width="21.9" height="15.0" fill="rgb(208,39,15)" rx="2" ry="2" />
<text  x="858.99" y="127.5" >p..</text>
</g>
<g >
<title>memset_erms (349 samples, 1.58%)</title><rect x="959.6" y="37" width="18.6" height="15.0" fill="rgb(234,209,36)" rx="2" ry="2" />
<text  x="962.60" y="47.5" ></text>
</g>
<g >
<title>ip6_input (1,439 samples, 6.50%)</title><rect x="801.2" y="149" width="76.7" height="15.0" fill="rgb(254,165,21)" rx="2" ry="2" />
<text  x="804.23" y="159.5" >ip6_input</text>
</g>
<g >
<title>iflib_if_transmit (1,534 samples, 6.93%)</title><rect x="877.9" y="69" width="81.7" height="15.0" fill="rgb(252,93,51)" rx="2" ry="2" />
<text  x="880.89" y="79.5" >iflib_if_..</text>
</g>
<g >
<title>ether_output (499 samples, 2.25%)</title><rect x="1163.4" y="181" width="26.6" height="15.0" fill="rgb(215,4,36)" rx="2" ry="2" />
<text  x="1166.42" y="191.5" >e..</text>
</g>
<g >
<title>pf_test (516 samples, 2.33%)</title><rect x="828.5" y="85" width="27.5" height="15.0" fill="rgb(247,212,12)" rx="2" ry="2" />
<text  x="831.50" y="95.5" >p..</text>
</g>
<g >
<title>gtaskqueue_thread_loop (2,535 samples, 11.44%)</title><rect x="877.9" y="277" width="135.0" height="15.0" fill="rgb(243,117,7)" rx="2" ry="2" />
<text  x="880.89" y="287.5" >gtaskqueue_thread..</text>
</g>
<g >
<title>netisr_dispatch_src (499 samples, 2.25%)</title><rect x="1163.4" y="277" width="26.6" height="15.0" fill="rgb(240,42,14)" rx="2" ry="2" />
<text  x="1166.42" y="287.5" >n..</text>
</g>
<g >
<title>netisr_dispatch_src (12,805 samples, 57.81%)</title><rect x="104.9" y="181" width="682.1" height="15.0" fill="rgb(232,53,17)" rx="2" ry="2" />
<text  x="107.88" y="191.5" >netisr_dispatch_src</text>
</g>
</g>
</svg>
