<?xml version="1.0" standalone="no"?>
<!DOCTYPE svg PUBLIC "-//W3C//DTD SVG 1.1//EN" "http://www.w3.org/Graphics/SVG/1.1/DTD/svg11.dtd">
<svg version="1.1" width="1200" height="342" onload="init(evt)" viewBox="0 0 1200 342" xmlns="http://www.w3.org/2000/svg" xmlns:xlink="http://www.w3.org/1999/xlink">
<!-- Flame graph stack visualization. See https://github.com/brendangregg/FlameGraph for latest version, and http://www.brendangregg.com/flamegraphs.html for examples. -->
<!-- NOTES:  -->
<defs>
	<linearGradient id="background" y1="0" y2="1" x1="0" x2="0" >
		<stop stop-color="#eeeeee" offset="5%" />
		<stop stop-color="#eeeeb0" offset="95%" />
	</linearGradient>
</defs>
<style type="text/css">
	text { font-family:Verdana; font-size:12px; fill:rgb(0,0,0); }
	#search, #ignorecase { opacity:0.1; cursor:pointer; }
	#search:hover, #search.show, #ignorecase:hover, #ignorecase.show { opacity:1; }
	#subtitle { text-anchor:middle; font-color:rgb(160,160,160); }
	#title { text-anchor:middle; font-size:17px}
	#unzoom { cursor:pointer; }
	#frames > *:hover { stroke:black; stroke-width:0.5; cursor:pointer; }
	.hide { display:none; }
	.parent { opacity:0.5; }
</style>
<script type="text/ecmascript">
<![CDATA[
	"use strict";
	var details, searchbtn, unzoombtn, matchedtxt, svg, searching, currentSearchTerm, ignorecase, ignorecaseBtn;
	function init(evt) {
		details = document.getElementById("details").firstChild;
		searchbtn = document.getElementById("search");
		ignorecaseBtn = document.getElementById("ignorecase");
		unzoombtn = document.getElementById("unzoom");
		matchedtxt = document.getElementById("matched");
		svg = document.getElementsByTagName("svg")[0];
		searching = 0;
		currentSearchTerm = null;

		// use GET parameters to restore a flamegraphs state.
		var params = get_params();
		if (params.x && params.y)
			zoom(find_group(document.querySelector('[x="' + params.x + '"][y="' + params.y + '"]')));
                if (params.s) search(params.s);
	}

	// event listeners
	window.addEventListener("click", function(e) {
		var target = find_group(e.target);
		if (target) {
			if (target.nodeName == "a") {
				if (e.ctrlKey === false) return;
				e.preventDefault();
			}
			if (target.classList.contains("parent")) unzoom();
			zoom(target);
			if (!document.querySelector('.parent')) {
				clearzoom();
				return;
			}

			// set parameters for zoom state
			var el = target.querySelector("rect");
			if (el && el.attributes && el.attributes.y && el.attributes._orig_x) {
				var params = get_params()
				params.x = el.attributes._orig_x.value;
				params.y = el.attributes.y.value;
				history.replaceState(null, null, parse_params(params));
			}
		}
		else if (e.target.id == "unzoom") clearzoom();
		else if (e.target.id == "search") search_prompt();
		else if (e.target.id == "ignorecase") toggle_ignorecase();
	}, false)

	// mouse-over for info
	// show
	window.addEventListener("mouseover", function(e) {
		var target = find_group(e.target);
		if (target) details.nodeValue = "Function: " + g_to_text(target);
	}, false)

	// clear
	window.addEventListener("mouseout", function(e) {
		var target = find_group(e.target);
		if (target) details.nodeValue = ' ';
	}, false)

	// ctrl-F for search
	// ctrl-I to toggle case-sensitive search
	window.addEventListener("keydown",function (e) {
		if (e.keyCode === 114 || (e.ctrlKey && e.keyCode === 70)) {
			e.preventDefault();
			search_prompt();
		}
		else if (e.ctrlKey && e.keyCode === 73) {
			e.preventDefault();
			toggle_ignorecase();
		}
	}, false)

	// functions
	function get_params() {
		var params = {};
		var paramsarr = window.location.search.substr(1).split('&');
		for (var i = 0; i < paramsarr.length; ++i) {
			var tmp = paramsarr[i].split("=");
			if (!tmp[0] || !tmp[1]) continue;
			params[tmp[0]]  = decodeURIComponent(tmp[1]);
		}
		return params;
	}
	function parse_params(params) {
		var uri = "?";
		for (var key in params) {
			uri += key + '=' + encodeURIComponent(params[key]) + '&';
		}
		if (uri.slice(-1) == "&")
			uri = uri.substring(0, uri.length - 1);
		if (uri == '?')
			uri = window.location.href.split('?')[0];
		return uri;
	}
	function find_child(node, selector) {
		var children = node.querySelectorAll(selector);
		if (children.length) return children[0];
	}
	function find_group(node) {
		var parent = node.parentElement;
		if (!parent) return;
		if (parent.id == "frames") return node;
		return find_group(parent);
	}
	function orig_save(e, attr, val) {
		if (e.attributes["_orig_" + attr] != undefined) return;
		if (e.attributes[attr] == undefined) return;
		if (val == undefined) val = e.attributes[attr].value;
		e.setAttribute("_orig_" + attr, val);
	}
	function orig_load(e, attr) {
		if (e.attributes["_orig_"+attr] == undefined) return;
		e.attributes[attr].value = e.attributes["_orig_" + attr].value;
		e.removeAttribute("_orig_"+attr);
	}
	function g_to_text(e) {
		var text = find_child(e, "title").firstChild.nodeValue;
		return (text)
	}
	function g_to_func(e) {
		var func = g_to_text(e);
		// if there's any manipulation we want to do to the function
		// name before it's searched, do it here before returning.
		return (func);
	}
	function update_text(e) {
		var r = find_child(e, "rect");
		var t = find_child(e, "text");
		var w = parseFloat(r.attributes.width.value) -3;
		var txt = find_child(e, "title").textContent.replace(/\([^(]*\)$/,"");
		t.attributes.x.value = parseFloat(r.attributes.x.value) + 3;

		// Smaller than this size won't fit anything
		if (w < 2 * 12 * 0.59) {
			t.textContent = "";
			return;
		}

		t.textContent = txt;
		// Fit in full text width
		if (/^ *$/.test(txt) || t.getSubStringLength(0, txt.length) < w)
			return;

		for (var x = txt.length - 2; x > 0; x--) {
			if (t.getSubStringLength(0, x + 2) <= w) {
				t.textContent = txt.substring(0, x) + "..";
				return;
			}
		}
		t.textContent = "";
	}

	// zoom
	function zoom_reset(e) {
		if (e.attributes != undefined) {
			orig_load(e, "x");
			orig_load(e, "width");
		}
		if (e.childNodes == undefined) return;
		for (var i = 0, c = e.childNodes; i < c.length; i++) {
			zoom_reset(c[i]);
		}
	}
	function zoom_child(e, x, ratio) {
		if (e.attributes != undefined) {
			if (e.attributes.x != undefined) {
				orig_save(e, "x");
				e.attributes.x.value = (parseFloat(e.attributes.x.value) - x - 10) * ratio + 10;
				if (e.tagName == "text")
					e.attributes.x.value = find_child(e.parentNode, "rect[x]").attributes.x.value + 3;
			}
			if (e.attributes.width != undefined) {
				orig_save(e, "width");
				e.attributes.width.value = parseFloat(e.attributes.width.value) * ratio;
			}
		}

		if (e.childNodes == undefined) return;
		for (var i = 0, c = e.childNodes; i < c.length; i++) {
			zoom_child(c[i], x - 10, ratio);
		}
	}
	function zoom_parent(e) {
		if (e.attributes) {
			if (e.attributes.x != undefined) {
				orig_save(e, "x");
				e.attributes.x.value = 10;
			}
			if (e.attributes.width != undefined) {
				orig_save(e, "width");
				e.attributes.width.value = parseInt(svg.width.baseVal.value) - (10 * 2);
			}
		}
		if (e.childNodes == undefined) return;
		for (var i = 0, c = e.childNodes; i < c.length; i++) {
			zoom_parent(c[i]);
		}
	}
	function zoom(node) {
		var attr = find_child(node, "rect").attributes;
		var width = parseFloat(attr.width.value);
		var xmin = parseFloat(attr.x.value);
		var xmax = parseFloat(xmin + width);
		var ymin = parseFloat(attr.y.value);
		var ratio = (svg.width.baseVal.value - 2 * 10) / width;

		// XXX: Workaround for JavaScript float issues (fix me)
		var fudge = 0.0001;

		unzoombtn.classList.remove("hide");

		var el = document.getElementById("frames").children;
		for (var i = 0; i < el.length; i++) {
			var e = el[i];
			var a = find_child(e, "rect").attributes;
			var ex = parseFloat(a.x.value);
			var ew = parseFloat(a.width.value);
			var upstack;
			// Is it an ancestor
			if (0 == 0) {
				upstack = parseFloat(a.y.value) > ymin;
			} else {
				upstack = parseFloat(a.y.value) < ymin;
			}
			if (upstack) {
				// Direct ancestor
				if (ex <= xmin && (ex+ew+fudge) >= xmax) {
					e.classList.add("parent");
					zoom_parent(e);
					update_text(e);
				}
				// not in current path
				else
					e.classList.add("hide");
			}
			// Children maybe
			else {
				// no common path
				if (ex < xmin || ex + fudge >= xmax) {
					e.classList.add("hide");
				}
				else {
					zoom_child(e, xmin, ratio);
					update_text(e);
				}
			}
		}
		search();
	}
	function unzoom() {
		unzoombtn.classList.add("hide");
		var el = document.getElementById("frames").children;
		for(var i = 0; i < el.length; i++) {
			el[i].classList.remove("parent");
			el[i].classList.remove("hide");
			zoom_reset(el[i]);
			update_text(el[i]);
		}
		search();
	}
	function clearzoom() {
		unzoom();

		// remove zoom state
		var params = get_params();
		if (params.x) delete params.x;
		if (params.y) delete params.y;
		history.replaceState(null, null, parse_params(params));
	}

	// search
	function toggle_ignorecase() {
		ignorecase = !ignorecase;
		if (ignorecase) {
			ignorecaseBtn.classList.add("show");
		} else {
			ignorecaseBtn.classList.remove("show");
		}
		reset_search();
		search();
	}
	function reset_search() {
		var el = document.querySelectorAll("#frames rect");
		for (var i = 0; i < el.length; i++) {
			orig_load(el[i], "fill")
		}
		var params = get_params();
		delete params.s;
		history.replaceState(null, null, parse_params(params));
	}
	function search_prompt() {
		if (!searching) {
			var term = prompt("Enter a search term (regexp " +
			    "allowed, eg: ^ext4_)"
			    + (ignorecase ? ", ignoring case" : "")
			    + "\nPress Ctrl-i to toggle case sensitivity", "");
			if (term != null) search(term);
		} else {
			reset_search();
			searching = 0;
			currentSearchTerm = null;
			searchbtn.classList.remove("show");
			searchbtn.firstChild.nodeValue = "Search"
			matchedtxt.classList.add("hide");
			matchedtxt.firstChild.nodeValue = ""
		}
	}
	function search(term) {
		if (term) currentSearchTerm = term;

		var re = new RegExp(currentSearchTerm, ignorecase ? 'i' : '');
		var el = document.getElementById("frames").children;
		var matches = new Object();
		var maxwidth = 0;
		for (var i = 0; i < el.length; i++) {
			var e = el[i];
			var func = g_to_func(e);
			var rect = find_child(e, "rect");
			if (func == null || rect == null)
				continue;

			// Save max width. Only works as we have a root frame
			var w = parseFloat(rect.attributes.width.value);
			if (w > maxwidth)
				maxwidth = w;

			if (func.match(re)) {
				// highlight
				var x = parseFloat(rect.attributes.x.value);
				orig_save(rect, "fill");
				rect.attributes.fill.value = "rgb(230,0,230)";

				// remember matches
				if (matches[x] == undefined) {
					matches[x] = w;
				} else {
					if (w > matches[x]) {
						// overwrite with parent
						matches[x] = w;
					}
				}
				searching = 1;
			}
		}
		if (!searching)
			return;
		var params = get_params();
		params.s = currentSearchTerm;
		history.replaceState(null, null, parse_params(params));

		searchbtn.classList.add("show");
		searchbtn.firstChild.nodeValue = "Reset Search";

		// calculate percent matched, excluding vertical overlap
		var count = 0;
		var lastx = -1;
		var lastw = 0;
		var keys = Array();
		for (k in matches) {
			if (matches.hasOwnProperty(k))
				keys.push(k);
		}
		// sort the matched frames by their x location
		// ascending, then width descending
		keys.sort(function(a, b){
			return a - b;
		});
		// Step through frames saving only the biggest bottom-up frames
		// thanks to the sort order. This relies on the tree property
		// where children are always smaller than their parents.
		var fudge = 0.0001;	// JavaScript floating point
		for (var k in keys) {
			var x = parseFloat(keys[k]);
			var w = matches[keys[k]];
			if (x >= lastx + lastw - fudge) {
				count += w;
				lastx = x;
				lastw = w;
			}
		}
		// display matched percent
		matchedtxt.classList.remove("hide");
		var pct = 100 * count / maxwidth;
		if (pct != 100) pct = pct.toFixed(1)
		matchedtxt.firstChild.nodeValue = "Matched: " + pct + "%";
	}
]]>
</script>
<rect x="0.0" y="0" width="1200.0" height="342.0" fill="url(#background)"  />
<text id="title" x="600.00" y="24" >Flame Graph</text>
<text id="details" x="10.00" y="325" > </text>
<text id="unzoom" x="10.00" y="24" class="hide">Reset Zoom</text>
<text id="search" x="1090.00" y="24" >Search</text>
<text id="ignorecase" x="1174.00" y="24" >ic</text>
<text id="matched" x="1090.00" y="325" > </text>
<g id="frames">
<g >
<title>gtaskqueue_thread_loop (17,653 samples, 64.10%)</title><rect x="90.3" y="261" width="756.4" height="15.0" fill="rgb(229,110,27)" rx="2" ry="2" />
<text  x="93.29" y="271.5" >gtaskqueue_thread_loop</text>
</g>
<g >
<title>ether_output_frame (1,326 samples, 4.81%)</title><rect x="18.0" y="117" width="56.8" height="15.0" fill="rgb(241,14,21)" rx="2" ry="2" />
<text  x="21.01" y="127.5" >ether_..</text>
</g>
<g >
<title>netisr_dispatch_src (382 samples, 1.39%)</title><rect x="846.7" y="213" width="16.4" height="15.0" fill="rgb(231,33,18)" rx="2" ry="2" />
<text  x="849.71" y="223.5" ></text>
</g>
<g >
<title>drain_ring_lockless (4,326 samples, 15.71%)</title><rect x="988.0" y="85" width="185.4" height="15.0" fill="rgb(238,93,31)" rx="2" ry="2" />
<text  x="991.02" y="95.5" >drain_ring_lockless</text>
</g>
<g >
<title>memcmp (43 samples, 0.16%)</title><rect x="805.3" y="149" width="1.8" height="15.0" fill="rgb(216,147,41)" rx="2" ry="2" />
<text  x="808.28" y="159.5" ></text>
</g>
<g >
<title>ifmp_ring_enqueue (4,326 samples, 15.71%)</title><rect x="988.0" y="101" width="185.4" height="15.0" fill="rgb(210,180,30)" rx="2" ry="2" />
<text  x="991.02" y="111.5" >ifmp_ring_enqueue</text>
</g>
<g >
<title>m_adj (22 samples, 0.08%)</title><rect x="151.3" y="133" width="0.9" height="15.0" fill="rgb(241,42,42)" rx="2" ry="2" />
<text  x="154.27" y="143.5" ></text>
</g>
<g >
<title>iflib_txd_db_check (365 samples, 1.33%)</title><rect x="1157.7" y="53" width="15.7" height="15.0" fill="rgb(234,30,35)" rx="2" ry="2" />
<text  x="1160.74" y="63.5" ></text>
</g>
<g >
<title>iflib_completed_tx_reclaim (141 samples, 0.51%)</title><rect x="988.0" y="53" width="6.1" height="15.0" fill="rgb(225,130,0)" rx="2" ry="2" />
<text  x="991.02" y="63.5" ></text>
</g>
<g >
<title>ether_demux (4,326 samples, 15.71%)</title><rect x="988.0" y="213" width="185.4" height="15.0" fill="rgb(228,140,5)" rx="2" ry="2" />
<text  x="991.02" y="223.5" >ether_demux</text>
</g>
<g >
<title>netisr_dispatch_src (4,326 samples, 15.71%)</title><rect x="988.0" y="197" width="185.4" height="15.0" fill="rgb(236,161,7)" rx="2" ry="2" />
<text  x="991.02" y="207.5" >netisr_dispatch_src</text>
</g>
<g >
<title>iflib_rxeof (16,565 samples, 60.15%)</title><rect x="136.3" y="213" width="709.8" height="15.0" fill="rgb(251,217,13)" rx="2" ry="2" />
<text  x="139.31" y="223.5" >iflib_rxeof</text>
</g>
<g >
<title>in_localip (153 samples, 0.56%)</title><rect x="775.8" y="85" width="6.6" height="15.0" fill="rgb(215,43,45)" rx="2" ry="2" />
<text  x="778.84" y="95.5" ></text>
</g>
<g >
<title>ifmp_ring_enqueue (382 samples, 1.39%)</title><rect x="846.7" y="69" width="16.4" height="15.0" fill="rgb(205,197,39)" rx="2" ry="2" />
<text  x="849.71" y="79.5" ></text>
</g>
<g >
<title>ether_input (2,903 samples, 10.54%)</title><rect x="863.1" y="213" width="124.4" height="15.0" fill="rgb(239,60,3)" rx="2" ry="2" />
<text  x="866.08" y="223.5" >ether_input</text>
</g>
<g >
<title>grouptaskqueue_enqueue (22 samples, 0.08%)</title><rect x="1175.0" y="229" width="0.9" height="15.0" fill="rgb(238,15,47)" rx="2" ry="2" />
<text  x="1177.96" y="239.5" ></text>
</g>
<g >
<title>ether_output (324 samples, 1.18%)</title><rect x="74.8" y="165" width="13.9" height="15.0" fill="rgb(245,35,15)" rx="2" ry="2" />
<text  x="77.83" y="175.5" ></text>
</g>
<g >
<title>iflib_txq_drain (324 samples, 1.18%)</title><rect x="74.8" y="85" width="13.9" height="15.0" fill="rgb(252,228,44)" rx="2" ry="2" />
<text  x="77.83" y="95.5" ></text>
</g>
<g >
<title>netisr_dispatch_src (2,903 samples, 10.54%)</title><rect x="863.1" y="149" width="124.4" height="15.0" fill="rgb(214,124,49)" rx="2" ry="2" />
<text  x="866.08" y="159.5" >netisr_dispatch..</text>
</g>
<g >
<title>ether_nh_input (324 samples, 1.18%)</title><rect x="74.8" y="245" width="13.9" height="15.0" fill="rgb(216,79,20)" rx="2" ry="2" />
<text  x="77.83" y="255.5" ></text>
</g>
<g >
<title>iflib_encap (287 samples, 1.04%)</title><rect x="76.4" y="69" width="12.3" height="15.0" fill="rgb(248,120,14)" rx="2" ry="2" />
<text  x="79.41" y="79.5" ></text>
</g>
<g >
<title>wakeup_any (808 samples, 2.93%)</title><rect x="101.5" y="197" width="34.6" height="15.0" fill="rgb(218,166,28)" rx="2" ry="2" />
<text  x="104.52" y="207.5" >wa..</text>
</g>
<g >
<title>wakeup (14 samples, 0.05%)</title><rect x="846.1" y="229" width="0.6" height="15.0" fill="rgb(229,136,11)" rx="2" ry="2" />
<text  x="849.07" y="239.5" ></text>
</g>
<g >
<title>grouptaskqueue_enqueue (822 samples, 2.98%)</title><rect x="100.9" y="213" width="35.2" height="15.0" fill="rgb(208,104,22)" rx="2" ry="2" />
<text  x="103.92" y="223.5" >gr..</text>
</g>
<g >
<title>in_lltable_lookup (4,806 samples, 17.45%)</title><rect x="531.4" y="53" width="205.9" height="15.0" fill="rgb(244,101,53)" rx="2" ry="2" />
<text  x="534.36" y="63.5" >in_lltable_lookup</text>
</g>
<g >
<title>ether_demux (15,292 samples, 55.53%)</title><rect x="149.7" y="149" width="655.2" height="15.0" fill="rgb(219,36,32)" rx="2" ry="2" />
<text  x="152.68" y="159.5" >ether_demux</text>
</g>
<g >
<title>ifmp_ring_enqueue (276 samples, 1.00%)</title><rect x="1178.2" y="133" width="11.8" height="15.0" fill="rgb(247,219,37)" rx="2" ry="2" />
<text  x="1181.17" y="143.5" ></text>
</g>
<g >
<title>ixl_isc_txd_encap (3,733 samples, 13.55%)</title><rect x="997.8" y="37" width="159.9" height="15.0" fill="rgb(253,164,28)" rx="2" ry="2" />
<text  x="1000.79" y="47.5" >ixl_isc_txd_encap</text>
</g>
<g >
<title>pmclog_process_callchain (35 samples, 0.13%)</title><rect x="1176.7" y="181" width="1.5" height="15.0" fill="rgb(210,158,46)" rx="2" ry="2" />
<text  x="1179.67" y="191.5" ></text>
</g>
<g >
<title>all (27,540 samples, 100%)</title><rect x="10.0" y="293" width="1180.0" height="15.0" fill="rgb(230,31,52)" rx="2" ry="2" />
<text  x="13.00" y="303.5" ></text>
</g>
<g >
<title>bounce_bus_dmamap_load_buffer (287 samples, 1.04%)</title><rect x="76.4" y="37" width="12.3" height="15.0" fill="rgb(223,145,11)" rx="2" ry="2" />
<text  x="79.41" y="47.5" ></text>
</g>
<g >
<title>netisr_dispatch_src (15,469 samples, 56.17%)</title><rect x="144.3" y="181" width="662.8" height="15.0" fill="rgb(224,229,17)" rx="2" ry="2" />
<text  x="147.32" y="191.5" >netisr_dispatch_src</text>
</g>
<g >
<title>_task_fn_rx (382 samples, 1.39%)</title><rect x="846.7" y="261" width="16.4" height="15.0" fill="rgb(223,139,45)" rx="2" ry="2" />
<text  x="849.71" y="271.5" ></text>
</g>
<g >
<title>ether_output (13,784 samples, 50.05%)</title><rect x="185.2" y="85" width="590.6" height="15.0" fill="rgb(210,227,38)" rx="2" ry="2" />
<text  x="188.24" y="95.5" >ether_output</text>
</g>
<g >
<title>iflib_completed_tx_reclaim (276 samples, 1.00%)</title><rect x="1178.2" y="85" width="11.8" height="15.0" fill="rgb(248,110,25)" rx="2" ry="2" />
<text  x="1181.17" y="95.5" ></text>
</g>
<g >
<title>drain_ring_lockless (382 samples, 1.39%)</title><rect x="846.7" y="53" width="16.4" height="15.0" fill="rgb(251,58,6)" rx="2" ry="2" />
<text  x="849.71" y="63.5" ></text>
</g>
<g >
<title>if_getdrvflags (4 samples, 0.01%)</title><rect x="136.1" y="213" width="0.2" height="15.0" fill="rgb(253,65,13)" rx="2" ry="2" />
<text  x="139.14" y="223.5" ></text>
</g>
<g >
<title>ip_input (37 samples, 0.13%)</title><rect x="88.7" y="229" width="1.6" height="15.0" fill="rgb(205,16,19)" rx="2" ry="2" />
<text  x="91.71" y="239.5" ></text>
</g>
<g >
<title>gtaskqueue_run_locked (2,903 samples, 10.54%)</title><rect x="863.1" y="261" width="124.4" height="15.0" fill="rgb(233,177,12)" rx="2" ry="2" />
<text  x="866.08" y="271.5" >gtaskqueue_run_..</text>
</g>
<g >
<title>ether_output_frame (382 samples, 1.39%)</title><rect x="846.7" y="101" width="16.4" height="15.0" fill="rgb(229,101,9)" rx="2" ry="2" />
<text  x="849.71" y="111.5" ></text>
</g>
<g >
<title>ip_tryforward (324 samples, 1.18%)</title><rect x="74.8" y="181" width="13.9" height="15.0" fill="rgb(223,45,8)" rx="2" ry="2" />
<text  x="77.83" y="191.5" ></text>
</g>
<g >
<title>ether_demux (382 samples, 1.39%)</title><rect x="846.7" y="181" width="16.4" height="15.0" fill="rgb(248,105,50)" rx="2" ry="2" />
<text  x="849.71" y="191.5" ></text>
</g>
<g >
<title>bsearch4_lookup (12 samples, 0.04%)</title><rect x="804.4" y="53" width="0.5" height="15.0" fill="rgb(214,188,49)" rx="2" ry="2" />
<text  x="807.38" y="63.5" ></text>
</g>
<g >
<title>ether_output (276 samples, 1.00%)</title><rect x="1178.2" y="181" width="11.8" height="15.0" fill="rgb(230,37,4)" rx="2" ry="2" />
<text  x="1181.17" y="191.5" ></text>
</g>
<g >
<title>lapic_handle_timer (52 samples, 0.19%)</title><rect x="1175.9" y="277" width="2.3" height="15.0" fill="rgb(211,215,50)" rx="2" ry="2" />
<text  x="1178.95" y="287.5" ></text>
</g>
<g >
<title>drain_ring_lockless (276 samples, 1.00%)</title><rect x="1178.2" y="117" width="11.8" height="15.0" fill="rgb(244,130,1)" rx="2" ry="2" />
<text  x="1181.17" y="127.5" ></text>
</g>
<g >
<title>ether_input (4,339 samples, 15.76%)</title><rect x="987.5" y="261" width="185.9" height="15.0" fill="rgb(229,84,30)" rx="2" ry="2" />
<text  x="990.46" y="271.5" >ether_input</text>
</g>
<g >
<title>bus_dmamap_load_mbuf_sg (87 samples, 0.32%)</title><rect x="994.1" y="37" width="3.7" height="15.0" fill="rgb(215,163,45)" rx="2" ry="2" />
<text  x="997.06" y="47.5" ></text>
</g>
<g >
<title>pmap_kextract (48 samples, 0.17%)</title><rect x="1178.2" y="37" width="2.0" height="15.0" fill="rgb(231,42,51)" rx="2" ry="2" />
<text  x="1181.17" y="47.5" ></text>
</g>
<g >
<title>ether_nh_input (4,326 samples, 15.71%)</title><rect x="988.0" y="229" width="185.4" height="15.0" fill="rgb(217,70,3)" rx="2" ry="2" />
<text  x="991.02" y="239.5" >ether_nh_input</text>
</g>
<g >
<title>_task_fn_rx (2,903 samples, 10.54%)</title><rect x="863.1" y="245" width="124.4" height="15.0" fill="rgb(227,108,27)" rx="2" ry="2" />
<text  x="866.08" y="255.5" >_task_fn_rx</text>
</g>
<g >
<title>ip_tryforward (37 samples, 0.13%)</title><rect x="88.7" y="213" width="1.6" height="15.0" fill="rgb(240,123,30)" rx="2" ry="2" />
<text  x="91.71" y="223.5" ></text>
</g>
<g >
<title>ether_output (37 samples, 0.13%)</title><rect x="88.7" y="197" width="1.6" height="15.0" fill="rgb(205,14,51)" rx="2" ry="2" />
<text  x="91.71" y="207.5" ></text>
</g>
<g >
<title>_task_fn_rx (17,391 samples, 63.15%)</title><rect x="100.9" y="229" width="745.2" height="15.0" fill="rgb(218,20,15)" rx="2" ry="2" />
<text  x="103.92" y="239.5" >_task_fn_rx</text>
</g>
<g >
<title>gtaskqueue_run_locked (17,653 samples, 64.10%)</title><rect x="90.3" y="245" width="756.4" height="15.0" fill="rgb(211,94,7)" rx="2" ry="2" />
<text  x="93.29" y="255.5" >gtaskqueue_run_locked</text>
</g>
<g >
<title>ether_input (15,469 samples, 56.17%)</title><rect x="144.3" y="197" width="662.8" height="15.0" fill="rgb(238,223,35)" rx="2" ry="2" />
<text  x="147.32" y="207.5" >ether_input</text>
</g>
<g >
<title>ifmp_ring_enqueue (2,903 samples, 10.54%)</title><rect x="863.1" y="53" width="124.4" height="15.0" fill="rgb(207,77,42)" rx="2" ry="2" />
<text  x="866.08" y="63.5" >ifmp_ring_enqueue</text>
</g>
<g >
<title>handleevents (52 samples, 0.19%)</title><rect x="1175.9" y="245" width="2.3" height="15.0" fill="rgb(215,0,28)" rx="2" ry="2" />
<text  x="1178.95" y="255.5" ></text>
</g>
<g >
<title>m_free (276 samples, 1.00%)</title><rect x="1178.2" y="53" width="11.8" height="15.0" fill="rgb(214,83,1)" rx="2" ry="2" />
<text  x="1181.17" y="63.5" ></text>
</g>
<g >
<title>ether_demux (37 samples, 0.13%)</title><rect x="88.7" y="261" width="1.6" height="15.0" fill="rgb(224,201,52)" rx="2" ry="2" />
<text  x="91.71" y="271.5" ></text>
</g>
<g >
<title>memmove_erms (106 samples, 0.38%)</title><rect x="737.3" y="53" width="4.5" height="15.0" fill="rgb(210,107,1)" rx="2" ry="2" />
<text  x="740.28" y="63.5" ></text>
</g>
<g >
<title>netisr_dispatch_src (324 samples, 1.18%)</title><rect x="74.8" y="213" width="13.9" height="15.0" fill="rgb(228,29,20)" rx="2" ry="2" />
<text  x="77.83" y="223.5" ></text>
</g>
<g >
<title>iflib_if_transmit (382 samples, 1.39%)</title><rect x="846.7" y="85" width="16.4" height="15.0" fill="rgb(212,122,39)" rx="2" ry="2" />
<text  x="849.71" y="95.5" ></text>
</g>
<g >
<title>iflib_if_transmit (1,326 samples, 4.81%)</title><rect x="18.0" y="101" width="56.8" height="15.0" fill="rgb(234,122,15)" rx="2" ry="2" />
<text  x="21.01" y="111.5" >iflib_..</text>
</g>
<g >
<title>iflib_txq_drain (382 samples, 1.39%)</title><rect x="846.7" y="37" width="16.4" height="15.0" fill="rgb(238,85,29)" rx="2" ry="2" />
<text  x="849.71" y="47.5" ></text>
</g>
<g >
<title>ether_output_frame (324 samples, 1.18%)</title><rect x="74.8" y="149" width="13.9" height="15.0" fill="rgb(232,169,10)" rx="2" ry="2" />
<text  x="77.83" y="159.5" ></text>
</g>
<g >
<title>ether_output (4,326 samples, 15.71%)</title><rect x="988.0" y="149" width="185.4" height="15.0" fill="rgb(230,11,24)" rx="2" ry="2" />
<text  x="991.02" y="159.5" >ether_output</text>
</g>
<g >
<title>ether_output_frame (276 samples, 1.00%)</title><rect x="1178.2" y="165" width="11.8" height="15.0" fill="rgb(249,165,48)" rx="2" ry="2" />
<text  x="1181.17" y="175.5" ></text>
</g>
<g >
<title>ip_findroute (525 samples, 1.91%)</title><rect x="782.4" y="85" width="22.5" height="15.0" fill="rgb(206,157,2)" rx="2" ry="2" />
<text  x="785.40" y="95.5" >i..</text>
</g>
<g >
<title>ether_output (382 samples, 1.39%)</title><rect x="846.7" y="117" width="16.4" height="15.0" fill="rgb(229,94,7)" rx="2" ry="2" />
<text  x="849.71" y="127.5" ></text>
</g>
<g >
<title>memcpy_erms (417 samples, 1.51%)</title><rect x="758.0" y="69" width="17.8" height="15.0" fill="rgb(232,226,20)" rx="2" ry="2" />
<text  x="760.98" y="79.5" ></text>
</g>
<g >
<title>iflib_completed_tx_reclaim (37 samples, 0.13%)</title><rect x="74.8" y="69" width="1.6" height="15.0" fill="rgb(206,25,1)" rx="2" ry="2" />
<text  x="77.83" y="79.5" ></text>
</g>
<g >
<title>netisr_dispatch_src (324 samples, 1.18%)</title><rect x="74.8" y="261" width="13.9" height="15.0" fill="rgb(232,65,46)" rx="2" ry="2" />
<text  x="77.83" y="271.5" ></text>
</g>
<g >
<title>uma_zfree_arg (228 samples, 0.83%)</title><rect x="1180.2" y="37" width="9.8" height="15.0" fill="rgb(247,19,39)" rx="2" ry="2" />
<text  x="1183.23" y="47.5" ></text>
</g>
<g >
<title>iflib_txq_drain (4,326 samples, 15.71%)</title><rect x="988.0" y="69" width="185.4" height="15.0" fill="rgb(222,0,0)" rx="2" ry="2" />
<text  x="991.02" y="79.5" >iflib_txq_drain</text>
</g>
<g >
<title>iflib_encap (478 samples, 1.74%)</title><rect x="34.3" y="37" width="20.4" height="15.0" fill="rgb(239,38,23)" rx="2" ry="2" />
<text  x="37.25" y="47.5" ></text>
</g>
<g >
<title>if_getdrvflags (29 samples, 0.11%)</title><rect x="18.0" y="37" width="1.3" height="15.0" fill="rgb(223,193,49)" rx="2" ry="2" />
<text  x="21.01" y="47.5" ></text>
</g>
<g >
<title>ether_output_frame (377 samples, 1.37%)</title><rect x="741.8" y="69" width="16.2" height="15.0" fill="rgb(221,1,16)" rx="2" ry="2" />
<text  x="744.82" y="79.5" ></text>
</g>
<g >
<title>ixl_isc_rxd_available (25 samples, 0.09%)</title><rect x="816.0" y="197" width="1.1" height="15.0" fill="rgb(209,64,21)" rx="2" ry="2" />
<text  x="818.99" y="207.5" ></text>
</g>
<g >
<title>netisr_dispatch_src (37 samples, 0.13%)</title><rect x="88.7" y="245" width="1.6" height="15.0" fill="rgb(211,170,18)" rx="2" ry="2" />
<text  x="91.71" y="255.5" ></text>
</g>
<g >
<title>iflib_if_transmit (276 samples, 1.00%)</title><rect x="1178.2" y="149" width="11.8" height="15.0" fill="rgb(244,143,3)" rx="2" ry="2" />
<text  x="1181.17" y="159.5" ></text>
</g>
<g >
<title>ifmp_ring_enqueue (37 samples, 0.13%)</title><rect x="88.7" y="149" width="1.6" height="15.0" fill="rgb(234,20,51)" rx="2" ry="2" />
<text  x="91.71" y="159.5" ></text>
</g>
<g >
<title>uma_zalloc_arg (107 samples, 0.39%)</title><rect x="811.4" y="181" width="4.6" height="15.0" fill="rgb(249,175,21)" rx="2" ry="2" />
<text  x="814.41" y="191.5" ></text>
</g>
<g >
<title>iflib_completed_tx_reclaim (320 samples, 1.16%)</title><rect x="20.5" y="37" width="13.8" height="15.0" fill="rgb(218,167,9)" rx="2" ry="2" />
<text  x="23.54" y="47.5" ></text>
</g>
<g >
<title>intr_event_handle (38 samples, 0.14%)</title><rect x="1174.3" y="261" width="1.6" height="15.0" fill="rgb(240,167,25)" rx="2" ry="2" />
<text  x="1177.32" y="271.5" ></text>
</g>
<g >
<title>m_freem (37 samples, 0.13%)</title><rect x="74.8" y="53" width="1.6" height="15.0" fill="rgb(230,160,16)" rx="2" ry="2" />
<text  x="77.83" y="63.5" ></text>
</g>
<g >
<title>mb_ctor_mbuf (32 samples, 0.12%)</title><rect x="814.6" y="165" width="1.4" height="15.0" fill="rgb(225,10,15)" rx="2" ry="2" />
<text  x="817.62" y="175.5" ></text>
</g>
<g >
<title>spinlock_exit (7 samples, 0.03%)</title><rect x="101.2" y="197" width="0.3" height="15.0" fill="rgb(235,188,25)" rx="2" ry="2" />
<text  x="104.22" y="207.5" ></text>
</g>
<g >
<title>arpresolve (10,330 samples, 37.51%)</title><rect x="299.2" y="69" width="442.6" height="15.0" fill="rgb(235,187,5)" rx="2" ry="2" />
<text  x="302.22" y="79.5" >arpresolve</text>
</g>
<g >
<title>ixl_isc_txd_flush (365 samples, 1.33%)</title><rect x="1157.7" y="37" width="15.7" height="15.0" fill="rgb(241,132,49)" rx="2" ry="2" />
<text  x="1160.74" y="47.5" ></text>
</g>
<g >
<title>iflib_fast_intr_rxtx (23 samples, 0.08%)</title><rect x="1175.0" y="245" width="0.9" height="15.0" fill="rgb(219,122,33)" rx="2" ry="2" />
<text  x="1177.96" y="255.5" ></text>
</g>
<g >
<title>iflib_if_transmit (2,903 samples, 10.54%)</title><rect x="863.1" y="69" width="124.4" height="15.0" fill="rgb(253,186,51)" rx="2" ry="2" />
<text  x="866.08" y="79.5" >iflib_if_transmit</text>
</g>
<g >
<title>ether_nh_input (2,903 samples, 10.54%)</title><rect x="863.1" y="181" width="124.4" height="15.0" fill="rgb(205,10,31)" rx="2" ry="2" />
<text  x="866.08" y="191.5" >ether_nh_input</text>
</g>
<g >
<title>ip_input (1,326 samples, 4.81%)</title><rect x="18.0" y="165" width="56.8" height="15.0" fill="rgb(243,194,30)" rx="2" ry="2" />
<text  x="21.01" y="175.5" >ip_input</text>
</g>
<g >
<title>netisr_dispatch_src (1,326 samples, 4.81%)</title><rect x="18.0" y="181" width="56.8" height="15.0" fill="rgb(243,128,15)" rx="2" ry="2" />
<text  x="21.01" y="191.5" >netisr..</text>
</g>
<g >
<title>ip_tryforward (15,123 samples, 54.91%)</title><rect x="156.9" y="101" width="648.0" height="15.0" fill="rgb(245,49,50)" rx="2" ry="2" />
<text  x="159.92" y="111.5" >ip_tryforward</text>
</g>
<g >
<title>if_getdrvflags (6 samples, 0.02%)</title><rect x="807.1" y="197" width="0.3" height="15.0" fill="rgb(225,87,35)" rx="2" ry="2" />
<text  x="810.12" y="207.5" ></text>
</g>
<g >
<title>ip_input (324 samples, 1.18%)</title><rect x="74.8" y="197" width="13.9" height="15.0" fill="rgb(245,206,16)" rx="2" ry="2" />
<text  x="77.83" y="207.5" ></text>
</g>
<g >
<title>ether_demux (324 samples, 1.18%)</title><rect x="74.8" y="229" width="13.9" height="15.0" fill="rgb(228,29,47)" rx="2" ry="2" />
<text  x="77.83" y="239.5" ></text>
</g>
<g >
<title>ifmp_ring_enqueue (338 samples, 1.23%)</title><rect x="743.5" y="37" width="14.5" height="15.0" fill="rgb(227,118,2)" rx="2" ry="2" />
<text  x="746.49" y="47.5" ></text>
</g>
<g >
<title>sleepq_lock (14 samples, 0.05%)</title><rect x="846.1" y="213" width="0.6" height="15.0" fill="rgb(206,5,22)" rx="2" ry="2" />
<text  x="849.07" y="223.5" ></text>
</g>
<g >
<title>if_inc_counter (30 samples, 0.11%)</title><rect x="19.3" y="37" width="1.2" height="15.0" fill="rgb(206,94,15)" rx="2" ry="2" />
<text  x="22.25" y="47.5" ></text>
</g>
<g >
<title>iflib_rxeof (382 samples, 1.39%)</title><rect x="846.7" y="245" width="16.4" height="15.0" fill="rgb(239,81,43)" rx="2" ry="2" />
<text  x="849.71" y="255.5" ></text>
</g>
<g >
<title>ether_nh_input (37 samples, 0.13%)</title><rect x="88.7" y="277" width="1.6" height="15.0" fill="rgb(205,51,37)" rx="2" ry="2" />
<text  x="91.71" y="287.5" ></text>
</g>
<g >
<title>iflib_if_transmit (324 samples, 1.18%)</title><rect x="74.8" y="133" width="13.9" height="15.0" fill="rgb(248,189,17)" rx="2" ry="2" />
<text  x="77.83" y="143.5" ></text>
</g>
<g >
<title>iflib_txq_drain (37 samples, 0.13%)</title><rect x="88.7" y="117" width="1.6" height="15.0" fill="rgb(240,105,37)" rx="2" ry="2" />
<text  x="91.71" y="127.5" ></text>
</g>
<g >
<title>ip_tryforward (4,326 samples, 15.71%)</title><rect x="988.0" y="165" width="185.4" height="15.0" fill="rgb(244,182,1)" rx="2" ry="2" />
<text  x="991.02" y="175.5" >ip_tryforward</text>
</g>
<g >
<title>if_inc_counter (5 samples, 0.02%)</title><rect x="807.4" y="197" width="0.2" height="15.0" fill="rgb(226,6,28)" rx="2" ry="2" />
<text  x="810.38" y="207.5" ></text>
</g>
<g >
<title>netisr_dispatch_src (15,233 samples, 55.31%)</title><rect x="152.2" y="133" width="652.7" height="15.0" fill="rgb(233,116,1)" rx="2" ry="2" />
<text  x="155.21" y="143.5" >netisr_dispatch_src</text>
</g>
<g >
<title>ip_tryforward (2,903 samples, 10.54%)</title><rect x="863.1" y="117" width="124.4" height="15.0" fill="rgb(222,178,32)" rx="2" ry="2" />
<text  x="866.08" y="127.5" >ip_tryforward</text>
</g>
<g >
<title>ether_demux (276 samples, 1.00%)</title><rect x="1178.2" y="245" width="11.8" height="15.0" fill="rgb(225,10,36)" rx="2" ry="2" />
<text  x="1181.17" y="255.5" ></text>
</g>
<g >
<title>bsearch4_lookup (266 samples, 0.97%)</title><rect x="783.8" y="69" width="11.4" height="15.0" fill="rgb(223,95,0)" rx="2" ry="2" />
<text  x="786.81" y="79.5" ></text>
</g>
<g >
<title>_task_fn_rx (1,326 samples, 4.81%)</title><rect x="18.0" y="277" width="56.8" height="15.0" fill="rgb(215,211,10)" rx="2" ry="2" />
<text  x="21.01" y="287.5" >_task_..</text>
</g>
<g >
<title>uma_zfree_arg (37 samples, 0.13%)</title><rect x="88.7" y="53" width="1.6" height="15.0" fill="rgb(251,0,5)" rx="2" ry="2" />
<text  x="91.71" y="63.5" ></text>
</g>
<g >
<title>ether_input (382 samples, 1.39%)</title><rect x="846.7" y="229" width="16.4" height="15.0" fill="rgb(231,172,5)" rx="2" ry="2" />
<text  x="849.71" y="239.5" ></text>
</g>
<g >
<title>m_free (37 samples, 0.13%)</title><rect x="88.7" y="69" width="1.6" height="15.0" fill="rgb(253,207,16)" rx="2" ry="2" />
<text  x="91.71" y="79.5" ></text>
</g>
<g >
<title>m_freem (37 samples, 0.13%)</title><rect x="88.7" y="85" width="1.6" height="15.0" fill="rgb(223,34,20)" rx="2" ry="2" />
<text  x="91.71" y="95.5" ></text>
</g>
<g >
<title>spinlock_exit (9 samples, 0.03%)</title><rect x="1175.5" y="213" width="0.4" height="15.0" fill="rgb(219,133,36)" rx="2" ry="2" />
<text  x="1178.52" y="223.5" ></text>
</g>
<g >
<title>ether_demux (2,903 samples, 10.54%)</title><rect x="863.1" y="165" width="124.4" height="15.0" fill="rgb(241,89,28)" rx="2" ry="2" />
<text  x="866.08" y="175.5" >ether_demux</text>
</g>
<g >
<title>netisr_dispatch_src (276 samples, 1.00%)</title><rect x="1178.2" y="277" width="11.8" height="15.0" fill="rgb(208,196,12)" rx="2" ry="2" />
<text  x="1181.17" y="287.5" ></text>
</g>
<g >
<title>iflib_rxeof (2,903 samples, 10.54%)</title><rect x="863.1" y="229" width="124.4" height="15.0" fill="rgb(241,171,18)" rx="2" ry="2" />
<text  x="866.08" y="239.5" >iflib_rxeof</text>
</g>
<g >
<title>m_freem (276 samples, 1.00%)</title><rect x="1178.2" y="69" width="11.8" height="15.0" fill="rgb(225,222,29)" rx="2" ry="2" />
<text  x="1181.17" y="79.5" ></text>
</g>
<g >
<title>mb_dtor_mbuf (37 samples, 0.13%)</title><rect x="88.7" y="37" width="1.6" height="15.0" fill="rgb(245,197,24)" rx="2" ry="2" />
<text  x="91.71" y="47.5" ></text>
</g>
<g >
<title>iflib_if_transmit (37 samples, 0.13%)</title><rect x="88.7" y="165" width="1.6" height="15.0" fill="rgb(250,177,19)" rx="2" ry="2" />
<text  x="91.71" y="175.5" ></text>
</g>
<g >
<title>ip_input (4,326 samples, 15.71%)</title><rect x="988.0" y="181" width="185.4" height="15.0" fill="rgb(225,169,9)" rx="2" ry="2" />
<text  x="991.02" y="191.5" >ip_input</text>
</g>
<g >
<title>pmc_hook_handler (52 samples, 0.19%)</title><rect x="1175.9" y="213" width="2.3" height="15.0" fill="rgb(220,30,1)" rx="2" ry="2" />
<text  x="1178.95" y="223.5" ></text>
</g>
<g >
<title>gtaskqueue_thread_loop (2,903 samples, 10.54%)</title><rect x="863.1" y="277" width="124.4" height="15.0" fill="rgb(242,91,27)" rx="2" ry="2" />
<text  x="866.08" y="287.5" >gtaskqueue_thre..</text>
</g>
<g >
<title>drain_ring_lockless (37 samples, 0.13%)</title><rect x="88.7" y="133" width="1.6" height="15.0" fill="rgb(248,23,40)" rx="2" ry="2" />
<text  x="91.71" y="143.5" ></text>
</g>
<g >
<title>iflib_if_transmit (4,326 samples, 15.71%)</title><rect x="988.0" y="117" width="185.4" height="15.0" fill="rgb(242,226,8)" rx="2" ry="2" />
<text  x="991.02" y="127.5" >iflib_if_transmit</text>
</g>
<g >
<title>m_free (37 samples, 0.13%)</title><rect x="74.8" y="37" width="1.6" height="15.0" fill="rgb(216,7,28)" rx="2" ry="2" />
<text  x="77.83" y="47.5" ></text>
</g>
<g >
<title>ether_nh_input (1,326 samples, 4.81%)</title><rect x="18.0" y="213" width="56.8" height="15.0" fill="rgb(229,15,24)" rx="2" ry="2" />
<text  x="21.01" y="223.5" >ether_..</text>
</g>
<g >
<title>ether_input (324 samples, 1.18%)</title><rect x="74.8" y="277" width="13.9" height="15.0" fill="rgb(211,198,32)" rx="2" ry="2" />
<text  x="77.83" y="287.5" ></text>
</g>
<g >
<title>memcpy_erms (33 samples, 0.12%)</title><rect x="827.2" y="197" width="1.4" height="15.0" fill="rgb(244,142,50)" rx="2" ry="2" />
<text  x="830.22" y="207.5" ></text>
</g>
<g >
<title>netisr_dispatch_src (276 samples, 1.00%)</title><rect x="1178.2" y="229" width="11.8" height="15.0" fill="rgb(213,114,51)" rx="2" ry="2" />
<text  x="1181.17" y="239.5" ></text>
</g>
<g >
<title>iflib_rxeof (4,339 samples, 15.76%)</title><rect x="987.5" y="277" width="185.9" height="15.0" fill="rgb(228,217,36)" rx="2" ry="2" />
<text  x="990.46" y="287.5" >iflib_rxeof</text>
</g>
<g >
<title>ip_tryforward (276 samples, 1.00%)</title><rect x="1178.2" y="197" width="11.8" height="15.0" fill="rgb(220,140,10)" rx="2" ry="2" />
<text  x="1181.17" y="207.5" ></text>
</g>
<g >
<title>iflib_rxeof (1,326 samples, 4.81%)</title><rect x="18.0" y="261" width="56.8" height="15.0" fill="rgb(249,47,2)" rx="2" ry="2" />
<text  x="21.01" y="271.5" >iflib_..</text>
</g>
<g >
<title>ixl_isc_txd_credits_update_hwb (128 samples, 0.46%)</title><rect x="988.0" y="37" width="5.5" height="15.0" fill="rgb(226,111,0)" rx="2" ry="2" />
<text  x="991.02" y="47.5" ></text>
</g>
<g >
<title>m_pkthdr_init (43 samples, 0.16%)</title><rect x="825.4" y="197" width="1.8" height="15.0" fill="rgb(235,177,26)" rx="2" ry="2" />
<text  x="828.37" y="207.5" ></text>
</g>
<g >
<title>netisr_dispatch_src (2,903 samples, 10.54%)</title><rect x="863.1" y="197" width="124.4" height="15.0" fill="rgb(226,119,53)" rx="2" ry="2" />
<text  x="866.08" y="207.5" >netisr_dispatch..</text>
</g>
<g >
<title>ether_nh_input (15,411 samples, 55.96%)</title><rect x="146.8" y="165" width="660.3" height="15.0" fill="rgb(206,17,28)" rx="2" ry="2" />
<text  x="149.81" y="175.5" >ether_nh_input</text>
</g>
<g >
<title>ether_output_frame (2,903 samples, 10.54%)</title><rect x="863.1" y="85" width="124.4" height="15.0" fill="rgb(217,4,7)" rx="2" ry="2" />
<text  x="866.08" y="95.5" >ether_output_fr..</text>
</g>
<g >
<title>rxd_frag_to_sd (407 samples, 1.48%)</title><rect x="828.6" y="197" width="17.5" height="15.0" fill="rgb(209,52,40)" rx="2" ry="2" />
<text  x="831.63" y="207.5" ></text>
</g>
<g >
<title>ip_input (15,176 samples, 55.11%)</title><rect x="154.7" y="117" width="650.2" height="15.0" fill="rgb(229,169,10)" rx="2" ry="2" />
<text  x="157.65" y="127.5" >ip_input</text>
</g>
<g >
<title>pmc_process_samples (52 samples, 0.19%)</title><rect x="1175.9" y="197" width="2.3" height="15.0" fill="rgb(224,93,15)" rx="2" ry="2" />
<text  x="1178.95" y="207.5" ></text>
</g>
<g >
<title>ip_input (382 samples, 1.39%)</title><rect x="846.7" y="149" width="16.4" height="15.0" fill="rgb(248,8,32)" rx="2" ry="2" />
<text  x="849.71" y="159.5" ></text>
</g>
<g >
<title>hardclock (52 samples, 0.19%)</title><rect x="1175.9" y="229" width="2.3" height="15.0" fill="rgb(225,100,48)" rx="2" ry="2" />
<text  x="1178.95" y="239.5" ></text>
</g>
<g >
<title>drain_ring_lockless (2,903 samples, 10.54%)</title><rect x="863.1" y="37" width="124.4" height="15.0" fill="rgb(235,110,46)" rx="2" ry="2" />
<text  x="866.08" y="47.5" >drain_ring_lock..</text>
</g>
<g >
<title>ether_nh_input (382 samples, 1.39%)</title><rect x="846.7" y="197" width="16.4" height="15.0" fill="rgb(242,185,20)" rx="2" ry="2" />
<text  x="849.71" y="207.5" ></text>
</g>
<g >
<title>ip_tryforward (382 samples, 1.39%)</title><rect x="846.7" y="133" width="16.4" height="15.0" fill="rgb(234,174,7)" rx="2" ry="2" />
<text  x="849.71" y="143.5" ></text>
</g>
<g >
<title>netisr_dispatch_src (382 samples, 1.39%)</title><rect x="846.7" y="165" width="16.4" height="15.0" fill="rgb(210,206,15)" rx="2" ry="2" />
<text  x="849.71" y="175.5" ></text>
</g>
<g >
<title>ether_input (1,326 samples, 4.81%)</title><rect x="18.0" y="245" width="56.8" height="15.0" fill="rgb(249,85,7)" rx="2" ry="2" />
<text  x="21.01" y="255.5" >ether_..</text>
</g>
<g >
<title>gtaskqueue_run_locked (382 samples, 1.39%)</title><rect x="846.7" y="277" width="16.4" height="15.0" fill="rgb(230,160,54)" rx="2" ry="2" />
<text  x="849.71" y="287.5" ></text>
</g>
<g >
<title>ether_output (1,326 samples, 4.81%)</title><rect x="18.0" y="133" width="56.8" height="15.0" fill="rgb(226,111,37)" rx="2" ry="2" />
<text  x="21.01" y="143.5" >ether_..</text>
</g>
<g >
<title>bus_dmamap_load_mbuf_sg (287 samples, 1.04%)</title><rect x="76.4" y="53" width="12.3" height="15.0" fill="rgb(207,52,33)" rx="2" ry="2" />
<text  x="79.41" y="63.5" ></text>
</g>
<g >
<title>sleepq_lock (808 samples, 2.93%)</title><rect x="101.5" y="181" width="34.6" height="15.0" fill="rgb(247,33,30)" rx="2" ry="2" />
<text  x="104.52" y="191.5" >sl..</text>
</g>
<g >
<title>iflib_txd_db_check (469 samples, 1.70%)</title><rect x="54.7" y="37" width="20.1" height="15.0" fill="rgb(232,17,25)" rx="2" ry="2" />
<text  x="57.73" y="47.5" ></text>
</g>
<g >
<title>timercb (52 samples, 0.19%)</title><rect x="1175.9" y="261" width="2.3" height="15.0" fill="rgb(219,34,13)" rx="2" ry="2" />
<text  x="1178.95" y="271.5" ></text>
</g>
<g >
<title>m_adj (9 samples, 0.03%)</title><rect x="804.9" y="149" width="0.4" height="15.0" fill="rgb(246,115,51)" rx="2" ry="2" />
<text  x="807.89" y="159.5" ></text>
</g>
<g >
<title>ixl_isc_rxd_pkt_get (194 samples, 0.70%)</title><rect x="817.1" y="197" width="8.3" height="15.0" fill="rgb(241,143,29)" rx="2" ry="2" />
<text  x="820.06" y="207.5" ></text>
</g>
<g >
<title>iflib_if_transmit (362 samples, 1.31%)</title><rect x="742.5" y="53" width="15.5" height="15.0" fill="rgb(251,23,16)" rx="2" ry="2" />
<text  x="745.47" y="63.5" ></text>
</g>
<g >
<title>ether_output_frame (4,326 samples, 15.71%)</title><rect x="988.0" y="133" width="185.4" height="15.0" fill="rgb(249,154,12)" rx="2" ry="2" />
<text  x="991.02" y="143.5" >ether_output_frame</text>
</g>
<g >
<title>iflib_fl_refill (196 samples, 0.71%)</title><rect x="807.6" y="197" width="8.4" height="15.0" fill="rgb(251,126,42)" rx="2" ry="2" />
<text  x="810.59" y="207.5" ></text>
</g>
<g >
<title>fork_exit (17,654 samples, 64.10%)</title><rect x="90.3" y="277" width="756.4" height="15.0" fill="rgb(218,89,28)" rx="2" ry="2" />
<text  x="93.29" y="287.5" >fork_exit</text>
</g>
<g >
<title>fib4_lookup (226 samples, 0.82%)</title><rect x="795.2" y="69" width="9.7" height="15.0" fill="rgb(216,180,23)" rx="2" ry="2" />
<text  x="798.21" y="79.5" ></text>
</g>
<g >
<title>iflib_txq_drain (276 samples, 1.00%)</title><rect x="1178.2" y="101" width="11.8" height="15.0" fill="rgb(219,19,35)" rx="2" ry="2" />
<text  x="1181.17" y="111.5" ></text>
</g>
<g >
<title>ether_output (2,903 samples, 10.54%)</title><rect x="863.1" y="101" width="124.4" height="15.0" fill="rgb(245,100,26)" rx="2" ry="2" />
<text  x="866.08" y="111.5" >ether_output</text>
</g>
<g >
<title>iflib_completed_tx_reclaim (37 samples, 0.13%)</title><rect x="88.7" y="101" width="1.6" height="15.0" fill="rgb(211,101,39)" rx="2" ry="2" />
<text  x="91.71" y="111.5" ></text>
</g>
<g >
<title>_epoch_enter_preempt (54 samples, 0.20%)</title><rect x="98.6" y="229" width="2.3" height="15.0" fill="rgb(209,79,32)" rx="2" ry="2" />
<text  x="101.61" y="239.5" ></text>
</g>
<g >
<title>drain_ring_lockless (324 samples, 1.18%)</title><rect x="74.8" y="101" width="13.9" height="15.0" fill="rgb(236,46,26)" rx="2" ry="2" />
<text  x="77.83" y="111.5" ></text>
</g>
<g >
<title>ip_tryforward (1,326 samples, 4.81%)</title><rect x="18.0" y="149" width="56.8" height="15.0" fill="rgb(243,174,34)" rx="2" ry="2" />
<text  x="21.01" y="159.5" >ip_try..</text>
</g>
<g >
<title>ether_output_frame (37 samples, 0.13%)</title><rect x="88.7" y="181" width="1.6" height="15.0" fill="rgb(246,133,48)" rx="2" ry="2" />
<text  x="91.71" y="191.5" ></text>
</g>
<g >
<title>intr_execute_handlers (60 samples, 0.22%)</title><rect x="1173.4" y="277" width="2.5" height="15.0" fill="rgb(230,110,47)" rx="2" ry="2" />
<text  x="1176.38" y="287.5" ></text>
</g>
<g >
<title>ip_input (2,903 samples, 10.54%)</title><rect x="863.1" y="133" width="124.4" height="15.0" fill="rgb(226,146,37)" rx="2" ry="2" />
<text  x="866.08" y="143.5" >ip_input</text>
</g>
<g >
<title>ether_demux (1,326 samples, 4.81%)</title><rect x="18.0" y="197" width="56.8" height="15.0" fill="rgb(231,43,40)" rx="2" ry="2" />
<text  x="21.01" y="207.5" >ether_..</text>
</g>
<g >
<title>drain_ring_lockless (1,326 samples, 4.81%)</title><rect x="18.0" y="69" width="56.8" height="15.0" fill="rgb(238,7,12)" rx="2" ry="2" />
<text  x="21.01" y="79.5" >drain_..</text>
</g>
<g >
<title>iflib_txq_drain (1,326 samples, 4.81%)</title><rect x="18.0" y="53" width="56.8" height="15.0" fill="rgb(246,43,11)" rx="2" ry="2" />
<text  x="21.01" y="63.5" >iflib_..</text>
</g>
<g >
<title>ifmp_ring_enqueue (324 samples, 1.18%)</title><rect x="74.8" y="117" width="13.9" height="15.0" fill="rgb(216,175,4)" rx="2" ry="2" />
<text  x="77.83" y="127.5" ></text>
</g>
<g >
<title>Xapic_isr1 (187 samples, 0.68%)</title><rect x="10.0" y="277" width="8.0" height="15.0" fill="rgb(252,80,13)" rx="2" ry="2" />
<text  x="13.00" y="287.5" ></text>
</g>
<g >
<title>netisr_dispatch_src (4,326 samples, 15.71%)</title><rect x="988.0" y="245" width="185.4" height="15.0" fill="rgb(242,103,31)" rx="2" ry="2" />
<text  x="991.02" y="255.5" >netisr_dispatch_src</text>
</g>
<g >
<title>ip_input (276 samples, 1.00%)</title><rect x="1178.2" y="213" width="11.8" height="15.0" fill="rgb(224,153,46)" rx="2" ry="2" />
<text  x="1181.17" y="223.5" ></text>
</g>
<g >
<title>netisr_dispatch_src (1,326 samples, 4.81%)</title><rect x="18.0" y="229" width="56.8" height="15.0" fill="rgb(209,180,21)" rx="2" ry="2" />
<text  x="21.01" y="239.5" >netisr..</text>
</g>
<g >
<title>m_freem (13 samples, 0.05%)</title><rect x="993.5" y="37" width="0.6" height="15.0" fill="rgb(226,48,34)" rx="2" ry="2" />
<text  x="996.50" y="47.5" ></text>
</g>
<g >
<title>ether_nh_input (276 samples, 1.00%)</title><rect x="1178.2" y="261" width="11.8" height="15.0" fill="rgb(237,68,7)" rx="2" ry="2" />
<text  x="1181.17" y="271.5" ></text>
</g>
<g >
<title>ifmp_ring_enqueue (1,326 samples, 4.81%)</title><rect x="18.0" y="85" width="56.8" height="15.0" fill="rgb(231,15,52)" rx="2" ry="2" />
<text  x="21.01" y="95.5" >ifmp_r..</text>
</g>
<g >
<title>iflib_encap (3,820 samples, 13.87%)</title><rect x="994.1" y="53" width="163.6" height="15.0" fill="rgb(216,186,53)" rx="2" ry="2" />
<text  x="997.06" y="63.5" >iflib_encap</text>
</g>
</g>
</svg>
