<?xml version="1.0" standalone="no"?>
<!DOCTYPE svg PUBLIC "-//W3C//DTD SVG 1.1//EN" "http://www.w3.org/Graphics/SVG/1.1/DTD/svg11.dtd">
<svg version="1.1" width="1200" height="342" onload="init(evt)" viewBox="0 0 1200 342" xmlns="http://www.w3.org/2000/svg" xmlns:xlink="http://www.w3.org/1999/xlink">
<!-- Flame graph stack visualization. See https://github.com/brendangregg/FlameGraph for latest version, and http://www.brendangregg.com/flamegraphs.html for examples. -->
<!-- NOTES:  -->
<defs>
	<linearGradient id="background" y1="0" y2="1" x1="0" x2="0" >
		<stop stop-color="#eeeeee" offset="5%" />
		<stop stop-color="#eeeeb0" offset="95%" />
	</linearGradient>
</defs>
<style type="text/css">
	text { font-family:Verdana; font-size:12px; fill:rgb(0,0,0); }
	#search, #ignorecase { opacity:0.1; cursor:pointer; }
	#search:hover, #search.show, #ignorecase:hover, #ignorecase.show { opacity:1; }
	#subtitle { text-anchor:middle; font-color:rgb(160,160,160); }
	#title { text-anchor:middle; font-size:17px}
	#unzoom { cursor:pointer; }
	#frames > *:hover { stroke:black; stroke-width:0.5; cursor:pointer; }
	.hide { display:none; }
	.parent { opacity:0.5; }
</style>
<script type="text/ecmascript">
<![CDATA[
	"use strict";
	var details, searchbtn, unzoombtn, matchedtxt, svg, searching, currentSearchTerm, ignorecase, ignorecaseBtn;
	function init(evt) {
		details = document.getElementById("details").firstChild;
		searchbtn = document.getElementById("search");
		ignorecaseBtn = document.getElementById("ignorecase");
		unzoombtn = document.getElementById("unzoom");
		matchedtxt = document.getElementById("matched");
		svg = document.getElementsByTagName("svg")[0];
		searching = 0;
		currentSearchTerm = null;

		// use GET parameters to restore a flamegraphs state.
		var params = get_params();
		if (params.x && params.y)
			zoom(find_group(document.querySelector('[x="' + params.x + '"][y="' + params.y + '"]')));
                if (params.s) search(params.s);
	}

	// event listeners
	window.addEventListener("click", function(e) {
		var target = find_group(e.target);
		if (target) {
			if (target.nodeName == "a") {
				if (e.ctrlKey === false) return;
				e.preventDefault();
			}
			if (target.classList.contains("parent")) unzoom();
			zoom(target);
			if (!document.querySelector('.parent')) {
				clearzoom();
				return;
			}

			// set parameters for zoom state
			var el = target.querySelector("rect");
			if (el && el.attributes && el.attributes.y && el.attributes._orig_x) {
				var params = get_params()
				params.x = el.attributes._orig_x.value;
				params.y = el.attributes.y.value;
				history.replaceState(null, null, parse_params(params));
			}
		}
		else if (e.target.id == "unzoom") clearzoom();
		else if (e.target.id == "search") search_prompt();
		else if (e.target.id == "ignorecase") toggle_ignorecase();
	}, false)

	// mouse-over for info
	// show
	window.addEventListener("mouseover", function(e) {
		var target = find_group(e.target);
		if (target) details.nodeValue = "Function: " + g_to_text(target);
	}, false)

	// clear
	window.addEventListener("mouseout", function(e) {
		var target = find_group(e.target);
		if (target) details.nodeValue = ' ';
	}, false)

	// ctrl-F for search
	// ctrl-I to toggle case-sensitive search
	window.addEventListener("keydown",function (e) {
		if (e.keyCode === 114 || (e.ctrlKey && e.keyCode === 70)) {
			e.preventDefault();
			search_prompt();
		}
		else if (e.ctrlKey && e.keyCode === 73) {
			e.preventDefault();
			toggle_ignorecase();
		}
	}, false)

	// functions
	function get_params() {
		var params = {};
		var paramsarr = window.location.search.substr(1).split('&');
		for (var i = 0; i < paramsarr.length; ++i) {
			var tmp = paramsarr[i].split("=");
			if (!tmp[0] || !tmp[1]) continue;
			params[tmp[0]]  = decodeURIComponent(tmp[1]);
		}
		return params;
	}
	function parse_params(params) {
		var uri = "?";
		for (var key in params) {
			uri += key + '=' + encodeURIComponent(params[key]) + '&';
		}
		if (uri.slice(-1) == "&")
			uri = uri.substring(0, uri.length - 1);
		if (uri == '?')
			uri = window.location.href.split('?')[0];
		return uri;
	}
	function find_child(node, selector) {
		var children = node.querySelectorAll(selector);
		if (children.length) return children[0];
	}
	function find_group(node) {
		var parent = node.parentElement;
		if (!parent) return;
		if (parent.id == "frames") return node;
		return find_group(parent);
	}
	function orig_save(e, attr, val) {
		if (e.attributes["_orig_" + attr] != undefined) return;
		if (e.attributes[attr] == undefined) return;
		if (val == undefined) val = e.attributes[attr].value;
		e.setAttribute("_orig_" + attr, val);
	}
	function orig_load(e, attr) {
		if (e.attributes["_orig_"+attr] == undefined) return;
		e.attributes[attr].value = e.attributes["_orig_" + attr].value;
		e.removeAttribute("_orig_"+attr);
	}
	function g_to_text(e) {
		var text = find_child(e, "title").firstChild.nodeValue;
		return (text)
	}
	function g_to_func(e) {
		var func = g_to_text(e);
		// if there's any manipulation we want to do to the function
		// name before it's searched, do it here before returning.
		return (func);
	}
	function update_text(e) {
		var r = find_child(e, "rect");
		var t = find_child(e, "text");
		var w = parseFloat(r.attributes.width.value) -3;
		var txt = find_child(e, "title").textContent.replace(/\([^(]*\)$/,"");
		t.attributes.x.value = parseFloat(r.attributes.x.value) + 3;

		// Smaller than this size won't fit anything
		if (w < 2 * 12 * 0.59) {
			t.textContent = "";
			return;
		}

		t.textContent = txt;
		// Fit in full text width
		if (/^ *$/.test(txt) || t.getSubStringLength(0, txt.length) < w)
			return;

		for (var x = txt.length - 2; x > 0; x--) {
			if (t.getSubStringLength(0, x + 2) <= w) {
				t.textContent = txt.substring(0, x) + "..";
				return;
			}
		}
		t.textContent = "";
	}

	// zoom
	function zoom_reset(e) {
		if (e.attributes != undefined) {
			orig_load(e, "x");
			orig_load(e, "width");
		}
		if (e.childNodes == undefined) return;
		for (var i = 0, c = e.childNodes; i < c.length; i++) {
			zoom_reset(c[i]);
		}
	}
	function zoom_child(e, x, ratio) {
		if (e.attributes != undefined) {
			if (e.attributes.x != undefined) {
				orig_save(e, "x");
				e.attributes.x.value = (parseFloat(e.attributes.x.value) - x - 10) * ratio + 10;
				if (e.tagName == "text")
					e.attributes.x.value = find_child(e.parentNode, "rect[x]").attributes.x.value + 3;
			}
			if (e.attributes.width != undefined) {
				orig_save(e, "width");
				e.attributes.width.value = parseFloat(e.attributes.width.value) * ratio;
			}
		}

		if (e.childNodes == undefined) return;
		for (var i = 0, c = e.childNodes; i < c.length; i++) {
			zoom_child(c[i], x - 10, ratio);
		}
	}
	function zoom_parent(e) {
		if (e.attributes) {
			if (e.attributes.x != undefined) {
				orig_save(e, "x");
				e.attributes.x.value = 10;
			}
			if (e.attributes.width != undefined) {
				orig_save(e, "width");
				e.attributes.width.value = parseInt(svg.width.baseVal.value) - (10 * 2);
			}
		}
		if (e.childNodes == undefined) return;
		for (var i = 0, c = e.childNodes; i < c.length; i++) {
			zoom_parent(c[i]);
		}
	}
	function zoom(node) {
		var attr = find_child(node, "rect").attributes;
		var width = parseFloat(attr.width.value);
		var xmin = parseFloat(attr.x.value);
		var xmax = parseFloat(xmin + width);
		var ymin = parseFloat(attr.y.value);
		var ratio = (svg.width.baseVal.value - 2 * 10) / width;

		// XXX: Workaround for JavaScript float issues (fix me)
		var fudge = 0.0001;

		unzoombtn.classList.remove("hide");

		var el = document.getElementById("frames").children;
		for (var i = 0; i < el.length; i++) {
			var e = el[i];
			var a = find_child(e, "rect").attributes;
			var ex = parseFloat(a.x.value);
			var ew = parseFloat(a.width.value);
			var upstack;
			// Is it an ancestor
			if (0 == 0) {
				upstack = parseFloat(a.y.value) > ymin;
			} else {
				upstack = parseFloat(a.y.value) < ymin;
			}
			if (upstack) {
				// Direct ancestor
				if (ex <= xmin && (ex+ew+fudge) >= xmax) {
					e.classList.add("parent");
					zoom_parent(e);
					update_text(e);
				}
				// not in current path
				else
					e.classList.add("hide");
			}
			// Children maybe
			else {
				// no common path
				if (ex < xmin || ex + fudge >= xmax) {
					e.classList.add("hide");
				}
				else {
					zoom_child(e, xmin, ratio);
					update_text(e);
				}
			}
		}
		search();
	}
	function unzoom() {
		unzoombtn.classList.add("hide");
		var el = document.getElementById("frames").children;
		for(var i = 0; i < el.length; i++) {
			el[i].classList.remove("parent");
			el[i].classList.remove("hide");
			zoom_reset(el[i]);
			update_text(el[i]);
		}
		search();
	}
	function clearzoom() {
		unzoom();

		// remove zoom state
		var params = get_params();
		if (params.x) delete params.x;
		if (params.y) delete params.y;
		history.replaceState(null, null, parse_params(params));
	}

	// search
	function toggle_ignorecase() {
		ignorecase = !ignorecase;
		if (ignorecase) {
			ignorecaseBtn.classList.add("show");
		} else {
			ignorecaseBtn.classList.remove("show");
		}
		reset_search();
		search();
	}
	function reset_search() {
		var el = document.querySelectorAll("#frames rect");
		for (var i = 0; i < el.length; i++) {
			orig_load(el[i], "fill")
		}
		var params = get_params();
		delete params.s;
		history.replaceState(null, null, parse_params(params));
	}
	function search_prompt() {
		if (!searching) {
			var term = prompt("Enter a search term (regexp " +
			    "allowed, eg: ^ext4_)"
			    + (ignorecase ? ", ignoring case" : "")
			    + "\nPress Ctrl-i to toggle case sensitivity", "");
			if (term != null) search(term);
		} else {
			reset_search();
			searching = 0;
			currentSearchTerm = null;
			searchbtn.classList.remove("show");
			searchbtn.firstChild.nodeValue = "Search"
			matchedtxt.classList.add("hide");
			matchedtxt.firstChild.nodeValue = ""
		}
	}
	function search(term) {
		if (term) currentSearchTerm = term;

		var re = new RegExp(currentSearchTerm, ignorecase ? 'i' : '');
		var el = document.getElementById("frames").children;
		var matches = new Object();
		var maxwidth = 0;
		for (var i = 0; i < el.length; i++) {
			var e = el[i];
			var func = g_to_func(e);
			var rect = find_child(e, "rect");
			if (func == null || rect == null)
				continue;

			// Save max width. Only works as we have a root frame
			var w = parseFloat(rect.attributes.width.value);
			if (w > maxwidth)
				maxwidth = w;

			if (func.match(re)) {
				// highlight
				var x = parseFloat(rect.attributes.x.value);
				orig_save(rect, "fill");
				rect.attributes.fill.value = "rgb(230,0,230)";

				// remember matches
				if (matches[x] == undefined) {
					matches[x] = w;
				} else {
					if (w > matches[x]) {
						// overwrite with parent
						matches[x] = w;
					}
				}
				searching = 1;
			}
		}
		if (!searching)
			return;
		var params = get_params();
		params.s = currentSearchTerm;
		history.replaceState(null, null, parse_params(params));

		searchbtn.classList.add("show");
		searchbtn.firstChild.nodeValue = "Reset Search";

		// calculate percent matched, excluding vertical overlap
		var count = 0;
		var lastx = -1;
		var lastw = 0;
		var keys = Array();
		for (k in matches) {
			if (matches.hasOwnProperty(k))
				keys.push(k);
		}
		// sort the matched frames by their x location
		// ascending, then width descending
		keys.sort(function(a, b){
			return a - b;
		});
		// Step through frames saving only the biggest bottom-up frames
		// thanks to the sort order. This relies on the tree property
		// where children are always smaller than their parents.
		var fudge = 0.0001;	// JavaScript floating point
		for (var k in keys) {
			var x = parseFloat(keys[k]);
			var w = matches[keys[k]];
			if (x >= lastx + lastw - fudge) {
				count += w;
				lastx = x;
				lastw = w;
			}
		}
		// display matched percent
		matchedtxt.classList.remove("hide");
		var pct = 100 * count / maxwidth;
		if (pct != 100) pct = pct.toFixed(1)
		matchedtxt.firstChild.nodeValue = "Matched: " + pct + "%";
	}
]]>
</script>
<rect x="0.0" y="0" width="1200.0" height="342.0" fill="url(#background)"  />
<text id="title" x="600.00" y="24" >Flame Graph</text>
<text id="details" x="10.00" y="325" > </text>
<text id="unzoom" x="10.00" y="24" class="hide">Reset Zoom</text>
<text id="search" x="1090.00" y="24" >Search</text>
<text id="ignorecase" x="1174.00" y="24" >ic</text>
<text id="matched" x="1090.00" y="325" > </text>
<g id="frames">
<g >
<title>netisr_dispatch_src (655 samples, 2.54%)</title><rect x="871.5" y="213" width="29.9" height="15.0" fill="rgb(221,26,18)" rx="2" ry="2" />
<text  x="874.45" y="223.5" >ne..</text>
</g>
<g >
<title>ip6_input (348 samples, 1.35%)</title><rect x="69.3" y="197" width="15.9" height="15.0" fill="rgb(220,101,32)" rx="2" ry="2" />
<text  x="72.28" y="207.5" ></text>
</g>
<g >
<title>ether_output (348 samples, 1.35%)</title><rect x="69.3" y="165" width="15.9" height="15.0" fill="rgb(242,180,31)" rx="2" ry="2" />
<text  x="72.28" y="175.5" ></text>
</g>
<g >
<title>iflib_txq_drain (351 samples, 1.36%)</title><rect x="1174.0" y="101" width="16.0" height="15.0" fill="rgb(224,75,37)" rx="2" ry="2" />
<text  x="1176.96" y="111.5" ></text>
</g>
<g >
<title>m_tag_locate (12 samples, 0.05%)</title><rect x="840.6" y="53" width="0.6" height="15.0" fill="rgb(210,169,4)" rx="2" ry="2" />
<text  x="843.60" y="63.5" ></text>
</g>
<g >
<title>gtaskqueue_thread_loop (2,148 samples, 8.32%)</title><rect x="901.4" y="277" width="98.2" height="15.0" fill="rgb(238,160,36)" rx="2" ry="2" />
<text  x="904.39" y="287.5" >gtaskqueue_..</text>
</g>
<g >
<title>iflib_encap (348 samples, 1.35%)</title><rect x="69.3" y="69" width="15.9" height="15.0" fill="rgb(222,53,16)" rx="2" ry="2" />
<text  x="72.28" y="79.5" ></text>
</g>
<g >
<title>iflib_rxeof (1,098 samples, 4.25%)</title><rect x="17.3" y="261" width="50.2" height="15.0" fill="rgb(209,153,3)" rx="2" ry="2" />
<text  x="20.31" y="271.5" >iflib..</text>
</g>
<g >
<title>iflib_completed_tx_reclaim (339 samples, 1.31%)</title><rect x="20.9" y="37" width="15.5" height="15.0" fill="rgb(208,9,40)" rx="2" ry="2" />
<text  x="23.92" y="47.5" ></text>
</g>
<g >
<title>m_freem (351 samples, 1.36%)</title><rect x="1174.0" y="69" width="16.0" height="15.0" fill="rgb(245,72,0)" rx="2" ry="2" />
<text  x="1176.96" y="79.5" ></text>
</g>
<g >
<title>iflib_txq_drain (1,098 samples, 4.25%)</title><rect x="17.3" y="53" width="50.2" height="15.0" fill="rgb(232,178,14)" rx="2" ry="2" />
<text  x="20.31" y="63.5" >iflib..</text>
</g>
<g >
<title>netisr_dispatch_src (15,510 samples, 60.07%)</title><rect x="132.3" y="133" width="708.9" height="15.0" fill="rgb(213,18,12)" rx="2" ry="2" />
<text  x="135.30" y="143.5" >netisr_dispatch_src</text>
</g>
<g >
<title>gtaskqueue_thread_loop (17,135 samples, 66.37%)</title><rect x="88.3" y="261" width="783.2" height="15.0" fill="rgb(253,220,38)" rx="2" ry="2" />
<text  x="91.33" y="271.5" >gtaskqueue_thread_loop</text>
</g>
<g >
<title>ether_output (767 samples, 2.97%)</title><rect x="371.6" y="85" width="35.0" height="15.0" fill="rgb(218,111,49)" rx="2" ry="2" />
<text  x="374.55" y="95.5" >et..</text>
</g>
<g >
<title>_rm_runlock (438 samples, 1.70%)</title><rect x="486.7" y="69" width="20.0" height="15.0" fill="rgb(236,53,35)" rx="2" ry="2" />
<text  x="489.68" y="79.5" ></text>
</g>
<g >
<title>ether_demux (3,796 samples, 14.70%)</title><rect x="999.6" y="213" width="173.4" height="15.0" fill="rgb(232,87,25)" rx="2" ry="2" />
<text  x="1002.56" y="223.5" >ether_demux</text>
</g>
<g >
<title>iflib_encap (3,387 samples, 13.12%)</title><rect x="1006.4" y="53" width="154.8" height="15.0" fill="rgb(236,211,28)" rx="2" ry="2" />
<text  x="1009.37" y="63.5" >iflib_encap</text>
</g>
<g >
<title>netisr_dispatch_src (3,796 samples, 14.70%)</title><rect x="999.6" y="197" width="173.4" height="15.0" fill="rgb(228,129,39)" rx="2" ry="2" />
<text  x="1002.56" y="207.5" >netisr_dispatch_src</text>
</g>
<g >
<title>sleepq_lock (3 samples, 0.01%)</title><rect x="1173.7" y="197" width="0.2" height="15.0" fill="rgb(229,98,27)" rx="2" ry="2" />
<text  x="1176.73" y="207.5" ></text>
</g>
<g >
<title>drain_ring_lockless (3,796 samples, 14.70%)</title><rect x="999.6" y="85" width="173.4" height="15.0" fill="rgb(235,182,40)" rx="2" ry="2" />
<text  x="1002.56" y="95.5" >drain_ring_lockless</text>
</g>
<g >
<title>intr_event_handle (18 samples, 0.07%)</title><rect x="1173.0" y="261" width="0.9" height="15.0" fill="rgb(230,75,51)" rx="2" ry="2" />
<text  x="1176.04" y="271.5" ></text>
</g>
<g >
<title>iflib_txq_drain (348 samples, 1.35%)</title><rect x="69.3" y="85" width="15.9" height="15.0" fill="rgb(217,192,5)" rx="2" ry="2" />
<text  x="72.28" y="95.5" ></text>
</g>
<g >
<title>ip6_input (2,148 samples, 8.32%)</title><rect x="901.4" y="133" width="98.2" height="15.0" fill="rgb(215,161,8)" rx="2" ry="2" />
<text  x="904.39" y="143.5" >ip6_input</text>
</g>
<g >
<title>ip6_tryforward (2,148 samples, 8.32%)</title><rect x="901.4" y="117" width="98.2" height="15.0" fill="rgb(244,180,29)" rx="2" ry="2" />
<text  x="904.39" y="127.5" >ip6_tryforw..</text>
</g>
<g >
<title>ip6_tryforward (348 samples, 1.35%)</title><rect x="69.3" y="181" width="15.9" height="15.0" fill="rgb(242,199,32)" rx="2" ry="2" />
<text  x="72.28" y="191.5" ></text>
</g>
<g >
<title>memcpy_erms (247 samples, 0.96%)</title><rect x="395.3" y="69" width="11.3" height="15.0" fill="rgb(251,125,30)" rx="2" ry="2" />
<text  x="398.32" y="79.5" ></text>
</g>
<g >
<title>ip6_tryforward (1,098 samples, 4.25%)</title><rect x="17.3" y="149" width="50.2" height="15.0" fill="rgb(212,196,34)" rx="2" ry="2" />
<text  x="20.31" y="159.5" >ip6_t..</text>
</g>
<g >
<title>ipfw_check_packet (4,019 samples, 15.57%)</title><rect x="601.9" y="69" width="183.7" height="15.0" fill="rgb(250,120,13)" rx="2" ry="2" />
<text  x="604.90" y="79.5" >ipfw_check_packet</text>
</g>
<g >
<title>gtaskqueue_run_locked (17,135 samples, 66.37%)</title><rect x="88.3" y="245" width="783.2" height="15.0" fill="rgb(248,169,40)" rx="2" ry="2" />
<text  x="91.33" y="255.5" >gtaskqueue_run_locked</text>
</g>
<g >
<title>ether_output_frame (3,796 samples, 14.70%)</title><rect x="999.6" y="133" width="173.4" height="15.0" fill="rgb(241,116,27)" rx="2" ry="2" />
<text  x="1002.56" y="143.5" >ether_output_frame</text>
</g>
<g >
<title>lradix6_lookup (311 samples, 1.20%)</title><rect x="506.7" y="53" width="14.2" height="15.0" fill="rgb(242,27,4)" rx="2" ry="2" />
<text  x="509.70" y="63.5" ></text>
</g>
<g >
<title>ip6_tryforward (655 samples, 2.54%)</title><rect x="871.5" y="133" width="29.9" height="15.0" fill="rgb(244,21,38)" rx="2" ry="2" />
<text  x="874.45" y="143.5" >ip..</text>
</g>
<g >
<title>m_tag_locate (37 samples, 0.14%)</title><rect x="783.9" y="53" width="1.7" height="15.0" fill="rgb(249,50,0)" rx="2" ry="2" />
<text  x="786.89" y="63.5" ></text>
</g>
<g >
<title>ether_input (348 samples, 1.35%)</title><rect x="69.3" y="277" width="15.9" height="15.0" fill="rgb(222,223,24)" rx="2" ry="2" />
<text  x="72.28" y="287.5" ></text>
</g>
<g >
<title>netisr_dispatch_src (15,532 samples, 60.16%)</title><rect x="131.3" y="181" width="709.9" height="15.0" fill="rgb(236,43,9)" rx="2" ry="2" />
<text  x="134.30" y="191.5" >netisr_dispatch_src</text>
</g>
<g >
<title>ifmp_ring_enqueue (69 samples, 0.27%)</title><rect x="85.2" y="149" width="3.1" height="15.0" fill="rgb(245,218,9)" rx="2" ry="2" />
<text  x="88.18" y="159.5" ></text>
</g>
<g >
<title>uma_zfree_arg (277 samples, 1.07%)</title><rect x="1177.3" y="37" width="12.7" height="15.0" fill="rgb(210,165,26)" rx="2" ry="2" />
<text  x="1180.34" y="47.5" ></text>
</g>
<g >
<title>ether_nh_input (15,510 samples, 60.07%)</title><rect x="132.3" y="165" width="708.9" height="15.0" fill="rgb(223,74,6)" rx="2" ry="2" />
<text  x="135.30" y="175.5" >ether_nh_input</text>
</g>
<g >
<title>in6_localip (2,190 samples, 8.48%)</title><rect x="406.6" y="85" width="100.1" height="15.0" fill="rgb(250,170,18)" rx="2" ry="2" />
<text  x="409.61" y="95.5" >in6_localip</text>
</g>
<g >
<title>spinlock_exit (3 samples, 0.01%)</title><rect x="1173.6" y="213" width="0.1" height="15.0" fill="rgb(251,22,28)" rx="2" ry="2" />
<text  x="1176.59" y="223.5" ></text>
</g>
<g >
<title>ipfw_chk (1,162 samples, 4.50%)</title><rect x="787.5" y="53" width="53.1" height="15.0" fill="rgb(216,71,9)" rx="2" ry="2" />
<text  x="790.50" y="63.5" >ipfw_..</text>
</g>
<g >
<title>ether_demux (655 samples, 2.54%)</title><rect x="871.5" y="181" width="29.9" height="15.0" fill="rgb(213,81,22)" rx="2" ry="2" />
<text  x="874.45" y="191.5" >et..</text>
</g>
<g >
<title>spinlock_enter (86 samples, 0.33%)</title><rect x="119.3" y="165" width="3.9" height="15.0" fill="rgb(225,186,28)" rx="2" ry="2" />
<text  x="122.28" y="175.5" ></text>
</g>
<g >
<title>ether_output_frame (402 samples, 1.56%)</title><rect x="376.9" y="69" width="18.4" height="15.0" fill="rgb(217,51,14)" rx="2" ry="2" />
<text  x="379.95" y="79.5" ></text>
</g>
<g >
<title>ip6_input (655 samples, 2.54%)</title><rect x="871.5" y="149" width="29.9" height="15.0" fill="rgb(218,160,16)" rx="2" ry="2" />
<text  x="874.45" y="159.5" >ip..</text>
</g>
<g >
<title>_task_fn_rx (2,148 samples, 8.32%)</title><rect x="901.4" y="245" width="98.2" height="15.0" fill="rgb(225,43,12)" rx="2" ry="2" />
<text  x="904.39" y="255.5" >_task_fn_rx</text>
</g>
<g >
<title>pfil_mbuf_out (1,216 samples, 4.71%)</title><rect x="785.6" y="85" width="55.6" height="15.0" fill="rgb(220,74,14)" rx="2" ry="2" />
<text  x="788.58" y="95.5" >pfil_..</text>
</g>
<g >
<title>mb_dtor_mbuf (66 samples, 0.26%)</title><rect x="85.2" y="37" width="3.0" height="15.0" fill="rgb(209,38,10)" rx="2" ry="2" />
<text  x="88.18" y="47.5" ></text>
</g>
<g >
<title>_task_fn_rx (17,065 samples, 66.09%)</title><rect x="90.6" y="229" width="779.9" height="15.0" fill="rgb(250,152,16)" rx="2" ry="2" />
<text  x="93.62" y="239.5" >_task_fn_rx</text>
</g>
<g >
<title>ether_demux (69 samples, 0.27%)</title><rect x="85.2" y="261" width="3.1" height="15.0" fill="rgb(233,169,16)" rx="2" ry="2" />
<text  x="88.18" y="271.5" ></text>
</g>
<g >
<title>iflib_if_transmit (655 samples, 2.54%)</title><rect x="871.5" y="85" width="29.9" height="15.0" fill="rgb(231,16,47)" rx="2" ry="2" />
<text  x="874.45" y="95.5" >if..</text>
</g>
<g >
<title>ether_input (2,148 samples, 8.32%)</title><rect x="901.4" y="213" width="98.2" height="15.0" fill="rgb(242,149,30)" rx="2" ry="2" />
<text  x="904.39" y="223.5" >ether_input</text>
</g>
<g >
<title>ether_demux (15,510 samples, 60.07%)</title><rect x="132.3" y="149" width="708.9" height="15.0" fill="rgb(251,56,17)" rx="2" ry="2" />
<text  x="135.30" y="159.5" >ether_demux</text>
</g>
<g >
<title>pfil_mbuf_in (5,791 samples, 22.43%)</title><rect x="520.9" y="85" width="264.7" height="15.0" fill="rgb(233,85,3)" rx="2" ry="2" />
<text  x="523.91" y="95.5" >pfil_mbuf_in</text>
</g>
<g >
<title>iflib_fl_refill (165 samples, 0.64%)</title><rect x="841.2" y="197" width="7.5" height="15.0" fill="rgb(254,53,39)" rx="2" ry="2" />
<text  x="844.20" y="207.5" ></text>
</g>
<g >
<title>ip6_tryforward (69 samples, 0.27%)</title><rect x="85.2" y="213" width="3.1" height="15.0" fill="rgb(214,207,23)" rx="2" ry="2" />
<text  x="88.18" y="223.5" ></text>
</g>
<g >
<title>ip6_input (1,098 samples, 4.25%)</title><rect x="17.3" y="165" width="50.2" height="15.0" fill="rgb(208,55,40)" rx="2" ry="2" />
<text  x="20.31" y="175.5" >ip6_i..</text>
</g>
<g >
<title>all (25,819 samples, 100%)</title><rect x="10.0" y="293" width="1180.0" height="15.0" fill="rgb(222,96,13)" rx="2" ry="2" />
<text  x="13.00" y="303.5" ></text>
</g>
<g >
<title>_rm_runlock (13 samples, 0.05%)</title><rect x="840.0" y="37" width="0.6" height="15.0" fill="rgb(210,166,46)" rx="2" ry="2" />
<text  x="843.01" y="47.5" ></text>
</g>
<g >
<title>bus_dmamap_load_mbuf_sg (348 samples, 1.35%)</title><rect x="69.3" y="53" width="15.9" height="15.0" fill="rgb(235,140,23)" rx="2" ry="2" />
<text  x="72.28" y="63.5" ></text>
</g>
<g >
<title>ether_output (3,796 samples, 14.70%)</title><rect x="999.6" y="149" width="173.4" height="15.0" fill="rgb(222,217,46)" rx="2" ry="2" />
<text  x="1002.56" y="159.5" >ether_output</text>
</g>
<g >
<title>iflib_txq_drain (655 samples, 2.54%)</title><rect x="871.5" y="37" width="29.9" height="15.0" fill="rgb(245,172,4)" rx="2" ry="2" />
<text  x="874.45" y="47.5" >if..</text>
</g>
<g >
<title>sleepq_lock (13 samples, 0.05%)</title><rect x="870.9" y="213" width="0.6" height="15.0" fill="rgb(246,148,30)" rx="2" ry="2" />
<text  x="873.86" y="223.5" ></text>
</g>
<g >
<title>ether_nh_input (351 samples, 1.36%)</title><rect x="1174.0" y="261" width="16.0" height="15.0" fill="rgb(228,90,28)" rx="2" ry="2" />
<text  x="1176.96" y="271.5" ></text>
</g>
<g >
<title>iflib_txq_drain (69 samples, 0.27%)</title><rect x="85.2" y="117" width="3.1" height="15.0" fill="rgb(228,54,31)" rx="2" ry="2" />
<text  x="88.18" y="127.5" ></text>
</g>
<g >
<title>_rm_rlock (75 samples, 0.29%)</title><rect x="836.6" y="37" width="3.4" height="15.0" fill="rgb(210,118,28)" rx="2" ry="2" />
<text  x="839.58" y="47.5" ></text>
</g>
<g >
<title>netisr_dispatch_src (348 samples, 1.35%)</title><rect x="69.3" y="213" width="15.9" height="15.0" fill="rgb(241,161,46)" rx="2" ry="2" />
<text  x="72.28" y="223.5" ></text>
</g>
<g >
<title>ether_nh_input (3,796 samples, 14.70%)</title><rect x="999.6" y="229" width="173.4" height="15.0" fill="rgb(227,108,8)" rx="2" ry="2" />
<text  x="1002.56" y="239.5" >ether_nh_input</text>
</g>
<g >
<title>ifmp_ring_enqueue (655 samples, 2.54%)</title><rect x="871.5" y="69" width="29.9" height="15.0" fill="rgb(234,164,30)" rx="2" ry="2" />
<text  x="874.45" y="79.5" >if..</text>
</g>
<g >
<title>iflib_if_transmit (3,796 samples, 14.70%)</title><rect x="999.6" y="117" width="173.4" height="15.0" fill="rgb(222,102,45)" rx="2" ry="2" />
<text  x="1002.56" y="127.5" >iflib_if_transmit</text>
</g>
<g >
<title>drain_ring_lockless (2,148 samples, 8.32%)</title><rect x="901.4" y="37" width="98.2" height="15.0" fill="rgb(227,112,7)" rx="2" ry="2" />
<text  x="904.39" y="47.5" >drain_ring_..</text>
</g>
<g >
<title>ip6_input (69 samples, 0.27%)</title><rect x="85.2" y="229" width="3.1" height="15.0" fill="rgb(239,134,36)" rx="2" ry="2" />
<text  x="88.18" y="239.5" ></text>
</g>
<g >
<title>drain_ring_lockless (69 samples, 0.27%)</title><rect x="85.2" y="133" width="3.1" height="15.0" fill="rgb(236,179,41)" rx="2" ry="2" />
<text  x="88.18" y="143.5" ></text>
</g>
<g >
<title>ether_nh_input (69 samples, 0.27%)</title><rect x="85.2" y="277" width="3.1" height="15.0" fill="rgb(232,205,6)" rx="2" ry="2" />
<text  x="88.18" y="287.5" ></text>
</g>
<g >
<title>_rm_rlock (557 samples, 2.16%)</title><rect x="461.2" y="69" width="25.5" height="15.0" fill="rgb(234,170,44)" rx="2" ry="2" />
<text  x="464.22" y="79.5" >_..</text>
</g>
<g >
<title>ether_input (1,098 samples, 4.25%)</title><rect x="17.3" y="245" width="50.2" height="15.0" fill="rgb(217,11,35)" rx="2" ry="2" />
<text  x="20.31" y="255.5" >ether..</text>
</g>
<g >
<title>rn_match (311 samples, 1.20%)</title><rect x="506.7" y="37" width="14.2" height="15.0" fill="rgb(245,108,12)" rx="2" ry="2" />
<text  x="509.70" y="47.5" ></text>
</g>
<g >
<title>iflib_if_transmit (402 samples, 1.56%)</title><rect x="376.9" y="53" width="18.4" height="15.0" fill="rgb(241,23,2)" rx="2" ry="2" />
<text  x="379.95" y="63.5" ></text>
</g>
<g >
<title>ether_output (69 samples, 0.27%)</title><rect x="85.2" y="197" width="3.1" height="15.0" fill="rgb(244,174,53)" rx="2" ry="2" />
<text  x="88.18" y="207.5" ></text>
</g>
<g >
<title>iflib_rxeof (2,148 samples, 8.32%)</title><rect x="901.4" y="229" width="98.2" height="15.0" fill="rgb(231,8,25)" rx="2" ry="2" />
<text  x="904.39" y="239.5" >iflib_rxeof</text>
</g>
<g >
<title>ether_output_frame (1,098 samples, 4.25%)</title><rect x="17.3" y="117" width="50.2" height="15.0" fill="rgb(211,81,33)" rx="2" ry="2" />
<text  x="20.31" y="127.5" >ether..</text>
</g>
<g >
<title>spinlock_enter (6 samples, 0.02%)</title><rect x="870.5" y="229" width="0.3" height="15.0" fill="rgb(239,68,29)" rx="2" ry="2" />
<text  x="873.54" y="239.5" ></text>
</g>
<g >
<title>ether_output (351 samples, 1.36%)</title><rect x="1174.0" y="181" width="16.0" height="15.0" fill="rgb(251,132,14)" rx="2" ry="2" />
<text  x="1176.96" y="191.5" ></text>
</g>
<g >
<title>iflib_txq_drain (3,796 samples, 14.70%)</title><rect x="999.6" y="69" width="173.4" height="15.0" fill="rgb(236,49,36)" rx="2" ry="2" />
<text  x="1002.56" y="79.5" >iflib_txq_drain</text>
</g>
<g >
<title>ether_nh_input (1,098 samples, 4.25%)</title><rect x="17.3" y="213" width="50.2" height="15.0" fill="rgb(236,155,43)" rx="2" ry="2" />
<text  x="20.31" y="223.5" >ether..</text>
</g>
<g >
<title>netisr_dispatch_src (3,796 samples, 14.70%)</title><rect x="999.6" y="245" width="173.4" height="15.0" fill="rgb(222,35,5)" rx="2" ry="2" />
<text  x="1002.56" y="255.5" >netisr_dispatch_src</text>
</g>
<g >
<title>iflib_fast_intr_rxtx (18 samples, 0.07%)</title><rect x="1173.0" y="245" width="0.9" height="15.0" fill="rgb(245,189,20)" rx="2" ry="2" />
<text  x="1176.04" y="255.5" ></text>
</g>
<g >
<title>ether_output (2,148 samples, 8.32%)</title><rect x="901.4" y="101" width="98.2" height="15.0" fill="rgb(209,134,3)" rx="2" ry="2" />
<text  x="904.39" y="111.5" >ether_output</text>
</g>
<g >
<title>netisr_dispatch_src (348 samples, 1.35%)</title><rect x="69.3" y="261" width="15.9" height="15.0" fill="rgb(237,225,49)" rx="2" ry="2" />
<text  x="72.28" y="271.5" ></text>
</g>
<g >
<title>pmap_kextract (3 samples, 0.01%)</title><rect x="88.2" y="37" width="0.1" height="15.0" fill="rgb(220,104,46)" rx="2" ry="2" />
<text  x="91.20" y="47.5" ></text>
</g>
<g >
<title>iflib_rxeof (655 samples, 2.54%)</title><rect x="871.5" y="245" width="29.9" height="15.0" fill="rgb(220,87,21)" rx="2" ry="2" />
<text  x="874.45" y="255.5" >if..</text>
</g>
<g >
<title>m_free (69 samples, 0.27%)</title><rect x="85.2" y="69" width="3.1" height="15.0" fill="rgb(238,192,30)" rx="2" ry="2" />
<text  x="88.18" y="79.5" ></text>
</g>
<g >
<title>rxd_frag_to_sd (252 samples, 0.98%)</title><rect x="859.0" y="197" width="11.5" height="15.0" fill="rgb(232,196,28)" rx="2" ry="2" />
<text  x="862.02" y="207.5" ></text>
</g>
<g >
<title>ether (39 samples, 0.15%)</title><rect x="67.5" y="277" width="1.8" height="15.0" fill="rgb(252,85,42)" rx="2" ry="2" />
<text  x="70.49" y="287.5" ></text>
</g>
<g >
<title>iflib_rxeof (3,796 samples, 14.70%)</title><rect x="999.6" y="277" width="173.4" height="15.0" fill="rgb(250,40,7)" rx="2" ry="2" />
<text  x="1002.56" y="287.5" >iflib_rxeof</text>
</g>
<g >
<title>netisr_dispatch_src (2,148 samples, 8.32%)</title><rect x="901.4" y="149" width="98.2" height="15.0" fill="rgb(250,175,47)" rx="2" ry="2" />
<text  x="904.39" y="159.5" >netisr_disp..</text>
</g>
<g >
<title>grouptaskqueue_enqueue (18 samples, 0.07%)</title><rect x="1173.0" y="229" width="0.9" height="15.0" fill="rgb(222,24,1)" rx="2" ry="2" />
<text  x="1176.04" y="239.5" ></text>
</g>
<g >
<title>intr_execute_handlers (18 samples, 0.07%)</title><rect x="1173.0" y="277" width="0.9" height="15.0" fill="rgb(235,81,44)" rx="2" ry="2" />
<text  x="1176.04" y="287.5" ></text>
</g>
<g >
<title>ifmp_ring_enqueue (2,148 samples, 8.32%)</title><rect x="901.4" y="53" width="98.2" height="15.0" fill="rgb(250,61,11)" rx="2" ry="2" />
<text  x="904.39" y="63.5" >ifmp_ring_e..</text>
</g>
<g >
<title>bounce_bus_dmamap_load_buffer (343 samples, 1.33%)</title><rect x="69.3" y="37" width="15.7" height="15.0" fill="rgb(216,186,6)" rx="2" ry="2" />
<text  x="72.28" y="47.5" ></text>
</g>
<g >
<title>netisr_dispatch_src (39 samples, 0.15%)</title><rect x="67.5" y="261" width="1.8" height="15.0" fill="rgb(218,47,19)" rx="2" ry="2" />
<text  x="70.49" y="271.5" ></text>
</g>
<g >
<title>pmap_kextract (74 samples, 0.29%)</title><rect x="1174.0" y="37" width="3.3" height="15.0" fill="rgb(205,65,3)" rx="2" ry="2" />
<text  x="1176.96" y="47.5" ></text>
</g>
<g >
<title>drain_ring_lockless (655 samples, 2.54%)</title><rect x="871.5" y="53" width="29.9" height="15.0" fill="rgb(237,216,7)" rx="2" ry="2" />
<text  x="874.45" y="63.5" >dr..</text>
</g>
<g >
<title>ether_demux (348 samples, 1.35%)</title><rect x="69.3" y="229" width="15.9" height="15.0" fill="rgb(249,207,51)" rx="2" ry="2" />
<text  x="72.28" y="239.5" ></text>
</g>
<g >
<title>sleepq_lock (222 samples, 0.86%)</title><rect x="113.1" y="181" width="10.1" height="15.0" fill="rgb(218,191,46)" rx="2" ry="2" />
<text  x="116.06" y="191.5" ></text>
</g>
<g >
<title>ether_nh_input (655 samples, 2.54%)</title><rect x="871.5" y="197" width="29.9" height="15.0" fill="rgb(224,15,33)" rx="2" ry="2" />
<text  x="874.45" y="207.5" >et..</text>
</g>
<g >
<title>ether_output_frame (69 samples, 0.27%)</title><rect x="85.2" y="181" width="3.1" height="15.0" fill="rgb(210,101,54)" rx="2" ry="2" />
<text  x="88.18" y="191.5" ></text>
</g>
<g >
<title>_rm_runlock (8 samples, 0.03%)</title><rect x="783.5" y="37" width="0.4" height="15.0" fill="rgb(211,98,19)" rx="2" ry="2" />
<text  x="786.52" y="47.5" ></text>
</g>
<g >
<title>fib6_lookup (311 samples, 1.20%)</title><rect x="506.7" y="69" width="14.2" height="15.0" fill="rgb(228,109,49)" rx="2" ry="2" />
<text  x="509.70" y="79.5" ></text>
</g>
<g >
<title>wakeup (13 samples, 0.05%)</title><rect x="870.9" y="229" width="0.6" height="15.0" fill="rgb(253,37,15)" rx="2" ry="2" />
<text  x="873.86" y="239.5" ></text>
</g>
<g >
<title>ether_input (655 samples, 2.54%)</title><rect x="871.5" y="229" width="29.9" height="15.0" fill="rgb(223,100,12)" rx="2" ry="2" />
<text  x="874.45" y="239.5" >et..</text>
</g>
<g >
<title>ifmp_ring_enqueue (1,098 samples, 4.25%)</title><rect x="17.3" y="85" width="50.2" height="15.0" fill="rgb(243,186,29)" rx="2" ry="2" />
<text  x="20.31" y="95.5" >ifmp_..</text>
</g>
<g >
<title>_rm_rlock (43 samples, 0.17%)</title><rect x="781.6" y="37" width="1.9" height="15.0" fill="rgb(226,85,39)" rx="2" ry="2" />
<text  x="784.55" y="47.5" ></text>
</g>
<g >
<title>m_pkthdr_init (57 samples, 0.22%)</title><rect x="854.9" y="197" width="2.6" height="15.0" fill="rgb(220,15,41)" rx="2" ry="2" />
<text  x="857.86" y="207.5" ></text>
</g>
<g >
<title>ip6_tryforward (14,805 samples, 57.34%)</title><rect x="164.5" y="101" width="676.7" height="15.0" fill="rgb(213,182,12)" rx="2" ry="2" />
<text  x="167.52" y="111.5" >ip6_tryforward</text>
</g>
<g >
<title>wakeup_any (3 samples, 0.01%)</title><rect x="1173.7" y="213" width="0.2" height="15.0" fill="rgb(245,89,43)" rx="2" ry="2" />
<text  x="1176.73" y="223.5" ></text>
</g>
<g >
<title>netisr_dispatch_src (351 samples, 1.36%)</title><rect x="1174.0" y="277" width="16.0" height="15.0" fill="rgb(252,146,42)" rx="2" ry="2" />
<text  x="1176.96" y="287.5" ></text>
</g>
<g >
<title>iflib_txd_db_check (260 samples, 1.01%)</title><rect x="1161.2" y="53" width="11.8" height="15.0" fill="rgb(231,183,41)" rx="2" ry="2" />
<text  x="1164.16" y="63.5" ></text>
</g>
<g >
<title>uma_zfree_arg (69 samples, 0.27%)</title><rect x="85.2" y="53" width="3.1" height="15.0" fill="rgb(241,152,16)" rx="2" ry="2" />
<text  x="88.18" y="63.5" ></text>
</g>
<g >
<title>ifmp_ring_enqueue (402 samples, 1.56%)</title><rect x="376.9" y="37" width="18.4" height="15.0" fill="rgb(221,137,29)" rx="2" ry="2" />
<text  x="379.95" y="47.5" ></text>
</g>
<g >
<title>ether_output_frame (655 samples, 2.54%)</title><rect x="871.5" y="101" width="29.9" height="15.0" fill="rgb(214,215,16)" rx="2" ry="2" />
<text  x="874.45" y="111.5" >et..</text>
</g>
<g >
<title>iflib_if_transmit (2,148 samples, 8.32%)</title><rect x="901.4" y="69" width="98.2" height="15.0" fill="rgb(243,87,31)" rx="2" ry="2" />
<text  x="904.39" y="79.5" >iflib_if_tr..</text>
</g>
<g >
<title>ether_demux (351 samples, 1.36%)</title><rect x="1174.0" y="245" width="16.0" height="15.0" fill="rgb(226,96,26)" rx="2" ry="2" />
<text  x="1176.96" y="255.5" ></text>
</g>
<g >
<title>_task_fn_rx (1,098 samples, 4.25%)</title><rect x="17.3" y="277" width="50.2" height="15.0" fill="rgb(243,225,30)" rx="2" ry="2" />
<text  x="20.31" y="287.5" >_task..</text>
</g>
<g >
<title>netisr_dispatch_src (1,098 samples, 4.25%)</title><rect x="17.3" y="181" width="50.2" height="15.0" fill="rgb(211,106,43)" rx="2" ry="2" />
<text  x="20.31" y="191.5" >netis..</text>
</g>
<g >
<title>gtaskqueue_run_locked (2,148 samples, 8.32%)</title><rect x="901.4" y="261" width="98.2" height="15.0" fill="rgb(245,123,30)" rx="2" ry="2" />
<text  x="904.39" y="271.5" >gtaskqueue_..</text>
</g>
<g >
<title>iflib_rxeof (16,352 samples, 63.33%)</title><rect x="123.2" y="213" width="747.3" height="15.0" fill="rgb(252,138,13)" rx="2" ry="2" />
<text  x="126.21" y="223.5" >iflib_rxeof</text>
</g>
<g >
<title>ipfw_check_packet (1,216 samples, 4.71%)</title><rect x="785.6" y="69" width="55.6" height="15.0" fill="rgb(247,4,39)" rx="2" ry="2" />
<text  x="788.58" y="79.5" >ipfw_..</text>
</g>
<g >
<title>netisr_dispatch_src (69 samples, 0.27%)</title><rect x="85.2" y="245" width="3.1" height="15.0" fill="rgb(229,161,43)" rx="2" ry="2" />
<text  x="88.18" y="255.5" ></text>
</g>
<g >
<title>ether_output_frame (2,148 samples, 8.32%)</title><rect x="901.4" y="85" width="98.2" height="15.0" fill="rgb(252,154,27)" rx="2" ry="2" />
<text  x="904.39" y="95.5" >ether_outpu..</text>
</g>
<g >
<title>iflib_completed_tx_reclaim (69 samples, 0.27%)</title><rect x="85.2" y="101" width="3.1" height="15.0" fill="rgb(252,138,54)" rx="2" ry="2" />
<text  x="88.18" y="111.5" ></text>
</g>
<g >
<title>ixl_isc_txd_credits_update_hwb (149 samples, 0.58%)</title><rect x="999.6" y="37" width="6.8" height="15.0" fill="rgb(235,189,2)" rx="2" ry="2" />
<text  x="1002.56" y="47.5" ></text>
</g>
<g >
<title>m_freem (69 samples, 0.27%)</title><rect x="85.2" y="85" width="3.1" height="15.0" fill="rgb(240,228,33)" rx="2" ry="2" />
<text  x="88.18" y="95.5" ></text>
</g>
<g >
<title>ether_nh_input (348 samples, 1.35%)</title><rect x="69.3" y="245" width="15.9" height="15.0" fill="rgb(215,186,54)" rx="2" ry="2" />
<text  x="72.28" y="255.5" ></text>
</g>
<g >
<title>ixl_isc_txd_encap (3,307 samples, 12.81%)</title><rect x="1010.0" y="37" width="151.2" height="15.0" fill="rgb(237,183,14)" rx="2" ry="2" />
<text  x="1013.02" y="47.5" >ixl_isc_txd_encap</text>
</g>
<g >
<title>spinlock_enter (26 samples, 0.10%)</title><rect x="97.6" y="197" width="1.2" height="15.0" fill="rgb(207,1,0)" rx="2" ry="2" />
<text  x="100.57" y="207.5" ></text>
</g>
<g >
<title>gtaskqueue_run_locked (655 samples, 2.54%)</title><rect x="871.5" y="277" width="29.9" height="15.0" fill="rgb(228,96,23)" rx="2" ry="2" />
<text  x="874.45" y="287.5" >gt..</text>
</g>
<g >
<title>ether_input (15,532 samples, 60.16%)</title><rect x="131.3" y="197" width="709.9" height="15.0" fill="rgb(216,202,32)" rx="2" ry="2" />
<text  x="134.30" y="207.5" >ether_input</text>
</g>
<g >
<title>ip6_tryforward (351 samples, 1.36%)</title><rect x="1174.0" y="197" width="16.0" height="15.0" fill="rgb(239,119,41)" rx="2" ry="2" />
<text  x="1176.96" y="207.5" ></text>
</g>
<g >
<title>ip6_tryforward (3,796 samples, 14.70%)</title><rect x="999.6" y="165" width="173.4" height="15.0" fill="rgb(230,87,23)" rx="2" ry="2" />
<text  x="1002.56" y="175.5" >ip6_tryforward</text>
</g>
<g >
<title>drain_ring_lockless (1,098 samples, 4.25%)</title><rect x="17.3" y="69" width="50.2" height="15.0" fill="rgb(227,145,0)" rx="2" ry="2" />
<text  x="20.31" y="79.5" >drain..</text>
</g>
<g >
<title>ifmp_ring_enqueue (351 samples, 1.36%)</title><rect x="1174.0" y="133" width="16.0" height="15.0" fill="rgb(252,187,15)" rx="2" ry="2" />
<text  x="1176.96" y="143.5" ></text>
</g>
<g >
<title>uma_zalloc_arg (70 samples, 0.27%)</title><rect x="845.5" y="181" width="3.2" height="15.0" fill="rgb(214,111,34)" rx="2" ry="2" />
<text  x="848.54" y="191.5" ></text>
</g>
<g >
<title>spinlock_exit (313 samples, 1.21%)</title><rect x="98.8" y="197" width="14.3" height="15.0" fill="rgb(216,107,3)" rx="2" ry="2" />
<text  x="101.75" y="207.5" ></text>
</g>
<g >
<title>iflib_encap (352 samples, 1.36%)</title><rect x="36.4" y="37" width="16.1" height="15.0" fill="rgb(235,38,38)" rx="2" ry="2" />
<text  x="39.42" y="47.5" ></text>
</g>
<g >
<title>drain_ring_lockless (348 samples, 1.35%)</title><rect x="69.3" y="101" width="15.9" height="15.0" fill="rgb(253,28,41)" rx="2" ry="2" />
<text  x="72.28" y="111.5" ></text>
</g>
<g >
<title>ether_output (1,098 samples, 4.25%)</title><rect x="17.3" y="133" width="50.2" height="15.0" fill="rgb(250,212,0)" rx="2" ry="2" />
<text  x="20.31" y="143.5" >ether..</text>
</g>
<g >
<title>grouptaskqueue_enqueue (713 samples, 2.76%)</title><rect x="90.6" y="213" width="32.6" height="15.0" fill="rgb(229,217,8)" rx="2" ry="2" />
<text  x="93.62" y="223.5" >gr..</text>
</g>
<g >
<title>bus_dmamap_load_mbuf_sg (80 samples, 0.31%)</title><rect x="1006.4" y="37" width="3.6" height="15.0" fill="rgb(217,39,23)" rx="2" ry="2" />
<text  x="1009.37" y="47.5" ></text>
</g>
<g >
<title>if_inc_counter (79 samples, 0.31%)</title><rect x="17.3" y="37" width="3.6" height="15.0" fill="rgb(210,196,23)" rx="2" ry="2" />
<text  x="20.31" y="47.5" ></text>
</g>
<g >
<title>ixl_isc_rxd_pkt_get (134 samples, 0.52%)</title><rect x="848.7" y="197" width="6.2" height="15.0" fill="rgb(233,39,11)" rx="2" ry="2" />
<text  x="851.74" y="207.5" ></text>
</g>
<g >
<title>fork_exit (17,135 samples, 66.37%)</title><rect x="88.3" y="277" width="783.2" height="15.0" fill="rgb(222,134,31)" rx="2" ry="2" />
<text  x="91.33" y="287.5" >fork_exit</text>
</g>
<g >
<title>ip6_input (15,477 samples, 59.94%)</title><rect x="133.8" y="117" width="707.4" height="15.0" fill="rgb(249,193,35)" rx="2" ry="2" />
<text  x="136.81" y="127.5" >ip6_input</text>
</g>
<g >
<title>_task_fn_rx (655 samples, 2.54%)</title><rect x="871.5" y="261" width="29.9" height="15.0" fill="rgb(237,19,13)" rx="2" ry="2" />
<text  x="874.45" y="271.5" >_t..</text>
</g>
<g >
<title>ifmp_ring_enqueue (3,796 samples, 14.70%)</title><rect x="999.6" y="101" width="173.4" height="15.0" fill="rgb(251,135,23)" rx="2" ry="2" />
<text  x="1002.56" y="111.5" >ifmp_ring_enqueue</text>
</g>
<g >
<title>iflib_if_transmit (351 samples, 1.36%)</title><rect x="1174.0" y="149" width="16.0" height="15.0" fill="rgb(251,89,31)" rx="2" ry="2" />
<text  x="1176.96" y="159.5" ></text>
</g>
<g >
<title>m_free (351 samples, 1.36%)</title><rect x="1174.0" y="53" width="16.0" height="15.0" fill="rgb(212,39,3)" rx="2" ry="2" />
<text  x="1176.96" y="63.5" ></text>
</g>
<g >
<title>netisr_dispatch_src (655 samples, 2.54%)</title><rect x="871.5" y="165" width="29.9" height="15.0" fill="rgb(241,154,31)" rx="2" ry="2" />
<text  x="874.45" y="175.5" >ne..</text>
</g>
<g >
<title>if_getafdata (39 samples, 0.15%)</title><rect x="67.5" y="229" width="1.8" height="15.0" fill="rgb(221,65,6)" rx="2" ry="2" />
<text  x="70.49" y="239.5" ></text>
</g>
<g >
<title>netisr_dispatch_src (1,098 samples, 4.25%)</title><rect x="17.3" y="229" width="50.2" height="15.0" fill="rgb(208,188,2)" rx="2" ry="2" />
<text  x="20.31" y="239.5" >netis..</text>
</g>
<g >
<title>ether_output_frame (351 samples, 1.36%)</title><rect x="1174.0" y="165" width="16.0" height="15.0" fill="rgb(239,147,0)" rx="2" ry="2" />
<text  x="1176.96" y="175.5" ></text>
</g>
<g >
<title>memcpy_erms (34 samples, 0.13%)</title><rect x="857.5" y="197" width="1.5" height="15.0" fill="rgb(221,127,49)" rx="2" ry="2" />
<text  x="860.47" y="207.5" ></text>
</g>
<g >
<title>iflib_txd_db_check (328 samples, 1.27%)</title><rect x="52.5" y="37" width="15.0" height="15.0" fill="rgb(225,98,38)" rx="2" ry="2" />
<text  x="55.50" y="47.5" ></text>
</g>
<g >
<title>Xapic_isr1 (160 samples, 0.62%)</title><rect x="10.0" y="277" width="7.3" height="15.0" fill="rgb(248,48,34)" rx="2" ry="2" />
<text  x="13.00" y="287.5" ></text>
</g>
<g >
<title>drain_ring_lockless (351 samples, 1.36%)</title><rect x="1174.0" y="117" width="16.0" height="15.0" fill="rgb(217,10,42)" rx="2" ry="2" />
<text  x="1176.96" y="127.5" ></text>
</g>
<g >
<title>iflib_if_transmit (1,098 samples, 4.25%)</title><rect x="17.3" y="101" width="50.2" height="15.0" fill="rgb(210,217,22)" rx="2" ry="2" />
<text  x="20.31" y="111.5" >iflib..</text>
</g>
<g >
<title>iflib_completed_tx_reclaim (351 samples, 1.36%)</title><rect x="1174.0" y="85" width="16.0" height="15.0" fill="rgb(221,15,41)" rx="2" ry="2" />
<text  x="1176.96" y="95.5" ></text>
</g>
<g >
<title>ip6_input (3,796 samples, 14.70%)</title><rect x="999.6" y="181" width="173.4" height="15.0" fill="rgb(250,144,22)" rx="2" ry="2" />
<text  x="1002.56" y="191.5" >ip6_input</text>
</g>
<g >
<title>netisr_dispatch_src (351 samples, 1.36%)</title><rect x="1174.0" y="229" width="16.0" height="15.0" fill="rgb(213,49,5)" rx="2" ry="2" />
<text  x="1176.96" y="239.5" ></text>
</g>
<g >
<title>ixl_isc_txd_flush (260 samples, 1.01%)</title><rect x="1161.2" y="37" width="11.8" height="15.0" fill="rgb(240,99,29)" rx="2" ry="2" />
<text  x="1164.16" y="47.5" ></text>
</g>
<g >
<title>ether_input (3,796 samples, 14.70%)</title><rect x="999.6" y="261" width="173.4" height="15.0" fill="rgb(209,121,29)" rx="2" ry="2" />
<text  x="1002.56" y="271.5" >ether_input</text>
</g>
<g >
<title>iflib_if_transmit (348 samples, 1.35%)</title><rect x="69.3" y="133" width="15.9" height="15.0" fill="rgb(227,121,3)" rx="2" ry="2" />
<text  x="72.28" y="143.5" ></text>
</g>
<g >
<title>ip6_input (39 samples, 0.15%)</title><rect x="67.5" y="245" width="1.8" height="15.0" fill="rgb(210,191,3)" rx="2" ry="2" />
<text  x="70.49" y="255.5" ></text>
</g>
<g >
<title>iflib_completed_tx_reclaim (149 samples, 0.58%)</title><rect x="999.6" y="53" width="6.8" height="15.0" fill="rgb(253,40,4)" rx="2" ry="2" />
<text  x="1002.56" y="63.5" ></text>
</g>
<g >
<title>ether_output_frame (348 samples, 1.35%)</title><rect x="69.3" y="149" width="15.9" height="15.0" fill="rgb(225,115,28)" rx="2" ry="2" />
<text  x="72.28" y="159.5" ></text>
</g>
<g >
<title>ether_demux (2,148 samples, 8.32%)</title><rect x="901.4" y="165" width="98.2" height="15.0" fill="rgb(249,173,21)" rx="2" ry="2" />
<text  x="904.39" y="175.5" >ether_demux</text>
</g>
<g >
<title>iflib_if_transmit (69 samples, 0.27%)</title><rect x="85.2" y="165" width="3.1" height="15.0" fill="rgb(205,31,2)" rx="2" ry="2" />
<text  x="88.18" y="175.5" ></text>
</g>
<g >
<title>wakeup_any (222 samples, 0.86%)</title><rect x="113.1" y="197" width="10.1" height="15.0" fill="rgb(247,15,13)" rx="2" ry="2" />
<text  x="116.06" y="207.5" ></text>
</g>
<g >
<title>ether_demux (1,098 samples, 4.25%)</title><rect x="17.3" y="197" width="50.2" height="15.0" fill="rgb(223,89,52)" rx="2" ry="2" />
<text  x="20.31" y="207.5" >ether..</text>
</g>
<g >
<title>ether_nh_input (2,148 samples, 8.32%)</title><rect x="901.4" y="181" width="98.2" height="15.0" fill="rgb(235,151,30)" rx="2" ry="2" />
<text  x="904.39" y="191.5" >ether_nh_in..</text>
</g>
<g >
<title>ipfw_chk (1,163 samples, 4.50%)</title><rect x="730.7" y="53" width="53.2" height="15.0" fill="rgb(221,5,52)" rx="2" ry="2" />
<text  x="733.73" y="63.5" >ipfw_..</text>
</g>
<g >
<title>pmap_kextract (5 samples, 0.02%)</title><rect x="85.0" y="37" width="0.2" height="15.0" fill="rgb(219,74,34)" rx="2" ry="2" />
<text  x="87.95" y="47.5" ></text>
</g>
<g >
<title>ether_output (655 samples, 2.54%)</title><rect x="871.5" y="117" width="29.9" height="15.0" fill="rgb(218,151,17)" rx="2" ry="2" />
<text  x="874.45" y="127.5" >et..</text>
</g>
<g >
<title>ifmp_ring_enqueue (348 samples, 1.35%)</title><rect x="69.3" y="117" width="15.9" height="15.0" fill="rgb(217,58,16)" rx="2" ry="2" />
<text  x="72.28" y="127.5" ></text>
</g>
<g >
<title>netisr_dispatch_src (2,148 samples, 8.32%)</title><rect x="901.4" y="197" width="98.2" height="15.0" fill="rgb(213,99,32)" rx="2" ry="2" />
<text  x="904.39" y="207.5" >netisr_disp..</text>
</g>
<g >
<title>ip6_findroute (311 samples, 1.20%)</title><rect x="506.7" y="85" width="14.2" height="15.0" fill="rgb(238,173,17)" rx="2" ry="2" />
<text  x="509.70" y="95.5" ></text>
</g>
<g >
<title>ip6_input (351 samples, 1.36%)</title><rect x="1174.0" y="213" width="16.0" height="15.0" fill="rgb(239,19,1)" rx="2" ry="2" />
<text  x="1176.96" y="223.5" ></text>
</g>
</g>
</svg>
