<?xml version="1.0" standalone="no"?>
<!DOCTYPE svg PUBLIC "-//W3C//DTD SVG 1.1//EN" "http://www.w3.org/Graphics/SVG/1.1/DTD/svg11.dtd">
<svg version="1.1" width="1200" height="342" onload="init(evt)" viewBox="0 0 1200 342" xmlns="http://www.w3.org/2000/svg" xmlns:xlink="http://www.w3.org/1999/xlink">
<!-- Flame graph stack visualization. See https://github.com/brendangregg/FlameGraph for latest version, and http://www.brendangregg.com/flamegraphs.html for examples. -->
<!-- NOTES:  -->
<defs>
	<linearGradient id="background" y1="0" y2="1" x1="0" x2="0" >
		<stop stop-color="#eeeeee" offset="5%" />
		<stop stop-color="#eeeeb0" offset="95%" />
	</linearGradient>
</defs>
<style type="text/css">
	text { font-family:Verdana; font-size:12px; fill:rgb(0,0,0); }
	#search, #ignorecase { opacity:0.1; cursor:pointer; }
	#search:hover, #search.show, #ignorecase:hover, #ignorecase.show { opacity:1; }
	#subtitle { text-anchor:middle; font-color:rgb(160,160,160); }
	#title { text-anchor:middle; font-size:17px}
	#unzoom { cursor:pointer; }
	#frames > *:hover { stroke:black; stroke-width:0.5; cursor:pointer; }
	.hide { display:none; }
	.parent { opacity:0.5; }
</style>
<script type="text/ecmascript">
<![CDATA[
	"use strict";
	var details, searchbtn, unzoombtn, matchedtxt, svg, searching, currentSearchTerm, ignorecase, ignorecaseBtn;
	function init(evt) {
		details = document.getElementById("details").firstChild;
		searchbtn = document.getElementById("search");
		ignorecaseBtn = document.getElementById("ignorecase");
		unzoombtn = document.getElementById("unzoom");
		matchedtxt = document.getElementById("matched");
		svg = document.getElementsByTagName("svg")[0];
		searching = 0;
		currentSearchTerm = null;

		// use GET parameters to restore a flamegraphs state.
		var params = get_params();
		if (params.x && params.y)
			zoom(find_group(document.querySelector('[x="' + params.x + '"][y="' + params.y + '"]')));
                if (params.s) search(params.s);
	}

	// event listeners
	window.addEventListener("click", function(e) {
		var target = find_group(e.target);
		if (target) {
			if (target.nodeName == "a") {
				if (e.ctrlKey === false) return;
				e.preventDefault();
			}
			if (target.classList.contains("parent")) unzoom();
			zoom(target);
			if (!document.querySelector('.parent')) {
				clearzoom();
				return;
			}

			// set parameters for zoom state
			var el = target.querySelector("rect");
			if (el && el.attributes && el.attributes.y && el.attributes._orig_x) {
				var params = get_params()
				params.x = el.attributes._orig_x.value;
				params.y = el.attributes.y.value;
				history.replaceState(null, null, parse_params(params));
			}
		}
		else if (e.target.id == "unzoom") clearzoom();
		else if (e.target.id == "search") search_prompt();
		else if (e.target.id == "ignorecase") toggle_ignorecase();
	}, false)

	// mouse-over for info
	// show
	window.addEventListener("mouseover", function(e) {
		var target = find_group(e.target);
		if (target) details.nodeValue = "Function: " + g_to_text(target);
	}, false)

	// clear
	window.addEventListener("mouseout", function(e) {
		var target = find_group(e.target);
		if (target) details.nodeValue = ' ';
	}, false)

	// ctrl-F for search
	// ctrl-I to toggle case-sensitive search
	window.addEventListener("keydown",function (e) {
		if (e.keyCode === 114 || (e.ctrlKey && e.keyCode === 70)) {
			e.preventDefault();
			search_prompt();
		}
		else if (e.ctrlKey && e.keyCode === 73) {
			e.preventDefault();
			toggle_ignorecase();
		}
	}, false)

	// functions
	function get_params() {
		var params = {};
		var paramsarr = window.location.search.substr(1).split('&');
		for (var i = 0; i < paramsarr.length; ++i) {
			var tmp = paramsarr[i].split("=");
			if (!tmp[0] || !tmp[1]) continue;
			params[tmp[0]]  = decodeURIComponent(tmp[1]);
		}
		return params;
	}
	function parse_params(params) {
		var uri = "?";
		for (var key in params) {
			uri += key + '=' + encodeURIComponent(params[key]) + '&';
		}
		if (uri.slice(-1) == "&")
			uri = uri.substring(0, uri.length - 1);
		if (uri == '?')
			uri = window.location.href.split('?')[0];
		return uri;
	}
	function find_child(node, selector) {
		var children = node.querySelectorAll(selector);
		if (children.length) return children[0];
	}
	function find_group(node) {
		var parent = node.parentElement;
		if (!parent) return;
		if (parent.id == "frames") return node;
		return find_group(parent);
	}
	function orig_save(e, attr, val) {
		if (e.attributes["_orig_" + attr] != undefined) return;
		if (e.attributes[attr] == undefined) return;
		if (val == undefined) val = e.attributes[attr].value;
		e.setAttribute("_orig_" + attr, val);
	}
	function orig_load(e, attr) {
		if (e.attributes["_orig_"+attr] == undefined) return;
		e.attributes[attr].value = e.attributes["_orig_" + attr].value;
		e.removeAttribute("_orig_"+attr);
	}
	function g_to_text(e) {
		var text = find_child(e, "title").firstChild.nodeValue;
		return (text)
	}
	function g_to_func(e) {
		var func = g_to_text(e);
		// if there's any manipulation we want to do to the function
		// name before it's searched, do it here before returning.
		return (func);
	}
	function update_text(e) {
		var r = find_child(e, "rect");
		var t = find_child(e, "text");
		var w = parseFloat(r.attributes.width.value) -3;
		var txt = find_child(e, "title").textContent.replace(/\([^(]*\)$/,"");
		t.attributes.x.value = parseFloat(r.attributes.x.value) + 3;

		// Smaller than this size won't fit anything
		if (w < 2 * 12 * 0.59) {
			t.textContent = "";
			return;
		}

		t.textContent = txt;
		// Fit in full text width
		if (/^ *$/.test(txt) || t.getSubStringLength(0, txt.length) < w)
			return;

		for (var x = txt.length - 2; x > 0; x--) {
			if (t.getSubStringLength(0, x + 2) <= w) {
				t.textContent = txt.substring(0, x) + "..";
				return;
			}
		}
		t.textContent = "";
	}

	// zoom
	function zoom_reset(e) {
		if (e.attributes != undefined) {
			orig_load(e, "x");
			orig_load(e, "width");
		}
		if (e.childNodes == undefined) return;
		for (var i = 0, c = e.childNodes; i < c.length; i++) {
			zoom_reset(c[i]);
		}
	}
	function zoom_child(e, x, ratio) {
		if (e.attributes != undefined) {
			if (e.attributes.x != undefined) {
				orig_save(e, "x");
				e.attributes.x.value = (parseFloat(e.attributes.x.value) - x - 10) * ratio + 10;
				if (e.tagName == "text")
					e.attributes.x.value = find_child(e.parentNode, "rect[x]").attributes.x.value + 3;
			}
			if (e.attributes.width != undefined) {
				orig_save(e, "width");
				e.attributes.width.value = parseFloat(e.attributes.width.value) * ratio;
			}
		}

		if (e.childNodes == undefined) return;
		for (var i = 0, c = e.childNodes; i < c.length; i++) {
			zoom_child(c[i], x - 10, ratio);
		}
	}
	function zoom_parent(e) {
		if (e.attributes) {
			if (e.attributes.x != undefined) {
				orig_save(e, "x");
				e.attributes.x.value = 10;
			}
			if (e.attributes.width != undefined) {
				orig_save(e, "width");
				e.attributes.width.value = parseInt(svg.width.baseVal.value) - (10 * 2);
			}
		}
		if (e.childNodes == undefined) return;
		for (var i = 0, c = e.childNodes; i < c.length; i++) {
			zoom_parent(c[i]);
		}
	}
	function zoom(node) {
		var attr = find_child(node, "rect").attributes;
		var width = parseFloat(attr.width.value);
		var xmin = parseFloat(attr.x.value);
		var xmax = parseFloat(xmin + width);
		var ymin = parseFloat(attr.y.value);
		var ratio = (svg.width.baseVal.value - 2 * 10) / width;

		// XXX: Workaround for JavaScript float issues (fix me)
		var fudge = 0.0001;

		unzoombtn.classList.remove("hide");

		var el = document.getElementById("frames").children;
		for (var i = 0; i < el.length; i++) {
			var e = el[i];
			var a = find_child(e, "rect").attributes;
			var ex = parseFloat(a.x.value);
			var ew = parseFloat(a.width.value);
			var upstack;
			// Is it an ancestor
			if (0 == 0) {
				upstack = parseFloat(a.y.value) > ymin;
			} else {
				upstack = parseFloat(a.y.value) < ymin;
			}
			if (upstack) {
				// Direct ancestor
				if (ex <= xmin && (ex+ew+fudge) >= xmax) {
					e.classList.add("parent");
					zoom_parent(e);
					update_text(e);
				}
				// not in current path
				else
					e.classList.add("hide");
			}
			// Children maybe
			else {
				// no common path
				if (ex < xmin || ex + fudge >= xmax) {
					e.classList.add("hide");
				}
				else {
					zoom_child(e, xmin, ratio);
					update_text(e);
				}
			}
		}
		search();
	}
	function unzoom() {
		unzoombtn.classList.add("hide");
		var el = document.getElementById("frames").children;
		for(var i = 0; i < el.length; i++) {
			el[i].classList.remove("parent");
			el[i].classList.remove("hide");
			zoom_reset(el[i]);
			update_text(el[i]);
		}
		search();
	}
	function clearzoom() {
		unzoom();

		// remove zoom state
		var params = get_params();
		if (params.x) delete params.x;
		if (params.y) delete params.y;
		history.replaceState(null, null, parse_params(params));
	}

	// search
	function toggle_ignorecase() {
		ignorecase = !ignorecase;
		if (ignorecase) {
			ignorecaseBtn.classList.add("show");
		} else {
			ignorecaseBtn.classList.remove("show");
		}
		reset_search();
		search();
	}
	function reset_search() {
		var el = document.querySelectorAll("#frames rect");
		for (var i = 0; i < el.length; i++) {
			orig_load(el[i], "fill")
		}
		var params = get_params();
		delete params.s;
		history.replaceState(null, null, parse_params(params));
	}
	function search_prompt() {
		if (!searching) {
			var term = prompt("Enter a search term (regexp " +
			    "allowed, eg: ^ext4_)"
			    + (ignorecase ? ", ignoring case" : "")
			    + "\nPress Ctrl-i to toggle case sensitivity", "");
			if (term != null) search(term);
		} else {
			reset_search();
			searching = 0;
			currentSearchTerm = null;
			searchbtn.classList.remove("show");
			searchbtn.firstChild.nodeValue = "Search"
			matchedtxt.classList.add("hide");
			matchedtxt.firstChild.nodeValue = ""
		}
	}
	function search(term) {
		if (term) currentSearchTerm = term;

		var re = new RegExp(currentSearchTerm, ignorecase ? 'i' : '');
		var el = document.getElementById("frames").children;
		var matches = new Object();
		var maxwidth = 0;
		for (var i = 0; i < el.length; i++) {
			var e = el[i];
			var func = g_to_func(e);
			var rect = find_child(e, "rect");
			if (func == null || rect == null)
				continue;

			// Save max width. Only works as we have a root frame
			var w = parseFloat(rect.attributes.width.value);
			if (w > maxwidth)
				maxwidth = w;

			if (func.match(re)) {
				// highlight
				var x = parseFloat(rect.attributes.x.value);
				orig_save(rect, "fill");
				rect.attributes.fill.value = "rgb(230,0,230)";

				// remember matches
				if (matches[x] == undefined) {
					matches[x] = w;
				} else {
					if (w > matches[x]) {
						// overwrite with parent
						matches[x] = w;
					}
				}
				searching = 1;
			}
		}
		if (!searching)
			return;
		var params = get_params();
		params.s = currentSearchTerm;
		history.replaceState(null, null, parse_params(params));

		searchbtn.classList.add("show");
		searchbtn.firstChild.nodeValue = "Reset Search";

		// calculate percent matched, excluding vertical overlap
		var count = 0;
		var lastx = -1;
		var lastw = 0;
		var keys = Array();
		for (k in matches) {
			if (matches.hasOwnProperty(k))
				keys.push(k);
		}
		// sort the matched frames by their x location
		// ascending, then width descending
		keys.sort(function(a, b){
			return a - b;
		});
		// Step through frames saving only the biggest bottom-up frames
		// thanks to the sort order. This relies on the tree property
		// where children are always smaller than their parents.
		var fudge = 0.0001;	// JavaScript floating point
		for (var k in keys) {
			var x = parseFloat(keys[k]);
			var w = matches[keys[k]];
			if (x >= lastx + lastw - fudge) {
				count += w;
				lastx = x;
				lastw = w;
			}
		}
		// display matched percent
		matchedtxt.classList.remove("hide");
		var pct = 100 * count / maxwidth;
		if (pct != 100) pct = pct.toFixed(1)
		matchedtxt.firstChild.nodeValue = "Matched: " + pct + "%";
	}
]]>
</script>
<rect x="0.0" y="0" width="1200.0" height="342.0" fill="url(#background)"  />
<text id="title" x="600.00" y="24" >Flame Graph</text>
<text id="details" x="10.00" y="325" > </text>
<text id="unzoom" x="10.00" y="24" class="hide">Reset Zoom</text>
<text id="search" x="1090.00" y="24" >Search</text>
<text id="ignorecase" x="1174.00" y="24" >ic</text>
<text id="matched" x="1090.00" y="325" > </text>
<g id="frames">
<g >
<title>gtaskqueue_run_locked (2,916 samples, 12.42%)</title><rect x="858.1" y="261" width="146.6" height="15.0" fill="rgb(235,19,26)" rx="2" ry="2" />
<text  x="861.11" y="271.5" >gtaskqueue_run_loc..</text>
</g>
<g >
<title>ether_nh_input (1,384 samples, 5.90%)</title><rect x="10.0" y="213" width="69.6" height="15.0" fill="rgb(223,23,32)" rx="2" ry="2" />
<text  x="13.00" y="223.5" >ether_n..</text>
</g>
<g >
<title>ether_input (3,428 samples, 14.60%)</title><rect x="1004.7" y="261" width="172.3" height="15.0" fill="rgb(221,207,49)" rx="2" ry="2" />
<text  x="1007.68" y="271.5" >ether_input</text>
</g>
<g >
<title>pf_test (701 samples, 2.99%)</title><rect x="937.4" y="69" width="35.2" height="15.0" fill="rgb(222,57,21)" rx="2" ry="2" />
<text  x="940.37" y="79.5" >pf..</text>
</g>
<g >
<title>murmur3_32_hash32 (16 samples, 0.07%)</title><rect x="997.9" y="37" width="0.8" height="15.0" fill="rgb(238,129,42)" rx="2" ry="2" />
<text  x="1000.94" y="47.5" ></text>
</g>
<g >
<title>ether_input (12,618 samples, 53.75%)</title><rect x="134.9" y="197" width="634.2" height="15.0" fill="rgb(232,101,3)" rx="2" ry="2" />
<text  x="137.91" y="207.5" >ether_input</text>
</g>
<g >
<title>ether_demux (3,428 samples, 14.60%)</title><rect x="1004.7" y="213" width="172.3" height="15.0" fill="rgb(222,31,8)" rx="2" ry="2" />
<text  x="1007.68" y="223.5" >ether_demux</text>
</g>
<g >
<title>netisr_dispatch_src (474 samples, 2.02%)</title><rect x="79.6" y="213" width="23.8" height="15.0" fill="rgb(205,207,5)" rx="2" ry="2" />
<text  x="82.57" y="223.5" >n..</text>
</g>
<g >
<title>ether_nh_input (255 samples, 1.09%)</title><rect x="1177.2" y="261" width="12.8" height="15.0" fill="rgb(218,128,51)" rx="2" ry="2" />
<text  x="1180.18" y="271.5" ></text>
</g>
<g >
<title>ip_input (1,384 samples, 5.90%)</title><rect x="10.0" y="165" width="69.6" height="15.0" fill="rgb(226,99,20)" rx="2" ry="2" />
<text  x="13.00" y="175.5" >ip_input</text>
</g>
<g >
<title>wakeup_any (431 samples, 1.84%)</title><rect x="103.4" y="197" width="21.7" height="15.0" fill="rgb(233,224,42)" rx="2" ry="2" />
<text  x="106.39" y="207.5" >w..</text>
</g>
<g >
<title>ether_nh_input (3,428 samples, 14.60%)</title><rect x="1004.7" y="229" width="172.3" height="15.0" fill="rgb(242,33,9)" rx="2" ry="2" />
<text  x="1007.68" y="239.5" >ether_nh_input</text>
</g>
<g >
<title>iflib_rxeof (3,428 samples, 14.60%)</title><rect x="1004.7" y="277" width="172.3" height="15.0" fill="rgb(213,195,48)" rx="2" ry="2" />
<text  x="1007.68" y="287.5" >iflib_rxeof</text>
</g>
<g >
<title>pf_match_translation_rule (73 samples, 0.31%)</title><rect x="819.2" y="37" width="3.6" height="15.0" fill="rgb(242,60,47)" rx="2" ry="2" />
<text  x="822.15" y="47.5" ></text>
</g>
<g >
<title>drain_ring_lockless (255 samples, 1.09%)</title><rect x="1177.2" y="117" width="12.8" height="15.0" fill="rgb(240,223,5)" rx="2" ry="2" />
<text  x="1180.18" y="127.5" ></text>
</g>
<g >
<title>iflib_fast_intr_rxtx (4 samples, 0.02%)</title><rect x="1177.0" y="245" width="0.2" height="15.0" fill="rgb(208,130,7)" rx="2" ry="2" />
<text  x="1179.98" y="255.5" ></text>
</g>
<g >
<title>ifmp_ring_enqueue (255 samples, 1.09%)</title><rect x="1177.2" y="133" width="12.8" height="15.0" fill="rgb(231,41,49)" rx="2" ry="2" />
<text  x="1180.18" y="143.5" ></text>
</g>
<g >
<title>_task_fn_rx (13,826 samples, 58.89%)</title><rect x="103.4" y="229" width="694.9" height="15.0" fill="rgb(226,199,50)" rx="2" ry="2" />
<text  x="106.39" y="239.5" >_task_fn_rx</text>
</g>
<g >
<title>intr_event_handle (4 samples, 0.02%)</title><rect x="1177.0" y="261" width="0.2" height="15.0" fill="rgb(234,134,32)" rx="2" ry="2" />
<text  x="1179.98" y="271.5" ></text>
</g>
<g >
<title>iflib_encap (2,639 samples, 11.24%)</title><rect x="1013.6" y="53" width="132.6" height="15.0" fill="rgb(223,139,54)" rx="2" ry="2" />
<text  x="1016.57" y="63.5" >iflib_encap</text>
</g>
<g >
<title>ifmp_ring_enqueue (1,384 samples, 5.90%)</title><rect x="10.0" y="85" width="69.6" height="15.0" fill="rgb(208,94,38)" rx="2" ry="2" />
<text  x="13.00" y="95.5" >ifmp_ri..</text>
</g>
<g >
<title>pf_check_in (9,524 samples, 40.57%)</title><rect x="290.4" y="69" width="478.7" height="15.0" fill="rgb(248,181,19)" rx="2" ry="2" />
<text  x="293.42" y="79.5" >pf_check_in</text>
</g>
<g >
<title>pfil_mbuf_fwd (336 samples, 1.43%)</title><rect x="819.2" y="117" width="16.8" height="15.0" fill="rgb(205,139,13)" rx="2" ry="2" />
<text  x="822.15" y="127.5" ></text>
</g>
<g >
<title>pfil_mbuf_fwd (1,574 samples, 6.70%)</title><rect x="211.3" y="85" width="79.1" height="15.0" fill="rgb(246,87,39)" rx="2" ry="2" />
<text  x="214.31" y="95.5" >pfil_mbuf..</text>
</g>
<g >
<title>ip_input (1,175 samples, 5.01%)</title><rect x="799.0" y="149" width="59.1" height="15.0" fill="rgb(226,221,37)" rx="2" ry="2" />
<text  x="802.05" y="159.5" >ip_input</text>
</g>
<g >
<title>iflib_rxeof (1,384 samples, 5.90%)</title><rect x="10.0" y="261" width="69.6" height="15.0" fill="rgb(225,200,37)" rx="2" ry="2" />
<text  x="13.00" y="271.5" >iflib_r..</text>
</g>
<g >
<title>sleepq_lock (431 samples, 1.84%)</title><rect x="103.4" y="181" width="21.7" height="15.0" fill="rgb(232,96,28)" rx="2" ry="2" />
<text  x="106.39" y="191.5" >s..</text>
</g>
<g >
<title>ether_demux (474 samples, 2.02%)</title><rect x="79.6" y="229" width="23.8" height="15.0" fill="rgb(218,173,34)" rx="2" ry="2" />
<text  x="82.57" y="239.5" >e..</text>
</g>
<g >
<title>pf_test_state (359 samples, 1.53%)</title><rect x="840.1" y="69" width="18.0" height="15.0" fill="rgb(252,74,29)" rx="2" ry="2" />
<text  x="843.06" y="79.5" ></text>
</g>
<g >
<title>ether_input (474 samples, 2.02%)</title><rect x="79.6" y="277" width="23.8" height="15.0" fill="rgb(233,13,19)" rx="2" ry="2" />
<text  x="82.57" y="287.5" >e..</text>
</g>
<g >
<title>pf_test_state (134 samples, 0.57%)</title><rect x="997.9" y="53" width="6.8" height="15.0" fill="rgb(214,176,38)" rx="2" ry="2" />
<text  x="1000.94" y="63.5" ></text>
</g>
<g >
<title>bsearch4_lookup (4 samples, 0.02%)</title><rect x="211.1" y="53" width="0.2" height="15.0" fill="rgb(250,34,54)" rx="2" ry="2" />
<text  x="214.11" y="63.5" ></text>
</g>
<g >
<title>iflib_completed_tx_reclaim (177 samples, 0.75%)</title><rect x="1004.7" y="53" width="8.9" height="15.0" fill="rgb(239,113,12)" rx="2" ry="2" />
<text  x="1007.68" y="63.5" ></text>
</g>
<g >
<title>ip_tryforward (12,618 samples, 53.75%)</title><rect x="134.9" y="101" width="634.2" height="15.0" fill="rgb(207,129,37)" rx="2" ry="2" />
<text  x="137.91" y="111.5" >ip_tryforward</text>
</g>
<g >
<title>pf_check_in (638 samples, 2.72%)</title><rect x="972.6" y="85" width="32.1" height="15.0" fill="rgb(223,33,16)" rx="2" ry="2" />
<text  x="975.61" y="95.5" >pf..</text>
</g>
<g >
<title>ip_tryforward (1,175 samples, 5.01%)</title><rect x="799.0" y="133" width="59.1" height="15.0" fill="rgb(249,197,21)" rx="2" ry="2" />
<text  x="802.05" y="143.5" >ip_try..</text>
</g>
<g >
<title>uma_zfree_arg (26 samples, 0.11%)</title><rect x="996.6" y="37" width="1.3" height="15.0" fill="rgb(208,15,51)" rx="2" ry="2" />
<text  x="999.63" y="47.5" ></text>
</g>
<g >
<title>ether_output (967 samples, 4.12%)</title><rect x="155.0" y="85" width="48.6" height="15.0" fill="rgb(214,14,20)" rx="2" ry="2" />
<text  x="158.01" y="95.5" >ethe..</text>
</g>
<g >
<title>_task_fn_rx (2,916 samples, 12.42%)</title><rect x="858.1" y="245" width="146.6" height="15.0" fill="rgb(249,60,25)" rx="2" ry="2" />
<text  x="861.11" y="255.5" >_task_fn_rx</text>
</g>
<g >
<title>gtaskqueue_thread_loop (13,840 samples, 58.95%)</title><rect x="103.4" y="261" width="695.6" height="15.0" fill="rgb(227,159,21)" rx="2" ry="2" />
<text  x="106.39" y="271.5" >gtaskqueue_thread_loop</text>
</g>
<g >
<title>ether_demux (255 samples, 1.09%)</title><rect x="1177.2" y="245" width="12.8" height="15.0" fill="rgb(248,154,28)" rx="2" ry="2" />
<text  x="1180.18" y="255.5" ></text>
</g>
<g >
<title>iflib_if_transmit (1,384 samples, 5.90%)</title><rect x="10.0" y="101" width="69.6" height="15.0" fill="rgb(252,55,31)" rx="2" ry="2" />
<text  x="13.00" y="111.5" >iflib_i..</text>
</g>
<g >
<title>iflib_if_transmit (438 samples, 1.87%)</title><rect x="171.6" y="53" width="22.1" height="15.0" fill="rgb(242,8,34)" rx="2" ry="2" />
<text  x="174.65" y="63.5" >i..</text>
</g>
<g >
<title>netisr_dispatch_src (1,175 samples, 5.01%)</title><rect x="799.0" y="165" width="59.1" height="15.0" fill="rgb(213,107,37)" rx="2" ry="2" />
<text  x="802.05" y="175.5" >netisr..</text>
</g>
<g >
<title>drain_ring_lockless (1,384 samples, 5.90%)</title><rect x="10.0" y="69" width="69.6" height="15.0" fill="rgb(252,11,2)" rx="2" ry="2" />
<text  x="13.00" y="79.5" >drain_r..</text>
</g>
<g >
<title>rxd_frag_to_sd (348 samples, 1.48%)</title><rect x="780.9" y="197" width="17.4" height="15.0" fill="rgb(227,162,29)" rx="2" ry="2" />
<text  x="783.85" y="207.5" ></text>
</g>
<g >
<title>pf_find_state (359 samples, 1.53%)</title><rect x="840.1" y="53" width="18.0" height="15.0" fill="rgb(212,109,50)" rx="2" ry="2" />
<text  x="843.06" y="63.5" ></text>
</g>
<g >
<title>iflib_txq_drain (332 samples, 1.41%)</title><rect x="79.6" y="85" width="16.7" height="15.0" fill="rgb(228,6,0)" rx="2" ry="2" />
<text  x="82.57" y="95.5" ></text>
</g>
<g >
<title>ether_output_frame (332 samples, 1.41%)</title><rect x="79.6" y="149" width="16.7" height="15.0" fill="rgb(237,134,42)" rx="2" ry="2" />
<text  x="82.57" y="159.5" ></text>
</g>
<g >
<title>ether_demux (1,175 samples, 5.01%)</title><rect x="799.0" y="181" width="59.1" height="15.0" fill="rgb(239,220,11)" rx="2" ry="2" />
<text  x="802.05" y="191.5" >ether_..</text>
</g>
<g >
<title>fib4_lookup (4 samples, 0.02%)</title><rect x="211.1" y="69" width="0.2" height="15.0" fill="rgb(227,185,29)" rx="2" ry="2" />
<text  x="214.11" y="79.5" ></text>
</g>
<g >
<title>ether_output (3,428 samples, 14.60%)</title><rect x="1004.7" y="149" width="172.3" height="15.0" fill="rgb(254,27,11)" rx="2" ry="2" />
<text  x="1007.68" y="159.5" >ether_output</text>
</g>
<g >
<title>ether_output_frame (3,428 samples, 14.60%)</title><rect x="1004.7" y="133" width="172.3" height="15.0" fill="rgb(220,222,26)" rx="2" ry="2" />
<text  x="1007.68" y="143.5" >ether_output_frame</text>
</g>
<g >
<title>pf_find_state (263 samples, 1.12%)</title><rect x="822.8" y="53" width="13.2" height="15.0" fill="rgb(232,188,27)" rx="2" ry="2" />
<text  x="825.82" y="63.5" ></text>
</g>
<g >
<title>pf_test_rule (277 samples, 1.18%)</title><rect x="755.2" y="37" width="13.9" height="15.0" fill="rgb(254,225,5)" rx="2" ry="2" />
<text  x="758.22" y="47.5" ></text>
</g>
<g >
<title>iflib_completed_tx_reclaim (255 samples, 1.09%)</title><rect x="1177.2" y="85" width="12.8" height="15.0" fill="rgb(219,210,5)" rx="2" ry="2" />
<text  x="1180.18" y="95.5" ></text>
</g>
<g >
<title>iflib_if_transmit (3,428 samples, 14.60%)</title><rect x="1004.7" y="117" width="172.3" height="15.0" fill="rgb(235,48,13)" rx="2" ry="2" />
<text  x="1007.68" y="127.5" >iflib_if_transmit</text>
</g>
<g >
<title>memcpy_erms (198 samples, 0.84%)</title><rect x="193.7" y="69" width="9.9" height="15.0" fill="rgb(243,202,33)" rx="2" ry="2" />
<text  x="196.67" y="79.5" ></text>
</g>
<g >
<title>ether_output_frame (438 samples, 1.87%)</title><rect x="171.6" y="69" width="22.1" height="15.0" fill="rgb(220,216,22)" rx="2" ry="2" />
<text  x="174.65" y="79.5" >e..</text>
</g>
<g >
<title>netisr_dispatch_src (1,384 samples, 5.90%)</title><rect x="10.0" y="181" width="69.6" height="15.0" fill="rgb(215,19,0)" rx="2" ry="2" />
<text  x="13.00" y="191.5" >netisr_..</text>
</g>
<g >
<title>memcpy_erms (31 samples, 0.13%)</title><rect x="779.3" y="197" width="1.6" height="15.0" fill="rgb(227,110,47)" rx="2" ry="2" />
<text  x="782.29" y="207.5" ></text>
</g>
<g >
<title>ip_tryforward (3,428 samples, 14.60%)</title><rect x="1004.7" y="165" width="172.3" height="15.0" fill="rgb(253,207,32)" rx="2" ry="2" />
<text  x="1007.68" y="175.5" >ip_tryforward</text>
</g>
<g >
<title>iflib_txd_db_check (612 samples, 2.61%)</title><rect x="1146.2" y="53" width="30.8" height="15.0" fill="rgb(207,228,21)" rx="2" ry="2" />
<text  x="1149.22" y="63.5" >if..</text>
</g>
<g >
<title>pf_check_out (1,574 samples, 6.70%)</title><rect x="211.3" y="69" width="79.1" height="15.0" fill="rgb(235,184,27)" rx="2" ry="2" />
<text  x="214.31" y="79.5" >pf_check_..</text>
</g>
<g >
<title>bsearch4_lookup (149 samples, 0.63%)</title><rect x="203.6" y="69" width="7.5" height="15.0" fill="rgb(226,92,13)" rx="2" ry="2" />
<text  x="206.62" y="79.5" ></text>
</g>
<g >
<title>pf_test_state (263 samples, 1.12%)</title><rect x="822.8" y="69" width="13.2" height="15.0" fill="rgb(242,40,13)" rx="2" ry="2" />
<text  x="825.82" y="79.5" ></text>
</g>
<g >
<title>wakeup_any (2 samples, 0.01%)</title><rect x="1177.0" y="213" width="0.1" height="15.0" fill="rgb(217,25,3)" rx="2" ry="2" />
<text  x="1179.98" y="223.5" ></text>
</g>
<g >
<title>pf_get_translation (80 samples, 0.34%)</title><rect x="836.0" y="53" width="4.1" height="15.0" fill="rgb(242,178,40)" rx="2" ry="2" />
<text  x="839.04" y="63.5" ></text>
</g>
<g >
<title>ether_output (1,577 samples, 6.72%)</title><rect x="858.1" y="101" width="79.3" height="15.0" fill="rgb(208,25,17)" rx="2" ry="2" />
<text  x="861.11" y="111.5" >ether_out..</text>
</g>
<g >
<title>pf_test (336 samples, 1.43%)</title><rect x="819.2" y="85" width="16.8" height="15.0" fill="rgb(224,219,23)" rx="2" ry="2" />
<text  x="822.15" y="95.5" ></text>
</g>
<g >
<title>ether_nh_input (12,618 samples, 53.75%)</title><rect x="134.9" y="165" width="634.2" height="15.0" fill="rgb(216,75,45)" rx="2" ry="2" />
<text  x="137.91" y="175.5" >ether_nh_input</text>
</g>
<g >
<title>bounce_bus_dmamap_load_buffer (332 samples, 1.41%)</title><rect x="79.6" y="37" width="16.7" height="15.0" fill="rgb(214,133,10)" rx="2" ry="2" />
<text  x="82.57" y="47.5" ></text>
</g>
<g >
<title>ip_input (12,618 samples, 53.75%)</title><rect x="134.9" y="117" width="634.2" height="15.0" fill="rgb(211,122,8)" rx="2" ry="2" />
<text  x="137.91" y="127.5" >ip_input</text>
</g>
<g >
<title>ip_tryforward (474 samples, 2.02%)</title><rect x="79.6" y="181" width="23.8" height="15.0" fill="rgb(213,9,30)" rx="2" ry="2" />
<text  x="82.57" y="191.5" >i..</text>
</g>
<g >
<title>pf_match_rule (160 samples, 0.68%)</title><rect x="956.3" y="37" width="8.0" height="15.0" fill="rgb(227,35,23)" rx="2" ry="2" />
<text  x="959.27" y="47.5" ></text>
</g>
<g >
<title>ether_nh_input (1,175 samples, 5.01%)</title><rect x="799.0" y="197" width="59.1" height="15.0" fill="rgb(213,123,0)" rx="2" ry="2" />
<text  x="802.05" y="207.5" >ether_..</text>
</g>
<g >
<title>murmur3_32_hash32 (11 samples, 0.05%)</title><rect x="965.9" y="37" width="0.5" height="15.0" fill="rgb(226,48,52)" rx="2" ry="2" />
<text  x="968.87" y="47.5" ></text>
</g>
<g >
<title>netisr_dispatch_src (3,428 samples, 14.60%)</title><rect x="1004.7" y="245" width="172.3" height="15.0" fill="rgb(207,172,26)" rx="2" ry="2" />
<text  x="1007.68" y="255.5" >netisr_dispatch_src</text>
</g>
<g >
<title>gtaskqueue_run_locked (1,175 samples, 5.01%)</title><rect x="799.0" y="277" width="59.1" height="15.0" fill="rgb(248,107,25)" rx="2" ry="2" />
<text  x="802.05" y="287.5" >gtaskq..</text>
</g>
<g >
<title>netisr_dispatch_src (3,428 samples, 14.60%)</title><rect x="1004.7" y="197" width="172.3" height="15.0" fill="rgb(222,124,30)" rx="2" ry="2" />
<text  x="1007.68" y="207.5" >netisr_dispatch_src</text>
</g>
<g >
<title>pf_normalize_ip (232 samples, 0.99%)</title><rect x="743.6" y="37" width="11.6" height="15.0" fill="rgb(234,139,47)" rx="2" ry="2" />
<text  x="746.55" y="47.5" ></text>
</g>
<g >
<title>ixl_isc_rxd_pkt_get (202 samples, 0.86%)</title><rect x="769.1" y="197" width="10.2" height="15.0" fill="rgb(219,163,39)" rx="2" ry="2" />
<text  x="772.14" y="207.5" ></text>
</g>
<g >
<title>grouptaskqueue_enqueue (431 samples, 1.84%)</title><rect x="103.4" y="213" width="21.7" height="15.0" fill="rgb(253,97,51)" rx="2" ry="2" />
<text  x="106.39" y="223.5" >g..</text>
</g>
<g >
<title>sleepq_lock (14 samples, 0.06%)</title><rect x="798.3" y="213" width="0.7" height="15.0" fill="rgb(247,59,42)" rx="2" ry="2" />
<text  x="801.34" y="223.5" ></text>
</g>
<g >
<title>ether_output (1,384 samples, 5.90%)</title><rect x="10.0" y="133" width="69.6" height="15.0" fill="rgb(249,137,37)" rx="2" ry="2" />
<text  x="13.00" y="143.5" >ether_o..</text>
</g>
<g >
<title>ifmp_ring_enqueue (332 samples, 1.41%)</title><rect x="79.6" y="117" width="16.7" height="15.0" fill="rgb(250,191,36)" rx="2" ry="2" />
<text  x="82.57" y="127.5" ></text>
</g>
<g >
<title>ip_input (3,428 samples, 14.60%)</title><rect x="1004.7" y="181" width="172.3" height="15.0" fill="rgb(244,89,8)" rx="2" ry="2" />
<text  x="1007.68" y="191.5" >ip_input</text>
</g>
<g >
<title>ether_demux (2,916 samples, 12.42%)</title><rect x="858.1" y="165" width="146.6" height="15.0" fill="rgb(239,207,12)" rx="2" ry="2" />
<text  x="861.11" y="175.5" >ether_demux</text>
</g>
<g >
<title>sleepq_lock (2 samples, 0.01%)</title><rect x="1177.0" y="197" width="0.1" height="15.0" fill="rgb(211,211,17)" rx="2" ry="2" />
<text  x="1179.98" y="207.5" ></text>
</g>
<g >
<title>pf_test (439 samples, 1.87%)</title><rect x="836.0" y="85" width="22.1" height="15.0" fill="rgb(228,29,6)" rx="2" ry="2" />
<text  x="839.04" y="95.5" >p..</text>
</g>
<g >
<title>ether_output (400 samples, 1.70%)</title><rect x="799.0" y="117" width="20.2" height="15.0" fill="rgb(222,27,53)" rx="2" ry="2" />
<text  x="802.05" y="127.5" ></text>
</g>
<g >
<title>ether_output_frame (255 samples, 1.09%)</title><rect x="1177.2" y="165" width="12.8" height="15.0" fill="rgb(240,27,5)" rx="2" ry="2" />
<text  x="1180.18" y="175.5" ></text>
</g>
<g >
<title>gtaskqueue_thread_loop (2,916 samples, 12.42%)</title><rect x="858.1" y="277" width="146.6" height="15.0" fill="rgb(233,202,46)" rx="2" ry="2" />
<text  x="861.11" y="287.5" >gtaskqueue_thread_..</text>
</g>
<g >
<title>ether_output (255 samples, 1.09%)</title><rect x="1177.2" y="181" width="12.8" height="15.0" fill="rgb(247,121,6)" rx="2" ry="2" />
<text  x="1180.18" y="191.5" ></text>
</g>
<g >
<title>pf_get_translation (73 samples, 0.31%)</title><rect x="819.2" y="53" width="3.6" height="15.0" fill="rgb(240,124,31)" rx="2" ry="2" />
<text  x="822.15" y="63.5" ></text>
</g>
<g >
<title>pf_find_state (123 samples, 0.52%)</title><rect x="966.4" y="37" width="6.2" height="15.0" fill="rgb(232,218,7)" rx="2" ry="2" />
<text  x="969.43" y="47.5" ></text>
</g>
<g >
<title>pf_test_rule (80 samples, 0.34%)</title><rect x="836.0" y="69" width="4.1" height="15.0" fill="rgb(235,21,51)" rx="2" ry="2" />
<text  x="839.04" y="79.5" ></text>
</g>
<g >
<title>drain_ring_lockless (332 samples, 1.41%)</title><rect x="79.6" y="101" width="16.7" height="15.0" fill="rgb(205,139,46)" rx="2" ry="2" />
<text  x="82.57" y="111.5" ></text>
</g>
<g >
<title>_rm_rlock (131 samples, 0.56%)</title><rect x="245.4" y="37" width="6.6" height="15.0" fill="rgb(245,89,49)" rx="2" ry="2" />
<text  x="248.39" y="47.5" ></text>
</g>
<g >
<title>uma_zfree_arg (255 samples, 1.09%)</title><rect x="1177.2" y="37" width="12.8" height="15.0" fill="rgb(217,39,45)" rx="2" ry="2" />
<text  x="1180.18" y="47.5" ></text>
</g>
<g >
<title>ether_demux (1,384 samples, 5.90%)</title><rect x="10.0" y="197" width="69.6" height="15.0" fill="rgb(232,151,30)" rx="2" ry="2" />
<text  x="13.00" y="207.5" >ether_d..</text>
</g>
<g >
<title>ifmp_ring_enqueue (438 samples, 1.87%)</title><rect x="171.6" y="37" width="22.1" height="15.0" fill="rgb(210,137,33)" rx="2" ry="2" />
<text  x="174.65" y="47.5" >i..</text>
</g>
<g >
<title>bus_dmamap_load_mbuf_sg (332 samples, 1.41%)</title><rect x="79.6" y="53" width="16.7" height="15.0" fill="rgb(249,91,25)" rx="2" ry="2" />
<text  x="82.57" y="63.5" ></text>
</g>
<g >
<title>pf_check_out (336 samples, 1.43%)</title><rect x="819.2" y="101" width="16.8" height="15.0" fill="rgb(239,118,7)" rx="2" ry="2" />
<text  x="822.15" y="111.5" ></text>
</g>
<g >
<title>uma_zfree_arg (31 samples, 0.13%)</title><rect x="964.3" y="37" width="1.6" height="15.0" fill="rgb(250,63,32)" rx="2" ry="2" />
<text  x="967.31" y="47.5" ></text>
</g>
<g >
<title>netisr_dispatch_src (12,618 samples, 53.75%)</title><rect x="134.9" y="133" width="634.2" height="15.0" fill="rgb(246,168,32)" rx="2" ry="2" />
<text  x="137.91" y="143.5" >netisr_dispatch_src</text>
</g>
<g >
<title>iflib_txq_drain (255 samples, 1.09%)</title><rect x="1177.2" y="101" width="12.8" height="15.0" fill="rgb(234,205,12)" rx="2" ry="2" />
<text  x="1180.18" y="111.5" ></text>
</g>
<g >
<title>ixl_isc_txd_flush (612 samples, 2.61%)</title><rect x="1146.2" y="37" width="30.8" height="15.0" fill="rgb(251,223,41)" rx="2" ry="2" />
<text  x="1149.22" y="47.5" >ix..</text>
</g>
<g >
<title>ip_tryforward (2,916 samples, 12.42%)</title><rect x="858.1" y="117" width="146.6" height="15.0" fill="rgb(214,157,43)" rx="2" ry="2" />
<text  x="861.11" y="127.5" >ip_tryforward</text>
</g>
<g >
<title>m_freem (255 samples, 1.09%)</title><rect x="1177.2" y="69" width="12.8" height="15.0" fill="rgb(247,47,7)" rx="2" ry="2" />
<text  x="1180.18" y="79.5" ></text>
</g>
<g >
<title>ip_input (2,916 samples, 12.42%)</title><rect x="858.1" y="133" width="146.6" height="15.0" fill="rgb(217,172,17)" rx="2" ry="2" />
<text  x="861.11" y="143.5" >ip_input</text>
</g>
<g >
<title>ip_findroute (153 samples, 0.65%)</title><rect x="203.6" y="85" width="7.7" height="15.0" fill="rgb(240,190,14)" rx="2" ry="2" />
<text  x="206.62" y="95.5" ></text>
</g>
<g >
<title>netisr_dispatch_src (2,916 samples, 12.42%)</title><rect x="858.1" y="149" width="146.6" height="15.0" fill="rgb(211,72,20)" rx="2" ry="2" />
<text  x="861.11" y="159.5" >netisr_dispatch_src</text>
</g>
<g >
<title>pf_test_rule (567 samples, 2.42%)</title><rect x="937.4" y="53" width="28.5" height="15.0" fill="rgb(215,127,13)" rx="2" ry="2" />
<text  x="940.37" y="63.5" >pf..</text>
</g>
<g >
<title>ether_nh_input (474 samples, 2.02%)</title><rect x="79.6" y="245" width="23.8" height="15.0" fill="rgb(249,121,5)" rx="2" ry="2" />
<text  x="82.57" y="255.5" >e..</text>
</g>
<g >
<title>netisr_dispatch_src (255 samples, 1.09%)</title><rect x="1177.2" y="229" width="12.8" height="15.0" fill="rgb(206,147,16)" rx="2" ry="2" />
<text  x="1180.18" y="239.5" ></text>
</g>
<g >
<title>iflib_rxeof (13,395 samples, 57.06%)</title><rect x="125.1" y="213" width="673.2" height="15.0" fill="rgb(248,146,17)" rx="2" ry="2" />
<text  x="128.05" y="223.5" >iflib_rxeof</text>
</g>
<g >
<title>ether_nh_input (2,916 samples, 12.42%)</title><rect x="858.1" y="181" width="146.6" height="15.0" fill="rgb(250,94,49)" rx="2" ry="2" />
<text  x="861.11" y="191.5" >ether_nh_input</text>
</g>
<g >
<title>iflib_if_transmit (1,577 samples, 6.72%)</title><rect x="858.1" y="69" width="79.3" height="15.0" fill="rgb(214,165,35)" rx="2" ry="2" />
<text  x="861.11" y="79.5" >iflib_if_..</text>
</g>
<g >
<title>pf_test (638 samples, 2.72%)</title><rect x="972.6" y="69" width="32.1" height="15.0" fill="rgb(230,57,54)" rx="2" ry="2" />
<text  x="975.61" y="79.5" >pf..</text>
</g>
<g >
<title>ip_input (255 samples, 1.09%)</title><rect x="1177.2" y="213" width="12.8" height="15.0" fill="rgb(238,8,52)" rx="2" ry="2" />
<text  x="1180.18" y="223.5" ></text>
</g>
<g >
<title>iflib_rxeof (1,175 samples, 5.01%)</title><rect x="799.0" y="245" width="59.1" height="15.0" fill="rgb(241,70,54)" rx="2" ry="2" />
<text  x="802.05" y="255.5" >iflib_..</text>
</g>
<g >
<title>memset_erms (376 samples, 1.60%)</title><rect x="937.4" y="37" width="18.9" height="15.0" fill="rgb(235,186,17)" rx="2" ry="2" />
<text  x="940.37" y="47.5" ></text>
</g>
<g >
<title>iflib_txd_db_check (500 samples, 2.13%)</title><rect x="54.4" y="37" width="25.2" height="15.0" fill="rgb(249,195,29)" rx="2" ry="2" />
<text  x="57.43" y="47.5" >i..</text>
</g>
<g >
<title>iflib_if_transmit (255 samples, 1.09%)</title><rect x="1177.2" y="149" width="12.8" height="15.0" fill="rgb(220,120,13)" rx="2" ry="2" />
<text  x="1180.18" y="159.5" ></text>
</g>
<g >
<title>_task_fn_rx (1,384 samples, 5.90%)</title><rect x="10.0" y="277" width="69.6" height="15.0" fill="rgb(247,156,45)" rx="2" ry="2" />
<text  x="13.00" y="287.5" >_task_f..</text>
</g>
<g >
<title>drain_ring_lockless (3,428 samples, 14.60%)</title><rect x="1004.7" y="85" width="172.3" height="15.0" fill="rgb(207,70,3)" rx="2" ry="2" />
<text  x="1007.68" y="95.5" >drain_ring_lockless</text>
</g>
<g >
<title>pf_test_rule (504 samples, 2.15%)</title><rect x="972.6" y="53" width="25.3" height="15.0" fill="rgb(216,69,39)" rx="2" ry="2" />
<text  x="975.61" y="63.5" >p..</text>
</g>
<g >
<title>ether_output (332 samples, 1.41%)</title><rect x="79.6" y="165" width="16.7" height="15.0" fill="rgb(207,104,4)" rx="2" ry="2" />
<text  x="82.57" y="175.5" ></text>
</g>
<g >
<title>pf_test_rule (73 samples, 0.31%)</title><rect x="819.2" y="69" width="3.6" height="15.0" fill="rgb(225,200,54)" rx="2" ry="2" />
<text  x="822.15" y="79.5" ></text>
</g>
<g >
<title>iflib_if_transmit (332 samples, 1.41%)</title><rect x="79.6" y="133" width="16.7" height="15.0" fill="rgb(229,118,0)" rx="2" ry="2" />
<text  x="82.57" y="143.5" ></text>
</g>
<g >
<title>ip_tryforward (1,384 samples, 5.90%)</title><rect x="10.0" y="149" width="69.6" height="15.0" fill="rgb(233,19,33)" rx="2" ry="2" />
<text  x="13.00" y="159.5" >ip_tryf..</text>
</g>
<g >
<title>memset_erms (4,042 samples, 17.22%)</title><rect x="540.4" y="37" width="203.2" height="15.0" fill="rgb(223,156,50)" rx="2" ry="2" />
<text  x="543.39" y="47.5" >memset_erms</text>
</g>
<g >
<title>ether_input (1,384 samples, 5.90%)</title><rect x="10.0" y="245" width="69.6" height="15.0" fill="rgb(243,152,48)" rx="2" ry="2" />
<text  x="13.00" y="255.5" >ether_i..</text>
</g>
<g >
<title>iflib_txq_drain (3,428 samples, 14.60%)</title><rect x="1004.7" y="69" width="172.3" height="15.0" fill="rgb(236,223,30)" rx="2" ry="2" />
<text  x="1007.68" y="79.5" >iflib_txq_drain</text>
</g>
<g >
<title>ip_tryforward (255 samples, 1.09%)</title><rect x="1177.2" y="197" width="12.8" height="15.0" fill="rgb(247,131,13)" rx="2" ry="2" />
<text  x="1180.18" y="207.5" ></text>
</g>
<g >
<title>iflib_encap (332 samples, 1.41%)</title><rect x="79.6" y="69" width="16.7" height="15.0" fill="rgb(236,72,8)" rx="2" ry="2" />
<text  x="82.57" y="79.5" ></text>
</g>
<g >
<title>pf_test_state (134 samples, 0.57%)</title><rect x="965.9" y="53" width="6.7" height="15.0" fill="rgb(236,118,44)" rx="2" ry="2" />
<text  x="968.87" y="63.5" ></text>
</g>
<g >
<title>pf_check_in (439 samples, 1.87%)</title><rect x="836.0" y="101" width="22.1" height="15.0" fill="rgb(227,171,17)" rx="2" ry="2" />
<text  x="839.04" y="111.5" >p..</text>
</g>
<g >
<title>drain_ring_lockless (1,577 samples, 6.72%)</title><rect x="858.1" y="37" width="79.3" height="15.0" fill="rgb(239,103,42)" rx="2" ry="2" />
<text  x="861.11" y="47.5" >drain_rin..</text>
</g>
<g >
<title>fork_exit (13,840 samples, 58.95%)</title><rect x="103.4" y="277" width="695.6" height="15.0" fill="rgb(223,53,4)" rx="2" ry="2" />
<text  x="106.39" y="287.5" >fork_exit</text>
</g>
<g >
<title>_task_fn_rx (1,175 samples, 5.01%)</title><rect x="799.0" y="261" width="59.1" height="15.0" fill="rgb(214,188,5)" rx="2" ry="2" />
<text  x="802.05" y="271.5" >_task_..</text>
</g>
<g >
<title>all (23,476 samples, 100%)</title><rect x="10.0" y="293" width="1180.0" height="15.0" fill="rgb(212,124,38)" rx="2" ry="2" />
<text  x="13.00" y="303.5" ></text>
</g>
<g >
<title>ifmp_ring_enqueue (400 samples, 1.70%)</title><rect x="799.0" y="69" width="20.2" height="15.0" fill="rgb(227,167,11)" rx="2" ry="2" />
<text  x="802.05" y="79.5" ></text>
</g>
<g >
<title>iflib_completed_tx_reclaim (455 samples, 1.94%)</title><rect x="10.0" y="37" width="22.9" height="15.0" fill="rgb(253,118,10)" rx="2" ry="2" />
<text  x="13.00" y="47.5" >i..</text>
</g>
<g >
<title>ether_output_frame (1,577 samples, 6.72%)</title><rect x="858.1" y="85" width="79.3" height="15.0" fill="rgb(225,143,38)" rx="2" ry="2" />
<text  x="861.11" y="95.5" >ether_out..</text>
</g>
<g >
<title>murmur3_32_hash32 (359 samples, 1.53%)</title><rect x="840.1" y="37" width="18.0" height="15.0" fill="rgb(252,172,25)" rx="2" ry="2" />
<text  x="843.06" y="47.5" ></text>
</g>
<g >
<title>pf_test (1,574 samples, 6.70%)</title><rect x="211.3" y="53" width="79.1" height="15.0" fill="rgb(243,159,8)" rx="2" ry="2" />
<text  x="214.31" y="63.5" >pf_test</text>
</g>
<g >
<title>wakeup (14 samples, 0.06%)</title><rect x="798.3" y="229" width="0.7" height="15.0" fill="rgb(232,36,2)" rx="2" ry="2" />
<text  x="801.34" y="239.5" ></text>
</g>
<g >
<title>pf_match_translation_rule (80 samples, 0.34%)</title><rect x="836.0" y="37" width="4.1" height="15.0" fill="rgb(233,118,38)" rx="2" ry="2" />
<text  x="839.04" y="47.5" ></text>
</g>
<g >
<title>ifmp_ring_enqueue (1,577 samples, 6.72%)</title><rect x="858.1" y="53" width="79.3" height="15.0" fill="rgb(227,66,38)" rx="2" ry="2" />
<text  x="861.11" y="63.5" >ifmp_ring..</text>
</g>
<g >
<title>netisr_dispatch_src (474 samples, 2.02%)</title><rect x="79.6" y="261" width="23.8" height="15.0" fill="rgb(219,159,4)" rx="2" ry="2" />
<text  x="82.57" y="271.5" >n..</text>
</g>
<g >
<title>iflib_rxeof (2,916 samples, 12.42%)</title><rect x="858.1" y="229" width="146.6" height="15.0" fill="rgb(234,18,39)" rx="2" ry="2" />
<text  x="861.11" y="239.5" >iflib_rxeof</text>
</g>
<g >
<title>netisr_dispatch_src (1,384 samples, 5.90%)</title><rect x="10.0" y="229" width="69.6" height="15.0" fill="rgb(237,164,21)" rx="2" ry="2" />
<text  x="13.00" y="239.5" >netisr_..</text>
</g>
<g >
<title>pfil_mbuf_in (638 samples, 2.72%)</title><rect x="972.6" y="101" width="32.1" height="15.0" fill="rgb(228,60,3)" rx="2" ry="2" />
<text  x="975.61" y="111.5" >pf..</text>
</g>
<g >
<title>pfil_mbuf_fwd (701 samples, 2.99%)</title><rect x="937.4" y="101" width="35.2" height="15.0" fill="rgb(236,174,20)" rx="2" ry="2" />
<text  x="940.37" y="111.5" >pf..</text>
</g>
<g >
<title>ether_output_frame (1,384 samples, 5.90%)</title><rect x="10.0" y="117" width="69.6" height="15.0" fill="rgb(214,114,13)" rx="2" ry="2" />
<text  x="13.00" y="127.5" >ether_o..</text>
</g>
<g >
<title>ixl_isc_txd_credits_update_hwb (2 samples, 0.01%)</title><rect x="1177.1" y="229" width="0.1" height="15.0" fill="rgb(220,187,24)" rx="2" ry="2" />
<text  x="1180.08" y="239.5" ></text>
</g>
<g >
<title>_rm_rlock (4,054 samples, 17.27%)</title><rect x="336.6" y="37" width="203.8" height="15.0" fill="rgb(205,190,50)" rx="2" ry="2" />
<text  x="339.62" y="47.5" >_rm_rlock</text>
</g>
<g >
<title>in_localip (142 samples, 0.60%)</title><rect x="96.3" y="165" width="7.1" height="15.0" fill="rgb(237,72,10)" rx="2" ry="2" />
<text  x="99.25" y="175.5" ></text>
</g>
<g >
<title>ether_input (1,175 samples, 5.01%)</title><rect x="799.0" y="229" width="59.1" height="15.0" fill="rgb(225,190,7)" rx="2" ry="2" />
<text  x="802.05" y="239.5" >ether_..</text>
</g>
<g >
<title>iflib_encap (429 samples, 1.83%)</title><rect x="32.9" y="37" width="21.5" height="15.0" fill="rgb(232,74,50)" rx="2" ry="2" />
<text  x="35.87" y="47.5" >i..</text>
</g>
<g >
<title>ether_demux (12,618 samples, 53.75%)</title><rect x="134.9" y="149" width="634.2" height="15.0" fill="rgb(216,57,46)" rx="2" ry="2" />
<text  x="137.91" y="159.5" >ether_demux</text>
</g>
<g >
<title>gtaskqueue_run_locked (13,840 samples, 58.95%)</title><rect x="103.4" y="245" width="695.6" height="15.0" fill="rgb(216,79,0)" rx="2" ry="2" />
<text  x="106.39" y="255.5" >gtaskqueue_run_locked</text>
</g>
<g >
<title>ether_output_frame (400 samples, 1.70%)</title><rect x="799.0" y="101" width="20.2" height="15.0" fill="rgb(227,3,17)" rx="2" ry="2" />
<text  x="802.05" y="111.5" ></text>
</g>
<g >
<title>ether_input (2,916 samples, 12.42%)</title><rect x="858.1" y="213" width="146.6" height="15.0" fill="rgb(252,46,30)" rx="2" ry="2" />
<text  x="861.11" y="223.5" >ether_input</text>
</g>
<g >
<title>iflib_txq_drain (1,384 samples, 5.90%)</title><rect x="10.0" y="53" width="69.6" height="15.0" fill="rgb(231,7,54)" rx="2" ry="2" />
<text  x="13.00" y="63.5" >iflib_t..</text>
</g>
<g >
<title>pfil_mbuf_in (439 samples, 1.87%)</title><rect x="836.0" y="117" width="22.1" height="15.0" fill="rgb(219,121,32)" rx="2" ry="2" />
<text  x="839.04" y="127.5" >p..</text>
</g>
<g >
<title>pf_match_rule (129 samples, 0.55%)</title><rect x="990.1" y="37" width="6.5" height="15.0" fill="rgb(227,101,38)" rx="2" ry="2" />
<text  x="993.15" y="47.5" ></text>
</g>
<g >
<title>drain_ring_lockless (400 samples, 1.70%)</title><rect x="799.0" y="53" width="20.2" height="15.0" fill="rgb(222,23,47)" rx="2" ry="2" />
<text  x="802.05" y="63.5" ></text>
</g>
<g >
<title>murmur3_32_hash32 (263 samples, 1.12%)</title><rect x="822.8" y="37" width="13.2" height="15.0" fill="rgb(207,74,10)" rx="2" ry="2" />
<text  x="825.82" y="47.5" ></text>
</g>
<g >
<title>m_free (255 samples, 1.09%)</title><rect x="1177.2" y="53" width="12.8" height="15.0" fill="rgb(234,48,14)" rx="2" ry="2" />
<text  x="1180.18" y="63.5" ></text>
</g>
<g >
<title>netisr_dispatch_src (1,175 samples, 5.01%)</title><rect x="799.0" y="213" width="59.1" height="15.0" fill="rgb(224,66,53)" rx="2" ry="2" />
<text  x="802.05" y="223.5" >netisr..</text>
</g>
<g >
<title>ixl_isc_txd_credits_update_hwb (177 samples, 0.75%)</title><rect x="1004.7" y="37" width="8.9" height="15.0" fill="rgb(244,105,17)" rx="2" ry="2" />
<text  x="1007.68" y="47.5" ></text>
</g>
<g >
<title>ifmp_ring_enqueue (3,428 samples, 14.60%)</title><rect x="1004.7" y="101" width="172.3" height="15.0" fill="rgb(211,164,54)" rx="2" ry="2" />
<text  x="1007.68" y="111.5" >ifmp_ring_enqueue</text>
</g>
<g >
<title>intr_execute_handlers (4 samples, 0.02%)</title><rect x="1177.0" y="277" width="0.2" height="15.0" fill="rgb(231,178,18)" rx="2" ry="2" />
<text  x="1179.98" y="287.5" ></text>
</g>
<g >
<title>pf_find_state (118 samples, 0.50%)</title><rect x="998.7" y="37" width="6.0" height="15.0" fill="rgb(229,153,30)" rx="2" ry="2" />
<text  x="1001.75" y="47.5" ></text>
</g>
<g >
<title>grouptaskqueue_enqueue (2 samples, 0.01%)</title><rect x="1177.0" y="229" width="0.1" height="15.0" fill="rgb(226,0,32)" rx="2" ry="2" />
<text  x="1179.98" y="239.5" ></text>
</g>
<g >
<title>memset_erms (185 samples, 0.79%)</title><rect x="252.0" y="37" width="9.3" height="15.0" fill="rgb(206,26,2)" rx="2" ry="2" />
<text  x="254.97" y="47.5" ></text>
</g>
<g >
<title>iflib_if_transmit (400 samples, 1.70%)</title><rect x="799.0" y="85" width="20.2" height="15.0" fill="rgb(226,182,24)" rx="2" ry="2" />
<text  x="802.05" y="95.5" ></text>
</g>
<g >
<title>pf_test_rule (214 samples, 0.91%)</title><rect x="279.7" y="37" width="10.7" height="15.0" fill="rgb(249,137,26)" rx="2" ry="2" />
<text  x="282.67" y="47.5" ></text>
</g>
<g >
<title>ixl_isc_txd_encap (2,639 samples, 11.24%)</title><rect x="1013.6" y="37" width="132.6" height="15.0" fill="rgb(254,2,24)" rx="2" ry="2" />
<text  x="1016.57" y="47.5" >ixl_isc_txd_encap</text>
</g>
<g >
<title>netisr_dispatch_src (12,618 samples, 53.75%)</title><rect x="134.9" y="181" width="634.2" height="15.0" fill="rgb(232,108,24)" rx="2" ry="2" />
<text  x="137.91" y="191.5" >netisr_dispatch_src</text>
</g>
<g >
<title>pf_test (9,524 samples, 40.57%)</title><rect x="290.4" y="53" width="478.7" height="15.0" fill="rgb(243,219,40)" rx="2" ry="2" />
<text  x="293.42" y="63.5" >pf_test</text>
</g>
<g >
<title>netisr_dispatch_src (255 samples, 1.09%)</title><rect x="1177.2" y="277" width="12.8" height="15.0" fill="rgb(236,63,52)" rx="2" ry="2" />
<text  x="1180.18" y="287.5" ></text>
</g>
<g >
<title>pf_normalize_ip (366 samples, 1.56%)</title><rect x="261.3" y="37" width="18.4" height="15.0" fill="rgb(254,91,41)" rx="2" ry="2" />
<text  x="264.27" y="47.5" ></text>
</g>
<g >
<title>pfil_mbuf_in (9,524 samples, 40.57%)</title><rect x="290.4" y="85" width="478.7" height="15.0" fill="rgb(226,72,43)" rx="2" ry="2" />
<text  x="293.42" y="95.5" >pfil_mbuf_in</text>
</g>
<g >
<title>iflib_txq_drain (400 samples, 1.70%)</title><rect x="799.0" y="37" width="20.2" height="15.0" fill="rgb(247,163,13)" rx="2" ry="2" />
<text  x="802.05" y="47.5" ></text>
</g>
<g >
<title>pf_check_out (701 samples, 2.99%)</title><rect x="937.4" y="85" width="35.2" height="15.0" fill="rgb(253,225,24)" rx="2" ry="2" />
<text  x="940.37" y="95.5" >pf..</text>
</g>
<g >
<title>memset_erms (349 samples, 1.49%)</title><rect x="972.6" y="37" width="17.5" height="15.0" fill="rgb(254,66,18)" rx="2" ry="2" />
<text  x="975.61" y="47.5" ></text>
</g>
<g >
<title>ip_input (474 samples, 2.02%)</title><rect x="79.6" y="197" width="23.8" height="15.0" fill="rgb(246,128,6)" rx="2" ry="2" />
<text  x="82.57" y="207.5" >i..</text>
</g>
<g >
<title>netisr_dispatch_src (2,916 samples, 12.42%)</title><rect x="858.1" y="197" width="146.6" height="15.0" fill="rgb(254,136,38)" rx="2" ry="2" />
<text  x="861.11" y="207.5" >netisr_dispatch_src</text>
</g>
</g>
</svg>
