<?xml version="1.0" standalone="no"?>
<!DOCTYPE svg PUBLIC "-//W3C//DTD SVG 1.1//EN" "http://www.w3.org/Graphics/SVG/1.1/DTD/svg11.dtd">
<svg version="1.1" width="1200" height="342" onload="init(evt)" viewBox="0 0 1200 342" xmlns="http://www.w3.org/2000/svg" xmlns:xlink="http://www.w3.org/1999/xlink">
<!-- Flame graph stack visualization. See https://github.com/brendangregg/FlameGraph for latest version, and http://www.brendangregg.com/flamegraphs.html for examples. -->
<!-- NOTES:  -->
<defs>
	<linearGradient id="background" y1="0" y2="1" x1="0" x2="0" >
		<stop stop-color="#eeeeee" offset="5%" />
		<stop stop-color="#eeeeb0" offset="95%" />
	</linearGradient>
</defs>
<style type="text/css">
	text { font-family:Verdana; font-size:12px; fill:rgb(0,0,0); }
	#search, #ignorecase { opacity:0.1; cursor:pointer; }
	#search:hover, #search.show, #ignorecase:hover, #ignorecase.show { opacity:1; }
	#subtitle { text-anchor:middle; font-color:rgb(160,160,160); }
	#title { text-anchor:middle; font-size:17px}
	#unzoom { cursor:pointer; }
	#frames > *:hover { stroke:black; stroke-width:0.5; cursor:pointer; }
	.hide { display:none; }
	.parent { opacity:0.5; }
</style>
<script type="text/ecmascript">
<![CDATA[
	"use strict";
	var details, searchbtn, unzoombtn, matchedtxt, svg, searching, currentSearchTerm, ignorecase, ignorecaseBtn;
	function init(evt) {
		details = document.getElementById("details").firstChild;
		searchbtn = document.getElementById("search");
		ignorecaseBtn = document.getElementById("ignorecase");
		unzoombtn = document.getElementById("unzoom");
		matchedtxt = document.getElementById("matched");
		svg = document.getElementsByTagName("svg")[0];
		searching = 0;
		currentSearchTerm = null;

		// use GET parameters to restore a flamegraphs state.
		var params = get_params();
		if (params.x && params.y)
			zoom(find_group(document.querySelector('[x="' + params.x + '"][y="' + params.y + '"]')));
                if (params.s) search(params.s);
	}

	// event listeners
	window.addEventListener("click", function(e) {
		var target = find_group(e.target);
		if (target) {
			if (target.nodeName == "a") {
				if (e.ctrlKey === false) return;
				e.preventDefault();
			}
			if (target.classList.contains("parent")) unzoom();
			zoom(target);
			if (!document.querySelector('.parent')) {
				clearzoom();
				return;
			}

			// set parameters for zoom state
			var el = target.querySelector("rect");
			if (el && el.attributes && el.attributes.y && el.attributes._orig_x) {
				var params = get_params()
				params.x = el.attributes._orig_x.value;
				params.y = el.attributes.y.value;
				history.replaceState(null, null, parse_params(params));
			}
		}
		else if (e.target.id == "unzoom") clearzoom();
		else if (e.target.id == "search") search_prompt();
		else if (e.target.id == "ignorecase") toggle_ignorecase();
	}, false)

	// mouse-over for info
	// show
	window.addEventListener("mouseover", function(e) {
		var target = find_group(e.target);
		if (target) details.nodeValue = "Function: " + g_to_text(target);
	}, false)

	// clear
	window.addEventListener("mouseout", function(e) {
		var target = find_group(e.target);
		if (target) details.nodeValue = ' ';
	}, false)

	// ctrl-F for search
	// ctrl-I to toggle case-sensitive search
	window.addEventListener("keydown",function (e) {
		if (e.keyCode === 114 || (e.ctrlKey && e.keyCode === 70)) {
			e.preventDefault();
			search_prompt();
		}
		else if (e.ctrlKey && e.keyCode === 73) {
			e.preventDefault();
			toggle_ignorecase();
		}
	}, false)

	// functions
	function get_params() {
		var params = {};
		var paramsarr = window.location.search.substr(1).split('&');
		for (var i = 0; i < paramsarr.length; ++i) {
			var tmp = paramsarr[i].split("=");
			if (!tmp[0] || !tmp[1]) continue;
			params[tmp[0]]  = decodeURIComponent(tmp[1]);
		}
		return params;
	}
	function parse_params(params) {
		var uri = "?";
		for (var key in params) {
			uri += key + '=' + encodeURIComponent(params[key]) + '&';
		}
		if (uri.slice(-1) == "&")
			uri = uri.substring(0, uri.length - 1);
		if (uri == '?')
			uri = window.location.href.split('?')[0];
		return uri;
	}
	function find_child(node, selector) {
		var children = node.querySelectorAll(selector);
		if (children.length) return children[0];
	}
	function find_group(node) {
		var parent = node.parentElement;
		if (!parent) return;
		if (parent.id == "frames") return node;
		return find_group(parent);
	}
	function orig_save(e, attr, val) {
		if (e.attributes["_orig_" + attr] != undefined) return;
		if (e.attributes[attr] == undefined) return;
		if (val == undefined) val = e.attributes[attr].value;
		e.setAttribute("_orig_" + attr, val);
	}
	function orig_load(e, attr) {
		if (e.attributes["_orig_"+attr] == undefined) return;
		e.attributes[attr].value = e.attributes["_orig_" + attr].value;
		e.removeAttribute("_orig_"+attr);
	}
	function g_to_text(e) {
		var text = find_child(e, "title").firstChild.nodeValue;
		return (text)
	}
	function g_to_func(e) {
		var func = g_to_text(e);
		// if there's any manipulation we want to do to the function
		// name before it's searched, do it here before returning.
		return (func);
	}
	function update_text(e) {
		var r = find_child(e, "rect");
		var t = find_child(e, "text");
		var w = parseFloat(r.attributes.width.value) -3;
		var txt = find_child(e, "title").textContent.replace(/\([^(]*\)$/,"");
		t.attributes.x.value = parseFloat(r.attributes.x.value) + 3;

		// Smaller than this size won't fit anything
		if (w < 2 * 12 * 0.59) {
			t.textContent = "";
			return;
		}

		t.textContent = txt;
		// Fit in full text width
		if (/^ *$/.test(txt) || t.getSubStringLength(0, txt.length) < w)
			return;

		for (var x = txt.length - 2; x > 0; x--) {
			if (t.getSubStringLength(0, x + 2) <= w) {
				t.textContent = txt.substring(0, x) + "..";
				return;
			}
		}
		t.textContent = "";
	}

	// zoom
	function zoom_reset(e) {
		if (e.attributes != undefined) {
			orig_load(e, "x");
			orig_load(e, "width");
		}
		if (e.childNodes == undefined) return;
		for (var i = 0, c = e.childNodes; i < c.length; i++) {
			zoom_reset(c[i]);
		}
	}
	function zoom_child(e, x, ratio) {
		if (e.attributes != undefined) {
			if (e.attributes.x != undefined) {
				orig_save(e, "x");
				e.attributes.x.value = (parseFloat(e.attributes.x.value) - x - 10) * ratio + 10;
				if (e.tagName == "text")
					e.attributes.x.value = find_child(e.parentNode, "rect[x]").attributes.x.value + 3;
			}
			if (e.attributes.width != undefined) {
				orig_save(e, "width");
				e.attributes.width.value = parseFloat(e.attributes.width.value) * ratio;
			}
		}

		if (e.childNodes == undefined) return;
		for (var i = 0, c = e.childNodes; i < c.length; i++) {
			zoom_child(c[i], x - 10, ratio);
		}
	}
	function zoom_parent(e) {
		if (e.attributes) {
			if (e.attributes.x != undefined) {
				orig_save(e, "x");
				e.attributes.x.value = 10;
			}
			if (e.attributes.width != undefined) {
				orig_save(e, "width");
				e.attributes.width.value = parseInt(svg.width.baseVal.value) - (10 * 2);
			}
		}
		if (e.childNodes == undefined) return;
		for (var i = 0, c = e.childNodes; i < c.length; i++) {
			zoom_parent(c[i]);
		}
	}
	function zoom(node) {
		var attr = find_child(node, "rect").attributes;
		var width = parseFloat(attr.width.value);
		var xmin = parseFloat(attr.x.value);
		var xmax = parseFloat(xmin + width);
		var ymin = parseFloat(attr.y.value);
		var ratio = (svg.width.baseVal.value - 2 * 10) / width;

		// XXX: Workaround for JavaScript float issues (fix me)
		var fudge = 0.0001;

		unzoombtn.classList.remove("hide");

		var el = document.getElementById("frames").children;
		for (var i = 0; i < el.length; i++) {
			var e = el[i];
			var a = find_child(e, "rect").attributes;
			var ex = parseFloat(a.x.value);
			var ew = parseFloat(a.width.value);
			var upstack;
			// Is it an ancestor
			if (0 == 0) {
				upstack = parseFloat(a.y.value) > ymin;
			} else {
				upstack = parseFloat(a.y.value) < ymin;
			}
			if (upstack) {
				// Direct ancestor
				if (ex <= xmin && (ex+ew+fudge) >= xmax) {
					e.classList.add("parent");
					zoom_parent(e);
					update_text(e);
				}
				// not in current path
				else
					e.classList.add("hide");
			}
			// Children maybe
			else {
				// no common path
				if (ex < xmin || ex + fudge >= xmax) {
					e.classList.add("hide");
				}
				else {
					zoom_child(e, xmin, ratio);
					update_text(e);
				}
			}
		}
		search();
	}
	function unzoom() {
		unzoombtn.classList.add("hide");
		var el = document.getElementById("frames").children;
		for(var i = 0; i < el.length; i++) {
			el[i].classList.remove("parent");
			el[i].classList.remove("hide");
			zoom_reset(el[i]);
			update_text(el[i]);
		}
		search();
	}
	function clearzoom() {
		unzoom();

		// remove zoom state
		var params = get_params();
		if (params.x) delete params.x;
		if (params.y) delete params.y;
		history.replaceState(null, null, parse_params(params));
	}

	// search
	function toggle_ignorecase() {
		ignorecase = !ignorecase;
		if (ignorecase) {
			ignorecaseBtn.classList.add("show");
		} else {
			ignorecaseBtn.classList.remove("show");
		}
		reset_search();
		search();
	}
	function reset_search() {
		var el = document.querySelectorAll("#frames rect");
		for (var i = 0; i < el.length; i++) {
			orig_load(el[i], "fill")
		}
		var params = get_params();
		delete params.s;
		history.replaceState(null, null, parse_params(params));
	}
	function search_prompt() {
		if (!searching) {
			var term = prompt("Enter a search term (regexp " +
			    "allowed, eg: ^ext4_)"
			    + (ignorecase ? ", ignoring case" : "")
			    + "\nPress Ctrl-i to toggle case sensitivity", "");
			if (term != null) search(term);
		} else {
			reset_search();
			searching = 0;
			currentSearchTerm = null;
			searchbtn.classList.remove("show");
			searchbtn.firstChild.nodeValue = "Search"
			matchedtxt.classList.add("hide");
			matchedtxt.firstChild.nodeValue = ""
		}
	}
	function search(term) {
		if (term) currentSearchTerm = term;

		var re = new RegExp(currentSearchTerm, ignorecase ? 'i' : '');
		var el = document.getElementById("frames").children;
		var matches = new Object();
		var maxwidth = 0;
		for (var i = 0; i < el.length; i++) {
			var e = el[i];
			var func = g_to_func(e);
			var rect = find_child(e, "rect");
			if (func == null || rect == null)
				continue;

			// Save max width. Only works as we have a root frame
			var w = parseFloat(rect.attributes.width.value);
			if (w > maxwidth)
				maxwidth = w;

			if (func.match(re)) {
				// highlight
				var x = parseFloat(rect.attributes.x.value);
				orig_save(rect, "fill");
				rect.attributes.fill.value = "rgb(230,0,230)";

				// remember matches
				if (matches[x] == undefined) {
					matches[x] = w;
				} else {
					if (w > matches[x]) {
						// overwrite with parent
						matches[x] = w;
					}
				}
				searching = 1;
			}
		}
		if (!searching)
			return;
		var params = get_params();
		params.s = currentSearchTerm;
		history.replaceState(null, null, parse_params(params));

		searchbtn.classList.add("show");
		searchbtn.firstChild.nodeValue = "Reset Search";

		// calculate percent matched, excluding vertical overlap
		var count = 0;
		var lastx = -1;
		var lastw = 0;
		var keys = Array();
		for (k in matches) {
			if (matches.hasOwnProperty(k))
				keys.push(k);
		}
		// sort the matched frames by their x location
		// ascending, then width descending
		keys.sort(function(a, b){
			return a - b;
		});
		// Step through frames saving only the biggest bottom-up frames
		// thanks to the sort order. This relies on the tree property
		// where children are always smaller than their parents.
		var fudge = 0.0001;	// JavaScript floating point
		for (var k in keys) {
			var x = parseFloat(keys[k]);
			var w = matches[keys[k]];
			if (x >= lastx + lastw - fudge) {
				count += w;
				lastx = x;
				lastw = w;
			}
		}
		// display matched percent
		matchedtxt.classList.remove("hide");
		var pct = 100 * count / maxwidth;
		if (pct != 100) pct = pct.toFixed(1)
		matchedtxt.firstChild.nodeValue = "Matched: " + pct + "%";
	}
]]>
</script>
<rect x="0.0" y="0" width="1200.0" height="342.0" fill="url(#background)"  />
<text id="title" x="600.00" y="24" >Flame Graph</text>
<text id="details" x="10.00" y="325" > </text>
<text id="unzoom" x="10.00" y="24" class="hide">Reset Zoom</text>
<text id="search" x="1090.00" y="24" >Search</text>
<text id="ignorecase" x="1174.00" y="24" >ic</text>
<text id="matched" x="1090.00" y="325" > </text>
<g id="frames">
<g >
<title>ether_output (3,016 samples, 12.46%)</title><rect x="1025.6" y="149" width="147.1" height="15.0" fill="rgb(227,114,37)" rx="2" ry="2" />
<text  x="1028.64" y="159.5" >ether_output</text>
</g>
<g >
<title>m_free (222 samples, 0.92%)</title><rect x="1179.2" y="53" width="10.8" height="15.0" fill="rgb(212,19,54)" rx="2" ry="2" />
<text  x="1182.18" y="63.5" ></text>
</g>
<g >
<title>iflib_rxeof (3,016 samples, 12.46%)</title><rect x="1025.6" y="277" width="147.1" height="15.0" fill="rgb(237,191,16)" rx="2" ry="2" />
<text  x="1028.64" y="287.5" >iflib_rxeof</text>
</g>
<g >
<title>bus_dmamap_load_mbuf_sg (302 samples, 1.25%)</title><rect x="83.0" y="53" width="14.7" height="15.0" fill="rgb(247,85,29)" rx="2" ry="2" />
<text  x="85.99" y="63.5" ></text>
</g>
<g >
<title>pf_check_in (779 samples, 3.22%)</title><rect x="821.5" y="101" width="38.0" height="15.0" fill="rgb(229,73,29)" rx="2" ry="2" />
<text  x="824.55" y="111.5" >pf_..</text>
</g>
<g >
<title>pfil_mbuf_in (850 samples, 3.51%)</title><rect x="984.2" y="101" width="41.4" height="15.0" fill="rgb(241,69,43)" rx="2" ry="2" />
<text  x="987.20" y="111.5" >pfi..</text>
</g>
<g >
<title>ip_input (1,899 samples, 7.85%)</title><rect x="766.9" y="149" width="92.6" height="15.0" fill="rgb(246,64,32)" rx="2" ry="2" />
<text  x="769.94" y="159.5" >ip_input</text>
</g>
<g >
<title>wakeup (13 samples, 0.05%)</title><rect x="766.3" y="229" width="0.6" height="15.0" fill="rgb(211,53,37)" rx="2" ry="2" />
<text  x="769.31" y="239.5" ></text>
</g>
<g >
<title>ether_nh_input (1,899 samples, 7.85%)</title><rect x="766.9" y="197" width="92.6" height="15.0" fill="rgb(235,188,21)" rx="2" ry="2" />
<text  x="769.94" y="207.5" >ether_nh_in..</text>
</g>
<g >
<title>pf_test_rule (3 samples, 0.01%)</title><rect x="784.9" y="69" width="0.1" height="15.0" fill="rgb(220,49,38)" rx="2" ry="2" />
<text  x="787.88" y="79.5" ></text>
</g>
<g >
<title>ether_output (1,497 samples, 6.19%)</title><rect x="10.0" y="133" width="73.0" height="15.0" fill="rgb(241,169,24)" rx="2" ry="2" />
<text  x="13.00" y="143.5" >ether_ou..</text>
</g>
<g >
<title>pf_test (1,092 samples, 4.51%)</title><rect x="225.4" y="53" width="53.2" height="15.0" fill="rgb(242,145,14)" rx="2" ry="2" />
<text  x="228.36" y="63.5" >pf_test</text>
</g>
<g >
<title>netisr_dispatch_src (3,407 samples, 14.08%)</title><rect x="859.5" y="149" width="166.1" height="15.0" fill="rgb(250,110,32)" rx="2" ry="2" />
<text  x="862.53" y="159.5" >netisr_dispatch_src</text>
</g>
<g >
<title>iflib_if_transmit (350 samples, 1.45%)</title><rect x="1172.9" y="149" width="17.1" height="15.0" fill="rgb(234,123,38)" rx="2" ry="2" />
<text  x="1175.94" y="159.5" ></text>
</g>
<g >
<title>ether_nh_input (3,407 samples, 14.08%)</title><rect x="859.5" y="181" width="166.1" height="15.0" fill="rgb(206,44,26)" rx="2" ry="2" />
<text  x="862.53" y="191.5" >ether_nh_input</text>
</g>
<g >
<title>ip_input (1,497 samples, 6.19%)</title><rect x="10.0" y="165" width="73.0" height="15.0" fill="rgb(205,164,34)" rx="2" ry="2" />
<text  x="13.00" y="175.5" >ip_input</text>
</g>
<g >
<title>ether_demux (1,497 samples, 6.19%)</title><rect x="10.0" y="197" width="73.0" height="15.0" fill="rgb(235,160,46)" rx="2" ry="2" />
<text  x="13.00" y="207.5" >ether_de..</text>
</g>
<g >
<title>drain_ring_lockless (1,752 samples, 7.24%)</title><rect x="859.5" y="37" width="85.5" height="15.0" fill="rgb(219,120,53)" rx="2" ry="2" />
<text  x="862.53" y="47.5" >drain_ring..</text>
</g>
<g >
<title>iflib_encap (302 samples, 1.25%)</title><rect x="83.0" y="69" width="14.7" height="15.0" fill="rgb(223,228,24)" rx="2" ry="2" />
<text  x="85.99" y="79.5" ></text>
</g>
<g >
<title>iflib_rxeof (13,122 samples, 54.22%)</title><rect x="126.5" y="213" width="639.8" height="15.0" fill="rgb(237,82,6)" rx="2" ry="2" />
<text  x="129.53" y="223.5" >iflib_rxeof</text>
</g>
<g >
<title>iflib_if_transmit (302 samples, 1.25%)</title><rect x="83.0" y="133" width="14.7" height="15.0" fill="rgb(220,154,43)" rx="2" ry="2" />
<text  x="85.99" y="143.5" ></text>
</g>
<g >
<title>gtaskqueue_run_locked (13,726 samples, 56.71%)</title><rect x="97.7" y="245" width="669.2" height="15.0" fill="rgb(224,50,32)" rx="2" ry="2" />
<text  x="100.71" y="255.5" >gtaskqueue_run_locked</text>
</g>
<g >
<title>ether_demux (302 samples, 1.25%)</title><rect x="83.0" y="229" width="14.7" height="15.0" fill="rgb(221,153,15)" rx="2" ry="2" />
<text  x="85.99" y="239.5" ></text>
</g>
<g >
<title>iflib_rxeof (1,497 samples, 6.19%)</title><rect x="10.0" y="261" width="73.0" height="15.0" fill="rgb(206,26,32)" rx="2" ry="2" />
<text  x="13.00" y="271.5" >iflib_rx..</text>
</g>
<g >
<title>ether_demux (12,096 samples, 49.98%)</title><rect x="146.6" y="149" width="589.7" height="15.0" fill="rgb(244,229,8)" rx="2" ry="2" />
<text  x="149.57" y="159.5" >ether_demux</text>
</g>
<g >
<title>pf_find_state (572 samples, 2.36%)</title><rect x="956.3" y="37" width="27.9" height="15.0" fill="rgb(212,75,13)" rx="2" ry="2" />
<text  x="959.31" y="47.5" >p..</text>
</g>
<g >
<title>ip_tryforward (1,899 samples, 7.85%)</title><rect x="766.9" y="133" width="92.6" height="15.0" fill="rgb(206,129,19)" rx="2" ry="2" />
<text  x="769.94" y="143.5" >ip_tryforward</text>
</g>
<g >
<title>memcpy_erms (32 samples, 0.13%)</title><rect x="745.4" y="197" width="1.6" height="15.0" fill="rgb(234,65,6)" rx="2" ry="2" />
<text  x="748.39" y="207.5" ></text>
</g>
<g >
<title>ixl_isc_txd_flush (375 samples, 1.55%)</title><rect x="1154.4" y="37" width="18.3" height="15.0" fill="rgb(239,180,40)" rx="2" ry="2" />
<text  x="1157.41" y="47.5" ></text>
</g>
<g >
<title>ip_input (12,096 samples, 49.98%)</title><rect x="146.6" y="117" width="589.7" height="15.0" fill="rgb(233,23,1)" rx="2" ry="2" />
<text  x="149.57" y="127.5" >ip_input</text>
</g>
<g >
<title>pf_test (752 samples, 3.11%)</title><rect x="784.9" y="85" width="36.6" height="15.0" fill="rgb(244,19,43)" rx="2" ry="2" />
<text  x="787.88" y="95.5" >pf_..</text>
</g>
<g >
<title>ether_output (548 samples, 2.26%)</title><rect x="180.7" y="85" width="26.8" height="15.0" fill="rgb(232,181,1)" rx="2" ry="2" />
<text  x="183.74" y="95.5" >e..</text>
</g>
<g >
<title>ifmp_ring_enqueue (3,016 samples, 12.46%)</title><rect x="1025.6" y="101" width="147.1" height="15.0" fill="rgb(210,119,36)" rx="2" ry="2" />
<text  x="1028.64" y="111.5" >ifmp_ring_enqueue</text>
</g>
<g >
<title>rxd_frag_to_sd (397 samples, 1.64%)</title><rect x="747.0" y="197" width="19.3" height="15.0" fill="rgb(216,212,32)" rx="2" ry="2" />
<text  x="749.95" y="207.5" ></text>
</g>
<g >
<title>memset_erms (3 samples, 0.01%)</title><rect x="784.9" y="37" width="0.1" height="15.0" fill="rgb(220,8,40)" rx="2" ry="2" />
<text  x="787.88" y="47.5" ></text>
</g>
<g >
<title>ether_output_frame (350 samples, 1.45%)</title><rect x="1172.9" y="165" width="17.1" height="15.0" fill="rgb(219,220,45)" rx="2" ry="2" />
<text  x="1175.94" y="175.5" ></text>
</g>
<g >
<title>ether_input (12,304 samples, 50.84%)</title><rect x="136.5" y="197" width="599.9" height="15.0" fill="rgb(237,160,40)" rx="2" ry="2" />
<text  x="139.47" y="207.5" >ether_input</text>
</g>
<g >
<title>sleepq_lock (3 samples, 0.01%)</title><rect x="1172.7" y="197" width="0.1" height="15.0" fill="rgb(211,70,40)" rx="2" ry="2" />
<text  x="1175.69" y="207.5" ></text>
</g>
<g >
<title>_task_fn_rx (1,899 samples, 7.85%)</title><rect x="766.9" y="261" width="92.6" height="15.0" fill="rgb(225,156,2)" rx="2" ry="2" />
<text  x="769.94" y="271.5" >_task_fn_rx</text>
</g>
<g >
<title>murmur3_32_hash32 (7 samples, 0.03%)</title><rect x="956.0" y="37" width="0.3" height="15.0" fill="rgb(218,51,49)" rx="2" ry="2" />
<text  x="958.97" y="47.5" ></text>
</g>
<g >
<title>iflib_completed_tx_reclaim (350 samples, 1.45%)</title><rect x="1172.9" y="85" width="17.1" height="15.0" fill="rgb(207,224,39)" rx="2" ry="2" />
<text  x="1175.94" y="95.5" ></text>
</g>
<g >
<title>sleepq_lock (459 samples, 1.90%)</title><rect x="104.1" y="181" width="22.4" height="15.0" fill="rgb(236,9,23)" rx="2" ry="2" />
<text  x="107.15" y="191.5" >s..</text>
</g>
<g >
<title>ether_nh_input (302 samples, 1.25%)</title><rect x="83.0" y="245" width="14.7" height="15.0" fill="rgb(222,59,26)" rx="2" ry="2" />
<text  x="85.99" y="255.5" ></text>
</g>
<g >
<title>ip_tryforward (3,407 samples, 14.08%)</title><rect x="859.5" y="117" width="166.1" height="15.0" fill="rgb(215,118,16)" rx="2" ry="2" />
<text  x="862.53" y="127.5" >ip_tryforward</text>
</g>
<g >
<title>netisr_dispatch_src (350 samples, 1.45%)</title><rect x="1172.9" y="229" width="17.1" height="15.0" fill="rgb(207,144,9)" rx="2" ry="2" />
<text  x="1175.94" y="239.5" ></text>
</g>
<g >
<title>m_freem (222 samples, 0.92%)</title><rect x="1179.2" y="69" width="10.8" height="15.0" fill="rgb(252,157,49)" rx="2" ry="2" />
<text  x="1182.18" y="79.5" ></text>
</g>
<g >
<title>ether_input (3,016 samples, 12.46%)</title><rect x="1025.6" y="261" width="147.1" height="15.0" fill="rgb(231,130,35)" rx="2" ry="2" />
<text  x="1028.64" y="271.5" >ether_input</text>
</g>
<g >
<title>drain_ring_lockless (1,497 samples, 6.19%)</title><rect x="10.0" y="69" width="73.0" height="15.0" fill="rgb(208,81,13)" rx="2" ry="2" />
<text  x="13.00" y="79.5" >drain_ri..</text>
</g>
<g >
<title>ip_input (302 samples, 1.25%)</title><rect x="83.0" y="197" width="14.7" height="15.0" fill="rgb(223,39,38)" rx="2" ry="2" />
<text  x="85.99" y="207.5" ></text>
</g>
<g >
<title>memset_erms (100 samples, 0.41%)</title><rect x="255.7" y="37" width="4.9" height="15.0" fill="rgb(228,70,54)" rx="2" ry="2" />
<text  x="258.68" y="47.5" ></text>
</g>
<g >
<title>uma_zfree_arg (222 samples, 0.92%)</title><rect x="1179.2" y="37" width="10.8" height="15.0" fill="rgb(220,47,32)" rx="2" ry="2" />
<text  x="1182.18" y="47.5" ></text>
</g>
<g >
<title>pf_check_out (805 samples, 3.33%)</title><rect x="945.0" y="85" width="39.2" height="15.0" fill="rgb(243,12,52)" rx="2" ry="2" />
<text  x="947.95" y="95.5" >pf_..</text>
</g>
<g >
<title>ether_output (302 samples, 1.25%)</title><rect x="83.0" y="165" width="14.7" height="15.0" fill="rgb(254,53,34)" rx="2" ry="2" />
<text  x="85.99" y="175.5" ></text>
</g>
<g >
<title>ifmp_ring_enqueue (1,752 samples, 7.24%)</title><rect x="859.5" y="53" width="85.5" height="15.0" fill="rgb(232,54,16)" rx="2" ry="2" />
<text  x="862.53" y="63.5" >ifmp_ring_..</text>
</g>
<g >
<title>iflib_if_transmit (3,016 samples, 12.46%)</title><rect x="1025.6" y="117" width="147.1" height="15.0" fill="rgb(218,200,49)" rx="2" ry="2" />
<text  x="1028.64" y="127.5" >iflib_if_transmit</text>
</g>
<g >
<title>ifmp_ring_enqueue (350 samples, 1.45%)</title><rect x="1172.9" y="133" width="17.1" height="15.0" fill="rgb(248,68,33)" rx="2" ry="2" />
<text  x="1175.94" y="143.5" ></text>
</g>
<g >
<title>netisr_dispatch_src (1,899 samples, 7.85%)</title><rect x="766.9" y="213" width="92.6" height="15.0" fill="rgb(222,229,24)" rx="2" ry="2" />
<text  x="769.94" y="223.5" >netisr_disp..</text>
</g>
<g >
<title>wakeup_any (3 samples, 0.01%)</title><rect x="1172.7" y="213" width="0.1" height="15.0" fill="rgb(247,116,3)" rx="2" ry="2" />
<text  x="1175.69" y="223.5" ></text>
</g>
<g >
<title>netisr_dispatch_src (1,497 samples, 6.19%)</title><rect x="10.0" y="181" width="73.0" height="15.0" fill="rgb(241,80,28)" rx="2" ry="2" />
<text  x="13.00" y="191.5" >netisr_d..</text>
</g>
<g >
<title>ether_nh_input (1,497 samples, 6.19%)</title><rect x="10.0" y="213" width="73.0" height="15.0" fill="rgb(229,4,52)" rx="2" ry="2" />
<text  x="13.00" y="223.5" >ether_nh..</text>
</g>
<g >
<title>pfil_mbuf_in (9,388 samples, 38.79%)</title><rect x="278.6" y="85" width="457.7" height="15.0" fill="rgb(218,20,31)" rx="2" ry="2" />
<text  x="281.60" y="95.5" >pfil_mbuf_in</text>
</g>
<g >
<title>ip_input (350 samples, 1.45%)</title><rect x="1172.9" y="213" width="17.1" height="15.0" fill="rgb(237,62,45)" rx="2" ry="2" />
<text  x="1175.94" y="223.5" ></text>
</g>
<g >
<title>pf_test_state (850 samples, 3.51%)</title><rect x="984.2" y="53" width="41.4" height="15.0" fill="rgb(249,170,26)" rx="2" ry="2" />
<text  x="987.20" y="63.5" >pf_..</text>
</g>
<g >
<title>_task_fn_rx (1,497 samples, 6.19%)</title><rect x="10.0" y="277" width="73.0" height="15.0" fill="rgb(253,96,30)" rx="2" ry="2" />
<text  x="13.00" y="287.5" >_task_fn..</text>
</g>
<g >
<title>pf_check_in (9,388 samples, 38.79%)</title><rect x="278.6" y="69" width="457.7" height="15.0" fill="rgb(235,152,48)" rx="2" ry="2" />
<text  x="281.60" y="79.5" >pf_check_in</text>
</g>
<g >
<title>sleepq_lock (13 samples, 0.05%)</title><rect x="766.3" y="213" width="0.6" height="15.0" fill="rgb(219,91,53)" rx="2" ry="2" />
<text  x="769.31" y="223.5" ></text>
</g>
<g >
<title>ether_nh_input (350 samples, 1.45%)</title><rect x="1172.9" y="261" width="17.1" height="15.0" fill="rgb(244,23,41)" rx="2" ry="2" />
<text  x="1175.94" y="271.5" ></text>
</g>
<g >
<title>fork_exit (13,726 samples, 56.71%)</title><rect x="97.7" y="277" width="669.2" height="15.0" fill="rgb(246,66,13)" rx="2" ry="2" />
<text  x="100.71" y="287.5" >fork_exit</text>
</g>
<g >
<title>ifmp_ring_enqueue (1,497 samples, 6.19%)</title><rect x="10.0" y="85" width="73.0" height="15.0" fill="rgb(211,81,52)" rx="2" ry="2" />
<text  x="13.00" y="95.5" >ifmp_rin..</text>
</g>
<g >
<title>ifmp_ring_enqueue (368 samples, 1.52%)</title><rect x="766.9" y="69" width="18.0" height="15.0" fill="rgb(235,145,14)" rx="2" ry="2" />
<text  x="769.94" y="79.5" ></text>
</g>
<g >
<title>microuptime (410 samples, 1.69%)</title><rect x="821.5" y="53" width="20.0" height="15.0" fill="rgb(217,182,32)" rx="2" ry="2" />
<text  x="824.55" y="63.5" ></text>
</g>
<g >
<title>ether_input (302 samples, 1.25%)</title><rect x="83.0" y="277" width="14.7" height="15.0" fill="rgb(221,64,9)" rx="2" ry="2" />
<text  x="85.99" y="287.5" ></text>
</g>
<g >
<title>ether_output_frame (3,016 samples, 12.46%)</title><rect x="1025.6" y="133" width="147.1" height="15.0" fill="rgb(248,152,40)" rx="2" ry="2" />
<text  x="1028.64" y="143.5" >ether_output_frame</text>
</g>
<g >
<title>grouptaskqueue_enqueue (3 samples, 0.01%)</title><rect x="1172.7" y="229" width="0.1" height="15.0" fill="rgb(239,145,50)" rx="2" ry="2" />
<text  x="1175.69" y="239.5" ></text>
</g>
<g >
<title>iflib_if_transmit (1,752 samples, 7.24%)</title><rect x="859.5" y="69" width="85.5" height="15.0" fill="rgb(243,188,49)" rx="2" ry="2" />
<text  x="862.53" y="79.5" >iflib_if_t..</text>
</g>
<g >
<title>ip_input (3,016 samples, 12.46%)</title><rect x="1025.6" y="181" width="147.1" height="15.0" fill="rgb(241,137,11)" rx="2" ry="2" />
<text  x="1028.64" y="191.5" >ip_input</text>
</g>
<g >
<title>ip_tryforward (1,497 samples, 6.19%)</title><rect x="10.0" y="149" width="73.0" height="15.0" fill="rgb(229,123,48)" rx="2" ry="2" />
<text  x="13.00" y="159.5" >ip_tryfo..</text>
</g>
<g >
<title>iflib_rxeof (3,407 samples, 14.08%)</title><rect x="859.5" y="229" width="166.1" height="15.0" fill="rgb(232,87,7)" rx="2" ry="2" />
<text  x="862.53" y="239.5" >iflib_rxeof</text>
</g>
<g >
<title>pf_test_state (749 samples, 3.09%)</title><rect x="785.0" y="69" width="36.5" height="15.0" fill="rgb(241,175,13)" rx="2" ry="2" />
<text  x="788.03" y="79.5" >pf_..</text>
</g>
<g >
<title>ether_output_frame (343 samples, 1.42%)</title><rect x="180.7" y="69" width="16.8" height="15.0" fill="rgb(223,163,26)" rx="2" ry="2" />
<text  x="183.74" y="79.5" ></text>
</g>
<g >
<title>pfil_mbuf_in (779 samples, 3.22%)</title><rect x="821.5" y="117" width="38.0" height="15.0" fill="rgb(251,32,34)" rx="2" ry="2" />
<text  x="824.55" y="127.5" >pfi..</text>
</g>
<g >
<title>intr_event_handle (3 samples, 0.01%)</title><rect x="1172.7" y="261" width="0.1" height="15.0" fill="rgb(218,152,32)" rx="2" ry="2" />
<text  x="1175.69" y="271.5" ></text>
</g>
<g >
<title>memset_erms (8,071 samples, 33.35%)</title><rect x="328.8" y="37" width="393.5" height="15.0" fill="rgb(249,45,23)" rx="2" ry="2" />
<text  x="331.77" y="47.5" >memset_erms</text>
</g>
<g >
<title>tscp_get_timecount_low (429 samples, 1.77%)</title><rect x="785.0" y="37" width="20.9" height="15.0" fill="rgb(240,190,42)" rx="2" ry="2" />
<text  x="788.03" y="47.5" ></text>
</g>
<g >
<title>iflib_fast_intr_rxtx (3 samples, 0.01%)</title><rect x="1172.7" y="245" width="0.1" height="15.0" fill="rgb(232,207,35)" rx="2" ry="2" />
<text  x="1175.69" y="255.5" ></text>
</g>
<g >
<title>drain_ring_lockless (3,016 samples, 12.46%)</title><rect x="1025.6" y="85" width="147.1" height="15.0" fill="rgb(206,45,38)" rx="2" ry="2" />
<text  x="1028.64" y="95.5" >drain_ring_lockless</text>
</g>
<g >
<title>pf_test_state (75 samples, 0.31%)</title><rect x="274.9" y="37" width="3.7" height="15.0" fill="rgb(209,185,0)" rx="2" ry="2" />
<text  x="277.94" y="47.5" ></text>
</g>
<g >
<title>pf_find_state (320 samples, 1.32%)</title><rect x="805.9" y="53" width="15.6" height="15.0" fill="rgb(206,121,12)" rx="2" ry="2" />
<text  x="808.95" y="63.5" ></text>
</g>
<g >
<title>iflib_txq_drain (368 samples, 1.52%)</title><rect x="766.9" y="37" width="18.0" height="15.0" fill="rgb(249,191,12)" rx="2" ry="2" />
<text  x="769.94" y="47.5" ></text>
</g>
<g >
<title>iflib_txq_drain (350 samples, 1.45%)</title><rect x="1172.9" y="101" width="17.1" height="15.0" fill="rgb(215,78,16)" rx="2" ry="2" />
<text  x="1175.94" y="111.5" ></text>
</g>
<g >
<title>ixl_isc_txd_encap (2,641 samples, 10.91%)</title><rect x="1025.6" y="37" width="128.8" height="15.0" fill="rgb(222,141,27)" rx="2" ry="2" />
<text  x="1028.64" y="47.5" >ixl_isc_txd_encap</text>
</g>
<g >
<title>ether_nh_input (3,016 samples, 12.46%)</title><rect x="1025.6" y="229" width="147.1" height="15.0" fill="rgb(229,90,29)" rx="2" ry="2" />
<text  x="1028.64" y="239.5" >ether_nh_input</text>
</g>
<g >
<title>_rm_rlock (99 samples, 0.41%)</title><rect x="250.9" y="37" width="4.8" height="15.0" fill="rgb(228,133,20)" rx="2" ry="2" />
<text  x="253.86" y="47.5" ></text>
</g>
<g >
<title>ifmp_ring_enqueue (302 samples, 1.25%)</title><rect x="83.0" y="117" width="14.7" height="15.0" fill="rgb(212,185,49)" rx="2" ry="2" />
<text  x="85.99" y="127.5" ></text>
</g>
<g >
<title>tscp_get_timecount_low (410 samples, 1.69%)</title><rect x="821.5" y="37" width="20.0" height="15.0" fill="rgb(237,14,46)" rx="2" ry="2" />
<text  x="824.55" y="47.5" ></text>
</g>
<g >
<title>netisr_dispatch_src (12,096 samples, 49.98%)</title><rect x="146.6" y="133" width="589.7" height="15.0" fill="rgb(248,186,1)" rx="2" ry="2" />
<text  x="149.57" y="143.5" >netisr_dispatch_src</text>
</g>
<g >
<title>iflib_if_transmit (1,497 samples, 6.19%)</title><rect x="10.0" y="101" width="73.0" height="15.0" fill="rgb(237,91,22)" rx="2" ry="2" />
<text  x="13.00" y="111.5" >iflib_if..</text>
</g>
<g >
<title>gtaskqueue_thread_loop (3,407 samples, 14.08%)</title><rect x="859.5" y="277" width="166.1" height="15.0" fill="rgb(228,108,23)" rx="2" ry="2" />
<text  x="862.53" y="287.5" >gtaskqueue_thread_loop</text>
</g>
<g >
<title>memcmp (79 samples, 0.33%)</title><rect x="841.5" y="37" width="3.9" height="15.0" fill="rgb(237,66,28)" rx="2" ry="2" />
<text  x="844.54" y="47.5" ></text>
</g>
<g >
<title>ether_output_frame (368 samples, 1.52%)</title><rect x="766.9" y="101" width="18.0" height="15.0" fill="rgb(247,113,5)" rx="2" ry="2" />
<text  x="769.94" y="111.5" ></text>
</g>
<g >
<title>iflib_txq_drain (3,016 samples, 12.46%)</title><rect x="1025.6" y="69" width="147.1" height="15.0" fill="rgb(233,123,37)" rx="2" ry="2" />
<text  x="1028.64" y="79.5" >iflib_txq_drain</text>
</g>
<g >
<title>ether_input (1,899 samples, 7.85%)</title><rect x="766.9" y="229" width="92.6" height="15.0" fill="rgb(223,5,4)" rx="2" ry="2" />
<text  x="769.94" y="239.5" >ether_input</text>
</g>
<g >
<title>_task_fn_rx (3,407 samples, 14.08%)</title><rect x="859.5" y="245" width="166.1" height="15.0" fill="rgb(241,163,18)" rx="2" ry="2" />
<text  x="862.53" y="255.5" >_task_fn_rx</text>
</g>
<g >
<title>pf_check_out (752 samples, 3.11%)</title><rect x="784.9" y="101" width="36.6" height="15.0" fill="rgb(246,125,49)" rx="2" ry="2" />
<text  x="787.88" y="111.5" >pf_..</text>
</g>
<g >
<title>iflib_if_transmit (343 samples, 1.42%)</title><rect x="180.7" y="53" width="16.8" height="15.0" fill="rgb(205,205,44)" rx="2" ry="2" />
<text  x="183.74" y="63.5" ></text>
</g>
<g >
<title>ether_nh_input (12,304 samples, 50.84%)</title><rect x="136.5" y="165" width="599.9" height="15.0" fill="rgb(238,141,47)" rx="2" ry="2" />
<text  x="139.47" y="175.5" >ether_nh_input</text>
</g>
<g >
<title>ether_input (1,497 samples, 6.19%)</title><rect x="10.0" y="245" width="73.0" height="15.0" fill="rgb(220,195,34)" rx="2" ry="2" />
<text  x="13.00" y="255.5" >ether_in..</text>
</g>
<g >
<title>ip_tryforward (302 samples, 1.25%)</title><rect x="83.0" y="181" width="14.7" height="15.0" fill="rgb(208,89,40)" rx="2" ry="2" />
<text  x="85.99" y="191.5" ></text>
</g>
<g >
<title>netisr_dispatch_src (350 samples, 1.45%)</title><rect x="1172.9" y="277" width="17.1" height="15.0" fill="rgb(242,123,41)" rx="2" ry="2" />
<text  x="1175.94" y="287.5" ></text>
</g>
<g >
<title>iflib_completed_tx_reclaim (471 samples, 1.95%)</title><rect x="10.0" y="37" width="23.0" height="15.0" fill="rgb(249,33,49)" rx="2" ry="2" />
<text  x="13.00" y="47.5" >i..</text>
</g>
<g >
<title>ip_tryforward (350 samples, 1.45%)</title><rect x="1172.9" y="197" width="17.1" height="15.0" fill="rgb(231,181,11)" rx="2" ry="2" />
<text  x="1175.94" y="207.5" ></text>
</g>
<g >
<title>netisr_dispatch_src (1,899 samples, 7.85%)</title><rect x="766.9" y="165" width="92.6" height="15.0" fill="rgb(222,145,42)" rx="2" ry="2" />
<text  x="769.94" y="175.5" >netisr_disp..</text>
</g>
<g >
<title>pf_test (850 samples, 3.51%)</title><rect x="984.2" y="69" width="41.4" height="15.0" fill="rgb(226,51,17)" rx="2" ry="2" />
<text  x="987.20" y="79.5" >pf_..</text>
</g>
<g >
<title>netisr_dispatch_src (3,407 samples, 14.08%)</title><rect x="859.5" y="197" width="166.1" height="15.0" fill="rgb(210,44,33)" rx="2" ry="2" />
<text  x="862.53" y="207.5" >netisr_dispatch_src</text>
</g>
<g >
<title>fib4_lookup (183 samples, 0.76%)</title><rect x="216.4" y="69" width="9.0" height="15.0" fill="rgb(254,25,30)" rx="2" ry="2" />
<text  x="219.43" y="79.5" ></text>
</g>
<g >
<title>iflib_txd_db_check (375 samples, 1.55%)</title><rect x="1154.4" y="53" width="18.3" height="15.0" fill="rgb(234,29,29)" rx="2" ry="2" />
<text  x="1157.41" y="63.5" ></text>
</g>
<g >
<title>_task_fn_rx (13,581 samples, 56.12%)</title><rect x="104.1" y="229" width="662.2" height="15.0" fill="rgb(210,157,33)" rx="2" ry="2" />
<text  x="107.15" y="239.5" >_task_fn_rx</text>
</g>
<g >
<title>ip_findroute (183 samples, 0.76%)</title><rect x="216.4" y="85" width="9.0" height="15.0" fill="rgb(254,189,28)" rx="2" ry="2" />
<text  x="219.43" y="95.5" ></text>
</g>
<g >
<title>all (24,202 samples, 100%)</title><rect x="10.0" y="293" width="1180.0" height="15.0" fill="rgb(243,171,32)" rx="2" ry="2" />
<text  x="13.00" y="303.5" ></text>
</g>
<g >
<title>netisr_dispatch_src (3,016 samples, 12.46%)</title><rect x="1025.6" y="245" width="147.1" height="15.0" fill="rgb(206,177,27)" rx="2" ry="2" />
<text  x="1028.64" y="255.5" >netisr_dispatch_src</text>
</g>
<g >
<title>pf_test_state (805 samples, 3.33%)</title><rect x="945.0" y="53" width="39.2" height="15.0" fill="rgb(233,161,1)" rx="2" ry="2" />
<text  x="947.95" y="63.5" >pf_..</text>
</g>
<g >
<title>pfil_mbuf_fwd (805 samples, 3.33%)</title><rect x="945.0" y="101" width="39.2" height="15.0" fill="rgb(244,30,30)" rx="2" ry="2" />
<text  x="947.95" y="111.5" >pfi..</text>
</g>
<g >
<title>gtaskqueue_thread_loop (13,726 samples, 56.71%)</title><rect x="97.7" y="261" width="669.2" height="15.0" fill="rgb(237,106,9)" rx="2" ry="2" />
<text  x="100.71" y="271.5" >gtaskqueue_thread_loop</text>
</g>
<g >
<title>iflib_txq_drain (1,497 samples, 6.19%)</title><rect x="10.0" y="53" width="73.0" height="15.0" fill="rgb(212,38,1)" rx="2" ry="2" />
<text  x="13.00" y="63.5" >iflib_tx..</text>
</g>
<g >
<title>pf_test (779 samples, 3.22%)</title><rect x="821.5" y="85" width="38.0" height="15.0" fill="rgb(232,139,35)" rx="2" ry="2" />
<text  x="824.55" y="95.5" >pf_..</text>
</g>
<g >
<title>netisr_dispatch_src (302 samples, 1.25%)</title><rect x="83.0" y="213" width="14.7" height="15.0" fill="rgb(248,5,25)" rx="2" ry="2" />
<text  x="85.99" y="223.5" ></text>
</g>
<g >
<title>ip_tryforward (12,096 samples, 49.98%)</title><rect x="146.6" y="101" width="589.7" height="15.0" fill="rgb(246,121,49)" rx="2" ry="2" />
<text  x="149.57" y="111.5" >ip_tryforward</text>
</g>
<g >
<title>ether_input (3,407 samples, 14.08%)</title><rect x="859.5" y="213" width="166.1" height="15.0" fill="rgb(212,150,33)" rx="2" ry="2" />
<text  x="862.53" y="223.5" >ether_input</text>
</g>
<g >
<title>ip_tryforward (3,016 samples, 12.46%)</title><rect x="1025.6" y="165" width="147.1" height="15.0" fill="rgb(236,126,23)" rx="2" ry="2" />
<text  x="1028.64" y="175.5" >ip_tryforward</text>
</g>
<g >
<title>iflib_if_transmit (368 samples, 1.52%)</title><rect x="766.9" y="85" width="18.0" height="15.0" fill="rgb(234,45,50)" rx="2" ry="2" />
<text  x="769.94" y="95.5" ></text>
</g>
<g >
<title>ether_output_frame (1,752 samples, 7.24%)</title><rect x="859.5" y="85" width="85.5" height="15.0" fill="rgb(248,131,23)" rx="2" ry="2" />
<text  x="862.53" y="95.5" >ether_outp..</text>
</g>
<g >
<title>netisr_dispatch_src (302 samples, 1.25%)</title><rect x="83.0" y="261" width="14.7" height="15.0" fill="rgb(226,76,6)" rx="2" ry="2" />
<text  x="85.99" y="271.5" ></text>
</g>
<g >
<title>murmur3_32_hash32 (249 samples, 1.03%)</title><rect x="809.4" y="37" width="12.1" height="15.0" fill="rgb(222,58,44)" rx="2" ry="2" />
<text  x="812.41" y="47.5" ></text>
</g>
<g >
<title>iflib_txq_drain (302 samples, 1.25%)</title><rect x="83.0" y="85" width="14.7" height="15.0" fill="rgb(248,36,12)" rx="2" ry="2" />
<text  x="85.99" y="95.5" ></text>
</g>
<g >
<title>drain_ring_lockless (302 samples, 1.25%)</title><rect x="83.0" y="101" width="14.7" height="15.0" fill="rgb(214,158,7)" rx="2" ry="2" />
<text  x="85.99" y="111.5" ></text>
</g>
<g >
<title>pf_find_state (369 samples, 1.52%)</title><rect x="841.5" y="53" width="18.0" height="15.0" fill="rgb(230,3,38)" rx="2" ry="2" />
<text  x="844.54" y="63.5" ></text>
</g>
<g >
<title>ether_demux (3,016 samples, 12.46%)</title><rect x="1025.6" y="213" width="147.1" height="15.0" fill="rgb(239,162,34)" rx="2" ry="2" />
<text  x="1028.64" y="223.5" >ether_demux</text>
</g>
<g >
<title>in_localip (184 samples, 0.76%)</title><rect x="207.5" y="85" width="8.9" height="15.0" fill="rgb(232,152,29)" rx="2" ry="2" />
<text  x="210.46" y="95.5" ></text>
</g>
<g >
<title>pf_test_state (779 samples, 3.22%)</title><rect x="821.5" y="69" width="38.0" height="15.0" fill="rgb(228,105,31)" rx="2" ry="2" />
<text  x="824.55" y="79.5" >pf_..</text>
</g>
<g >
<title>gtaskqueue_run_locked (1,899 samples, 7.85%)</title><rect x="766.9" y="277" width="92.6" height="15.0" fill="rgb(242,52,35)" rx="2" ry="2" />
<text  x="769.94" y="287.5" >gtaskqueue_..</text>
</g>
<g >
<title>ip_input (3,407 samples, 14.08%)</title><rect x="859.5" y="133" width="166.1" height="15.0" fill="rgb(236,24,46)" rx="2" ry="2" />
<text  x="862.53" y="143.5" >ip_input</text>
</g>
<g >
<title>drain_ring_lockless (368 samples, 1.52%)</title><rect x="766.9" y="53" width="18.0" height="15.0" fill="rgb(219,36,28)" rx="2" ry="2" />
<text  x="769.94" y="63.5" ></text>
</g>
<g >
<title>pf_normalize_ip (214 samples, 0.88%)</title><rect x="722.3" y="37" width="10.4" height="15.0" fill="rgb(209,187,49)" rx="2" ry="2" />
<text  x="725.28" y="47.5" ></text>
</g>
<g >
<title>ether_demux (350 samples, 1.45%)</title><rect x="1172.9" y="245" width="17.1" height="15.0" fill="rgb(215,188,50)" rx="2" ry="2" />
<text  x="1175.94" y="255.5" ></text>
</g>
<g >
<title>ixl_isc_rxd_pkt_get (183 samples, 0.76%)</title><rect x="736.5" y="197" width="8.9" height="15.0" fill="rgb(231,125,53)" rx="2" ry="2" />
<text  x="739.47" y="207.5" ></text>
</g>
<g >
<title>ether_demux (3,407 samples, 14.08%)</title><rect x="859.5" y="165" width="166.1" height="15.0" fill="rgb(211,217,45)" rx="2" ry="2" />
<text  x="862.53" y="175.5" >ether_demux</text>
</g>
<g >
<title>iflib_txd_db_check (542 samples, 2.24%)</title><rect x="56.6" y="37" width="26.4" height="15.0" fill="rgb(216,84,28)" rx="2" ry="2" />
<text  x="59.56" y="47.5" >i..</text>
</g>
<g >
<title>pfil_mbuf_fwd (752 samples, 3.11%)</title><rect x="784.9" y="117" width="36.6" height="15.0" fill="rgb(219,223,38)" rx="2" ry="2" />
<text  x="787.88" y="127.5" >pfi..</text>
</g>
<g >
<title>drain_ring_lockless (350 samples, 1.45%)</title><rect x="1172.9" y="117" width="17.1" height="15.0" fill="rgb(250,11,35)" rx="2" ry="2" />
<text  x="1175.94" y="127.5" ></text>
</g>
<g >
<title>murmur3_32_hash32 (290 samples, 1.20%)</title><rect x="845.4" y="37" width="14.1" height="15.0" fill="rgb(221,220,37)" rx="2" ry="2" />
<text  x="848.39" y="47.5" ></text>
</g>
<g >
<title>bounce_bus_dmamap_load_buffer (302 samples, 1.25%)</title><rect x="83.0" y="37" width="14.7" height="15.0" fill="rgb(231,33,18)" rx="2" ry="2" />
<text  x="85.99" y="47.5" ></text>
</g>
<g >
<title>microuptime (429 samples, 1.77%)</title><rect x="785.0" y="53" width="20.9" height="15.0" fill="rgb(209,131,0)" rx="2" ry="2" />
<text  x="788.03" y="63.5" ></text>
</g>
<g >
<title>pf_test_state (74 samples, 0.31%)</title><rect x="732.7" y="37" width="3.6" height="15.0" fill="rgb(251,31,34)" rx="2" ry="2" />
<text  x="735.71" y="47.5" ></text>
</g>
<g >
<title>pf_create_state (3 samples, 0.01%)</title><rect x="784.9" y="53" width="0.1" height="15.0" fill="rgb(244,120,26)" rx="2" ry="2" />
<text  x="787.88" y="63.5" ></text>
</g>
<g >
<title>pf_check_in (850 samples, 3.51%)</title><rect x="984.2" y="85" width="41.4" height="15.0" fill="rgb(233,25,35)" rx="2" ry="2" />
<text  x="987.20" y="95.5" >pf_..</text>
</g>
<g >
<title>iflib_rxeof (1,899 samples, 7.85%)</title><rect x="766.9" y="245" width="92.6" height="15.0" fill="rgb(228,80,40)" rx="2" ry="2" />
<text  x="769.94" y="255.5" >iflib_rxeof</text>
</g>
<g >
<title>ether_output_frame (1,497 samples, 6.19%)</title><rect x="10.0" y="117" width="73.0" height="15.0" fill="rgb(211,82,53)" rx="2" ry="2" />
<text  x="13.00" y="127.5" >ether_ou..</text>
</g>
<g >
<title>ether_output_frame (302 samples, 1.25%)</title><rect x="83.0" y="149" width="14.7" height="15.0" fill="rgb(251,160,21)" rx="2" ry="2" />
<text  x="85.99" y="159.5" ></text>
</g>
<g >
<title>memcpy_erms (205 samples, 0.85%)</title><rect x="197.5" y="69" width="10.0" height="15.0" fill="rgb(206,1,40)" rx="2" ry="2" />
<text  x="200.47" y="79.5" ></text>
</g>
<g >
<title>intr_execute_handlers (3 samples, 0.01%)</title><rect x="1172.7" y="277" width="0.1" height="15.0" fill="rgb(253,36,19)" rx="2" ry="2" />
<text  x="1175.69" y="287.5" ></text>
</g>
<g >
<title>ether_output (1,752 samples, 7.24%)</title><rect x="859.5" y="101" width="85.5" height="15.0" fill="rgb(238,34,28)" rx="2" ry="2" />
<text  x="862.53" y="111.5" >ether_output</text>
</g>
<g >
<title>wakeup_any (459 samples, 1.90%)</title><rect x="104.1" y="197" width="22.4" height="15.0" fill="rgb(223,165,51)" rx="2" ry="2" />
<text  x="107.15" y="207.5" >w..</text>
</g>
<g >
<title>ether_output (368 samples, 1.52%)</title><rect x="766.9" y="117" width="18.0" height="15.0" fill="rgb(234,199,47)" rx="2" ry="2" />
<text  x="769.94" y="127.5" ></text>
</g>
<g >
<title>murmur3_32_hash32 (15 samples, 0.06%)</title><rect x="994.2" y="37" width="0.8" height="15.0" fill="rgb(237,19,34)" rx="2" ry="2" />
<text  x="997.24" y="47.5" ></text>
</g>
<g >
<title>pf_check_out (1,092 samples, 4.51%)</title><rect x="225.4" y="69" width="53.2" height="15.0" fill="rgb(234,28,36)" rx="2" ry="2" />
<text  x="228.36" y="79.5" >pf_ch..</text>
</g>
<g >
<title>pf_find_state (629 samples, 2.60%)</title><rect x="995.0" y="37" width="30.6" height="15.0" fill="rgb(228,195,44)" rx="2" ry="2" />
<text  x="997.97" y="47.5" >pf..</text>
</g>
<g >
<title>ether_output (350 samples, 1.45%)</title><rect x="1172.9" y="181" width="17.1" height="15.0" fill="rgb(209,54,17)" rx="2" ry="2" />
<text  x="1175.94" y="191.5" ></text>
</g>
<g >
<title>netisr_dispatch_src (1,497 samples, 6.19%)</title><rect x="10.0" y="229" width="73.0" height="15.0" fill="rgb(233,37,49)" rx="2" ry="2" />
<text  x="13.00" y="239.5" >netisr_d..</text>
</g>
<g >
<title>gtaskqueue_run_locked (3,407 samples, 14.08%)</title><rect x="859.5" y="261" width="166.1" height="15.0" fill="rgb(239,62,4)" rx="2" ry="2" />
<text  x="862.53" y="271.5" >gtaskqueue_run_locked</text>
</g>
<g >
<title>microuptime (226 samples, 0.93%)</title><rect x="945.0" y="37" width="11.0" height="15.0" fill="rgb(209,166,27)" rx="2" ry="2" />
<text  x="947.95" y="47.5" ></text>
</g>
<g >
<title>microuptime (206 samples, 0.85%)</title><rect x="984.2" y="37" width="10.0" height="15.0" fill="rgb(215,141,33)" rx="2" ry="2" />
<text  x="987.20" y="47.5" ></text>
</g>
<g >
<title>iflib_encap (2,641 samples, 10.91%)</title><rect x="1025.6" y="53" width="128.8" height="15.0" fill="rgb(250,171,42)" rx="2" ry="2" />
<text  x="1028.64" y="63.5" >iflib_encap</text>
</g>
<g >
<title>ixl_isc_txd_credits_update_hwb (128 samples, 0.53%)</title><rect x="1172.9" y="69" width="6.3" height="15.0" fill="rgb(254,33,35)" rx="2" ry="2" />
<text  x="1175.94" y="79.5" ></text>
</g>
<g >
<title>netisr_dispatch_src (12,304 samples, 50.84%)</title><rect x="136.5" y="181" width="599.9" height="15.0" fill="rgb(213,114,22)" rx="2" ry="2" />
<text  x="139.47" y="191.5" >netisr_dispatch_src</text>
</g>
<g >
<title>pfil_mbuf_fwd (1,092 samples, 4.51%)</title><rect x="225.4" y="85" width="53.2" height="15.0" fill="rgb(206,99,27)" rx="2" ry="2" />
<text  x="228.36" y="95.5" >pfil_..</text>
</g>
<g >
<title>netisr_dispatch_src (3,016 samples, 12.46%)</title><rect x="1025.6" y="197" width="147.1" height="15.0" fill="rgb(250,99,20)" rx="2" ry="2" />
<text  x="1028.64" y="207.5" >netisr_dispatch_src</text>
</g>
<g >
<title>ether_demux (1,899 samples, 7.85%)</title><rect x="766.9" y="181" width="92.6" height="15.0" fill="rgb(224,146,45)" rx="2" ry="2" />
<text  x="769.94" y="191.5" >ether_demux</text>
</g>
<g >
<title>pf_test (805 samples, 3.33%)</title><rect x="945.0" y="69" width="39.2" height="15.0" fill="rgb(246,153,20)" rx="2" ry="2" />
<text  x="947.95" y="79.5" >pf_..</text>
</g>
<g >
<title>iflib_encap (484 samples, 2.00%)</title><rect x="33.0" y="37" width="23.6" height="15.0" fill="rgb(210,126,7)" rx="2" ry="2" />
<text  x="35.96" y="47.5" >i..</text>
</g>
<g >
<title>_rm_rlock (62 samples, 0.26%)</title><rect x="325.7" y="37" width="3.1" height="15.0" fill="rgb(240,15,10)" rx="2" ry="2" />
<text  x="328.75" y="47.5" ></text>
</g>
<g >
<title>memcmp (71 samples, 0.29%)</title><rect x="805.9" y="37" width="3.5" height="15.0" fill="rgb(227,137,36)" rx="2" ry="2" />
<text  x="808.95" y="47.5" ></text>
</g>
<g >
<title>pf_normalize_ip (295 samples, 1.22%)</title><rect x="260.6" y="37" width="14.3" height="15.0" fill="rgb(244,24,42)" rx="2" ry="2" />
<text  x="263.56" y="47.5" ></text>
</g>
<g >
<title>pf_test (9,388 samples, 38.79%)</title><rect x="278.6" y="53" width="457.7" height="15.0" fill="rgb(210,65,36)" rx="2" ry="2" />
<text  x="281.60" y="63.5" >pf_test</text>
</g>
<g >
<title>grouptaskqueue_enqueue (459 samples, 1.90%)</title><rect x="104.1" y="213" width="22.4" height="15.0" fill="rgb(221,47,39)" rx="2" ry="2" />
<text  x="107.15" y="223.5" >g..</text>
</g>
<g >
<title>ifmp_ring_enqueue (343 samples, 1.42%)</title><rect x="180.7" y="37" width="16.8" height="15.0" fill="rgb(239,22,18)" rx="2" ry="2" />
<text  x="183.74" y="47.5" ></text>
</g>
</g>
</svg>
