<?xml version="1.0" standalone="no"?>
<!DOCTYPE svg PUBLIC "-//W3C//DTD SVG 1.1//EN" "http://www.w3.org/Graphics/SVG/1.1/DTD/svg11.dtd">
<svg version="1.1" width="1200" height="342" onload="init(evt)" viewBox="0 0 1200 342" xmlns="http://www.w3.org/2000/svg" xmlns:xlink="http://www.w3.org/1999/xlink">
<!-- Flame graph stack visualization. See https://github.com/brendangregg/FlameGraph for latest version, and http://www.brendangregg.com/flamegraphs.html for examples. -->
<!-- NOTES:  -->
<defs>
	<linearGradient id="background" y1="0" y2="1" x1="0" x2="0" >
		<stop stop-color="#eeeeee" offset="5%" />
		<stop stop-color="#eeeeb0" offset="95%" />
	</linearGradient>
</defs>
<style type="text/css">
	text { font-family:Verdana; font-size:12px; fill:rgb(0,0,0); }
	#search, #ignorecase { opacity:0.1; cursor:pointer; }
	#search:hover, #search.show, #ignorecase:hover, #ignorecase.show { opacity:1; }
	#subtitle { text-anchor:middle; font-color:rgb(160,160,160); }
	#title { text-anchor:middle; font-size:17px}
	#unzoom { cursor:pointer; }
	#frames > *:hover { stroke:black; stroke-width:0.5; cursor:pointer; }
	.hide { display:none; }
	.parent { opacity:0.5; }
</style>
<script type="text/ecmascript">
<![CDATA[
	"use strict";
	var details, searchbtn, unzoombtn, matchedtxt, svg, searching, currentSearchTerm, ignorecase, ignorecaseBtn;
	function init(evt) {
		details = document.getElementById("details").firstChild;
		searchbtn = document.getElementById("search");
		ignorecaseBtn = document.getElementById("ignorecase");
		unzoombtn = document.getElementById("unzoom");
		matchedtxt = document.getElementById("matched");
		svg = document.getElementsByTagName("svg")[0];
		searching = 0;
		currentSearchTerm = null;

		// use GET parameters to restore a flamegraphs state.
		var params = get_params();
		if (params.x && params.y)
			zoom(find_group(document.querySelector('[x="' + params.x + '"][y="' + params.y + '"]')));
                if (params.s) search(params.s);
	}

	// event listeners
	window.addEventListener("click", function(e) {
		var target = find_group(e.target);
		if (target) {
			if (target.nodeName == "a") {
				if (e.ctrlKey === false) return;
				e.preventDefault();
			}
			if (target.classList.contains("parent")) unzoom();
			zoom(target);
			if (!document.querySelector('.parent')) {
				clearzoom();
				return;
			}

			// set parameters for zoom state
			var el = target.querySelector("rect");
			if (el && el.attributes && el.attributes.y && el.attributes._orig_x) {
				var params = get_params()
				params.x = el.attributes._orig_x.value;
				params.y = el.attributes.y.value;
				history.replaceState(null, null, parse_params(params));
			}
		}
		else if (e.target.id == "unzoom") clearzoom();
		else if (e.target.id == "search") search_prompt();
		else if (e.target.id == "ignorecase") toggle_ignorecase();
	}, false)

	// mouse-over for info
	// show
	window.addEventListener("mouseover", function(e) {
		var target = find_group(e.target);
		if (target) details.nodeValue = "Function: " + g_to_text(target);
	}, false)

	// clear
	window.addEventListener("mouseout", function(e) {
		var target = find_group(e.target);
		if (target) details.nodeValue = ' ';
	}, false)

	// ctrl-F for search
	// ctrl-I to toggle case-sensitive search
	window.addEventListener("keydown",function (e) {
		if (e.keyCode === 114 || (e.ctrlKey && e.keyCode === 70)) {
			e.preventDefault();
			search_prompt();
		}
		else if (e.ctrlKey && e.keyCode === 73) {
			e.preventDefault();
			toggle_ignorecase();
		}
	}, false)

	// functions
	function get_params() {
		var params = {};
		var paramsarr = window.location.search.substr(1).split('&');
		for (var i = 0; i < paramsarr.length; ++i) {
			var tmp = paramsarr[i].split("=");
			if (!tmp[0] || !tmp[1]) continue;
			params[tmp[0]]  = decodeURIComponent(tmp[1]);
		}
		return params;
	}
	function parse_params(params) {
		var uri = "?";
		for (var key in params) {
			uri += key + '=' + encodeURIComponent(params[key]) + '&';
		}
		if (uri.slice(-1) == "&")
			uri = uri.substring(0, uri.length - 1);
		if (uri == '?')
			uri = window.location.href.split('?')[0];
		return uri;
	}
	function find_child(node, selector) {
		var children = node.querySelectorAll(selector);
		if (children.length) return children[0];
	}
	function find_group(node) {
		var parent = node.parentElement;
		if (!parent) return;
		if (parent.id == "frames") return node;
		return find_group(parent);
	}
	function orig_save(e, attr, val) {
		if (e.attributes["_orig_" + attr] != undefined) return;
		if (e.attributes[attr] == undefined) return;
		if (val == undefined) val = e.attributes[attr].value;
		e.setAttribute("_orig_" + attr, val);
	}
	function orig_load(e, attr) {
		if (e.attributes["_orig_"+attr] == undefined) return;
		e.attributes[attr].value = e.attributes["_orig_" + attr].value;
		e.removeAttribute("_orig_"+attr);
	}
	function g_to_text(e) {
		var text = find_child(e, "title").firstChild.nodeValue;
		return (text)
	}
	function g_to_func(e) {
		var func = g_to_text(e);
		// if there's any manipulation we want to do to the function
		// name before it's searched, do it here before returning.
		return (func);
	}
	function update_text(e) {
		var r = find_child(e, "rect");
		var t = find_child(e, "text");
		var w = parseFloat(r.attributes.width.value) -3;
		var txt = find_child(e, "title").textContent.replace(/\([^(]*\)$/,"");
		t.attributes.x.value = parseFloat(r.attributes.x.value) + 3;

		// Smaller than this size won't fit anything
		if (w < 2 * 12 * 0.59) {
			t.textContent = "";
			return;
		}

		t.textContent = txt;
		// Fit in full text width
		if (/^ *$/.test(txt) || t.getSubStringLength(0, txt.length) < w)
			return;

		for (var x = txt.length - 2; x > 0; x--) {
			if (t.getSubStringLength(0, x + 2) <= w) {
				t.textContent = txt.substring(0, x) + "..";
				return;
			}
		}
		t.textContent = "";
	}

	// zoom
	function zoom_reset(e) {
		if (e.attributes != undefined) {
			orig_load(e, "x");
			orig_load(e, "width");
		}
		if (e.childNodes == undefined) return;
		for (var i = 0, c = e.childNodes; i < c.length; i++) {
			zoom_reset(c[i]);
		}
	}
	function zoom_child(e, x, ratio) {
		if (e.attributes != undefined) {
			if (e.attributes.x != undefined) {
				orig_save(e, "x");
				e.attributes.x.value = (parseFloat(e.attributes.x.value) - x - 10) * ratio + 10;
				if (e.tagName == "text")
					e.attributes.x.value = find_child(e.parentNode, "rect[x]").attributes.x.value + 3;
			}
			if (e.attributes.width != undefined) {
				orig_save(e, "width");
				e.attributes.width.value = parseFloat(e.attributes.width.value) * ratio;
			}
		}

		if (e.childNodes == undefined) return;
		for (var i = 0, c = e.childNodes; i < c.length; i++) {
			zoom_child(c[i], x - 10, ratio);
		}
	}
	function zoom_parent(e) {
		if (e.attributes) {
			if (e.attributes.x != undefined) {
				orig_save(e, "x");
				e.attributes.x.value = 10;
			}
			if (e.attributes.width != undefined) {
				orig_save(e, "width");
				e.attributes.width.value = parseInt(svg.width.baseVal.value) - (10 * 2);
			}
		}
		if (e.childNodes == undefined) return;
		for (var i = 0, c = e.childNodes; i < c.length; i++) {
			zoom_parent(c[i]);
		}
	}
	function zoom(node) {
		var attr = find_child(node, "rect").attributes;
		var width = parseFloat(attr.width.value);
		var xmin = parseFloat(attr.x.value);
		var xmax = parseFloat(xmin + width);
		var ymin = parseFloat(attr.y.value);
		var ratio = (svg.width.baseVal.value - 2 * 10) / width;

		// XXX: Workaround for JavaScript float issues (fix me)
		var fudge = 0.0001;

		unzoombtn.classList.remove("hide");

		var el = document.getElementById("frames").children;
		for (var i = 0; i < el.length; i++) {
			var e = el[i];
			var a = find_child(e, "rect").attributes;
			var ex = parseFloat(a.x.value);
			var ew = parseFloat(a.width.value);
			var upstack;
			// Is it an ancestor
			if (0 == 0) {
				upstack = parseFloat(a.y.value) > ymin;
			} else {
				upstack = parseFloat(a.y.value) < ymin;
			}
			if (upstack) {
				// Direct ancestor
				if (ex <= xmin && (ex+ew+fudge) >= xmax) {
					e.classList.add("parent");
					zoom_parent(e);
					update_text(e);
				}
				// not in current path
				else
					e.classList.add("hide");
			}
			// Children maybe
			else {
				// no common path
				if (ex < xmin || ex + fudge >= xmax) {
					e.classList.add("hide");
				}
				else {
					zoom_child(e, xmin, ratio);
					update_text(e);
				}
			}
		}
		search();
	}
	function unzoom() {
		unzoombtn.classList.add("hide");
		var el = document.getElementById("frames").children;
		for(var i = 0; i < el.length; i++) {
			el[i].classList.remove("parent");
			el[i].classList.remove("hide");
			zoom_reset(el[i]);
			update_text(el[i]);
		}
		search();
	}
	function clearzoom() {
		unzoom();

		// remove zoom state
		var params = get_params();
		if (params.x) delete params.x;
		if (params.y) delete params.y;
		history.replaceState(null, null, parse_params(params));
	}

	// search
	function toggle_ignorecase() {
		ignorecase = !ignorecase;
		if (ignorecase) {
			ignorecaseBtn.classList.add("show");
		} else {
			ignorecaseBtn.classList.remove("show");
		}
		reset_search();
		search();
	}
	function reset_search() {
		var el = document.querySelectorAll("#frames rect");
		for (var i = 0; i < el.length; i++) {
			orig_load(el[i], "fill")
		}
		var params = get_params();
		delete params.s;
		history.replaceState(null, null, parse_params(params));
	}
	function search_prompt() {
		if (!searching) {
			var term = prompt("Enter a search term (regexp " +
			    "allowed, eg: ^ext4_)"
			    + (ignorecase ? ", ignoring case" : "")
			    + "\nPress Ctrl-i to toggle case sensitivity", "");
			if (term != null) search(term);
		} else {
			reset_search();
			searching = 0;
			currentSearchTerm = null;
			searchbtn.classList.remove("show");
			searchbtn.firstChild.nodeValue = "Search"
			matchedtxt.classList.add("hide");
			matchedtxt.firstChild.nodeValue = ""
		}
	}
	function search(term) {
		if (term) currentSearchTerm = term;

		var re = new RegExp(currentSearchTerm, ignorecase ? 'i' : '');
		var el = document.getElementById("frames").children;
		var matches = new Object();
		var maxwidth = 0;
		for (var i = 0; i < el.length; i++) {
			var e = el[i];
			var func = g_to_func(e);
			var rect = find_child(e, "rect");
			if (func == null || rect == null)
				continue;

			// Save max width. Only works as we have a root frame
			var w = parseFloat(rect.attributes.width.value);
			if (w > maxwidth)
				maxwidth = w;

			if (func.match(re)) {
				// highlight
				var x = parseFloat(rect.attributes.x.value);
				orig_save(rect, "fill");
				rect.attributes.fill.value = "rgb(230,0,230)";

				// remember matches
				if (matches[x] == undefined) {
					matches[x] = w;
				} else {
					if (w > matches[x]) {
						// overwrite with parent
						matches[x] = w;
					}
				}
				searching = 1;
			}
		}
		if (!searching)
			return;
		var params = get_params();
		params.s = currentSearchTerm;
		history.replaceState(null, null, parse_params(params));

		searchbtn.classList.add("show");
		searchbtn.firstChild.nodeValue = "Reset Search";

		// calculate percent matched, excluding vertical overlap
		var count = 0;
		var lastx = -1;
		var lastw = 0;
		var keys = Array();
		for (k in matches) {
			if (matches.hasOwnProperty(k))
				keys.push(k);
		}
		// sort the matched frames by their x location
		// ascending, then width descending
		keys.sort(function(a, b){
			return a - b;
		});
		// Step through frames saving only the biggest bottom-up frames
		// thanks to the sort order. This relies on the tree property
		// where children are always smaller than their parents.
		var fudge = 0.0001;	// JavaScript floating point
		for (var k in keys) {
			var x = parseFloat(keys[k]);
			var w = matches[keys[k]];
			if (x >= lastx + lastw - fudge) {
				count += w;
				lastx = x;
				lastw = w;
			}
		}
		// display matched percent
		matchedtxt.classList.remove("hide");
		var pct = 100 * count / maxwidth;
		if (pct != 100) pct = pct.toFixed(1)
		matchedtxt.firstChild.nodeValue = "Matched: " + pct + "%";
	}
]]>
</script>
<rect x="0.0" y="0" width="1200.0" height="342.0" fill="url(#background)"  />
<text id="title" x="600.00" y="24" >Flame Graph</text>
<text id="details" x="10.00" y="325" > </text>
<text id="unzoom" x="10.00" y="24" class="hide">Reset Zoom</text>
<text id="search" x="1090.00" y="24" >Search</text>
<text id="ignorecase" x="1174.00" y="24" >ic</text>
<text id="matched" x="1090.00" y="325" > </text>
<g id="frames">
<g >
<title>_task_fn_rx (360 samples, 1.34%)</title><rect x="867.4" y="261" width="15.8" height="15.0" fill="rgb(228,150,54)" rx="2" ry="2" />
<text  x="870.37" y="271.5" ></text>
</g>
<g >
<title>ip_tryforward (342 samples, 1.28%)</title><rect x="1174.9" y="197" width="15.1" height="15.0" fill="rgb(237,103,32)" rx="2" ry="2" />
<text  x="1177.93" y="207.5" ></text>
</g>
<g >
<title>iflib_if_transmit (431 samples, 1.61%)</title><rect x="186.2" y="53" width="19.0" height="15.0" fill="rgb(220,146,17)" rx="2" ry="2" />
<text  x="189.19" y="63.5" ></text>
</g>
<g >
<title>netisr_dispatch_src (2,472 samples, 9.23%)</title><rect x="883.2" y="197" width="109.0" height="15.0" fill="rgb(240,119,20)" rx="2" ry="2" />
<text  x="886.23" y="207.5" >netisr_dispat..</text>
</g>
<g >
<title>ether_output (312 samples, 1.17%)</title><rect x="75.6" y="165" width="13.7" height="15.0" fill="rgb(230,76,33)" rx="2" ry="2" />
<text  x="78.58" y="175.5" ></text>
</g>
<g >
<title>ether_nh_input (4,109 samples, 15.35%)</title><rect x="992.2" y="229" width="181.1" height="15.0" fill="rgb(243,42,6)" rx="2" ry="2" />
<text  x="995.17" y="239.5" >ether_nh_input</text>
</g>
<g >
<title>iflib_if_transmit (360 samples, 1.34%)</title><rect x="867.4" y="85" width="15.8" height="15.0" fill="rgb(237,141,13)" rx="2" ry="2" />
<text  x="870.37" y="95.5" ></text>
</g>
<g >
<title>netisr_dispatch_src (42 samples, 0.16%)</title><rect x="89.3" y="245" width="1.9" height="15.0" fill="rgb(211,185,39)" rx="2" ry="2" />
<text  x="92.32" y="255.5" ></text>
</g>
<g >
<title>m_pkthdr_init (29 samples, 0.11%)</title><rect x="847.5" y="197" width="1.3" height="15.0" fill="rgb(214,58,16)" rx="2" ry="2" />
<text  x="850.54" y="207.5" ></text>
</g>
<g >
<title>ether_output_frame (42 samples, 0.16%)</title><rect x="89.3" y="181" width="1.9" height="15.0" fill="rgb(254,58,54)" rx="2" ry="2" />
<text  x="92.32" y="191.5" ></text>
</g>
<g >
<title>drain_ring_lockless (2,472 samples, 9.23%)</title><rect x="883.2" y="37" width="109.0" height="15.0" fill="rgb(209,12,20)" rx="2" ry="2" />
<text  x="886.23" y="47.5" >drain_ring_lo..</text>
</g>
<g >
<title>netisr_dispatch_src (1,320 samples, 4.93%)</title><rect x="17.4" y="181" width="58.2" height="15.0" fill="rgb(246,77,32)" rx="2" ry="2" />
<text  x="20.40" y="191.5" >netisr..</text>
</g>
<g >
<title>netisr_dispatch_src (312 samples, 1.17%)</title><rect x="75.6" y="261" width="13.7" height="15.0" fill="rgb(240,116,19)" rx="2" ry="2" />
<text  x="78.58" y="271.5" ></text>
</g>
<g >
<title>memcpy_erms (29 samples, 0.11%)</title><rect x="848.8" y="197" width="1.3" height="15.0" fill="rgb(214,226,6)" rx="2" ry="2" />
<text  x="851.82" y="207.5" ></text>
</g>
<g >
<title>ether_input (15,469 samples, 57.77%)</title><rect x="147.2" y="197" width="681.7" height="15.0" fill="rgb(225,97,32)" rx="2" ry="2" />
<text  x="150.23" y="207.5" >ether_input</text>
</g>
<g >
<title>_task_fn_rx (1,320 samples, 4.93%)</title><rect x="17.4" y="277" width="58.2" height="15.0" fill="rgb(215,182,15)" rx="2" ry="2" />
<text  x="20.40" y="287.5" >_task_..</text>
</g>
<g >
<title>netisr_dispatch_src (342 samples, 1.28%)</title><rect x="1174.9" y="277" width="15.1" height="15.0" fill="rgb(209,105,18)" rx="2" ry="2" />
<text  x="1177.93" y="287.5" ></text>
</g>
<g >
<title>drain_ring_lockless (42 samples, 0.16%)</title><rect x="89.3" y="133" width="1.9" height="15.0" fill="rgb(239,219,52)" rx="2" ry="2" />
<text  x="92.32" y="143.5" ></text>
</g>
<g >
<title>ipfw_chk (802 samples, 3.00%)</title><rect x="231.2" y="53" width="35.3" height="15.0" fill="rgb(254,142,4)" rx="2" ry="2" />
<text  x="234.18" y="63.5" >ip..</text>
</g>
<g >
<title>m_freem (342 samples, 1.28%)</title><rect x="1174.9" y="69" width="15.1" height="15.0" fill="rgb(208,218,31)" rx="2" ry="2" />
<text  x="1177.93" y="79.5" ></text>
</g>
<g >
<title>ether_demux (42 samples, 0.16%)</title><rect x="89.3" y="261" width="1.9" height="15.0" fill="rgb(233,81,30)" rx="2" ry="2" />
<text  x="92.32" y="271.5" ></text>
</g>
<g >
<title>ip_input (1,320 samples, 4.93%)</title><rect x="17.4" y="165" width="58.2" height="15.0" fill="rgb(248,42,21)" rx="2" ry="2" />
<text  x="20.40" y="175.5" >ip_input</text>
</g>
<g >
<title>ip_input (360 samples, 1.34%)</title><rect x="867.4" y="149" width="15.8" height="15.0" fill="rgb(249,149,0)" rx="2" ry="2" />
<text  x="870.37" y="159.5" ></text>
</g>
<g >
<title>drain_ring_lockless (4,109 samples, 15.35%)</title><rect x="992.2" y="85" width="181.1" height="15.0" fill="rgb(243,189,15)" rx="2" ry="2" />
<text  x="995.17" y="95.5" >drain_ring_lockless</text>
</g>
<g >
<title>ether_output_frame (312 samples, 1.17%)</title><rect x="75.6" y="149" width="13.7" height="15.0" fill="rgb(213,92,20)" rx="2" ry="2" />
<text  x="78.58" y="159.5" ></text>
</g>
<g >
<title>ip_tryforward (360 samples, 1.34%)</title><rect x="867.4" y="133" width="15.8" height="15.0" fill="rgb(230,23,32)" rx="2" ry="2" />
<text  x="870.37" y="143.5" ></text>
</g>
<g >
<title>netisr_dispatch_src (342 samples, 1.28%)</title><rect x="1174.9" y="229" width="15.1" height="15.0" fill="rgb(246,14,37)" rx="2" ry="2" />
<text  x="1177.93" y="239.5" ></text>
</g>
<g >
<title>wakeup (14 samples, 0.05%)</title><rect x="866.8" y="229" width="0.6" height="15.0" fill="rgb(211,30,16)" rx="2" ry="2" />
<text  x="869.75" y="239.5" ></text>
</g>
<g >
<title>iflib_completed_tx_reclaim (42 samples, 0.16%)</title><rect x="89.3" y="101" width="1.9" height="15.0" fill="rgb(237,167,51)" rx="2" ry="2" />
<text  x="92.32" y="111.5" ></text>
</g>
<g >
<title>ifmp_ring_enqueue (312 samples, 1.17%)</title><rect x="75.6" y="117" width="13.7" height="15.0" fill="rgb(237,16,45)" rx="2" ry="2" />
<text  x="78.58" y="127.5" ></text>
</g>
<g >
<title>ether_nh_input (42 samples, 0.16%)</title><rect x="89.3" y="277" width="1.9" height="15.0" fill="rgb(214,208,20)" rx="2" ry="2" />
<text  x="92.32" y="287.5" ></text>
</g>
<g >
<title>ether_demux (2,472 samples, 9.23%)</title><rect x="883.2" y="165" width="109.0" height="15.0" fill="rgb(217,119,18)" rx="2" ry="2" />
<text  x="886.23" y="175.5" >ether_demux</text>
</g>
<g >
<title>bus_dmamap_load_mbuf_sg (83 samples, 0.31%)</title><rect x="998.4" y="37" width="3.7" height="15.0" fill="rgb(244,188,46)" rx="2" ry="2" />
<text  x="1001.43" y="47.5" ></text>
</g>
<g >
<title>iflib_txq_drain (360 samples, 1.34%)</title><rect x="867.4" y="37" width="15.8" height="15.0" fill="rgb(251,40,26)" rx="2" ry="2" />
<text  x="870.37" y="47.5" ></text>
</g>
<g >
<title>in_lltable_lookup (59 samples, 0.22%)</title><rect x="183.6" y="53" width="2.6" height="15.0" fill="rgb(209,138,37)" rx="2" ry="2" />
<text  x="186.59" y="63.5" ></text>
</g>
<g >
<title>netisr_dispatch_src (2,472 samples, 9.23%)</title><rect x="883.2" y="149" width="109.0" height="15.0" fill="rgb(230,56,15)" rx="2" ry="2" />
<text  x="886.23" y="159.5" >netisr_dispat..</text>
</g>
<g >
<title>gtaskqueue_run_locked (2,472 samples, 9.23%)</title><rect x="883.2" y="261" width="109.0" height="15.0" fill="rgb(253,200,3)" rx="2" ry="2" />
<text  x="886.23" y="271.5" >gtaskqueue_ru..</text>
</g>
<g >
<title>if_inc_counter (3 samples, 0.01%)</title><rect x="829.4" y="197" width="0.1" height="15.0" fill="rgb(246,62,8)" rx="2" ry="2" />
<text  x="832.38" y="207.5" ></text>
</g>
<g >
<title>iflib_completed_tx_reclaim (142 samples, 0.53%)</title><rect x="992.2" y="53" width="6.2" height="15.0" fill="rgb(227,71,15)" rx="2" ry="2" />
<text  x="995.17" y="63.5" ></text>
</g>
<g >
<title>ipfw_chk (12,448 samples, 46.49%)</title><rect x="275.9" y="53" width="548.5" height="15.0" fill="rgb(211,23,49)" rx="2" ry="2" />
<text  x="278.87" y="63.5" >ipfw_chk</text>
</g>
<g >
<title>netisr_dispatch_src (312 samples, 1.17%)</title><rect x="75.6" y="213" width="13.7" height="15.0" fill="rgb(219,73,23)" rx="2" ry="2" />
<text  x="78.58" y="223.5" ></text>
</g>
<g >
<title>all (26,776 samples, 100%)</title><rect x="10.0" y="293" width="1180.0" height="15.0" fill="rgb(210,43,44)" rx="2" ry="2" />
<text  x="13.00" y="303.5" ></text>
</g>
<g >
<title>pfil_mbuf_in (12,718 samples, 47.50%)</title><rect x="266.7" y="85" width="560.5" height="15.0" fill="rgb(223,104,8)" rx="2" ry="2" />
<text  x="269.75" y="95.5" >pfil_mbuf_in</text>
</g>
<g >
<title>if_inc_counter (52 samples, 0.19%)</title><rect x="18.9" y="37" width="2.3" height="15.0" fill="rgb(223,227,14)" rx="2" ry="2" />
<text  x="21.90" y="47.5" ></text>
</g>
<g >
<title>netisr_dispatch_src (4,109 samples, 15.35%)</title><rect x="992.2" y="197" width="181.1" height="15.0" fill="rgb(225,159,21)" rx="2" ry="2" />
<text  x="995.17" y="207.5" >netisr_dispatch_src</text>
</g>
<g >
<title>ether_nh_input (342 samples, 1.28%)</title><rect x="1174.9" y="261" width="15.1" height="15.0" fill="rgb(213,99,49)" rx="2" ry="2" />
<text  x="1177.93" y="271.5" ></text>
</g>
<g >
<title>timercb (36 samples, 0.13%)</title><rect x="1173.3" y="261" width="1.6" height="15.0" fill="rgb(254,226,52)" rx="2" ry="2" />
<text  x="1176.34" y="271.5" ></text>
</g>
<g >
<title>memcpy_erms (282 samples, 1.05%)</title><rect x="205.2" y="69" width="12.4" height="15.0" fill="rgb(228,189,1)" rx="2" ry="2" />
<text  x="208.18" y="79.5" ></text>
</g>
<g >
<title>ixl_isc_rxd_available (29 samples, 0.11%)</title><rect x="836.8" y="197" width="1.3" height="15.0" fill="rgb(206,31,22)" rx="2" ry="2" />
<text  x="839.78" y="207.5" ></text>
</g>
<g >
<title>iflib_if_transmit (42 samples, 0.16%)</title><rect x="89.3" y="165" width="1.9" height="15.0" fill="rgb(250,131,52)" rx="2" ry="2" />
<text  x="92.32" y="175.5" ></text>
</g>
<g >
<title>iflib_rxeof (360 samples, 1.34%)</title><rect x="867.4" y="245" width="15.8" height="15.0" fill="rgb(213,189,19)" rx="2" ry="2" />
<text  x="870.37" y="255.5" ></text>
</g>
<g >
<title>iflib_rxeof (4,109 samples, 15.35%)</title><rect x="992.2" y="277" width="181.1" height="15.0" fill="rgb(208,224,54)" rx="2" ry="2" />
<text  x="995.17" y="287.5" >iflib_rxeof</text>
</g>
<g >
<title>bsearch4_lookup (128 samples, 0.48%)</title><rect x="223.4" y="69" width="5.6" height="15.0" fill="rgb(226,18,34)" rx="2" ry="2" />
<text  x="226.38" y="79.5" ></text>
</g>
<g >
<title>iflib_encap (263 samples, 0.98%)</title><rect x="77.7" y="69" width="11.6" height="15.0" fill="rgb(232,34,39)" rx="2" ry="2" />
<text  x="80.73" y="79.5" ></text>
</g>
<g >
<title>iflib_if_transmit (2,472 samples, 9.23%)</title><rect x="883.2" y="69" width="109.0" height="15.0" fill="rgb(236,221,24)" rx="2" ry="2" />
<text  x="886.23" y="79.5" >iflib_if_tran..</text>
</g>
<g >
<title>m_free (42 samples, 0.16%)</title><rect x="89.3" y="69" width="1.9" height="15.0" fill="rgb(215,4,23)" rx="2" ry="2" />
<text  x="92.32" y="79.5" ></text>
</g>
<g >
<title>ether_nh_input (2,472 samples, 9.23%)</title><rect x="883.2" y="181" width="109.0" height="15.0" fill="rgb(222,206,49)" rx="2" ry="2" />
<text  x="886.23" y="191.5" >ether_nh_input</text>
</g>
<g >
<title>iflib_txq_drain (342 samples, 1.28%)</title><rect x="1174.9" y="101" width="15.1" height="15.0" fill="rgb(211,16,10)" rx="2" ry="2" />
<text  x="1177.93" y="111.5" ></text>
</g>
<g >
<title>m_tag_locate (5 samples, 0.02%)</title><rect x="266.5" y="53" width="0.2" height="15.0" fill="rgb(243,144,54)" rx="2" ry="2" />
<text  x="269.53" y="63.5" ></text>
</g>
<g >
<title>iflib_fl_refill (165 samples, 0.62%)</title><rect x="829.5" y="197" width="7.3" height="15.0" fill="rgb(230,137,0)" rx="2" ry="2" />
<text  x="832.51" y="207.5" ></text>
</g>
<g >
<title>ether_nh_input (360 samples, 1.34%)</title><rect x="867.4" y="197" width="15.8" height="15.0" fill="rgb(239,174,26)" rx="2" ry="2" />
<text  x="870.37" y="207.5" ></text>
</g>
<g >
<title>m_free (49 samples, 0.18%)</title><rect x="75.6" y="37" width="2.1" height="15.0" fill="rgb(246,205,6)" rx="2" ry="2" />
<text  x="78.58" y="47.5" ></text>
</g>
<g >
<title>iflib_if_transmit (4,109 samples, 15.35%)</title><rect x="992.2" y="117" width="181.1" height="15.0" fill="rgb(217,36,13)" rx="2" ry="2" />
<text  x="995.17" y="127.5" >iflib_if_transmit</text>
</g>
<g >
<title>m_freem (49 samples, 0.18%)</title><rect x="75.6" y="53" width="2.1" height="15.0" fill="rgb(206,176,51)" rx="2" ry="2" />
<text  x="78.58" y="63.5" ></text>
</g>
<g >
<title>ifmp_ring_enqueue (404 samples, 1.51%)</title><rect x="187.4" y="37" width="17.8" height="15.0" fill="rgb(246,217,22)" rx="2" ry="2" />
<text  x="190.38" y="47.5" ></text>
</g>
<g >
<title>rxd_frag_to_sd (378 samples, 1.41%)</title><rect x="850.1" y="197" width="16.7" height="15.0" fill="rgb(209,100,20)" rx="2" ry="2" />
<text  x="853.09" y="207.5" ></text>
</g>
<g >
<title>ifmp_ring_enqueue (4,109 samples, 15.35%)</title><rect x="992.2" y="101" width="181.1" height="15.0" fill="rgb(222,129,14)" rx="2" ry="2" />
<text  x="995.17" y="111.5" >ifmp_ring_enqueue</text>
</g>
<g >
<title>ether_output (2,472 samples, 9.23%)</title><rect x="883.2" y="101" width="109.0" height="15.0" fill="rgb(245,182,2)" rx="2" ry="2" />
<text  x="886.23" y="111.5" >ether_output</text>
</g>
<g >
<title>ether_nh_input (1,320 samples, 4.93%)</title><rect x="17.4" y="213" width="58.2" height="15.0" fill="rgb(215,158,14)" rx="2" ry="2" />
<text  x="20.40" y="223.5" >ether_..</text>
</g>
<g >
<title>iflib_completed_tx_reclaim (342 samples, 1.28%)</title><rect x="1174.9" y="85" width="15.1" height="15.0" fill="rgb(239,60,46)" rx="2" ry="2" />
<text  x="1177.93" y="95.5" ></text>
</g>
<g >
<title>_epoch_enter_preempt (46 samples, 0.17%)</title><rect x="99.1" y="229" width="2.0" height="15.0" fill="rgb(239,21,1)" rx="2" ry="2" />
<text  x="102.06" y="239.5" ></text>
</g>
<g >
<title>iflib_rxeof (1,320 samples, 4.93%)</title><rect x="17.4" y="261" width="58.2" height="15.0" fill="rgb(222,151,1)" rx="2" ry="2" />
<text  x="20.40" y="271.5" >iflib_..</text>
</g>
<g >
<title>netisr_dispatch_src (15,469 samples, 57.77%)</title><rect x="147.2" y="181" width="681.7" height="15.0" fill="rgb(216,133,42)" rx="2" ry="2" />
<text  x="150.23" y="191.5" >netisr_dispatch_src</text>
</g>
<g >
<title>grouptaskqueue_enqueue (789 samples, 2.95%)</title><rect x="101.1" y="213" width="34.8" height="15.0" fill="rgb(221,123,38)" rx="2" ry="2" />
<text  x="104.09" y="223.5" >gr..</text>
</g>
<g >
<title>gtaskqueue_thread_loop (2,472 samples, 9.23%)</title><rect x="883.2" y="277" width="109.0" height="15.0" fill="rgb(228,226,13)" rx="2" ry="2" />
<text  x="886.23" y="287.5" >gtaskqueue_th..</text>
</g>
<g >
<title>ether_input (312 samples, 1.17%)</title><rect x="75.6" y="277" width="13.7" height="15.0" fill="rgb(234,105,27)" rx="2" ry="2" />
<text  x="78.58" y="287.5" ></text>
</g>
<g >
<title>ip_input (2,472 samples, 9.23%)</title><rect x="883.2" y="133" width="109.0" height="15.0" fill="rgb(211,165,52)" rx="2" ry="2" />
<text  x="886.23" y="143.5" >ip_input</text>
</g>
<g >
<title>sleepq_lock (789 samples, 2.95%)</title><rect x="101.1" y="181" width="34.8" height="15.0" fill="rgb(229,220,31)" rx="2" ry="2" />
<text  x="104.09" y="191.5" >sl..</text>
</g>
<g >
<title>ip_input (312 samples, 1.17%)</title><rect x="75.6" y="197" width="13.7" height="15.0" fill="rgb(223,226,22)" rx="2" ry="2" />
<text  x="78.58" y="207.5" ></text>
</g>
<g >
<title>ether_output_frame (431 samples, 1.61%)</title><rect x="186.2" y="69" width="19.0" height="15.0" fill="rgb(214,226,37)" rx="2" ry="2" />
<text  x="189.19" y="79.5" ></text>
</g>
<g >
<title>gtaskqueue_thread_loop (17,613 samples, 65.78%)</title><rect x="91.2" y="261" width="776.2" height="15.0" fill="rgb(239,1,38)" rx="2" ry="2" />
<text  x="94.18" y="271.5" >gtaskqueue_thread_loop</text>
</g>
<g >
<title>netisr_dispatch_src (15,222 samples, 56.85%)</title><rect x="156.4" y="133" width="670.8" height="15.0" fill="rgb(219,144,26)" rx="2" ry="2" />
<text  x="159.40" y="143.5" >netisr_dispatch_src</text>
</g>
<g >
<title>iflib_txq_drain (312 samples, 1.17%)</title><rect x="75.6" y="85" width="13.7" height="15.0" fill="rgb(215,92,28)" rx="2" ry="2" />
<text  x="78.58" y="95.5" ></text>
</g>
<g >
<title>ip_tryforward (2,472 samples, 9.23%)</title><rect x="883.2" y="117" width="109.0" height="15.0" fill="rgb(218,214,24)" rx="2" ry="2" />
<text  x="886.23" y="127.5" >ip_tryforward</text>
</g>
<g >
<title>iflib_if_transmit (342 samples, 1.28%)</title><rect x="1174.9" y="149" width="15.1" height="15.0" fill="rgb(220,46,38)" rx="2" ry="2" />
<text  x="1177.93" y="159.5" ></text>
</g>
<g >
<title>ifmp_ring_enqueue (342 samples, 1.28%)</title><rect x="1174.9" y="133" width="15.1" height="15.0" fill="rgb(250,153,43)" rx="2" ry="2" />
<text  x="1177.93" y="143.5" ></text>
</g>
<g >
<title>netisr_dispatch_src (1,320 samples, 4.93%)</title><rect x="17.4" y="229" width="58.2" height="15.0" fill="rgb(205,196,40)" rx="2" ry="2" />
<text  x="20.40" y="239.5" >netisr..</text>
</g>
<g >
<title>ipfw_check_packet (12,633 samples, 47.18%)</title><rect x="270.5" y="69" width="556.7" height="15.0" fill="rgb(229,176,41)" rx="2" ry="2" />
<text  x="273.49" y="79.5" >ipfw_check_packet</text>
</g>
<g >
<title>ether_output_frame (1,320 samples, 4.93%)</title><rect x="17.4" y="117" width="58.2" height="15.0" fill="rgb(222,10,35)" rx="2" ry="2" />
<text  x="20.40" y="127.5" >ether_..</text>
</g>
<g >
<title>_task_fn_rx (17,374 samples, 64.89%)</title><rect x="101.1" y="229" width="765.7" height="15.0" fill="rgb(207,142,9)" rx="2" ry="2" />
<text  x="104.09" y="239.5" >_task_fn_rx</text>
</g>
<g >
<title>if_getdrvflags (34 samples, 0.13%)</title><rect x="17.4" y="37" width="1.5" height="15.0" fill="rgb(243,45,6)" rx="2" ry="2" />
<text  x="20.40" y="47.5" ></text>
</g>
<g >
<title>uma_zfree_arg (263 samples, 0.98%)</title><rect x="1178.4" y="37" width="11.6" height="15.0" fill="rgb(213,196,6)" rx="2" ry="2" />
<text  x="1181.41" y="47.5" ></text>
</g>
<g >
<title>ether_output (1,043 samples, 3.90%)</title><rect x="171.6" y="85" width="46.0" height="15.0" fill="rgb(254,115,22)" rx="2" ry="2" />
<text  x="174.65" y="95.5" >ethe..</text>
</g>
<g >
<title>ether_demux (15,256 samples, 56.98%)</title><rect x="154.9" y="149" width="672.3" height="15.0" fill="rgb(214,73,14)" rx="2" ry="2" />
<text  x="157.90" y="159.5" >ether_demux</text>
</g>
<g >
<title>lapic_handle_timer (36 samples, 0.13%)</title><rect x="1173.3" y="277" width="1.6" height="15.0" fill="rgb(207,7,1)" rx="2" ry="2" />
<text  x="1176.34" y="287.5" ></text>
</g>
<g >
<title>iflib_completed_tx_reclaim (300 samples, 1.12%)</title><rect x="21.2" y="37" width="13.2" height="15.0" fill="rgb(238,144,53)" rx="2" ry="2" />
<text  x="24.19" y="47.5" ></text>
</g>
<g >
<title>hardclock (36 samples, 0.13%)</title><rect x="1173.3" y="229" width="1.6" height="15.0" fill="rgb(240,127,49)" rx="2" ry="2" />
<text  x="1176.34" y="239.5" ></text>
</g>
<g >
<title>ixl_isc_rxd_pkt_get (215 samples, 0.80%)</title><rect x="838.1" y="197" width="9.4" height="15.0" fill="rgb(230,118,32)" rx="2" ry="2" />
<text  x="841.06" y="207.5" ></text>
</g>
<g >
<title>pmclog_process_callchain (36 samples, 0.13%)</title><rect x="1173.3" y="181" width="1.6" height="15.0" fill="rgb(236,93,5)" rx="2" ry="2" />
<text  x="1176.34" y="191.5" ></text>
</g>
<g >
<title>ixl_isc_txd_flush (412 samples, 1.54%)</title><rect x="1155.1" y="37" width="18.2" height="15.0" fill="rgb(248,26,35)" rx="2" ry="2" />
<text  x="1158.10" y="47.5" ></text>
</g>
<g >
<title>in_localip (131 samples, 0.49%)</title><rect x="217.6" y="85" width="5.8" height="15.0" fill="rgb(225,158,24)" rx="2" ry="2" />
<text  x="220.61" y="95.5" ></text>
</g>
<g >
<title>ether_output (342 samples, 1.28%)</title><rect x="1174.9" y="181" width="15.1" height="15.0" fill="rgb(232,22,11)" rx="2" ry="2" />
<text  x="1177.93" y="191.5" ></text>
</g>
<g >
<title>iflib_encap (423 samples, 1.58%)</title><rect x="34.4" y="37" width="18.7" height="15.0" fill="rgb(229,107,27)" rx="2" ry="2" />
<text  x="37.41" y="47.5" ></text>
</g>
<g >
<title>drain_ring_lockless (342 samples, 1.28%)</title><rect x="1174.9" y="117" width="15.1" height="15.0" fill="rgb(221,59,32)" rx="2" ry="2" />
<text  x="1177.93" y="127.5" ></text>
</g>
<g >
<title>ixl_isc_txd_encap (3,472 samples, 12.97%)</title><rect x="1002.1" y="37" width="153.0" height="15.0" fill="rgb(238,43,21)" rx="2" ry="2" />
<text  x="1005.09" y="47.5" >ixl_isc_txd_encap</text>
</g>
<g >
<title>m_tag_locate (63 samples, 0.24%)</title><rect x="824.4" y="53" width="2.8" height="15.0" fill="rgb(251,86,39)" rx="2" ry="2" />
<text  x="827.45" y="63.5" ></text>
</g>
<g >
<title>ether_output (360 samples, 1.34%)</title><rect x="867.4" y="117" width="15.8" height="15.0" fill="rgb(216,34,45)" rx="2" ry="2" />
<text  x="870.37" y="127.5" ></text>
</g>
<g >
<title>iflib_txd_db_check (511 samples, 1.91%)</title><rect x="53.1" y="37" width="22.5" height="15.0" fill="rgb(240,23,24)" rx="2" ry="2" />
<text  x="56.06" y="47.5" >i..</text>
</g>
<g >
<title>ifmp_ring_enqueue (1,320 samples, 4.93%)</title><rect x="17.4" y="85" width="58.2" height="15.0" fill="rgb(251,89,4)" rx="2" ry="2" />
<text  x="20.40" y="95.5" >ifmp_r..</text>
</g>
<g >
<title>ip_tryforward (1,320 samples, 4.93%)</title><rect x="17.4" y="149" width="58.2" height="15.0" fill="rgb(215,33,52)" rx="2" ry="2" />
<text  x="20.40" y="159.5" >ip_try..</text>
</g>
<g >
<title>iflib_completed_tx_reclaim (49 samples, 0.18%)</title><rect x="75.6" y="69" width="2.1" height="15.0" fill="rgb(230,13,50)" rx="2" ry="2" />
<text  x="78.58" y="79.5" ></text>
</g>
<g >
<title>netisr_dispatch_src (4,109 samples, 15.35%)</title><rect x="992.2" y="245" width="181.1" height="15.0" fill="rgb(217,123,15)" rx="2" ry="2" />
<text  x="995.17" y="255.5" >netisr_dispatch_src</text>
</g>
<g >
<title>iflib_if_transmit (312 samples, 1.17%)</title><rect x="75.6" y="133" width="13.7" height="15.0" fill="rgb(229,93,34)" rx="2" ry="2" />
<text  x="78.58" y="143.5" ></text>
</g>
<g >
<title>arpresolve (139 samples, 0.52%)</title><rect x="180.1" y="69" width="6.1" height="15.0" fill="rgb(232,187,30)" rx="2" ry="2" />
<text  x="183.06" y="79.5" ></text>
</g>
<g >
<title>iflib_txq_drain (4,109 samples, 15.35%)</title><rect x="992.2" y="69" width="181.1" height="15.0" fill="rgb(233,118,24)" rx="2" ry="2" />
<text  x="995.17" y="79.5" >iflib_txq_drain</text>
</g>
<g >
<title>pfil_mbuf_fwd (856 samples, 3.20%)</title><rect x="229.0" y="85" width="37.7" height="15.0" fill="rgb(227,145,28)" rx="2" ry="2" />
<text  x="232.02" y="95.5" >pfi..</text>
</g>
<g >
<title>iflib_txd_db_check (412 samples, 1.54%)</title><rect x="1155.1" y="53" width="18.2" height="15.0" fill="rgb(222,122,17)" rx="2" ry="2" />
<text  x="1158.10" y="63.5" ></text>
</g>
<g >
<title>ether_demux (1,320 samples, 4.93%)</title><rect x="17.4" y="197" width="58.2" height="15.0" fill="rgb(235,216,14)" rx="2" ry="2" />
<text  x="20.40" y="207.5" >ether_..</text>
</g>
<g >
<title>ether_demux (342 samples, 1.28%)</title><rect x="1174.9" y="245" width="15.1" height="15.0" fill="rgb(250,214,32)" rx="2" ry="2" />
<text  x="1177.93" y="255.5" ></text>
</g>
<g >
<title>m_free (316 samples, 1.18%)</title><rect x="1176.1" y="53" width="13.9" height="15.0" fill="rgb(221,165,44)" rx="2" ry="2" />
<text  x="1179.07" y="63.5" ></text>
</g>
<g >
<title>_rm_rlock (187 samples, 0.70%)</title><rect x="816.2" y="37" width="8.2" height="15.0" fill="rgb(249,192,18)" rx="2" ry="2" />
<text  x="819.20" y="47.5" ></text>
</g>
<g >
<title>ether_output_frame (2,472 samples, 9.23%)</title><rect x="883.2" y="85" width="109.0" height="15.0" fill="rgb(251,66,35)" rx="2" ry="2" />
<text  x="886.23" y="95.5" >ether_output_..</text>
</g>
<g >
<title>_rm_rlock (315 samples, 1.18%)</title><rect x="252.6" y="37" width="13.9" height="15.0" fill="rgb(241,80,25)" rx="2" ry="2" />
<text  x="255.65" y="47.5" ></text>
</g>
<g >
<title>ether_input (1,320 samples, 4.93%)</title><rect x="17.4" y="245" width="58.2" height="15.0" fill="rgb(250,11,5)" rx="2" ry="2" />
<text  x="20.40" y="255.5" >ether_..</text>
</g>
<g >
<title>wakeup_any (789 samples, 2.95%)</title><rect x="101.1" y="197" width="34.8" height="15.0" fill="rgb(242,217,11)" rx="2" ry="2" />
<text  x="104.09" y="207.5" >wa..</text>
</g>
<g >
<title>ip_findroute (128 samples, 0.48%)</title><rect x="223.4" y="85" width="5.6" height="15.0" fill="rgb(232,8,30)" rx="2" ry="2" />
<text  x="226.38" y="95.5" ></text>
</g>
<g >
<title>iflib_rxeof (2,472 samples, 9.23%)</title><rect x="883.2" y="229" width="109.0" height="15.0" fill="rgb(234,119,29)" rx="2" ry="2" />
<text  x="886.23" y="239.5" >iflib_rxeof</text>
</g>
<g >
<title>iflib_encap (3,555 samples, 13.28%)</title><rect x="998.4" y="53" width="156.7" height="15.0" fill="rgb(240,57,29)" rx="2" ry="2" />
<text  x="1001.43" y="63.5" >iflib_encap</text>
</g>
<g >
<title>ether_output_frame (360 samples, 1.34%)</title><rect x="867.4" y="101" width="15.8" height="15.0" fill="rgb(210,193,39)" rx="2" ry="2" />
<text  x="870.37" y="111.5" ></text>
</g>
<g >
<title>mb_dtor_mbuf (42 samples, 0.16%)</title><rect x="89.3" y="37" width="1.9" height="15.0" fill="rgb(226,77,25)" rx="2" ry="2" />
<text  x="92.32" y="47.5" ></text>
</g>
<g >
<title>ether_input (360 samples, 1.34%)</title><rect x="867.4" y="229" width="15.8" height="15.0" fill="rgb(208,120,2)" rx="2" ry="2" />
<text  x="870.37" y="239.5" ></text>
</g>
<g >
<title>m_freem (42 samples, 0.16%)</title><rect x="89.3" y="85" width="1.9" height="15.0" fill="rgb(215,199,13)" rx="2" ry="2" />
<text  x="92.32" y="95.5" ></text>
</g>
<g >
<title>ip_input (42 samples, 0.16%)</title><rect x="89.3" y="229" width="1.9" height="15.0" fill="rgb(226,195,14)" rx="2" ry="2" />
<text  x="92.32" y="239.5" ></text>
</g>
<g >
<title>ether_output (42 samples, 0.16%)</title><rect x="89.3" y="197" width="1.9" height="15.0" fill="rgb(252,49,46)" rx="2" ry="2" />
<text  x="92.32" y="207.5" ></text>
</g>
<g >
<title>ether_nh_input (312 samples, 1.17%)</title><rect x="75.6" y="245" width="13.7" height="15.0" fill="rgb(218,210,2)" rx="2" ry="2" />
<text  x="78.58" y="255.5" ></text>
</g>
<g >
<title>ether_input (2,472 samples, 9.23%)</title><rect x="883.2" y="213" width="109.0" height="15.0" fill="rgb(222,142,3)" rx="2" ry="2" />
<text  x="886.23" y="223.5" >ether_input</text>
</g>
<g >
<title>gtaskqueue_run_locked (17,613 samples, 65.78%)</title><rect x="91.2" y="245" width="776.2" height="15.0" fill="rgb(216,142,36)" rx="2" ry="2" />
<text  x="94.18" y="255.5" >gtaskqueue_run_locked</text>
</g>
<g >
<title>ether_input (4,109 samples, 15.35%)</title><rect x="992.2" y="261" width="181.1" height="15.0" fill="rgb(253,91,47)" rx="2" ry="2" />
<text  x="995.17" y="271.5" >ether_input</text>
</g>
<g >
<title>if_getdrvflags (10 samples, 0.04%)</title><rect x="828.9" y="197" width="0.5" height="15.0" fill="rgb(253,215,37)" rx="2" ry="2" />
<text  x="831.94" y="207.5" ></text>
</g>
<g >
<title>uma_zalloc_arg (73 samples, 0.27%)</title><rect x="833.6" y="181" width="3.2" height="15.0" fill="rgb(223,38,3)" rx="2" ry="2" />
<text  x="836.57" y="191.5" ></text>
</g>
<g >
<title>netisr_dispatch_src (360 samples, 1.34%)</title><rect x="867.4" y="165" width="15.8" height="15.0" fill="rgb(253,226,49)" rx="2" ry="2" />
<text  x="870.37" y="175.5" ></text>
</g>
<g >
<title>pmc_hook_handler (36 samples, 0.13%)</title><rect x="1173.3" y="213" width="1.6" height="15.0" fill="rgb(214,192,2)" rx="2" ry="2" />
<text  x="1176.34" y="223.5" ></text>
</g>
<g >
<title>ifmp_ring_enqueue (42 samples, 0.16%)</title><rect x="89.3" y="149" width="1.9" height="15.0" fill="rgb(253,183,24)" rx="2" ry="2" />
<text  x="92.32" y="159.5" ></text>
</g>
<g >
<title>pmap_kextract (53 samples, 0.20%)</title><rect x="1176.1" y="37" width="2.3" height="15.0" fill="rgb(242,150,52)" rx="2" ry="2" />
<text  x="1179.07" y="47.5" ></text>
</g>
<g >
<title>sleepq_lock (14 samples, 0.05%)</title><rect x="866.8" y="213" width="0.6" height="15.0" fill="rgb(218,110,5)" rx="2" ry="2" />
<text  x="869.75" y="223.5" ></text>
</g>
<g >
<title>ipfw_check_packet (856 samples, 3.20%)</title><rect x="229.0" y="69" width="37.7" height="15.0" fill="rgb(216,191,27)" rx="2" ry="2" />
<text  x="232.02" y="79.5" >ipf..</text>
</g>
<g >
<title>ether_demux (312 samples, 1.17%)</title><rect x="75.6" y="229" width="13.7" height="15.0" fill="rgb(243,100,18)" rx="2" ry="2" />
<text  x="78.58" y="239.5" ></text>
</g>
<g >
<title>drain_ring_lockless (1,320 samples, 4.93%)</title><rect x="17.4" y="69" width="58.2" height="15.0" fill="rgb(240,118,2)" rx="2" ry="2" />
<text  x="20.40" y="79.5" >drain_..</text>
</g>
<g >
<title>ether_nh_input (15,348 samples, 57.32%)</title><rect x="152.6" y="165" width="676.3" height="15.0" fill="rgb(233,155,22)" rx="2" ry="2" />
<text  x="155.56" y="175.5" >ether_nh_input</text>
</g>
<g >
<title>ifmp_ring_enqueue (360 samples, 1.34%)</title><rect x="867.4" y="69" width="15.8" height="15.0" fill="rgb(212,194,18)" rx="2" ry="2" />
<text  x="870.37" y="79.5" ></text>
</g>
<g >
<title>pmc_process_samples (36 samples, 0.13%)</title><rect x="1173.3" y="197" width="1.6" height="15.0" fill="rgb(245,177,51)" rx="2" ry="2" />
<text  x="1176.34" y="207.5" ></text>
</g>
<g >
<title>iflib_if_transmit (1,320 samples, 4.93%)</title><rect x="17.4" y="101" width="58.2" height="15.0" fill="rgb(246,36,26)" rx="2" ry="2" />
<text  x="20.40" y="111.5" >iflib_..</text>
</g>
<g >
<title>handleevents (36 samples, 0.13%)</title><rect x="1173.3" y="245" width="1.6" height="15.0" fill="rgb(248,207,2)" rx="2" ry="2" />
<text  x="1176.34" y="255.5" ></text>
</g>
<g >
<title>memcmp (39 samples, 0.15%)</title><rect x="827.2" y="149" width="1.7" height="15.0" fill="rgb(213,117,7)" rx="2" ry="2" />
<text  x="830.22" y="159.5" ></text>
</g>
<g >
<title>bounce_bus_dmamap_load_buffer (263 samples, 0.98%)</title><rect x="77.7" y="37" width="11.6" height="15.0" fill="rgb(206,138,17)" rx="2" ry="2" />
<text  x="80.73" y="47.5" ></text>
</g>
<g >
<title>ether_demux (360 samples, 1.34%)</title><rect x="867.4" y="181" width="15.8" height="15.0" fill="rgb(236,144,19)" rx="2" ry="2" />
<text  x="870.37" y="191.5" ></text>
</g>
<g >
<title>_task_fn_rx (2,472 samples, 9.23%)</title><rect x="883.2" y="245" width="109.0" height="15.0" fill="rgb(223,52,31)" rx="2" ry="2" />
<text  x="886.23" y="255.5" >_task_fn_rx</text>
</g>
<g >
<title>ether_output_frame (342 samples, 1.28%)</title><rect x="1174.9" y="165" width="15.1" height="15.0" fill="rgb(213,170,6)" rx="2" ry="2" />
<text  x="1177.93" y="175.5" ></text>
</g>
<g >
<title>ixl_isc_txd_credits_update_hwb (142 samples, 0.53%)</title><rect x="992.2" y="37" width="6.2" height="15.0" fill="rgb(207,189,13)" rx="2" ry="2" />
<text  x="995.17" y="47.5" ></text>
</g>
<g >
<title>fork_exit (17,613 samples, 65.78%)</title><rect x="91.2" y="277" width="776.2" height="15.0" fill="rgb(232,80,28)" rx="2" ry="2" />
<text  x="94.18" y="287.5" >fork_exit</text>
</g>
<g >
<title>uma_zfree_arg (42 samples, 0.16%)</title><rect x="89.3" y="53" width="1.9" height="15.0" fill="rgb(214,119,40)" rx="2" ry="2" />
<text  x="92.32" y="63.5" ></text>
</g>
<g >
<title>gtaskqueue_run_locked (360 samples, 1.34%)</title><rect x="867.4" y="277" width="15.8" height="15.0" fill="rgb(254,109,7)" rx="2" ry="2" />
<text  x="870.37" y="287.5" ></text>
</g>
<g >
<title>ip_input (342 samples, 1.28%)</title><rect x="1174.9" y="213" width="15.1" height="15.0" fill="rgb(224,22,28)" rx="2" ry="2" />
<text  x="1177.93" y="223.5" ></text>
</g>
<g >
<title>bus_dmamap_load_mbuf_sg (263 samples, 0.98%)</title><rect x="77.7" y="53" width="11.6" height="15.0" fill="rgb(247,64,29)" rx="2" ry="2" />
<text  x="80.73" y="63.5" ></text>
</g>
<g >
<title>ether_output (1,320 samples, 4.93%)</title><rect x="17.4" y="133" width="58.2" height="15.0" fill="rgb(234,15,49)" rx="2" ry="2" />
<text  x="20.40" y="143.5" >ether_..</text>
</g>
<g >
<title>Xapic_isr1 (168 samples, 0.63%)</title><rect x="10.0" y="277" width="7.4" height="15.0" fill="rgb(222,169,41)" rx="2" ry="2" />
<text  x="13.00" y="287.5" ></text>
</g>
<g >
<title>ip_input (15,173 samples, 56.67%)</title><rect x="158.6" y="117" width="668.6" height="15.0" fill="rgb(249,225,53)" rx="2" ry="2" />
<text  x="161.56" y="127.5" >ip_input</text>
</g>
<g >
<title>ether_demux (4,109 samples, 15.35%)</title><rect x="992.2" y="213" width="181.1" height="15.0" fill="rgb(239,225,30)" rx="2" ry="2" />
<text  x="995.17" y="223.5" >ether_demux</text>
</g>
<g >
<title>iflib_txq_drain (42 samples, 0.16%)</title><rect x="89.3" y="117" width="1.9" height="15.0" fill="rgb(205,185,18)" rx="2" ry="2" />
<text  x="92.32" y="127.5" ></text>
</g>
<g >
<title>ifmp_ring_enqueue (2,472 samples, 9.23%)</title><rect x="883.2" y="53" width="109.0" height="15.0" fill="rgb(229,26,36)" rx="2" ry="2" />
<text  x="886.23" y="63.5" >ifmp_ring_enq..</text>
</g>
<g >
<title>iflib_rxeof (16,584 samples, 61.94%)</title><rect x="135.9" y="213" width="730.9" height="15.0" fill="rgb(241,4,5)" rx="2" ry="2" />
<text  x="138.91" y="223.5" >iflib_rxeof</text>
</g>
<g >
<title>iflib_txq_drain (1,320 samples, 4.93%)</title><rect x="17.4" y="53" width="58.2" height="15.0" fill="rgb(219,57,9)" rx="2" ry="2" />
<text  x="20.40" y="63.5" >iflib_..</text>
</g>
<g >
<title>drain_ring_lockless (360 samples, 1.34%)</title><rect x="867.4" y="53" width="15.8" height="15.0" fill="rgb(219,118,53)" rx="2" ry="2" />
<text  x="870.37" y="63.5" ></text>
</g>
<g >
<title>ip_tryforward (42 samples, 0.16%)</title><rect x="89.3" y="213" width="1.9" height="15.0" fill="rgb(230,70,15)" rx="2" ry="2" />
<text  x="92.32" y="223.5" ></text>
</g>
<g >
<title>ip_tryforward (15,120 samples, 56.47%)</title><rect x="160.9" y="101" width="666.3" height="15.0" fill="rgb(210,4,19)" rx="2" ry="2" />
<text  x="163.89" y="111.5" >ip_tryforward</text>
</g>
<g >
<title>drain_ring_lockless (312 samples, 1.17%)</title><rect x="75.6" y="101" width="13.7" height="15.0" fill="rgb(213,9,17)" rx="2" ry="2" />
<text  x="78.58" y="111.5" ></text>
</g>
<g >
<title>ip_input (4,109 samples, 15.35%)</title><rect x="992.2" y="181" width="181.1" height="15.0" fill="rgb(212,21,10)" rx="2" ry="2" />
<text  x="995.17" y="191.5" >ip_input</text>
</g>
<g >
<title>ip_tryforward (4,109 samples, 15.35%)</title><rect x="992.2" y="165" width="181.1" height="15.0" fill="rgb(219,149,12)" rx="2" ry="2" />
<text  x="995.17" y="175.5" >ip_tryforward</text>
</g>
<g >
<title>ether_output_frame (4,109 samples, 15.35%)</title><rect x="992.2" y="133" width="181.1" height="15.0" fill="rgb(228,91,19)" rx="2" ry="2" />
<text  x="995.17" y="143.5" >ether_output_frame</text>
</g>
<g >
<title>netisr_dispatch_src (360 samples, 1.34%)</title><rect x="867.4" y="213" width="15.8" height="15.0" fill="rgb(239,179,6)" rx="2" ry="2" />
<text  x="870.37" y="223.5" ></text>
</g>
<g >
<title>ip_tryforward (312 samples, 1.17%)</title><rect x="75.6" y="181" width="13.7" height="15.0" fill="rgb(212,152,43)" rx="2" ry="2" />
<text  x="78.58" y="191.5" ></text>
</g>
<g >
<title>ether_output (4,109 samples, 15.35%)</title><rect x="992.2" y="149" width="181.1" height="15.0" fill="rgb(250,110,6)" rx="2" ry="2" />
<text  x="995.17" y="159.5" >ether_output</text>
</g>
</g>
</svg>
