<?xml version="1.0" standalone="no"?>
<!DOCTYPE svg PUBLIC "-//W3C//DTD SVG 1.1//EN" "http://www.w3.org/Graphics/SVG/1.1/DTD/svg11.dtd">
<svg version="1.1" width="1200" height="342" onload="init(evt)" viewBox="0 0 1200 342" xmlns="http://www.w3.org/2000/svg" xmlns:xlink="http://www.w3.org/1999/xlink">
<!-- Flame graph stack visualization. See https://github.com/brendangregg/FlameGraph for latest version, and http://www.brendangregg.com/flamegraphs.html for examples. -->
<!-- NOTES:  -->
<defs>
	<linearGradient id="background" y1="0" y2="1" x1="0" x2="0" >
		<stop stop-color="#eeeeee" offset="5%" />
		<stop stop-color="#eeeeb0" offset="95%" />
	</linearGradient>
</defs>
<style type="text/css">
	text { font-family:Verdana; font-size:12px; fill:rgb(0,0,0); }
	#search, #ignorecase { opacity:0.1; cursor:pointer; }
	#search:hover, #search.show, #ignorecase:hover, #ignorecase.show { opacity:1; }
	#subtitle { text-anchor:middle; font-color:rgb(160,160,160); }
	#title { text-anchor:middle; font-size:17px}
	#unzoom { cursor:pointer; }
	#frames > *:hover { stroke:black; stroke-width:0.5; cursor:pointer; }
	.hide { display:none; }
	.parent { opacity:0.5; }
</style>
<script type="text/ecmascript">
<![CDATA[
	"use strict";
	var details, searchbtn, unzoombtn, matchedtxt, svg, searching, currentSearchTerm, ignorecase, ignorecaseBtn;
	function init(evt) {
		details = document.getElementById("details").firstChild;
		searchbtn = document.getElementById("search");
		ignorecaseBtn = document.getElementById("ignorecase");
		unzoombtn = document.getElementById("unzoom");
		matchedtxt = document.getElementById("matched");
		svg = document.getElementsByTagName("svg")[0];
		searching = 0;
		currentSearchTerm = null;

		// use GET parameters to restore a flamegraphs state.
		var params = get_params();
		if (params.x && params.y)
			zoom(find_group(document.querySelector('[x="' + params.x + '"][y="' + params.y + '"]')));
                if (params.s) search(params.s);
	}

	// event listeners
	window.addEventListener("click", function(e) {
		var target = find_group(e.target);
		if (target) {
			if (target.nodeName == "a") {
				if (e.ctrlKey === false) return;
				e.preventDefault();
			}
			if (target.classList.contains("parent")) unzoom();
			zoom(target);
			if (!document.querySelector('.parent')) {
				clearzoom();
				return;
			}

			// set parameters for zoom state
			var el = target.querySelector("rect");
			if (el && el.attributes && el.attributes.y && el.attributes._orig_x) {
				var params = get_params()
				params.x = el.attributes._orig_x.value;
				params.y = el.attributes.y.value;
				history.replaceState(null, null, parse_params(params));
			}
		}
		else if (e.target.id == "unzoom") clearzoom();
		else if (e.target.id == "search") search_prompt();
		else if (e.target.id == "ignorecase") toggle_ignorecase();
	}, false)

	// mouse-over for info
	// show
	window.addEventListener("mouseover", function(e) {
		var target = find_group(e.target);
		if (target) details.nodeValue = "Function: " + g_to_text(target);
	}, false)

	// clear
	window.addEventListener("mouseout", function(e) {
		var target = find_group(e.target);
		if (target) details.nodeValue = ' ';
	}, false)

	// ctrl-F for search
	// ctrl-I to toggle case-sensitive search
	window.addEventListener("keydown",function (e) {
		if (e.keyCode === 114 || (e.ctrlKey && e.keyCode === 70)) {
			e.preventDefault();
			search_prompt();
		}
		else if (e.ctrlKey && e.keyCode === 73) {
			e.preventDefault();
			toggle_ignorecase();
		}
	}, false)

	// functions
	function get_params() {
		var params = {};
		var paramsarr = window.location.search.substr(1).split('&');
		for (var i = 0; i < paramsarr.length; ++i) {
			var tmp = paramsarr[i].split("=");
			if (!tmp[0] || !tmp[1]) continue;
			params[tmp[0]]  = decodeURIComponent(tmp[1]);
		}
		return params;
	}
	function parse_params(params) {
		var uri = "?";
		for (var key in params) {
			uri += key + '=' + encodeURIComponent(params[key]) + '&';
		}
		if (uri.slice(-1) == "&")
			uri = uri.substring(0, uri.length - 1);
		if (uri == '?')
			uri = window.location.href.split('?')[0];
		return uri;
	}
	function find_child(node, selector) {
		var children = node.querySelectorAll(selector);
		if (children.length) return children[0];
	}
	function find_group(node) {
		var parent = node.parentElement;
		if (!parent) return;
		if (parent.id == "frames") return node;
		return find_group(parent);
	}
	function orig_save(e, attr, val) {
		if (e.attributes["_orig_" + attr] != undefined) return;
		if (e.attributes[attr] == undefined) return;
		if (val == undefined) val = e.attributes[attr].value;
		e.setAttribute("_orig_" + attr, val);
	}
	function orig_load(e, attr) {
		if (e.attributes["_orig_"+attr] == undefined) return;
		e.attributes[attr].value = e.attributes["_orig_" + attr].value;
		e.removeAttribute("_orig_"+attr);
	}
	function g_to_text(e) {
		var text = find_child(e, "title").firstChild.nodeValue;
		return (text)
	}
	function g_to_func(e) {
		var func = g_to_text(e);
		// if there's any manipulation we want to do to the function
		// name before it's searched, do it here before returning.
		return (func);
	}
	function update_text(e) {
		var r = find_child(e, "rect");
		var t = find_child(e, "text");
		var w = parseFloat(r.attributes.width.value) -3;
		var txt = find_child(e, "title").textContent.replace(/\([^(]*\)$/,"");
		t.attributes.x.value = parseFloat(r.attributes.x.value) + 3;

		// Smaller than this size won't fit anything
		if (w < 2 * 12 * 0.59) {
			t.textContent = "";
			return;
		}

		t.textContent = txt;
		// Fit in full text width
		if (/^ *$/.test(txt) || t.getSubStringLength(0, txt.length) < w)
			return;

		for (var x = txt.length - 2; x > 0; x--) {
			if (t.getSubStringLength(0, x + 2) <= w) {
				t.textContent = txt.substring(0, x) + "..";
				return;
			}
		}
		t.textContent = "";
	}

	// zoom
	function zoom_reset(e) {
		if (e.attributes != undefined) {
			orig_load(e, "x");
			orig_load(e, "width");
		}
		if (e.childNodes == undefined) return;
		for (var i = 0, c = e.childNodes; i < c.length; i++) {
			zoom_reset(c[i]);
		}
	}
	function zoom_child(e, x, ratio) {
		if (e.attributes != undefined) {
			if (e.attributes.x != undefined) {
				orig_save(e, "x");
				e.attributes.x.value = (parseFloat(e.attributes.x.value) - x - 10) * ratio + 10;
				if (e.tagName == "text")
					e.attributes.x.value = find_child(e.parentNode, "rect[x]").attributes.x.value + 3;
			}
			if (e.attributes.width != undefined) {
				orig_save(e, "width");
				e.attributes.width.value = parseFloat(e.attributes.width.value) * ratio;
			}
		}

		if (e.childNodes == undefined) return;
		for (var i = 0, c = e.childNodes; i < c.length; i++) {
			zoom_child(c[i], x - 10, ratio);
		}
	}
	function zoom_parent(e) {
		if (e.attributes) {
			if (e.attributes.x != undefined) {
				orig_save(e, "x");
				e.attributes.x.value = 10;
			}
			if (e.attributes.width != undefined) {
				orig_save(e, "width");
				e.attributes.width.value = parseInt(svg.width.baseVal.value) - (10 * 2);
			}
		}
		if (e.childNodes == undefined) return;
		for (var i = 0, c = e.childNodes; i < c.length; i++) {
			zoom_parent(c[i]);
		}
	}
	function zoom(node) {
		var attr = find_child(node, "rect").attributes;
		var width = parseFloat(attr.width.value);
		var xmin = parseFloat(attr.x.value);
		var xmax = parseFloat(xmin + width);
		var ymin = parseFloat(attr.y.value);
		var ratio = (svg.width.baseVal.value - 2 * 10) / width;

		// XXX: Workaround for JavaScript float issues (fix me)
		var fudge = 0.0001;

		unzoombtn.classList.remove("hide");

		var el = document.getElementById("frames").children;
		for (var i = 0; i < el.length; i++) {
			var e = el[i];
			var a = find_child(e, "rect").attributes;
			var ex = parseFloat(a.x.value);
			var ew = parseFloat(a.width.value);
			var upstack;
			// Is it an ancestor
			if (0 == 0) {
				upstack = parseFloat(a.y.value) > ymin;
			} else {
				upstack = parseFloat(a.y.value) < ymin;
			}
			if (upstack) {
				// Direct ancestor
				if (ex <= xmin && (ex+ew+fudge) >= xmax) {
					e.classList.add("parent");
					zoom_parent(e);
					update_text(e);
				}
				// not in current path
				else
					e.classList.add("hide");
			}
			// Children maybe
			else {
				// no common path
				if (ex < xmin || ex + fudge >= xmax) {
					e.classList.add("hide");
				}
				else {
					zoom_child(e, xmin, ratio);
					update_text(e);
				}
			}
		}
		search();
	}
	function unzoom() {
		unzoombtn.classList.add("hide");
		var el = document.getElementById("frames").children;
		for(var i = 0; i < el.length; i++) {
			el[i].classList.remove("parent");
			el[i].classList.remove("hide");
			zoom_reset(el[i]);
			update_text(el[i]);
		}
		search();
	}
	function clearzoom() {
		unzoom();

		// remove zoom state
		var params = get_params();
		if (params.x) delete params.x;
		if (params.y) delete params.y;
		history.replaceState(null, null, parse_params(params));
	}

	// search
	function toggle_ignorecase() {
		ignorecase = !ignorecase;
		if (ignorecase) {
			ignorecaseBtn.classList.add("show");
		} else {
			ignorecaseBtn.classList.remove("show");
		}
		reset_search();
		search();
	}
	function reset_search() {
		var el = document.querySelectorAll("#frames rect");
		for (var i = 0; i < el.length; i++) {
			orig_load(el[i], "fill")
		}
		var params = get_params();
		delete params.s;
		history.replaceState(null, null, parse_params(params));
	}
	function search_prompt() {
		if (!searching) {
			var term = prompt("Enter a search term (regexp " +
			    "allowed, eg: ^ext4_)"
			    + (ignorecase ? ", ignoring case" : "")
			    + "\nPress Ctrl-i to toggle case sensitivity", "");
			if (term != null) search(term);
		} else {
			reset_search();
			searching = 0;
			currentSearchTerm = null;
			searchbtn.classList.remove("show");
			searchbtn.firstChild.nodeValue = "Search"
			matchedtxt.classList.add("hide");
			matchedtxt.firstChild.nodeValue = ""
		}
	}
	function search(term) {
		if (term) currentSearchTerm = term;

		var re = new RegExp(currentSearchTerm, ignorecase ? 'i' : '');
		var el = document.getElementById("frames").children;
		var matches = new Object();
		var maxwidth = 0;
		for (var i = 0; i < el.length; i++) {
			var e = el[i];
			var func = g_to_func(e);
			var rect = find_child(e, "rect");
			if (func == null || rect == null)
				continue;

			// Save max width. Only works as we have a root frame
			var w = parseFloat(rect.attributes.width.value);
			if (w > maxwidth)
				maxwidth = w;

			if (func.match(re)) {
				// highlight
				var x = parseFloat(rect.attributes.x.value);
				orig_save(rect, "fill");
				rect.attributes.fill.value = "rgb(230,0,230)";

				// remember matches
				if (matches[x] == undefined) {
					matches[x] = w;
				} else {
					if (w > matches[x]) {
						// overwrite with parent
						matches[x] = w;
					}
				}
				searching = 1;
			}
		}
		if (!searching)
			return;
		var params = get_params();
		params.s = currentSearchTerm;
		history.replaceState(null, null, parse_params(params));

		searchbtn.classList.add("show");
		searchbtn.firstChild.nodeValue = "Reset Search";

		// calculate percent matched, excluding vertical overlap
		var count = 0;
		var lastx = -1;
		var lastw = 0;
		var keys = Array();
		for (k in matches) {
			if (matches.hasOwnProperty(k))
				keys.push(k);
		}
		// sort the matched frames by their x location
		// ascending, then width descending
		keys.sort(function(a, b){
			return a - b;
		});
		// Step through frames saving only the biggest bottom-up frames
		// thanks to the sort order. This relies on the tree property
		// where children are always smaller than their parents.
		var fudge = 0.0001;	// JavaScript floating point
		for (var k in keys) {
			var x = parseFloat(keys[k]);
			var w = matches[keys[k]];
			if (x >= lastx + lastw - fudge) {
				count += w;
				lastx = x;
				lastw = w;
			}
		}
		// display matched percent
		matchedtxt.classList.remove("hide");
		var pct = 100 * count / maxwidth;
		if (pct != 100) pct = pct.toFixed(1)
		matchedtxt.firstChild.nodeValue = "Matched: " + pct + "%";
	}
]]>
</script>
<rect x="0.0" y="0" width="1200.0" height="342.0" fill="url(#background)"  />
<text id="title" x="600.00" y="24" >Flame Graph</text>
<text id="details" x="10.00" y="325" > </text>
<text id="unzoom" x="10.00" y="24" class="hide">Reset Zoom</text>
<text id="search" x="1090.00" y="24" >Search</text>
<text id="ignorecase" x="1174.00" y="24" >ic</text>
<text id="matched" x="1090.00" y="325" > </text>
<g id="frames">
<g >
<title>pmc_hook_handler (37 samples, 0.14%)</title><rect x="1174.5" y="213" width="1.6" height="15.0" fill="rgb(244,111,4)" rx="2" ry="2" />
<text  x="1177.48" y="223.5" ></text>
</g>
<g >
<title>ether_input (2,593 samples, 9.47%)</title><rect x="870.0" y="213" width="111.8" height="15.0" fill="rgb(216,99,3)" rx="2" ry="2" />
<text  x="872.99" y="223.5" >ether_input</text>
</g>
<g >
<title>ifmp_ring_enqueue (36 samples, 0.13%)</title><rect x="90.4" y="149" width="1.5" height="15.0" fill="rgb(236,141,10)" rx="2" ry="2" />
<text  x="93.37" y="159.5" ></text>
</g>
<g >
<title>intr_execute_handlers (40 samples, 0.15%)</title><rect x="1172.8" y="277" width="1.7" height="15.0" fill="rgb(245,133,47)" rx="2" ry="2" />
<text  x="1175.75" y="287.5" ></text>
</g>
<g >
<title>ether_nh_input (309 samples, 1.13%)</title><rect x="1176.7" y="261" width="13.3" height="15.0" fill="rgb(217,181,44)" rx="2" ry="2" />
<text  x="1179.68" y="271.5" ></text>
</g>
<g >
<title>iflib_fast_intr_rxtx (14 samples, 0.05%)</title><rect x="1173.9" y="245" width="0.6" height="15.0" fill="rgb(221,9,1)" rx="2" ry="2" />
<text  x="1176.87" y="255.5" ></text>
</g>
<g >
<title>drain_ring_lockless (4,429 samples, 16.18%)</title><rect x="981.8" y="85" width="191.0" height="15.0" fill="rgb(205,206,19)" rx="2" ry="2" />
<text  x="984.79" y="95.5" >drain_ring_lockless</text>
</g>
<g >
<title>ether_output (36 samples, 0.13%)</title><rect x="90.4" y="197" width="1.5" height="15.0" fill="rgb(253,204,0)" rx="2" ry="2" />
<text  x="93.37" y="207.5" ></text>
</g>
<g >
<title>netisr_dispatch_src (309 samples, 1.13%)</title><rect x="1176.7" y="229" width="13.3" height="15.0" fill="rgb(218,37,8)" rx="2" ry="2" />
<text  x="1179.68" y="239.5" ></text>
</g>
<g >
<title>m_pkthdr_init (33 samples, 0.12%)</title><rect x="834.8" y="197" width="1.4" height="15.0" fill="rgb(224,104,7)" rx="2" ry="2" />
<text  x="837.77" y="207.5" ></text>
</g>
<g >
<title>bsearch4_lookup (238 samples, 0.87%)</title><rect x="792.9" y="69" width="10.2" height="15.0" fill="rgb(226,64,2)" rx="2" ry="2" />
<text  x="795.86" y="79.5" ></text>
</g>
<g >
<title>ixl_isc_rxd_available (27 samples, 0.10%)</title><rect x="824.9" y="197" width="1.2" height="15.0" fill="rgb(252,173,14)" rx="2" ry="2" />
<text  x="827.89" y="207.5" ></text>
</g>
<g >
<title>iflib_rxeof (1,301 samples, 4.75%)</title><rect x="19.4" y="261" width="56.1" height="15.0" fill="rgb(248,55,15)" rx="2" ry="2" />
<text  x="22.36" y="271.5" >iflib..</text>
</g>
<g >
<title>iflib_txq_drain (346 samples, 1.26%)</title><rect x="75.5" y="85" width="14.9" height="15.0" fill="rgb(206,161,21)" rx="2" ry="2" />
<text  x="78.45" y="95.5" ></text>
</g>
<g >
<title>ip_input (4,429 samples, 16.18%)</title><rect x="981.8" y="181" width="191.0" height="15.0" fill="rgb(237,23,33)" rx="2" ry="2" />
<text  x="984.79" y="191.5" >ip_input</text>
</g>
<g >
<title>ixl_isc_txd_flush (386 samples, 1.41%)</title><rect x="1156.1" y="37" width="16.7" height="15.0" fill="rgb(249,182,30)" rx="2" ry="2" />
<text  x="1159.11" y="47.5" ></text>
</g>
<g >
<title>m_free (309 samples, 1.13%)</title><rect x="1176.7" y="53" width="13.3" height="15.0" fill="rgb(252,163,54)" rx="2" ry="2" />
<text  x="1179.68" y="63.5" ></text>
</g>
<g >
<title>m_freem (14 samples, 0.05%)</title><rect x="1176.1" y="277" width="0.6" height="15.0" fill="rgb(206,79,21)" rx="2" ry="2" />
<text  x="1179.07" y="287.5" ></text>
</g>
<g >
<title>all (27,368 samples, 100%)</title><rect x="10.0" y="293" width="1180.0" height="15.0" fill="rgb(236,35,33)" rx="2" ry="2" />
<text  x="13.00" y="303.5" ></text>
</g>
<g >
<title>uma_zfree_arg (226 samples, 0.83%)</title><rect x="1180.3" y="37" width="9.7" height="15.0" fill="rgb(253,45,6)" rx="2" ry="2" />
<text  x="1183.26" y="47.5" ></text>
</g>
<g >
<title>ether_output_frame (345 samples, 1.26%)</title><rect x="855.1" y="101" width="14.9" height="15.0" fill="rgb(242,106,28)" rx="2" ry="2" />
<text  x="858.12" y="111.5" ></text>
</g>
<g >
<title>ether_output (346 samples, 1.26%)</title><rect x="75.5" y="165" width="14.9" height="15.0" fill="rgb(233,121,22)" rx="2" ry="2" />
<text  x="78.45" y="175.5" ></text>
</g>
<g >
<title>mb_dtor_mbuf (36 samples, 0.13%)</title><rect x="90.4" y="37" width="1.5" height="15.0" fill="rgb(221,141,15)" rx="2" ry="2" />
<text  x="93.37" y="47.5" ></text>
</g>
<g >
<title>gtaskqueue_thread_loop (2,593 samples, 9.47%)</title><rect x="870.0" y="277" width="111.8" height="15.0" fill="rgb(253,191,15)" rx="2" ry="2" />
<text  x="872.99" y="287.5" >gtaskqueue_th..</text>
</g>
<g >
<title>netisr_dispatch_src (1,301 samples, 4.75%)</title><rect x="19.4" y="229" width="56.1" height="15.0" fill="rgb(245,201,5)" rx="2" ry="2" />
<text  x="22.36" y="239.5" >netis..</text>
</g>
<g >
<title>iflib_txq_drain (309 samples, 1.13%)</title><rect x="1176.7" y="101" width="13.3" height="15.0" fill="rgb(214,62,53)" rx="2" ry="2" />
<text  x="1179.68" y="111.5" ></text>
</g>
<g >
<title>netisr_dispatch_src (346 samples, 1.26%)</title><rect x="75.5" y="213" width="14.9" height="15.0" fill="rgb(252,215,41)" rx="2" ry="2" />
<text  x="78.45" y="223.5" ></text>
</g>
<g >
<title>drain_ring_lockless (309 samples, 1.13%)</title><rect x="1176.7" y="117" width="13.3" height="15.0" fill="rgb(214,136,1)" rx="2" ry="2" />
<text  x="1179.68" y="127.5" ></text>
</g>
<g >
<title>sleepq_lock (799 samples, 2.92%)</title><rect x="103.6" y="181" width="34.5" height="15.0" fill="rgb(233,164,52)" rx="2" ry="2" />
<text  x="106.60" y="191.5" >sl..</text>
</g>
<g >
<title>drain_ring_lockless (345 samples, 1.26%)</title><rect x="855.1" y="53" width="14.9" height="15.0" fill="rgb(206,163,11)" rx="2" ry="2" />
<text  x="858.12" y="63.5" ></text>
</g>
<g >
<title>ip_findroute (503 samples, 1.84%)</title><rect x="791.2" y="85" width="21.7" height="15.0" fill="rgb(207,93,23)" rx="2" ry="2" />
<text  x="794.18" y="95.5" >i..</text>
</g>
<g >
<title>netisr_dispatch_src (4,429 samples, 16.18%)</title><rect x="981.8" y="197" width="191.0" height="15.0" fill="rgb(229,107,21)" rx="2" ry="2" />
<text  x="984.79" y="207.5" >netisr_dispatch_src</text>
</g>
<g >
<title>ether_demux (4,429 samples, 16.18%)</title><rect x="981.8" y="213" width="191.0" height="15.0" fill="rgb(224,32,3)" rx="2" ry="2" />
<text  x="984.79" y="223.5" >ether_demux</text>
</g>
<g >
<title>ifmp_ring_enqueue (346 samples, 1.26%)</title><rect x="75.5" y="117" width="14.9" height="15.0" fill="rgb(248,19,51)" rx="2" ry="2" />
<text  x="78.45" y="127.5" ></text>
</g>
<g >
<title>iflib_completed_tx_reclaim (317 samples, 1.16%)</title><rect x="22.0" y="37" width="13.7" height="15.0" fill="rgb(216,199,18)" rx="2" ry="2" />
<text  x="24.99" y="47.5" ></text>
</g>
<g >
<title>bus_dmamap_load_mbuf_sg (324 samples, 1.18%)</title><rect x="76.4" y="53" width="14.0" height="15.0" fill="rgb(217,225,42)" rx="2" ry="2" />
<text  x="79.40" y="63.5" ></text>
</g>
<g >
<title>iflib_txq_drain (1,301 samples, 4.75%)</title><rect x="19.4" y="53" width="56.1" height="15.0" fill="rgb(205,82,6)" rx="2" ry="2" />
<text  x="22.36" y="63.5" >iflib..</text>
</g>
<g >
<title>ether_demux (345 samples, 1.26%)</title><rect x="855.1" y="181" width="14.9" height="15.0" fill="rgb(232,83,35)" rx="2" ry="2" />
<text  x="858.12" y="191.5" ></text>
</g>
<g >
<title>ether_output (1,301 samples, 4.75%)</title><rect x="19.4" y="133" width="56.1" height="15.0" fill="rgb(246,13,15)" rx="2" ry="2" />
<text  x="22.36" y="143.5" >ether..</text>
</g>
<g >
<title>_epoch_enter_preempt (58 samples, 0.21%)</title><rect x="100.6" y="229" width="2.5" height="15.0" fill="rgb(211,193,35)" rx="2" ry="2" />
<text  x="103.59" y="239.5" ></text>
</g>
<g >
<title>if_inc_counter (41 samples, 0.15%)</title><rect x="20.2" y="37" width="1.8" height="15.0" fill="rgb(247,28,9)" rx="2" ry="2" />
<text  x="23.22" y="47.5" ></text>
</g>
<g >
<title>netisr_dispatch_src (309 samples, 1.13%)</title><rect x="1176.7" y="277" width="13.3" height="15.0" fill="rgb(246,122,15)" rx="2" ry="2" />
<text  x="1179.68" y="287.5" ></text>
</g>
<g >
<title>fib4_lookup (226 samples, 0.83%)</title><rect x="803.1" y="69" width="9.8" height="15.0" fill="rgb(209,81,2)" rx="2" ry="2" />
<text  x="806.12" y="79.5" ></text>
</g>
<g >
<title>sleepq_lock (9 samples, 0.03%)</title><rect x="854.7" y="213" width="0.4" height="15.0" fill="rgb(244,32,13)" rx="2" ry="2" />
<text  x="857.73" y="223.5" ></text>
</g>
<g >
<title>ether_output (309 samples, 1.13%)</title><rect x="1176.7" y="181" width="13.3" height="15.0" fill="rgb(211,55,12)" rx="2" ry="2" />
<text  x="1179.68" y="191.5" ></text>
</g>
<g >
<title>ether_input (15,502 samples, 56.64%)</title><rect x="147.4" y="197" width="668.4" height="15.0" fill="rgb(205,178,22)" rx="2" ry="2" />
<text  x="150.41" y="207.5" >ether_input</text>
</g>
<g >
<title>Xapic_isr1 (201 samples, 0.73%)</title><rect x="10.0" y="277" width="8.7" height="15.0" fill="rgb(211,88,48)" rx="2" ry="2" />
<text  x="13.00" y="287.5" ></text>
</g>
<g >
<title>m_freem (22 samples, 0.08%)</title><rect x="75.5" y="53" width="0.9" height="15.0" fill="rgb(217,198,19)" rx="2" ry="2" />
<text  x="78.45" y="63.5" ></text>
</g>
<g >
<title>ether_nh_input (345 samples, 1.26%)</title><rect x="855.1" y="197" width="14.9" height="15.0" fill="rgb(248,103,30)" rx="2" ry="2" />
<text  x="858.12" y="207.5" ></text>
</g>
<g >
<title>ifmp_ring_enqueue (378 samples, 1.38%)</title><rect x="749.8" y="37" width="16.3" height="15.0" fill="rgb(206,180,48)" rx="2" ry="2" />
<text  x="752.79" y="47.5" ></text>
</g>
<g >
<title>ether_output_frame (1,301 samples, 4.75%)</title><rect x="19.4" y="117" width="56.1" height="15.0" fill="rgb(245,17,38)" rx="2" ry="2" />
<text  x="22.36" y="127.5" >ether..</text>
</g>
<g >
<title>pmc_process_samples (37 samples, 0.14%)</title><rect x="1174.5" y="197" width="1.6" height="15.0" fill="rgb(230,186,19)" rx="2" ry="2" />
<text  x="1177.48" y="207.5" ></text>
</g>
<g >
<title>iflib_txq_drain (4,429 samples, 16.18%)</title><rect x="981.8" y="69" width="191.0" height="15.0" fill="rgb(213,28,13)" rx="2" ry="2" />
<text  x="984.79" y="79.5" >iflib_txq_drain</text>
</g>
<g >
<title>timercb (37 samples, 0.14%)</title><rect x="1174.5" y="261" width="1.6" height="15.0" fill="rgb(221,5,23)" rx="2" ry="2" />
<text  x="1177.48" y="271.5" ></text>
</g>
<g >
<title>m_freem (36 samples, 0.13%)</title><rect x="90.4" y="85" width="1.5" height="15.0" fill="rgb(217,108,40)" rx="2" ry="2" />
<text  x="93.37" y="95.5" ></text>
</g>
<g >
<title>iflib_if_transmit (36 samples, 0.13%)</title><rect x="90.4" y="165" width="1.5" height="15.0" fill="rgb(245,194,30)" rx="2" ry="2" />
<text  x="93.37" y="175.5" ></text>
</g>
<g >
<title>handleevents (37 samples, 0.14%)</title><rect x="1174.5" y="245" width="1.6" height="15.0" fill="rgb(248,151,51)" rx="2" ry="2" />
<text  x="1177.48" y="255.5" ></text>
</g>
<g >
<title>gtaskqueue_run_locked (2,593 samples, 9.47%)</title><rect x="870.0" y="261" width="111.8" height="15.0" fill="rgb(235,214,6)" rx="2" ry="2" />
<text  x="872.99" y="271.5" >gtaskqueue_ru..</text>
</g>
<g >
<title>iflib_txq_drain (36 samples, 0.13%)</title><rect x="90.4" y="117" width="1.5" height="15.0" fill="rgb(221,196,10)" rx="2" ry="2" />
<text  x="93.37" y="127.5" ></text>
</g>
<g >
<title>ether_output_frame (346 samples, 1.26%)</title><rect x="75.5" y="149" width="14.9" height="15.0" fill="rgb(209,31,49)" rx="2" ry="2" />
<text  x="78.45" y="159.5" ></text>
</g>
<g >
<title>ip_tryforward (1,301 samples, 4.75%)</title><rect x="19.4" y="149" width="56.1" height="15.0" fill="rgb(226,163,11)" rx="2" ry="2" />
<text  x="22.36" y="159.5" >ip_tr..</text>
</g>
<g >
<title>ether_output_frame (2,593 samples, 9.47%)</title><rect x="870.0" y="85" width="111.8" height="15.0" fill="rgb(253,106,40)" rx="2" ry="2" />
<text  x="872.99" y="95.5" >ether_output_..</text>
</g>
<g >
<title>ether_output_frame (429 samples, 1.57%)</title><rect x="747.6" y="69" width="18.5" height="15.0" fill="rgb(251,174,15)" rx="2" ry="2" />
<text  x="750.59" y="79.5" ></text>
</g>
<g >
<title>m_free (22 samples, 0.08%)</title><rect x="75.5" y="37" width="0.9" height="15.0" fill="rgb(243,189,28)" rx="2" ry="2" />
<text  x="78.45" y="47.5" ></text>
</g>
<g >
<title>ether_nh_input (36 samples, 0.13%)</title><rect x="90.4" y="277" width="1.5" height="15.0" fill="rgb(224,146,41)" rx="2" ry="2" />
<text  x="93.37" y="287.5" ></text>
</g>
<g >
<title>intr_event_handle (14 samples, 0.05%)</title><rect x="1173.9" y="261" width="0.6" height="15.0" fill="rgb(210,77,46)" rx="2" ry="2" />
<text  x="1176.87" y="271.5" ></text>
</g>
<g >
<title>ether_nh_input (1,301 samples, 4.75%)</title><rect x="19.4" y="213" width="56.1" height="15.0" fill="rgb(228,190,54)" rx="2" ry="2" />
<text  x="22.36" y="223.5" >ether..</text>
</g>
<g >
<title>ether_output (2,593 samples, 9.47%)</title><rect x="870.0" y="101" width="111.8" height="15.0" fill="rgb(233,23,3)" rx="2" ry="2" />
<text  x="872.99" y="111.5" >ether_output</text>
</g>
<g >
<title>netisr_dispatch_src (346 samples, 1.26%)</title><rect x="75.5" y="261" width="14.9" height="15.0" fill="rgb(229,23,28)" rx="2" ry="2" />
<text  x="78.45" y="271.5" ></text>
</g>
<g >
<title>ip_tryforward (15,108 samples, 55.20%)</title><rect x="161.5" y="101" width="651.4" height="15.0" fill="rgb(219,152,0)" rx="2" ry="2" />
<text  x="164.47" y="111.5" >ip_tryforward</text>
</g>
<g >
<title>ether_output_frame (309 samples, 1.13%)</title><rect x="1176.7" y="165" width="13.3" height="15.0" fill="rgb(230,207,3)" rx="2" ry="2" />
<text  x="1179.68" y="175.5" ></text>
</g>
<g >
<title>memcpy_erms (35 samples, 0.13%)</title><rect x="836.2" y="197" width="1.5" height="15.0" fill="rgb(243,212,28)" rx="2" ry="2" />
<text  x="839.19" y="207.5" ></text>
</g>
<g >
<title>ip_tryforward (4,429 samples, 16.18%)</title><rect x="981.8" y="165" width="191.0" height="15.0" fill="rgb(211,227,50)" rx="2" ry="2" />
<text  x="984.79" y="175.5" >ip_tryforward</text>
</g>
<g >
<title>rxd_frag_to_sd (391 samples, 1.43%)</title><rect x="837.7" y="197" width="16.9" height="15.0" fill="rgb(240,77,7)" rx="2" ry="2" />
<text  x="840.70" y="207.5" ></text>
</g>
<g >
<title>iflib_encap (3,907 samples, 14.28%)</title><rect x="987.7" y="53" width="168.4" height="15.0" fill="rgb(236,104,15)" rx="2" ry="2" />
<text  x="990.66" y="63.5" >iflib_encap</text>
</g>
<g >
<title>wakeup (9 samples, 0.03%)</title><rect x="854.7" y="229" width="0.4" height="15.0" fill="rgb(219,125,4)" rx="2" ry="2" />
<text  x="857.73" y="239.5" ></text>
</g>
<g >
<title>gtaskqueue_thread_loop (17,701 samples, 64.68%)</title><rect x="91.9" y="261" width="763.2" height="15.0" fill="rgb(207,149,26)" rx="2" ry="2" />
<text  x="94.92" y="271.5" >gtaskqueue_thread_loop</text>
</g>
<g >
<title>m_free (36 samples, 0.13%)</title><rect x="90.4" y="69" width="1.5" height="15.0" fill="rgb(212,221,19)" rx="2" ry="2" />
<text  x="93.37" y="79.5" ></text>
</g>
<g >
<title>ip_tryforward (2,593 samples, 9.47%)</title><rect x="870.0" y="117" width="111.8" height="15.0" fill="rgb(233,227,12)" rx="2" ry="2" />
<text  x="872.99" y="127.5" >ip_tryforward</text>
</g>
<g >
<title>netisr_dispatch_src (345 samples, 1.26%)</title><rect x="855.1" y="165" width="14.9" height="15.0" fill="rgb(236,43,38)" rx="2" ry="2" />
<text  x="858.12" y="175.5" ></text>
</g>
<g >
<title>ether_demux (1,301 samples, 4.75%)</title><rect x="19.4" y="197" width="56.1" height="15.0" fill="rgb(213,24,42)" rx="2" ry="2" />
<text  x="22.36" y="207.5" >ether..</text>
</g>
<g >
<title>m_freem (309 samples, 1.13%)</title><rect x="1176.7" y="69" width="13.3" height="15.0" fill="rgb(233,35,18)" rx="2" ry="2" />
<text  x="1179.68" y="79.5" ></text>
</g>
<g >
<title>iflib_encap (473 samples, 1.73%)</title><rect x="35.7" y="37" width="20.3" height="15.0" fill="rgb(252,34,13)" rx="2" ry="2" />
<text  x="38.65" y="47.5" ></text>
</g>
<g >
<title>ether_input (1,301 samples, 4.75%)</title><rect x="19.4" y="245" width="56.1" height="15.0" fill="rgb(239,63,17)" rx="2" ry="2" />
<text  x="22.36" y="255.5" >ether..</text>
</g>
<g >
<title>ether_nh_input (2,593 samples, 9.47%)</title><rect x="870.0" y="181" width="111.8" height="15.0" fill="rgb(240,142,34)" rx="2" ry="2" />
<text  x="872.99" y="191.5" >ether_nh_input</text>
</g>
<g >
<title>ether_nh_input (4,429 samples, 16.18%)</title><rect x="981.8" y="229" width="191.0" height="15.0" fill="rgb(212,0,20)" rx="2" ry="2" />
<text  x="984.79" y="239.5" >ether_nh_input</text>
</g>
<g >
<title>iflib_txd_db_check (386 samples, 1.41%)</title><rect x="1156.1" y="53" width="16.7" height="15.0" fill="rgb(248,174,46)" rx="2" ry="2" />
<text  x="1159.11" y="63.5" ></text>
</g>
<g >
<title>lapic_handle_timer (37 samples, 0.14%)</title><rect x="1174.5" y="277" width="1.6" height="15.0" fill="rgb(217,55,34)" rx="2" ry="2" />
<text  x="1177.48" y="287.5" ></text>
</g>
<g >
<title>iflib_rxeof (345 samples, 1.26%)</title><rect x="855.1" y="245" width="14.9" height="15.0" fill="rgb(254,6,40)" rx="2" ry="2" />
<text  x="858.12" y="255.5" ></text>
</g>
<g >
<title>drain_ring_lockless (2,593 samples, 9.47%)</title><rect x="870.0" y="37" width="111.8" height="15.0" fill="rgb(218,181,3)" rx="2" ry="2" />
<text  x="872.99" y="47.5" >drain_ring_lo..</text>
</g>
<g >
<title>iflib_completed_tx_reclaim (136 samples, 0.50%)</title><rect x="981.8" y="53" width="5.9" height="15.0" fill="rgb(211,27,26)" rx="2" ry="2" />
<text  x="984.79" y="63.5" ></text>
</g>
<g >
<title>iflib_if_transmit (1,301 samples, 4.75%)</title><rect x="19.4" y="101" width="56.1" height="15.0" fill="rgb(211,129,52)" rx="2" ry="2" />
<text  x="22.36" y="111.5" >iflib..</text>
</g>
<g >
<title>iflib_encap (324 samples, 1.18%)</title><rect x="76.4" y="69" width="14.0" height="15.0" fill="rgb(244,206,46)" rx="2" ry="2" />
<text  x="79.40" y="79.5" ></text>
</g>
<g >
<title>ether_input (346 samples, 1.26%)</title><rect x="75.5" y="277" width="14.9" height="15.0" fill="rgb(226,135,34)" rx="2" ry="2" />
<text  x="78.45" y="287.5" ></text>
</g>
<g >
<title>drain_ring_lockless (36 samples, 0.13%)</title><rect x="90.4" y="133" width="1.5" height="15.0" fill="rgb(242,54,32)" rx="2" ry="2" />
<text  x="93.37" y="143.5" ></text>
</g>
<g >
<title>in_lltable_lookup (6,575 samples, 24.02%)</title><rect x="458.8" y="53" width="283.5" height="15.0" fill="rgb(246,173,22)" rx="2" ry="2" />
<text  x="461.79" y="63.5" >in_lltable_lookup</text>
</g>
<g >
<title>iflib_fl_refill (207 samples, 0.76%)</title><rect x="816.0" y="197" width="8.9" height="15.0" fill="rgb(238,216,51)" rx="2" ry="2" />
<text  x="818.97" y="207.5" ></text>
</g>
<g >
<title>uma_zalloc_arg (116 samples, 0.42%)</title><rect x="819.9" y="181" width="5.0" height="15.0" fill="rgb(229,18,37)" rx="2" ry="2" />
<text  x="822.89" y="191.5" ></text>
</g>
<g >
<title>hardclock (37 samples, 0.14%)</title><rect x="1174.5" y="229" width="1.6" height="15.0" fill="rgb(232,60,22)" rx="2" ry="2" />
<text  x="1177.48" y="239.5" ></text>
</g>
<g >
<title>spinlock_enter (6 samples, 0.02%)</title><rect x="103.3" y="197" width="0.3" height="15.0" fill="rgb(250,158,40)" rx="2" ry="2" />
<text  x="106.35" y="207.5" ></text>
</g>
<g >
<title>netisr_dispatch_src (4,429 samples, 16.18%)</title><rect x="981.8" y="245" width="191.0" height="15.0" fill="rgb(254,173,33)" rx="2" ry="2" />
<text  x="984.79" y="255.5" >netisr_dispatch_src</text>
</g>
<g >
<title>ip_input (2,593 samples, 9.47%)</title><rect x="870.0" y="133" width="111.8" height="15.0" fill="rgb(245,82,2)" rx="2" ry="2" />
<text  x="872.99" y="143.5" >ip_input</text>
</g>
<g >
<title>ether_demux (2,593 samples, 9.47%)</title><rect x="870.0" y="165" width="111.8" height="15.0" fill="rgb(218,43,43)" rx="2" ry="2" />
<text  x="872.99" y="175.5" >ether_demux</text>
</g>
<g >
<title>memmove_erms (123 samples, 0.45%)</title><rect x="742.3" y="53" width="5.3" height="15.0" fill="rgb(215,133,28)" rx="2" ry="2" />
<text  x="745.28" y="63.5" ></text>
</g>
<g >
<title>Xtimerint (16 samples, 0.06%)</title><rect x="18.7" y="277" width="0.7" height="15.0" fill="rgb(215,24,38)" rx="2" ry="2" />
<text  x="21.67" y="287.5" ></text>
</g>
<g >
<title>ether_nh_input (346 samples, 1.26%)</title><rect x="75.5" y="245" width="14.9" height="15.0" fill="rgb(216,67,6)" rx="2" ry="2" />
<text  x="78.45" y="255.5" ></text>
</g>
<g >
<title>iflib_if_transmit (4,429 samples, 16.18%)</title><rect x="981.8" y="117" width="191.0" height="15.0" fill="rgb(219,166,51)" rx="2" ry="2" />
<text  x="984.79" y="127.5" >iflib_if_transmit</text>
</g>
<g >
<title>ifmp_ring_enqueue (2,593 samples, 9.47%)</title><rect x="870.0" y="53" width="111.8" height="15.0" fill="rgb(215,195,34)" rx="2" ry="2" />
<text  x="872.99" y="63.5" >ifmp_ring_enq..</text>
</g>
<g >
<title>bounce_bus_dmamap_load_buffer (309 samples, 1.13%)</title><rect x="77.0" y="37" width="13.4" height="15.0" fill="rgb(235,194,12)" rx="2" ry="2" />
<text  x="80.05" y="47.5" ></text>
</g>
<g >
<title>netisr_dispatch_src (36 samples, 0.13%)</title><rect x="90.4" y="245" width="1.5" height="15.0" fill="rgb(220,16,41)" rx="2" ry="2" />
<text  x="93.37" y="255.5" ></text>
</g>
<g >
<title>_task_fn_rx (345 samples, 1.26%)</title><rect x="855.1" y="261" width="14.9" height="15.0" fill="rgb(244,126,26)" rx="2" ry="2" />
<text  x="858.12" y="271.5" ></text>
</g>
<g >
<title>iflib_completed_tx_reclaim (36 samples, 0.13%)</title><rect x="90.4" y="101" width="1.5" height="15.0" fill="rgb(224,102,40)" rx="2" ry="2" />
<text  x="93.37" y="111.5" ></text>
</g>
<g >
<title>_task_fn_rx (1,301 samples, 4.75%)</title><rect x="19.4" y="277" width="56.1" height="15.0" fill="rgb(233,223,2)" rx="2" ry="2" />
<text  x="22.36" y="287.5" >_task..</text>
</g>
<g >
<title>arpresolve (12,382 samples, 45.24%)</title><rect x="213.7" y="69" width="533.9" height="15.0" fill="rgb(209,57,48)" rx="2" ry="2" />
<text  x="216.72" y="79.5" >arpresolve</text>
</g>
<g >
<title>ixl_isc_txd_credits_update_hwb (136 samples, 0.50%)</title><rect x="981.8" y="37" width="5.9" height="15.0" fill="rgb(242,212,42)" rx="2" ry="2" />
<text  x="984.79" y="47.5" ></text>
</g>
<g >
<title>iflib_if_transmit (309 samples, 1.13%)</title><rect x="1176.7" y="149" width="13.3" height="15.0" fill="rgb(235,159,3)" rx="2" ry="2" />
<text  x="1179.68" y="159.5" ></text>
</g>
<g >
<title>iflib_txd_db_check (450 samples, 1.64%)</title><rect x="56.0" y="37" width="19.5" height="15.0" fill="rgb(214,17,7)" rx="2" ry="2" />
<text  x="59.05" y="47.5" ></text>
</g>
<g >
<title>ip_input (345 samples, 1.26%)</title><rect x="855.1" y="149" width="14.9" height="15.0" fill="rgb(214,149,18)" rx="2" ry="2" />
<text  x="858.12" y="159.5" ></text>
</g>
<g >
<title>ip_input (309 samples, 1.13%)</title><rect x="1176.7" y="213" width="13.3" height="15.0" fill="rgb(239,191,50)" rx="2" ry="2" />
<text  x="1179.68" y="223.5" ></text>
</g>
<g >
<title>ether_demux (15,291 samples, 55.87%)</title><rect x="153.6" y="149" width="659.3" height="15.0" fill="rgb(218,189,50)" rx="2" ry="2" />
<text  x="156.58" y="159.5" >ether_demux</text>
</g>
<g >
<title>ether_output (14,033 samples, 51.28%)</title><rect x="179.8" y="85" width="605.1" height="15.0" fill="rgb(248,153,2)" rx="2" ry="2" />
<text  x="182.83" y="95.5" >ether_output</text>
</g>
<g >
<title>iflib_if_transmit (345 samples, 1.26%)</title><rect x="855.1" y="85" width="14.9" height="15.0" fill="rgb(217,51,43)" rx="2" ry="2" />
<text  x="858.12" y="95.5" ></text>
</g>
<g >
<title>netisr_dispatch_src (15,220 samples, 55.61%)</title><rect x="156.6" y="133" width="656.3" height="15.0" fill="rgb(214,102,30)" rx="2" ry="2" />
<text  x="159.64" y="143.5" >netisr_dispatch_src</text>
</g>
<g >
<title>ip_input (346 samples, 1.26%)</title><rect x="75.5" y="197" width="14.9" height="15.0" fill="rgb(216,10,49)" rx="2" ry="2" />
<text  x="78.45" y="207.5" ></text>
</g>
<g >
<title>ether_output (4,429 samples, 16.18%)</title><rect x="981.8" y="149" width="191.0" height="15.0" fill="rgb(217,77,54)" rx="2" ry="2" />
<text  x="984.79" y="159.5" >ether_output</text>
</g>
<g >
<title>ifmp_ring_enqueue (4,429 samples, 16.18%)</title><rect x="981.8" y="101" width="191.0" height="15.0" fill="rgb(231,116,18)" rx="2" ry="2" />
<text  x="984.79" y="111.5" >ifmp_ring_enqueue</text>
</g>
<g >
<title>wakeup_any (799 samples, 2.92%)</title><rect x="103.6" y="197" width="34.5" height="15.0" fill="rgb(247,79,28)" rx="2" ry="2" />
<text  x="106.60" y="207.5" >wa..</text>
</g>
<g >
<title>iflib_txq_drain (345 samples, 1.26%)</title><rect x="855.1" y="37" width="14.9" height="15.0" fill="rgb(216,73,43)" rx="2" ry="2" />
<text  x="858.12" y="47.5" ></text>
</g>
<g >
<title>ip_input (1,301 samples, 4.75%)</title><rect x="19.4" y="165" width="56.1" height="15.0" fill="rgb(238,159,29)" rx="2" ry="2" />
<text  x="22.36" y="175.5" >ip_in..</text>
</g>
<g >
<title>memcmp (60 samples, 0.22%)</title><rect x="813.2" y="149" width="2.6" height="15.0" fill="rgb(225,191,20)" rx="2" ry="2" />
<text  x="816.21" y="159.5" ></text>
</g>
<g >
<title>ip_input (15,160 samples, 55.39%)</title><rect x="159.2" y="117" width="653.7" height="15.0" fill="rgb(220,103,38)" rx="2" ry="2" />
<text  x="162.22" y="127.5" >ip_input</text>
</g>
<g >
<title>drain_ring_lockless (1,301 samples, 4.75%)</title><rect x="19.4" y="69" width="56.1" height="15.0" fill="rgb(233,41,53)" rx="2" ry="2" />
<text  x="22.36" y="79.5" >drain..</text>
</g>
<g >
<title>_task_fn_rx (17,429 samples, 63.68%)</title><rect x="103.1" y="229" width="751.5" height="15.0" fill="rgb(228,22,27)" rx="2" ry="2" />
<text  x="106.09" y="239.5" >_task_fn_rx</text>
</g>
<g >
<title>grouptaskqueue_enqueue (811 samples, 2.96%)</title><rect x="103.1" y="213" width="35.0" height="15.0" fill="rgb(237,82,19)" rx="2" ry="2" />
<text  x="106.09" y="223.5" >gr..</text>
</g>
<g >
<title>m_adj (8 samples, 0.03%)</title><rect x="812.9" y="149" width="0.3" height="15.0" fill="rgb(234,152,50)" rx="2" ry="2" />
<text  x="815.86" y="159.5" ></text>
</g>
<g >
<title>ether_input (4,429 samples, 16.18%)</title><rect x="981.8" y="261" width="191.0" height="15.0" fill="rgb(225,43,29)" rx="2" ry="2" />
<text  x="984.79" y="271.5" >ether_input</text>
</g>
<g >
<title>drain_ring_lockless (346 samples, 1.26%)</title><rect x="75.5" y="101" width="14.9" height="15.0" fill="rgb(219,33,11)" rx="2" ry="2" />
<text  x="78.45" y="111.5" ></text>
</g>
<g >
<title>iflib_rxeof (4,429 samples, 16.18%)</title><rect x="981.8" y="277" width="191.0" height="15.0" fill="rgb(224,102,27)" rx="2" ry="2" />
<text  x="984.79" y="287.5" >iflib_rxeof</text>
</g>
<g >
<title>ip_tryforward (36 samples, 0.13%)</title><rect x="90.4" y="213" width="1.5" height="15.0" fill="rgb(247,180,42)" rx="2" ry="2" />
<text  x="93.37" y="223.5" ></text>
</g>
<g >
<title>mb_ctor_mbuf (44 samples, 0.16%)</title><rect x="823.0" y="165" width="1.9" height="15.0" fill="rgb(244,193,33)" rx="2" ry="2" />
<text  x="826.00" y="175.5" ></text>
</g>
<g >
<title>ifmp_ring_enqueue (309 samples, 1.13%)</title><rect x="1176.7" y="133" width="13.3" height="15.0" fill="rgb(247,155,41)" rx="2" ry="2" />
<text  x="1179.68" y="143.5" ></text>
</g>
<g >
<title>ether_output (345 samples, 1.26%)</title><rect x="855.1" y="117" width="14.9" height="15.0" fill="rgb(212,40,15)" rx="2" ry="2" />
<text  x="858.12" y="127.5" ></text>
</g>
<g >
<title>ether_input (345 samples, 1.26%)</title><rect x="855.1" y="229" width="14.9" height="15.0" fill="rgb(212,153,23)" rx="2" ry="2" />
<text  x="858.12" y="239.5" ></text>
</g>
<g >
<title>ether_demux (346 samples, 1.26%)</title><rect x="75.5" y="229" width="14.9" height="15.0" fill="rgb(211,51,40)" rx="2" ry="2" />
<text  x="78.45" y="239.5" ></text>
</g>
<g >
<title>ifmp_ring_enqueue (1,301 samples, 4.75%)</title><rect x="19.4" y="85" width="56.1" height="15.0" fill="rgb(211,28,19)" rx="2" ry="2" />
<text  x="22.36" y="95.5" >ifmp_..</text>
</g>
<g >
<title>iflib_if_transmit (346 samples, 1.26%)</title><rect x="75.5" y="133" width="14.9" height="15.0" fill="rgb(244,200,49)" rx="2" ry="2" />
<text  x="78.45" y="143.5" ></text>
</g>
<g >
<title>in_localip (146 samples, 0.53%)</title><rect x="784.9" y="85" width="6.3" height="15.0" fill="rgb(246,10,15)" rx="2" ry="2" />
<text  x="787.88" y="95.5" ></text>
</g>
<g >
<title>bus_dmamap_load_mbuf_sg (97 samples, 0.35%)</title><rect x="987.7" y="37" width="4.1" height="15.0" fill="rgb(243,182,51)" rx="2" ry="2" />
<text  x="990.66" y="47.5" ></text>
</g>
<g >
<title>ixl_isc_txd_encap (3,810 samples, 13.92%)</title><rect x="991.8" y="37" width="164.3" height="15.0" fill="rgb(215,96,33)" rx="2" ry="2" />
<text  x="994.84" y="47.5" >ixl_isc_txd_encap</text>
</g>
<g >
<title>if_getdrvflags (20 samples, 0.07%)</title><rect x="19.4" y="37" width="0.8" height="15.0" fill="rgb(231,188,53)" rx="2" ry="2" />
<text  x="22.36" y="47.5" ></text>
</g>
<g >
<title>grouptaskqueue_enqueue (14 samples, 0.05%)</title><rect x="1173.9" y="229" width="0.6" height="15.0" fill="rgb(242,7,26)" rx="2" ry="2" />
<text  x="1176.87" y="239.5" ></text>
</g>
<g >
<title>iflib_completed_tx_reclaim (22 samples, 0.08%)</title><rect x="75.5" y="69" width="0.9" height="15.0" fill="rgb(213,10,13)" rx="2" ry="2" />
<text  x="78.45" y="79.5" ></text>
</g>
<g >
<title>wakeup_any (4 samples, 0.01%)</title><rect x="1174.3" y="213" width="0.2" height="15.0" fill="rgb(226,208,37)" rx="2" ry="2" />
<text  x="1177.31" y="223.5" ></text>
</g>
<g >
<title>netisr_dispatch_src (2,593 samples, 9.47%)</title><rect x="870.0" y="197" width="111.8" height="15.0" fill="rgb(221,123,34)" rx="2" ry="2" />
<text  x="872.99" y="207.5" >netisr_dispat..</text>
</g>
<g >
<title>ether_demux (36 samples, 0.13%)</title><rect x="90.4" y="261" width="1.5" height="15.0" fill="rgb(248,109,6)" rx="2" ry="2" />
<text  x="93.37" y="271.5" ></text>
</g>
<g >
<title>ether_demux (309 samples, 1.13%)</title><rect x="1176.7" y="245" width="13.3" height="15.0" fill="rgb(223,17,21)" rx="2" ry="2" />
<text  x="1179.68" y="255.5" ></text>
</g>
<g >
<title>if_inc_counter (3 samples, 0.01%)</title><rect x="815.8" y="197" width="0.2" height="15.0" fill="rgb(232,55,54)" rx="2" ry="2" />
<text  x="818.84" y="207.5" ></text>
</g>
<g >
<title>bounce_bus_dmamap_complete (15 samples, 0.05%)</title><rect x="76.4" y="37" width="0.6" height="15.0" fill="rgb(245,147,13)" rx="2" ry="2" />
<text  x="79.40" y="47.5" ></text>
</g>
<g >
<title>iflib_rxeof (2,593 samples, 9.47%)</title><rect x="870.0" y="229" width="111.8" height="15.0" fill="rgb(241,182,50)" rx="2" ry="2" />
<text  x="872.99" y="239.5" >iflib_rxeof</text>
</g>
<g >
<title>pmclog_process_callchain (37 samples, 0.14%)</title><rect x="1174.5" y="181" width="1.6" height="15.0" fill="rgb(219,34,9)" rx="2" ry="2" />
<text  x="1177.48" y="191.5" ></text>
</g>
<g >
<title>sleepq_lock (4 samples, 0.01%)</title><rect x="1174.3" y="197" width="0.2" height="15.0" fill="rgb(219,12,52)" rx="2" ry="2" />
<text  x="1177.31" y="207.5" ></text>
</g>
<g >
<title>m_adj (25 samples, 0.09%)</title><rect x="155.6" y="133" width="1.0" height="15.0" fill="rgb(212,179,34)" rx="2" ry="2" />
<text  x="158.56" y="143.5" ></text>
</g>
<g >
<title>ixl_isc_rxd_pkt_get (202 samples, 0.74%)</title><rect x="826.1" y="197" width="8.7" height="15.0" fill="rgb(213,103,25)" rx="2" ry="2" />
<text  x="829.06" y="207.5" ></text>
</g>
<g >
<title>fork_exit (17,701 samples, 64.68%)</title><rect x="91.9" y="277" width="763.2" height="15.0" fill="rgb(229,139,25)" rx="2" ry="2" />
<text  x="94.92" y="287.5" >fork_exit</text>
</g>
<g >
<title>netisr_dispatch_src (15,486 samples, 56.58%)</title><rect x="148.1" y="181" width="667.7" height="15.0" fill="rgb(225,197,42)" rx="2" ry="2" />
<text  x="151.10" y="191.5" >netisr_dispatch_src</text>
</g>
<g >
<title>ether_nh_input (15,426 samples, 56.37%)</title><rect x="150.7" y="165" width="665.1" height="15.0" fill="rgb(222,61,46)" rx="2" ry="2" />
<text  x="153.69" y="175.5" >ether_nh_input</text>
</g>
<g >
<title>memcpy_erms (436 samples, 1.59%)</title><rect x="766.1" y="69" width="18.8" height="15.0" fill="rgb(223,27,48)" rx="2" ry="2" />
<text  x="769.08" y="79.5" ></text>
</g>
<g >
<title>ip_tryforward (345 samples, 1.26%)</title><rect x="855.1" y="133" width="14.9" height="15.0" fill="rgb(225,150,0)" rx="2" ry="2" />
<text  x="858.12" y="143.5" ></text>
</g>
<g >
<title>ether_output_frame (4,429 samples, 16.18%)</title><rect x="981.8" y="133" width="191.0" height="15.0" fill="rgb(252,55,26)" rx="2" ry="2" />
<text  x="984.79" y="143.5" >ether_output_frame</text>
</g>
<g >
<title>iflib_if_transmit (411 samples, 1.50%)</title><rect x="748.4" y="53" width="17.7" height="15.0" fill="rgb(209,153,9)" rx="2" ry="2" />
<text  x="751.36" y="63.5" ></text>
</g>
<g >
<title>ip_tryforward (309 samples, 1.13%)</title><rect x="1176.7" y="197" width="13.3" height="15.0" fill="rgb(245,215,1)" rx="2" ry="2" />
<text  x="1179.68" y="207.5" ></text>
</g>
<g >
<title>gtaskqueue_run_locked (17,701 samples, 64.68%)</title><rect x="91.9" y="245" width="763.2" height="15.0" fill="rgb(225,152,35)" rx="2" ry="2" />
<text  x="94.92" y="255.5" >gtaskqueue_run_locked</text>
</g>
<g >
<title>bsearch4_lookup (11 samples, 0.04%)</title><rect x="812.4" y="53" width="0.5" height="15.0" fill="rgb(239,166,44)" rx="2" ry="2" />
<text  x="815.39" y="63.5" ></text>
</g>
<g >
<title>netisr_dispatch_src (1,301 samples, 4.75%)</title><rect x="19.4" y="181" width="56.1" height="15.0" fill="rgb(231,177,2)" rx="2" ry="2" />
<text  x="22.36" y="191.5" >netis..</text>
</g>
<g >
<title>iflib_rxeof (16,617 samples, 60.72%)</title><rect x="138.1" y="213" width="716.5" height="15.0" fill="rgb(244,39,18)" rx="2" ry="2" />
<text  x="141.10" y="223.5" >iflib_rxeof</text>
</g>
<g >
<title>netisr_dispatch_src (345 samples, 1.26%)</title><rect x="855.1" y="213" width="14.9" height="15.0" fill="rgb(243,146,26)" rx="2" ry="2" />
<text  x="858.12" y="223.5" ></text>
</g>
<g >
<title>ip_tryforward (346 samples, 1.26%)</title><rect x="75.5" y="181" width="14.9" height="15.0" fill="rgb(217,88,44)" rx="2" ry="2" />
<text  x="78.45" y="191.5" ></text>
</g>
<g >
<title>ifmp_ring_enqueue (345 samples, 1.26%)</title><rect x="855.1" y="69" width="14.9" height="15.0" fill="rgb(219,22,20)" rx="2" ry="2" />
<text  x="858.12" y="79.5" ></text>
</g>
<g >
<title>ether_output_frame (36 samples, 0.13%)</title><rect x="90.4" y="181" width="1.5" height="15.0" fill="rgb(212,30,34)" rx="2" ry="2" />
<text  x="93.37" y="191.5" ></text>
</g>
<g >
<title>spinlock_enter (4 samples, 0.01%)</title><rect x="854.6" y="229" width="0.1" height="15.0" fill="rgb(210,13,30)" rx="2" ry="2" />
<text  x="857.56" y="239.5" ></text>
</g>
<g >
<title>pmap_kextract (83 samples, 0.30%)</title><rect x="1176.7" y="37" width="3.6" height="15.0" fill="rgb(235,0,40)" rx="2" ry="2" />
<text  x="1179.68" y="47.5" ></text>
</g>
<g >
<title>netisr_dispatch_src (2,593 samples, 9.47%)</title><rect x="870.0" y="149" width="111.8" height="15.0" fill="rgb(210,134,45)" rx="2" ry="2" />
<text  x="872.99" y="159.5" >netisr_dispat..</text>
</g>
<g >
<title>uma_zfree_arg (36 samples, 0.13%)</title><rect x="90.4" y="53" width="1.5" height="15.0" fill="rgb(249,77,19)" rx="2" ry="2" />
<text  x="93.37" y="63.5" ></text>
</g>
<g >
<title>gtaskqueue_run_locked (345 samples, 1.26%)</title><rect x="855.1" y="277" width="14.9" height="15.0" fill="rgb(240,36,29)" rx="2" ry="2" />
<text  x="858.12" y="287.5" ></text>
</g>
<g >
<title>ip_input (36 samples, 0.13%)</title><rect x="90.4" y="229" width="1.5" height="15.0" fill="rgb(232,187,5)" rx="2" ry="2" />
<text  x="93.37" y="239.5" ></text>
</g>
<g >
<title>iflib_if_transmit (2,593 samples, 9.47%)</title><rect x="870.0" y="69" width="111.8" height="15.0" fill="rgb(245,16,13)" rx="2" ry="2" />
<text  x="872.99" y="79.5" >iflib_if_tran..</text>
</g>
<g >
<title>iflib_completed_tx_reclaim (309 samples, 1.13%)</title><rect x="1176.7" y="85" width="13.3" height="15.0" fill="rgb(241,7,10)" rx="2" ry="2" />
<text  x="1179.68" y="95.5" ></text>
</g>
<g >
<title>_task_fn_rx (2,593 samples, 9.47%)</title><rect x="870.0" y="245" width="111.8" height="15.0" fill="rgb(249,78,14)" rx="2" ry="2" />
<text  x="872.99" y="255.5" >_task_fn_rx</text>
</g>
</g>
</svg>
