<?xml version="1.0" standalone="no"?>
<!DOCTYPE svg PUBLIC "-//W3C//DTD SVG 1.1//EN" "http://www.w3.org/Graphics/SVG/1.1/DTD/svg11.dtd">
<svg version="1.1" width="1200" height="342" onload="init(evt)" viewBox="0 0 1200 342" xmlns="http://www.w3.org/2000/svg" xmlns:xlink="http://www.w3.org/1999/xlink">
<!-- Flame graph stack visualization. See https://github.com/brendangregg/FlameGraph for latest version, and http://www.brendangregg.com/flamegraphs.html for examples. -->
<!-- NOTES:  -->
<defs>
	<linearGradient id="background" y1="0" y2="1" x1="0" x2="0" >
		<stop stop-color="#eeeeee" offset="5%" />
		<stop stop-color="#eeeeb0" offset="95%" />
	</linearGradient>
</defs>
<style type="text/css">
	text { font-family:Verdana; font-size:12px; fill:rgb(0,0,0); }
	#search, #ignorecase { opacity:0.1; cursor:pointer; }
	#search:hover, #search.show, #ignorecase:hover, #ignorecase.show { opacity:1; }
	#subtitle { text-anchor:middle; font-color:rgb(160,160,160); }
	#title { text-anchor:middle; font-size:17px}
	#unzoom { cursor:pointer; }
	#frames > *:hover { stroke:black; stroke-width:0.5; cursor:pointer; }
	.hide { display:none; }
	.parent { opacity:0.5; }
</style>
<script type="text/ecmascript">
<![CDATA[
	"use strict";
	var details, searchbtn, unzoombtn, matchedtxt, svg, searching, currentSearchTerm, ignorecase, ignorecaseBtn;
	function init(evt) {
		details = document.getElementById("details").firstChild;
		searchbtn = document.getElementById("search");
		ignorecaseBtn = document.getElementById("ignorecase");
		unzoombtn = document.getElementById("unzoom");
		matchedtxt = document.getElementById("matched");
		svg = document.getElementsByTagName("svg")[0];
		searching = 0;
		currentSearchTerm = null;

		// use GET parameters to restore a flamegraphs state.
		var params = get_params();
		if (params.x && params.y)
			zoom(find_group(document.querySelector('[x="' + params.x + '"][y="' + params.y + '"]')));
                if (params.s) search(params.s);
	}

	// event listeners
	window.addEventListener("click", function(e) {
		var target = find_group(e.target);
		if (target) {
			if (target.nodeName == "a") {
				if (e.ctrlKey === false) return;
				e.preventDefault();
			}
			if (target.classList.contains("parent")) unzoom();
			zoom(target);
			if (!document.querySelector('.parent')) {
				clearzoom();
				return;
			}

			// set parameters for zoom state
			var el = target.querySelector("rect");
			if (el && el.attributes && el.attributes.y && el.attributes._orig_x) {
				var params = get_params()
				params.x = el.attributes._orig_x.value;
				params.y = el.attributes.y.value;
				history.replaceState(null, null, parse_params(params));
			}
		}
		else if (e.target.id == "unzoom") clearzoom();
		else if (e.target.id == "search") search_prompt();
		else if (e.target.id == "ignorecase") toggle_ignorecase();
	}, false)

	// mouse-over for info
	// show
	window.addEventListener("mouseover", function(e) {
		var target = find_group(e.target);
		if (target) details.nodeValue = "Function: " + g_to_text(target);
	}, false)

	// clear
	window.addEventListener("mouseout", function(e) {
		var target = find_group(e.target);
		if (target) details.nodeValue = ' ';
	}, false)

	// ctrl-F for search
	// ctrl-I to toggle case-sensitive search
	window.addEventListener("keydown",function (e) {
		if (e.keyCode === 114 || (e.ctrlKey && e.keyCode === 70)) {
			e.preventDefault();
			search_prompt();
		}
		else if (e.ctrlKey && e.keyCode === 73) {
			e.preventDefault();
			toggle_ignorecase();
		}
	}, false)

	// functions
	function get_params() {
		var params = {};
		var paramsarr = window.location.search.substr(1).split('&');
		for (var i = 0; i < paramsarr.length; ++i) {
			var tmp = paramsarr[i].split("=");
			if (!tmp[0] || !tmp[1]) continue;
			params[tmp[0]]  = decodeURIComponent(tmp[1]);
		}
		return params;
	}
	function parse_params(params) {
		var uri = "?";
		for (var key in params) {
			uri += key + '=' + encodeURIComponent(params[key]) + '&';
		}
		if (uri.slice(-1) == "&")
			uri = uri.substring(0, uri.length - 1);
		if (uri == '?')
			uri = window.location.href.split('?')[0];
		return uri;
	}
	function find_child(node, selector) {
		var children = node.querySelectorAll(selector);
		if (children.length) return children[0];
	}
	function find_group(node) {
		var parent = node.parentElement;
		if (!parent) return;
		if (parent.id == "frames") return node;
		return find_group(parent);
	}
	function orig_save(e, attr, val) {
		if (e.attributes["_orig_" + attr] != undefined) return;
		if (e.attributes[attr] == undefined) return;
		if (val == undefined) val = e.attributes[attr].value;
		e.setAttribute("_orig_" + attr, val);
	}
	function orig_load(e, attr) {
		if (e.attributes["_orig_"+attr] == undefined) return;
		e.attributes[attr].value = e.attributes["_orig_" + attr].value;
		e.removeAttribute("_orig_"+attr);
	}
	function g_to_text(e) {
		var text = find_child(e, "title").firstChild.nodeValue;
		return (text)
	}
	function g_to_func(e) {
		var func = g_to_text(e);
		// if there's any manipulation we want to do to the function
		// name before it's searched, do it here before returning.
		return (func);
	}
	function update_text(e) {
		var r = find_child(e, "rect");
		var t = find_child(e, "text");
		var w = parseFloat(r.attributes.width.value) -3;
		var txt = find_child(e, "title").textContent.replace(/\([^(]*\)$/,"");
		t.attributes.x.value = parseFloat(r.attributes.x.value) + 3;

		// Smaller than this size won't fit anything
		if (w < 2 * 12 * 0.59) {
			t.textContent = "";
			return;
		}

		t.textContent = txt;
		// Fit in full text width
		if (/^ *$/.test(txt) || t.getSubStringLength(0, txt.length) < w)
			return;

		for (var x = txt.length - 2; x > 0; x--) {
			if (t.getSubStringLength(0, x + 2) <= w) {
				t.textContent = txt.substring(0, x) + "..";
				return;
			}
		}
		t.textContent = "";
	}

	// zoom
	function zoom_reset(e) {
		if (e.attributes != undefined) {
			orig_load(e, "x");
			orig_load(e, "width");
		}
		if (e.childNodes == undefined) return;
		for (var i = 0, c = e.childNodes; i < c.length; i++) {
			zoom_reset(c[i]);
		}
	}
	function zoom_child(e, x, ratio) {
		if (e.attributes != undefined) {
			if (e.attributes.x != undefined) {
				orig_save(e, "x");
				e.attributes.x.value = (parseFloat(e.attributes.x.value) - x - 10) * ratio + 10;
				if (e.tagName == "text")
					e.attributes.x.value = find_child(e.parentNode, "rect[x]").attributes.x.value + 3;
			}
			if (e.attributes.width != undefined) {
				orig_save(e, "width");
				e.attributes.width.value = parseFloat(e.attributes.width.value) * ratio;
			}
		}

		if (e.childNodes == undefined) return;
		for (var i = 0, c = e.childNodes; i < c.length; i++) {
			zoom_child(c[i], x - 10, ratio);
		}
	}
	function zoom_parent(e) {
		if (e.attributes) {
			if (e.attributes.x != undefined) {
				orig_save(e, "x");
				e.attributes.x.value = 10;
			}
			if (e.attributes.width != undefined) {
				orig_save(e, "width");
				e.attributes.width.value = parseInt(svg.width.baseVal.value) - (10 * 2);
			}
		}
		if (e.childNodes == undefined) return;
		for (var i = 0, c = e.childNodes; i < c.length; i++) {
			zoom_parent(c[i]);
		}
	}
	function zoom(node) {
		var attr = find_child(node, "rect").attributes;
		var width = parseFloat(attr.width.value);
		var xmin = parseFloat(attr.x.value);
		var xmax = parseFloat(xmin + width);
		var ymin = parseFloat(attr.y.value);
		var ratio = (svg.width.baseVal.value - 2 * 10) / width;

		// XXX: Workaround for JavaScript float issues (fix me)
		var fudge = 0.0001;

		unzoombtn.classList.remove("hide");

		var el = document.getElementById("frames").children;
		for (var i = 0; i < el.length; i++) {
			var e = el[i];
			var a = find_child(e, "rect").attributes;
			var ex = parseFloat(a.x.value);
			var ew = parseFloat(a.width.value);
			var upstack;
			// Is it an ancestor
			if (0 == 0) {
				upstack = parseFloat(a.y.value) > ymin;
			} else {
				upstack = parseFloat(a.y.value) < ymin;
			}
			if (upstack) {
				// Direct ancestor
				if (ex <= xmin && (ex+ew+fudge) >= xmax) {
					e.classList.add("parent");
					zoom_parent(e);
					update_text(e);
				}
				// not in current path
				else
					e.classList.add("hide");
			}
			// Children maybe
			else {
				// no common path
				if (ex < xmin || ex + fudge >= xmax) {
					e.classList.add("hide");
				}
				else {
					zoom_child(e, xmin, ratio);
					update_text(e);
				}
			}
		}
		search();
	}
	function unzoom() {
		unzoombtn.classList.add("hide");
		var el = document.getElementById("frames").children;
		for(var i = 0; i < el.length; i++) {
			el[i].classList.remove("parent");
			el[i].classList.remove("hide");
			zoom_reset(el[i]);
			update_text(el[i]);
		}
		search();
	}
	function clearzoom() {
		unzoom();

		// remove zoom state
		var params = get_params();
		if (params.x) delete params.x;
		if (params.y) delete params.y;
		history.replaceState(null, null, parse_params(params));
	}

	// search
	function toggle_ignorecase() {
		ignorecase = !ignorecase;
		if (ignorecase) {
			ignorecaseBtn.classList.add("show");
		} else {
			ignorecaseBtn.classList.remove("show");
		}
		reset_search();
		search();
	}
	function reset_search() {
		var el = document.querySelectorAll("#frames rect");
		for (var i = 0; i < el.length; i++) {
			orig_load(el[i], "fill")
		}
		var params = get_params();
		delete params.s;
		history.replaceState(null, null, parse_params(params));
	}
	function search_prompt() {
		if (!searching) {
			var term = prompt("Enter a search term (regexp " +
			    "allowed, eg: ^ext4_)"
			    + (ignorecase ? ", ignoring case" : "")
			    + "\nPress Ctrl-i to toggle case sensitivity", "");
			if (term != null) search(term);
		} else {
			reset_search();
			searching = 0;
			currentSearchTerm = null;
			searchbtn.classList.remove("show");
			searchbtn.firstChild.nodeValue = "Search"
			matchedtxt.classList.add("hide");
			matchedtxt.firstChild.nodeValue = ""
		}
	}
	function search(term) {
		if (term) currentSearchTerm = term;

		var re = new RegExp(currentSearchTerm, ignorecase ? 'i' : '');
		var el = document.getElementById("frames").children;
		var matches = new Object();
		var maxwidth = 0;
		for (var i = 0; i < el.length; i++) {
			var e = el[i];
			var func = g_to_func(e);
			var rect = find_child(e, "rect");
			if (func == null || rect == null)
				continue;

			// Save max width. Only works as we have a root frame
			var w = parseFloat(rect.attributes.width.value);
			if (w > maxwidth)
				maxwidth = w;

			if (func.match(re)) {
				// highlight
				var x = parseFloat(rect.attributes.x.value);
				orig_save(rect, "fill");
				rect.attributes.fill.value = "rgb(230,0,230)";

				// remember matches
				if (matches[x] == undefined) {
					matches[x] = w;
				} else {
					if (w > matches[x]) {
						// overwrite with parent
						matches[x] = w;
					}
				}
				searching = 1;
			}
		}
		if (!searching)
			return;
		var params = get_params();
		params.s = currentSearchTerm;
		history.replaceState(null, null, parse_params(params));

		searchbtn.classList.add("show");
		searchbtn.firstChild.nodeValue = "Reset Search";

		// calculate percent matched, excluding vertical overlap
		var count = 0;
		var lastx = -1;
		var lastw = 0;
		var keys = Array();
		for (k in matches) {
			if (matches.hasOwnProperty(k))
				keys.push(k);
		}
		// sort the matched frames by their x location
		// ascending, then width descending
		keys.sort(function(a, b){
			return a - b;
		});
		// Step through frames saving only the biggest bottom-up frames
		// thanks to the sort order. This relies on the tree property
		// where children are always smaller than their parents.
		var fudge = 0.0001;	// JavaScript floating point
		for (var k in keys) {
			var x = parseFloat(keys[k]);
			var w = matches[keys[k]];
			if (x >= lastx + lastw - fudge) {
				count += w;
				lastx = x;
				lastw = w;
			}
		}
		// display matched percent
		matchedtxt.classList.remove("hide");
		var pct = 100 * count / maxwidth;
		if (pct != 100) pct = pct.toFixed(1)
		matchedtxt.firstChild.nodeValue = "Matched: " + pct + "%";
	}
]]>
</script>
<rect x="0.0" y="0" width="1200.0" height="342.0" fill="url(#background)"  />
<text id="title" x="600.00" y="24" >Flame Graph</text>
<text id="details" x="10.00" y="325" > </text>
<text id="unzoom" x="10.00" y="24" class="hide">Reset Zoom</text>
<text id="search" x="1090.00" y="24" >Search</text>
<text id="ignorecase" x="1174.00" y="24" >ic</text>
<text id="matched" x="1090.00" y="325" > </text>
<g id="frames">
<g >
<title>ip_tryforward (382 samples, 1.47%)</title><rect x="90.9" y="181" width="17.3" height="15.0" fill="rgb(228,84,28)" rx="2" ry="2" />
<text  x="93.87" y="191.5" ></text>
</g>
<g >
<title>ether_demux (213 samples, 0.82%)</title><rect x="1180.4" y="245" width="9.6" height="15.0" fill="rgb(248,141,2)" rx="2" ry="2" />
<text  x="1183.36" y="255.5" ></text>
</g>
<g >
<title>m_freem (213 samples, 0.82%)</title><rect x="1180.4" y="69" width="9.6" height="15.0" fill="rgb(239,135,14)" rx="2" ry="2" />
<text  x="1183.36" y="79.5" ></text>
</g>
<g >
<title>ether_nh_input (213 samples, 0.82%)</title><rect x="1180.4" y="261" width="9.6" height="15.0" fill="rgb(212,214,21)" rx="2" ry="2" />
<text  x="1183.36" y="271.5" ></text>
</g>
<g >
<title>drain_ring_lockless (213 samples, 0.82%)</title><rect x="1180.4" y="117" width="9.6" height="15.0" fill="rgb(234,108,16)" rx="2" ry="2" />
<text  x="1183.36" y="127.5" ></text>
</g>
<g >
<title>drain_ring_lockless (382 samples, 1.47%)</title><rect x="90.9" y="101" width="17.3" height="15.0" fill="rgb(237,105,49)" rx="2" ry="2" />
<text  x="93.87" y="111.5" ></text>
</g>
<g >
<title>dyn_lookup_ipv4_state (163 samples, 0.63%)</title><rect x="868.9" y="53" width="7.4" height="15.0" fill="rgb(223,161,42)" rx="2" ry="2" />
<text  x="871.89" y="63.5" ></text>
</g>
<g >
<title>netisr_dispatch_src (213 samples, 0.82%)</title><rect x="1180.4" y="229" width="9.6" height="15.0" fill="rgb(250,54,36)" rx="2" ry="2" />
<text  x="1183.36" y="239.5" ></text>
</g>
<g >
<title>iflib_rxeof (15,445 samples, 59.26%)</title><rect x="138.7" y="213" width="699.4" height="15.0" fill="rgb(228,90,39)" rx="2" ry="2" />
<text  x="141.73" y="223.5" >iflib_rxeof</text>
</g>
<g >
<title>iflib_rxeof (2,497 samples, 9.58%)</title><rect x="885.0" y="229" width="113.0" height="15.0" fill="rgb(252,128,6)" rx="2" ry="2" />
<text  x="887.96" y="239.5" >iflib_rxeof</text>
</g>
<g >
<title>ether_output (213 samples, 0.82%)</title><rect x="1180.4" y="181" width="9.6" height="15.0" fill="rgb(209,93,47)" rx="2" ry="2" />
<text  x="1183.36" y="191.5" ></text>
</g>
<g >
<title>ixl_isc_txd_credits_update_hwb (130 samples, 0.50%)</title><rect x="998.0" y="37" width="5.9" height="15.0" fill="rgb(225,39,0)" rx="2" ry="2" />
<text  x="1001.02" y="47.5" ></text>
</g>
<g >
<title>ether_demux (14,100 samples, 54.10%)</title><rect x="160.9" y="149" width="638.4" height="15.0" fill="rgb(248,13,1)" rx="2" ry="2" />
<text  x="163.91" y="159.5" >ether_demux</text>
</g>
<g >
<title>ether_input (4,026 samples, 15.45%)</title><rect x="998.0" y="261" width="182.3" height="15.0" fill="rgb(229,0,31)" rx="2" ry="2" />
<text  x="1001.02" y="271.5" >ether_input</text>
</g>
<g >
<title>netisr_dispatch_src (1,029 samples, 3.95%)</title><rect x="838.4" y="213" width="46.6" height="15.0" fill="rgb(230,94,42)" rx="2" ry="2" />
<text  x="841.37" y="223.5" >neti..</text>
</g>
<g >
<title>iflib_txq_drain (213 samples, 0.82%)</title><rect x="1180.4" y="101" width="9.6" height="15.0" fill="rgb(219,11,48)" rx="2" ry="2" />
<text  x="1183.36" y="111.5" ></text>
</g>
<g >
<title>ether_demux (2,497 samples, 9.58%)</title><rect x="885.0" y="165" width="113.0" height="15.0" fill="rgb(238,67,53)" rx="2" ry="2" />
<text  x="887.96" y="175.5" >ether_demux</text>
</g>
<g >
<title>ipfw_chk (287 samples, 1.10%)</title><rect x="855.5" y="85" width="13.0" height="15.0" fill="rgb(252,126,37)" rx="2" ry="2" />
<text  x="858.53" y="95.5" ></text>
</g>
<g >
<title>ipfw_dyn_lookup_state (764 samples, 2.93%)</title><rect x="963.4" y="53" width="34.6" height="15.0" fill="rgb(207,98,12)" rx="2" ry="2" />
<text  x="966.43" y="63.5" >ip..</text>
</g>
<g >
<title>sleepq_lock (7 samples, 0.03%)</title><rect x="838.1" y="213" width="0.3" height="15.0" fill="rgb(206,88,17)" rx="2" ry="2" />
<text  x="841.05" y="223.5" ></text>
</g>
<g >
<title>jenkins_hash32 (8 samples, 0.03%)</title><rect x="868.5" y="37" width="0.4" height="15.0" fill="rgb(235,18,49)" rx="2" ry="2" />
<text  x="871.52" y="47.5" ></text>
</g>
<g >
<title>iflib_txq_drain (4,026 samples, 15.45%)</title><rect x="998.0" y="69" width="182.3" height="15.0" fill="rgb(215,30,42)" rx="2" ry="2" />
<text  x="1001.02" y="79.5" >iflib_txq_drain</text>
</g>
<g >
<title>if_inc_counter (6 samples, 0.02%)</title><rect x="799.3" y="197" width="0.3" height="15.0" fill="rgb(241,219,39)" rx="2" ry="2" />
<text  x="802.34" y="207.5" ></text>
</g>
<g >
<title>drain_ring_lockless (379 samples, 1.45%)</title><rect x="838.4" y="53" width="17.1" height="15.0" fill="rgb(250,182,29)" rx="2" ry="2" />
<text  x="841.37" y="63.5" ></text>
</g>
<g >
<title>ip_tryforward (1,604 samples, 6.15%)</title><rect x="16.1" y="149" width="72.6" height="15.0" fill="rgb(233,6,30)" rx="2" ry="2" />
<text  x="19.07" y="159.5" >ip_tryfo..</text>
</g>
<g >
<title>ifmp_ring_enqueue (382 samples, 1.47%)</title><rect x="90.9" y="117" width="17.3" height="15.0" fill="rgb(211,163,17)" rx="2" ry="2" />
<text  x="93.87" y="127.5" ></text>
</g>
<g >
<title>dyn_update_proto_state (56 samples, 0.21%)</title><rect x="855.5" y="37" width="2.6" height="15.0" fill="rgb(245,80,25)" rx="2" ry="2" />
<text  x="858.53" y="47.5" ></text>
</g>
<g >
<title>ether_demux (4,026 samples, 15.45%)</title><rect x="998.0" y="213" width="182.3" height="15.0" fill="rgb(230,91,0)" rx="2" ry="2" />
<text  x="1001.02" y="223.5" >ether_demux</text>
</g>
<g >
<title>iflib_completed_tx_reclaim (56 samples, 0.21%)</title><rect x="90.9" y="69" width="2.5" height="15.0" fill="rgb(211,145,20)" rx="2" ry="2" />
<text  x="93.87" y="79.5" ></text>
</g>
<g >
<title>iflib_if_transmit (382 samples, 1.47%)</title><rect x="90.9" y="133" width="17.3" height="15.0" fill="rgb(209,14,4)" rx="2" ry="2" />
<text  x="93.87" y="143.5" ></text>
</g>
<g >
<title>ether_output (379 samples, 1.45%)</title><rect x="838.4" y="117" width="17.1" height="15.0" fill="rgb(234,98,5)" rx="2" ry="2" />
<text  x="841.37" y="127.5" ></text>
</g>
<g >
<title>ip_tryforward (48 samples, 0.18%)</title><rect x="88.7" y="229" width="2.2" height="15.0" fill="rgb(240,28,9)" rx="2" ry="2" />
<text  x="91.69" y="239.5" ></text>
</g>
<g >
<title>iflib_rxeof (4,026 samples, 15.45%)</title><rect x="998.0" y="277" width="182.3" height="15.0" fill="rgb(243,104,20)" rx="2" ry="2" />
<text  x="1001.02" y="287.5" >iflib_rxeof</text>
</g>
<g >
<title>m_freem (56 samples, 0.21%)</title><rect x="90.9" y="53" width="2.5" height="15.0" fill="rgb(241,30,7)" rx="2" ry="2" />
<text  x="93.87" y="63.5" ></text>
</g>
<g >
<title>ether_output (4,026 samples, 15.45%)</title><rect x="998.0" y="149" width="182.3" height="15.0" fill="rgb(208,56,42)" rx="2" ry="2" />
<text  x="1001.02" y="159.5" >ether_output</text>
</g>
<g >
<title>ether_demux (1,604 samples, 6.15%)</title><rect x="16.1" y="197" width="72.6" height="15.0" fill="rgb(231,97,16)" rx="2" ry="2" />
<text  x="19.07" y="207.5" >ether_de..</text>
</g>
<g >
<title>grouptaskqueue_enqueue (525 samples, 2.01%)</title><rect x="115.0" y="213" width="23.7" height="15.0" fill="rgb(232,221,34)" rx="2" ry="2" />
<text  x="117.96" y="223.5" >g..</text>
</g>
<g >
<title>m_free (213 samples, 0.82%)</title><rect x="1180.4" y="53" width="9.6" height="15.0" fill="rgb(222,189,39)" rx="2" ry="2" />
<text  x="1183.36" y="63.5" ></text>
</g>
<g >
<title>ixl_isc_txd_flush (744 samples, 2.85%)</title><rect x="1146.6" y="37" width="33.7" height="15.0" fill="rgb(235,20,21)" rx="2" ry="2" />
<text  x="1149.62" y="47.5" >ix..</text>
</g>
<g >
<title>iflib_if_transmit (213 samples, 0.82%)</title><rect x="1180.4" y="149" width="9.6" height="15.0" fill="rgb(205,18,20)" rx="2" ry="2" />
<text  x="1183.36" y="159.5" ></text>
</g>
<g >
<title>ether_output_frame (1,604 samples, 6.15%)</title><rect x="16.1" y="117" width="72.6" height="15.0" fill="rgb(243,151,16)" rx="2" ry="2" />
<text  x="19.07" y="127.5" >ether_ou..</text>
</g>
<g >
<title>arpresolve (59 samples, 0.23%)</title><rect x="203.1" y="69" width="2.7" height="15.0" fill="rgb(253,217,31)" rx="2" ry="2" />
<text  x="206.11" y="79.5" ></text>
</g>
<g >
<title>fork_exit (16,127 samples, 61.88%)</title><rect x="108.2" y="277" width="730.2" height="15.0" fill="rgb(207,168,5)" rx="2" ry="2" />
<text  x="111.16" y="287.5" >fork_exit</text>
</g>
<g >
<title>iflib_encap (3,152 samples, 12.09%)</title><rect x="1003.9" y="53" width="142.7" height="15.0" fill="rgb(242,94,4)" rx="2" ry="2" />
<text  x="1006.91" y="63.5" >iflib_encap</text>
</g>
<g >
<title>wakeup_any (525 samples, 2.01%)</title><rect x="115.0" y="197" width="23.7" height="15.0" fill="rgb(218,14,44)" rx="2" ry="2" />
<text  x="117.96" y="207.5" >w..</text>
</g>
<g >
<title>ipfw_check_packet (999 samples, 3.83%)</title><rect x="267.1" y="69" width="45.2" height="15.0" fill="rgb(215,148,35)" rx="2" ry="2" />
<text  x="270.09" y="79.5" >ipfw..</text>
</g>
<g >
<title>ifmp_ring_enqueue (213 samples, 0.82%)</title><rect x="1180.4" y="133" width="9.6" height="15.0" fill="rgb(226,182,17)" rx="2" ry="2" />
<text  x="1183.36" y="143.5" ></text>
</g>
<g >
<title>dyn_lookup_ipv4_state (222 samples, 0.85%)</title><rect x="953.4" y="37" width="10.0" height="15.0" fill="rgb(235,87,5)" rx="2" ry="2" />
<text  x="956.38" y="47.5" ></text>
</g>
<g >
<title>ip_tryforward (14,024 samples, 53.81%)</title><rect x="164.4" y="101" width="634.9" height="15.0" fill="rgb(220,54,9)" rx="2" ry="2" />
<text  x="167.35" y="111.5" >ip_tryforward</text>
</g>
<g >
<title>ether_nh_input (14,289 samples, 54.83%)</title><rect x="152.4" y="165" width="646.9" height="15.0" fill="rgb(223,47,25)" rx="2" ry="2" />
<text  x="155.36" y="175.5" >ether_nh_input</text>
</g>
<g >
<title>ether_output (1,511 samples, 5.80%)</title><rect x="885.0" y="101" width="68.4" height="15.0" fill="rgb(218,40,17)" rx="2" ry="2" />
<text  x="887.96" y="111.5" >ether_o..</text>
</g>
<g >
<title>uma_zalloc_arg (123 samples, 0.47%)</title><rect x="804.7" y="181" width="5.6" height="15.0" fill="rgb(247,170,33)" rx="2" ry="2" />
<text  x="807.73" y="191.5" ></text>
</g>
<g >
<title>iflib_encap (326 samples, 1.25%)</title><rect x="93.4" y="69" width="14.8" height="15.0" fill="rgb(225,168,27)" rx="2" ry="2" />
<text  x="96.40" y="79.5" ></text>
</g>
<g >
<title>ip_input (2,497 samples, 9.58%)</title><rect x="885.0" y="133" width="113.0" height="15.0" fill="rgb(221,34,17)" rx="2" ry="2" />
<text  x="887.96" y="143.5" >ip_input</text>
</g>
<g >
<title>netisr_dispatch_src (382 samples, 1.47%)</title><rect x="90.9" y="213" width="17.3" height="15.0" fill="rgb(216,71,3)" rx="2" ry="2" />
<text  x="93.87" y="223.5" ></text>
</g>
<g >
<title>_rm_rlock (347 samples, 1.33%)</title><rect x="294.9" y="37" width="15.7" height="15.0" fill="rgb(239,188,1)" rx="2" ry="2" />
<text  x="297.89" y="47.5" ></text>
</g>
<g >
<title>gtaskqueue_run_locked (16,127 samples, 61.88%)</title><rect x="108.2" y="245" width="730.2" height="15.0" fill="rgb(213,29,2)" rx="2" ry="2" />
<text  x="111.16" y="255.5" >gtaskqueue_run_locked</text>
</g>
<g >
<title>ip_tryforward (1,029 samples, 3.95%)</title><rect x="838.4" y="133" width="46.6" height="15.0" fill="rgb(245,58,15)" rx="2" ry="2" />
<text  x="841.37" y="143.5" >ip_t..</text>
</g>
<g >
<title>iflib_if_transmit (379 samples, 1.45%)</title><rect x="838.4" y="85" width="17.1" height="15.0" fill="rgb(252,11,53)" rx="2" ry="2" />
<text  x="841.37" y="95.5" ></text>
</g>
<g >
<title>ether_demux (1,029 samples, 3.95%)</title><rect x="838.4" y="181" width="46.6" height="15.0" fill="rgb(251,155,42)" rx="2" ry="2" />
<text  x="841.37" y="191.5" >ethe..</text>
</g>
<g >
<title>ip_tryforward (4,026 samples, 15.45%)</title><rect x="998.0" y="165" width="182.3" height="15.0" fill="rgb(232,181,32)" rx="2" ry="2" />
<text  x="1001.02" y="175.5" >ip_tryforward</text>
</g>
<g >
<title>drain_ring_lockless (4,026 samples, 15.45%)</title><rect x="998.0" y="85" width="182.3" height="15.0" fill="rgb(237,225,30)" rx="2" ry="2" />
<text  x="1001.02" y="95.5" >drain_ring_lockless</text>
</g>
<g >
<title>drain_ring_lockless (1,604 samples, 6.15%)</title><rect x="16.1" y="69" width="72.6" height="15.0" fill="rgb(214,50,25)" rx="2" ry="2" />
<text  x="19.07" y="79.5" >drain_ri..</text>
</g>
<g >
<title>_task_fn_rx (1,029 samples, 3.95%)</title><rect x="838.4" y="261" width="46.6" height="15.0" fill="rgb(248,184,34)" rx="2" ry="2" />
<text  x="841.37" y="271.5" >_tas..</text>
</g>
<g >
<title>ip_input (48 samples, 0.18%)</title><rect x="88.7" y="245" width="2.2" height="15.0" fill="rgb(207,108,20)" rx="2" ry="2" />
<text  x="91.69" y="255.5" ></text>
</g>
<g >
<title>netisr_dispatch_src (1,604 samples, 6.15%)</title><rect x="16.1" y="181" width="72.6" height="15.0" fill="rgb(231,95,21)" rx="2" ry="2" />
<text  x="19.07" y="191.5" >netisr_d..</text>
</g>
<g >
<title>e (48 samples, 0.18%)</title><rect x="88.7" y="277" width="2.2" height="15.0" fill="rgb(217,40,44)" rx="2" ry="2" />
<text  x="91.69" y="287.5" ></text>
</g>
<g >
<title>all (26,061 samples, 100%)</title><rect x="10.0" y="293" width="1180.0" height="15.0" fill="rgb(230,62,15)" rx="2" ry="2" />
<text  x="13.00" y="303.5" ></text>
</g>
<g >
<title>ether_input (14,375 samples, 55.16%)</title><rect x="148.5" y="197" width="650.8" height="15.0" fill="rgb(238,48,49)" rx="2" ry="2" />
<text  x="151.46" y="207.5" >ether_input</text>
</g>
<g >
<title>ether_input (2,497 samples, 9.58%)</title><rect x="885.0" y="213" width="113.0" height="15.0" fill="rgb(244,74,21)" rx="2" ry="2" />
<text  x="887.96" y="223.5" >ether_input</text>
</g>
<g >
<title>fib4_lookup (463 samples, 1.78%)</title><rect x="246.1" y="69" width="21.0" height="15.0" fill="rgb(240,12,32)" rx="2" ry="2" />
<text  x="249.13" y="79.5" ></text>
</g>
<g >
<title>in_localip (127 samples, 0.49%)</title><rect x="235.4" y="85" width="5.7" height="15.0" fill="rgb(205,106,49)" rx="2" ry="2" />
<text  x="238.40" y="95.5" ></text>
</g>
<g >
<title>ipfw_dyn_lookup_state (222 samples, 0.85%)</title><rect x="953.4" y="53" width="10.0" height="15.0" fill="rgb(218,208,6)" rx="2" ry="2" />
<text  x="956.38" y="63.5" ></text>
</g>
<g >
<title>dyn_update_proto_state (163 samples, 0.63%)</title><rect x="868.9" y="37" width="7.4" height="15.0" fill="rgb(239,131,21)" rx="2" ry="2" />
<text  x="871.89" y="47.5" ></text>
</g>
<g >
<title>_task_fn_rx (1,604 samples, 6.15%)</title><rect x="16.1" y="277" width="72.6" height="15.0" fill="rgb(217,67,30)" rx="2" ry="2" />
<text  x="19.07" y="287.5" >_task_fn..</text>
</g>
<g >
<title>ipfw_dyn_lookup_state (287 samples, 1.10%)</title><rect x="855.5" y="69" width="13.0" height="15.0" fill="rgb(252,84,39)" rx="2" ry="2" />
<text  x="858.53" y="79.5" ></text>
</g>
<g >
<title>iflib_if_transmit (1,511 samples, 5.80%)</title><rect x="885.0" y="69" width="68.4" height="15.0" fill="rgb(253,30,28)" rx="2" ry="2" />
<text  x="887.96" y="79.5" >iflib_i..</text>
</g>
<g >
<title>ifmp_ring_enqueue (1,604 samples, 6.15%)</title><rect x="16.1" y="85" width="72.6" height="15.0" fill="rgb(213,133,48)" rx="2" ry="2" />
<text  x="19.07" y="95.5" >ifmp_rin..</text>
</g>
<g >
<title>ipfw_dyn_install_state (8 samples, 0.03%)</title><rect x="868.5" y="69" width="0.4" height="15.0" fill="rgb(240,78,7)" rx="2" ry="2" />
<text  x="871.52" y="79.5" ></text>
</g>
<g >
<title>pfil_mbuf_in (10,756 samples, 41.27%)</title><rect x="312.3" y="85" width="487.0" height="15.0" fill="rgb(215,165,46)" rx="2" ry="2" />
<text  x="315.32" y="95.5" >pfil_mbuf_in</text>
</g>
<g >
<title>ether_nh_input (1,604 samples, 6.15%)</title><rect x="16.1" y="213" width="72.6" height="15.0" fill="rgb(225,9,44)" rx="2" ry="2" />
<text  x="19.07" y="223.5" >ether_nh..</text>
</g>
<g >
<title>gtaskqueue_run_locked (2,497 samples, 9.58%)</title><rect x="885.0" y="261" width="113.0" height="15.0" fill="rgb(220,102,17)" rx="2" ry="2" />
<text  x="887.96" y="271.5" >gtaskqueue_ru..</text>
</g>
<g >
<title>ip_tryforward (213 samples, 0.82%)</title><rect x="1180.4" y="197" width="9.6" height="15.0" fill="rgb(212,168,12)" rx="2" ry="2" />
<text  x="1183.36" y="207.5" ></text>
</g>
<g >
<title>iflib_txd_db_check (744 samples, 2.85%)</title><rect x="1146.6" y="53" width="33.7" height="15.0" fill="rgb(212,46,19)" rx="2" ry="2" />
<text  x="1149.62" y="63.5" >if..</text>
</g>
<g >
<title>hash_packet (192 samples, 0.74%)</title><rect x="876.3" y="53" width="8.7" height="15.0" fill="rgb(212,48,9)" rx="2" ry="2" />
<text  x="879.27" y="63.5" ></text>
</g>
<g >
<title>memcpy_erms (300 samples, 1.15%)</title><rect x="221.8" y="69" width="13.6" height="15.0" fill="rgb(210,120,31)" rx="2" ry="2" />
<text  x="224.81" y="79.5" ></text>
</g>
<g >
<title>ipfw_check_packet (222 samples, 0.85%)</title><rect x="953.4" y="85" width="10.0" height="15.0" fill="rgb(243,18,2)" rx="2" ry="2" />
<text  x="956.38" y="95.5" ></text>
</g>
<g >
<title>ipfw_check_packet (287 samples, 1.10%)</title><rect x="855.5" y="101" width="13.0" height="15.0" fill="rgb(207,153,3)" rx="2" ry="2" />
<text  x="858.53" y="111.5" ></text>
</g>
<g >
<title>netisr_dispatch_src (14,375 samples, 55.16%)</title><rect x="148.5" y="181" width="650.8" height="15.0" fill="rgb(253,57,33)" rx="2" ry="2" />
<text  x="151.46" y="191.5" >netisr_dispatch_src</text>
</g>
<g >
<title>iflib_txd_db_check (647 samples, 2.48%)</title><rect x="59.4" y="37" width="29.3" height="15.0" fill="rgb(254,72,23)" rx="2" ry="2" />
<text  x="62.40" y="47.5" >if..</text>
</g>
<g >
<title>ether_nh_input (1,029 samples, 3.95%)</title><rect x="838.4" y="197" width="46.6" height="15.0" fill="rgb(226,175,15)" rx="2" ry="2" />
<text  x="841.37" y="207.5" >ethe..</text>
</g>
<g >
<title>netisr_dispatch_src (2,497 samples, 9.58%)</title><rect x="885.0" y="197" width="113.0" height="15.0" fill="rgb(237,198,6)" rx="2" ry="2" />
<text  x="887.96" y="207.5" >netisr_dispat..</text>
</g>
<g >
<title>pfil_mbuf_in (363 samples, 1.39%)</title><rect x="868.5" y="117" width="16.5" height="15.0" fill="rgb(221,111,13)" rx="2" ry="2" />
<text  x="871.52" y="127.5" ></text>
</g>
<g >
<title>netisr_dispatch_src (382 samples, 1.47%)</title><rect x="90.9" y="261" width="17.3" height="15.0" fill="rgb(222,56,45)" rx="2" ry="2" />
<text  x="93.87" y="271.5" ></text>
</g>
<g >
<title>ether_output_frame (354 samples, 1.36%)</title><rect x="205.8" y="69" width="16.0" height="15.0" fill="rgb(218,47,0)" rx="2" ry="2" />
<text  x="208.78" y="79.5" ></text>
</g>
<g >
<title>ip_input (1,604 samples, 6.15%)</title><rect x="16.1" y="165" width="72.6" height="15.0" fill="rgb(215,64,21)" rx="2" ry="2" />
<text  x="19.07" y="175.5" >ip_input</text>
</g>
<g >
<title>ether_nh_input (382 samples, 1.47%)</title><rect x="90.9" y="245" width="17.3" height="15.0" fill="rgb(254,141,54)" rx="2" ry="2" />
<text  x="93.87" y="255.5" ></text>
</g>
<g >
<title>ipfw_dyn_lookup_state (38 samples, 0.15%)</title><rect x="310.6" y="37" width="1.7" height="15.0" fill="rgb(225,107,38)" rx="2" ry="2" />
<text  x="313.60" y="47.5" ></text>
</g>
<g >
<title>gtaskqueue_thread_loop (16,127 samples, 61.88%)</title><rect x="108.2" y="261" width="730.2" height="15.0" fill="rgb(205,137,0)" rx="2" ry="2" />
<text  x="111.16" y="271.5" >gtaskqueue_thread_loop</text>
</g>
<g >
<title>netisr_dispatch_src (2,497 samples, 9.58%)</title><rect x="885.0" y="149" width="113.0" height="15.0" fill="rgb(232,82,10)" rx="2" ry="2" />
<text  x="887.96" y="159.5" >netisr_dispat..</text>
</g>
<g >
<title>iflib_completed_tx_reclaim (213 samples, 0.82%)</title><rect x="1180.4" y="85" width="9.6" height="15.0" fill="rgb(220,185,13)" rx="2" ry="2" />
<text  x="1183.36" y="95.5" ></text>
</g>
<g >
<title>jenkins_hash32 (192 samples, 0.74%)</title><rect x="876.3" y="37" width="8.7" height="15.0" fill="rgb(248,103,40)" rx="2" ry="2" />
<text  x="879.27" y="47.5" ></text>
</g>
<g >
<title>wakeup (7 samples, 0.03%)</title><rect x="838.1" y="229" width="0.3" height="15.0" fill="rgb(234,74,4)" rx="2" ry="2" />
<text  x="841.05" y="239.5" ></text>
</g>
<g >
<title>ipfw_dyn_lookup_state (75 samples, 0.29%)</title><rect x="795.9" y="37" width="3.4" height="15.0" fill="rgb(252,67,41)" rx="2" ry="2" />
<text  x="798.94" y="47.5" ></text>
</g>
<g >
<title>iflib_txq_drain (1,604 samples, 6.15%)</title><rect x="16.1" y="53" width="72.6" height="15.0" fill="rgb(211,167,31)" rx="2" ry="2" />
<text  x="19.07" y="63.5" >iflib_tx..</text>
</g>
<g >
<title>ether_input (382 samples, 1.47%)</title><rect x="90.9" y="277" width="17.3" height="15.0" fill="rgb(240,147,24)" rx="2" ry="2" />
<text  x="93.87" y="287.5" ></text>
</g>
<g >
<title>iflib_if_transmit (354 samples, 1.36%)</title><rect x="205.8" y="53" width="16.0" height="15.0" fill="rgb(232,105,51)" rx="2" ry="2" />
<text  x="208.78" y="63.5" ></text>
</g>
<g >
<title>ether_output (885 samples, 3.40%)</title><rect x="195.3" y="85" width="40.1" height="15.0" fill="rgb(246,109,53)" rx="2" ry="2" />
<text  x="198.32" y="95.5" >eth..</text>
</g>
<g >
<title>ipfw_check_packet (363 samples, 1.39%)</title><rect x="868.5" y="101" width="16.5" height="15.0" fill="rgb(240,9,38)" rx="2" ry="2" />
<text  x="871.52" y="111.5" ></text>
</g>
<g >
<title>pfil_mbuf_fwd (222 samples, 0.85%)</title><rect x="953.4" y="101" width="10.0" height="15.0" fill="rgb(214,196,41)" rx="2" ry="2" />
<text  x="956.38" y="111.5" ></text>
</g>
<g >
<title>ether_output_frame (382 samples, 1.47%)</title><rect x="90.9" y="149" width="17.3" height="15.0" fill="rgb(224,214,16)" rx="2" ry="2" />
<text  x="93.87" y="159.5" ></text>
</g>
<g >
<title>netisr_dispatch_src (4,026 samples, 15.45%)</title><rect x="998.0" y="197" width="182.3" height="15.0" fill="rgb(223,24,39)" rx="2" ry="2" />
<text  x="1001.02" y="207.5" >netisr_dispatch_src</text>
</g>
<g >
<title>ifmp_ring_enqueue (1,511 samples, 5.80%)</title><rect x="885.0" y="53" width="68.4" height="15.0" fill="rgb(206,61,45)" rx="2" ry="2" />
<text  x="887.96" y="63.5" >ifmp_ri..</text>
</g>
<g >
<title>iflib_fl_refill (236 samples, 0.91%)</title><rect x="799.6" y="197" width="10.7" height="15.0" fill="rgb(228,112,24)" rx="2" ry="2" />
<text  x="802.61" y="207.5" ></text>
</g>
<g >
<title>ipfw_chk (363 samples, 1.39%)</title><rect x="868.5" y="85" width="16.5" height="15.0" fill="rgb(254,149,9)" rx="2" ry="2" />
<text  x="871.52" y="95.5" ></text>
</g>
<g >
<title>iflib_rxeof (1,029 samples, 3.95%)</title><rect x="838.4" y="245" width="46.6" height="15.0" fill="rgb(237,186,2)" rx="2" ry="2" />
<text  x="841.37" y="255.5" >ifli..</text>
</g>
<g >
<title>ether_input (1,029 samples, 3.95%)</title><rect x="838.4" y="229" width="46.6" height="15.0" fill="rgb(216,132,37)" rx="2" ry="2" />
<text  x="841.37" y="239.5" >ethe..</text>
</g>
<g >
<title>ether_input (1,604 samples, 6.15%)</title><rect x="16.1" y="245" width="72.6" height="15.0" fill="rgb(212,188,32)" rx="2" ry="2" />
<text  x="19.07" y="255.5" >ether_in..</text>
</g>
<g >
<title>ip_input (1,029 samples, 3.95%)</title><rect x="838.4" y="149" width="46.6" height="15.0" fill="rgb(234,34,43)" rx="2" ry="2" />
<text  x="841.37" y="159.5" >ip_i..</text>
</g>
<g >
<title>ether_output_frame (213 samples, 0.82%)</title><rect x="1180.4" y="165" width="9.6" height="15.0" fill="rgb(208,95,16)" rx="2" ry="2" />
<text  x="1183.36" y="175.5" ></text>
</g>
<g >
<title>ether_output (1,604 samples, 6.15%)</title><rect x="16.1" y="133" width="72.6" height="15.0" fill="rgb(217,90,37)" rx="2" ry="2" />
<text  x="19.07" y="143.5" >ether_ou..</text>
</g>
<g >
<title>drain_ring_lockless (1,511 samples, 5.80%)</title><rect x="885.0" y="37" width="68.4" height="15.0" fill="rgb(252,84,17)" rx="2" ry="2" />
<text  x="887.96" y="47.5" >drain_r..</text>
</g>
<g >
<title>m_free (56 samples, 0.21%)</title><rect x="90.9" y="37" width="2.5" height="15.0" fill="rgb(242,2,4)" rx="2" ry="2" />
<text  x="93.87" y="47.5" ></text>
</g>
<g >
<title>ip_input (14,076 samples, 54.01%)</title><rect x="162.0" y="117" width="637.3" height="15.0" fill="rgb(250,111,26)" rx="2" ry="2" />
<text  x="165.00" y="127.5" >ip_input</text>
</g>
<g >
<title>memcpy_erms (32 samples, 0.12%)</title><rect x="819.6" y="197" width="1.4" height="15.0" fill="rgb(228,51,40)" rx="2" ry="2" />
<text  x="822.58" y="207.5" ></text>
</g>
<g >
<title>iflib_txq_drain (382 samples, 1.47%)</title><rect x="90.9" y="85" width="17.3" height="15.0" fill="rgb(210,187,21)" rx="2" ry="2" />
<text  x="93.87" y="95.5" ></text>
</g>
<g >
<title>mb_ctor_mbuf (50 samples, 0.19%)</title><rect x="808.0" y="165" width="2.3" height="15.0" fill="rgb(226,162,25)" rx="2" ry="2" />
<text  x="811.03" y="175.5" ></text>
</g>
<g >
<title>gtaskqueue_run_locked (1,029 samples, 3.95%)</title><rect x="838.4" y="277" width="46.6" height="15.0" fill="rgb(230,184,11)" rx="2" ry="2" />
<text  x="841.37" y="287.5" >gtas..</text>
</g>
<g >
<title>ixl_isc_txd_encap (3,067 samples, 11.77%)</title><rect x="1007.8" y="37" width="138.8" height="15.0" fill="rgb(249,198,22)" rx="2" ry="2" />
<text  x="1010.75" y="47.5" >ixl_isc_txd_encap</text>
</g>
<g >
<title>ifmp_ring_enqueue (4,026 samples, 15.45%)</title><rect x="998.0" y="101" width="182.3" height="15.0" fill="rgb(249,130,7)" rx="2" ry="2" />
<text  x="1001.02" y="111.5" >ifmp_ring_enqueue</text>
</g>
<g >
<title>bus_dmamap_load_mbuf_sg (85 samples, 0.33%)</title><rect x="1003.9" y="37" width="3.9" height="15.0" fill="rgb(250,85,22)" rx="2" ry="2" />
<text  x="1006.91" y="47.5" ></text>
</g>
<g >
<title>ifmp_ring_enqueue (354 samples, 1.36%)</title><rect x="205.8" y="37" width="16.0" height="15.0" fill="rgb(253,202,11)" rx="2" ry="2" />
<text  x="208.78" y="47.5" ></text>
</g>
<g >
<title>netisr_dispatch_src (213 samples, 0.82%)</title><rect x="1180.4" y="277" width="9.6" height="15.0" fill="rgb(233,121,49)" rx="2" ry="2" />
<text  x="1183.36" y="287.5" ></text>
</g>
<g >
<title>ether_nh_input (4,026 samples, 15.45%)</title><rect x="998.0" y="229" width="182.3" height="15.0" fill="rgb(223,189,20)" rx="2" ry="2" />
<text  x="1001.02" y="239.5" >ether_nh_input</text>
</g>
<g >
<title>ixl_isc_rxd_pkt_get (205 samples, 0.79%)</title><rect x="810.3" y="197" width="9.3" height="15.0" fill="rgb(231,166,24)" rx="2" ry="2" />
<text  x="813.30" y="207.5" ></text>
</g>
<g >
<title>ether_output_frame (4,026 samples, 15.45%)</title><rect x="998.0" y="133" width="182.3" height="15.0" fill="rgb(220,6,32)" rx="2" ry="2" />
<text  x="1001.02" y="143.5" >ether_output_frame</text>
</g>
<g >
<title>if_inc_counter (60 samples, 0.23%)</title><rect x="16.1" y="37" width="2.7" height="15.0" fill="rgb(241,40,2)" rx="2" ry="2" />
<text  x="19.07" y="47.5" ></text>
</g>
<g >
<title>ip_input (382 samples, 1.47%)</title><rect x="90.9" y="197" width="17.3" height="15.0" fill="rgb(208,137,41)" rx="2" ry="2" />
<text  x="93.87" y="207.5" ></text>
</g>
<g >
<title>_task_fn_rx (2,497 samples, 9.58%)</title><rect x="885.0" y="245" width="113.0" height="15.0" fill="rgb(225,45,7)" rx="2" ry="2" />
<text  x="887.96" y="255.5" >_task_fn_rx</text>
</g>
<g >
<title>bounce_bus_dmamap_load_buffer (326 samples, 1.25%)</title><rect x="93.4" y="37" width="14.8" height="15.0" fill="rgb(217,156,44)" rx="2" ry="2" />
<text  x="96.40" y="47.5" ></text>
</g>
<g >
<title>iflib_completed_tx_reclaim (130 samples, 0.50%)</title><rect x="998.0" y="53" width="5.9" height="15.0" fill="rgb(229,36,36)" rx="2" ry="2" />
<text  x="1001.02" y="63.5" ></text>
</g>
<g >
<title>bsearch4_lookup (110 samples, 0.42%)</title><rect x="241.1" y="69" width="5.0" height="15.0" fill="rgb(234,90,1)" rx="2" ry="2" />
<text  x="244.15" y="79.5" ></text>
</g>
<g >
<title>rxd_frag_to_sd (376 samples, 1.44%)</title><rect x="821.0" y="197" width="17.1" height="15.0" fill="rgb(216,123,22)" rx="2" ry="2" />
<text  x="824.03" y="207.5" ></text>
</g>
<g >
<title>ip_findroute (573 samples, 2.20%)</title><rect x="241.1" y="85" width="26.0" height="15.0" fill="rgb(217,27,28)" rx="2" ry="2" />
<text  x="244.15" y="95.5" >i..</text>
</g>
<g >
<title>ipfw_check_packet (764 samples, 2.93%)</title><rect x="963.4" y="85" width="34.6" height="15.0" fill="rgb(240,95,14)" rx="2" ry="2" />
<text  x="966.43" y="95.5" >ip..</text>
</g>
<g >
<title>ether_output_frame (1,511 samples, 5.80%)</title><rect x="885.0" y="85" width="68.4" height="15.0" fill="rgb(207,46,24)" rx="2" ry="2" />
<text  x="887.96" y="95.5" >ether_o..</text>
</g>
<g >
<title>ip_tryforward (2,497 samples, 9.58%)</title><rect x="885.0" y="117" width="113.0" height="15.0" fill="rgb(216,164,22)" rx="2" ry="2" />
<text  x="887.96" y="127.5" >ip_tryforward</text>
</g>
<g >
<title>ipfw_check_packet (10,756 samples, 41.27%)</title><rect x="312.3" y="69" width="487.0" height="15.0" fill="rgb(210,200,30)" rx="2" ry="2" />
<text  x="315.32" y="79.5" >ipfw_check_packet</text>
</g>
<g >
<title>ipfw_chk (222 samples, 0.85%)</title><rect x="953.4" y="69" width="10.0" height="15.0" fill="rgb(206,181,44)" rx="2" ry="2" />
<text  x="956.38" y="79.5" ></text>
</g>
<g >
<title>dyn_lookup_ipv4_state (764 samples, 2.93%)</title><rect x="963.4" y="37" width="34.6" height="15.0" fill="rgb(230,209,7)" rx="2" ry="2" />
<text  x="966.43" y="47.5" >dy..</text>
</g>
<g >
<title>netisr_dispatch_src (48 samples, 0.18%)</title><rect x="88.7" y="261" width="2.2" height="15.0" fill="rgb(238,117,19)" rx="2" ry="2" />
<text  x="91.69" y="271.5" ></text>
</g>
<g >
<title>pfil_mbuf_fwd (999 samples, 3.83%)</title><rect x="267.1" y="85" width="45.2" height="15.0" fill="rgb(243,92,44)" rx="2" ry="2" />
<text  x="270.09" y="95.5" >pfil..</text>
</g>
<g >
<title>ifmp_ring_enqueue (379 samples, 1.45%)</title><rect x="838.4" y="69" width="17.1" height="15.0" fill="rgb(241,73,31)" rx="2" ry="2" />
<text  x="841.37" y="79.5" ></text>
</g>
<g >
<title>in_lltable_lookup (59 samples, 0.23%)</title><rect x="203.1" y="53" width="2.7" height="15.0" fill="rgb(224,97,1)" rx="2" ry="2" />
<text  x="206.11" y="63.5" ></text>
</g>
<g >
<title>netisr_dispatch_src (4,026 samples, 15.45%)</title><rect x="998.0" y="245" width="182.3" height="15.0" fill="rgb(206,80,32)" rx="2" ry="2" />
<text  x="1001.02" y="255.5" >netisr_dispatch_src</text>
</g>
<g >
<title>hash_packet (231 samples, 0.89%)</title><rect x="858.1" y="53" width="10.4" height="15.0" fill="rgb(235,229,19)" rx="2" ry="2" />
<text  x="861.06" y="63.5" ></text>
</g>
<g >
<title>netisr_dispatch_src (1,029 samples, 3.95%)</title><rect x="838.4" y="165" width="46.6" height="15.0" fill="rgb(215,185,11)" rx="2" ry="2" />
<text  x="841.37" y="175.5" >neti..</text>
</g>
<g >
<title>ipfw_chk (983 samples, 3.77%)</title><rect x="267.8" y="53" width="44.5" height="15.0" fill="rgb(251,66,39)" rx="2" ry="2" />
<text  x="270.82" y="63.5" >ipfw..</text>
</g>
<g >
<title>iflib_if_transmit (1,604 samples, 6.15%)</title><rect x="16.1" y="101" width="72.6" height="15.0" fill="rgb(234,83,43)" rx="2" ry="2" />
<text  x="19.07" y="111.5" >iflib_if..</text>
</g>
<g >
<title>netisr_dispatch_src (14,100 samples, 54.10%)</title><rect x="160.9" y="133" width="638.4" height="15.0" fill="rgb(205,183,34)" rx="2" ry="2" />
<text  x="163.91" y="143.5" >netisr_dispatch_src</text>
</g>
<g >
<title>_task_fn_rx (15,970 samples, 61.28%)</title><rect x="115.0" y="229" width="723.1" height="15.0" fill="rgb(242,194,52)" rx="2" ry="2" />
<text  x="117.96" y="239.5" >_task_fn_rx</text>
</g>
<g >
<title>bus_dmamap_load_mbuf_sg (326 samples, 1.25%)</title><rect x="93.4" y="53" width="14.8" height="15.0" fill="rgb(254,61,37)" rx="2" ry="2" />
<text  x="96.40" y="63.5" ></text>
</g>
<g >
<title>uma_zfree_arg (213 samples, 0.82%)</title><rect x="1180.4" y="37" width="9.6" height="15.0" fill="rgb(212,56,15)" rx="2" ry="2" />
<text  x="1183.36" y="47.5" ></text>
</g>
<g >
<title>ipfw_check_packet (48 samples, 0.18%)</title><rect x="88.7" y="197" width="2.2" height="15.0" fill="rgb(217,56,8)" rx="2" ry="2" />
<text  x="91.69" y="207.5" ></text>
</g>
<g >
<title>iflib_txq_drain (379 samples, 1.45%)</title><rect x="838.4" y="37" width="17.1" height="15.0" fill="rgb(217,46,7)" rx="2" ry="2" />
<text  x="841.37" y="47.5" ></text>
</g>
<g >
<title>m_tag_locate (48 samples, 0.18%)</title><rect x="88.7" y="181" width="2.2" height="15.0" fill="rgb(236,83,20)" rx="2" ry="2" />
<text  x="91.69" y="191.5" ></text>
</g>
<g >
<title>pfil_mbuf_in (48 samples, 0.18%)</title><rect x="88.7" y="213" width="2.2" height="15.0" fill="rgb(227,60,52)" rx="2" ry="2" />
<text  x="91.69" y="223.5" ></text>
</g>
<g >
<title>Xapic_isr1 (134 samples, 0.51%)</title><rect x="10.0" y="277" width="6.1" height="15.0" fill="rgb(210,66,40)" rx="2" ry="2" />
<text  x="13.00" y="287.5" ></text>
</g>
<g >
<title>iflib_encap (395 samples, 1.52%)</title><rect x="41.5" y="37" width="17.9" height="15.0" fill="rgb(250,203,48)" rx="2" ry="2" />
<text  x="44.51" y="47.5" ></text>
</g>
<g >
<title>dyn_lookup_ipv4_state (56 samples, 0.21%)</title><rect x="855.5" y="53" width="2.6" height="15.0" fill="rgb(224,78,53)" rx="2" ry="2" />
<text  x="858.53" y="63.5" ></text>
</g>
<g >
<title>ether_demux (382 samples, 1.47%)</title><rect x="90.9" y="229" width="17.3" height="15.0" fill="rgb(216,67,9)" rx="2" ry="2" />
<text  x="93.87" y="239.5" ></text>
</g>
<g >
<title>hash_packet (8 samples, 0.03%)</title><rect x="868.5" y="53" width="0.4" height="15.0" fill="rgb(244,210,13)" rx="2" ry="2" />
<text  x="871.52" y="63.5" ></text>
</g>
<g >
<title>gtaskqueue_thread_loop (2,497 samples, 9.58%)</title><rect x="885.0" y="277" width="113.0" height="15.0" fill="rgb(220,161,46)" rx="2" ry="2" />
<text  x="887.96" y="287.5" >gtaskqueue_th..</text>
</g>
<g >
<title>_rm_rlock (157 samples, 0.60%)</title><rect x="788.8" y="37" width="7.1" height="15.0" fill="rgb(229,41,53)" rx="2" ry="2" />
<text  x="791.83" y="47.5" ></text>
</g>
<g >
<title>iflib_rxeof (1,604 samples, 6.15%)</title><rect x="16.1" y="261" width="72.6" height="15.0" fill="rgb(247,111,11)" rx="2" ry="2" />
<text  x="19.07" y="271.5" >iflib_rx..</text>
</g>
<g >
<title>ether_output_frame (379 samples, 1.45%)</title><rect x="838.4" y="101" width="17.1" height="15.0" fill="rgb(254,113,35)" rx="2" ry="2" />
<text  x="841.37" y="111.5" ></text>
</g>
<g >
<title>pfil_mbuf_in (764 samples, 2.93%)</title><rect x="963.4" y="101" width="34.6" height="15.0" fill="rgb(226,190,54)" rx="2" ry="2" />
<text  x="966.43" y="111.5" >pf..</text>
</g>
<g >
<title>ipfw_dyn_lookup_state (355 samples, 1.36%)</title><rect x="868.9" y="69" width="16.1" height="15.0" fill="rgb(217,78,33)" rx="2" ry="2" />
<text  x="871.89" y="79.5" ></text>
</g>
<g >
<title>ip_input (213 samples, 0.82%)</title><rect x="1180.4" y="213" width="9.6" height="15.0" fill="rgb(237,186,41)" rx="2" ry="2" />
<text  x="1183.36" y="223.5" ></text>
</g>
<g >
<title>sleepq_lock (525 samples, 2.01%)</title><rect x="115.0" y="181" width="23.7" height="15.0" fill="rgb(226,13,12)" rx="2" ry="2" />
<text  x="117.96" y="191.5" >s..</text>
</g>
<g >
<title>iflib_if_transmit (4,026 samples, 15.45%)</title><rect x="998.0" y="117" width="182.3" height="15.0" fill="rgb(215,89,44)" rx="2" ry="2" />
<text  x="1001.02" y="127.5" >iflib_if_transmit</text>
</g>
<g >
<title>netisr_dispatch_src (1,604 samples, 6.15%)</title><rect x="16.1" y="229" width="72.6" height="15.0" fill="rgb(246,117,52)" rx="2" ry="2" />
<text  x="19.07" y="239.5" >netisr_d..</text>
</g>
<g >
<title>pfil_mbuf_fwd (287 samples, 1.10%)</title><rect x="855.5" y="117" width="13.0" height="15.0" fill="rgb(246,210,37)" rx="2" ry="2" />
<text  x="858.53" y="127.5" ></text>
</g>
<g >
<title>iflib_completed_tx_reclaim (502 samples, 1.93%)</title><rect x="18.8" y="37" width="22.7" height="15.0" fill="rgb(219,96,54)" rx="2" ry="2" />
<text  x="21.78" y="47.5" >i..</text>
</g>
<g >
<title>ipfw_chk (10,596 samples, 40.66%)</title><rect x="319.6" y="53" width="479.7" height="15.0" fill="rgb(211,154,47)" rx="2" ry="2" />
<text  x="322.57" y="63.5" >ipfw_chk</text>
</g>
<g >
<title>ether_nh_input (2,497 samples, 9.58%)</title><rect x="885.0" y="181" width="113.0" height="15.0" fill="rgb(209,41,5)" rx="2" ry="2" />
<text  x="887.96" y="191.5" >ether_nh_input</text>
</g>
<g >
<title>ipfw_chk (764 samples, 2.93%)</title><rect x="963.4" y="69" width="34.6" height="15.0" fill="rgb(242,147,48)" rx="2" ry="2" />
<text  x="966.43" y="79.5" >ip..</text>
</g>
<g >
<title>ether_output (382 samples, 1.47%)</title><rect x="90.9" y="165" width="17.3" height="15.0" fill="rgb(239,161,29)" rx="2" ry="2" />
<text  x="93.87" y="175.5" ></text>
</g>
<g >
<title>ip_input (4,026 samples, 15.45%)</title><rect x="998.0" y="181" width="182.3" height="15.0" fill="rgb(240,66,42)" rx="2" ry="2" />
<text  x="1001.02" y="191.5" >ip_input</text>
</g>
<g >
<title>jenkins_hash32 (231 samples, 0.89%)</title><rect x="858.1" y="37" width="10.4" height="15.0" fill="rgb(240,25,8)" rx="2" ry="2" />
<text  x="861.06" y="47.5" ></text>
</g>
</g>
</svg>
