<?xml version="1.0" standalone="no"?>
<!DOCTYPE svg PUBLIC "-//W3C//DTD SVG 1.1//EN" "http://www.w3.org/Graphics/SVG/1.1/DTD/svg11.dtd">
<svg version="1.1" width="1200" height="342" onload="init(evt)" viewBox="0 0 1200 342" xmlns="http://www.w3.org/2000/svg" xmlns:xlink="http://www.w3.org/1999/xlink">
<!-- Flame graph stack visualization. See https://github.com/brendangregg/FlameGraph for latest version, and http://www.brendangregg.com/flamegraphs.html for examples. -->
<!-- NOTES:  -->
<defs>
	<linearGradient id="background" y1="0" y2="1" x1="0" x2="0" >
		<stop stop-color="#eeeeee" offset="5%" />
		<stop stop-color="#eeeeb0" offset="95%" />
	</linearGradient>
</defs>
<style type="text/css">
	text { font-family:Verdana; font-size:12px; fill:rgb(0,0,0); }
	#search, #ignorecase { opacity:0.1; cursor:pointer; }
	#search:hover, #search.show, #ignorecase:hover, #ignorecase.show { opacity:1; }
	#subtitle { text-anchor:middle; font-color:rgb(160,160,160); }
	#title { text-anchor:middle; font-size:17px}
	#unzoom { cursor:pointer; }
	#frames > *:hover { stroke:black; stroke-width:0.5; cursor:pointer; }
	.hide { display:none; }
	.parent { opacity:0.5; }
</style>
<script type="text/ecmascript">
<![CDATA[
	"use strict";
	var details, searchbtn, unzoombtn, matchedtxt, svg, searching, currentSearchTerm, ignorecase, ignorecaseBtn;
	function init(evt) {
		details = document.getElementById("details").firstChild;
		searchbtn = document.getElementById("search");
		ignorecaseBtn = document.getElementById("ignorecase");
		unzoombtn = document.getElementById("unzoom");
		matchedtxt = document.getElementById("matched");
		svg = document.getElementsByTagName("svg")[0];
		searching = 0;
		currentSearchTerm = null;

		// use GET parameters to restore a flamegraphs state.
		var params = get_params();
		if (params.x && params.y)
			zoom(find_group(document.querySelector('[x="' + params.x + '"][y="' + params.y + '"]')));
                if (params.s) search(params.s);
	}

	// event listeners
	window.addEventListener("click", function(e) {
		var target = find_group(e.target);
		if (target) {
			if (target.nodeName == "a") {
				if (e.ctrlKey === false) return;
				e.preventDefault();
			}
			if (target.classList.contains("parent")) unzoom();
			zoom(target);
			if (!document.querySelector('.parent')) {
				clearzoom();
				return;
			}

			// set parameters for zoom state
			var el = target.querySelector("rect");
			if (el && el.attributes && el.attributes.y && el.attributes._orig_x) {
				var params = get_params()
				params.x = el.attributes._orig_x.value;
				params.y = el.attributes.y.value;
				history.replaceState(null, null, parse_params(params));
			}
		}
		else if (e.target.id == "unzoom") clearzoom();
		else if (e.target.id == "search") search_prompt();
		else if (e.target.id == "ignorecase") toggle_ignorecase();
	}, false)

	// mouse-over for info
	// show
	window.addEventListener("mouseover", function(e) {
		var target = find_group(e.target);
		if (target) details.nodeValue = "Function: " + g_to_text(target);
	}, false)

	// clear
	window.addEventListener("mouseout", function(e) {
		var target = find_group(e.target);
		if (target) details.nodeValue = ' ';
	}, false)

	// ctrl-F for search
	// ctrl-I to toggle case-sensitive search
	window.addEventListener("keydown",function (e) {
		if (e.keyCode === 114 || (e.ctrlKey && e.keyCode === 70)) {
			e.preventDefault();
			search_prompt();
		}
		else if (e.ctrlKey && e.keyCode === 73) {
			e.preventDefault();
			toggle_ignorecase();
		}
	}, false)

	// functions
	function get_params() {
		var params = {};
		var paramsarr = window.location.search.substr(1).split('&');
		for (var i = 0; i < paramsarr.length; ++i) {
			var tmp = paramsarr[i].split("=");
			if (!tmp[0] || !tmp[1]) continue;
			params[tmp[0]]  = decodeURIComponent(tmp[1]);
		}
		return params;
	}
	function parse_params(params) {
		var uri = "?";
		for (var key in params) {
			uri += key + '=' + encodeURIComponent(params[key]) + '&';
		}
		if (uri.slice(-1) == "&")
			uri = uri.substring(0, uri.length - 1);
		if (uri == '?')
			uri = window.location.href.split('?')[0];
		return uri;
	}
	function find_child(node, selector) {
		var children = node.querySelectorAll(selector);
		if (children.length) return children[0];
	}
	function find_group(node) {
		var parent = node.parentElement;
		if (!parent) return;
		if (parent.id == "frames") return node;
		return find_group(parent);
	}
	function orig_save(e, attr, val) {
		if (e.attributes["_orig_" + attr] != undefined) return;
		if (e.attributes[attr] == undefined) return;
		if (val == undefined) val = e.attributes[attr].value;
		e.setAttribute("_orig_" + attr, val);
	}
	function orig_load(e, attr) {
		if (e.attributes["_orig_"+attr] == undefined) return;
		e.attributes[attr].value = e.attributes["_orig_" + attr].value;
		e.removeAttribute("_orig_"+attr);
	}
	function g_to_text(e) {
		var text = find_child(e, "title").firstChild.nodeValue;
		return (text)
	}
	function g_to_func(e) {
		var func = g_to_text(e);
		// if there's any manipulation we want to do to the function
		// name before it's searched, do it here before returning.
		return (func);
	}
	function update_text(e) {
		var r = find_child(e, "rect");
		var t = find_child(e, "text");
		var w = parseFloat(r.attributes.width.value) -3;
		var txt = find_child(e, "title").textContent.replace(/\([^(]*\)$/,"");
		t.attributes.x.value = parseFloat(r.attributes.x.value) + 3;

		// Smaller than this size won't fit anything
		if (w < 2 * 12 * 0.59) {
			t.textContent = "";
			return;
		}

		t.textContent = txt;
		// Fit in full text width
		if (/^ *$/.test(txt) || t.getSubStringLength(0, txt.length) < w)
			return;

		for (var x = txt.length - 2; x > 0; x--) {
			if (t.getSubStringLength(0, x + 2) <= w) {
				t.textContent = txt.substring(0, x) + "..";
				return;
			}
		}
		t.textContent = "";
	}

	// zoom
	function zoom_reset(e) {
		if (e.attributes != undefined) {
			orig_load(e, "x");
			orig_load(e, "width");
		}
		if (e.childNodes == undefined) return;
		for (var i = 0, c = e.childNodes; i < c.length; i++) {
			zoom_reset(c[i]);
		}
	}
	function zoom_child(e, x, ratio) {
		if (e.attributes != undefined) {
			if (e.attributes.x != undefined) {
				orig_save(e, "x");
				e.attributes.x.value = (parseFloat(e.attributes.x.value) - x - 10) * ratio + 10;
				if (e.tagName == "text")
					e.attributes.x.value = find_child(e.parentNode, "rect[x]").attributes.x.value + 3;
			}
			if (e.attributes.width != undefined) {
				orig_save(e, "width");
				e.attributes.width.value = parseFloat(e.attributes.width.value) * ratio;
			}
		}

		if (e.childNodes == undefined) return;
		for (var i = 0, c = e.childNodes; i < c.length; i++) {
			zoom_child(c[i], x - 10, ratio);
		}
	}
	function zoom_parent(e) {
		if (e.attributes) {
			if (e.attributes.x != undefined) {
				orig_save(e, "x");
				e.attributes.x.value = 10;
			}
			if (e.attributes.width != undefined) {
				orig_save(e, "width");
				e.attributes.width.value = parseInt(svg.width.baseVal.value) - (10 * 2);
			}
		}
		if (e.childNodes == undefined) return;
		for (var i = 0, c = e.childNodes; i < c.length; i++) {
			zoom_parent(c[i]);
		}
	}
	function zoom(node) {
		var attr = find_child(node, "rect").attributes;
		var width = parseFloat(attr.width.value);
		var xmin = parseFloat(attr.x.value);
		var xmax = parseFloat(xmin + width);
		var ymin = parseFloat(attr.y.value);
		var ratio = (svg.width.baseVal.value - 2 * 10) / width;

		// XXX: Workaround for JavaScript float issues (fix me)
		var fudge = 0.0001;

		unzoombtn.classList.remove("hide");

		var el = document.getElementById("frames").children;
		for (var i = 0; i < el.length; i++) {
			var e = el[i];
			var a = find_child(e, "rect").attributes;
			var ex = parseFloat(a.x.value);
			var ew = parseFloat(a.width.value);
			var upstack;
			// Is it an ancestor
			if (0 == 0) {
				upstack = parseFloat(a.y.value) > ymin;
			} else {
				upstack = parseFloat(a.y.value) < ymin;
			}
			if (upstack) {
				// Direct ancestor
				if (ex <= xmin && (ex+ew+fudge) >= xmax) {
					e.classList.add("parent");
					zoom_parent(e);
					update_text(e);
				}
				// not in current path
				else
					e.classList.add("hide");
			}
			// Children maybe
			else {
				// no common path
				if (ex < xmin || ex + fudge >= xmax) {
					e.classList.add("hide");
				}
				else {
					zoom_child(e, xmin, ratio);
					update_text(e);
				}
			}
		}
		search();
	}
	function unzoom() {
		unzoombtn.classList.add("hide");
		var el = document.getElementById("frames").children;
		for(var i = 0; i < el.length; i++) {
			el[i].classList.remove("parent");
			el[i].classList.remove("hide");
			zoom_reset(el[i]);
			update_text(el[i]);
		}
		search();
	}
	function clearzoom() {
		unzoom();

		// remove zoom state
		var params = get_params();
		if (params.x) delete params.x;
		if (params.y) delete params.y;
		history.replaceState(null, null, parse_params(params));
	}

	// search
	function toggle_ignorecase() {
		ignorecase = !ignorecase;
		if (ignorecase) {
			ignorecaseBtn.classList.add("show");
		} else {
			ignorecaseBtn.classList.remove("show");
		}
		reset_search();
		search();
	}
	function reset_search() {
		var el = document.querySelectorAll("#frames rect");
		for (var i = 0; i < el.length; i++) {
			orig_load(el[i], "fill")
		}
		var params = get_params();
		delete params.s;
		history.replaceState(null, null, parse_params(params));
	}
	function search_prompt() {
		if (!searching) {
			var term = prompt("Enter a search term (regexp " +
			    "allowed, eg: ^ext4_)"
			    + (ignorecase ? ", ignoring case" : "")
			    + "\nPress Ctrl-i to toggle case sensitivity", "");
			if (term != null) search(term);
		} else {
			reset_search();
			searching = 0;
			currentSearchTerm = null;
			searchbtn.classList.remove("show");
			searchbtn.firstChild.nodeValue = "Search"
			matchedtxt.classList.add("hide");
			matchedtxt.firstChild.nodeValue = ""
		}
	}
	function search(term) {
		if (term) currentSearchTerm = term;

		var re = new RegExp(currentSearchTerm, ignorecase ? 'i' : '');
		var el = document.getElementById("frames").children;
		var matches = new Object();
		var maxwidth = 0;
		for (var i = 0; i < el.length; i++) {
			var e = el[i];
			var func = g_to_func(e);
			var rect = find_child(e, "rect");
			if (func == null || rect == null)
				continue;

			// Save max width. Only works as we have a root frame
			var w = parseFloat(rect.attributes.width.value);
			if (w > maxwidth)
				maxwidth = w;

			if (func.match(re)) {
				// highlight
				var x = parseFloat(rect.attributes.x.value);
				orig_save(rect, "fill");
				rect.attributes.fill.value = "rgb(230,0,230)";

				// remember matches
				if (matches[x] == undefined) {
					matches[x] = w;
				} else {
					if (w > matches[x]) {
						// overwrite with parent
						matches[x] = w;
					}
				}
				searching = 1;
			}
		}
		if (!searching)
			return;
		var params = get_params();
		params.s = currentSearchTerm;
		history.replaceState(null, null, parse_params(params));

		searchbtn.classList.add("show");
		searchbtn.firstChild.nodeValue = "Reset Search";

		// calculate percent matched, excluding vertical overlap
		var count = 0;
		var lastx = -1;
		var lastw = 0;
		var keys = Array();
		for (k in matches) {
			if (matches.hasOwnProperty(k))
				keys.push(k);
		}
		// sort the matched frames by their x location
		// ascending, then width descending
		keys.sort(function(a, b){
			return a - b;
		});
		// Step through frames saving only the biggest bottom-up frames
		// thanks to the sort order. This relies on the tree property
		// where children are always smaller than their parents.
		var fudge = 0.0001;	// JavaScript floating point
		for (var k in keys) {
			var x = parseFloat(keys[k]);
			var w = matches[keys[k]];
			if (x >= lastx + lastw - fudge) {
				count += w;
				lastx = x;
				lastw = w;
			}
		}
		// display matched percent
		matchedtxt.classList.remove("hide");
		var pct = 100 * count / maxwidth;
		if (pct != 100) pct = pct.toFixed(1)
		matchedtxt.firstChild.nodeValue = "Matched: " + pct + "%";
	}
]]>
</script>
<rect x="0.0" y="0" width="1200.0" height="342.0" fill="url(#background)"  />
<text id="title" x="600.00" y="24" >Flame Graph</text>
<text id="details" x="10.00" y="325" > </text>
<text id="unzoom" x="10.00" y="24" class="hide">Reset Zoom</text>
<text id="search" x="1090.00" y="24" >Search</text>
<text id="ignorecase" x="1174.00" y="24" >ic</text>
<text id="matched" x="1090.00" y="325" > </text>
<g id="frames">
<g >
<title>m_freem (53 samples, 0.19%)</title><rect x="72.8" y="53" width="2.2" height="15.0" fill="rgb(244,197,11)" rx="2" ry="2" />
<text  x="75.76" y="63.5" ></text>
</g>
<g >
<title>timercb (47 samples, 0.17%)</title><rect x="1172.2" y="261" width="2.0" height="15.0" fill="rgb(216,124,18)" rx="2" ry="2" />
<text  x="1175.22" y="271.5" ></text>
</g>
<g >
<title>ether_output (1,259 samples, 4.49%)</title><rect x="19.7" y="133" width="53.1" height="15.0" fill="rgb(241,35,22)" rx="2" ry="2" />
<text  x="22.73" y="143.5" >ether..</text>
</g>
<g >
<title>m_free (53 samples, 0.19%)</title><rect x="72.8" y="37" width="2.2" height="15.0" fill="rgb(219,26,51)" rx="2" ry="2" />
<text  x="75.76" y="47.5" ></text>
</g>
<g >
<title>if_inc_counter (35 samples, 0.12%)</title><rect x="21.0" y="37" width="1.5" height="15.0" fill="rgb(233,48,30)" rx="2" ry="2" />
<text  x="24.04" y="47.5" ></text>
</g>
<g >
<title>gtaskqueue_thread_loop (2,772 samples, 9.90%)</title><rect x="861.7" y="277" width="116.8" height="15.0" fill="rgb(252,111,37)" rx="2" ry="2" />
<text  x="864.69" y="287.5" >gtaskqueue_thr..</text>
</g>
<g >
<title>wakeup (9 samples, 0.03%)</title><rect x="847.4" y="229" width="0.3" height="15.0" fill="rgb(252,108,14)" rx="2" ry="2" />
<text  x="850.37" y="239.5" ></text>
</g>
<g >
<title>uma_zalloc_arg (104 samples, 0.37%)</title><rect x="813.2" y="181" width="4.4" height="15.0" fill="rgb(247,64,14)" rx="2" ry="2" />
<text  x="816.21" y="191.5" ></text>
</g>
<g >
<title>ip_tryforward (376 samples, 1.34%)</title><rect x="72.8" y="181" width="15.8" height="15.0" fill="rgb(222,84,45)" rx="2" ry="2" />
<text  x="75.76" y="191.5" ></text>
</g>
<g >
<title>netisr_dispatch_src (376 samples, 1.34%)</title><rect x="72.8" y="261" width="15.8" height="15.0" fill="rgb(244,75,30)" rx="2" ry="2" />
<text  x="75.76" y="271.5" ></text>
</g>
<g >
<title>netisr_dispatch_src (331 samples, 1.18%)</title><rect x="847.7" y="165" width="14.0" height="15.0" fill="rgb(228,190,8)" rx="2" ry="2" />
<text  x="850.75" y="175.5" ></text>
</g>
<g >
<title>netisr_dispatch_src (4,542 samples, 16.21%)</title><rect x="978.5" y="245" width="191.3" height="15.0" fill="rgb(205,54,20)" rx="2" ry="2" />
<text  x="981.46" y="255.5" >netisr_dispatch_src</text>
</g>
<g >
<title>uma_zfree_arg (39 samples, 0.14%)</title><rect x="88.6" y="53" width="1.6" height="15.0" fill="rgb(224,42,53)" rx="2" ry="2" />
<text  x="91.60" y="63.5" ></text>
</g>
<g >
<title>if_getdrvflags (6 samples, 0.02%)</title><rect x="809.2" y="197" width="0.2" height="15.0" fill="rgb(249,113,24)" rx="2" ry="2" />
<text  x="812.16" y="207.5" ></text>
</g>
<g >
<title>gtaskqueue_run_locked (331 samples, 1.18%)</title><rect x="847.7" y="277" width="14.0" height="15.0" fill="rgb(224,18,14)" rx="2" ry="2" />
<text  x="850.75" y="287.5" ></text>
</g>
<g >
<title>ip_input (331 samples, 1.18%)</title><rect x="847.7" y="149" width="14.0" height="15.0" fill="rgb(245,55,4)" rx="2" ry="2" />
<text  x="850.75" y="159.5" ></text>
</g>
<g >
<title>ifmp_ring_enqueue (1,259 samples, 4.49%)</title><rect x="19.7" y="85" width="53.1" height="15.0" fill="rgb(246,175,24)" rx="2" ry="2" />
<text  x="22.73" y="95.5" >ifmp_..</text>
</g>
<g >
<title>ether_demux (376 samples, 1.34%)</title><rect x="72.8" y="229" width="15.8" height="15.0" fill="rgb(241,193,44)" rx="2" ry="2" />
<text  x="75.76" y="239.5" ></text>
</g>
<g >
<title>hardclock (47 samples, 0.17%)</title><rect x="1172.2" y="229" width="2.0" height="15.0" fill="rgb(254,29,29)" rx="2" ry="2" />
<text  x="1175.22" y="239.5" ></text>
</g>
<g >
<title>ip_tryforward (4,542 samples, 16.21%)</title><rect x="978.5" y="165" width="191.3" height="15.0" fill="rgb(215,131,45)" rx="2" ry="2" />
<text  x="981.46" y="175.5" >ip_tryforward</text>
</g>
<g >
<title>netisr_dispatch_src (331 samples, 1.18%)</title><rect x="847.7" y="213" width="14.0" height="15.0" fill="rgb(254,2,30)" rx="2" ry="2" />
<text  x="850.75" y="223.5" ></text>
</g>
<g >
<title>ether_output (4,542 samples, 16.21%)</title><rect x="978.5" y="149" width="191.3" height="15.0" fill="rgb(227,118,27)" rx="2" ry="2" />
<text  x="981.46" y="159.5" >ether_output</text>
</g>
<g >
<title>ip_input (2,772 samples, 9.90%)</title><rect x="861.7" y="133" width="116.8" height="15.0" fill="rgb(221,137,44)" rx="2" ry="2" />
<text  x="864.69" y="143.5" >ip_input</text>
</g>
<g >
<title>iflib_completed_tx_reclaim (39 samples, 0.14%)</title><rect x="88.6" y="101" width="1.6" height="15.0" fill="rgb(209,30,47)" rx="2" ry="2" />
<text  x="91.60" y="111.5" ></text>
</g>
<g >
<title>iflib_fast_intr_rxtx (18 samples, 0.06%)</title><rect x="1171.5" y="245" width="0.7" height="15.0" fill="rgb(240,149,8)" rx="2" ry="2" />
<text  x="1174.47" y="255.5" ></text>
</g>
<g >
<title>iflib_completed_tx_reclaim (53 samples, 0.19%)</title><rect x="72.8" y="69" width="2.2" height="15.0" fill="rgb(230,131,22)" rx="2" ry="2" />
<text  x="75.76" y="79.5" ></text>
</g>
<g >
<title>iflib_if_transmit (1,259 samples, 4.49%)</title><rect x="19.7" y="101" width="53.1" height="15.0" fill="rgb(232,224,6)" rx="2" ry="2" />
<text  x="22.73" y="111.5" >iflib..</text>
</g>
<g >
<title>iflib_txq_drain (4,542 samples, 16.21%)</title><rect x="978.5" y="69" width="191.3" height="15.0" fill="rgb(254,41,10)" rx="2" ry="2" />
<text  x="981.46" y="79.5" >iflib_txq_drain</text>
</g>
<g >
<title>netisr_dispatch_src (1,259 samples, 4.49%)</title><rect x="19.7" y="181" width="53.1" height="15.0" fill="rgb(206,110,25)" rx="2" ry="2" />
<text  x="22.73" y="191.5" >netis..</text>
</g>
<g >
<title>iflib_rxeof (16,790 samples, 59.94%)</title><rect x="140.1" y="213" width="707.2" height="15.0" fill="rgb(224,169,9)" rx="2" ry="2" />
<text  x="143.08" y="223.5" >iflib_rxeof</text>
</g>
<g >
<title>drain_ring_lockless (376 samples, 1.34%)</title><rect x="72.8" y="101" width="15.8" height="15.0" fill="rgb(231,82,20)" rx="2" ry="2" />
<text  x="75.76" y="111.5" ></text>
</g>
<g >
<title>ip_input (15,415 samples, 55.03%)</title><rect x="158.7" y="117" width="649.3" height="15.0" fill="rgb(222,16,41)" rx="2" ry="2" />
<text  x="161.70" y="127.5" >ip_input</text>
</g>
<g >
<title>iflib_txq_drain (1,259 samples, 4.49%)</title><rect x="19.7" y="53" width="53.1" height="15.0" fill="rgb(219,11,10)" rx="2" ry="2" />
<text  x="22.73" y="63.5" >iflib..</text>
</g>
<g >
<title>drain_ring_lockless (1,259 samples, 4.49%)</title><rect x="19.7" y="69" width="53.1" height="15.0" fill="rgb(218,96,11)" rx="2" ry="2" />
<text  x="22.73" y="79.5" >drain..</text>
</g>
<g >
<title>ether_output (13,323 samples, 47.56%)</title><rect x="220.8" y="85" width="561.2" height="15.0" fill="rgb(243,189,28)" rx="2" ry="2" />
<text  x="223.83" y="95.5" >ether_output</text>
</g>
<g >
<title>ixl_isc_rxd_pkt_get (188 samples, 0.67%)</title><rect x="818.6" y="197" width="8.0" height="15.0" fill="rgb(246,67,39)" rx="2" ry="2" />
<text  x="821.64" y="207.5" ></text>
</g>
<g >
<title>iflib_encap (12 samples, 0.04%)</title><rect x="1189.5" y="85" width="0.5" height="15.0" fill="rgb(253,140,22)" rx="2" ry="2" />
<text  x="1192.49" y="95.5" ></text>
</g>
<g >
<title>iflib_if_transmit (451 samples, 1.61%)</title><rect x="743.4" y="53" width="19.0" height="15.0" fill="rgb(211,123,2)" rx="2" ry="2" />
<text  x="746.41" y="63.5" ></text>
</g>
<g >
<title>ether_output (331 samples, 1.18%)</title><rect x="847.7" y="117" width="14.0" height="15.0" fill="rgb(224,101,40)" rx="2" ry="2" />
<text  x="850.75" y="127.5" ></text>
</g>
<g >
<title>iflib_if_transmit (375 samples, 1.34%)</title><rect x="1174.2" y="149" width="15.8" height="15.0" fill="rgb(209,220,15)" rx="2" ry="2" />
<text  x="1177.20" y="159.5" ></text>
</g>
<g >
<title>in_localip (146 samples, 0.52%)</title><rect x="782.0" y="85" width="6.2" height="15.0" fill="rgb(232,43,41)" rx="2" ry="2" />
<text  x="785.04" y="95.5" ></text>
</g>
<g >
<title>sleepq_lock (9 samples, 0.03%)</title><rect x="847.4" y="213" width="0.3" height="15.0" fill="rgb(236,117,54)" rx="2" ry="2" />
<text  x="850.37" y="223.5" ></text>
</g>
<g >
<title>m_freem (363 samples, 1.30%)</title><rect x="1174.2" y="69" width="15.3" height="15.0" fill="rgb(229,19,49)" rx="2" ry="2" />
<text  x="1177.20" y="79.5" ></text>
</g>
<g >
<title>ether_input (4,542 samples, 16.21%)</title><rect x="978.5" y="261" width="191.3" height="15.0" fill="rgb(235,177,44)" rx="2" ry="2" />
<text  x="981.46" y="271.5" >ether_input</text>
</g>
<g >
<title>fib4_lookup (150 samples, 0.54%)</title><rect x="801.7" y="69" width="6.3" height="15.0" fill="rgb(226,81,11)" rx="2" ry="2" />
<text  x="804.71" y="79.5" ></text>
</g>
<g >
<title>ether_output_frame (39 samples, 0.14%)</title><rect x="88.6" y="181" width="1.6" height="15.0" fill="rgb(224,73,28)" rx="2" ry="2" />
<text  x="91.60" y="191.5" ></text>
</g>
<g >
<title>ip_tryforward (2,772 samples, 9.90%)</title><rect x="861.7" y="117" width="116.8" height="15.0" fill="rgb(230,29,5)" rx="2" ry="2" />
<text  x="864.69" y="127.5" >ip_tryforward</text>
</g>
<g >
<title>m_freem (39 samples, 0.14%)</title><rect x="88.6" y="85" width="1.6" height="15.0" fill="rgb(230,139,10)" rx="2" ry="2" />
<text  x="91.60" y="95.5" ></text>
</g>
<g >
<title>netisr_dispatch_src (1,259 samples, 4.49%)</title><rect x="19.7" y="229" width="53.1" height="15.0" fill="rgb(251,140,6)" rx="2" ry="2" />
<text  x="22.73" y="239.5" >netis..</text>
</g>
<g >
<title>ixl_isc_txd_flush (567 samples, 2.02%)</title><rect x="1145.9" y="37" width="23.9" height="15.0" fill="rgb(222,54,42)" rx="2" ry="2" />
<text  x="1148.90" y="47.5" >i..</text>
</g>
<g >
<title>ether_output_frame (331 samples, 1.18%)</title><rect x="847.7" y="101" width="14.0" height="15.0" fill="rgb(254,10,38)" rx="2" ry="2" />
<text  x="850.75" y="111.5" ></text>
</g>
<g >
<title>ether_output_frame (2,772 samples, 9.90%)</title><rect x="861.7" y="85" width="116.8" height="15.0" fill="rgb(219,84,37)" rx="2" ry="2" />
<text  x="864.69" y="95.5" >ether_output_f..</text>
</g>
<g >
<title>_task_fn_rx (17,702 samples, 63.19%)</title><rect x="101.7" y="229" width="745.6" height="15.0" fill="rgb(244,71,1)" rx="2" ry="2" />
<text  x="104.66" y="239.5" >_task_fn_rx</text>
</g>
<g >
<title>iflib_txq_drain (375 samples, 1.34%)</title><rect x="1174.2" y="101" width="15.8" height="15.0" fill="rgb(232,148,20)" rx="2" ry="2" />
<text  x="1177.20" y="111.5" ></text>
</g>
<g >
<title>mb_ctor_mbuf (28 samples, 0.10%)</title><rect x="816.4" y="165" width="1.2" height="15.0" fill="rgb(234,165,27)" rx="2" ry="2" />
<text  x="819.41" y="175.5" ></text>
</g>
<g >
<title>netisr_dispatch_src (376 samples, 1.34%)</title><rect x="72.8" y="213" width="15.8" height="15.0" fill="rgb(254,108,21)" rx="2" ry="2" />
<text  x="75.76" y="223.5" ></text>
</g>
<g >
<title>iflib_rxeof (4,542 samples, 16.21%)</title><rect x="978.5" y="277" width="191.3" height="15.0" fill="rgb(219,103,23)" rx="2" ry="2" />
<text  x="981.46" y="287.5" >iflib_rxeof</text>
</g>
<g >
<title>ether_output (375 samples, 1.34%)</title><rect x="1174.2" y="181" width="15.8" height="15.0" fill="rgb(217,80,36)" rx="2" ry="2" />
<text  x="1177.20" y="191.5" ></text>
</g>
<g >
<title>Xtimerint (24 samples, 0.09%)</title><rect x="18.7" y="277" width="1.0" height="15.0" fill="rgb(221,129,10)" rx="2" ry="2" />
<text  x="21.72" y="287.5" ></text>
</g>
<g >
<title>ether_nh_input (15,657 samples, 55.89%)</title><rect x="149.6" y="165" width="659.6" height="15.0" fill="rgb(230,55,5)" rx="2" ry="2" />
<text  x="152.64" y="175.5" >ether_nh_input</text>
</g>
<g >
<title>netisr_dispatch_src (15,447 samples, 55.14%)</title><rect x="157.3" y="133" width="650.7" height="15.0" fill="rgb(244,19,35)" rx="2" ry="2" />
<text  x="160.35" y="143.5" >netisr_dispatch_src</text>
</g>
<g >
<title>mb_dtor_mbuf (39 samples, 0.14%)</title><rect x="88.6" y="37" width="1.6" height="15.0" fill="rgb(215,77,5)" rx="2" ry="2" />
<text  x="91.60" y="47.5" ></text>
</g>
<g >
<title>fork_exit (17,983 samples, 64.20%)</title><rect x="90.2" y="277" width="757.5" height="15.0" fill="rgb(218,104,31)" rx="2" ry="2" />
<text  x="93.24" y="287.5" >fork_exit</text>
</g>
<g >
<title>iflib_completed_tx_reclaim (291 samples, 1.04%)</title><rect x="22.5" y="37" width="12.3" height="15.0" fill="rgb(208,2,21)" rx="2" ry="2" />
<text  x="25.51" y="47.5" ></text>
</g>
<g >
<title>handleevents (47 samples, 0.17%)</title><rect x="1172.2" y="245" width="2.0" height="15.0" fill="rgb(209,30,1)" rx="2" ry="2" />
<text  x="1175.22" y="255.5" ></text>
</g>
<g >
<title>gtaskqueue_run_locked (17,983 samples, 64.20%)</title><rect x="90.2" y="245" width="757.5" height="15.0" fill="rgb(228,197,9)" rx="2" ry="2" />
<text  x="93.24" y="255.5" >gtaskqueue_run_locked</text>
</g>
<g >
<title>ip_tryforward (375 samples, 1.34%)</title><rect x="1174.2" y="197" width="15.8" height="15.0" fill="rgb(245,8,33)" rx="2" ry="2" />
<text  x="1177.20" y="207.5" ></text>
</g>
<g >
<title>ixl_isc_txd_credits_update_hwb (172 samples, 0.61%)</title><rect x="978.5" y="37" width="7.2" height="15.0" fill="rgb(226,111,35)" rx="2" ry="2" />
<text  x="981.46" y="47.5" ></text>
</g>
<g >
<title>memcmp (27 samples, 0.10%)</title><rect x="808.0" y="149" width="1.2" height="15.0" fill="rgb(236,14,48)" rx="2" ry="2" />
<text  x="811.03" y="159.5" ></text>
</g>
<g >
<title>pmclog_process_callchain (32 samples, 0.11%)</title><rect x="1172.9" y="181" width="1.3" height="15.0" fill="rgb(236,215,33)" rx="2" ry="2" />
<text  x="1175.86" y="191.5" ></text>
</g>
<g >
<title>ether_output_frame (375 samples, 1.34%)</title><rect x="1174.2" y="165" width="15.8" height="15.0" fill="rgb(234,38,27)" rx="2" ry="2" />
<text  x="1177.20" y="175.5" ></text>
</g>
<g >
<title>rxd_frag_to_sd (408 samples, 1.46%)</title><rect x="830.1" y="197" width="17.2" height="15.0" fill="rgb(237,29,42)" rx="2" ry="2" />
<text  x="833.14" y="207.5" ></text>
</g>
<g >
<title>ip_input (39 samples, 0.14%)</title><rect x="88.6" y="229" width="1.6" height="15.0" fill="rgb(219,24,2)" rx="2" ry="2" />
<text  x="91.60" y="239.5" ></text>
</g>
<g >
<title>wakeup_any (901 samples, 3.22%)</title><rect x="102.1" y="197" width="38.0" height="15.0" fill="rgb(251,67,18)" rx="2" ry="2" />
<text  x="105.12" y="207.5" >wak..</text>
</g>
<g >
<title>netisr_dispatch_src (2,772 samples, 9.90%)</title><rect x="861.7" y="197" width="116.8" height="15.0" fill="rgb(207,53,44)" rx="2" ry="2" />
<text  x="864.69" y="207.5" >netisr_dispatc..</text>
</g>
<g >
<title>iflib_if_transmit (331 samples, 1.18%)</title><rect x="847.7" y="85" width="14.0" height="15.0" fill="rgb(214,35,11)" rx="2" ry="2" />
<text  x="850.75" y="95.5" ></text>
</g>
<g >
<title>netisr_dispatch_src (4,542 samples, 16.21%)</title><rect x="978.5" y="197" width="191.3" height="15.0" fill="rgb(237,126,13)" rx="2" ry="2" />
<text  x="981.46" y="207.5" >netisr_dispatch_src</text>
</g>
<g >
<title>bus_dmamap_load_mbuf_sg (323 samples, 1.15%)</title><rect x="75.0" y="53" width="13.6" height="15.0" fill="rgb(226,194,21)" rx="2" ry="2" />
<text  x="78.00" y="63.5" ></text>
</g>
<g >
<title>m_free (39 samples, 0.14%)</title><rect x="88.6" y="69" width="1.6" height="15.0" fill="rgb(250,77,53)" rx="2" ry="2" />
<text  x="91.60" y="79.5" ></text>
</g>
<g >
<title>ip_input (4,542 samples, 16.21%)</title><rect x="978.5" y="181" width="191.3" height="15.0" fill="rgb(210,12,50)" rx="2" ry="2" />
<text  x="981.46" y="191.5" >ip_input</text>
</g>
<g >
<title>grouptaskqueue_enqueue (912 samples, 3.26%)</title><rect x="101.7" y="213" width="38.4" height="15.0" fill="rgb(227,40,36)" rx="2" ry="2" />
<text  x="104.66" y="223.5" >gro..</text>
</g>
<g >
<title>m_freem (14 samples, 0.05%)</title><rect x="985.7" y="37" width="0.6" height="15.0" fill="rgb(231,46,51)" rx="2" ry="2" />
<text  x="988.70" y="47.5" ></text>
</g>
<g >
<title>Xapic_isr1 (207 samples, 0.74%)</title><rect x="10.0" y="277" width="8.7" height="15.0" fill="rgb(226,169,0)" rx="2" ry="2" />
<text  x="13.00" y="287.5" ></text>
</g>
<g >
<title>bus_dmamap_load_mbuf_sg (70 samples, 0.25%)</title><rect x="986.3" y="37" width="2.9" height="15.0" fill="rgb(226,110,52)" rx="2" ry="2" />
<text  x="989.29" y="47.5" ></text>
</g>
<g >
<title>ether_demux (1,259 samples, 4.49%)</title><rect x="19.7" y="197" width="53.1" height="15.0" fill="rgb(248,179,9)" rx="2" ry="2" />
<text  x="22.73" y="207.5" >ether..</text>
</g>
<g >
<title>ifmp_ring_enqueue (419 samples, 1.50%)</title><rect x="744.8" y="37" width="17.6" height="15.0" fill="rgb(242,96,54)" rx="2" ry="2" />
<text  x="747.76" y="47.5" ></text>
</g>
<g >
<title>iflib_encap (323 samples, 1.15%)</title><rect x="75.0" y="69" width="13.6" height="15.0" fill="rgb(217,23,6)" rx="2" ry="2" />
<text  x="78.00" y="79.5" ></text>
</g>
<g >
<title>ether_nh_input (39 samples, 0.14%)</title><rect x="88.6" y="277" width="1.6" height="15.0" fill="rgb(240,16,19)" rx="2" ry="2" />
<text  x="91.60" y="287.5" ></text>
</g>
<g >
<title>bsearch4_lookup (7 samples, 0.02%)</title><rect x="807.7" y="53" width="0.3" height="15.0" fill="rgb(222,163,34)" rx="2" ry="2" />
<text  x="810.73" y="63.5" ></text>
</g>
<g >
<title>ip_tryforward (331 samples, 1.18%)</title><rect x="847.7" y="133" width="14.0" height="15.0" fill="rgb(245,132,52)" rx="2" ry="2" />
<text  x="850.75" y="143.5" ></text>
</g>
<g >
<title>ether_input (376 samples, 1.34%)</title><rect x="72.8" y="277" width="15.8" height="15.0" fill="rgb(215,135,53)" rx="2" ry="2" />
<text  x="75.76" y="287.5" ></text>
</g>
<g >
<title>iflib_fl_refill (193 samples, 0.69%)</title><rect x="809.5" y="197" width="8.1" height="15.0" fill="rgb(229,89,37)" rx="2" ry="2" />
<text  x="812.46" y="207.5" ></text>
</g>
<g >
<title>iflib_rxeof (1,259 samples, 4.49%)</title><rect x="19.7" y="261" width="53.1" height="15.0" fill="rgb(233,208,17)" rx="2" ry="2" />
<text  x="22.73" y="271.5" >iflib..</text>
</g>
<g >
<title>ether_output (376 samples, 1.34%)</title><rect x="72.8" y="165" width="15.8" height="15.0" fill="rgb(223,85,31)" rx="2" ry="2" />
<text  x="75.76" y="175.5" ></text>
</g>
<g >
<title>if_getdrvflags (31 samples, 0.11%)</title><rect x="19.7" y="37" width="1.3" height="15.0" fill="rgb(254,164,36)" rx="2" ry="2" />
<text  x="22.73" y="47.5" ></text>
</g>
<g >
<title>ip_input (375 samples, 1.34%)</title><rect x="1174.2" y="213" width="15.8" height="15.0" fill="rgb(228,12,38)" rx="2" ry="2" />
<text  x="1177.20" y="223.5" ></text>
</g>
<g >
<title>drain_ring_lockless (39 samples, 0.14%)</title><rect x="88.6" y="133" width="1.6" height="15.0" fill="rgb(216,101,4)" rx="2" ry="2" />
<text  x="91.60" y="143.5" ></text>
</g>
<g >
<title>intr_execute_handlers (58 samples, 0.21%)</title><rect x="1169.8" y="277" width="2.4" height="15.0" fill="rgb(236,111,17)" rx="2" ry="2" />
<text  x="1172.78" y="287.5" ></text>
</g>
<g >
<title>bus_dmamap_load_mbuf_sg (12 samples, 0.04%)</title><rect x="1189.5" y="69" width="0.5" height="15.0" fill="rgb(208,1,43)" rx="2" ry="2" />
<text  x="1192.49" y="79.5" ></text>
</g>
<g >
<title>iflib_rxeof (331 samples, 1.18%)</title><rect x="847.7" y="245" width="14.0" height="15.0" fill="rgb(208,37,25)" rx="2" ry="2" />
<text  x="850.75" y="255.5" ></text>
</g>
<g >
<title>ether_input (2,772 samples, 9.90%)</title><rect x="861.7" y="213" width="116.8" height="15.0" fill="rgb(252,22,50)" rx="2" ry="2" />
<text  x="864.69" y="223.5" >ether_input</text>
</g>
<g >
<title>m_free (363 samples, 1.30%)</title><rect x="1174.2" y="53" width="15.3" height="15.0" fill="rgb(233,9,47)" rx="2" ry="2" />
<text  x="1177.20" y="63.5" ></text>
</g>
<g >
<title>ip_input (1,259 samples, 4.49%)</title><rect x="19.7" y="165" width="53.1" height="15.0" fill="rgb(214,185,38)" rx="2" ry="2" />
<text  x="22.73" y="175.5" >ip_in..</text>
</g>
<g >
<title>ether_demux (331 samples, 1.18%)</title><rect x="847.7" y="181" width="14.0" height="15.0" fill="rgb(250,149,17)" rx="2" ry="2" />
<text  x="850.75" y="191.5" ></text>
</g>
<g >
<title>gtaskqueue_run_locked (2,772 samples, 9.90%)</title><rect x="861.7" y="261" width="116.8" height="15.0" fill="rgb(242,161,54)" rx="2" ry="2" />
<text  x="864.69" y="271.5" >gtaskqueue_run..</text>
</g>
<g >
<title>iflib_completed_tx_reclaim (363 samples, 1.30%)</title><rect x="1174.2" y="85" width="15.3" height="15.0" fill="rgb(225,53,53)" rx="2" ry="2" />
<text  x="1177.20" y="95.5" ></text>
</g>
<g >
<title>ether_demux (39 samples, 0.14%)</title><rect x="88.6" y="261" width="1.6" height="15.0" fill="rgb(218,172,12)" rx="2" ry="2" />
<text  x="91.60" y="271.5" ></text>
</g>
<g >
<title>memcpy_erms (466 samples, 1.66%)</title><rect x="762.4" y="69" width="19.6" height="15.0" fill="rgb(247,86,6)" rx="2" ry="2" />
<text  x="765.41" y="79.5" ></text>
</g>
<g >
<title>iflib_txq_drain (318 samples, 1.14%)</title><rect x="848.3" y="37" width="13.4" height="15.0" fill="rgb(252,191,51)" rx="2" ry="2" />
<text  x="851.30" y="47.5" ></text>
</g>
<g >
<title>ether_output (39 samples, 0.14%)</title><rect x="88.6" y="197" width="1.6" height="15.0" fill="rgb(208,46,5)" rx="2" ry="2" />
<text  x="91.60" y="207.5" ></text>
</g>
<g >
<title>ether_nh_input (1,259 samples, 4.49%)</title><rect x="19.7" y="213" width="53.1" height="15.0" fill="rgb(239,141,4)" rx="2" ry="2" />
<text  x="22.73" y="223.5" >ether..</text>
</g>
<g >
<title>_task_fn_rx (331 samples, 1.18%)</title><rect x="847.7" y="261" width="14.0" height="15.0" fill="rgb(222,11,54)" rx="2" ry="2" />
<text  x="850.75" y="271.5" ></text>
</g>
<g >
<title>ifmp_ring_enqueue (376 samples, 1.34%)</title><rect x="72.8" y="117" width="15.8" height="15.0" fill="rgb(254,196,47)" rx="2" ry="2" />
<text  x="75.76" y="127.5" ></text>
</g>
<g >
<title>ether_output_frame (475 samples, 1.70%)</title><rect x="742.4" y="69" width="20.0" height="15.0" fill="rgb(235,8,16)" rx="2" ry="2" />
<text  x="745.40" y="79.5" ></text>
</g>
<g >
<title>ether_output_frame (1,259 samples, 4.49%)</title><rect x="19.7" y="117" width="53.1" height="15.0" fill="rgb(238,219,31)" rx="2" ry="2" />
<text  x="22.73" y="127.5" >ether..</text>
</g>
<g >
<title>ifmp_ring_enqueue (2,772 samples, 9.90%)</title><rect x="861.7" y="53" width="116.8" height="15.0" fill="rgb(223,111,14)" rx="2" ry="2" />
<text  x="864.69" y="63.5" >ifmp_ring_enqu..</text>
</g>
<g >
<title>bounce_bus_dmamap_complete (12 samples, 0.04%)</title><rect x="1189.5" y="53" width="0.5" height="15.0" fill="rgb(246,23,26)" rx="2" ry="2" />
<text  x="1192.49" y="63.5" ></text>
</g>
<g >
<title>ether_input (331 samples, 1.18%)</title><rect x="847.7" y="229" width="14.0" height="15.0" fill="rgb(246,160,42)" rx="2" ry="2" />
<text  x="850.75" y="239.5" ></text>
</g>
<g >
<title>iflib_if_transmit (39 samples, 0.14%)</title><rect x="88.6" y="165" width="1.6" height="15.0" fill="rgb(253,57,40)" rx="2" ry="2" />
<text  x="91.60" y="175.5" ></text>
</g>
<g >
<title>iflib_if_transmit (4,542 samples, 16.21%)</title><rect x="978.5" y="117" width="191.3" height="15.0" fill="rgb(205,208,34)" rx="2" ry="2" />
<text  x="981.46" y="127.5" >iflib_if_transmit</text>
</g>
<g >
<title>m_pkthdr_init (44 samples, 0.16%)</title><rect x="826.6" y="197" width="1.8" height="15.0" fill="rgb(224,23,54)" rx="2" ry="2" />
<text  x="829.56" y="207.5" ></text>
</g>
<g >
<title>drain_ring_lockless (375 samples, 1.34%)</title><rect x="1174.2" y="117" width="15.8" height="15.0" fill="rgb(233,116,4)" rx="2" ry="2" />
<text  x="1177.20" y="127.5" ></text>
</g>
<g >
<title>intr_event_handle (34 samples, 0.12%)</title><rect x="1170.8" y="261" width="1.4" height="15.0" fill="rgb(237,196,15)" rx="2" ry="2" />
<text  x="1173.79" y="271.5" ></text>
</g>
<g >
<title>ether_nh_input (331 samples, 1.18%)</title><rect x="847.7" y="197" width="14.0" height="15.0" fill="rgb(245,145,3)" rx="2" ry="2" />
<text  x="850.75" y="207.5" ></text>
</g>
<g >
<title>_task_fn_rx (1,259 samples, 4.49%)</title><rect x="19.7" y="277" width="53.1" height="15.0" fill="rgb(239,98,4)" rx="2" ry="2" />
<text  x="22.73" y="287.5" >_task..</text>
</g>
<g >
<title>iflib_rxeof (2,772 samples, 9.90%)</title><rect x="861.7" y="229" width="116.8" height="15.0" fill="rgb(250,74,16)" rx="2" ry="2" />
<text  x="864.69" y="239.5" >iflib_rxeof</text>
</g>
<g >
<title>pmc_process_samples (47 samples, 0.17%)</title><rect x="1172.2" y="197" width="2.0" height="15.0" fill="rgb(206,153,54)" rx="2" ry="2" />
<text  x="1175.22" y="207.5" ></text>
</g>
<g >
<title>in_lltable_lookup (2,644 samples, 9.44%)</title><rect x="627.1" y="53" width="111.4" height="15.0" fill="rgb(217,184,42)" rx="2" ry="2" />
<text  x="630.15" y="63.5" >in_lltable_lo..</text>
</g>
<g >
<title>bsearch4_lookup (290 samples, 1.04%)</title><rect x="789.5" y="69" width="12.2" height="15.0" fill="rgb(242,109,20)" rx="2" ry="2" />
<text  x="792.49" y="79.5" ></text>
</g>
<g >
<title>gtaskqueue_thread_loop (17,983 samples, 64.20%)</title><rect x="90.2" y="261" width="757.5" height="15.0" fill="rgb(241,17,12)" rx="2" ry="2" />
<text  x="93.24" y="271.5" >gtaskqueue_thread_loop</text>
</g>
<g >
<title>ether_nh_input (376 samples, 1.34%)</title><rect x="72.8" y="245" width="15.8" height="15.0" fill="rgb(248,224,23)" rx="2" ry="2" />
<text  x="75.76" y="255.5" ></text>
</g>
<g >
<title>uma_zfree_arg (290 samples, 1.04%)</title><rect x="1177.3" y="37" width="12.2" height="15.0" fill="rgb(228,227,35)" rx="2" ry="2" />
<text  x="1180.28" y="47.5" ></text>
</g>
<g >
<title>ip_tryforward (15,365 samples, 54.85%)</title><rect x="160.8" y="101" width="647.2" height="15.0" fill="rgb(227,182,22)" rx="2" ry="2" />
<text  x="163.80" y="111.5" >ip_tryforward</text>
</g>
<g >
<title>ip_findroute (471 samples, 1.68%)</title><rect x="788.2" y="85" width="19.8" height="15.0" fill="rgb(245,45,29)" rx="2" ry="2" />
<text  x="791.19" y="95.5" ></text>
</g>
<g >
<title>ifmp_ring_enqueue (39 samples, 0.14%)</title><rect x="88.6" y="149" width="1.6" height="15.0" fill="rgb(235,226,14)" rx="2" ry="2" />
<text  x="91.60" y="159.5" ></text>
</g>
<g >
<title>iflib_if_transmit (376 samples, 1.34%)</title><rect x="72.8" y="133" width="15.8" height="15.0" fill="rgb(226,186,54)" rx="2" ry="2" />
<text  x="75.76" y="143.5" ></text>
</g>
<g >
<title>ixl_isc_txd_encap (3,719 samples, 13.28%)</title><rect x="989.2" y="37" width="156.7" height="15.0" fill="rgb(234,89,42)" rx="2" ry="2" />
<text  x="992.24" y="47.5" >ixl_isc_txd_encap</text>
</g>
<g >
<title>ether_nh_input (375 samples, 1.34%)</title><rect x="1174.2" y="261" width="15.8" height="15.0" fill="rgb(210,228,43)" rx="2" ry="2" />
<text  x="1177.20" y="271.5" ></text>
</g>
<g >
<title>netisr_dispatch_src (375 samples, 1.34%)</title><rect x="1174.2" y="229" width="15.8" height="15.0" fill="rgb(218,19,34)" rx="2" ry="2" />
<text  x="1177.20" y="239.5" ></text>
</g>
<g >
<title>netisr_dispatch_src (15,671 samples, 55.94%)</title><rect x="149.0" y="181" width="660.2" height="15.0" fill="rgb(232,187,18)" rx="2" ry="2" />
<text  x="152.05" y="191.5" >netisr_dispatch_src</text>
</g>
<g >
<title>iflib_completed_tx_reclaim (186 samples, 0.66%)</title><rect x="978.5" y="53" width="7.8" height="15.0" fill="rgb(246,50,38)" rx="2" ry="2" />
<text  x="981.46" y="63.5" ></text>
</g>
<g >
<title>all (28,013 samples, 100%)</title><rect x="10.0" y="293" width="1180.0" height="15.0" fill="rgb(239,61,15)" rx="2" ry="2" />
<text  x="13.00" y="303.5" ></text>
</g>
<g >
<title>ether_output_frame (4,542 samples, 16.21%)</title><rect x="978.5" y="133" width="191.3" height="15.0" fill="rgb(205,76,5)" rx="2" ry="2" />
<text  x="981.46" y="143.5" >ether_output_frame</text>
</g>
<g >
<title>pmap_kextract (73 samples, 0.26%)</title><rect x="1174.2" y="37" width="3.1" height="15.0" fill="rgb(245,106,42)" rx="2" ry="2" />
<text  x="1177.20" y="47.5" ></text>
</g>
<g >
<title>netisr_dispatch_src (39 samples, 0.14%)</title><rect x="88.6" y="245" width="1.6" height="15.0" fill="rgb(206,79,30)" rx="2" ry="2" />
<text  x="91.60" y="255.5" ></text>
</g>
<g >
<title>ip_tryforward (39 samples, 0.14%)</title><rect x="88.6" y="213" width="1.6" height="15.0" fill="rgb(213,125,39)" rx="2" ry="2" />
<text  x="91.60" y="223.5" ></text>
</g>
<g >
<title>_task_fn_rx (2,772 samples, 9.90%)</title><rect x="861.7" y="245" width="116.8" height="15.0" fill="rgb(236,13,24)" rx="2" ry="2" />
<text  x="864.69" y="255.5" >_task_fn_rx</text>
</g>
<g >
<title>lapic_handle_timer (47 samples, 0.17%)</title><rect x="1172.2" y="277" width="2.0" height="15.0" fill="rgb(239,19,49)" rx="2" ry="2" />
<text  x="1175.22" y="287.5" ></text>
</g>
<g >
<title>iflib_if_transmit (2,772 samples, 9.90%)</title><rect x="861.7" y="69" width="116.8" height="15.0" fill="rgb(237,55,20)" rx="2" ry="2" />
<text  x="864.69" y="79.5" >iflib_if_trans..</text>
</g>
<g >
<title>iflib_txd_db_check (388 samples, 1.39%)</title><rect x="56.4" y="37" width="16.4" height="15.0" fill="rgb(251,122,12)" rx="2" ry="2" />
<text  x="59.42" y="47.5" ></text>
</g>
<g >
<title>ip_input (376 samples, 1.34%)</title><rect x="72.8" y="197" width="15.8" height="15.0" fill="rgb(227,33,7)" rx="2" ry="2" />
<text  x="75.76" y="207.5" ></text>
</g>
<g >
<title>bounce_bus_dmamap_load_buffer (323 samples, 1.15%)</title><rect x="75.0" y="37" width="13.6" height="15.0" fill="rgb(231,19,54)" rx="2" ry="2" />
<text  x="78.00" y="47.5" ></text>
</g>
<g >
<title>sleepq_lock (901 samples, 3.22%)</title><rect x="102.1" y="181" width="38.0" height="15.0" fill="rgb(232,100,32)" rx="2" ry="2" />
<text  x="105.12" y="191.5" >sle..</text>
</g>
<g >
<title>iflib_txq_drain (39 samples, 0.14%)</title><rect x="88.6" y="117" width="1.6" height="15.0" fill="rgb(209,188,34)" rx="2" ry="2" />
<text  x="91.60" y="127.5" ></text>
</g>
<g >
<title>memmove_erms (92 samples, 0.33%)</title><rect x="738.5" y="53" width="3.9" height="15.0" fill="rgb(209,134,16)" rx="2" ry="2" />
<text  x="741.52" y="63.5" ></text>
</g>
<g >
<title>ether_output (2,772 samples, 9.90%)</title><rect x="861.7" y="101" width="116.8" height="15.0" fill="rgb(254,188,42)" rx="2" ry="2" />
<text  x="864.69" y="111.5" >ether_output</text>
</g>
<g >
<title>drain_ring_lockless (331 samples, 1.18%)</title><rect x="847.7" y="53" width="14.0" height="15.0" fill="rgb(209,180,8)" rx="2" ry="2" />
<text  x="850.75" y="63.5" ></text>
</g>
<g >
<title>ether_bpf_mtap_if (13 samples, 0.05%)</title><rect x="847.7" y="37" width="0.6" height="15.0" fill="rgb(249,41,20)" rx="2" ry="2" />
<text  x="850.75" y="47.5" ></text>
</g>
<g >
<title>ether_nh_input (2,772 samples, 9.90%)</title><rect x="861.7" y="181" width="116.8" height="15.0" fill="rgb(228,123,53)" rx="2" ry="2" />
<text  x="864.69" y="191.5" >ether_nh_input</text>
</g>
<g >
<title>ether_demux (4,542 samples, 16.21%)</title><rect x="978.5" y="213" width="191.3" height="15.0" fill="rgb(229,210,49)" rx="2" ry="2" />
<text  x="981.46" y="223.5" >ether_demux</text>
</g>
<g >
<title>spinlock_exit (6 samples, 0.02%)</title><rect x="101.9" y="197" width="0.2" height="15.0" fill="rgb(243,173,51)" rx="2" ry="2" />
<text  x="104.87" y="207.5" ></text>
</g>
<g >
<title>memcpy_erms (41 samples, 0.15%)</title><rect x="828.4" y="197" width="1.7" height="15.0" fill="rgb(218,132,43)" rx="2" ry="2" />
<text  x="831.41" y="207.5" ></text>
</g>
<g >
<title>ether_demux (375 samples, 1.34%)</title><rect x="1174.2" y="245" width="15.8" height="15.0" fill="rgb(235,106,53)" rx="2" ry="2" />
<text  x="1177.20" y="255.5" ></text>
</g>
<g >
<title>ether_input (15,671 samples, 55.94%)</title><rect x="149.0" y="197" width="660.2" height="15.0" fill="rgb(226,163,34)" rx="2" ry="2" />
<text  x="152.05" y="207.5" >ether_input</text>
</g>
<g >
<title>ether_input (1,259 samples, 4.49%)</title><rect x="19.7" y="245" width="53.1" height="15.0" fill="rgb(239,157,9)" rx="2" ry="2" />
<text  x="22.73" y="255.5" >ether..</text>
</g>
<g >
<title>ifmp_ring_enqueue (375 samples, 1.34%)</title><rect x="1174.2" y="133" width="15.8" height="15.0" fill="rgb(243,219,8)" rx="2" ry="2" />
<text  x="1177.20" y="143.5" ></text>
</g>
<g >
<title>ether_demux (2,772 samples, 9.90%)</title><rect x="861.7" y="165" width="116.8" height="15.0" fill="rgb(213,208,35)" rx="2" ry="2" />
<text  x="864.69" y="175.5" >ether_demux</text>
</g>
<g >
<title>netisr_dispatch_src (2,772 samples, 9.90%)</title><rect x="861.7" y="149" width="116.8" height="15.0" fill="rgb(219,213,54)" rx="2" ry="2" />
<text  x="864.69" y="159.5" >netisr_dispatc..</text>
</g>
<g >
<title>ifmp_ring_enqueue (331 samples, 1.18%)</title><rect x="847.7" y="69" width="14.0" height="15.0" fill="rgb(225,121,19)" rx="2" ry="2" />
<text  x="850.75" y="79.5" ></text>
</g>
<g >
<title>drain_ring_lockless (2,772 samples, 9.90%)</title><rect x="861.7" y="37" width="116.8" height="15.0" fill="rgb(228,132,38)" rx="2" ry="2" />
<text  x="864.69" y="47.5" >drain_ring_loc..</text>
</g>
<g >
<title>ixl_isc_rxd_available (25 samples, 0.09%)</title><rect x="817.6" y="197" width="1.0" height="15.0" fill="rgb(227,202,25)" rx="2" ry="2" />
<text  x="820.59" y="207.5" ></text>
</g>
<g >
<title>iflib_encap (3,789 samples, 13.53%)</title><rect x="986.3" y="53" width="159.6" height="15.0" fill="rgb(249,163,9)" rx="2" ry="2" />
<text  x="989.29" y="63.5" >iflib_encap</text>
</g>
<g >
<title>iflib_encap (514 samples, 1.83%)</title><rect x="34.8" y="37" width="21.6" height="15.0" fill="rgb(212,223,54)" rx="2" ry="2" />
<text  x="37.77" y="47.5" >i..</text>
</g>
<g >
<title>ether_output_frame (376 samples, 1.34%)</title><rect x="72.8" y="149" width="15.8" height="15.0" fill="rgb(225,198,29)" rx="2" ry="2" />
<text  x="75.76" y="159.5" ></text>
</g>
<g >
<title>drain_ring_lockless (4,542 samples, 16.21%)</title><rect x="978.5" y="85" width="191.3" height="15.0" fill="rgb(221,134,36)" rx="2" ry="2" />
<text  x="981.46" y="95.5" >drain_ring_lockless</text>
</g>
<g >
<title>grouptaskqueue_enqueue (17 samples, 0.06%)</title><rect x="1171.5" y="229" width="0.7" height="15.0" fill="rgb(247,44,32)" rx="2" ry="2" />
<text  x="1174.47" y="239.5" ></text>
</g>
<g >
<title>ip_tryforward (1,259 samples, 4.49%)</title><rect x="19.7" y="149" width="53.1" height="15.0" fill="rgb(247,132,9)" rx="2" ry="2" />
<text  x="22.73" y="159.5" >ip_tr..</text>
</g>
<g >
<title>ether_nh_input (4,542 samples, 16.21%)</title><rect x="978.5" y="229" width="191.3" height="15.0" fill="rgb(243,68,3)" rx="2" ry="2" />
<text  x="981.46" y="239.5" >ether_nh_input</text>
</g>
<g >
<title>ifmp_ring_enqueue (4,542 samples, 16.21%)</title><rect x="978.5" y="101" width="191.3" height="15.0" fill="rgb(252,200,3)" rx="2" ry="2" />
<text  x="981.46" y="111.5" >ifmp_ring_enqueue</text>
</g>
<g >
<title>ether_demux (15,447 samples, 55.14%)</title><rect x="157.3" y="149" width="650.7" height="15.0" fill="rgb(206,56,4)" rx="2" ry="2" />
<text  x="160.35" y="159.5" >ether_demux</text>
</g>
<g >
<title>_epoch_enter_preempt (47 samples, 0.17%)</title><rect x="99.7" y="229" width="2.0" height="15.0" fill="rgb(205,26,30)" rx="2" ry="2" />
<text  x="102.68" y="239.5" ></text>
</g>
<g >
<title>arpresolve (5,289 samples, 18.88%)</title><rect x="519.6" y="69" width="222.8" height="15.0" fill="rgb(234,157,16)" rx="2" ry="2" />
<text  x="522.61" y="79.5" >arpresolve</text>
</g>
<g >
<title>iflib_txd_db_check (567 samples, 2.02%)</title><rect x="1145.9" y="53" width="23.9" height="15.0" fill="rgb(240,208,49)" rx="2" ry="2" />
<text  x="1148.90" y="63.5" >i..</text>
</g>
<g >
<title>netisr_dispatch_src (375 samples, 1.34%)</title><rect x="1174.2" y="277" width="15.8" height="15.0" fill="rgb(245,3,44)" rx="2" ry="2" />
<text  x="1177.20" y="287.5" ></text>
</g>
<g >
<title>pmc_hook_handler (47 samples, 0.17%)</title><rect x="1172.2" y="213" width="2.0" height="15.0" fill="rgb(231,178,31)" rx="2" ry="2" />
<text  x="1175.22" y="223.5" ></text>
</g>
<g >
<title>spinlock_exit (5 samples, 0.02%)</title><rect x="1171.9" y="213" width="0.2" height="15.0" fill="rgb(253,171,7)" rx="2" ry="2" />
<text  x="1174.93" y="223.5" ></text>
</g>
<g >
<title>iflib_txq_drain (376 samples, 1.34%)</title><rect x="72.8" y="85" width="15.8" height="15.0" fill="rgb(239,156,54)" rx="2" ry="2" />
<text  x="75.76" y="95.5" ></text>
</g>
</g>
</svg>
