<?xml version="1.0" standalone="no"?>
<!DOCTYPE svg PUBLIC "-//W3C//DTD SVG 1.1//EN" "http://www.w3.org/Graphics/SVG/1.1/DTD/svg11.dtd">
<svg version="1.1" width="1200" height="342" onload="init(evt)" viewBox="0 0 1200 342" xmlns="http://www.w3.org/2000/svg" xmlns:xlink="http://www.w3.org/1999/xlink">
<!-- Flame graph stack visualization. See https://github.com/brendangregg/FlameGraph for latest version, and http://www.brendangregg.com/flamegraphs.html for examples. -->
<!-- NOTES:  -->
<defs>
	<linearGradient id="background" y1="0" y2="1" x1="0" x2="0" >
		<stop stop-color="#eeeeee" offset="5%" />
		<stop stop-color="#eeeeb0" offset="95%" />
	</linearGradient>
</defs>
<style type="text/css">
	text { font-family:Verdana; font-size:12px; fill:rgb(0,0,0); }
	#search, #ignorecase { opacity:0.1; cursor:pointer; }
	#search:hover, #search.show, #ignorecase:hover, #ignorecase.show { opacity:1; }
	#subtitle { text-anchor:middle; font-color:rgb(160,160,160); }
	#title { text-anchor:middle; font-size:17px}
	#unzoom { cursor:pointer; }
	#frames > *:hover { stroke:black; stroke-width:0.5; cursor:pointer; }
	.hide { display:none; }
	.parent { opacity:0.5; }
</style>
<script type="text/ecmascript">
<![CDATA[
	"use strict";
	var details, searchbtn, unzoombtn, matchedtxt, svg, searching, currentSearchTerm, ignorecase, ignorecaseBtn;
	function init(evt) {
		details = document.getElementById("details").firstChild;
		searchbtn = document.getElementById("search");
		ignorecaseBtn = document.getElementById("ignorecase");
		unzoombtn = document.getElementById("unzoom");
		matchedtxt = document.getElementById("matched");
		svg = document.getElementsByTagName("svg")[0];
		searching = 0;
		currentSearchTerm = null;

		// use GET parameters to restore a flamegraphs state.
		var params = get_params();
		if (params.x && params.y)
			zoom(find_group(document.querySelector('[x="' + params.x + '"][y="' + params.y + '"]')));
                if (params.s) search(params.s);
	}

	// event listeners
	window.addEventListener("click", function(e) {
		var target = find_group(e.target);
		if (target) {
			if (target.nodeName == "a") {
				if (e.ctrlKey === false) return;
				e.preventDefault();
			}
			if (target.classList.contains("parent")) unzoom();
			zoom(target);
			if (!document.querySelector('.parent')) {
				clearzoom();
				return;
			}

			// set parameters for zoom state
			var el = target.querySelector("rect");
			if (el && el.attributes && el.attributes.y && el.attributes._orig_x) {
				var params = get_params()
				params.x = el.attributes._orig_x.value;
				params.y = el.attributes.y.value;
				history.replaceState(null, null, parse_params(params));
			}
		}
		else if (e.target.id == "unzoom") clearzoom();
		else if (e.target.id == "search") search_prompt();
		else if (e.target.id == "ignorecase") toggle_ignorecase();
	}, false)

	// mouse-over for info
	// show
	window.addEventListener("mouseover", function(e) {
		var target = find_group(e.target);
		if (target) details.nodeValue = "Function: " + g_to_text(target);
	}, false)

	// clear
	window.addEventListener("mouseout", function(e) {
		var target = find_group(e.target);
		if (target) details.nodeValue = ' ';
	}, false)

	// ctrl-F for search
	// ctrl-I to toggle case-sensitive search
	window.addEventListener("keydown",function (e) {
		if (e.keyCode === 114 || (e.ctrlKey && e.keyCode === 70)) {
			e.preventDefault();
			search_prompt();
		}
		else if (e.ctrlKey && e.keyCode === 73) {
			e.preventDefault();
			toggle_ignorecase();
		}
	}, false)

	// functions
	function get_params() {
		var params = {};
		var paramsarr = window.location.search.substr(1).split('&');
		for (var i = 0; i < paramsarr.length; ++i) {
			var tmp = paramsarr[i].split("=");
			if (!tmp[0] || !tmp[1]) continue;
			params[tmp[0]]  = decodeURIComponent(tmp[1]);
		}
		return params;
	}
	function parse_params(params) {
		var uri = "?";
		for (var key in params) {
			uri += key + '=' + encodeURIComponent(params[key]) + '&';
		}
		if (uri.slice(-1) == "&")
			uri = uri.substring(0, uri.length - 1);
		if (uri == '?')
			uri = window.location.href.split('?')[0];
		return uri;
	}
	function find_child(node, selector) {
		var children = node.querySelectorAll(selector);
		if (children.length) return children[0];
	}
	function find_group(node) {
		var parent = node.parentElement;
		if (!parent) return;
		if (parent.id == "frames") return node;
		return find_group(parent);
	}
	function orig_save(e, attr, val) {
		if (e.attributes["_orig_" + attr] != undefined) return;
		if (e.attributes[attr] == undefined) return;
		if (val == undefined) val = e.attributes[attr].value;
		e.setAttribute("_orig_" + attr, val);
	}
	function orig_load(e, attr) {
		if (e.attributes["_orig_"+attr] == undefined) return;
		e.attributes[attr].value = e.attributes["_orig_" + attr].value;
		e.removeAttribute("_orig_"+attr);
	}
	function g_to_text(e) {
		var text = find_child(e, "title").firstChild.nodeValue;
		return (text)
	}
	function g_to_func(e) {
		var func = g_to_text(e);
		// if there's any manipulation we want to do to the function
		// name before it's searched, do it here before returning.
		return (func);
	}
	function update_text(e) {
		var r = find_child(e, "rect");
		var t = find_child(e, "text");
		var w = parseFloat(r.attributes.width.value) -3;
		var txt = find_child(e, "title").textContent.replace(/\([^(]*\)$/,"");
		t.attributes.x.value = parseFloat(r.attributes.x.value) + 3;

		// Smaller than this size won't fit anything
		if (w < 2 * 12 * 0.59) {
			t.textContent = "";
			return;
		}

		t.textContent = txt;
		// Fit in full text width
		if (/^ *$/.test(txt) || t.getSubStringLength(0, txt.length) < w)
			return;

		for (var x = txt.length - 2; x > 0; x--) {
			if (t.getSubStringLength(0, x + 2) <= w) {
				t.textContent = txt.substring(0, x) + "..";
				return;
			}
		}
		t.textContent = "";
	}

	// zoom
	function zoom_reset(e) {
		if (e.attributes != undefined) {
			orig_load(e, "x");
			orig_load(e, "width");
		}
		if (e.childNodes == undefined) return;
		for (var i = 0, c = e.childNodes; i < c.length; i++) {
			zoom_reset(c[i]);
		}
	}
	function zoom_child(e, x, ratio) {
		if (e.attributes != undefined) {
			if (e.attributes.x != undefined) {
				orig_save(e, "x");
				e.attributes.x.value = (parseFloat(e.attributes.x.value) - x - 10) * ratio + 10;
				if (e.tagName == "text")
					e.attributes.x.value = find_child(e.parentNode, "rect[x]").attributes.x.value + 3;
			}
			if (e.attributes.width != undefined) {
				orig_save(e, "width");
				e.attributes.width.value = parseFloat(e.attributes.width.value) * ratio;
			}
		}

		if (e.childNodes == undefined) return;
		for (var i = 0, c = e.childNodes; i < c.length; i++) {
			zoom_child(c[i], x - 10, ratio);
		}
	}
	function zoom_parent(e) {
		if (e.attributes) {
			if (e.attributes.x != undefined) {
				orig_save(e, "x");
				e.attributes.x.value = 10;
			}
			if (e.attributes.width != undefined) {
				orig_save(e, "width");
				e.attributes.width.value = parseInt(svg.width.baseVal.value) - (10 * 2);
			}
		}
		if (e.childNodes == undefined) return;
		for (var i = 0, c = e.childNodes; i < c.length; i++) {
			zoom_parent(c[i]);
		}
	}
	function zoom(node) {
		var attr = find_child(node, "rect").attributes;
		var width = parseFloat(attr.width.value);
		var xmin = parseFloat(attr.x.value);
		var xmax = parseFloat(xmin + width);
		var ymin = parseFloat(attr.y.value);
		var ratio = (svg.width.baseVal.value - 2 * 10) / width;

		// XXX: Workaround for JavaScript float issues (fix me)
		var fudge = 0.0001;

		unzoombtn.classList.remove("hide");

		var el = document.getElementById("frames").children;
		for (var i = 0; i < el.length; i++) {
			var e = el[i];
			var a = find_child(e, "rect").attributes;
			var ex = parseFloat(a.x.value);
			var ew = parseFloat(a.width.value);
			var upstack;
			// Is it an ancestor
			if (0 == 0) {
				upstack = parseFloat(a.y.value) > ymin;
			} else {
				upstack = parseFloat(a.y.value) < ymin;
			}
			if (upstack) {
				// Direct ancestor
				if (ex <= xmin && (ex+ew+fudge) >= xmax) {
					e.classList.add("parent");
					zoom_parent(e);
					update_text(e);
				}
				// not in current path
				else
					e.classList.add("hide");
			}
			// Children maybe
			else {
				// no common path
				if (ex < xmin || ex + fudge >= xmax) {
					e.classList.add("hide");
				}
				else {
					zoom_child(e, xmin, ratio);
					update_text(e);
				}
			}
		}
		search();
	}
	function unzoom() {
		unzoombtn.classList.add("hide");
		var el = document.getElementById("frames").children;
		for(var i = 0; i < el.length; i++) {
			el[i].classList.remove("parent");
			el[i].classList.remove("hide");
			zoom_reset(el[i]);
			update_text(el[i]);
		}
		search();
	}
	function clearzoom() {
		unzoom();

		// remove zoom state
		var params = get_params();
		if (params.x) delete params.x;
		if (params.y) delete params.y;
		history.replaceState(null, null, parse_params(params));
	}

	// search
	function toggle_ignorecase() {
		ignorecase = !ignorecase;
		if (ignorecase) {
			ignorecaseBtn.classList.add("show");
		} else {
			ignorecaseBtn.classList.remove("show");
		}
		reset_search();
		search();
	}
	function reset_search() {
		var el = document.querySelectorAll("#frames rect");
		for (var i = 0; i < el.length; i++) {
			orig_load(el[i], "fill")
		}
		var params = get_params();
		delete params.s;
		history.replaceState(null, null, parse_params(params));
	}
	function search_prompt() {
		if (!searching) {
			var term = prompt("Enter a search term (regexp " +
			    "allowed, eg: ^ext4_)"
			    + (ignorecase ? ", ignoring case" : "")
			    + "\nPress Ctrl-i to toggle case sensitivity", "");
			if (term != null) search(term);
		} else {
			reset_search();
			searching = 0;
			currentSearchTerm = null;
			searchbtn.classList.remove("show");
			searchbtn.firstChild.nodeValue = "Search"
			matchedtxt.classList.add("hide");
			matchedtxt.firstChild.nodeValue = ""
		}
	}
	function search(term) {
		if (term) currentSearchTerm = term;

		var re = new RegExp(currentSearchTerm, ignorecase ? 'i' : '');
		var el = document.getElementById("frames").children;
		var matches = new Object();
		var maxwidth = 0;
		for (var i = 0; i < el.length; i++) {
			var e = el[i];
			var func = g_to_func(e);
			var rect = find_child(e, "rect");
			if (func == null || rect == null)
				continue;

			// Save max width. Only works as we have a root frame
			var w = parseFloat(rect.attributes.width.value);
			if (w > maxwidth)
				maxwidth = w;

			if (func.match(re)) {
				// highlight
				var x = parseFloat(rect.attributes.x.value);
				orig_save(rect, "fill");
				rect.attributes.fill.value = "rgb(230,0,230)";

				// remember matches
				if (matches[x] == undefined) {
					matches[x] = w;
				} else {
					if (w > matches[x]) {
						// overwrite with parent
						matches[x] = w;
					}
				}
				searching = 1;
			}
		}
		if (!searching)
			return;
		var params = get_params();
		params.s = currentSearchTerm;
		history.replaceState(null, null, parse_params(params));

		searchbtn.classList.add("show");
		searchbtn.firstChild.nodeValue = "Reset Search";

		// calculate percent matched, excluding vertical overlap
		var count = 0;
		var lastx = -1;
		var lastw = 0;
		var keys = Array();
		for (k in matches) {
			if (matches.hasOwnProperty(k))
				keys.push(k);
		}
		// sort the matched frames by their x location
		// ascending, then width descending
		keys.sort(function(a, b){
			return a - b;
		});
		// Step through frames saving only the biggest bottom-up frames
		// thanks to the sort order. This relies on the tree property
		// where children are always smaller than their parents.
		var fudge = 0.0001;	// JavaScript floating point
		for (var k in keys) {
			var x = parseFloat(keys[k]);
			var w = matches[keys[k]];
			if (x >= lastx + lastw - fudge) {
				count += w;
				lastx = x;
				lastw = w;
			}
		}
		// display matched percent
		matchedtxt.classList.remove("hide");
		var pct = 100 * count / maxwidth;
		if (pct != 100) pct = pct.toFixed(1)
		matchedtxt.firstChild.nodeValue = "Matched: " + pct + "%";
	}
]]>
</script>
<rect x="0.0" y="0" width="1200.0" height="342.0" fill="url(#background)"  />
<text id="title" x="600.00" y="24" >Flame Graph</text>
<text id="details" x="10.00" y="325" > </text>
<text id="unzoom" x="10.00" y="24" class="hide">Reset Zoom</text>
<text id="search" x="1090.00" y="24" >Search</text>
<text id="ignorecase" x="1174.00" y="24" >ic</text>
<text id="matched" x="1090.00" y="325" > </text>
<g id="frames">
<g >
<title>uma_zfree_arg (8,360 samples, 1.20%)</title><rect x="63.1" y="133" width="14.1" height="15.0" fill="rgb(242,196,51)" rx="2" ry="2" />
<text  x="66.07" y="143.5" ></text>
</g>
<g >
<title>lapic_et_start (84 samples, 0.01%)</title><rect x="1185.9" y="229" width="0.1" height="15.0" fill="rgb(239,20,39)" rx="2" ry="2" />
<text  x="1188.89" y="239.5" ></text>
</g>
<g >
<title>in_lltable_lookup (5,487 samples, 0.78%)</title><rect x="441.2" y="69" width="9.3" height="15.0" fill="rgb(253,204,51)" rx="2" ry="2" />
<text  x="444.20" y="79.5" ></text>
</g>
<g >
<title>binuptime (91 samples, 0.01%)</title><rect x="1184.8" y="245" width="0.1" height="15.0" fill="rgb(238,127,30)" rx="2" ry="2" />
<text  x="1187.75" y="255.5" ></text>
</g>
<g >
<title>mb_dtor_mbuf (550 samples, 0.08%)</title><rect x="74.2" y="117" width="1.0" height="15.0" fill="rgb(243,75,16)" rx="2" ry="2" />
<text  x="77.24" y="127.5" ></text>
</g>
<g >
<title>lock_delay (176 samples, 0.03%)</title><rect x="1131.3" y="117" width="0.3" height="15.0" fill="rgb(237,14,15)" rx="2" ry="2" />
<text  x="1134.35" y="127.5" ></text>
</g>
<g >
<title>m_freem (28,010 samples, 4.01%)</title><rect x="29.9" y="165" width="47.3" height="15.0" fill="rgb(221,33,1)" rx="2" ry="2" />
<text  x="32.91" y="175.5" >m_fr..</text>
</g>
<g >
<title>_rm_runlock (5,551 samples, 0.79%)</title><rect x="1013.1" y="53" width="9.4" height="15.0" fill="rgb(230,173,32)" rx="2" ry="2" />
<text  x="1016.13" y="63.5" ></text>
</g>
<g >
<title>timercb (845 samples, 0.12%)</title><rect x="1184.7" y="261" width="1.4" height="15.0" fill="rgb(207,95,53)" rx="2" ry="2" />
<text  x="1187.72" y="271.5" ></text>
</g>
<g >
<title>ether_demux (18,129 samples, 2.59%)</title><rect x="1153.9" y="181" width="30.6" height="15.0" fill="rgb(229,113,46)" rx="2" ry="2" />
<text  x="1156.89" y="191.5" >et..</text>
</g>
<g >
<title>hardclock (517 samples, 0.07%)</title><rect x="1185.0" y="229" width="0.9" height="15.0" fill="rgb(209,43,34)" rx="2" ry="2" />
<text  x="1188.02" y="239.5" ></text>
</g>
<g >
<title>ffs_write (126 samples, 0.02%)</title><rect x="1133.6" y="197" width="0.2" height="15.0" fill="rgb(246,141,45)" rx="2" ry="2" />
<text  x="1136.55" y="207.5" ></text>
</g>
<g >
<title>m_freem (2,305 samples, 0.33%)</title><rect x="574.1" y="53" width="3.9" height="15.0" fill="rgb(207,36,40)" rx="2" ry="2" />
<text  x="577.07" y="63.5" ></text>
</g>
<g >
<title>_epoch_enter_preempt (14,115 samples, 2.02%)</title><rect x="193.7" y="197" width="23.8" height="15.0" fill="rgb(211,87,33)" rx="2" ry="2" />
<text  x="196.69" y="207.5" >_..</text>
</g>
<g >
<title>runq_add (213 samples, 0.03%)</title><rect x="1149.9" y="197" width="0.3" height="15.0" fill="rgb(220,112,32)" rx="2" ry="2" />
<text  x="1152.85" y="207.5" ></text>
</g>
<g >
<title>pmap_activate_sw (211 samples, 0.03%)</title><rect x="83.1" y="213" width="0.4" height="15.0" fill="rgb(206,196,45)" rx="2" ry="2" />
<text  x="86.12" y="223.5" ></text>
</g>
<g >
<title>m_adj (6,995 samples, 1.00%)</title><rect x="635.9" y="37" width="11.8" height="15.0" fill="rgb(216,219,51)" rx="2" ry="2" />
<text  x="638.89" y="47.5" ></text>
</g>
<g >
<title>ip_findroute (21,568 samples, 3.08%)</title><rect x="678.9" y="101" width="36.4" height="15.0" fill="rgb(211,69,11)" rx="2" ry="2" />
<text  x="681.94" y="111.5" >ip_..</text>
</g>
<g >
<title>Xapic_isr1_pti (1,036 samples, 0.15%)</title><rect x="10.4" y="277" width="1.8" height="15.0" fill="rgb(241,134,50)" rx="2" ry="2" />
<text  x="13.44" y="287.5" ></text>
</g>
<g >
<title>tdq_add (301 samples, 0.04%)</title><rect x="1149.7" y="213" width="0.5" height="15.0" fill="rgb(206,138,1)" rx="2" ry="2" />
<text  x="1152.71" y="223.5" ></text>
</g>
<g >
<title>m_copydata (4,575 samples, 0.65%)</title><rect x="1176.8" y="53" width="7.7" height="15.0" fill="rgb(251,165,26)" rx="2" ry="2" />
<text  x="1179.76" y="63.5" ></text>
</g>
<g >
<title>ip_tryforward (18,129 samples, 2.59%)</title><rect x="1153.9" y="133" width="30.6" height="15.0" fill="rgb(211,145,39)" rx="2" ry="2" />
<text  x="1156.89" y="143.5" >ip..</text>
</g>
<g >
<title>in_localip (7,557 samples, 1.08%)</title><rect x="666.2" y="101" width="12.7" height="15.0" fill="rgb(248,179,26)" rx="2" ry="2" />
<text  x="669.19" y="111.5" ></text>
</g>
<g >
<title>m_free (26,625 samples, 3.81%)</title><rect x="32.2" y="149" width="45.0" height="15.0" fill="rgb(221,47,37)" rx="2" ry="2" />
<text  x="35.25" y="159.5" >m_free</text>
</g>
<g >
<title>sched_rem (229 samples, 0.03%)</title><rect x="89.0" y="197" width="0.4" height="15.0" fill="rgb(229,198,21)" rx="2" ry="2" />
<text  x="92.00" y="207.5" ></text>
</g>
<g >
<title>sched_switch (3,436 samples, 0.49%)</title><rect x="84.0" y="229" width="5.8" height="15.0" fill="rgb(244,229,42)" rx="2" ry="2" />
<text  x="86.95" y="239.5" ></text>
</g>
<g >
<title>ip_tryforward (417,626 samples, 59.72%)</title><rect x="325.1" y="117" width="704.7" height="15.0" fill="rgb(251,66,0)" rx="2" ry="2" />
<text  x="328.15" y="127.5" >ip_tryforward</text>
</g>
<g >
<title>tdq_move (448 samples, 0.06%)</title><rect x="88.9" y="213" width="0.7" height="15.0" fill="rgb(237,138,22)" rx="2" ry="2" />
<text  x="91.89" y="223.5" ></text>
</g>
<g >
<title>cache_alloc (318 samples, 0.05%)</title><rect x="1057.5" y="181" width="0.6" height="15.0" fill="rgb(219,50,28)" rx="2" ry="2" />
<text  x="1060.52" y="191.5" ></text>
</g>
<g >
<title>refill_fl (576 samples, 0.08%)</title><rect x="1130.8" y="213" width="1.0" height="15.0" fill="rgb(218,82,26)" rx="2" ry="2" />
<text  x="1133.80" y="223.5" ></text>
</g>
<g >
<title>uma_zfree_arg (4,473 samples, 0.64%)</title><rect x="1153.9" y="37" width="7.5" height="15.0" fill="rgb(215,86,50)" rx="2" ry="2" />
<text  x="1156.89" y="47.5" ></text>
</g>
<g >
<title>mlx5e_tx_cq_comp (38,152 samples, 5.46%)</title><rect x="17.0" y="181" width="64.3" height="15.0" fill="rgb(210,109,1)" rx="2" ry="2" />
<text  x="19.97" y="191.5" >mlx5e_t..</text>
</g>
<g >
<title>ip_tryforward (2,283 samples, 0.33%)</title><rect x="1186.1" y="149" width="3.9" height="15.0" fill="rgb(249,70,14)" rx="2" ry="2" />
<text  x="1189.15" y="159.5" ></text>
</g>
<g >
<title>runq_remove (70 samples, 0.01%)</title><rect x="89.3" y="181" width="0.1" height="15.0" fill="rgb(231,59,7)" rx="2" ry="2" />
<text  x="92.27" y="191.5" ></text>
</g>
<g >
<title>cpu_switch (1,043 samples, 0.15%)</title><rect x="81.7" y="229" width="1.8" height="15.0" fill="rgb(247,136,5)" rx="2" ry="2" />
<text  x="84.71" y="239.5" ></text>
</g>
<g >
<title>sched_add (8,215 samples, 1.17%)</title><rect x="1136.9" y="229" width="13.8" height="15.0" fill="rgb(215,146,35)" rx="2" ry="2" />
<text  x="1139.87" y="239.5" ></text>
</g>
<g >
<title>bounce_bus_dmamap_load_buffer (9,032 samples, 1.29%)</title><rect x="1161.5" y="37" width="15.3" height="15.0" fill="rgb(209,11,27)" rx="2" ry="2" />
<text  x="1164.52" y="47.5" ></text>
</g>
<g >
<title>netisr_dispatch (506 samples, 0.07%)</title><rect x="232.1" y="197" width="0.9" height="15.0" fill="rgb(252,229,7)" rx="2" ry="2" />
<text  x="235.12" y="207.5" ></text>
</g>
<g >
<title>uma_zfree_arg (1,019 samples, 0.15%)</title><rect x="1186.1" y="53" width="1.8" height="15.0" fill="rgb(253,109,35)" rx="2" ry="2" />
<text  x="1189.15" y="63.5" ></text>
</g>
<g >
<title>fib4_lookup (19,287 samples, 2.76%)</title><rect x="682.8" y="85" width="32.5" height="15.0" fill="rgb(219,41,53)" rx="2" ry="2" />
<text  x="685.79" y="95.5" >fi..</text>
</g>
<g >
<title>handleevents (733 samples, 0.10%)</title><rect x="1184.9" y="245" width="1.2" height="15.0" fill="rgb(217,4,9)" rx="2" ry="2" />
<text  x="1187.91" y="255.5" ></text>
</g>
<g >
<title>m_free (1,528 samples, 0.22%)</title><rect x="575.4" y="37" width="2.6" height="15.0" fill="rgb(253,79,30)" rx="2" ry="2" />
<text  x="578.38" y="47.5" ></text>
</g>
<g >
<title>ether_input (505,724 samples, 72.32%)</title><rect x="180.8" y="213" width="853.4" height="15.0" fill="rgb(229,25,4)" rx="2" ry="2" />
<text  x="183.83" y="223.5" >ether_input</text>
</g>
<g >
<title>ffs_balloc_ufs2 (64 samples, 0.01%)</title><rect x="1133.6" y="181" width="0.1" height="15.0" fill="rgb(225,117,41)" rx="2" ry="2" />
<text  x="1136.61" y="191.5" ></text>
</g>
<g >
<title>mlx5e_xmit (18,129 samples, 2.59%)</title><rect x="1153.9" y="85" width="30.6" height="15.0" fill="rgb(218,16,12)" rx="2" ry="2" />
<text  x="1156.89" y="95.5" >ml..</text>
</g>
<g >
<title>mlx5_cq_completion (38,468 samples, 5.50%)</title><rect x="16.4" y="197" width="64.9" height="15.0" fill="rgb(233,201,39)" rx="2" ry="2" />
<text  x="19.44" y="207.5" >mlx5_cq..</text>
</g>
<g >
<title>sched_pickcpu (6,135 samples, 0.88%)</title><rect x="1139.2" y="213" width="10.4" height="15.0" fill="rgb(227,193,37)" rx="2" ry="2" />
<text  x="1142.24" y="223.5" ></text>
</g>
<g >
<title>cpu_search_highest (673 samples, 0.10%)</title><rect x="87.4" y="197" width="1.2" height="15.0" fill="rgb(209,175,18)" rx="2" ry="2" />
<text  x="90.44" y="207.5" ></text>
</g>
<g >
<title>pmap_kextract (651 samples, 0.09%)</title><rect x="1186.8" y="37" width="1.1" height="15.0" fill="rgb(222,110,47)" rx="2" ry="2" />
<text  x="1189.77" y="47.5" ></text>
</g>
<g >
<title>spinlock_exit (230 samples, 0.03%)</title><rect x="89.8" y="245" width="0.3" height="15.0" fill="rgb(243,204,37)" rx="2" ry="2" />
<text  x="92.76" y="255.5" ></text>
</g>
<g >
<title>choosethread (446 samples, 0.06%)</title><rect x="86.3" y="213" width="0.8" height="15.0" fill="rgb(209,107,21)" rx="2" ry="2" />
<text  x="89.30" y="223.5" ></text>
</g>
<g >
<title>ether_output_frame (2,283 samples, 0.33%)</title><rect x="1186.1" y="117" width="3.9" height="15.0" fill="rgb(219,113,11)" rx="2" ry="2" />
<text  x="1189.15" y="127.5" ></text>
</g>
<g >
<title>ether_input (18,129 samples, 2.59%)</title><rect x="1153.9" y="229" width="30.6" height="15.0" fill="rgb(222,192,40)" rx="2" ry="2" />
<text  x="1156.89" y="239.5" >et..</text>
</g>
<g >
<title>spinlock_exit (79 samples, 0.01%)</title><rect x="1150.7" y="229" width="0.2" height="15.0" fill="rgb(213,113,43)" rx="2" ry="2" />
<text  x="1153.74" y="239.5" ></text>
</g>
<g >
<title>ether_nh_input (2,283 samples, 0.33%)</title><rect x="1186.1" y="213" width="3.9" height="15.0" fill="rgb(246,208,17)" rx="2" ry="2" />
<text  x="1189.15" y="223.5" ></text>
</g>
<g >
<title>runq_choose (94 samples, 0.01%)</title><rect x="86.8" y="181" width="0.1" height="15.0" fill="rgb(236,45,26)" rx="2" ry="2" />
<text  x="89.79" y="191.5" ></text>
</g>
<g >
<title>netisr_dispatch_src (18,129 samples, 2.59%)</title><rect x="1153.9" y="165" width="30.6" height="15.0" fill="rgb(210,41,29)" rx="2" ry="2" />
<text  x="1156.89" y="175.5" >ne..</text>
</g>
<g >
<title>cache_alloc_retry (259 samples, 0.04%)</title><rect x="1131.3" y="197" width="0.4" height="15.0" fill="rgb(231,130,0)" rx="2" ry="2" />
<text  x="1134.30" y="207.5" ></text>
</g>
<g >
<title>intr_event_handle (11,218 samples, 1.60%)</title><rect x="1134.9" y="261" width="18.9" height="15.0" fill="rgb(227,177,45)" rx="2" ry="2" />
<text  x="1137.88" y="271.5" ></text>
</g>
<g >
<title>service_iq_fl (2,283 samples, 0.33%)</title><rect x="1186.1" y="261" width="3.9" height="15.0" fill="rgb(227,56,44)" rx="2" ry="2" />
<text  x="1189.15" y="271.5" ></text>
</g>
<g >
<title>Xapic_isr1 (257 samples, 0.04%)</title><rect x="10.0" y="277" width="0.4" height="15.0" fill="rgb(239,111,30)" rx="2" ry="2" />
<text  x="13.00" y="287.5" ></text>
</g>
<g >
<title>fpu_activate_sw (550 samples, 0.08%)</title><rect x="82.2" y="213" width="0.9" height="15.0" fill="rgb(230,176,40)" rx="2" ry="2" />
<text  x="85.19" y="223.5" ></text>
</g>
<g >
<title>m_freem (1,019 samples, 0.15%)</title><rect x="1186.1" y="85" width="1.8" height="15.0" fill="rgb(242,226,36)" rx="2" ry="2" />
<text  x="1189.15" y="95.5" ></text>
</g>
<g >
<title>_epoch_exit_preempt (472 samples, 0.07%)</title><rect x="180.0" y="213" width="0.8" height="15.0" fill="rgb(211,59,21)" rx="2" ry="2" />
<text  x="183.03" y="223.5" ></text>
</g>
<g >
<title>get_scatter_segment (57,026 samples, 8.15%)</title><rect x="1034.2" y="213" width="96.2" height="15.0" fill="rgb(212,89,22)" rx="2" ry="2" />
<text  x="1037.17" y="223.5" >get_scatter..</text>
</g>
<g >
<title>all (699,313 samples, 100%)</title><rect x="10.0" y="293" width="1180.0" height="15.0" fill="rgb(205,162,41)" rx="2" ry="2" />
<text  x="13.00" y="303.5" ></text>
</g>
<g >
<title>_thread_lock (260 samples, 0.04%)</title><rect x="14.6" y="245" width="0.5" height="15.0" fill="rgb(226,85,36)" rx="2" ry="2" />
<text  x="17.61" y="255.5" ></text>
</g>
<g >
<title>memmove_erms (4,575 samples, 0.65%)</title><rect x="1176.8" y="37" width="7.7" height="15.0" fill="rgb(237,167,17)" rx="2" ry="2" />
<text  x="1179.76" y="47.5" ></text>
</g>
<g >
<title>pmclog_loop (126 samples, 0.02%)</title><rect x="1133.6" y="261" width="0.2" height="15.0" fill="rgb(225,11,53)" rx="2" ry="2" />
<text  x="1136.55" y="271.5" ></text>
</g>
<g >
<title>mlx5e_xmit (114,712 samples, 16.40%)</title><rect x="467.9" y="69" width="193.6" height="15.0" fill="rgb(244,157,29)" rx="2" ry="2" />
<text  x="470.90" y="79.5" >mlx5e_xmit</text>
</g>
<g >
<title>thread_lock_flags_ (1,705 samples, 0.24%)</title><rect x="1150.9" y="229" width="2.8" height="15.0" fill="rgb(211,42,7)" rx="2" ry="2" />
<text  x="1153.87" y="239.5" ></text>
</g>
<g >
<title>pmap_kextract (1,187 samples, 0.17%)</title><rect x="75.2" y="117" width="2.0" height="15.0" fill="rgb(212,202,4)" rx="2" ry="2" />
<text  x="78.17" y="127.5" ></text>
</g>
<g >
<title>_rm_rlock (14,696 samples, 2.10%)</title><rect x="988.3" y="53" width="24.8" height="15.0" fill="rgb(245,204,51)" rx="2" ry="2" />
<text  x="991.34" y="63.5" >_..</text>
</g>
<g >
<title>sched_choose (423 samples, 0.06%)</title><rect x="86.3" y="197" width="0.8" height="15.0" fill="rgb(220,42,20)" rx="2" ry="2" />
<text  x="89.34" y="207.5" ></text>
</g>
<g >
<title>memcmp (2,332 samples, 0.33%)</title><rect x="1029.8" y="165" width="4.0" height="15.0" fill="rgb(207,109,33)" rx="2" ry="2" />
<text  x="1032.84" y="175.5" ></text>
</g>
<g >
<title>_mtx_lock_spin_cookie (1,064 samples, 0.15%)</title><rect x="1137.4" y="213" width="1.8" height="15.0" fill="rgb(246,152,13)" rx="2" ry="2" />
<text  x="1140.44" y="223.5" ></text>
</g>
<g >
<title>m_free (1,019 samples, 0.15%)</title><rect x="1186.1" y="69" width="1.8" height="15.0" fill="rgb(245,29,32)" rx="2" ry="2" />
<text  x="1189.15" y="79.5" ></text>
</g>
<g >
<title>pfil_run_hooks (186,385 samples, 26.65%)</title><rect x="715.3" y="101" width="314.5" height="15.0" fill="rgb(250,127,51)" rx="2" ry="2" />
<text  x="718.34" y="111.5" >pfil_run_hooks</text>
</g>
<g >
<title>mlx5e_xmit (2,283 samples, 0.33%)</title><rect x="1186.1" y="101" width="3.9" height="15.0" fill="rgb(243,175,9)" rx="2" ry="2" />
<text  x="1189.15" y="111.5" ></text>
</g>
<g >
<title>cache_alloc_retry (379 samples, 0.05%)</title><rect x="1057.5" y="197" width="0.6" height="15.0" fill="rgb(251,217,0)" rx="2" ry="2" />
<text  x="1060.46" y="207.5" ></text>
</g>
<g >
<title>m_copydata (3,899 samples, 0.56%)</title><rect x="647.7" y="37" width="6.6" height="15.0" fill="rgb(237,83,10)" rx="2" ry="2" />
<text  x="650.69" y="47.5" ></text>
</g>
<g >
<title>sched_idletd (439 samples, 0.06%)</title><rect x="1133.8" y="261" width="0.7" height="15.0" fill="rgb(217,130,25)" rx="2" ry="2" />
<text  x="1136.77" y="271.5" ></text>
</g>
<g >
<title>ithread_loop (664,291 samples, 94.99%)</title><rect x="12.6" y="261" width="1120.9" height="15.0" fill="rgb(254,82,37)" rx="2" ry="2" />
<text  x="15.64" y="271.5" >ithread_loop</text>
</g>
<g >
<title>mi_switch (125 samples, 0.02%)</title><rect x="1134.3" y="245" width="0.2" height="15.0" fill="rgb(224,30,52)" rx="2" ry="2" />
<text  x="1137.26" y="255.5" ></text>
</g>
<g >
<title>ether_output (2,283 samples, 0.33%)</title><rect x="1186.1" y="133" width="3.9" height="15.0" fill="rgb(243,96,30)" rx="2" ry="2" />
<text  x="1189.15" y="143.5" ></text>
</g>
<g >
<title>cpu_search_highest (73 samples, 0.01%)</title><rect x="1134.1" y="245" width="0.2" height="15.0" fill="rgb(249,67,50)" rx="2" ry="2" />
<text  x="1137.14" y="255.5" ></text>
</g>
<g >
<title>m_adj (3,573 samples, 0.51%)</title><rect x="279.8" y="149" width="6.0" height="15.0" fill="rgb(208,95,41)" rx="2" ry="2" />
<text  x="282.78" y="159.5" ></text>
</g>
<g >
<title>lock_delay (949 samples, 0.14%)</title><rect x="1137.6" y="197" width="1.6" height="15.0" fill="rgb(207,208,11)" rx="2" ry="2" />
<text  x="1140.63" y="207.5" ></text>
</g>
<g >
<title>lkpi_irq_handler (39,288 samples, 5.62%)</title><rect x="15.1" y="245" width="66.2" height="15.0" fill="rgb(221,141,2)" rx="2" ry="2" />
<text  x="18.06" y="255.5" >lkpi_ir..</text>
</g>
<g >
<title>m_tag_locate (4,347 samples, 0.62%)</title><rect x="1022.5" y="69" width="7.3" height="15.0" fill="rgb(235,52,36)" rx="2" ry="2" />
<text  x="1025.50" y="79.5" ></text>
</g>
<g >
<title>bounce_bus_dmamap_load_buffer (1,264 samples, 0.18%)</title><rect x="1187.9" y="53" width="2.1" height="15.0" fill="rgb(240,181,26)" rx="2" ry="2" />
<text  x="1190.87" y="63.5" ></text>
</g>
<g >
<title>cpu_search_lowest (5,815 samples, 0.83%)</title><rect x="1139.8" y="197" width="9.8" height="15.0" fill="rgb(252,123,28)" rx="2" ry="2" />
<text  x="1142.78" y="207.5" ></text>
</g>
<g >
<title>ipfw_check_packet (171,610 samples, 24.54%)</title><rect x="740.3" y="85" width="289.5" height="15.0" fill="rgb(209,57,35)" rx="2" ry="2" />
<text  x="743.27" y="95.5" >ipfw_check_packet</text>
</g>
<g >
<title>lock_delay (317 samples, 0.05%)</title><rect x="85.8" y="197" width="0.5" height="15.0" fill="rgb(228,223,21)" rx="2" ry="2" />
<text  x="88.76" y="207.5" ></text>
</g>
<g >
<title>thread_lock_flags_ (1,052 samples, 0.15%)</title><rect x="1131.8" y="245" width="1.7" height="15.0" fill="rgb(223,0,13)" rx="2" ry="2" />
<text  x="1134.77" y="255.5" ></text>
</g>
<g >
<title>rsb_flush (255 samples, 0.04%)</title><rect x="83.5" y="229" width="0.5" height="15.0" fill="rgb(216,53,4)" rx="2" ry="2" />
<text  x="86.52" y="239.5" ></text>
</g>
<g >
<title>memcpy_erms (2,804 samples, 0.40%)</title><rect x="661.5" y="85" width="4.7" height="15.0" fill="rgb(211,97,16)" rx="2" ry="2" />
<text  x="664.46" y="95.5" ></text>
</g>
<g >
<title>cpu_search_lowest (5,096 samples, 0.73%)</title><rect x="1141.0" y="181" width="8.6" height="15.0" fill="rgb(205,137,51)" rx="2" ry="2" />
<text  x="1143.99" y="191.5" ></text>
</g>
<g >
<title>ipfw_chk (149,496 samples, 21.38%)</title><rect x="770.2" y="69" width="252.3" height="15.0" fill="rgb(254,124,8)" rx="2" ry="2" />
<text  x="773.25" y="79.5" >ipfw_chk</text>
</g>
<g >
<title>netisr_dispatch_src (18,129 samples, 2.59%)</title><rect x="1153.9" y="213" width="30.6" height="15.0" fill="rgb(243,141,25)" rx="2" ry="2" />
<text  x="1156.89" y="223.5" >ne..</text>
</g>
<g >
<title>ip_input (18,129 samples, 2.59%)</title><rect x="1153.9" y="149" width="30.6" height="15.0" fill="rgb(243,43,31)" rx="2" ry="2" />
<text  x="1156.89" y="159.5" >ip..</text>
</g>
<g >
<title>mi_switch (4,980 samples, 0.71%)</title><rect x="81.3" y="245" width="8.5" height="15.0" fill="rgb(226,50,5)" rx="2" ry="2" />
<text  x="84.35" y="255.5" ></text>
</g>
<g >
<title>lapic_handle_timer (932 samples, 0.13%)</title><rect x="1184.6" y="277" width="1.5" height="15.0" fill="rgb(247,23,41)" rx="2" ry="2" />
<text  x="1187.57" y="287.5" ></text>
</g>
<g >
<title>arpresolve (18,145 samples, 2.59%)</title><rect x="425.1" y="85" width="30.6" height="15.0" fill="rgb(228,115,39)" rx="2" ry="2" />
<text  x="428.08" y="95.5" >ar..</text>
</g>
<g >
<title>ether_output_frame (121,944 samples, 17.44%)</title><rect x="455.7" y="85" width="205.8" height="15.0" fill="rgb(212,178,27)" rx="2" ry="2" />
<text  x="458.70" y="95.5" >ether_output_frame</text>
</g>
<g >
<title>mlx5e_sq_xmit (49,487 samples, 7.08%)</title><rect x="578.0" y="53" width="83.5" height="15.0" fill="rgb(249,4,10)" rx="2" ry="2" />
<text  x="580.96" y="63.5" >mlx5e_sq_..</text>
</g>
<g >
<title>bus_dmamap_load_mbuf_sg (9,081 samples, 1.30%)</title><rect x="1161.4" y="53" width="15.4" height="15.0" fill="rgb(214,125,53)" rx="2" ry="2" />
<text  x="1164.43" y="63.5" ></text>
</g>
<g >
<title>netisr_dispatch_src (474,818 samples, 67.90%)</title><rect x="233.0" y="197" width="801.2" height="15.0" fill="rgb(249,187,34)" rx="2" ry="2" />
<text  x="235.98" y="207.5" >netisr_dispatch_src</text>
</g>
<g >
<title>netisr_dispatch_src (440,090 samples, 62.93%)</title><rect x="287.2" y="149" width="742.6" height="15.0" fill="rgb(251,207,5)" rx="2" ry="2" />
<text  x="290.24" y="159.5" >netisr_dispatch_src</text>
</g>
<g >
<title>tscp_get_timecount_low (82 samples, 0.01%)</title><rect x="1184.8" y="229" width="0.1" height="15.0" fill="rgb(242,53,31)" rx="2" ry="2" />
<text  x="1187.77" y="239.5" ></text>
</g>
<g >
<title>intr_execute_handlers (11,407 samples, 1.63%)</title><rect x="1134.6" y="277" width="19.2" height="15.0" fill="rgb(252,122,20)" rx="2" ry="2" />
<text  x="1137.57" y="287.5" ></text>
</g>
<g >
<title>ether_output (165,717 samples, 23.70%)</title><rect x="386.6" y="101" width="279.6" height="15.0" fill="rgb(221,20,26)" rx="2" ry="2" />
<text  x="389.57" y="111.5" >ether_output</text>
</g>
<g >
<title>service_iq_fl (18,129 samples, 2.59%)</title><rect x="1153.9" y="245" width="30.6" height="15.0" fill="rgb(238,82,4)" rx="2" ry="2" />
<text  x="1156.89" y="255.5" >se..</text>
</g>
<g >
<title>thread_lock_block (64 samples, 0.01%)</title><rect x="89.6" y="213" width="0.2" height="15.0" fill="rgb(252,9,14)" rx="2" ry="2" />
<text  x="92.64" y="223.5" ></text>
</g>
<g >
<title>cpu_idle (156 samples, 0.02%)</title><rect x="1133.9" y="245" width="0.2" height="15.0" fill="rgb(219,111,12)" rx="2" ry="2" />
<text  x="1136.87" y="255.5" ></text>
</g>
<g >
<title>Xtimerint_pti (180 samples, 0.03%)</title><rect x="12.3" y="277" width="0.3" height="15.0" fill="rgb(243,69,22)" rx="2" ry="2" />
<text  x="15.26" y="287.5" ></text>
</g>
<g >
<title>_mtx_lock_spin_cookie (359 samples, 0.05%)</title><rect x="85.7" y="213" width="0.6" height="15.0" fill="rgb(247,197,15)" rx="2" ry="2" />
<text  x="88.69" y="223.5" ></text>
</g>
<g >
<title>t4_intr (617,310 samples, 88.27%)</title><rect x="90.1" y="245" width="1041.7" height="15.0" fill="rgb(208,121,0)" rx="2" ry="2" />
<text  x="93.14" y="255.5" >t4_intr</text>
</g>
<g >
<title>tdq_notify (296 samples, 0.04%)</title><rect x="1150.2" y="213" width="0.5" height="15.0" fill="rgb(254,199,48)" rx="2" ry="2" />
<text  x="1153.21" y="223.5" ></text>
</g>
<g >
<title>vn_io_fault (126 samples, 0.02%)</title><rect x="1133.6" y="245" width="0.2" height="15.0" fill="rgb(218,223,21)" rx="2" ry="2" />
<text  x="1136.55" y="255.5" ></text>
</g>
<g >
<title>pmc_hook_handler (447 samples, 0.06%)</title><rect x="1185.1" y="213" width="0.8" height="15.0" fill="rgb(217,91,0)" rx="2" ry="2" />
<text  x="1188.13" y="223.5" ></text>
</g>
<g >
<title>bsearch4_lookup (9,557 samples, 1.37%)</title><rect x="699.2" y="69" width="16.1" height="15.0" fill="rgb(248,132,18)" rx="2" ry="2" />
<text  x="702.21" y="79.5" ></text>
</g>
<g >
<title>cache_alloc (259 samples, 0.04%)</title><rect x="1131.3" y="181" width="0.4" height="15.0" fill="rgb(246,68,3)" rx="2" ry="2" />
<text  x="1134.30" y="191.5" ></text>
</g>
<g >
<title>mlx5e_get_l2_header_size (2,300 samples, 0.33%)</title><rect x="654.3" y="37" width="3.9" height="15.0" fill="rgb(240,30,48)" rx="2" ry="2" />
<text  x="657.27" y="47.5" ></text>
</g>
<g >
<title>mlx5e_sq_xmit (1,264 samples, 0.18%)</title><rect x="1187.9" y="85" width="2.1" height="15.0" fill="rgb(230,203,35)" rx="2" ry="2" />
<text  x="1190.87" y="95.5" ></text>
</g>
<g >
<title>pmc_process_samples (423 samples, 0.06%)</title><rect x="1185.2" y="197" width="0.7" height="15.0" fill="rgb(241,1,47)" rx="2" ry="2" />
<text  x="1188.17" y="207.5" ></text>
</g>
<g >
<title>cache_free (422 samples, 0.06%)</title><rect x="73.5" y="117" width="0.7" height="15.0" fill="rgb(226,163,52)" rx="2" ry="2" />
<text  x="76.53" y="127.5" ></text>
</g>
<g >
<title>ether_demux (2,283 samples, 0.33%)</title><rect x="1186.1" y="197" width="3.9" height="15.0" fill="rgb(206,21,26)" rx="2" ry="2" />
<text  x="1189.15" y="207.5" ></text>
</g>
<g >
<title>pmap_kextract (1,264 samples, 0.18%)</title><rect x="1187.9" y="37" width="2.1" height="15.0" fill="rgb(214,148,9)" rx="2" ry="2" />
<text  x="1190.87" y="47.5" ></text>
</g>
<g >
<title>mlx5_eq_int (39,144 samples, 5.60%)</title><rect x="15.3" y="213" width="66.0" height="15.0" fill="rgb(228,227,14)" rx="2" ry="2" />
<text  x="18.30" y="223.5" >mlx5_eq..</text>
</g>
<g >
<title>ip_input (431,712 samples, 61.73%)</title><rect x="301.4" y="133" width="728.4" height="15.0" fill="rgb(236,43,8)" rx="2" ry="2" />
<text  x="304.38" y="143.5" >ip_input</text>
</g>
<g >
<title>netisr_dispatch (236 samples, 0.03%)</title><rect x="1033.8" y="165" width="0.4" height="15.0" fill="rgb(251,8,23)" rx="2" ry="2" />
<text  x="1036.77" y="175.5" ></text>
</g>
<g >
<title>mb_ctor_mbuf (9,309 samples, 1.33%)</title><rect x="1114.7" y="181" width="15.7" height="15.0" fill="rgb(211,145,52)" rx="2" ry="2" />
<text  x="1117.69" y="191.5" ></text>
</g>
<g >
<title>netisr_dispatch (850 samples, 0.12%)</title><rect x="285.8" y="149" width="1.4" height="15.0" fill="rgb(236,103,22)" rx="2" ry="2" />
<text  x="288.81" y="159.5" ></text>
</g>
<g >
<title>_ck_epoch_addref (2,279 samples, 0.33%)</title><rect x="213.7" y="181" width="3.8" height="15.0" fill="rgb(240,71,20)" rx="2" ry="2" />
<text  x="216.66" y="191.5" ></text>
</g>
<g >
<title>_ck_epoch_delref (1,400 samples, 0.20%)</title><rect x="229.8" y="181" width="2.3" height="15.0" fill="rgb(238,201,51)" rx="2" ry="2" />
<text  x="232.76" y="191.5" ></text>
</g>
<g >
<title>m_pkthdr_init (4,207 samples, 0.60%)</title><rect x="1123.3" y="165" width="7.1" height="15.0" fill="rgb(253,4,40)" rx="2" ry="2" />
<text  x="1126.30" y="175.5" ></text>
</g>
<g >
<title>fork_exit (664,907 samples, 95.08%)</title><rect x="12.6" y="277" width="1122.0" height="15.0" fill="rgb(208,170,4)" rx="2" ry="2" />
<text  x="15.63" y="287.5" >fork_exit</text>
</g>
<g >
<title>keg_alloc_slab (237 samples, 0.03%)</title><rect x="1131.3" y="149" width="0.4" height="15.0" fill="rgb(254,69,41)" rx="2" ry="2" />
<text  x="1134.31" y="159.5" ></text>
</g>
<g >
<title>lock_delay (899 samples, 0.13%)</title><rect x="1132.0" y="229" width="1.5" height="15.0" fill="rgb(210,200,17)" rx="2" ry="2" />
<text  x="1134.97" y="239.5" ></text>
</g>
<g >
<title>netisr_dispatch_src (2,283 samples, 0.33%)</title><rect x="1186.1" y="181" width="3.9" height="15.0" fill="rgb(215,158,18)" rx="2" ry="2" />
<text  x="1189.15" y="191.5" ></text>
</g>
<g >
<title>ether_nh_input (467,607 samples, 66.87%)</title><rect x="245.1" y="181" width="789.1" height="15.0" fill="rgb(247,50,20)" rx="2" ry="2" />
<text  x="248.15" y="191.5" >ether_nh_input</text>
</g>
<g >
<title>ithread_loop (18,130 samples, 2.59%)</title><rect x="1153.9" y="277" width="30.6" height="15.0" fill="rgb(231,149,42)" rx="2" ry="2" />
<text  x="1156.89" y="287.5" >it..</text>
</g>
<g >
<title>mlx5e_get_cqe (2,474 samples, 0.35%)</title><rect x="77.2" y="165" width="4.1" height="15.0" fill="rgb(233,11,42)" rx="2" ry="2" />
<text  x="80.17" y="175.5" ></text>
</g>
<g >
<title>ether_demux (453,690 samples, 64.88%)</title><rect x="264.3" y="165" width="765.5" height="15.0" fill="rgb(233,65,26)" rx="2" ry="2" />
<text  x="267.30" y="175.5" >ether_demux</text>
</g>
<g >
<title>ip_input (2,283 samples, 0.33%)</title><rect x="1186.1" y="165" width="3.9" height="15.0" fill="rgb(219,59,16)" rx="2" ry="2" />
<text  x="1189.15" y="175.5" ></text>
</g>
<g >
<title>pmclog_process_callchain (77 samples, 0.01%)</title><rect x="1185.6" y="181" width="0.1" height="15.0" fill="rgb(207,98,5)" rx="2" ry="2" />
<text  x="1188.59" y="191.5" ></text>
</g>
<g >
<title>ether_output (18,129 samples, 2.59%)</title><rect x="1153.9" y="117" width="30.6" height="15.0" fill="rgb(230,147,6)" rx="2" ry="2" />
<text  x="1156.89" y="127.5" >et..</text>
</g>
<g >
<title>memmove_erms (3,106 samples, 0.44%)</title><rect x="450.5" y="69" width="5.2" height="15.0" fill="rgb(222,133,49)" rx="2" ry="2" />
<text  x="453.46" y="79.5" ></text>
</g>
<g >
<title>ether_input (2,283 samples, 0.33%)</title><rect x="1186.1" y="245" width="3.9" height="15.0" fill="rgb(236,141,45)" rx="2" ry="2" />
<text  x="1189.15" y="255.5" ></text>
</g>
<g >
<title>cpu_search_highest (902 samples, 0.13%)</title><rect x="87.1" y="213" width="1.5" height="15.0" fill="rgb(246,13,14)" rx="2" ry="2" />
<text  x="90.05" y="223.5" ></text>
</g>
<g >
<title>bounce_bus_dmamap_complete (398 samples, 0.06%)</title><rect x="624.7" y="37" width="0.7" height="15.0" fill="rgb(235,210,5)" rx="2" ry="2" />
<text  x="627.73" y="47.5" ></text>
</g>
<g >
<title>mlx5e_sq_tls_xmit (1,960 samples, 0.28%)</title><rect x="658.2" y="37" width="3.3" height="15.0" fill="rgb(226,143,3)" rx="2" ry="2" />
<text  x="661.15" y="47.5" ></text>
</g>
<g >
<title>zone_import (259 samples, 0.04%)</title><rect x="1131.3" y="165" width="0.4" height="15.0" fill="rgb(211,87,12)" rx="2" ry="2" />
<text  x="1134.30" y="175.5" ></text>
</g>
<g >
<title>bucket_alloc (131 samples, 0.02%)</title><rect x="73.6" y="101" width="0.2" height="15.0" fill="rgb(234,101,41)" rx="2" ry="2" />
<text  x="76.60" y="111.5" ></text>
</g>
<g >
<title>tdq_add (132 samples, 0.02%)</title><rect x="89.4" y="197" width="0.2" height="15.0" fill="rgb(234,59,19)" rx="2" ry="2" />
<text  x="92.39" y="207.5" ></text>
</g>
<g >
<title>bus_dmamap_load_mbuf_sg (1,264 samples, 0.18%)</title><rect x="1187.9" y="69" width="2.1" height="15.0" fill="rgb(223,39,47)" rx="2" ry="2" />
<text  x="1190.87" y="79.5" ></text>
</g>
<g >
<title>service_iq_fl (617,289 samples, 88.27%)</title><rect x="90.2" y="229" width="1041.6" height="15.0" fill="rgb(227,38,33)" rx="2" ry="2" />
<text  x="93.18" y="239.5" >service_iq_fl</text>
</g>
<g >
<title>mb_dtor_mbuf (368 samples, 0.05%)</title><rect x="1186.1" y="37" width="0.7" height="15.0" fill="rgb(237,193,51)" rx="2" ry="2" />
<text  x="1189.15" y="47.5" ></text>
</g>
<g >
<title>t4_intr (18,129 samples, 2.59%)</title><rect x="1153.9" y="261" width="30.6" height="15.0" fill="rgb(214,84,49)" rx="2" ry="2" />
<text  x="1156.89" y="271.5" >t4..</text>
</g>
<g >
<title>mlx5e_sq_xmit (13,656 samples, 1.95%)</title><rect x="1161.4" y="69" width="23.1" height="15.0" fill="rgb(230,15,4)" rx="2" ry="2" />
<text  x="1164.43" y="79.5" >m..</text>
</g>
<g >
<title>_thread_lock (513 samples, 0.07%)</title><rect x="1136.0" y="229" width="0.9" height="15.0" fill="rgb(232,193,22)" rx="2" ry="2" />
<text  x="1139.01" y="239.5" ></text>
</g>
<g >
<title>zone_put_bucket (238 samples, 0.03%)</title><rect x="73.8" y="101" width="0.4" height="15.0" fill="rgb(221,95,3)" rx="2" ry="2" />
<text  x="76.84" y="111.5" ></text>
</g>
<g >
<title>ether_output_frame (18,129 samples, 2.59%)</title><rect x="1153.9" y="101" width="30.6" height="15.0" fill="rgb(217,129,14)" rx="2" ry="2" />
<text  x="1156.89" y="111.5" >et..</text>
</g>
<g >
<title>lock_delay (1,477 samples, 0.21%)</title><rect x="1151.2" y="213" width="2.5" height="15.0" fill="rgb(216,170,22)" rx="2" ry="2" />
<text  x="1154.20" y="223.5" ></text>
</g>
<g >
<title>_epoch_enter_preempt (489 samples, 0.07%)</title><rect x="13.7" y="245" width="0.8" height="15.0" fill="rgb(225,37,32)" rx="2" ry="2" />
<text  x="16.70" y="255.5" ></text>
</g>
<g >
<title>m_freem (4,473 samples, 0.64%)</title><rect x="1153.9" y="69" width="7.5" height="15.0" fill="rgb(249,43,2)" rx="2" ry="2" />
<text  x="1156.89" y="79.5" ></text>
</g>
<g >
<title>netisr_dispatch (241 samples, 0.03%)</title><rect x="1130.4" y="213" width="0.4" height="15.0" fill="rgb(223,140,33)" rx="2" ry="2" />
<text  x="1133.40" y="223.5" ></text>
</g>
<g >
<title>intr_event_schedule_thread (10,672 samples, 1.53%)</title><rect x="1135.7" y="245" width="18.0" height="15.0" fill="rgb(235,150,4)" rx="2" ry="2" />
<text  x="1138.74" y="255.5" ></text>
</g>
<g >
<title>netisr_dispatch_src (2,283 samples, 0.33%)</title><rect x="1186.1" y="229" width="3.9" height="15.0" fill="rgb(226,70,49)" rx="2" ry="2" />
<text  x="1189.15" y="239.5" ></text>
</g>
<g >
<title>_epoch_exit_preempt (8,665 samples, 1.24%)</title><rect x="217.5" y="197" width="14.6" height="15.0" fill="rgb(232,152,12)" rx="2" ry="2" />
<text  x="220.50" y="207.5" ></text>
</g>
<g >
<title>mlx5_msix_handler (39,261 samples, 5.61%)</title><rect x="15.1" y="229" width="66.2" height="15.0" fill="rgb(224,73,48)" rx="2" ry="2" />
<text  x="18.10" y="239.5" >mlx5_ms..</text>
</g>
<g >
<title>vn_write (126 samples, 0.02%)</title><rect x="1133.6" y="229" width="0.2" height="15.0" fill="rgb(224,174,35)" rx="2" ry="2" />
<text  x="1136.55" y="239.5" ></text>
</g>
<g >
<title>t4_intr (2,283 samples, 0.33%)</title><rect x="1186.1" y="277" width="3.9" height="15.0" fill="rgb(222,119,38)" rx="2" ry="2" />
<text  x="1189.15" y="287.5" ></text>
</g>
<g >
<title>memmove_erms (22,534 samples, 3.22%)</title><rect x="1058.1" y="197" width="38.0" height="15.0" fill="rgb(206,20,32)" rx="2" ry="2" />
<text  x="1061.10" y="207.5" >mem..</text>
</g>
<g >
<title>bus_dmamap_load_mbuf_sg (6,217 samples, 0.89%)</title><rect x="625.4" y="37" width="10.5" height="15.0" fill="rgb(231,104,33)" rx="2" ry="2" />
<text  x="628.40" y="47.5" ></text>
</g>
<g >
<title>__mtx_lock_sleep (184 samples, 0.03%)</title><rect x="1131.3" y="133" width="0.3" height="15.0" fill="rgb(209,211,42)" rx="2" ry="2" />
<text  x="1134.33" y="143.5" ></text>
</g>
<g >
<title>zone_fetch_bucket (81 samples, 0.01%)</title><rect x="1057.9" y="165" width="0.2" height="15.0" fill="rgb(220,161,32)" rx="2" ry="2" />
<text  x="1060.92" y="175.5" ></text>
</g>
<g >
<title>m_free (4,473 samples, 0.64%)</title><rect x="1153.9" y="53" width="7.5" height="15.0" fill="rgb(246,224,31)" rx="2" ry="2" />
<text  x="1156.89" y="63.5" ></text>
</g>
<g >
<title>runq_add (71 samples, 0.01%)</title><rect x="89.5" y="181" width="0.1" height="15.0" fill="rgb(226,187,15)" rx="2" ry="2" />
<text  x="92.49" y="191.5" ></text>
</g>
<g >
<title>VOP_WRITE_APV (126 samples, 0.02%)</title><rect x="1133.6" y="213" width="0.2" height="15.0" fill="rgb(226,160,28)" rx="2" ry="2" />
<text  x="1136.55" y="223.5" ></text>
</g>
<g >
<title>spinlock_exit (145 samples, 0.02%)</title><rect x="88.6" y="213" width="0.3" height="15.0" fill="rgb(234,99,15)" rx="2" ry="2" />
<text  x="91.64" y="223.5" ></text>
</g>
<g >
<title>_epoch_enter_preempt (63 samples, 0.01%)</title><rect x="16.8" y="181" width="0.1" height="15.0" fill="rgb(249,155,53)" rx="2" ry="2" />
<text  x="19.80" y="191.5" ></text>
</g>
<g >
<title>ether_nh_input (18,129 samples, 2.59%)</title><rect x="1153.9" y="197" width="30.6" height="15.0" fill="rgb(207,73,45)" rx="2" ry="2" />
<text  x="1156.89" y="207.5" >et..</text>
</g>
<g >
<title>uma_zalloc_arg (20,311 samples, 2.90%)</title><rect x="1096.1" y="197" width="34.3" height="15.0" fill="rgb(238,95,36)" rx="2" ry="2" />
<text  x="1099.12" y="207.5" >um..</text>
</g>
</g>
</svg>
