<?xml version="1.0" standalone="no"?>
<!DOCTYPE svg PUBLIC "-//W3C//DTD SVG 1.1//EN" "http://www.w3.org/Graphics/SVG/1.1/DTD/svg11.dtd">
<svg version="1.1" width="1200" height="342" onload="init(evt)" viewBox="0 0 1200 342" xmlns="http://www.w3.org/2000/svg" xmlns:xlink="http://www.w3.org/1999/xlink">
<!-- Flame graph stack visualization. See https://github.com/brendangregg/FlameGraph for latest version, and http://www.brendangregg.com/flamegraphs.html for examples. -->
<!-- NOTES:  -->
<defs>
	<linearGradient id="background" y1="0" y2="1" x1="0" x2="0" >
		<stop stop-color="#eeeeee" offset="5%" />
		<stop stop-color="#eeeeb0" offset="95%" />
	</linearGradient>
</defs>
<style type="text/css">
	text { font-family:Verdana; font-size:12px; fill:rgb(0,0,0); }
	#search, #ignorecase { opacity:0.1; cursor:pointer; }
	#search:hover, #search.show, #ignorecase:hover, #ignorecase.show { opacity:1; }
	#subtitle { text-anchor:middle; font-color:rgb(160,160,160); }
	#title { text-anchor:middle; font-size:17px}
	#unzoom { cursor:pointer; }
	#frames > *:hover { stroke:black; stroke-width:0.5; cursor:pointer; }
	.hide { display:none; }
	.parent { opacity:0.5; }
</style>
<script type="text/ecmascript">
<![CDATA[
	"use strict";
	var details, searchbtn, unzoombtn, matchedtxt, svg, searching, currentSearchTerm, ignorecase, ignorecaseBtn;
	function init(evt) {
		details = document.getElementById("details").firstChild;
		searchbtn = document.getElementById("search");
		ignorecaseBtn = document.getElementById("ignorecase");
		unzoombtn = document.getElementById("unzoom");
		matchedtxt = document.getElementById("matched");
		svg = document.getElementsByTagName("svg")[0];
		searching = 0;
		currentSearchTerm = null;

		// use GET parameters to restore a flamegraphs state.
		var params = get_params();
		if (params.x && params.y)
			zoom(find_group(document.querySelector('[x="' + params.x + '"][y="' + params.y + '"]')));
                if (params.s) search(params.s);
	}

	// event listeners
	window.addEventListener("click", function(e) {
		var target = find_group(e.target);
		if (target) {
			if (target.nodeName == "a") {
				if (e.ctrlKey === false) return;
				e.preventDefault();
			}
			if (target.classList.contains("parent")) unzoom();
			zoom(target);
			if (!document.querySelector('.parent')) {
				clearzoom();
				return;
			}

			// set parameters for zoom state
			var el = target.querySelector("rect");
			if (el && el.attributes && el.attributes.y && el.attributes._orig_x) {
				var params = get_params()
				params.x = el.attributes._orig_x.value;
				params.y = el.attributes.y.value;
				history.replaceState(null, null, parse_params(params));
			}
		}
		else if (e.target.id == "unzoom") clearzoom();
		else if (e.target.id == "search") search_prompt();
		else if (e.target.id == "ignorecase") toggle_ignorecase();
	}, false)

	// mouse-over for info
	// show
	window.addEventListener("mouseover", function(e) {
		var target = find_group(e.target);
		if (target) details.nodeValue = "Function: " + g_to_text(target);
	}, false)

	// clear
	window.addEventListener("mouseout", function(e) {
		var target = find_group(e.target);
		if (target) details.nodeValue = ' ';
	}, false)

	// ctrl-F for search
	// ctrl-I to toggle case-sensitive search
	window.addEventListener("keydown",function (e) {
		if (e.keyCode === 114 || (e.ctrlKey && e.keyCode === 70)) {
			e.preventDefault();
			search_prompt();
		}
		else if (e.ctrlKey && e.keyCode === 73) {
			e.preventDefault();
			toggle_ignorecase();
		}
	}, false)

	// functions
	function get_params() {
		var params = {};
		var paramsarr = window.location.search.substr(1).split('&');
		for (var i = 0; i < paramsarr.length; ++i) {
			var tmp = paramsarr[i].split("=");
			if (!tmp[0] || !tmp[1]) continue;
			params[tmp[0]]  = decodeURIComponent(tmp[1]);
		}
		return params;
	}
	function parse_params(params) {
		var uri = "?";
		for (var key in params) {
			uri += key + '=' + encodeURIComponent(params[key]) + '&';
		}
		if (uri.slice(-1) == "&")
			uri = uri.substring(0, uri.length - 1);
		if (uri == '?')
			uri = window.location.href.split('?')[0];
		return uri;
	}
	function find_child(node, selector) {
		var children = node.querySelectorAll(selector);
		if (children.length) return children[0];
	}
	function find_group(node) {
		var parent = node.parentElement;
		if (!parent) return;
		if (parent.id == "frames") return node;
		return find_group(parent);
	}
	function orig_save(e, attr, val) {
		if (e.attributes["_orig_" + attr] != undefined) return;
		if (e.attributes[attr] == undefined) return;
		if (val == undefined) val = e.attributes[attr].value;
		e.setAttribute("_orig_" + attr, val);
	}
	function orig_load(e, attr) {
		if (e.attributes["_orig_"+attr] == undefined) return;
		e.attributes[attr].value = e.attributes["_orig_" + attr].value;
		e.removeAttribute("_orig_"+attr);
	}
	function g_to_text(e) {
		var text = find_child(e, "title").firstChild.nodeValue;
		return (text)
	}
	function g_to_func(e) {
		var func = g_to_text(e);
		// if there's any manipulation we want to do to the function
		// name before it's searched, do it here before returning.
		return (func);
	}
	function update_text(e) {
		var r = find_child(e, "rect");
		var t = find_child(e, "text");
		var w = parseFloat(r.attributes.width.value) -3;
		var txt = find_child(e, "title").textContent.replace(/\([^(]*\)$/,"");
		t.attributes.x.value = parseFloat(r.attributes.x.value) + 3;

		// Smaller than this size won't fit anything
		if (w < 2 * 12 * 0.59) {
			t.textContent = "";
			return;
		}

		t.textContent = txt;
		// Fit in full text width
		if (/^ *$/.test(txt) || t.getSubStringLength(0, txt.length) < w)
			return;

		for (var x = txt.length - 2; x > 0; x--) {
			if (t.getSubStringLength(0, x + 2) <= w) {
				t.textContent = txt.substring(0, x) + "..";
				return;
			}
		}
		t.textContent = "";
	}

	// zoom
	function zoom_reset(e) {
		if (e.attributes != undefined) {
			orig_load(e, "x");
			orig_load(e, "width");
		}
		if (e.childNodes == undefined) return;
		for (var i = 0, c = e.childNodes; i < c.length; i++) {
			zoom_reset(c[i]);
		}
	}
	function zoom_child(e, x, ratio) {
		if (e.attributes != undefined) {
			if (e.attributes.x != undefined) {
				orig_save(e, "x");
				e.attributes.x.value = (parseFloat(e.attributes.x.value) - x - 10) * ratio + 10;
				if (e.tagName == "text")
					e.attributes.x.value = find_child(e.parentNode, "rect[x]").attributes.x.value + 3;
			}
			if (e.attributes.width != undefined) {
				orig_save(e, "width");
				e.attributes.width.value = parseFloat(e.attributes.width.value) * ratio;
			}
		}

		if (e.childNodes == undefined) return;
		for (var i = 0, c = e.childNodes; i < c.length; i++) {
			zoom_child(c[i], x - 10, ratio);
		}
	}
	function zoom_parent(e) {
		if (e.attributes) {
			if (e.attributes.x != undefined) {
				orig_save(e, "x");
				e.attributes.x.value = 10;
			}
			if (e.attributes.width != undefined) {
				orig_save(e, "width");
				e.attributes.width.value = parseInt(svg.width.baseVal.value) - (10 * 2);
			}
		}
		if (e.childNodes == undefined) return;
		for (var i = 0, c = e.childNodes; i < c.length; i++) {
			zoom_parent(c[i]);
		}
	}
	function zoom(node) {
		var attr = find_child(node, "rect").attributes;
		var width = parseFloat(attr.width.value);
		var xmin = parseFloat(attr.x.value);
		var xmax = parseFloat(xmin + width);
		var ymin = parseFloat(attr.y.value);
		var ratio = (svg.width.baseVal.value - 2 * 10) / width;

		// XXX: Workaround for JavaScript float issues (fix me)
		var fudge = 0.0001;

		unzoombtn.classList.remove("hide");

		var el = document.getElementById("frames").children;
		for (var i = 0; i < el.length; i++) {
			var e = el[i];
			var a = find_child(e, "rect").attributes;
			var ex = parseFloat(a.x.value);
			var ew = parseFloat(a.width.value);
			var upstack;
			// Is it an ancestor
			if (0 == 0) {
				upstack = parseFloat(a.y.value) > ymin;
			} else {
				upstack = parseFloat(a.y.value) < ymin;
			}
			if (upstack) {
				// Direct ancestor
				if (ex <= xmin && (ex+ew+fudge) >= xmax) {
					e.classList.add("parent");
					zoom_parent(e);
					update_text(e);
				}
				// not in current path
				else
					e.classList.add("hide");
			}
			// Children maybe
			else {
				// no common path
				if (ex < xmin || ex + fudge >= xmax) {
					e.classList.add("hide");
				}
				else {
					zoom_child(e, xmin, ratio);
					update_text(e);
				}
			}
		}
		search();
	}
	function unzoom() {
		unzoombtn.classList.add("hide");
		var el = document.getElementById("frames").children;
		for(var i = 0; i < el.length; i++) {
			el[i].classList.remove("parent");
			el[i].classList.remove("hide");
			zoom_reset(el[i]);
			update_text(el[i]);
		}
		search();
	}
	function clearzoom() {
		unzoom();

		// remove zoom state
		var params = get_params();
		if (params.x) delete params.x;
		if (params.y) delete params.y;
		history.replaceState(null, null, parse_params(params));
	}

	// search
	function toggle_ignorecase() {
		ignorecase = !ignorecase;
		if (ignorecase) {
			ignorecaseBtn.classList.add("show");
		} else {
			ignorecaseBtn.classList.remove("show");
		}
		reset_search();
		search();
	}
	function reset_search() {
		var el = document.querySelectorAll("#frames rect");
		for (var i = 0; i < el.length; i++) {
			orig_load(el[i], "fill")
		}
		var params = get_params();
		delete params.s;
		history.replaceState(null, null, parse_params(params));
	}
	function search_prompt() {
		if (!searching) {
			var term = prompt("Enter a search term (regexp " +
			    "allowed, eg: ^ext4_)"
			    + (ignorecase ? ", ignoring case" : "")
			    + "\nPress Ctrl-i to toggle case sensitivity", "");
			if (term != null) search(term);
		} else {
			reset_search();
			searching = 0;
			currentSearchTerm = null;
			searchbtn.classList.remove("show");
			searchbtn.firstChild.nodeValue = "Search"
			matchedtxt.classList.add("hide");
			matchedtxt.firstChild.nodeValue = ""
		}
	}
	function search(term) {
		if (term) currentSearchTerm = term;

		var re = new RegExp(currentSearchTerm, ignorecase ? 'i' : '');
		var el = document.getElementById("frames").children;
		var matches = new Object();
		var maxwidth = 0;
		for (var i = 0; i < el.length; i++) {
			var e = el[i];
			var func = g_to_func(e);
			var rect = find_child(e, "rect");
			if (func == null || rect == null)
				continue;

			// Save max width. Only works as we have a root frame
			var w = parseFloat(rect.attributes.width.value);
			if (w > maxwidth)
				maxwidth = w;

			if (func.match(re)) {
				// highlight
				var x = parseFloat(rect.attributes.x.value);
				orig_save(rect, "fill");
				rect.attributes.fill.value = "rgb(230,0,230)";

				// remember matches
				if (matches[x] == undefined) {
					matches[x] = w;
				} else {
					if (w > matches[x]) {
						// overwrite with parent
						matches[x] = w;
					}
				}
				searching = 1;
			}
		}
		if (!searching)
			return;
		var params = get_params();
		params.s = currentSearchTerm;
		history.replaceState(null, null, parse_params(params));

		searchbtn.classList.add("show");
		searchbtn.firstChild.nodeValue = "Reset Search";

		// calculate percent matched, excluding vertical overlap
		var count = 0;
		var lastx = -1;
		var lastw = 0;
		var keys = Array();
		for (k in matches) {
			if (matches.hasOwnProperty(k))
				keys.push(k);
		}
		// sort the matched frames by their x location
		// ascending, then width descending
		keys.sort(function(a, b){
			return a - b;
		});
		// Step through frames saving only the biggest bottom-up frames
		// thanks to the sort order. This relies on the tree property
		// where children are always smaller than their parents.
		var fudge = 0.0001;	// JavaScript floating point
		for (var k in keys) {
			var x = parseFloat(keys[k]);
			var w = matches[keys[k]];
			if (x >= lastx + lastw - fudge) {
				count += w;
				lastx = x;
				lastw = w;
			}
		}
		// display matched percent
		matchedtxt.classList.remove("hide");
		var pct = 100 * count / maxwidth;
		if (pct != 100) pct = pct.toFixed(1)
		matchedtxt.firstChild.nodeValue = "Matched: " + pct + "%";
	}
]]>
</script>
<rect x="0.0" y="0" width="1200.0" height="342.0" fill="url(#background)"  />
<text id="title" x="600.00" y="24" >Flame Graph</text>
<text id="details" x="10.00" y="325" > </text>
<text id="unzoom" x="10.00" y="24" class="hide">Reset Zoom</text>
<text id="search" x="1090.00" y="24" >Search</text>
<text id="ignorecase" x="1174.00" y="24" >ic</text>
<text id="matched" x="1090.00" y="325" > </text>
<g id="frames">
<g >
<title>ether_output (2,416 samples, 0.33%)</title><rect x="1186.1" y="133" width="3.9" height="15.0" fill="rgb(209,74,18)" rx="2" ry="2" />
<text  x="1189.09" y="143.5" ></text>
</g>
<g >
<title>memmove_erms (7,606 samples, 1.04%)</title><rect x="1172.1" y="37" width="12.3" height="15.0" fill="rgb(247,36,47)" rx="2" ry="2" />
<text  x="1175.06" y="47.5" ></text>
</g>
<g >
<title>ether_nh_input (414,955 samples, 56.88%)</title><rect x="321.3" y="181" width="671.2" height="15.0" fill="rgb(205,151,31)" rx="2" ry="2" />
<text  x="324.32" y="191.5" >ether_nh_input</text>
</g>
<g >
<title>t4_intr (609,873 samples, 83.60%)</title><rect x="127.1" y="245" width="986.5" height="15.0" fill="rgb(239,75,1)" rx="2" ry="2" />
<text  x="130.11" y="255.5" >t4_intr</text>
</g>
<g >
<title>service_iq_fl (609,852 samples, 83.60%)</title><rect x="127.1" y="229" width="986.5" height="15.0" fill="rgb(227,100,34)" rx="2" ry="2" />
<text  x="130.14" y="239.5" >service_iq_fl</text>
</g>
<g >
<title>zone_fetch_bucket (116 samples, 0.02%)</title><rect x="1021.1" y="165" width="0.2" height="15.0" fill="rgb(221,108,33)" rx="2" ry="2" />
<text  x="1024.10" y="175.5" ></text>
</g>
<g >
<title>cpu_switch (1,642 samples, 0.23%)</title><rect x="114.5" y="229" width="2.7" height="15.0" fill="rgb(216,59,0)" rx="2" ry="2" />
<text  x="117.50" y="239.5" ></text>
</g>
<g >
<title>refill_fl (682 samples, 0.09%)</title><rect x="1112.5" y="213" width="1.1" height="15.0" fill="rgb(223,87,42)" rx="2" ry="2" />
<text  x="1115.50" y="223.5" ></text>
</g>
<g >
<title>cache_alloc_retry (632 samples, 0.09%)</title><rect x="1020.3" y="197" width="1.1" height="15.0" fill="rgb(242,60,54)" rx="2" ry="2" />
<text  x="1023.35" y="207.5" ></text>
</g>
<g >
<title>sched_switch (5,300 samples, 0.73%)</title><rect x="117.9" y="229" width="8.6" height="15.0" fill="rgb(250,151,19)" rx="2" ry="2" />
<text  x="120.88" y="239.5" ></text>
</g>
<g >
<title>ether_demux (398,419 samples, 54.62%)</title><rect x="343.4" y="165" width="644.5" height="15.0" fill="rgb(217,15,9)" rx="2" ry="2" />
<text  x="346.44" y="175.5" >ether_demux</text>
</g>
<g >
<title>memcpy_erms (3,557 samples, 0.49%)</title><rect x="787.7" y="85" width="5.7" height="15.0" fill="rgb(249,14,24)" rx="2" ry="2" />
<text  x="790.66" y="95.5" ></text>
</g>
<g >
<title>Xapic_isr1 (419 samples, 0.06%)</title><rect x="10.0" y="277" width="0.7" height="15.0" fill="rgb(243,27,47)" rx="2" ry="2" />
<text  x="13.00" y="287.5" ></text>
</g>
<g >
<title>mlx5e_sq_tls_xmit (2,789 samples, 0.38%)</title><rect x="783.1" y="37" width="4.6" height="15.0" fill="rgb(209,218,33)" rx="2" ry="2" />
<text  x="786.15" y="47.5" ></text>
</g>
<g >
<title>ip6_tryforward (350,265 samples, 48.01%)</title><rect x="421.3" y="117" width="566.6" height="15.0" fill="rgb(223,95,6)" rx="2" ry="2" />
<text  x="424.33" y="127.5" >ip6_tryforward</text>
</g>
<g >
<title>cpu_search_highest (983 samples, 0.13%)</title><rect x="123.1" y="197" width="1.5" height="15.0" fill="rgb(237,200,18)" rx="2" ry="2" />
<text  x="126.06" y="207.5" ></text>
</g>
<g >
<title>intr_event_handle (17,399 samples, 2.39%)</title><rect x="1117.7" y="261" width="28.1" height="15.0" fill="rgb(236,205,49)" rx="2" ry="2" />
<text  x="1120.70" y="271.5" >i..</text>
</g>
<g >
<title>ip6_tryforward (23,758 samples, 3.26%)</title><rect x="1145.9" y="133" width="38.5" height="15.0" fill="rgb(224,41,42)" rx="2" ry="2" />
<text  x="1148.93" y="143.5" >ip6..</text>
</g>
<g >
<title>bounce_bus_dmamap_complete (667 samples, 0.09%)</title><rect x="732.4" y="37" width="1.1" height="15.0" fill="rgb(235,7,23)" rx="2" ry="2" />
<text  x="735.39" y="47.5" ></text>
</g>
<g >
<title>cpu_switch (73 samples, 0.01%)</title><rect x="1116.9" y="229" width="0.1" height="15.0" fill="rgb(237,226,46)" rx="2" ry="2" />
<text  x="1119.87" y="239.5" ></text>
</g>
<g >
<title>netisr_dispatch (611 samples, 0.08%)</title><rect x="305.7" y="197" width="1.0" height="15.0" fill="rgb(208,40,41)" rx="2" ry="2" />
<text  x="308.72" y="207.5" ></text>
</g>
<g >
<title>cache_free (533 samples, 0.07%)</title><rect x="101.6" y="117" width="0.9" height="15.0" fill="rgb(217,71,52)" rx="2" ry="2" />
<text  x="104.64" y="127.5" ></text>
</g>
<g >
<title>rn_match (46,643 samples, 6.39%)</title><rect x="912.4" y="53" width="75.5" height="15.0" fill="rgb(233,68,26)" rx="2" ry="2" />
<text  x="915.45" y="63.5" >rn_match</text>
</g>
<g >
<title>_epoch_exit_preempt (83 samples, 0.01%)</title><rect x="16.6" y="245" width="0.1" height="15.0" fill="rgb(227,117,24)" rx="2" ry="2" />
<text  x="19.59" y="255.5" ></text>
</g>
<g >
<title>in6_localip (22,375 samples, 3.07%)</title><rect x="845.1" y="101" width="36.2" height="15.0" fill="rgb(239,197,11)" rx="2" ry="2" />
<text  x="848.12" y="111.5" >in6..</text>
</g>
<g >
<title>ether_nh_input (23,758 samples, 3.26%)</title><rect x="1145.9" y="197" width="38.5" height="15.0" fill="rgb(253,33,36)" rx="2" ry="2" />
<text  x="1148.93" y="207.5" >eth..</text>
</g>
<g >
<title>mi_switch (7,753 samples, 1.06%)</title><rect x="113.9" y="245" width="12.6" height="15.0" fill="rgb(218,153,26)" rx="2" ry="2" />
<text  x="116.92" y="255.5" ></text>
</g>
<g >
<title>ip6_input (370,316 samples, 50.76%)</title><rect x="388.9" y="133" width="599.0" height="15.0" fill="rgb(251,71,16)" rx="2" ry="2" />
<text  x="391.89" y="143.5" >ip6_input</text>
</g>
<g >
<title>lapic_handle_timer (961 samples, 0.13%)</title><rect x="1184.5" y="277" width="1.6" height="15.0" fill="rgb(205,167,54)" rx="2" ry="2" />
<text  x="1187.53" y="287.5" ></text>
</g>
<g >
<title>memcmp (3,004 samples, 0.41%)</title><rect x="832.4" y="53" width="4.9" height="15.0" fill="rgb(210,209,39)" rx="2" ry="2" />
<text  x="835.44" y="63.5" ></text>
</g>
<g >
<title>_mtx_lock_spin_cookie (1,726 samples, 0.24%)</title><rect x="1121.6" y="213" width="2.8" height="15.0" fill="rgb(226,160,7)" rx="2" ry="2" />
<text  x="1124.63" y="223.5" ></text>
</g>
<g >
<title>mlx5e_tx_cq_comp (57,829 samples, 7.93%)</title><rect x="20.4" y="181" width="93.5" height="15.0" fill="rgb(249,50,2)" rx="2" ry="2" />
<text  x="23.37" y="191.5" >mlx5e_tx_cq..</text>
</g>
<g >
<title>ip6_input (23,758 samples, 3.26%)</title><rect x="1145.9" y="149" width="38.5" height="15.0" fill="rgb(220,195,47)" rx="2" ry="2" />
<text  x="1148.93" y="159.5" >ip6..</text>
</g>
<g >
<title>timercb (880 samples, 0.12%)</title><rect x="1184.7" y="261" width="1.4" height="15.0" fill="rgb(240,90,33)" rx="2" ry="2" />
<text  x="1187.67" y="271.5" ></text>
</g>
<g >
<title>ip6_tryforward (2,416 samples, 0.33%)</title><rect x="1186.1" y="149" width="3.9" height="15.0" fill="rgb(254,180,15)" rx="2" ry="2" />
<text  x="1189.09" y="159.5" ></text>
</g>
<g >
<title>fpu_activate_sw (791 samples, 0.11%)</title><rect x="115.3" y="213" width="1.2" height="15.0" fill="rgb(244,207,42)" rx="2" ry="2" />
<text  x="118.25" y="223.5" ></text>
</g>
<g >
<title>tdq_add (409 samples, 0.06%)</title><rect x="1140.2" y="213" width="0.6" height="15.0" fill="rgb(225,86,45)" rx="2" ry="2" />
<text  x="1143.17" y="223.5" ></text>
</g>
<g >
<title>netisr_dispatch_src (2,416 samples, 0.33%)</title><rect x="1186.1" y="181" width="3.9" height="15.0" fill="rgb(206,121,33)" rx="2" ry="2" />
<text  x="1189.09" y="191.5" ></text>
</g>
<g >
<title>pmclog_loop (144 samples, 0.02%)</title><rect x="1115.8" y="261" width="0.3" height="15.0" fill="rgb(233,200,22)" rx="2" ry="2" />
<text  x="1118.82" y="271.5" ></text>
</g>
<g >
<title>_rm_runlock (3,606 samples, 0.49%)</title><rect x="874.9" y="85" width="5.8" height="15.0" fill="rgb(252,100,10)" rx="2" ry="2" />
<text  x="877.91" y="95.5" ></text>
</g>
<g >
<title>ithread_loop (681,359 samples, 93.40%)</title><rect x="13.7" y="261" width="1102.1" height="15.0" fill="rgb(241,45,30)" rx="2" ry="2" />
<text  x="16.70" y="271.5" >ithread_loop</text>
</g>
<g >
<title>vn_io_fault (144 samples, 0.02%)</title><rect x="1115.8" y="245" width="0.3" height="15.0" fill="rgb(244,65,42)" rx="2" ry="2" />
<text  x="1118.82" y="255.5" ></text>
</g>
<g >
<title>lkpi_irq_handler (59,671 samples, 8.18%)</title><rect x="17.4" y="245" width="96.5" height="15.0" fill="rgb(239,109,14)" rx="2" ry="2" />
<text  x="20.40" y="255.5" >lkpi_irq_ha..</text>
</g>
<g >
<title>pmclog_process_callchain (92 samples, 0.01%)</title><rect x="1185.5" y="181" width="0.2" height="15.0" fill="rgb(243,132,18)" rx="2" ry="2" />
<text  x="1188.51" y="191.5" ></text>
</g>
<g >
<title>mlx5_eq_int (59,475 samples, 8.15%)</title><rect x="17.7" y="213" width="96.2" height="15.0" fill="rgb(226,196,27)" rx="2" ry="2" />
<text  x="20.71" y="223.5" >mlx5_eq_int</text>
</g>
<g >
<title>cache_alloc (538 samples, 0.07%)</title><rect x="1020.4" y="181" width="0.9" height="15.0" fill="rgb(246,37,34)" rx="2" ry="2" />
<text  x="1023.43" y="191.5" ></text>
</g>
<g >
<title>sched_rem (355 samples, 0.05%)</title><rect x="125.3" y="197" width="0.6" height="15.0" fill="rgb(248,63,43)" rx="2" ry="2" />
<text  x="128.33" y="207.5" ></text>
</g>
<g >
<title>all (729,503 samples, 100%)</title><rect x="10.0" y="293" width="1180.0" height="15.0" fill="rgb(254,174,28)" rx="2" ry="2" />
<text  x="13.00" y="303.5" ></text>
</g>
<g >
<title>mlx5e_sq_xmit (21,203 samples, 2.91%)</title><rect x="1150.1" y="69" width="34.3" height="15.0" fill="rgb(250,24,10)" rx="2" ry="2" />
<text  x="1153.07" y="79.5" >ml..</text>
</g>
<g >
<title>cpu_search_highest (135 samples, 0.02%)</title><rect x="1116.6" y="245" width="0.2" height="15.0" fill="rgb(227,76,34)" rx="2" ry="2" />
<text  x="1119.63" y="255.5" ></text>
</g>
<g >
<title>memmove_erms (4,833 samples, 0.66%)</title><rect x="837.3" y="69" width="7.8" height="15.0" fill="rgb(225,105,29)" rx="2" ry="2" />
<text  x="840.30" y="79.5" ></text>
</g>
<g >
<title>vn_write (144 samples, 0.02%)</title><rect x="1115.8" y="229" width="0.3" height="15.0" fill="rgb(235,112,33)" rx="2" ry="2" />
<text  x="1118.82" y="239.5" ></text>
</g>
<g >
<title>ffs_balloc_ufs2 (88 samples, 0.01%)</title><rect x="1115.9" y="181" width="0.1" height="15.0" fill="rgb(222,228,19)" rx="2" ry="2" />
<text  x="1118.88" y="191.5" ></text>
</g>
<g >
<title>m_adj (11,771 samples, 1.61%)</title><rect x="748.8" y="37" width="19.1" height="15.0" fill="rgb(254,75,23)" rx="2" ry="2" />
<text  x="751.83" y="47.5" ></text>
</g>
<g >
<title>cache_alloc (304 samples, 0.04%)</title><rect x="1113.1" y="181" width="0.5" height="15.0" fill="rgb(217,205,21)" rx="2" ry="2" />
<text  x="1116.08" y="191.5" ></text>
</g>
<g >
<title>cache_alloc_retry (304 samples, 0.04%)</title><rect x="1113.1" y="197" width="0.5" height="15.0" fill="rgb(210,89,3)" rx="2" ry="2" />
<text  x="1116.08" y="207.5" ></text>
</g>
<g >
<title>netisr_dispatch_src (380,920 samples, 52.22%)</title><rect x="371.7" y="149" width="616.2" height="15.0" fill="rgb(239,52,22)" rx="2" ry="2" />
<text  x="374.74" y="159.5" >netisr_dispatch_src</text>
</g>
<g >
<title>sched_pickcpu (9,660 samples, 1.32%)</title><rect x="1124.4" y="213" width="15.7" height="15.0" fill="rgb(221,13,31)" rx="2" ry="2" />
<text  x="1127.42" y="223.5" ></text>
</g>
<g >
<title>pmap_kextract (1,804 samples, 0.25%)</title><rect x="1187.1" y="37" width="2.9" height="15.0" fill="rgb(247,81,8)" rx="2" ry="2" />
<text  x="1190.08" y="47.5" ></text>
</g>
<g >
<title>pmc_hook_handler (507 samples, 0.07%)</title><rect x="1185.0" y="213" width="0.8" height="15.0" fill="rgb(230,7,33)" rx="2" ry="2" />
<text  x="1188.02" y="223.5" ></text>
</g>
<g >
<title>_epoch_enter_preempt (798 samples, 0.11%)</title><rect x="15.3" y="245" width="1.3" height="15.0" fill="rgb(234,114,24)" rx="2" ry="2" />
<text  x="18.30" y="255.5" ></text>
</g>
<g >
<title>mlx5e_xmit (2,416 samples, 0.33%)</title><rect x="1186.1" y="101" width="3.9" height="15.0" fill="rgb(218,135,18)" rx="2" ry="2" />
<text  x="1189.09" y="111.5" ></text>
</g>
<g >
<title>ip6_findroute (65,891 samples, 9.03%)</title><rect x="881.3" y="101" width="106.6" height="15.0" fill="rgb(244,219,5)" rx="2" ry="2" />
<text  x="884.31" y="111.5" >ip6_findroute</text>
</g>
<g >
<title>runq_add (141 samples, 0.02%)</title><rect x="126.0" y="181" width="0.3" height="15.0" fill="rgb(221,115,45)" rx="2" ry="2" />
<text  x="129.04" y="191.5" ></text>
</g>
<g >
<title>lock_delay (2,089 samples, 0.29%)</title><rect x="1142.3" y="213" width="3.4" height="15.0" fill="rgb(238,227,32)" rx="2" ry="2" />
<text  x="1145.30" y="223.5" ></text>
</g>
<g >
<title>zone_import (304 samples, 0.04%)</title><rect x="1113.1" y="165" width="0.5" height="15.0" fill="rgb(235,224,11)" rx="2" ry="2" />
<text  x="1116.08" y="175.5" ></text>
</g>
<g >
<title>pmc_process_samples (489 samples, 0.07%)</title><rect x="1185.0" y="197" width="0.8" height="15.0" fill="rgb(208,145,1)" rx="2" ry="2" />
<text  x="1188.05" y="207.5" ></text>
</g>
<g >
<title>get_scatter_segment (73,849 samples, 10.12%)</title><rect x="992.5" y="213" width="119.5" height="15.0" fill="rgb(243,217,9)" rx="2" ry="2" />
<text  x="995.53" y="223.5" >get_scatter_se..</text>
</g>
<g >
<title>_ck_epoch_addref (2,748 samples, 0.38%)</title><rect x="283.6" y="181" width="4.4" height="15.0" fill="rgb(226,108,22)" rx="2" ry="2" />
<text  x="286.55" y="191.5" ></text>
</g>
<g >
<title>_ck_epoch_delref (1,745 samples, 0.24%)</title><rect x="302.9" y="181" width="2.8" height="15.0" fill="rgb(234,162,12)" rx="2" ry="2" />
<text  x="305.89" y="191.5" ></text>
</g>
<g >
<title>netisr_dispatch_src (2,416 samples, 0.33%)</title><rect x="1186.1" y="229" width="3.9" height="15.0" fill="rgb(238,134,54)" rx="2" ry="2" />
<text  x="1189.09" y="239.5" ></text>
</g>
<g >
<title>uma_zfree_arg (98 samples, 0.01%)</title><rect x="1020.9" y="165" width="0.2" height="15.0" fill="rgb(216,216,38)" rx="2" ry="2" />
<text  x="1023.95" y="175.5" ></text>
</g>
<g >
<title>tdq_move (699 samples, 0.10%)</title><rect x="125.2" y="213" width="1.1" height="15.0" fill="rgb(239,27,41)" rx="2" ry="2" />
<text  x="128.18" y="223.5" ></text>
</g>
<g >
<title>t4_intr (2,416 samples, 0.33%)</title><rect x="1186.1" y="277" width="3.9" height="15.0" fill="rgb(217,34,33)" rx="2" ry="2" />
<text  x="1189.09" y="287.5" ></text>
</g>
<g >
<title>bus_dmamap_load_mbuf_sg (13,597 samples, 1.86%)</title><rect x="1150.1" y="53" width="22.0" height="15.0" fill="rgb(215,124,50)" rx="2" ry="2" />
<text  x="1153.07" y="63.5" >b..</text>
</g>
<g >
<title>spinlock_exit (398 samples, 0.05%)</title><rect x="126.5" y="245" width="0.6" height="15.0" fill="rgb(221,54,3)" rx="2" ry="2" />
<text  x="129.47" y="255.5" ></text>
</g>
<g >
<title>Xtimerint_pti (208 samples, 0.03%)</title><rect x="13.3" y="277" width="0.3" height="15.0" fill="rgb(233,107,44)" rx="2" ry="2" />
<text  x="16.27" y="287.5" ></text>
</g>
<g >
<title>service_iq_fl (2,416 samples, 0.33%)</title><rect x="1186.1" y="261" width="3.9" height="15.0" fill="rgb(221,157,0)" rx="2" ry="2" />
<text  x="1189.09" y="271.5" ></text>
</g>
<g >
<title>hardclock (582 samples, 0.08%)</title><rect x="1184.9" y="229" width="0.9" height="15.0" fill="rgb(241,34,8)" rx="2" ry="2" />
<text  x="1187.91" y="239.5" ></text>
</g>
<g >
<title>ether_input (464,436 samples, 63.66%)</title><rect x="241.3" y="213" width="751.2" height="15.0" fill="rgb(242,131,42)" rx="2" ry="2" />
<text  x="244.29" y="223.5" >ether_input</text>
</g>
<g >
<title>intr_event_schedule_thread (16,583 samples, 2.27%)</title><rect x="1119.0" y="245" width="26.8" height="15.0" fill="rgb(207,21,54)" rx="2" ry="2" />
<text  x="1121.95" y="255.5" >i..</text>
</g>
<g >
<title>tsc_get_config (63 samples, 0.01%)</title><rect x="1185.7" y="181" width="0.1" height="15.0" fill="rgb(240,55,2)" rx="2" ry="2" />
<text  x="1188.74" y="191.5" ></text>
</g>
<g >
<title>pmap_activate_sw (385 samples, 0.05%)</title><rect x="116.5" y="213" width="0.7" height="15.0" fill="rgb(243,219,33)" rx="2" ry="2" />
<text  x="119.53" y="223.5" ></text>
</g>
<g >
<title>lock_delay (1,515 samples, 0.21%)</title><rect x="1121.9" y="197" width="2.5" height="15.0" fill="rgb(230,117,33)" rx="2" ry="2" />
<text  x="1124.94" y="207.5" ></text>
</g>
<g >
<title>m_free (2,555 samples, 0.35%)</title><rect x="1145.9" y="53" width="4.2" height="15.0" fill="rgb(246,177,27)" rx="2" ry="2" />
<text  x="1148.93" y="63.5" ></text>
</g>
<g >
<title>nd6_resolve (31,969 samples, 4.38%)</title><rect x="793.4" y="85" width="51.7" height="15.0" fill="rgb(222,17,32)" rx="2" ry="2" />
<text  x="796.41" y="95.5" >nd6_r..</text>
</g>
<g >
<title>mi_switch (139 samples, 0.02%)</title><rect x="1116.8" y="245" width="0.3" height="15.0" fill="rgb(247,179,34)" rx="2" ry="2" />
<text  x="1119.85" y="255.5" ></text>
</g>
<g >
<title>t4_intr (23,758 samples, 3.26%)</title><rect x="1145.9" y="261" width="38.5" height="15.0" fill="rgb(233,170,35)" rx="2" ry="2" />
<text  x="1148.93" y="271.5" >t4_..</text>
</g>
<g >
<title>_thread_lock (808 samples, 0.11%)</title><rect x="1119.4" y="229" width="1.3" height="15.0" fill="rgb(226,153,44)" rx="2" ry="2" />
<text  x="1122.38" y="239.5" ></text>
</g>
<g >
<title>mlx5e_get_l2_header_size (3,546 samples, 0.49%)</title><rect x="777.4" y="37" width="5.7" height="15.0" fill="rgb(244,169,10)" rx="2" ry="2" />
<text  x="780.41" y="47.5" ></text>
</g>
<g >
<title>ether_output_frame (175,851 samples, 24.11%)</title><rect x="503.2" y="85" width="284.5" height="15.0" fill="rgb(242,155,33)" rx="2" ry="2" />
<text  x="506.21" y="95.5" >ether_output_frame</text>
</g>
<g >
<title>bounce_bus_dmamap_load_buffer (13,528 samples, 1.85%)</title><rect x="1150.2" y="37" width="21.9" height="15.0" fill="rgb(247,196,11)" rx="2" ry="2" />
<text  x="1153.18" y="47.5" >b..</text>
</g>
<g >
<title>m_freem (40,907 samples, 5.61%)</title><rect x="40.5" y="165" width="66.2" height="15.0" fill="rgb(216,181,1)" rx="2" ry="2" />
<text  x="43.53" y="175.5" >m_freem</text>
</g>
<g >
<title>_thread_lock (413 samples, 0.06%)</title><rect x="16.7" y="245" width="0.7" height="15.0" fill="rgb(212,184,25)" rx="2" ry="2" />
<text  x="19.72" y="255.5" ></text>
</g>
<g >
<title>__mtx_lock_sleep (222 samples, 0.03%)</title><rect x="1113.1" y="133" width="0.4" height="15.0" fill="rgb(242,140,50)" rx="2" ry="2" />
<text  x="1116.11" y="143.5" ></text>
</g>
<g >
<title>intr_execute_handlers (17,692 samples, 2.43%)</title><rect x="1117.2" y="277" width="28.7" height="15.0" fill="rgb(205,194,27)" rx="2" ry="2" />
<text  x="1120.24" y="287.5" >in..</text>
</g>
<g >
<title>tdq_notify (445 samples, 0.06%)</title><rect x="1140.8" y="213" width="0.8" height="15.0" fill="rgb(233,62,35)" rx="2" ry="2" />
<text  x="1143.83" y="223.5" ></text>
</g>
<g >
<title>ether_output_frame (23,758 samples, 3.26%)</title><rect x="1145.9" y="101" width="38.5" height="15.0" fill="rgb(220,151,41)" rx="2" ry="2" />
<text  x="1148.93" y="111.5" >eth..</text>
</g>
<g >
<title>thread_lock_flags_ (2,463 samples, 0.34%)</title><rect x="1141.8" y="229" width="4.0" height="15.0" fill="rgb(233,12,0)" rx="2" ry="2" />
<text  x="1144.79" y="239.5" ></text>
</g>
<g >
<title>ether_output_frame (2,416 samples, 0.33%)</title><rect x="1186.1" y="117" width="3.9" height="15.0" fill="rgb(233,25,10)" rx="2" ry="2" />
<text  x="1189.09" y="127.5" ></text>
</g>
<g >
<title>cpu_search_lowest (7,947 samples, 1.09%)</title><rect x="1127.2" y="181" width="12.9" height="15.0" fill="rgb(208,205,28)" rx="2" ry="2" />
<text  x="1130.20" y="191.5" ></text>
</g>
<g >
<title>service_iq_fl (23,758 samples, 3.26%)</title><rect x="1145.9" y="245" width="38.5" height="15.0" fill="rgb(220,17,29)" rx="2" ry="2" />
<text  x="1148.93" y="255.5" >ser..</text>
</g>
<g >
<title>mlx5e_xmit (166,578 samples, 22.83%)</title><rect x="518.2" y="69" width="269.5" height="15.0" fill="rgb(253,13,13)" rx="2" ry="2" />
<text  x="521.21" y="79.5" >mlx5e_xmit</text>
</g>
<g >
<title>ether_input (2,416 samples, 0.33%)</title><rect x="1186.1" y="245" width="3.9" height="15.0" fill="rgb(224,167,5)" rx="2" ry="2" />
<text  x="1189.09" y="255.5" ></text>
</g>
<g >
<title>rsb_flush (407 samples, 0.06%)</title><rect x="117.2" y="229" width="0.7" height="15.0" fill="rgb(208,16,30)" rx="2" ry="2" />
<text  x="120.23" y="239.5" ></text>
</g>
<g >
<title>m_freem (2,555 samples, 0.35%)</title><rect x="1145.9" y="69" width="4.2" height="15.0" fill="rgb(216,0,41)" rx="2" ry="2" />
<text  x="1148.93" y="79.5" ></text>
</g>
<g >
<title>handleevents (799 samples, 0.11%)</title><rect x="1184.8" y="245" width="1.3" height="15.0" fill="rgb(248,113,54)" rx="2" ry="2" />
<text  x="1187.80" y="255.5" ></text>
</g>
<g >
<title>m_copydata (7,606 samples, 1.04%)</title><rect x="1172.1" y="53" width="12.3" height="15.0" fill="rgb(214,153,41)" rx="2" ry="2" />
<text  x="1175.06" y="63.5" ></text>
</g>
<g >
<title>_epoch_exit_preempt (468 samples, 0.06%)</title><rect x="240.5" y="213" width="0.8" height="15.0" fill="rgb(251,157,33)" rx="2" ry="2" />
<text  x="243.53" y="223.5" ></text>
</g>
<g >
<title>zone_put_bucket (329 samples, 0.05%)</title><rect x="102.0" y="101" width="0.5" height="15.0" fill="rgb(242,45,32)" rx="2" ry="2" />
<text  x="104.97" y="111.5" ></text>
</g>
<g >
<title>VOP_WRITE_APV (144 samples, 0.02%)</title><rect x="1115.8" y="213" width="0.3" height="15.0" fill="rgb(224,79,46)" rx="2" ry="2" />
<text  x="1118.82" y="223.5" ></text>
</g>
<g >
<title>mlx5_msix_handler (59,631 samples, 8.17%)</title><rect x="17.5" y="229" width="96.4" height="15.0" fill="rgb(248,216,11)" rx="2" ry="2" />
<text  x="20.46" y="239.5" >mlx5_msix_h..</text>
</g>
<g >
<title>bounce_bus_dmamap_load_buffer (1,804 samples, 0.25%)</title><rect x="1187.1" y="53" width="2.9" height="15.0" fill="rgb(223,111,10)" rx="2" ry="2" />
<text  x="1190.08" y="63.5" ></text>
</g>
<g >
<title>m_free (924 samples, 0.13%)</title><rect x="665.4" y="37" width="1.5" height="15.0" fill="rgb(224,224,30)" rx="2" ry="2" />
<text  x="668.36" y="47.5" ></text>
</g>
<g >
<title>memmove_erms (30,850 samples, 4.23%)</title><rect x="1021.4" y="197" width="49.9" height="15.0" fill="rgb(216,157,1)" rx="2" ry="2" />
<text  x="1024.37" y="207.5" >memmo..</text>
</g>
<g >
<title>lapic_handle_intr (106 samples, 0.01%)</title><rect x="1184.4" y="277" width="0.1" height="15.0" fill="rgb(240,47,49)" rx="2" ry="2" />
<text  x="1187.36" y="287.5" ></text>
</g>
<g >
<title>mb_dtor_mbuf (858 samples, 0.12%)</title><rect x="102.5" y="117" width="1.4" height="15.0" fill="rgb(211,84,46)" rx="2" ry="2" />
<text  x="105.50" y="127.5" ></text>
</g>
<g >
<title>ithread_loop (23,758 samples, 3.26%)</title><rect x="1145.9" y="277" width="38.5" height="15.0" fill="rgb(239,69,24)" rx="2" ry="2" />
<text  x="1148.93" y="287.5" >ith..</text>
</g>
<g >
<title>ether_output (23,758 samples, 3.26%)</title><rect x="1145.9" y="117" width="38.5" height="15.0" fill="rgb(222,55,14)" rx="2" ry="2" />
<text  x="1148.93" y="127.5" >eth..</text>
</g>
<g >
<title>netisr_dispatch_src (423,993 samples, 58.12%)</title><rect x="306.7" y="197" width="685.8" height="15.0" fill="rgb(234,96,5)" rx="2" ry="2" />
<text  x="309.71" y="207.5" >netisr_dispatch_src</text>
</g>
<g >
<title>thread_lock_flags_ (1,372 samples, 0.19%)</title><rect x="1113.6" y="245" width="2.2" height="15.0" fill="rgb(253,79,37)" rx="2" ry="2" />
<text  x="1116.60" y="255.5" ></text>
</g>
<g >
<title>runq_choose (147 samples, 0.02%)</title><rect x="122.1" y="181" width="0.3" height="15.0" fill="rgb(243,67,15)" rx="2" ry="2" />
<text  x="125.14" y="191.5" ></text>
</g>
<g >
<title>runq_remove (135 samples, 0.02%)</title><rect x="125.7" y="181" width="0.2" height="15.0" fill="rgb(222,224,16)" rx="2" ry="2" />
<text  x="128.69" y="191.5" ></text>
</g>
<g >
<title>m_adj (4,530 samples, 0.62%)</title><rect x="362.4" y="149" width="7.3" height="15.0" fill="rgb(207,191,5)" rx="2" ry="2" />
<text  x="365.41" y="159.5" ></text>
</g>
<g >
<title>_epoch_enter_preempt (100 samples, 0.01%)</title><rect x="20.1" y="181" width="0.2" height="15.0" fill="rgb(247,61,7)" rx="2" ry="2" />
<text  x="23.13" y="191.5" ></text>
</g>
<g >
<title>mlx5e_sq_xmit (1,804 samples, 0.25%)</title><rect x="1187.1" y="85" width="2.9" height="15.0" fill="rgb(224,167,35)" rx="2" ry="2" />
<text  x="1190.08" y="95.5" ></text>
</g>
<g >
<title>ip6_input (2,416 samples, 0.33%)</title><rect x="1186.1" y="165" width="3.9" height="15.0" fill="rgb(232,199,53)" rx="2" ry="2" />
<text  x="1189.09" y="175.5" ></text>
</g>
<g >
<title>mlx5e_get_cqe (4,464 samples, 0.61%)</title><rect x="106.7" y="165" width="7.2" height="15.0" fill="rgb(253,212,15)" rx="2" ry="2" />
<text  x="109.69" y="175.5" ></text>
</g>
<g >
<title>m_pkthdr_init (5,324 samples, 0.73%)</title><rect x="1103.4" y="165" width="8.6" height="15.0" fill="rgb(208,104,28)" rx="2" ry="2" />
<text  x="1106.37" y="175.5" ></text>
</g>
<g >
<title>pmap_kextract (1,732 samples, 0.24%)</title><rect x="103.9" y="117" width="2.8" height="15.0" fill="rgb(236,149,43)" rx="2" ry="2" />
<text  x="106.89" y="127.5" ></text>
</g>
<g >
<title>uma_zalloc_arg (25,171 samples, 3.45%)</title><rect x="1071.3" y="197" width="40.7" height="15.0" fill="rgb(205,107,2)" rx="2" ry="2" />
<text  x="1074.27" y="207.5" >uma..</text>
</g>
<g >
<title>_mtx_lock_spin_cookie (512 samples, 0.07%)</title><rect x="120.7" y="213" width="0.8" height="15.0" fill="rgb(216,11,3)" rx="2" ry="2" />
<text  x="123.70" y="223.5" ></text>
</g>
<g >
<title>cpu_search_highest (108 samples, 0.01%)</title><rect x="1116.7" y="229" width="0.1" height="15.0" fill="rgb(236,101,4)" rx="2" ry="2" />
<text  x="1119.67" y="239.5" ></text>
</g>
<g >
<title>spinlock_exit (269 samples, 0.04%)</title><rect x="124.7" y="213" width="0.5" height="15.0" fill="rgb(206,7,47)" rx="2" ry="2" />
<text  x="127.74" y="223.5" ></text>
</g>
<g >
<title>uma_zfree_arg (2,555 samples, 0.35%)</title><rect x="1145.9" y="37" width="4.2" height="15.0" fill="rgb(242,228,40)" rx="2" ry="2" />
<text  x="1148.93" y="47.5" ></text>
</g>
<g >
<title>memcmp (353 samples, 0.05%)</title><rect x="880.7" y="85" width="0.6" height="15.0" fill="rgb(211,198,15)" rx="2" ry="2" />
<text  x="883.74" y="95.5" ></text>
</g>
<g >
<title>choosethread (613 samples, 0.08%)</title><rect x="121.5" y="213" width="1.0" height="15.0" fill="rgb(226,226,32)" rx="2" ry="2" />
<text  x="124.52" y="223.5" ></text>
</g>
<g >
<title>bounce_bus_dmamap_complete (69 samples, 0.01%)</title><rect x="1150.1" y="37" width="0.1" height="15.0" fill="rgb(244,3,36)" rx="2" ry="2" />
<text  x="1153.07" y="47.5" ></text>
</g>
<g >
<title>runq_add (286 samples, 0.04%)</title><rect x="1140.4" y="197" width="0.4" height="15.0" fill="rgb(238,26,34)" rx="2" ry="2" />
<text  x="1143.37" y="207.5" ></text>
</g>
<g >
<title>bus_dmamap_load_mbuf_sg (1,804 samples, 0.25%)</title><rect x="1187.1" y="69" width="2.9" height="15.0" fill="rgb(214,160,24)" rx="2" ry="2" />
<text  x="1190.08" y="79.5" ></text>
</g>
<g >
<title>sched_choose (584 samples, 0.08%)</title><rect x="121.6" y="197" width="0.9" height="15.0" fill="rgb(223,55,2)" rx="2" ry="2" />
<text  x="124.57" y="207.5" ></text>
</g>
<g >
<title>lock_delay (459 samples, 0.06%)</title><rect x="120.8" y="197" width="0.7" height="15.0" fill="rgb(225,100,49)" rx="2" ry="2" />
<text  x="123.78" y="207.5" ></text>
</g>
<g >
<title>netisr_dispatch (1,240 samples, 0.17%)</title><rect x="369.7" y="149" width="2.0" height="15.0" fill="rgb(225,42,13)" rx="2" ry="2" />
<text  x="372.74" y="159.5" ></text>
</g>
<g >
<title>Xapic_isr1_pti (1,549 samples, 0.21%)</title><rect x="10.7" y="277" width="2.5" height="15.0" fill="rgb(222,169,5)" rx="2" ry="2" />
<text  x="13.68" y="287.5" ></text>
</g>
<g >
<title>netisr_dispatch_src (23,758 samples, 3.26%)</title><rect x="1145.9" y="213" width="38.5" height="15.0" fill="rgb(233,61,27)" rx="2" ry="2" />
<text  x="1148.93" y="223.5" >net..</text>
</g>
<g >
<title>bus_dmamap_load_mbuf_sg (9,497 samples, 1.30%)</title><rect x="733.5" y="37" width="15.3" height="15.0" fill="rgb(246,99,28)" rx="2" ry="2" />
<text  x="736.46" y="47.5" ></text>
</g>
<g >
<title>sched_add (12,921 samples, 1.77%)</title><rect x="1120.7" y="229" width="20.9" height="15.0" fill="rgb(251,224,22)" rx="2" ry="2" />
<text  x="1123.69" y="239.5" ></text>
</g>
<g >
<title>mlx5e_sq_xmit (74,685 samples, 10.24%)</title><rect x="666.9" y="53" width="120.8" height="15.0" fill="rgb(244,156,49)" rx="2" ry="2" />
<text  x="669.85" y="63.5" >mlx5e_sq_xmit</text>
</g>
<g >
<title>mlx5e_xmit (23,758 samples, 3.26%)</title><rect x="1145.9" y="85" width="38.5" height="15.0" fill="rgb(239,229,40)" rx="2" ry="2" />
<text  x="1148.93" y="95.5" >mlx..</text>
</g>
<g >
<title>m_free (38,794 samples, 5.32%)</title><rect x="43.9" y="149" width="62.8" height="15.0" fill="rgb(231,55,8)" rx="2" ry="2" />
<text  x="46.94" y="159.5" >m_free</text>
</g>
<g >
<title>thread_lock_block (91 samples, 0.01%)</title><rect x="126.3" y="213" width="0.2" height="15.0" fill="rgb(249,140,19)" rx="2" ry="2" />
<text  x="129.31" y="223.5" ></text>
</g>
<g >
<title>ether_demux (2,416 samples, 0.33%)</title><rect x="1186.1" y="197" width="3.9" height="15.0" fill="rgb(207,51,40)" rx="2" ry="2" />
<text  x="1189.09" y="207.5" ></text>
</g>
<g >
<title>cpu_idle (267 samples, 0.04%)</title><rect x="1116.2" y="245" width="0.4" height="15.0" fill="rgb(237,143,53)" rx="2" ry="2" />
<text  x="1119.20" y="255.5" ></text>
</g>
<g >
<title>ffs_write (144 samples, 0.02%)</title><rect x="1115.8" y="197" width="0.3" height="15.0" fill="rgb(246,130,30)" rx="2" ry="2" />
<text  x="1118.82" y="207.5" ></text>
</g>
<g >
<title>ether_input (23,758 samples, 3.26%)</title><rect x="1145.9" y="229" width="38.5" height="15.0" fill="rgb(210,134,17)" rx="2" ry="2" />
<text  x="1148.93" y="239.5" >eth..</text>
</g>
<g >
<title>runq_remove (78 samples, 0.01%)</title><rect x="122.4" y="181" width="0.1" height="15.0" fill="rgb(212,152,15)" rx="2" ry="2" />
<text  x="125.39" y="191.5" ></text>
</g>
<g >
<title>memcmp (2,690 samples, 0.37%)</title><rect x="987.9" y="165" width="4.3" height="15.0" fill="rgb(230,74,39)" rx="2" ry="2" />
<text  x="990.89" y="175.5" ></text>
</g>
<g >
<title>netisr_dispatch (176 samples, 0.02%)</title><rect x="992.2" y="165" width="0.3" height="15.0" fill="rgb(220,86,48)" rx="2" ry="2" />
<text  x="995.25" y="175.5" ></text>
</g>
<g >
<title>lapic_et_start (100 samples, 0.01%)</title><rect x="1185.8" y="229" width="0.2" height="15.0" fill="rgb(211,43,6)" rx="2" ry="2" />
<text  x="1188.85" y="239.5" ></text>
</g>
<g >
<title>ether_demux (23,758 samples, 3.26%)</title><rect x="1145.9" y="181" width="38.5" height="15.0" fill="rgb(248,67,8)" rx="2" ry="2" />
<text  x="1148.93" y="191.5" >eth..</text>
</g>
<g >
<title>lock_delay (1,165 samples, 0.16%)</title><rect x="1113.9" y="229" width="1.9" height="15.0" fill="rgb(243,87,30)" rx="2" ry="2" />
<text  x="1116.87" y="239.5" ></text>
</g>
<g >
<title>pmap_kextract (402 samples, 0.06%)</title><rect x="1186.4" y="37" width="0.7" height="15.0" fill="rgb(239,143,19)" rx="2" ry="2" />
<text  x="1189.43" y="47.5" ></text>
</g>
<g >
<title>_rm_rlock (8,510 samples, 1.17%)</title><rect x="861.1" y="85" width="13.8" height="15.0" fill="rgb(205,32,17)" rx="2" ry="2" />
<text  x="864.14" y="95.5" ></text>
</g>
<g >
<title>mb_ctor_mbuf (11,220 samples, 1.54%)</title><rect x="1093.8" y="181" width="18.2" height="15.0" fill="rgb(210,75,31)" rx="2" ry="2" />
<text  x="1096.84" y="191.5" ></text>
</g>
<g >
<title>m_freem (612 samples, 0.08%)</title><rect x="1186.1" y="85" width="1.0" height="15.0" fill="rgb(252,93,46)" rx="2" ry="2" />
<text  x="1189.09" y="95.5" ></text>
</g>
<g >
<title>_epoch_enter_preempt (18,453 samples, 2.53%)</title><rect x="258.1" y="197" width="29.9" height="15.0" fill="rgb(251,103,20)" rx="2" ry="2" />
<text  x="261.15" y="207.5" >_e..</text>
</g>
<g >
<title>cpu_search_lowest (9,152 samples, 1.25%)</title><rect x="1125.2" y="197" width="14.9" height="15.0" fill="rgb(220,48,47)" rx="2" ry="2" />
<text  x="1128.25" y="207.5" ></text>
</g>
<g >
<title>in6_lltable_lookup (13,053 samples, 1.79%)</title><rect x="816.2" y="69" width="21.1" height="15.0" fill="rgb(254,60,39)" rx="2" ry="2" />
<text  x="819.19" y="79.5" ></text>
</g>
<g >
<title>keg_alloc_slab (269 samples, 0.04%)</title><rect x="1113.1" y="149" width="0.4" height="15.0" fill="rgb(244,188,6)" rx="2" ry="2" />
<text  x="1116.10" y="159.5" ></text>
</g>
<g >
<title>mb_dtor_mbuf (210 samples, 0.03%)</title><rect x="1186.1" y="37" width="0.3" height="15.0" fill="rgb(214,3,44)" rx="2" ry="2" />
<text  x="1189.09" y="47.5" ></text>
</g>
<g >
<title>m_free (612 samples, 0.08%)</title><rect x="1186.1" y="69" width="1.0" height="15.0" fill="rgb(207,212,21)" rx="2" ry="2" />
<text  x="1189.09" y="79.5" ></text>
</g>
<g >
<title>uma_zfree_arg (12,652 samples, 1.73%)</title><rect x="86.2" y="133" width="20.5" height="15.0" fill="rgb(211,191,6)" rx="2" ry="2" />
<text  x="89.23" y="143.5" ></text>
</g>
<g >
<title>spinlock_exit (125 samples, 0.02%)</title><rect x="1141.6" y="229" width="0.2" height="15.0" fill="rgb(241,41,8)" rx="2" ry="2" />
<text  x="1144.59" y="239.5" ></text>
</g>
<g >
<title>fib6_lookup (62,970 samples, 8.63%)</title><rect x="886.0" y="85" width="101.9" height="15.0" fill="rgb(213,92,25)" rx="2" ry="2" />
<text  x="889.04" y="95.5" >fib6_lookup</text>
</g>
<g >
<title>bucket_alloc (128 samples, 0.02%)</title><rect x="101.7" y="101" width="0.3" height="15.0" fill="rgb(240,67,1)" rx="2" ry="2" />
<text  x="104.75" y="111.5" ></text>
</g>
<g >
<title>ether_nh_input (2,416 samples, 0.33%)</title><rect x="1186.1" y="213" width="3.9" height="15.0" fill="rgb(222,150,13)" rx="2" ry="2" />
<text  x="1189.09" y="223.5" ></text>
</g>
<g >
<title>lradix6_lookup (51,185 samples, 7.02%)</title><rect x="905.1" y="69" width="82.8" height="15.0" fill="rgb(243,165,6)" rx="2" ry="2" />
<text  x="908.10" y="79.5" >lradix6_l..</text>
</g>
<g >
<title>ether_output (235,883 samples, 32.33%)</title><rect x="463.6" y="101" width="381.5" height="15.0" fill="rgb(209,134,26)" rx="2" ry="2" />
<text  x="466.57" y="111.5" >ether_output</text>
</g>
<g >
<title>_epoch_exit_preempt (10,954 samples, 1.50%)</title><rect x="288.0" y="197" width="17.7" height="15.0" fill="rgb(243,40,5)" rx="2" ry="2" />
<text  x="291.00" y="207.5" ></text>
</g>
<g >
<title>netisr_dispatch (319 samples, 0.04%)</title><rect x="1112.0" y="213" width="0.5" height="15.0" fill="rgb(233,25,19)" rx="2" ry="2" />
<text  x="1114.98" y="223.5" ></text>
</g>
<g >
<title>netisr_dispatch_src (23,758 samples, 3.26%)</title><rect x="1145.9" y="165" width="38.5" height="15.0" fill="rgb(217,197,37)" rx="2" ry="2" />
<text  x="1148.93" y="175.5" >net..</text>
</g>
<g >
<title>binuptime (71 samples, 0.01%)</title><rect x="1184.7" y="245" width="0.1" height="15.0" fill="rgb(236,36,18)" rx="2" ry="2" />
<text  x="1187.68" y="255.5" ></text>
</g>
<g >
<title>fork_exit (682,245 samples, 93.52%)</title><rect x="13.7" y="277" width="1103.5" height="15.0" fill="rgb(252,211,6)" rx="2" ry="2" />
<text  x="16.69" y="287.5" >fork_exit</text>
</g>
<g >
<title>sched_idletd (674 samples, 0.09%)</title><rect x="1116.1" y="261" width="1.1" height="15.0" fill="rgb(214,16,2)" rx="2" ry="2" />
<text  x="1119.06" y="271.5" ></text>
</g>
<g >
<title>tdq_add (225 samples, 0.03%)</title><rect x="125.9" y="197" width="0.4" height="15.0" fill="rgb(246,44,29)" rx="2" ry="2" />
<text  x="128.91" y="207.5" ></text>
</g>
<g >
<title>uma_zfree_arg (612 samples, 0.08%)</title><rect x="1186.1" y="53" width="1.0" height="15.0" fill="rgb(218,61,35)" rx="2" ry="2" />
<text  x="1189.09" y="63.5" ></text>
</g>
<g >
<title>mlx5_cq_completion (58,367 samples, 8.00%)</title><rect x="19.5" y="197" width="94.4" height="15.0" fill="rgb(215,17,45)" rx="2" ry="2" />
<text  x="22.50" y="207.5" >mlx5_cq_com..</text>
</g>
<g >
<title>m_copydata (5,899 samples, 0.81%)</title><rect x="767.9" y="37" width="9.5" height="15.0" fill="rgb(221,125,53)" rx="2" ry="2" />
<text  x="770.87" y="47.5" ></text>
</g>
<g >
<title>lock_delay (215 samples, 0.03%)</title><rect x="1113.1" y="117" width="0.4" height="15.0" fill="rgb(214,13,12)" rx="2" ry="2" />
<text  x="1116.12" y="127.5" ></text>
</g>
<g >
<title>m_freem (1,393 samples, 0.19%)</title><rect x="664.6" y="53" width="2.3" height="15.0" fill="rgb(249,182,25)" rx="2" ry="2" />
<text  x="667.60" y="63.5" ></text>
</g>
<g >
<title>cpu_search_highest (1,319 samples, 0.18%)</title><rect x="122.5" y="213" width="2.1" height="15.0" fill="rgb(224,132,6)" rx="2" ry="2" />
<text  x="125.52" y="223.5" ></text>
</g>
</g>
</svg>
