<?xml version="1.0" standalone="no"?>
<!DOCTYPE svg PUBLIC "-//W3C//DTD SVG 1.1//EN" "http://www.w3.org/Graphics/SVG/1.1/DTD/svg11.dtd">
<svg version="1.1" width="1200" height="342" onload="init(evt)" viewBox="0 0 1200 342" xmlns="http://www.w3.org/2000/svg" xmlns:xlink="http://www.w3.org/1999/xlink">
<!-- Flame graph stack visualization. See https://github.com/brendangregg/FlameGraph for latest version, and http://www.brendangregg.com/flamegraphs.html for examples. -->
<!-- NOTES:  -->
<defs>
	<linearGradient id="background" y1="0" y2="1" x1="0" x2="0" >
		<stop stop-color="#eeeeee" offset="5%" />
		<stop stop-color="#eeeeb0" offset="95%" />
	</linearGradient>
</defs>
<style type="text/css">
	text { font-family:Verdana; font-size:12px; fill:rgb(0,0,0); }
	#search, #ignorecase { opacity:0.1; cursor:pointer; }
	#search:hover, #search.show, #ignorecase:hover, #ignorecase.show { opacity:1; }
	#subtitle { text-anchor:middle; font-color:rgb(160,160,160); }
	#title { text-anchor:middle; font-size:17px}
	#unzoom { cursor:pointer; }
	#frames > *:hover { stroke:black; stroke-width:0.5; cursor:pointer; }
	.hide { display:none; }
	.parent { opacity:0.5; }
</style>
<script type="text/ecmascript">
<![CDATA[
	"use strict";
	var details, searchbtn, unzoombtn, matchedtxt, svg, searching, currentSearchTerm, ignorecase, ignorecaseBtn;
	function init(evt) {
		details = document.getElementById("details").firstChild;
		searchbtn = document.getElementById("search");
		ignorecaseBtn = document.getElementById("ignorecase");
		unzoombtn = document.getElementById("unzoom");
		matchedtxt = document.getElementById("matched");
		svg = document.getElementsByTagName("svg")[0];
		searching = 0;
		currentSearchTerm = null;

		// use GET parameters to restore a flamegraphs state.
		var params = get_params();
		if (params.x && params.y)
			zoom(find_group(document.querySelector('[x="' + params.x + '"][y="' + params.y + '"]')));
                if (params.s) search(params.s);
	}

	// event listeners
	window.addEventListener("click", function(e) {
		var target = find_group(e.target);
		if (target) {
			if (target.nodeName == "a") {
				if (e.ctrlKey === false) return;
				e.preventDefault();
			}
			if (target.classList.contains("parent")) unzoom();
			zoom(target);
			if (!document.querySelector('.parent')) {
				clearzoom();
				return;
			}

			// set parameters for zoom state
			var el = target.querySelector("rect");
			if (el && el.attributes && el.attributes.y && el.attributes._orig_x) {
				var params = get_params()
				params.x = el.attributes._orig_x.value;
				params.y = el.attributes.y.value;
				history.replaceState(null, null, parse_params(params));
			}
		}
		else if (e.target.id == "unzoom") clearzoom();
		else if (e.target.id == "search") search_prompt();
		else if (e.target.id == "ignorecase") toggle_ignorecase();
	}, false)

	// mouse-over for info
	// show
	window.addEventListener("mouseover", function(e) {
		var target = find_group(e.target);
		if (target) details.nodeValue = "Function: " + g_to_text(target);
	}, false)

	// clear
	window.addEventListener("mouseout", function(e) {
		var target = find_group(e.target);
		if (target) details.nodeValue = ' ';
	}, false)

	// ctrl-F for search
	// ctrl-I to toggle case-sensitive search
	window.addEventListener("keydown",function (e) {
		if (e.keyCode === 114 || (e.ctrlKey && e.keyCode === 70)) {
			e.preventDefault();
			search_prompt();
		}
		else if (e.ctrlKey && e.keyCode === 73) {
			e.preventDefault();
			toggle_ignorecase();
		}
	}, false)

	// functions
	function get_params() {
		var params = {};
		var paramsarr = window.location.search.substr(1).split('&');
		for (var i = 0; i < paramsarr.length; ++i) {
			var tmp = paramsarr[i].split("=");
			if (!tmp[0] || !tmp[1]) continue;
			params[tmp[0]]  = decodeURIComponent(tmp[1]);
		}
		return params;
	}
	function parse_params(params) {
		var uri = "?";
		for (var key in params) {
			uri += key + '=' + encodeURIComponent(params[key]) + '&';
		}
		if (uri.slice(-1) == "&")
			uri = uri.substring(0, uri.length - 1);
		if (uri == '?')
			uri = window.location.href.split('?')[0];
		return uri;
	}
	function find_child(node, selector) {
		var children = node.querySelectorAll(selector);
		if (children.length) return children[0];
	}
	function find_group(node) {
		var parent = node.parentElement;
		if (!parent) return;
		if (parent.id == "frames") return node;
		return find_group(parent);
	}
	function orig_save(e, attr, val) {
		if (e.attributes["_orig_" + attr] != undefined) return;
		if (e.attributes[attr] == undefined) return;
		if (val == undefined) val = e.attributes[attr].value;
		e.setAttribute("_orig_" + attr, val);
	}
	function orig_load(e, attr) {
		if (e.attributes["_orig_"+attr] == undefined) return;
		e.attributes[attr].value = e.attributes["_orig_" + attr].value;
		e.removeAttribute("_orig_"+attr);
	}
	function g_to_text(e) {
		var text = find_child(e, "title").firstChild.nodeValue;
		return (text)
	}
	function g_to_func(e) {
		var func = g_to_text(e);
		// if there's any manipulation we want to do to the function
		// name before it's searched, do it here before returning.
		return (func);
	}
	function update_text(e) {
		var r = find_child(e, "rect");
		var t = find_child(e, "text");
		var w = parseFloat(r.attributes.width.value) -3;
		var txt = find_child(e, "title").textContent.replace(/\([^(]*\)$/,"");
		t.attributes.x.value = parseFloat(r.attributes.x.value) + 3;

		// Smaller than this size won't fit anything
		if (w < 2 * 12 * 0.59) {
			t.textContent = "";
			return;
		}

		t.textContent = txt;
		// Fit in full text width
		if (/^ *$/.test(txt) || t.getSubStringLength(0, txt.length) < w)
			return;

		for (var x = txt.length - 2; x > 0; x--) {
			if (t.getSubStringLength(0, x + 2) <= w) {
				t.textContent = txt.substring(0, x) + "..";
				return;
			}
		}
		t.textContent = "";
	}

	// zoom
	function zoom_reset(e) {
		if (e.attributes != undefined) {
			orig_load(e, "x");
			orig_load(e, "width");
		}
		if (e.childNodes == undefined) return;
		for (var i = 0, c = e.childNodes; i < c.length; i++) {
			zoom_reset(c[i]);
		}
	}
	function zoom_child(e, x, ratio) {
		if (e.attributes != undefined) {
			if (e.attributes.x != undefined) {
				orig_save(e, "x");
				e.attributes.x.value = (parseFloat(e.attributes.x.value) - x - 10) * ratio + 10;
				if (e.tagName == "text")
					e.attributes.x.value = find_child(e.parentNode, "rect[x]").attributes.x.value + 3;
			}
			if (e.attributes.width != undefined) {
				orig_save(e, "width");
				e.attributes.width.value = parseFloat(e.attributes.width.value) * ratio;
			}
		}

		if (e.childNodes == undefined) return;
		for (var i = 0, c = e.childNodes; i < c.length; i++) {
			zoom_child(c[i], x - 10, ratio);
		}
	}
	function zoom_parent(e) {
		if (e.attributes) {
			if (e.attributes.x != undefined) {
				orig_save(e, "x");
				e.attributes.x.value = 10;
			}
			if (e.attributes.width != undefined) {
				orig_save(e, "width");
				e.attributes.width.value = parseInt(svg.width.baseVal.value) - (10 * 2);
			}
		}
		if (e.childNodes == undefined) return;
		for (var i = 0, c = e.childNodes; i < c.length; i++) {
			zoom_parent(c[i]);
		}
	}
	function zoom(node) {
		var attr = find_child(node, "rect").attributes;
		var width = parseFloat(attr.width.value);
		var xmin = parseFloat(attr.x.value);
		var xmax = parseFloat(xmin + width);
		var ymin = parseFloat(attr.y.value);
		var ratio = (svg.width.baseVal.value - 2 * 10) / width;

		// XXX: Workaround for JavaScript float issues (fix me)
		var fudge = 0.0001;

		unzoombtn.classList.remove("hide");

		var el = document.getElementById("frames").children;
		for (var i = 0; i < el.length; i++) {
			var e = el[i];
			var a = find_child(e, "rect").attributes;
			var ex = parseFloat(a.x.value);
			var ew = parseFloat(a.width.value);
			var upstack;
			// Is it an ancestor
			if (0 == 0) {
				upstack = parseFloat(a.y.value) > ymin;
			} else {
				upstack = parseFloat(a.y.value) < ymin;
			}
			if (upstack) {
				// Direct ancestor
				if (ex <= xmin && (ex+ew+fudge) >= xmax) {
					e.classList.add("parent");
					zoom_parent(e);
					update_text(e);
				}
				// not in current path
				else
					e.classList.add("hide");
			}
			// Children maybe
			else {
				// no common path
				if (ex < xmin || ex + fudge >= xmax) {
					e.classList.add("hide");
				}
				else {
					zoom_child(e, xmin, ratio);
					update_text(e);
				}
			}
		}
		search();
	}
	function unzoom() {
		unzoombtn.classList.add("hide");
		var el = document.getElementById("frames").children;
		for(var i = 0; i < el.length; i++) {
			el[i].classList.remove("parent");
			el[i].classList.remove("hide");
			zoom_reset(el[i]);
			update_text(el[i]);
		}
		search();
	}
	function clearzoom() {
		unzoom();

		// remove zoom state
		var params = get_params();
		if (params.x) delete params.x;
		if (params.y) delete params.y;
		history.replaceState(null, null, parse_params(params));
	}

	// search
	function toggle_ignorecase() {
		ignorecase = !ignorecase;
		if (ignorecase) {
			ignorecaseBtn.classList.add("show");
		} else {
			ignorecaseBtn.classList.remove("show");
		}
		reset_search();
		search();
	}
	function reset_search() {
		var el = document.querySelectorAll("#frames rect");
		for (var i = 0; i < el.length; i++) {
			orig_load(el[i], "fill")
		}
		var params = get_params();
		delete params.s;
		history.replaceState(null, null, parse_params(params));
	}
	function search_prompt() {
		if (!searching) {
			var term = prompt("Enter a search term (regexp " +
			    "allowed, eg: ^ext4_)"
			    + (ignorecase ? ", ignoring case" : "")
			    + "\nPress Ctrl-i to toggle case sensitivity", "");
			if (term != null) search(term);
		} else {
			reset_search();
			searching = 0;
			currentSearchTerm = null;
			searchbtn.classList.remove("show");
			searchbtn.firstChild.nodeValue = "Search"
			matchedtxt.classList.add("hide");
			matchedtxt.firstChild.nodeValue = ""
		}
	}
	function search(term) {
		if (term) currentSearchTerm = term;

		var re = new RegExp(currentSearchTerm, ignorecase ? 'i' : '');
		var el = document.getElementById("frames").children;
		var matches = new Object();
		var maxwidth = 0;
		for (var i = 0; i < el.length; i++) {
			var e = el[i];
			var func = g_to_func(e);
			var rect = find_child(e, "rect");
			if (func == null || rect == null)
				continue;

			// Save max width. Only works as we have a root frame
			var w = parseFloat(rect.attributes.width.value);
			if (w > maxwidth)
				maxwidth = w;

			if (func.match(re)) {
				// highlight
				var x = parseFloat(rect.attributes.x.value);
				orig_save(rect, "fill");
				rect.attributes.fill.value = "rgb(230,0,230)";

				// remember matches
				if (matches[x] == undefined) {
					matches[x] = w;
				} else {
					if (w > matches[x]) {
						// overwrite with parent
						matches[x] = w;
					}
				}
				searching = 1;
			}
		}
		if (!searching)
			return;
		var params = get_params();
		params.s = currentSearchTerm;
		history.replaceState(null, null, parse_params(params));

		searchbtn.classList.add("show");
		searchbtn.firstChild.nodeValue = "Reset Search";

		// calculate percent matched, excluding vertical overlap
		var count = 0;
		var lastx = -1;
		var lastw = 0;
		var keys = Array();
		for (k in matches) {
			if (matches.hasOwnProperty(k))
				keys.push(k);
		}
		// sort the matched frames by their x location
		// ascending, then width descending
		keys.sort(function(a, b){
			return a - b;
		});
		// Step through frames saving only the biggest bottom-up frames
		// thanks to the sort order. This relies on the tree property
		// where children are always smaller than their parents.
		var fudge = 0.0001;	// JavaScript floating point
		for (var k in keys) {
			var x = parseFloat(keys[k]);
			var w = matches[keys[k]];
			if (x >= lastx + lastw - fudge) {
				count += w;
				lastx = x;
				lastw = w;
			}
		}
		// display matched percent
		matchedtxt.classList.remove("hide");
		var pct = 100 * count / maxwidth;
		if (pct != 100) pct = pct.toFixed(1)
		matchedtxt.firstChild.nodeValue = "Matched: " + pct + "%";
	}
]]>
</script>
<rect x="0.0" y="0" width="1200.0" height="342.0" fill="url(#background)"  />
<text id="title" x="600.00" y="24" >Flame Graph</text>
<text id="details" x="10.00" y="325" > </text>
<text id="unzoom" x="10.00" y="24" class="hide">Reset Zoom</text>
<text id="search" x="1090.00" y="24" >Search</text>
<text id="ignorecase" x="1174.00" y="24" >ic</text>
<text id="matched" x="1090.00" y="325" > </text>
<g id="frames">
<g >
<title>ip_input (36,692 samples, 5.04%)</title><rect x="1125.4" y="149" width="59.4" height="15.0" fill="rgb(245,168,52)" rx="2" ry="2" />
<text  x="1128.36" y="159.5" >ip_input</text>
</g>
<g >
<title>uma_zfree_arg (4,292 samples, 0.59%)</title><rect x="1125.4" y="37" width="6.9" height="15.0" fill="rgb(227,117,42)" rx="2" ry="2" />
<text  x="1128.36" y="47.5" ></text>
</g>
<g >
<title>netisr_dispatch_src (36,692 samples, 5.04%)</title><rect x="1125.4" y="213" width="59.4" height="15.0" fill="rgb(226,43,18)" rx="2" ry="2" />
<text  x="1128.36" y="223.5" >netisr..</text>
</g>
<g >
<title>lock_delay (889 samples, 0.12%)</title><rect x="1106.2" y="229" width="1.5" height="15.0" fill="rgb(241,44,40)" rx="2" ry="2" />
<text  x="1109.24" y="239.5" ></text>
</g>
<g >
<title>m_freem (4,292 samples, 0.59%)</title><rect x="1125.4" y="69" width="6.9" height="15.0" fill="rgb(225,202,15)" rx="2" ry="2" />
<text  x="1128.36" y="79.5" ></text>
</g>
<g >
<title>cache_free (347 samples, 0.05%)</title><rect x="62.0" y="117" width="0.6" height="15.0" fill="rgb(208,223,27)" rx="2" ry="2" />
<text  x="65.02" y="127.5" ></text>
</g>
<g >
<title>_epoch_enter_preempt (11,865 samples, 1.63%)</title><rect x="163.2" y="197" width="19.3" height="15.0" fill="rgb(237,75,18)" rx="2" ry="2" />
<text  x="166.23" y="207.5" ></text>
</g>
<g >
<title>lock_delay (295 samples, 0.04%)</title><rect x="72.3" y="197" width="0.5" height="15.0" fill="rgb(217,158,26)" rx="2" ry="2" />
<text  x="75.30" y="207.5" ></text>
</g>
<g >
<title>m_copydata (5,118 samples, 0.70%)</title><rect x="1144.7" y="53" width="8.3" height="15.0" fill="rgb(241,86,39)" rx="2" ry="2" />
<text  x="1147.70" y="63.5" ></text>
</g>
<g >
<title>Xapic_isr1_pti (955 samples, 0.13%)</title><rect x="10.4" y="277" width="1.6" height="15.0" fill="rgb(207,97,28)" rx="2" ry="2" />
<text  x="13.43" y="287.5" ></text>
</g>
<g >
<title>sched_rem (165 samples, 0.02%)</title><rect x="75.1" y="197" width="0.3" height="15.0" fill="rgb(242,140,28)" rx="2" ry="2" />
<text  x="78.09" y="207.5" ></text>
</g>
<g >
<title>cache_alloc_retry (397 samples, 0.05%)</title><rect x="1039.2" y="197" width="0.6" height="15.0" fill="rgb(213,110,48)" rx="2" ry="2" />
<text  x="1042.16" y="207.5" ></text>
</g>
<g >
<title>intr_event_schedule_thread (9,604 samples, 1.32%)</title><rect x="1109.7" y="245" width="15.5" height="15.0" fill="rgb(252,104,11)" rx="2" ry="2" />
<text  x="1112.67" y="255.5" ></text>
</g>
<g >
<title>pmap_kextract (1,042 samples, 0.14%)</title><rect x="1188.3" y="37" width="1.7" height="15.0" fill="rgb(229,29,6)" rx="2" ry="2" />
<text  x="1191.31" y="47.5" ></text>
</g>
<g >
<title>arpresolve (16,582 samples, 2.28%)</title><rect x="362.3" y="85" width="26.8" height="15.0" fill="rgb(254,188,29)" rx="2" ry="2" />
<text  x="365.26" y="95.5" >a..</text>
</g>
<g >
<title>Xapic_isr1 (267 samples, 0.04%)</title><rect x="10.0" y="277" width="0.4" height="15.0" fill="rgb(209,6,18)" rx="2" ry="2" />
<text  x="13.00" y="287.5" ></text>
</g>
<g >
<title>mlx5e_sq_xmit (1,042 samples, 0.14%)</title><rect x="1188.3" y="85" width="1.7" height="15.0" fill="rgb(251,206,41)" rx="2" ry="2" />
<text  x="1191.31" y="95.5" ></text>
</g>
<g >
<title>sched_pickcpu (5,587 samples, 0.77%)</title><rect x="1112.6" y="213" width="9.0" height="15.0" fill="rgb(211,180,45)" rx="2" ry="2" />
<text  x="1115.55" y="223.5" ></text>
</g>
<g >
<title>t4_intr (2,112 samples, 0.29%)</title><rect x="1186.6" y="277" width="3.4" height="15.0" fill="rgb(214,185,32)" rx="2" ry="2" />
<text  x="1189.57" y="287.5" ></text>
</g>
<g >
<title>ether_nh_input (36,692 samples, 5.04%)</title><rect x="1125.4" y="197" width="59.4" height="15.0" fill="rgb(227,229,25)" rx="2" ry="2" />
<text  x="1128.36" y="207.5" >ether_..</text>
</g>
<g >
<title>cache_alloc (137 samples, 0.02%)</title><rect x="1105.8" y="181" width="0.2" height="15.0" fill="rgb(248,79,42)" rx="2" ry="2" />
<text  x="1108.81" y="191.5" ></text>
</g>
<g >
<title>ipfw_check_packet (19,646 samples, 2.70%)</title><rect x="1153.0" y="101" width="31.8" height="15.0" fill="rgb(231,22,25)" rx="2" ry="2" />
<text  x="1156.00" y="111.5" >ip..</text>
</g>
<g >
<title>ether_input (2,112 samples, 0.29%)</title><rect x="1186.6" y="245" width="3.4" height="15.0" fill="rgb(222,40,38)" rx="2" ry="2" />
<text  x="1189.57" y="255.5" ></text>
</g>
<g >
<title>netisr_dispatch (193 samples, 0.03%)</title><rect x="1019.0" y="165" width="0.3" height="15.0" fill="rgb(227,166,25)" rx="2" ry="2" />
<text  x="1022.04" y="175.5" ></text>
</g>
<g >
<title>m_free (22,505 samples, 3.09%)</title><rect x="28.5" y="149" width="36.5" height="15.0" fill="rgb(227,92,17)" rx="2" ry="2" />
<text  x="31.48" y="159.5" >m_f..</text>
</g>
<g >
<title>pmc_hook_handler (529 samples, 0.07%)</title><rect x="1185.5" y="213" width="0.8" height="15.0" fill="rgb(207,168,22)" rx="2" ry="2" />
<text  x="1188.45" y="223.5" ></text>
</g>
<g >
<title>zone_import (137 samples, 0.02%)</title><rect x="1105.8" y="165" width="0.2" height="15.0" fill="rgb(232,122,54)" rx="2" ry="2" />
<text  x="1108.81" y="175.5" ></text>
</g>
<g >
<title>ipfw_chk (19,646 samples, 2.70%)</title><rect x="1153.0" y="85" width="31.8" height="15.0" fill="rgb(215,4,1)" rx="2" ry="2" />
<text  x="1156.00" y="95.5" >ip..</text>
</g>
<g >
<title>m_tag_locate (3,925 samples, 0.54%)</title><rect x="1009.4" y="69" width="6.4" height="15.0" fill="rgb(242,215,53)" rx="2" ry="2" />
<text  x="1012.40" y="79.5" ></text>
</g>
<g >
<title>_epoch_enter_preempt (406 samples, 0.06%)</title><rect x="13.4" y="245" width="0.6" height="15.0" fill="rgb(230,76,14)" rx="2" ry="2" />
<text  x="16.39" y="255.5" ></text>
</g>
<g >
<title>vn_io_fault (121 samples, 0.02%)</title><rect x="1107.7" y="245" width="0.2" height="15.0" fill="rgb(213,8,14)" rx="2" ry="2" />
<text  x="1110.72" y="255.5" ></text>
</g>
<g >
<title>refill_fl (437 samples, 0.06%)</title><rect x="1105.4" y="213" width="0.7" height="15.0" fill="rgb(225,192,25)" rx="2" ry="2" />
<text  x="1108.35" y="223.5" ></text>
</g>
<g >
<title>hash_packet (10,304 samples, 1.42%)</title><rect x="1168.1" y="53" width="16.7" height="15.0" fill="rgb(252,42,32)" rx="2" ry="2" />
<text  x="1171.14" y="63.5" ></text>
</g>
<g >
<title>in_localip (6,771 samples, 0.93%)</title><rect x="566.4" y="101" width="11.0" height="15.0" fill="rgb(216,84,49)" rx="2" ry="2" />
<text  x="569.41" y="111.5" ></text>
</g>
<g >
<title>bus_dmamap_load_mbuf_sg (7,636 samples, 1.05%)</title><rect x="1132.3" y="53" width="12.4" height="15.0" fill="rgb(229,171,28)" rx="2" ry="2" />
<text  x="1135.32" y="63.5" ></text>
</g>
<g >
<title>ip_tryforward (36,692 samples, 5.04%)</title><rect x="1125.4" y="133" width="59.4" height="15.0" fill="rgb(250,90,34)" rx="2" ry="2" />
<text  x="1128.36" y="143.5" >ip_try..</text>
</g>
<g >
<title>ether_output_frame (106,829 samples, 14.68%)</title><rect x="389.1" y="85" width="173.2" height="15.0" fill="rgb(208,11,15)" rx="2" ry="2" />
<text  x="392.14" y="95.5" >ether_output_frame</text>
</g>
<g >
<title>netisr_dispatch_src (476,824 samples, 65.51%)</title><rect x="242.8" y="149" width="773.0" height="15.0" fill="rgb(218,194,51)" rx="2" ry="2" />
<text  x="245.80" y="159.5" >netisr_dispatch_src</text>
</g>
<g >
<title>get_scatter_segment (52,834 samples, 7.26%)</title><rect x="1019.4" y="213" width="85.6" height="15.0" fill="rgb(235,43,35)" rx="2" ry="2" />
<text  x="1022.35" y="223.5" >get_scatte..</text>
</g>
<g >
<title>zone_fetch_bucket (79 samples, 0.01%)</title><rect x="1039.6" y="165" width="0.2" height="15.0" fill="rgb(216,159,37)" rx="2" ry="2" />
<text  x="1042.64" y="175.5" ></text>
</g>
<g >
<title>ip_input (2,112 samples, 0.29%)</title><rect x="1186.6" y="165" width="3.4" height="15.0" fill="rgb(225,213,13)" rx="2" ry="2" />
<text  x="1189.57" y="175.5" ></text>
</g>
<g >
<title>sched_idletd (390 samples, 0.05%)</title><rect x="1107.9" y="261" width="0.7" height="15.0" fill="rgb(234,158,40)" rx="2" ry="2" />
<text  x="1110.92" y="271.5" ></text>
</g>
<g >
<title>ether_output_frame (2,112 samples, 0.29%)</title><rect x="1186.6" y="117" width="3.4" height="15.0" fill="rgb(251,227,52)" rx="2" ry="2" />
<text  x="1189.57" y="127.5" ></text>
</g>
<g >
<title>thread_lock_flags_ (1,020 samples, 0.14%)</title><rect x="1106.1" y="245" width="1.6" height="15.0" fill="rgb(219,149,28)" rx="2" ry="2" />
<text  x="1109.06" y="255.5" ></text>
</g>
<g >
<title>mb_ctor_mbuf (8,394 samples, 1.15%)</title><rect x="1091.4" y="181" width="13.6" height="15.0" fill="rgb(216,26,45)" rx="2" ry="2" />
<text  x="1094.39" y="191.5" ></text>
</g>
<g >
<title>m_free (1,410 samples, 0.19%)</title><rect x="488.3" y="37" width="2.3" height="15.0" fill="rgb(233,51,23)" rx="2" ry="2" />
<text  x="491.27" y="47.5" ></text>
</g>
<g >
<title>ipfw_dyn_lookup_state (73,791 samples, 10.14%)</title><rect x="889.8" y="53" width="119.6" height="15.0" fill="rgb(233,217,29)" rx="2" ry="2" />
<text  x="892.78" y="63.5" >ipfw_dyn_looku..</text>
</g>
<g >
<title>sched_switch (2,996 samples, 0.41%)</title><rect x="70.8" y="229" width="4.8" height="15.0" fill="rgb(232,161,51)" rx="2" ry="2" />
<text  x="73.76" y="239.5" ></text>
</g>
<g >
<title>bus_dmamap_load_mbuf_sg (5,266 samples, 0.72%)</title><rect x="532.4" y="37" width="8.6" height="15.0" fill="rgb(254,64,10)" rx="2" ry="2" />
<text  x="535.43" y="47.5" ></text>
</g>
<g >
<title>t4_intr (635,445 samples, 87.30%)</title><rect x="76.0" y="245" width="1030.1" height="15.0" fill="rgb(248,200,48)" rx="2" ry="2" />
<text  x="78.96" y="255.5" >t4_intr</text>
</g>
<g >
<title>_epoch_exit_preempt (398 samples, 0.05%)</title><rect x="151.5" y="213" width="0.6" height="15.0" fill="rgb(238,54,3)" rx="2" ry="2" />
<text  x="154.46" y="223.5" ></text>
</g>
<g >
<title>ipfw_chk (218,789 samples, 30.06%)</title><rect x="654.7" y="69" width="354.7" height="15.0" fill="rgb(210,220,37)" rx="2" ry="2" />
<text  x="657.73" y="79.5" >ipfw_chk</text>
</g>
<g >
<title>ip_input (469,396 samples, 64.49%)</title><rect x="254.8" y="133" width="761.0" height="15.0" fill="rgb(226,72,23)" rx="2" ry="2" />
<text  x="257.84" y="143.5" >ip_input</text>
</g>
<g >
<title>_thread_lock (429 samples, 0.06%)</title><rect x="1109.9" y="229" width="0.7" height="15.0" fill="rgb(215,219,24)" rx="2" ry="2" />
<text  x="1112.89" y="239.5" ></text>
</g>
<g >
<title>dyn_lookup_ipv4_state (41,494 samples, 5.70%)</title><rect x="921.7" y="37" width="67.3" height="15.0" fill="rgb(246,213,22)" rx="2" ry="2" />
<text  x="924.70" y="47.5" >dyn_loo..</text>
</g>
<g >
<title>tdq_move (332 samples, 0.05%)</title><rect x="75.0" y="213" width="0.5" height="15.0" fill="rgb(252,171,21)" rx="2" ry="2" />
<text  x="78.01" y="223.5" ></text>
</g>
<g >
<title>_thread_lock (234 samples, 0.03%)</title><rect x="14.1" y="245" width="0.4" height="15.0" fill="rgb(246,124,6)" rx="2" ry="2" />
<text  x="17.11" y="255.5" ></text>
</g>
<g >
<title>ip_tryforward (456,579 samples, 62.72%)</title><rect x="275.6" y="117" width="740.2" height="15.0" fill="rgb(220,120,4)" rx="2" ry="2" />
<text  x="278.61" y="127.5" >ip_tryforward</text>
</g>
<g >
<title>spinlock_exit (80 samples, 0.01%)</title><rect x="1122.5" y="229" width="0.1" height="15.0" fill="rgb(211,119,17)" rx="2" ry="2" />
<text  x="1125.50" y="239.5" ></text>
</g>
<g >
<title>m_adj (6,343 samples, 0.87%)</title><rect x="541.0" y="37" width="10.2" height="15.0" fill="rgb(252,79,31)" rx="2" ry="2" />
<text  x="543.96" y="47.5" ></text>
</g>
<g >
<title>cpu_search_highest (636 samples, 0.09%)</title><rect x="73.7" y="197" width="1.0" height="15.0" fill="rgb(251,85,25)" rx="2" ry="2" />
<text  x="76.71" y="207.5" ></text>
</g>
<g >
<title>t4_intr (36,692 samples, 5.04%)</title><rect x="1125.4" y="261" width="59.4" height="15.0" fill="rgb(213,160,1)" rx="2" ry="2" />
<text  x="1128.36" y="271.5" >t4_intr</text>
</g>
<g >
<title>ether_output (146,082 samples, 20.07%)</title><rect x="329.6" y="101" width="236.8" height="15.0" fill="rgb(233,206,33)" rx="2" ry="2" />
<text  x="332.60" y="111.5" >ether_output</text>
</g>
<g >
<title>fork_exit (676,257 samples, 92.90%)</title><rect x="12.4" y="277" width="1096.2" height="15.0" fill="rgb(212,55,50)" rx="2" ry="2" />
<text  x="15.39" y="287.5" >fork_exit</text>
</g>
<g >
<title>binuptime (82 samples, 0.01%)</title><rect x="1185.1" y="245" width="0.2" height="15.0" fill="rgb(214,189,23)" rx="2" ry="2" />
<text  x="1188.13" y="255.5" ></text>
</g>
<g >
<title>hardclock (601 samples, 0.08%)</title><rect x="1185.3" y="229" width="1.0" height="15.0" fill="rgb(235,180,41)" rx="2" ry="2" />
<text  x="1188.35" y="239.5" ></text>
</g>
<g >
<title>mi_switch (4,337 samples, 0.60%)</title><rect x="68.6" y="245" width="7.0" height="15.0" fill="rgb(224,195,8)" rx="2" ry="2" />
<text  x="71.59" y="255.5" ></text>
</g>
<g >
<title>cpu_search_highest (828 samples, 0.11%)</title><rect x="73.4" y="213" width="1.3" height="15.0" fill="rgb(214,204,16)" rx="2" ry="2" />
<text  x="76.40" y="223.5" ></text>
</g>
<g >
<title>Xtimerint_pti (167 samples, 0.02%)</title><rect x="12.1" y="277" width="0.2" height="15.0" fill="rgb(215,178,0)" rx="2" ry="2" />
<text  x="15.05" y="287.5" ></text>
</g>
<g >
<title>m_pkthdr_init (3,749 samples, 0.52%)</title><rect x="1098.9" y="165" width="6.1" height="15.0" fill="rgb(242,219,44)" rx="2" ry="2" />
<text  x="1101.92" y="175.5" ></text>
</g>
<g >
<title>tdq_add (233 samples, 0.03%)</title><rect x="1121.7" y="213" width="0.4" height="15.0" fill="rgb(211,85,20)" rx="2" ry="2" />
<text  x="1124.70" y="223.5" ></text>
</g>
<g >
<title>m_copydata (3,217 samples, 0.44%)</title><rect x="551.2" y="37" width="5.3" height="15.0" fill="rgb(225,64,28)" rx="2" ry="2" />
<text  x="554.25" y="47.5" ></text>
</g>
<g >
<title>choosethread (379 samples, 0.05%)</title><rect x="72.8" y="213" width="0.6" height="15.0" fill="rgb(220,44,35)" rx="2" ry="2" />
<text  x="75.78" y="223.5" ></text>
</g>
<g >
<title>intr_execute_handlers (10,262 samples, 1.41%)</title><rect x="1108.6" y="277" width="16.7" height="15.0" fill="rgb(251,177,16)" rx="2" ry="2" />
<text  x="1111.65" y="287.5" ></text>
</g>
<g >
<title>dyn_lookup_ipv4_state (9,330 samples, 1.28%)</title><rect x="1153.0" y="53" width="15.1" height="15.0" fill="rgb(231,224,49)" rx="2" ry="2" />
<text  x="1156.02" y="63.5" ></text>
</g>
<g >
<title>uma_zfree_arg (1,070 samples, 0.15%)</title><rect x="1186.6" y="53" width="1.7" height="15.0" fill="rgb(243,102,2)" rx="2" ry="2" />
<text  x="1189.57" y="63.5" ></text>
</g>
<g >
<title>netisr_dispatch_src (2,112 samples, 0.29%)</title><rect x="1186.6" y="229" width="3.4" height="15.0" fill="rgb(236,77,8)" rx="2" ry="2" />
<text  x="1189.57" y="239.5" ></text>
</g>
<g >
<title>bsearch4_lookup (8,578 samples, 1.18%)</title><rect x="594.3" y="69" width="13.9" height="15.0" fill="rgb(207,88,31)" rx="2" ry="2" />
<text  x="597.28" y="79.5" ></text>
</g>
<g >
<title>lock_delay (807 samples, 0.11%)</title><rect x="1111.2" y="197" width="1.3" height="15.0" fill="rgb(225,135,4)" rx="2" ry="2" />
<text  x="1114.24" y="207.5" ></text>
</g>
<g >
<title>bounce_bus_dmamap_load_buffer (1,042 samples, 0.14%)</title><rect x="1188.3" y="53" width="1.7" height="15.0" fill="rgb(247,43,52)" rx="2" ry="2" />
<text  x="1191.31" y="63.5" ></text>
</g>
<g >
<title>mlx5e_sq_tls_xmit (1,694 samples, 0.23%)</title><rect x="559.6" y="37" width="2.7" height="15.0" fill="rgb(225,111,10)" rx="2" ry="2" />
<text  x="562.57" y="47.5" ></text>
</g>
<g >
<title>handleevents (804 samples, 0.11%)</title><rect x="1185.3" y="245" width="1.3" height="15.0" fill="rgb(205,56,1)" rx="2" ry="2" />
<text  x="1188.26" y="255.5" ></text>
</g>
<g >
<title>ithread_loop (36,692 samples, 5.04%)</title><rect x="1125.4" y="277" width="59.4" height="15.0" fill="rgb(235,177,38)" rx="2" ry="2" />
<text  x="1128.36" y="287.5" >ithrea..</text>
</g>
<g >
<title>cache_alloc_retry (137 samples, 0.02%)</title><rect x="1105.8" y="197" width="0.2" height="15.0" fill="rgb(244,126,54)" rx="2" ry="2" />
<text  x="1108.81" y="207.5" ></text>
</g>
<g >
<title>m_adj (3,227 samples, 0.44%)</title><rect x="236.4" y="149" width="5.2" height="15.0" fill="rgb(244,154,54)" rx="2" ry="2" />
<text  x="239.36" y="159.5" ></text>
</g>
<g >
<title>cpu_search_highest (63 samples, 0.01%)</title><rect x="1108.3" y="229" width="0.1" height="15.0" fill="rgb(240,17,5)" rx="2" ry="2" />
<text  x="1111.25" y="239.5" ></text>
</g>
<g >
<title>bounce_bus_dmamap_load_buffer (7,609 samples, 1.05%)</title><rect x="1132.4" y="37" width="12.3" height="15.0" fill="rgb(235,111,14)" rx="2" ry="2" />
<text  x="1135.36" y="47.5" ></text>
</g>
<g >
<title>mlx5e_sq_xmit (44,273 samples, 6.08%)</title><rect x="490.6" y="53" width="71.7" height="15.0" fill="rgb(206,214,7)" rx="2" ry="2" />
<text  x="493.55" y="63.5" >mlx5e_sq..</text>
</g>
<g >
<title>ip_findroute (18,998 samples, 2.61%)</title><rect x="577.4" y="101" width="30.8" height="15.0" fill="rgb(218,202,40)" rx="2" ry="2" />
<text  x="580.39" y="111.5" >ip..</text>
</g>
<g >
<title>netisr_dispatch_src (507,921 samples, 69.78%)</title><rect x="196.0" y="197" width="823.4" height="15.0" fill="rgb(217,58,47)" rx="2" ry="2" />
<text  x="198.97" y="207.5" >netisr_dispatch_src</text>
</g>
<g >
<title>tdq_notify (252 samples, 0.03%)</title><rect x="1122.1" y="213" width="0.4" height="15.0" fill="rgb(217,184,43)" rx="2" ry="2" />
<text  x="1125.08" y="223.5" ></text>
</g>
<g >
<title>pmc_process_samples (506 samples, 0.07%)</title><rect x="1185.5" y="197" width="0.8" height="15.0" fill="rgb(252,144,32)" rx="2" ry="2" />
<text  x="1188.49" y="207.5" ></text>
</g>
<g >
<title>pfil_run_hooks (19,646 samples, 2.70%)</title><rect x="1153.0" y="117" width="31.8" height="15.0" fill="rgb(210,135,30)" rx="2" ry="2" />
<text  x="1156.00" y="127.5" >pf..</text>
</g>
<g >
<title>memcmp (2,020 samples, 0.28%)</title><rect x="1015.8" y="165" width="3.2" height="15.0" fill="rgb(243,38,20)" rx="2" ry="2" />
<text  x="1018.76" y="175.5" ></text>
</g>
<g >
<title>_rm_rlock (13,252 samples, 1.82%)</title><rect x="860.3" y="53" width="21.4" height="15.0" fill="rgb(225,15,0)" rx="2" ry="2" />
<text  x="863.27" y="63.5" >_..</text>
</g>
<g >
<title>memmove_erms (2,782 samples, 0.38%)</title><rect x="384.6" y="69" width="4.5" height="15.0" fill="rgb(252,83,48)" rx="2" ry="2" />
<text  x="387.63" y="79.5" ></text>
</g>
<g >
<title>mi_switch (85 samples, 0.01%)</title><rect x="1108.4" y="245" width="0.1" height="15.0" fill="rgb(225,51,35)" rx="2" ry="2" />
<text  x="1111.36" y="255.5" ></text>
</g>
<g >
<title>bounce_bus_dmamap_complete (416 samples, 0.06%)</title><rect x="531.8" y="37" width="0.6" height="15.0" fill="rgb(220,216,33)" rx="2" ry="2" />
<text  x="534.75" y="47.5" ></text>
</g>
<g >
<title>lock_delay (1,434 samples, 0.20%)</title><rect x="1122.9" y="213" width="2.3" height="15.0" fill="rgb(227,229,30)" rx="2" ry="2" />
<text  x="1125.86" y="223.5" ></text>
</g>
<g >
<title>sched_choose (367 samples, 0.05%)</title><rect x="72.8" y="197" width="0.6" height="15.0" fill="rgb(228,77,9)" rx="2" ry="2" />
<text  x="75.80" y="207.5" ></text>
</g>
<g >
<title>ether_demux (488,872 samples, 67.16%)</title><rect x="223.3" y="165" width="792.5" height="15.0" fill="rgb(227,146,43)" rx="2" ry="2" />
<text  x="226.27" y="175.5" >ether_demux</text>
</g>
<g >
<title>pmap_kextract (673 samples, 0.09%)</title><rect x="1187.2" y="37" width="1.1" height="15.0" fill="rgb(217,60,36)" rx="2" ry="2" />
<text  x="1190.22" y="47.5" ></text>
</g>
<g >
<title>bucket_alloc (88 samples, 0.01%)</title><rect x="62.1" y="101" width="0.1" height="15.0" fill="rgb(242,141,52)" rx="2" ry="2" />
<text  x="65.09" y="111.5" ></text>
</g>
<g >
<title>netisr_dispatch_src (2,112 samples, 0.29%)</title><rect x="1186.6" y="181" width="3.4" height="15.0" fill="rgb(210,15,32)" rx="2" ry="2" />
<text  x="1189.57" y="191.5" ></text>
</g>
<g >
<title>dyn_update_proto_state (9,330 samples, 1.28%)</title><rect x="1153.0" y="37" width="15.1" height="15.0" fill="rgb(207,146,7)" rx="2" ry="2" />
<text  x="1156.02" y="47.5" ></text>
</g>
<g >
<title>cpu_idle (152 samples, 0.02%)</title><rect x="1108.0" y="245" width="0.2" height="15.0" fill="rgb(252,205,23)" rx="2" ry="2" />
<text  x="1110.99" y="255.5" ></text>
</g>
<g >
<title>ether_output (17,046 samples, 2.34%)</title><rect x="1125.4" y="117" width="27.6" height="15.0" fill="rgb(225,219,4)" rx="2" ry="2" />
<text  x="1128.36" y="127.5" >e..</text>
</g>
<g >
<title>ipfw_dyn_lookup_state (19,634 samples, 2.70%)</title><rect x="1153.0" y="69" width="31.8" height="15.0" fill="rgb(240,40,18)" rx="2" ry="2" />
<text  x="1156.02" y="79.5" >ip..</text>
</g>
<g >
<title>mlx5_eq_int (33,259 samples, 4.57%)</title><rect x="14.7" y="213" width="53.9" height="15.0" fill="rgb(246,197,30)" rx="2" ry="2" />
<text  x="17.67" y="223.5" >mlx5_..</text>
</g>
<g >
<title>ether_input (534,982 samples, 73.50%)</title><rect x="152.1" y="213" width="867.3" height="15.0" fill="rgb(237,108,10)" rx="2" ry="2" />
<text  x="155.11" y="223.5" >ether_input</text>
</g>
<g >
<title>ether_demux (36,692 samples, 5.04%)</title><rect x="1125.4" y="181" width="59.4" height="15.0" fill="rgb(215,199,44)" rx="2" ry="2" />
<text  x="1128.36" y="191.5" >ether_..</text>
</g>
<g >
<title>fpu_activate_sw (417 samples, 0.06%)</title><rect x="69.3" y="213" width="0.7" height="15.0" fill="rgb(246,191,42)" rx="2" ry="2" />
<text  x="72.35" y="223.5" ></text>
</g>
<g >
<title>mlx5e_tx_cq_comp (32,318 samples, 4.44%)</title><rect x="16.2" y="181" width="52.4" height="15.0" fill="rgb(246,91,33)" rx="2" ry="2" />
<text  x="19.20" y="191.5" >mlx5e..</text>
</g>
<g >
<title>ffs_write (120 samples, 0.02%)</title><rect x="1107.7" y="197" width="0.2" height="15.0" fill="rgb(210,228,40)" rx="2" ry="2" />
<text  x="1110.72" y="207.5" ></text>
</g>
<g >
<title>uma_zalloc_arg (18,156 samples, 2.49%)</title><rect x="1075.6" y="197" width="29.4" height="15.0" fill="rgb(246,160,5)" rx="2" ry="2" />
<text  x="1078.57" y="207.5" >um..</text>
</g>
<g >
<title>runq_add (65 samples, 0.01%)</title><rect x="75.4" y="181" width="0.1" height="15.0" fill="rgb(222,183,51)" rx="2" ry="2" />
<text  x="78.43" y="191.5" ></text>
</g>
<g >
<title>mlx5_cq_completion (32,600 samples, 4.48%)</title><rect x="15.7" y="197" width="52.9" height="15.0" fill="rgb(252,93,33)" rx="2" ry="2" />
<text  x="18.74" y="207.5" >mlx5_..</text>
</g>
<g >
<title>lkpi_irq_handler (33,370 samples, 4.58%)</title><rect x="14.5" y="245" width="54.1" height="15.0" fill="rgb(236,44,8)" rx="2" ry="2" />
<text  x="17.49" y="255.5" >lkpi_..</text>
</g>
<g >
<title>m_freem (1,070 samples, 0.15%)</title><rect x="1186.6" y="85" width="1.7" height="15.0" fill="rgb(233,44,47)" rx="2" ry="2" />
<text  x="1189.57" y="95.5" ></text>
</g>
<g >
<title>mlx5e_xmit (2,112 samples, 0.29%)</title><rect x="1186.6" y="101" width="3.4" height="15.0" fill="rgb(240,62,45)" rx="2" ry="2" />
<text  x="1189.57" y="111.5" ></text>
</g>
<g >
<title>cpu_search_lowest (4,615 samples, 0.63%)</title><rect x="1114.1" y="181" width="7.5" height="15.0" fill="rgb(253,50,34)" rx="2" ry="2" />
<text  x="1117.13" y="191.5" ></text>
</g>
<g >
<title>netisr_dispatch (448 samples, 0.06%)</title><rect x="195.2" y="197" width="0.8" height="15.0" fill="rgb(235,22,29)" rx="2" ry="2" />
<text  x="198.25" y="207.5" ></text>
</g>
<g >
<title>intr_event_handle (10,094 samples, 1.39%)</title><rect x="1108.9" y="261" width="16.4" height="15.0" fill="rgb(221,76,46)" rx="2" ry="2" />
<text  x="1111.91" y="271.5" ></text>
</g>
<g >
<title>netisr_dispatch (746 samples, 0.10%)</title><rect x="241.6" y="149" width="1.2" height="15.0" fill="rgb(226,107,43)" rx="2" ry="2" />
<text  x="244.59" y="159.5" ></text>
</g>
<g >
<title>rsb_flush (219 samples, 0.03%)</title><rect x="70.4" y="229" width="0.4" height="15.0" fill="rgb(238,228,30)" rx="2" ry="2" />
<text  x="73.41" y="239.5" ></text>
</g>
<g >
<title>_rm_runlock (4,950 samples, 0.68%)</title><rect x="881.7" y="53" width="8.1" height="15.0" fill="rgb(223,48,47)" rx="2" ry="2" />
<text  x="884.75" y="63.5" ></text>
</g>
<g >
<title>ether_nh_input (2,112 samples, 0.29%)</title><rect x="1186.6" y="213" width="3.4" height="15.0" fill="rgb(249,123,26)" rx="2" ry="2" />
<text  x="1189.57" y="223.5" ></text>
</g>
<g >
<title>uma_zfree_arg (6,945 samples, 0.95%)</title><rect x="53.7" y="133" width="11.3" height="15.0" fill="rgb(251,214,18)" rx="2" ry="2" />
<text  x="56.70" y="143.5" ></text>
</g>
<g >
<title>ip_tryforward (2,112 samples, 0.29%)</title><rect x="1186.6" y="149" width="3.4" height="15.0" fill="rgb(207,147,32)" rx="2" ry="2" />
<text  x="1189.57" y="159.5" ></text>
</g>
<g >
<title>ether_input (36,692 samples, 5.04%)</title><rect x="1125.4" y="229" width="59.4" height="15.0" fill="rgb(249,151,39)" rx="2" ry="2" />
<text  x="1128.36" y="239.5" >ether_..</text>
</g>
<g >
<title>mlx5e_xmit (100,129 samples, 13.76%)</title><rect x="400.0" y="69" width="162.3" height="15.0" fill="rgb(235,48,46)" rx="2" ry="2" />
<text  x="403.00" y="79.5" >mlx5e_xmit</text>
</g>
<g >
<title>tscp_get_timecount_low (64 samples, 0.01%)</title><rect x="1185.2" y="229" width="0.1" height="15.0" fill="rgb(249,24,53)" rx="2" ry="2" />
<text  x="1188.16" y="239.5" ></text>
</g>
<g >
<title>memcpy_erms (2,524 samples, 0.35%)</title><rect x="562.3" y="85" width="4.1" height="15.0" fill="rgb(250,64,20)" rx="2" ry="2" />
<text  x="565.32" y="95.5" ></text>
</g>
<g >
<title>ithread_loop (675,664 samples, 92.82%)</title><rect x="12.4" y="261" width="1095.3" height="15.0" fill="rgb(239,52,38)" rx="2" ry="2" />
<text  x="15.41" y="271.5" >ithread_loop</text>
</g>
<g >
<title>cpu_search_lowest (5,287 samples, 0.73%)</title><rect x="1113.0" y="197" width="8.6" height="15.0" fill="rgb(219,148,6)" rx="2" ry="2" />
<text  x="1116.04" y="207.5" ></text>
</g>
<g >
<title>m_free (4,292 samples, 0.59%)</title><rect x="1125.4" y="53" width="6.9" height="15.0" fill="rgb(223,137,27)" rx="2" ry="2" />
<text  x="1128.36" y="63.5" ></text>
</g>
<g >
<title>runq_choose (84 samples, 0.01%)</title><rect x="73.2" y="181" width="0.1" height="15.0" fill="rgb(218,5,19)" rx="2" ry="2" />
<text  x="76.17" y="191.5" ></text>
</g>
<g >
<title>keg_alloc_slab (116 samples, 0.02%)</title><rect x="1105.8" y="149" width="0.2" height="15.0" fill="rgb(220,205,15)" rx="2" ry="2" />
<text  x="1108.82" y="159.5" ></text>
</g>
<g >
<title>lock_delay (74 samples, 0.01%)</title><rect x="1105.8" y="117" width="0.2" height="15.0" fill="rgb(252,178,43)" rx="2" ry="2" />
<text  x="1108.84" y="127.5" ></text>
</g>
<g >
<title>spinlock_exit (135 samples, 0.02%)</title><rect x="74.8" y="213" width="0.2" height="15.0" fill="rgb(235,12,4)" rx="2" ry="2" />
<text  x="77.79" y="223.5" ></text>
</g>
<g >
<title>m_freem (23,746 samples, 3.26%)</title><rect x="26.5" y="165" width="38.5" height="15.0" fill="rgb(233,203,24)" rx="2" ry="2" />
<text  x="29.47" y="175.5" >m_f..</text>
</g>
<g >
<title>in_lltable_lookup (5,113 samples, 0.70%)</title><rect x="376.3" y="69" width="8.3" height="15.0" fill="rgb(254,138,3)" rx="2" ry="2" />
<text  x="379.34" y="79.5" ></text>
</g>
<g >
<title>ether_nh_input (501,270 samples, 68.86%)</title><rect x="206.8" y="181" width="812.5" height="15.0" fill="rgb(214,198,16)" rx="2" ry="2" />
<text  x="209.75" y="191.5" >ether_nh_input</text>
</g>
<g >
<title>mlx5e_xmit (17,046 samples, 2.34%)</title><rect x="1125.4" y="85" width="27.6" height="15.0" fill="rgb(238,207,50)" rx="2" ry="2" />
<text  x="1128.36" y="95.5" >m..</text>
</g>
<g >
<title>_ck_epoch_delref (1,286 samples, 0.18%)</title><rect x="193.2" y="181" width="2.0" height="15.0" fill="rgb(223,166,45)" rx="2" ry="2" />
<text  x="196.16" y="191.5" ></text>
</g>
<g >
<title>timercb (901 samples, 0.12%)</title><rect x="1185.1" y="261" width="1.5" height="15.0" fill="rgb(234,48,41)" rx="2" ry="2" />
<text  x="1188.10" y="271.5" ></text>
</g>
<g >
<title>zone_put_bucket (211 samples, 0.03%)</title><rect x="62.2" y="101" width="0.4" height="15.0" fill="rgb(209,91,14)" rx="2" ry="2" />
<text  x="65.24" y="111.5" ></text>
</g>
<g >
<title>_mtx_lock_spin_cookie (911 samples, 0.13%)</title><rect x="1111.1" y="213" width="1.4" height="15.0" fill="rgb(209,80,18)" rx="2" ry="2" />
<text  x="1114.07" y="223.5" ></text>
</g>
<g >
<title>netisr_dispatch_src (36,692 samples, 5.04%)</title><rect x="1125.4" y="165" width="59.4" height="15.0" fill="rgb(245,67,42)" rx="2" ry="2" />
<text  x="1128.36" y="175.5" >netisr..</text>
</g>
<g >
<title>pmclog_process_callchain (108 samples, 0.01%)</title><rect x="1186.0" y="181" width="0.2" height="15.0" fill="rgb(227,162,45)" rx="2" ry="2" />
<text  x="1188.98" y="191.5" ></text>
</g>
<g >
<title>service_iq_fl (2,112 samples, 0.29%)</title><rect x="1186.6" y="261" width="3.4" height="15.0" fill="rgb(209,86,0)" rx="2" ry="2" />
<text  x="1189.57" y="271.5" ></text>
</g>
<g >
<title>hash_packet (12,607 samples, 1.73%)</title><rect x="989.0" y="37" width="20.4" height="15.0" fill="rgb(221,86,1)" rx="2" ry="2" />
<text  x="991.96" y="47.5" ></text>
</g>
<g >
<title>ether_output_frame (17,046 samples, 2.34%)</title><rect x="1125.4" y="101" width="27.6" height="15.0" fill="rgb(222,226,31)" rx="2" ry="2" />
<text  x="1128.36" y="111.5" >e..</text>
</g>
<g >
<title>mb_dtor_mbuf (397 samples, 0.05%)</title><rect x="1186.6" y="37" width="0.6" height="15.0" fill="rgb(248,33,18)" rx="2" ry="2" />
<text  x="1189.57" y="47.5" ></text>
</g>
<g >
<title>memmove_erms (5,118 samples, 0.70%)</title><rect x="1144.7" y="37" width="8.3" height="15.0" fill="rgb(223,228,44)" rx="2" ry="2" />
<text  x="1147.70" y="47.5" ></text>
</g>
<g >
<title>bus_dmamap_load_mbuf_sg (1,042 samples, 0.14%)</title><rect x="1188.3" y="69" width="1.7" height="15.0" fill="rgb(237,176,43)" rx="2" ry="2" />
<text  x="1191.31" y="79.5" ></text>
</g>
<g >
<title>ipfw_check_packet (238,170 samples, 32.72%)</title><rect x="629.7" y="85" width="386.1" height="15.0" fill="rgb(209,36,54)" rx="2" ry="2" />
<text  x="632.67" y="95.5" >ipfw_check_packet</text>
</g>
<g >
<title>m_freem (2,195 samples, 0.30%)</title><rect x="487.0" y="53" width="3.6" height="15.0" fill="rgb(225,66,53)" rx="2" ry="2" />
<text  x="489.99" y="63.5" ></text>
</g>
<g >
<title>VOP_WRITE_APV (120 samples, 0.02%)</title><rect x="1107.7" y="213" width="0.2" height="15.0" fill="rgb(223,115,34)" rx="2" ry="2" />
<text  x="1110.72" y="223.5" ></text>
</g>
<g >
<title>memmove_erms (22,061 samples, 3.03%)</title><rect x="1039.8" y="197" width="35.8" height="15.0" fill="rgb(253,58,52)" rx="2" ry="2" />
<text  x="1042.80" y="207.5" >mem..</text>
</g>
<g >
<title>spinlock_exit (204 samples, 0.03%)</title><rect x="75.6" y="245" width="0.4" height="15.0" fill="rgb(254,190,6)" rx="2" ry="2" />
<text  x="78.63" y="255.5" ></text>
</g>
<g >
<title>all (727,913 samples, 100%)</title><rect x="10.0" y="293" width="1180.0" height="15.0" fill="rgb(246,94,8)" rx="2" ry="2" />
<text  x="13.00" y="303.5" ></text>
</g>
<g >
<title>__mtx_lock_sleep (80 samples, 0.01%)</title><rect x="1105.8" y="133" width="0.2" height="15.0" fill="rgb(225,64,38)" rx="2" ry="2" />
<text  x="1108.83" y="143.5" ></text>
</g>
<g >
<title>service_iq_fl (36,692 samples, 5.04%)</title><rect x="1125.4" y="245" width="59.4" height="15.0" fill="rgb(214,33,45)" rx="2" ry="2" />
<text  x="1128.36" y="255.5" >servic..</text>
</g>
<g >
<title>_epoch_exit_preempt (7,888 samples, 1.08%)</title><rect x="182.5" y="197" width="12.7" height="15.0" fill="rgb(222,68,1)" rx="2" ry="2" />
<text  x="185.46" y="207.5" ></text>
</g>
<g >
<title>jenkins_hash32 (10,304 samples, 1.42%)</title><rect x="1168.1" y="37" width="16.7" height="15.0" fill="rgb(208,229,23)" rx="2" ry="2" />
<text  x="1171.14" y="47.5" ></text>
</g>
<g >
<title>_ck_epoch_addref (2,030 samples, 0.28%)</title><rect x="179.2" y="181" width="3.3" height="15.0" fill="rgb(209,56,31)" rx="2" ry="2" />
<text  x="182.17" y="191.5" ></text>
</g>
<g >
<title>service_iq_fl (635,435 samples, 87.30%)</title><rect x="76.0" y="229" width="1030.1" height="15.0" fill="rgb(218,219,26)" rx="2" ry="2" />
<text  x="78.97" y="239.5" >service_iq_fl</text>
</g>
<g >
<title>vn_write (121 samples, 0.02%)</title><rect x="1107.7" y="229" width="0.2" height="15.0" fill="rgb(206,139,12)" rx="2" ry="2" />
<text  x="1110.72" y="239.5" ></text>
</g>
<g >
<title>mb_dtor_mbuf (485 samples, 0.07%)</title><rect x="62.6" y="117" width="0.8" height="15.0" fill="rgb(234,102,33)" rx="2" ry="2" />
<text  x="65.58" y="127.5" ></text>
</g>
<g >
<title>tdq_add (107 samples, 0.01%)</title><rect x="75.4" y="197" width="0.1" height="15.0" fill="rgb(218,226,45)" rx="2" ry="2" />
<text  x="78.36" y="207.5" ></text>
</g>
<g >
<title>sched_add (7,349 samples, 1.01%)</title><rect x="1110.6" y="229" width="11.9" height="15.0" fill="rgb(212,147,47)" rx="2" ry="2" />
<text  x="1113.58" y="239.5" ></text>
</g>
<g >
<title>lapic_et_start (94 samples, 0.01%)</title><rect x="1186.3" y="229" width="0.2" height="15.0" fill="rgb(232,81,43)" rx="2" ry="2" />
<text  x="1189.32" y="239.5" ></text>
</g>
<g >
<title>fib4_lookup (16,831 samples, 2.31%)</title><rect x="580.9" y="85" width="27.3" height="15.0" fill="rgb(248,74,24)" rx="2" ry="2" />
<text  x="583.90" y="95.5" >f..</text>
</g>
<g >
<title>mlx5e_get_cqe (2,238 samples, 0.31%)</title><rect x="65.0" y="165" width="3.6" height="15.0" fill="rgb(224,205,33)" rx="2" ry="2" />
<text  x="67.96" y="175.5" ></text>
</g>
<g >
<title>netisr_dispatch (217 samples, 0.03%)</title><rect x="1105.0" y="213" width="0.4" height="15.0" fill="rgb(245,40,19)" rx="2" ry="2" />
<text  x="1108.00" y="223.5" ></text>
</g>
<g >
<title>pmap_activate_sw (208 samples, 0.03%)</title><rect x="70.0" y="213" width="0.4" height="15.0" fill="rgb(224,202,22)" rx="2" ry="2" />
<text  x="73.02" y="223.5" ></text>
</g>
<g >
<title>pfil_run_hooks (251,424 samples, 34.54%)</title><rect x="608.2" y="101" width="407.6" height="15.0" fill="rgb(216,63,24)" rx="2" ry="2" />
<text  x="611.19" y="111.5" >pfil_run_hooks</text>
</g>
<g >
<title>mlx5e_sq_xmit (12,754 samples, 1.75%)</title><rect x="1132.3" y="69" width="20.7" height="15.0" fill="rgb(225,51,6)" rx="2" ry="2" />
<text  x="1135.32" y="79.5" ></text>
</g>
<g >
<title>mlx5_msix_handler (33,345 samples, 4.58%)</title><rect x="14.5" y="229" width="54.1" height="15.0" fill="rgb(243,141,16)" rx="2" ry="2" />
<text  x="17.53" y="239.5" >mlx5_..</text>
</g>
<g >
<title>runq_add (167 samples, 0.02%)</title><rect x="1121.8" y="197" width="0.3" height="15.0" fill="rgb(225,127,47)" rx="2" ry="2" />
<text  x="1124.81" y="207.5" ></text>
</g>
<g >
<title>cpu_search_highest (74 samples, 0.01%)</title><rect x="1108.2" y="245" width="0.2" height="15.0" fill="rgb(229,54,16)" rx="2" ry="2" />
<text  x="1111.23" y="255.5" ></text>
</g>
<g >
<title>m_free (1,070 samples, 0.15%)</title><rect x="1186.6" y="69" width="1.7" height="15.0" fill="rgb(222,227,47)" rx="2" ry="2" />
<text  x="1189.57" y="79.5" ></text>
</g>
<g >
<title>pmap_kextract (981 samples, 0.13%)</title><rect x="63.4" y="117" width="1.6" height="15.0" fill="rgb(240,155,20)" rx="2" ry="2" />
<text  x="66.37" y="127.5" ></text>
</g>
<g >
<title>_mtx_lock_spin_cookie (321 samples, 0.04%)</title><rect x="72.3" y="213" width="0.5" height="15.0" fill="rgb(243,84,49)" rx="2" ry="2" />
<text  x="75.26" y="223.5" ></text>
</g>
<g >
<title>cache_alloc (344 samples, 0.05%)</title><rect x="1039.2" y="181" width="0.6" height="15.0" fill="rgb(205,127,42)" rx="2" ry="2" />
<text  x="1042.21" y="191.5" ></text>
</g>
<g >
<title>runq_remove (62 samples, 0.01%)</title><rect x="75.3" y="181" width="0.1" height="15.0" fill="rgb(229,192,11)" rx="2" ry="2" />
<text  x="78.26" y="191.5" ></text>
</g>
<g >
<title>mlx5e_get_l2_header_size (1,921 samples, 0.26%)</title><rect x="556.5" y="37" width="3.1" height="15.0" fill="rgb(219,148,22)" rx="2" ry="2" />
<text  x="559.46" y="47.5" ></text>
</g>
<g >
<title>ether_output (2,112 samples, 0.29%)</title><rect x="1186.6" y="133" width="3.4" height="15.0" fill="rgb(234,184,35)" rx="2" ry="2" />
<text  x="1189.57" y="143.5" ></text>
</g>
<g >
<title>cpu_switch (884 samples, 0.12%)</title><rect x="68.9" y="229" width="1.5" height="15.0" fill="rgb(236,23,50)" rx="2" ry="2" />
<text  x="71.93" y="239.5" ></text>
</g>
<g >
<title>pmclog_loop (121 samples, 0.02%)</title><rect x="1107.7" y="261" width="0.2" height="15.0" fill="rgb(231,143,10)" rx="2" ry="2" />
<text  x="1110.72" y="271.5" ></text>
</g>
<g >
<title>thread_lock_flags_ (1,611 samples, 0.22%)</title><rect x="1122.6" y="229" width="2.6" height="15.0" fill="rgb(227,130,11)" rx="2" ry="2" />
<text  x="1125.62" y="239.5" ></text>
</g>
<g >
<title>ether_demux (2,112 samples, 0.29%)</title><rect x="1186.6" y="197" width="3.4" height="15.0" fill="rgb(225,209,36)" rx="2" ry="2" />
<text  x="1189.57" y="207.5" ></text>
</g>
<g >
<title>lapic_handle_timer (1,000 samples, 0.14%)</title><rect x="1184.9" y="277" width="1.7" height="15.0" fill="rgb(254,50,27)" rx="2" ry="2" />
<text  x="1187.94" y="287.5" ></text>
</g>
</g>
</svg>
