<?xml version="1.0" standalone="no"?>
<!DOCTYPE svg PUBLIC "-//W3C//DTD SVG 1.1//EN" "http://www.w3.org/Graphics/SVG/1.1/DTD/svg11.dtd">
<svg version="1.1" width="1200" height="342" onload="init(evt)" viewBox="0 0 1200 342" xmlns="http://www.w3.org/2000/svg" xmlns:xlink="http://www.w3.org/1999/xlink">
<!-- Flame graph stack visualization. See https://github.com/brendangregg/FlameGraph for latest version, and http://www.brendangregg.com/flamegraphs.html for examples. -->
<!-- NOTES:  -->
<defs>
	<linearGradient id="background" y1="0" y2="1" x1="0" x2="0" >
		<stop stop-color="#eeeeee" offset="5%" />
		<stop stop-color="#eeeeb0" offset="95%" />
	</linearGradient>
</defs>
<style type="text/css">
	text { font-family:Verdana; font-size:12px; fill:rgb(0,0,0); }
	#search, #ignorecase { opacity:0.1; cursor:pointer; }
	#search:hover, #search.show, #ignorecase:hover, #ignorecase.show { opacity:1; }
	#subtitle { text-anchor:middle; font-color:rgb(160,160,160); }
	#title { text-anchor:middle; font-size:17px}
	#unzoom { cursor:pointer; }
	#frames > *:hover { stroke:black; stroke-width:0.5; cursor:pointer; }
	.hide { display:none; }
	.parent { opacity:0.5; }
</style>
<script type="text/ecmascript">
<![CDATA[
	"use strict";
	var details, searchbtn, unzoombtn, matchedtxt, svg, searching, currentSearchTerm, ignorecase, ignorecaseBtn;
	function init(evt) {
		details = document.getElementById("details").firstChild;
		searchbtn = document.getElementById("search");
		ignorecaseBtn = document.getElementById("ignorecase");
		unzoombtn = document.getElementById("unzoom");
		matchedtxt = document.getElementById("matched");
		svg = document.getElementsByTagName("svg")[0];
		searching = 0;
		currentSearchTerm = null;

		// use GET parameters to restore a flamegraphs state.
		var params = get_params();
		if (params.x && params.y)
			zoom(find_group(document.querySelector('[x="' + params.x + '"][y="' + params.y + '"]')));
                if (params.s) search(params.s);
	}

	// event listeners
	window.addEventListener("click", function(e) {
		var target = find_group(e.target);
		if (target) {
			if (target.nodeName == "a") {
				if (e.ctrlKey === false) return;
				e.preventDefault();
			}
			if (target.classList.contains("parent")) unzoom();
			zoom(target);
			if (!document.querySelector('.parent')) {
				clearzoom();
				return;
			}

			// set parameters for zoom state
			var el = target.querySelector("rect");
			if (el && el.attributes && el.attributes.y && el.attributes._orig_x) {
				var params = get_params()
				params.x = el.attributes._orig_x.value;
				params.y = el.attributes.y.value;
				history.replaceState(null, null, parse_params(params));
			}
		}
		else if (e.target.id == "unzoom") clearzoom();
		else if (e.target.id == "search") search_prompt();
		else if (e.target.id == "ignorecase") toggle_ignorecase();
	}, false)

	// mouse-over for info
	// show
	window.addEventListener("mouseover", function(e) {
		var target = find_group(e.target);
		if (target) details.nodeValue = "Function: " + g_to_text(target);
	}, false)

	// clear
	window.addEventListener("mouseout", function(e) {
		var target = find_group(e.target);
		if (target) details.nodeValue = ' ';
	}, false)

	// ctrl-F for search
	// ctrl-I to toggle case-sensitive search
	window.addEventListener("keydown",function (e) {
		if (e.keyCode === 114 || (e.ctrlKey && e.keyCode === 70)) {
			e.preventDefault();
			search_prompt();
		}
		else if (e.ctrlKey && e.keyCode === 73) {
			e.preventDefault();
			toggle_ignorecase();
		}
	}, false)

	// functions
	function get_params() {
		var params = {};
		var paramsarr = window.location.search.substr(1).split('&');
		for (var i = 0; i < paramsarr.length; ++i) {
			var tmp = paramsarr[i].split("=");
			if (!tmp[0] || !tmp[1]) continue;
			params[tmp[0]]  = decodeURIComponent(tmp[1]);
		}
		return params;
	}
	function parse_params(params) {
		var uri = "?";
		for (var key in params) {
			uri += key + '=' + encodeURIComponent(params[key]) + '&';
		}
		if (uri.slice(-1) == "&")
			uri = uri.substring(0, uri.length - 1);
		if (uri == '?')
			uri = window.location.href.split('?')[0];
		return uri;
	}
	function find_child(node, selector) {
		var children = node.querySelectorAll(selector);
		if (children.length) return children[0];
	}
	function find_group(node) {
		var parent = node.parentElement;
		if (!parent) return;
		if (parent.id == "frames") return node;
		return find_group(parent);
	}
	function orig_save(e, attr, val) {
		if (e.attributes["_orig_" + attr] != undefined) return;
		if (e.attributes[attr] == undefined) return;
		if (val == undefined) val = e.attributes[attr].value;
		e.setAttribute("_orig_" + attr, val);
	}
	function orig_load(e, attr) {
		if (e.attributes["_orig_"+attr] == undefined) return;
		e.attributes[attr].value = e.attributes["_orig_" + attr].value;
		e.removeAttribute("_orig_"+attr);
	}
	function g_to_text(e) {
		var text = find_child(e, "title").firstChild.nodeValue;
		return (text)
	}
	function g_to_func(e) {
		var func = g_to_text(e);
		// if there's any manipulation we want to do to the function
		// name before it's searched, do it here before returning.
		return (func);
	}
	function update_text(e) {
		var r = find_child(e, "rect");
		var t = find_child(e, "text");
		var w = parseFloat(r.attributes.width.value) -3;
		var txt = find_child(e, "title").textContent.replace(/\([^(]*\)$/,"");
		t.attributes.x.value = parseFloat(r.attributes.x.value) + 3;

		// Smaller than this size won't fit anything
		if (w < 2 * 12 * 0.59) {
			t.textContent = "";
			return;
		}

		t.textContent = txt;
		// Fit in full text width
		if (/^ *$/.test(txt) || t.getSubStringLength(0, txt.length) < w)
			return;

		for (var x = txt.length - 2; x > 0; x--) {
			if (t.getSubStringLength(0, x + 2) <= w) {
				t.textContent = txt.substring(0, x) + "..";
				return;
			}
		}
		t.textContent = "";
	}

	// zoom
	function zoom_reset(e) {
		if (e.attributes != undefined) {
			orig_load(e, "x");
			orig_load(e, "width");
		}
		if (e.childNodes == undefined) return;
		for (var i = 0, c = e.childNodes; i < c.length; i++) {
			zoom_reset(c[i]);
		}
	}
	function zoom_child(e, x, ratio) {
		if (e.attributes != undefined) {
			if (e.attributes.x != undefined) {
				orig_save(e, "x");
				e.attributes.x.value = (parseFloat(e.attributes.x.value) - x - 10) * ratio + 10;
				if (e.tagName == "text")
					e.attributes.x.value = find_child(e.parentNode, "rect[x]").attributes.x.value + 3;
			}
			if (e.attributes.width != undefined) {
				orig_save(e, "width");
				e.attributes.width.value = parseFloat(e.attributes.width.value) * ratio;
			}
		}

		if (e.childNodes == undefined) return;
		for (var i = 0, c = e.childNodes; i < c.length; i++) {
			zoom_child(c[i], x - 10, ratio);
		}
	}
	function zoom_parent(e) {
		if (e.attributes) {
			if (e.attributes.x != undefined) {
				orig_save(e, "x");
				e.attributes.x.value = 10;
			}
			if (e.attributes.width != undefined) {
				orig_save(e, "width");
				e.attributes.width.value = parseInt(svg.width.baseVal.value) - (10 * 2);
			}
		}
		if (e.childNodes == undefined) return;
		for (var i = 0, c = e.childNodes; i < c.length; i++) {
			zoom_parent(c[i]);
		}
	}
	function zoom(node) {
		var attr = find_child(node, "rect").attributes;
		var width = parseFloat(attr.width.value);
		var xmin = parseFloat(attr.x.value);
		var xmax = parseFloat(xmin + width);
		var ymin = parseFloat(attr.y.value);
		var ratio = (svg.width.baseVal.value - 2 * 10) / width;

		// XXX: Workaround for JavaScript float issues (fix me)
		var fudge = 0.0001;

		unzoombtn.classList.remove("hide");

		var el = document.getElementById("frames").children;
		for (var i = 0; i < el.length; i++) {
			var e = el[i];
			var a = find_child(e, "rect").attributes;
			var ex = parseFloat(a.x.value);
			var ew = parseFloat(a.width.value);
			var upstack;
			// Is it an ancestor
			if (0 == 0) {
				upstack = parseFloat(a.y.value) > ymin;
			} else {
				upstack = parseFloat(a.y.value) < ymin;
			}
			if (upstack) {
				// Direct ancestor
				if (ex <= xmin && (ex+ew+fudge) >= xmax) {
					e.classList.add("parent");
					zoom_parent(e);
					update_text(e);
				}
				// not in current path
				else
					e.classList.add("hide");
			}
			// Children maybe
			else {
				// no common path
				if (ex < xmin || ex + fudge >= xmax) {
					e.classList.add("hide");
				}
				else {
					zoom_child(e, xmin, ratio);
					update_text(e);
				}
			}
		}
		search();
	}
	function unzoom() {
		unzoombtn.classList.add("hide");
		var el = document.getElementById("frames").children;
		for(var i = 0; i < el.length; i++) {
			el[i].classList.remove("parent");
			el[i].classList.remove("hide");
			zoom_reset(el[i]);
			update_text(el[i]);
		}
		search();
	}
	function clearzoom() {
		unzoom();

		// remove zoom state
		var params = get_params();
		if (params.x) delete params.x;
		if (params.y) delete params.y;
		history.replaceState(null, null, parse_params(params));
	}

	// search
	function toggle_ignorecase() {
		ignorecase = !ignorecase;
		if (ignorecase) {
			ignorecaseBtn.classList.add("show");
		} else {
			ignorecaseBtn.classList.remove("show");
		}
		reset_search();
		search();
	}
	function reset_search() {
		var el = document.querySelectorAll("#frames rect");
		for (var i = 0; i < el.length; i++) {
			orig_load(el[i], "fill")
		}
		var params = get_params();
		delete params.s;
		history.replaceState(null, null, parse_params(params));
	}
	function search_prompt() {
		if (!searching) {
			var term = prompt("Enter a search term (regexp " +
			    "allowed, eg: ^ext4_)"
			    + (ignorecase ? ", ignoring case" : "")
			    + "\nPress Ctrl-i to toggle case sensitivity", "");
			if (term != null) search(term);
		} else {
			reset_search();
			searching = 0;
			currentSearchTerm = null;
			searchbtn.classList.remove("show");
			searchbtn.firstChild.nodeValue = "Search"
			matchedtxt.classList.add("hide");
			matchedtxt.firstChild.nodeValue = ""
		}
	}
	function search(term) {
		if (term) currentSearchTerm = term;

		var re = new RegExp(currentSearchTerm, ignorecase ? 'i' : '');
		var el = document.getElementById("frames").children;
		var matches = new Object();
		var maxwidth = 0;
		for (var i = 0; i < el.length; i++) {
			var e = el[i];
			var func = g_to_func(e);
			var rect = find_child(e, "rect");
			if (func == null || rect == null)
				continue;

			// Save max width. Only works as we have a root frame
			var w = parseFloat(rect.attributes.width.value);
			if (w > maxwidth)
				maxwidth = w;

			if (func.match(re)) {
				// highlight
				var x = parseFloat(rect.attributes.x.value);
				orig_save(rect, "fill");
				rect.attributes.fill.value = "rgb(230,0,230)";

				// remember matches
				if (matches[x] == undefined) {
					matches[x] = w;
				} else {
					if (w > matches[x]) {
						// overwrite with parent
						matches[x] = w;
					}
				}
				searching = 1;
			}
		}
		if (!searching)
			return;
		var params = get_params();
		params.s = currentSearchTerm;
		history.replaceState(null, null, parse_params(params));

		searchbtn.classList.add("show");
		searchbtn.firstChild.nodeValue = "Reset Search";

		// calculate percent matched, excluding vertical overlap
		var count = 0;
		var lastx = -1;
		var lastw = 0;
		var keys = Array();
		for (k in matches) {
			if (matches.hasOwnProperty(k))
				keys.push(k);
		}
		// sort the matched frames by their x location
		// ascending, then width descending
		keys.sort(function(a, b){
			return a - b;
		});
		// Step through frames saving only the biggest bottom-up frames
		// thanks to the sort order. This relies on the tree property
		// where children are always smaller than their parents.
		var fudge = 0.0001;	// JavaScript floating point
		for (var k in keys) {
			var x = parseFloat(keys[k]);
			var w = matches[keys[k]];
			if (x >= lastx + lastw - fudge) {
				count += w;
				lastx = x;
				lastw = w;
			}
		}
		// display matched percent
		matchedtxt.classList.remove("hide");
		var pct = 100 * count / maxwidth;
		if (pct != 100) pct = pct.toFixed(1)
		matchedtxt.firstChild.nodeValue = "Matched: " + pct + "%";
	}
]]>
</script>
<rect x="0.0" y="0" width="1200.0" height="342.0" fill="url(#background)"  />
<text id="title" x="600.00" y="24" >Flame Graph</text>
<text id="details" x="10.00" y="325" > </text>
<text id="unzoom" x="10.00" y="24" class="hide">Reset Zoom</text>
<text id="search" x="1090.00" y="24" >Search</text>
<text id="ignorecase" x="1174.00" y="24" >ic</text>
<text id="matched" x="1090.00" y="325" > </text>
<g id="frames">
<g >
<title>pmap_kextract (720 samples, 0.10%)</title><rect x="51.3" y="117" width="1.2" height="15.0" fill="rgb(208,126,23)" rx="2" ry="2" />
<text  x="54.33" y="127.5" ></text>
</g>
<g >
<title>_thread_lock (347 samples, 0.05%)</title><rect x="1103.2" y="229" width="0.6" height="15.0" fill="rgb(245,7,35)" rx="2" ry="2" />
<text  x="1106.20" y="239.5" ></text>
</g>
<g >
<title>thread_lock_flags_ (1,139 samples, 0.16%)</title><rect x="1112.7" y="229" width="1.9" height="15.0" fill="rgb(250,24,46)" rx="2" ry="2" />
<text  x="1115.68" y="239.5" ></text>
</g>
<g >
<title>_rm_runlock (2,437 samples, 0.34%)</title><rect x="519.2" y="85" width="4.0" height="15.0" fill="rgb(208,82,9)" rx="2" ry="2" />
<text  x="522.16" y="95.5" ></text>
</g>
<g >
<title>m_freem (18,546 samples, 2.58%)</title><rect x="22.0" y="165" width="30.5" height="15.0" fill="rgb(241,88,38)" rx="2" ry="2" />
<text  x="25.03" y="175.5" >m_..</text>
</g>
<g >
<title>cpu_search_lowest (3,930 samples, 0.55%)</title><rect x="1105.4" y="197" width="6.5" height="15.0" fill="rgb(206,181,31)" rx="2" ry="2" />
<text  x="1108.44" y="207.5" ></text>
</g>
<g >
<title>lock_delay (88 samples, 0.01%)</title><rect x="1099.9" y="117" width="0.2" height="15.0" fill="rgb(217,20,5)" rx="2" ry="2" />
<text  x="1102.95" y="127.5" ></text>
</g>
<g >
<title>nd6_resolve (20,478 samples, 2.85%)</title><rect x="465.3" y="85" width="33.6" height="15.0" fill="rgb(250,93,19)" rx="2" ry="2" />
<text  x="468.27" y="95.5" >nd..</text>
</g>
<g >
<title>cache_alloc_retry (165 samples, 0.02%)</title><rect x="1099.9" y="197" width="0.3" height="15.0" fill="rgb(226,173,22)" rx="2" ry="2" />
<text  x="1102.92" y="207.5" ></text>
</g>
<g >
<title>intr_event_handle (7,329 samples, 1.02%)</title><rect x="1102.5" y="261" width="12.1" height="15.0" fill="rgb(223,5,30)" rx="2" ry="2" />
<text  x="1105.53" y="271.5" ></text>
</g>
<g >
<title>netisr_dispatch (219 samples, 0.03%)</title><rect x="1099.2" y="213" width="0.3" height="15.0" fill="rgb(214,54,13)" rx="2" ry="2" />
<text  x="1102.17" y="223.5" ></text>
</g>
<g >
<title>sched_switch (2,186 samples, 0.30%)</title><rect x="57.0" y="229" width="3.6" height="15.0" fill="rgb(228,151,1)" rx="2" ry="2" />
<text  x="59.98" y="239.5" ></text>
</g>
<g >
<title>mlx5_eq_int (25,679 samples, 3.58%)</title><rect x="13.3" y="213" width="42.2" height="15.0" fill="rgb(235,102,21)" rx="2" ry="2" />
<text  x="16.28" y="223.5" >mlx..</text>
</g>
<g >
<title>_epoch_enter_preempt (257 samples, 0.04%)</title><rect x="12.4" y="245" width="0.4" height="15.0" fill="rgb(238,78,5)" rx="2" ry="2" />
<text  x="15.39" y="255.5" ></text>
</g>
<g >
<title>mlx5_msix_handler (25,738 samples, 3.59%)</title><rect x="13.2" y="229" width="42.3" height="15.0" fill="rgb(205,48,44)" rx="2" ry="2" />
<text  x="16.18" y="239.5" >mlx..</text>
</g>
<g >
<title>cache_alloc (165 samples, 0.02%)</title><rect x="1099.9" y="181" width="0.3" height="15.0" fill="rgb(218,70,5)" rx="2" ry="2" />
<text  x="1102.92" y="191.5" ></text>
</g>
<g >
<title>_mtx_lock_spin_cookie (234 samples, 0.03%)</title><rect x="58.1" y="213" width="0.3" height="15.0" fill="rgb(227,229,20)" rx="2" ry="2" />
<text  x="61.06" y="223.5" ></text>
</g>
<g >
<title>rn_match (30,364 samples, 4.23%)</title><rect x="544.9" y="53" width="49.9" height="15.0" fill="rgb(209,22,13)" rx="2" ry="2" />
<text  x="547.89" y="63.5" >rn_ma..</text>
</g>
<g >
<title>ffs_balloc_ufs2 (90 samples, 0.01%)</title><rect x="1101.6" y="181" width="0.1" height="15.0" fill="rgb(232,11,45)" rx="2" ry="2" />
<text  x="1104.59" y="191.5" ></text>
</g>
<g >
<title>lock_delay (995 samples, 0.14%)</title><rect x="1112.9" y="213" width="1.6" height="15.0" fill="rgb(246,224,16)" rx="2" ry="2" />
<text  x="1115.87" y="223.5" ></text>
</g>
<g >
<title>netisr_dispatch_src (491,160 samples, 68.43%)</title><rect x="211.3" y="149" width="807.5" height="15.0" fill="rgb(210,52,10)" rx="2" ry="2" />
<text  x="214.34" y="159.5" >netisr_dispatch_src</text>
</g>
<g >
<title>service_iq_fl (2,018 samples, 0.28%)</title><rect x="1186.7" y="261" width="3.3" height="15.0" fill="rgb(233,102,18)" rx="2" ry="2" />
<text  x="1189.68" y="271.5" ></text>
</g>
<g >
<title>runq_choose (62 samples, 0.01%)</title><rect x="58.7" y="181" width="0.2" height="15.0" fill="rgb(235,212,17)" rx="2" ry="2" />
<text  x="61.75" y="191.5" ></text>
</g>
<g >
<title>service_iq_fl (632,276 samples, 88.09%)</title><rect x="60.8" y="229" width="1039.4" height="15.0" fill="rgb(229,77,28)" rx="2" ry="2" />
<text  x="63.80" y="239.5" >service_iq_fl</text>
</g>
<g >
<title>thread_lock_flags_ (791 samples, 0.11%)</title><rect x="1100.2" y="245" width="1.3" height="15.0" fill="rgb(212,61,7)" rx="2" ry="2" />
<text  x="1103.23" y="255.5" ></text>
</g>
<g >
<title>spinlock_exit (62 samples, 0.01%)</title><rect x="1112.6" y="229" width="0.1" height="15.0" fill="rgb(222,89,6)" rx="2" ry="2" />
<text  x="1115.58" y="239.5" ></text>
</g>
<g >
<title>sched_choose (255 samples, 0.04%)</title><rect x="58.5" y="197" width="0.4" height="15.0" fill="rgb(253,67,39)" rx="2" ry="2" />
<text  x="61.48" y="207.5" ></text>
</g>
<g >
<title>ipfw_chk (225,615 samples, 31.43%)</title><rect x="641.9" y="69" width="370.9" height="15.0" fill="rgb(215,172,31)" rx="2" ry="2" />
<text  x="644.88" y="79.5" >ipfw_chk</text>
</g>
<g >
<title>choosethread (273 samples, 0.04%)</title><rect x="58.4" y="213" width="0.5" height="15.0" fill="rgb(205,227,14)" rx="2" ry="2" />
<text  x="61.45" y="223.5" ></text>
</g>
<g >
<title>netisr_dispatch_src (42,900 samples, 5.98%)</title><rect x="1114.7" y="165" width="70.5" height="15.0" fill="rgb(233,161,36)" rx="2" ry="2" />
<text  x="1117.66" y="175.5" >netisr_..</text>
</g>
<g >
<title>mlx5_cq_completion (25,169 samples, 3.51%)</title><rect x="14.1" y="197" width="41.4" height="15.0" fill="rgb(232,37,9)" rx="2" ry="2" />
<text  x="17.12" y="207.5" >mlx..</text>
</g>
<g >
<title>pfil_run_hooks (256,517 samples, 35.74%)</title><rect x="597.1" y="101" width="421.7" height="15.0" fill="rgb(244,221,42)" rx="2" ry="2" />
<text  x="600.09" y="111.5" >pfil_run_hooks</text>
</g>
<g >
<title>bucket_alloc (74 samples, 0.01%)</title><rect x="50.3" y="101" width="0.2" height="15.0" fill="rgb(246,192,15)" rx="2" ry="2" />
<text  x="53.34" y="111.5" ></text>
</g>
<g >
<title>in6_localip (14,946 samples, 2.08%)</title><rect x="498.9" y="101" width="24.6" height="15.0" fill="rgb(210,166,40)" rx="2" ry="2" />
<text  x="501.93" y="111.5" >i..</text>
</g>
<g >
<title>Xtimerint_pti (179 samples, 0.02%)</title><rect x="11.4" y="277" width="0.3" height="15.0" fill="rgb(208,179,13)" rx="2" ry="2" />
<text  x="14.40" y="287.5" ></text>
</g>
<g >
<title>ether_demux (502,422 samples, 70.00%)</title><rect x="192.8" y="165" width="826.0" height="15.0" fill="rgb(212,80,40)" rx="2" ry="2" />
<text  x="195.83" y="175.5" >ether_demux</text>
</g>
<g >
<title>ipfw_dyn_lookup_state (27,979 samples, 3.90%)</title><rect x="1139.2" y="69" width="46.0" height="15.0" fill="rgb(234,206,22)" rx="2" ry="2" />
<text  x="1142.19" y="79.5" >ipfw..</text>
</g>
<g >
<title>refill_fl (429 samples, 0.06%)</title><rect x="1099.5" y="213" width="0.7" height="15.0" fill="rgb(215,35,38)" rx="2" ry="2" />
<text  x="1102.53" y="223.5" ></text>
</g>
<g >
<title>sched_pickcpu (4,153 samples, 0.58%)</title><rect x="1105.1" y="213" width="6.8" height="15.0" fill="rgb(252,62,35)" rx="2" ry="2" />
<text  x="1108.08" y="223.5" ></text>
</g>
<g >
<title>ether_input (543,748 samples, 75.75%)</title><rect x="128.2" y="213" width="893.9" height="15.0" fill="rgb(246,22,25)" rx="2" ry="2" />
<text  x="131.16" y="223.5" >ether_input</text>
</g>
<g >
<title>get_scatter_segment (46,900 samples, 6.53%)</title><rect x="1022.1" y="213" width="77.1" height="15.0" fill="rgb(209,0,6)" rx="2" ry="2" />
<text  x="1025.07" y="223.5" >get_scat..</text>
</g>
<g >
<title>mlx5e_sq_xmit (790 samples, 0.11%)</title><rect x="1188.7" y="85" width="1.3" height="15.0" fill="rgb(217,219,8)" rx="2" ry="2" />
<text  x="1191.70" y="95.5" ></text>
</g>
<g >
<title>_ck_epoch_delref (1,103 samples, 0.15%)</title><rect x="165.3" y="181" width="1.8" height="15.0" fill="rgb(236,200,26)" rx="2" ry="2" />
<text  x="168.32" y="191.5" ></text>
</g>
<g >
<title>bus_dmamap_load_mbuf_sg (6,062 samples, 0.84%)</title><rect x="1122.8" y="53" width="10.0" height="15.0" fill="rgb(215,97,38)" rx="2" ry="2" />
<text  x="1125.85" y="63.5" ></text>
</g>
<g >
<title>lock_delay (211 samples, 0.03%)</title><rect x="58.1" y="197" width="0.3" height="15.0" fill="rgb(236,79,1)" rx="2" ry="2" />
<text  x="61.10" y="207.5" ></text>
</g>
<g >
<title>mlx5e_sq_xmit (34,064 samples, 4.75%)</title><rect x="405.2" y="53" width="56.0" height="15.0" fill="rgb(209,197,13)" rx="2" ry="2" />
<text  x="408.17" y="63.5" >mlx5e..</text>
</g>
<g >
<title>sched_idletd (268 samples, 0.04%)</title><rect x="1101.8" y="261" width="0.4" height="15.0" fill="rgb(232,31,50)" rx="2" ry="2" />
<text  x="1104.78" y="271.5" ></text>
</g>
<g >
<title>ether_input (2,018 samples, 0.28%)</title><rect x="1186.7" y="245" width="3.3" height="15.0" fill="rgb(254,61,52)" rx="2" ry="2" />
<text  x="1189.68" y="255.5" ></text>
</g>
<g >
<title>zone_put_bucket (151 samples, 0.02%)</title><rect x="50.5" y="101" width="0.2" height="15.0" fill="rgb(210,111,7)" rx="2" ry="2" />
<text  x="53.47" y="111.5" ></text>
</g>
<g >
<title>__mtx_lock_sleep (90 samples, 0.01%)</title><rect x="1099.9" y="133" width="0.2" height="15.0" fill="rgb(253,206,15)" rx="2" ry="2" />
<text  x="1102.94" y="143.5" ></text>
</g>
<g >
<title>ffs_write (146 samples, 0.02%)</title><rect x="1101.5" y="197" width="0.3" height="15.0" fill="rgb(250,168,4)" rx="2" ry="2" />
<text  x="1104.53" y="207.5" ></text>
</g>
<g >
<title>intr_execute_handlers (7,457 samples, 1.04%)</title><rect x="1102.3" y="277" width="12.3" height="15.0" fill="rgb(212,64,10)" rx="2" ry="2" />
<text  x="1105.33" y="287.5" ></text>
</g>
<g >
<title>jenkins_hash32 (21,687 samples, 3.02%)</title><rect x="1139.2" y="37" width="35.6" height="15.0" fill="rgb(219,132,41)" rx="2" ry="2" />
<text  x="1142.19" y="47.5" >jen..</text>
</g>
<g >
<title>mlx5e_get_cqe (1,809 samples, 0.25%)</title><rect x="52.5" y="165" width="3.0" height="15.0" fill="rgb(217,219,36)" rx="2" ry="2" />
<text  x="55.52" y="175.5" ></text>
</g>
<g >
<title>tdq_add (188 samples, 0.03%)</title><rect x="1112.0" y="213" width="0.3" height="15.0" fill="rgb(207,216,41)" rx="2" ry="2" />
<text  x="1114.96" y="223.5" ></text>
</g>
<g >
<title>mlx5e_get_l2_header_size (1,614 samples, 0.22%)</title><rect x="456.5" y="37" width="2.6" height="15.0" fill="rgb(233,136,6)" rx="2" ry="2" />
<text  x="459.49" y="47.5" ></text>
</g>
<g >
<title>m_copydata (3,859 samples, 0.54%)</title><rect x="1132.8" y="53" width="6.4" height="15.0" fill="rgb(212,36,34)" rx="2" ry="2" />
<text  x="1135.81" y="63.5" ></text>
</g>
<g >
<title>dyn_update_proto_state (9,903 samples, 1.38%)</title><rect x="948.9" y="37" width="16.3" height="15.0" fill="rgb(240,108,6)" rx="2" ry="2" />
<text  x="951.92" y="47.5" ></text>
</g>
<g >
<title>ip6_input (42,900 samples, 5.98%)</title><rect x="1114.7" y="149" width="70.5" height="15.0" fill="rgb(214,121,22)" rx="2" ry="2" />
<text  x="1117.66" y="159.5" >ip6_input</text>
</g>
<g >
<title>spinlock_exit (98 samples, 0.01%)</title><rect x="59.9" y="213" width="0.2" height="15.0" fill="rgb(220,201,1)" rx="2" ry="2" />
<text  x="62.95" y="223.5" ></text>
</g>
<g >
<title>m_free (4,981 samples, 0.69%)</title><rect x="1114.7" y="53" width="8.1" height="15.0" fill="rgb(246,25,36)" rx="2" ry="2" />
<text  x="1117.66" y="63.5" ></text>
</g>
<g >
<title>memmove_erms (19,825 samples, 2.76%)</title><rect x="1040.3" y="197" width="32.6" height="15.0" fill="rgb(237,226,9)" rx="2" ry="2" />
<text  x="1043.33" y="207.5" >me..</text>
</g>
<g >
<title>bounce_bus_dmamap_load_buffer (6,028 samples, 0.84%)</title><rect x="1122.9" y="37" width="9.9" height="15.0" fill="rgb(254,60,54)" rx="2" ry="2" />
<text  x="1125.90" y="47.5" ></text>
</g>
<g >
<title>m_free (17,573 samples, 2.45%)</title><rect x="23.6" y="149" width="28.9" height="15.0" fill="rgb(242,158,46)" rx="2" ry="2" />
<text  x="26.63" y="159.5" >m_..</text>
</g>
<g >
<title>ipfw_check_packet (244,390 samples, 34.05%)</title><rect x="617.0" y="85" width="401.8" height="15.0" fill="rgb(247,120,37)" rx="2" ry="2" />
<text  x="620.03" y="95.5" >ipfw_check_packet</text>
</g>
<g >
<title>m_copydata (2,510 samples, 0.35%)</title><rect x="452.4" y="37" width="4.1" height="15.0" fill="rgb(246,221,38)" rx="2" ry="2" />
<text  x="455.36" y="47.5" ></text>
</g>
<g >
<title>sched_rem (131 samples, 0.02%)</title><rect x="60.2" y="197" width="0.2" height="15.0" fill="rgb(240,56,15)" rx="2" ry="2" />
<text  x="63.16" y="207.5" ></text>
</g>
<g >
<title>_rm_rlock (11,489 samples, 1.60%)</title><rect x="836.7" y="53" width="18.9" height="15.0" fill="rgb(234,204,53)" rx="2" ry="2" />
<text  x="839.73" y="63.5" ></text>
</g>
<g >
<title>_epoch_enter_preempt (10,114 samples, 1.41%)</title><rect x="138.5" y="197" width="16.6" height="15.0" fill="rgb(222,212,30)" rx="2" ry="2" />
<text  x="141.47" y="207.5" ></text>
</g>
<g >
<title>mb_ctor_mbuf (7,494 samples, 1.04%)</title><rect x="1086.8" y="181" width="12.4" height="15.0" fill="rgb(216,191,44)" rx="2" ry="2" />
<text  x="1089.85" y="191.5" ></text>
</g>
<g >
<title>cpu_search_lowest (3,443 samples, 0.48%)</title><rect x="1106.2" y="181" width="5.7" height="15.0" fill="rgb(216,35,11)" rx="2" ry="2" />
<text  x="1109.24" y="191.5" ></text>
</g>
<g >
<title>ipfw_chk (27,998 samples, 3.90%)</title><rect x="1139.2" y="85" width="46.0" height="15.0" fill="rgb(208,202,44)" rx="2" ry="2" />
<text  x="1142.16" y="95.5" >ipfw..</text>
</g>
<g >
<title>_thread_lock (165 samples, 0.02%)</title><rect x="12.9" y="245" width="0.2" height="15.0" fill="rgb(213,92,5)" rx="2" ry="2" />
<text  x="15.86" y="255.5" ></text>
</g>
<g >
<title>ether_demux (42,900 samples, 5.98%)</title><rect x="1114.7" y="181" width="70.5" height="15.0" fill="rgb(223,193,2)" rx="2" ry="2" />
<text  x="1117.66" y="191.5" >ether_d..</text>
</g>
<g >
<title>t4_intr (42,900 samples, 5.98%)</title><rect x="1114.7" y="261" width="70.5" height="15.0" fill="rgb(230,129,35)" rx="2" ry="2" />
<text  x="1117.66" y="271.5" >t4_intr</text>
</g>
<g >
<title>memcpy_erms (2,490 samples, 0.35%)</title><rect x="461.2" y="85" width="4.1" height="15.0" fill="rgb(220,169,11)" rx="2" ry="2" />
<text  x="464.17" y="95.5" ></text>
</g>
<g >
<title>cpu_search_highest (616 samples, 0.09%)</title><rect x="58.9" y="213" width="1.0" height="15.0" fill="rgb(219,39,50)" rx="2" ry="2" />
<text  x="61.90" y="223.5" ></text>
</g>
<g >
<title>ether_output (2,018 samples, 0.28%)</title><rect x="1186.7" y="133" width="3.3" height="15.0" fill="rgb(211,125,8)" rx="2" ry="2" />
<text  x="1189.68" y="143.5" ></text>
</g>
<g >
<title>ipfw_dyn_lookup_state (91,192 samples, 12.70%)</title><rect x="862.9" y="53" width="149.9" height="15.0" fill="rgb(218,202,46)" rx="2" ry="2" />
<text  x="865.86" y="63.5" >ipfw_dyn_lookup_state</text>
</g>
<g >
<title>uma_zfree_arg (1,228 samples, 0.17%)</title><rect x="1186.7" y="53" width="2.0" height="15.0" fill="rgb(245,20,41)" rx="2" ry="2" />
<text  x="1189.68" y="63.5" ></text>
</g>
<g >
<title>t4_intr (2,018 samples, 0.28%)</title><rect x="1186.7" y="277" width="3.3" height="15.0" fill="rgb(252,122,50)" rx="2" ry="2" />
<text  x="1189.68" y="287.5" ></text>
</g>
<g >
<title>mb_dtor_mbuf (470 samples, 0.07%)</title><rect x="1186.7" y="37" width="0.8" height="15.0" fill="rgb(217,28,31)" rx="2" ry="2" />
<text  x="1189.68" y="47.5" ></text>
</g>
<g >
<title>netisr_dispatch (729 samples, 0.10%)</title><rect x="210.1" y="149" width="1.2" height="15.0" fill="rgb(249,132,32)" rx="2" ry="2" />
<text  x="213.15" y="159.5" ></text>
</g>
<g >
<title>ip6_findroute (43,371 samples, 6.04%)</title><rect x="523.5" y="101" width="71.3" height="15.0" fill="rgb(212,204,22)" rx="2" ry="2" />
<text  x="526.50" y="111.5" >ip6_find..</text>
</g>
<g >
<title>bus_dmamap_load_mbuf_sg (4,236 samples, 0.59%)</title><rect x="437.9" y="37" width="7.0" height="15.0" fill="rgb(252,22,43)" rx="2" ry="2" />
<text  x="440.94" y="47.5" ></text>
</g>
<g >
<title>ithread_loop (662,898 samples, 92.35%)</title><rect x="11.8" y="261" width="1089.7" height="15.0" fill="rgb(244,91,18)" rx="2" ry="2" />
<text  x="14.75" y="271.5" >ithread_loop</text>
</g>
<g >
<title>vn_io_fault (146 samples, 0.02%)</title><rect x="1101.5" y="245" width="0.3" height="15.0" fill="rgb(216,195,20)" rx="2" ry="2" />
<text  x="1104.53" y="255.5" ></text>
</g>
<g >
<title>ipfw_check_packet (27,998 samples, 3.90%)</title><rect x="1139.2" y="101" width="46.0" height="15.0" fill="rgb(221,196,36)" rx="2" ry="2" />
<text  x="1142.16" y="111.5" >ipfw..</text>
</g>
<g >
<title>cpu_switch (615 samples, 0.09%)</title><rect x="55.7" y="229" width="1.0" height="15.0" fill="rgb(215,58,38)" rx="2" ry="2" />
<text  x="58.69" y="239.5" ></text>
</g>
<g >
<title>memcmp (1,904 samples, 0.27%)</title><rect x="1018.8" y="165" width="3.1" height="15.0" fill="rgb(241,197,46)" rx="2" ry="2" />
<text  x="1021.79" y="175.5" ></text>
</g>
<g >
<title>cpu_idle (122 samples, 0.02%)</title><rect x="1101.8" y="245" width="0.2" height="15.0" fill="rgb(240,8,44)" rx="2" ry="2" />
<text  x="1104.81" y="255.5" ></text>
</g>
<g >
<title>spinlock_exit (124 samples, 0.02%)</title><rect x="60.6" y="245" width="0.2" height="15.0" fill="rgb(225,185,32)" rx="2" ry="2" />
<text  x="63.58" y="255.5" ></text>
</g>
<g >
<title>ether_output_frame (86,479 samples, 12.05%)</title><rect x="319.0" y="85" width="142.2" height="15.0" fill="rgb(228,27,40)" rx="2" ry="2" />
<text  x="322.01" y="95.5" >ether_output_frame</text>
</g>
<g >
<title>lock_delay (506 samples, 0.07%)</title><rect x="1104.2" y="197" width="0.9" height="15.0" fill="rgb(213,120,46)" rx="2" ry="2" />
<text  x="1107.23" y="207.5" ></text>
</g>
<g >
<title>memmove_erms (3,859 samples, 0.54%)</title><rect x="1132.8" y="37" width="6.4" height="15.0" fill="rgb(221,63,10)" rx="2" ry="2" />
<text  x="1135.81" y="47.5" ></text>
</g>
<g >
<title>hash_packet (27,979 samples, 3.90%)</title><rect x="1139.2" y="53" width="46.0" height="15.0" fill="rgb(244,90,39)" rx="2" ry="2" />
<text  x="1142.19" y="63.5" >hash..</text>
</g>
<g >
<title>mlx5e_xmit (2,018 samples, 0.28%)</title><rect x="1186.7" y="101" width="3.3" height="15.0" fill="rgb(223,17,12)" rx="2" ry="2" />
<text  x="1189.68" y="111.5" ></text>
</g>
<g >
<title>pmap_kextract (790 samples, 0.11%)</title><rect x="1188.7" y="37" width="1.3" height="15.0" fill="rgb(233,28,51)" rx="2" ry="2" />
<text  x="1191.70" y="47.5" ></text>
</g>
<g >
<title>netisr_dispatch_src (519,677 samples, 72.40%)</title><rect x="167.7" y="197" width="854.4" height="15.0" fill="rgb(225,191,13)" rx="2" ry="2" />
<text  x="170.74" y="207.5" >netisr_dispatch_src</text>
</g>
<g >
<title>_ck_epoch_addref (1,857 samples, 0.26%)</title><rect x="152.0" y="181" width="3.1" height="15.0" fill="rgb(232,53,25)" rx="2" ry="2" />
<text  x="155.05" y="191.5" ></text>
</g>
<g >
<title>m_freem (4,981 samples, 0.69%)</title><rect x="1114.7" y="69" width="8.1" height="15.0" fill="rgb(250,66,9)" rx="2" ry="2" />
<text  x="1117.66" y="79.5" ></text>
</g>
<g >
<title>in6_lltable_lookup (8,472 samples, 1.18%)</title><rect x="480.5" y="69" width="13.9" height="15.0" fill="rgb(210,142,28)" rx="2" ry="2" />
<text  x="483.48" y="79.5" ></text>
</g>
<g >
<title>mlx5e_sq_tls_xmit (1,235 samples, 0.17%)</title><rect x="459.1" y="37" width="2.1" height="15.0" fill="rgb(228,192,1)" rx="2" ry="2" />
<text  x="462.14" y="47.5" ></text>
</g>
<g >
<title>tdq_notify (179 samples, 0.02%)</title><rect x="1112.3" y="213" width="0.3" height="15.0" fill="rgb(208,123,16)" rx="2" ry="2" />
<text  x="1115.27" y="223.5" ></text>
</g>
<g >
<title>VOP_WRITE_APV (146 samples, 0.02%)</title><rect x="1101.5" y="213" width="0.3" height="15.0" fill="rgb(222,200,1)" rx="2" ry="2" />
<text  x="1104.53" y="223.5" ></text>
</g>
<g >
<title>keg_alloc_slab (144 samples, 0.02%)</title><rect x="1099.9" y="149" width="0.3" height="15.0" fill="rgb(239,173,22)" rx="2" ry="2" />
<text  x="1102.92" y="159.5" ></text>
</g>
<g >
<title>pmc_process_samples (441 samples, 0.06%)</title><rect x="1185.8" y="197" width="0.7" height="15.0" fill="rgb(207,104,22)" rx="2" ry="2" />
<text  x="1188.77" y="207.5" ></text>
</g>
<g >
<title>tdq_add (90 samples, 0.01%)</title><rect x="60.4" y="197" width="0.1" height="15.0" fill="rgb(216,7,42)" rx="2" ry="2" />
<text  x="63.37" y="207.5" ></text>
</g>
<g >
<title>_rm_runlock (4,403 samples, 0.61%)</title><rect x="855.6" y="53" width="7.3" height="15.0" fill="rgb(207,53,52)" rx="2" ry="2" />
<text  x="858.62" y="63.5" ></text>
</g>
<g >
<title>ether_demux (2,018 samples, 0.28%)</title><rect x="1186.7" y="197" width="3.3" height="15.0" fill="rgb(245,112,7)" rx="2" ry="2" />
<text  x="1189.68" y="207.5" ></text>
</g>
<g >
<title>ether_output (14,902 samples, 2.08%)</title><rect x="1114.7" y="117" width="24.5" height="15.0" fill="rgb(230,141,36)" rx="2" ry="2" />
<text  x="1117.66" y="127.5" >e..</text>
</g>
<g >
<title>intr_event_schedule_thread (7,003 samples, 0.98%)</title><rect x="1103.0" y="245" width="11.6" height="15.0" fill="rgb(236,125,8)" rx="2" ry="2" />
<text  x="1106.04" y="255.5" ></text>
</g>
<g >
<title>memcmp (6,292 samples, 0.88%)</title><rect x="1174.8" y="37" width="10.4" height="15.0" fill="rgb(253,131,26)" rx="2" ry="2" />
<text  x="1177.84" y="47.5" ></text>
</g>
<g >
<title>pmap_kextract (758 samples, 0.11%)</title><rect x="1187.5" y="37" width="1.2" height="15.0" fill="rgb(224,194,48)" rx="2" ry="2" />
<text  x="1190.45" y="47.5" ></text>
</g>
<g >
<title>pmc_hook_handler (462 samples, 0.06%)</title><rect x="1185.7" y="213" width="0.8" height="15.0" fill="rgb(212,23,15)" rx="2" ry="2" />
<text  x="1188.73" y="223.5" ></text>
</g>
<g >
<title>_epoch_exit_preempt (318 samples, 0.04%)</title><rect x="127.6" y="213" width="0.6" height="15.0" fill="rgb(244,218,28)" rx="2" ry="2" />
<text  x="130.64" y="223.5" ></text>
</g>
<g >
<title>ithread_loop (42,900 samples, 5.98%)</title><rect x="1114.7" y="277" width="70.5" height="15.0" fill="rgb(249,42,11)" rx="2" ry="2" />
<text  x="1117.66" y="287.5" >ithread..</text>
</g>
<g >
<title>mlx5e_xmit (14,902 samples, 2.08%)</title><rect x="1114.7" y="85" width="24.5" height="15.0" fill="rgb(236,142,43)" rx="2" ry="2" />
<text  x="1117.66" y="95.5" >m..</text>
</g>
<g >
<title>ether_nh_input (2,018 samples, 0.28%)</title><rect x="1186.7" y="213" width="3.3" height="15.0" fill="rgb(253,59,21)" rx="2" ry="2" />
<text  x="1189.68" y="223.5" ></text>
</g>
<g >
<title>m_tag_locate (3,658 samples, 0.51%)</title><rect x="1012.8" y="69" width="6.0" height="15.0" fill="rgb(217,69,1)" rx="2" ry="2" />
<text  x="1015.78" y="79.5" ></text>
</g>
<g >
<title>mb_dtor_mbuf (375 samples, 0.05%)</title><rect x="50.7" y="117" width="0.6" height="15.0" fill="rgb(232,107,43)" rx="2" ry="2" />
<text  x="53.72" y="127.5" ></text>
</g>
<g >
<title>fpu_activate_sw (313 samples, 0.04%)</title><rect x="56.0" y="213" width="0.5" height="15.0" fill="rgb(218,79,13)" rx="2" ry="2" />
<text  x="58.97" y="223.5" ></text>
</g>
<g >
<title>m_freem (1,228 samples, 0.17%)</title><rect x="1186.7" y="85" width="2.0" height="15.0" fill="rgb(252,218,32)" rx="2" ry="2" />
<text  x="1189.68" y="95.5" ></text>
</g>
<g >
<title>pmclog_process_callchain (92 samples, 0.01%)</title><rect x="1186.2" y="181" width="0.1" height="15.0" fill="rgb(249,181,10)" rx="2" ry="2" />
<text  x="1189.16" y="191.5" ></text>
</g>
<g >
<title>bounce_bus_dmamap_complete (292 samples, 0.04%)</title><rect x="437.5" y="37" width="0.4" height="15.0" fill="rgb(229,34,17)" rx="2" ry="2" />
<text  x="440.46" y="47.5" ></text>
</g>
<g >
<title>pfil_run_hooks (27,998 samples, 3.90%)</title><rect x="1139.2" y="117" width="46.0" height="15.0" fill="rgb(252,65,33)" rx="2" ry="2" />
<text  x="1142.16" y="127.5" >pfil..</text>
</g>
<g >
<title>_epoch_exit_preempt (7,322 samples, 1.02%)</title><rect x="155.1" y="197" width="12.0" height="15.0" fill="rgb(233,38,52)" rx="2" ry="2" />
<text  x="158.10" y="207.5" ></text>
</g>
<g >
<title>handleevents (693 samples, 0.10%)</title><rect x="1185.5" y="245" width="1.2" height="15.0" fill="rgb(217,59,2)" rx="2" ry="2" />
<text  x="1188.53" y="255.5" ></text>
</g>
<g >
<title>Xapic_isr1_pti (655 samples, 0.09%)</title><rect x="10.2" y="277" width="1.1" height="15.0" fill="rgb(206,213,42)" rx="2" ry="2" />
<text  x="13.25" y="287.5" ></text>
</g>
<g >
<title>memcmp (207 samples, 0.03%)</title><rect x="523.2" y="85" width="0.3" height="15.0" fill="rgb(242,183,7)" rx="2" ry="2" />
<text  x="526.16" y="95.5" ></text>
</g>
<g >
<title>tdq_move (257 samples, 0.04%)</title><rect x="60.1" y="213" width="0.4" height="15.0" fill="rgb(238,43,49)" rx="2" ry="2" />
<text  x="63.11" y="223.5" ></text>
</g>
<g >
<title>pmap_activate_sw (133 samples, 0.02%)</title><rect x="56.5" y="213" width="0.2" height="15.0" fill="rgb(252,92,45)" rx="2" ry="2" />
<text  x="59.49" y="223.5" ></text>
</g>
<g >
<title>zone_import (165 samples, 0.02%)</title><rect x="1099.9" y="165" width="0.3" height="15.0" fill="rgb(233,42,47)" rx="2" ry="2" />
<text  x="1102.92" y="175.5" ></text>
</g>
<g >
<title>all (717,777 samples, 100%)</title><rect x="10.0" y="293" width="1180.0" height="15.0" fill="rgb(210,84,24)" rx="2" ry="2" />
<text  x="13.00" y="303.5" ></text>
</g>
<g >
<title>m_pkthdr_init (3,270 samples, 0.46%)</title><rect x="1093.8" y="165" width="5.4" height="15.0" fill="rgb(238,50,10)" rx="2" ry="2" />
<text  x="1096.79" y="175.5" ></text>
</g>
<g >
<title>m_free (1,228 samples, 0.17%)</title><rect x="1186.7" y="69" width="2.0" height="15.0" fill="rgb(234,194,34)" rx="2" ry="2" />
<text  x="1189.68" y="79.5" ></text>
</g>
<g >
<title>netisr_dispatch_src (42,900 samples, 5.98%)</title><rect x="1114.7" y="213" width="70.5" height="15.0" fill="rgb(216,221,2)" rx="2" ry="2" />
<text  x="1117.66" y="223.5" >netisr_..</text>
</g>
<g >
<title>lkpi_irq_handler (25,763 samples, 3.59%)</title><rect x="13.1" y="245" width="42.4" height="15.0" fill="rgb(205,213,38)" rx="2" ry="2" />
<text  x="16.14" y="255.5" >lkp..</text>
</g>
<g >
<title>ip6_tryforward (470,876 samples, 65.60%)</title><rect x="244.7" y="117" width="774.1" height="15.0" fill="rgb(215,0,29)" rx="2" ry="2" />
<text  x="247.69" y="127.5" >ip6_tryforward</text>
</g>
<g >
<title>memcmp (1,509 samples, 0.21%)</title><rect x="491.9" y="53" width="2.5" height="15.0" fill="rgb(227,157,10)" rx="2" ry="2" />
<text  x="494.92" y="63.5" ></text>
</g>
<g >
<title>rsb_flush (156 samples, 0.02%)</title><rect x="56.7" y="229" width="0.3" height="15.0" fill="rgb(218,137,7)" rx="2" ry="2" />
<text  x="59.72" y="239.5" ></text>
</g>
<g >
<title>memcmp (1,390 samples, 0.19%)</title><rect x="594.8" y="101" width="2.3" height="15.0" fill="rgb(209,136,54)" rx="2" ry="2" />
<text  x="597.80" y="111.5" ></text>
</g>
<g >
<title>ether_nh_input (513,691 samples, 71.57%)</title><rect x="177.6" y="181" width="844.5" height="15.0" fill="rgb(229,71,54)" rx="2" ry="2" />
<text  x="180.58" y="191.5" >ether_nh_input</text>
</g>
<g >
<title>hardclock (538 samples, 0.07%)</title><rect x="1185.6" y="229" width="0.9" height="15.0" fill="rgb(214,92,39)" rx="2" ry="2" />
<text  x="1188.61" y="239.5" ></text>
</g>
<g >
<title>hash_packet (16,668 samples, 2.32%)</title><rect x="965.2" y="37" width="27.4" height="15.0" fill="rgb(222,35,13)" rx="2" ry="2" />
<text  x="968.20" y="47.5" >h..</text>
</g>
<g >
<title>service_iq_fl (42,900 samples, 5.98%)</title><rect x="1114.7" y="245" width="70.5" height="15.0" fill="rgb(237,164,30)" rx="2" ry="2" />
<text  x="1117.66" y="255.5" >service..</text>
</g>
<g >
<title>mlx5e_xmit (80,180 samples, 11.17%)</title><rect x="329.4" y="69" width="131.8" height="15.0" fill="rgb(237,167,2)" rx="2" ry="2" />
<text  x="332.36" y="79.5" >mlx5e_xmit</text>
</g>
<g >
<title>runq_add (136 samples, 0.02%)</title><rect x="1112.0" y="197" width="0.3" height="15.0" fill="rgb(250,68,10)" rx="2" ry="2" />
<text  x="1115.04" y="207.5" ></text>
</g>
<g >
<title>m_free (1,695 samples, 0.24%)</title><rect x="402.4" y="37" width="2.8" height="15.0" fill="rgb(227,70,19)" rx="2" ry="2" />
<text  x="405.39" y="47.5" ></text>
</g>
<g >
<title>vn_write (146 samples, 0.02%)</title><rect x="1101.5" y="229" width="0.3" height="15.0" fill="rgb(209,161,21)" rx="2" ry="2" />
<text  x="1104.53" y="239.5" ></text>
</g>
<g >
<title>uma_zfree_arg (5,261 samples, 0.73%)</title><rect x="43.9" y="133" width="8.6" height="15.0" fill="rgb(254,130,40)" rx="2" ry="2" />
<text  x="46.87" y="143.5" ></text>
</g>
<g >
<title>lock_delay (694 samples, 0.10%)</title><rect x="1100.4" y="229" width="1.1" height="15.0" fill="rgb(234,184,12)" rx="2" ry="2" />
<text  x="1103.37" y="239.5" ></text>
</g>
<g >
<title>memcmp (12,276 samples, 1.71%)</title><rect x="992.6" y="37" width="20.2" height="15.0" fill="rgb(224,151,36)" rx="2" ry="2" />
<text  x="995.60" y="47.5" ></text>
</g>
<g >
<title>tscp_get_timecount_low (62 samples, 0.01%)</title><rect x="1185.4" y="229" width="0.1" height="15.0" fill="rgb(253,49,49)" rx="2" ry="2" />
<text  x="1188.43" y="239.5" ></text>
</g>
<g >
<title>lapic_et_start (66 samples, 0.01%)</title><rect x="1186.5" y="229" width="0.1" height="15.0" fill="rgb(214,33,44)" rx="2" ry="2" />
<text  x="1189.50" y="239.5" ></text>
</g>
<g >
<title>cpu_search_highest (493 samples, 0.07%)</title><rect x="59.1" y="197" width="0.8" height="15.0" fill="rgb(242,98,28)" rx="2" ry="2" />
<text  x="62.10" y="207.5" ></text>
</g>
<g >
<title>memmove_erms (2,754 samples, 0.38%)</title><rect x="494.4" y="69" width="4.5" height="15.0" fill="rgb(220,183,30)" rx="2" ry="2" />
<text  x="497.41" y="79.5" ></text>
</g>
<g >
<title>ip6_input (484,186 samples, 67.46%)</title><rect x="222.8" y="133" width="796.0" height="15.0" fill="rgb(223,184,31)" rx="2" ry="2" />
<text  x="225.81" y="143.5" >ip6_input</text>
</g>
<g >
<title>cache_alloc_retry (274 samples, 0.04%)</title><rect x="1039.9" y="197" width="0.4" height="15.0" fill="rgb(215,209,37)" rx="2" ry="2" />
<text  x="1042.88" y="207.5" ></text>
</g>
<g >
<title>_rm_rlock (5,557 samples, 0.77%)</title><rect x="510.0" y="85" width="9.2" height="15.0" fill="rgb(251,27,54)" rx="2" ry="2" />
<text  x="513.02" y="95.5" ></text>
</g>
<g >
<title>timercb (784 samples, 0.11%)</title><rect x="1185.4" y="261" width="1.3" height="15.0" fill="rgb(242,83,38)" rx="2" ry="2" />
<text  x="1188.39" y="271.5" ></text>
</g>
<g >
<title>bounce_bus_dmamap_load_buffer (790 samples, 0.11%)</title><rect x="1188.7" y="53" width="1.3" height="15.0" fill="rgb(244,180,5)" rx="2" ry="2" />
<text  x="1191.70" y="63.5" ></text>
</g>
<g >
<title>bus_dmamap_load_mbuf_sg (790 samples, 0.11%)</title><rect x="1188.7" y="69" width="1.3" height="15.0" fill="rgb(249,128,4)" rx="2" ry="2" />
<text  x="1191.70" y="79.5" ></text>
</g>
<g >
<title>m_adj (4,538 samples, 0.63%)</title><rect x="444.9" y="37" width="7.5" height="15.0" fill="rgb(251,16,53)" rx="2" ry="2" />
<text  x="447.90" y="47.5" ></text>
</g>
<g >
<title>ip6_input (2,018 samples, 0.28%)</title><rect x="1186.7" y="165" width="3.3" height="15.0" fill="rgb(253,11,39)" rx="2" ry="2" />
<text  x="1189.68" y="175.5" ></text>
</g>
<g >
<title>_mtx_lock_spin_cookie (573 samples, 0.08%)</title><rect x="1104.1" y="213" width="1.0" height="15.0" fill="rgb(234,41,46)" rx="2" ry="2" />
<text  x="1107.13" y="223.5" ></text>
</g>
<g >
<title>cache_free (270 samples, 0.04%)</title><rect x="50.3" y="117" width="0.4" height="15.0" fill="rgb(235,18,17)" rx="2" ry="2" />
<text  x="53.27" y="127.5" ></text>
</g>
<g >
<title>ether_input (42,900 samples, 5.98%)</title><rect x="1114.7" y="229" width="70.5" height="15.0" fill="rgb(252,41,51)" rx="2" ry="2" />
<text  x="1117.66" y="239.5" >ether_i..</text>
</g>
<g >
<title>netisr_dispatch (366 samples, 0.05%)</title><rect x="167.1" y="197" width="0.6" height="15.0" fill="rgb(232,1,35)" rx="2" ry="2" />
<text  x="170.14" y="207.5" ></text>
</g>
<g >
<title>netisr_dispatch_src (2,018 samples, 0.28%)</title><rect x="1186.7" y="181" width="3.3" height="15.0" fill="rgb(211,1,9)" rx="2" ry="2" />
<text  x="1189.68" y="191.5" ></text>
</g>
<g >
<title>mi_switch (3,090 samples, 0.43%)</title><rect x="55.5" y="245" width="5.1" height="15.0" fill="rgb(208,30,48)" rx="2" ry="2" />
<text  x="58.49" y="255.5" ></text>
</g>
<g >
<title>fib6_lookup (41,101 samples, 5.73%)</title><rect x="527.2" y="85" width="67.6" height="15.0" fill="rgb(212,113,3)" rx="2" ry="2" />
<text  x="530.24" y="95.5" >fib6_lo..</text>
</g>
<g >
<title>lradix6_lookup (33,400 samples, 4.65%)</title><rect x="539.9" y="69" width="54.9" height="15.0" fill="rgb(252,93,3)" rx="2" ry="2" />
<text  x="542.90" y="79.5" >lradi..</text>
</g>
<g >
<title>netisr_dispatch (87 samples, 0.01%)</title><rect x="1021.9" y="165" width="0.2" height="15.0" fill="rgb(211,173,12)" rx="2" ry="2" />
<text  x="1024.92" y="175.5" ></text>
</g>
<g >
<title>ether_nh_input (42,900 samples, 5.98%)</title><rect x="1114.7" y="197" width="70.5" height="15.0" fill="rgb(231,223,21)" rx="2" ry="2" />
<text  x="1117.66" y="207.5" >ether_n..</text>
</g>
<g >
<title>ether_output (126,472 samples, 17.62%)</title><rect x="291.0" y="101" width="207.9" height="15.0" fill="rgb(210,228,16)" rx="2" ry="2" />
<text  x="294.02" y="111.5" >ether_output</text>
</g>
<g >
<title>mlx5e_tx_cq_comp (24,975 samples, 3.48%)</title><rect x="14.4" y="181" width="41.1" height="15.0" fill="rgb(225,199,47)" rx="2" ry="2" />
<text  x="17.44" y="191.5" >mlx..</text>
</g>
<g >
<title>ip6_tryforward (2,018 samples, 0.28%)</title><rect x="1186.7" y="149" width="3.3" height="15.0" fill="rgb(245,45,44)" rx="2" ry="2" />
<text  x="1189.68" y="159.5" ></text>
</g>
<g >
<title>sched_add (5,357 samples, 0.75%)</title><rect x="1103.8" y="229" width="8.8" height="15.0" fill="rgb(252,153,14)" rx="2" ry="2" />
<text  x="1106.77" y="239.5" ></text>
</g>
<g >
<title>cache_alloc (238 samples, 0.03%)</title><rect x="1039.9" y="181" width="0.4" height="15.0" fill="rgb(226,137,12)" rx="2" ry="2" />
<text  x="1042.91" y="191.5" ></text>
</g>
<g >
<title>Xapic_isr1 (152 samples, 0.02%)</title><rect x="10.0" y="277" width="0.2" height="15.0" fill="rgb(208,162,27)" rx="2" ry="2" />
<text  x="13.00" y="287.5" ></text>
</g>
<g >
<title>netisr_dispatch_src (2,018 samples, 0.28%)</title><rect x="1186.7" y="229" width="3.3" height="15.0" fill="rgb(227,116,34)" rx="2" ry="2" />
<text  x="1189.68" y="239.5" ></text>
</g>
<g >
<title>uma_zalloc_arg (15,967 samples, 2.22%)</title><rect x="1072.9" y="197" width="26.3" height="15.0" fill="rgb(211,146,13)" rx="2" ry="2" />
<text  x="1075.92" y="207.5" >u..</text>
</g>
<g >
<title>fork_exit (663,387 samples, 92.42%)</title><rect x="11.7" y="277" width="1090.6" height="15.0" fill="rgb(241,27,15)" rx="2" ry="2" />
<text  x="14.74" y="287.5" >fork_exit</text>
</g>
<g >
<title>ether_output_frame (14,902 samples, 2.08%)</title><rect x="1114.7" y="101" width="24.5" height="15.0" fill="rgb(241,174,42)" rx="2" ry="2" />
<text  x="1117.66" y="111.5" >e..</text>
</g>
<g >
<title>ip6_tryforward (42,900 samples, 5.98%)</title><rect x="1114.7" y="133" width="70.5" height="15.0" fill="rgb(206,84,7)" rx="2" ry="2" />
<text  x="1117.66" y="143.5" >ip6_try..</text>
</g>
<g >
<title>tsc_get_config (61 samples, 0.01%)</title><rect x="1186.4" y="181" width="0.1" height="15.0" fill="rgb(212,112,18)" rx="2" ry="2" />
<text  x="1189.39" y="191.5" ></text>
</g>
<g >
<title>t4_intr (632,285 samples, 88.09%)</title><rect x="60.8" y="245" width="1039.4" height="15.0" fill="rgb(253,140,15)" rx="2" ry="2" />
<text  x="63.78" y="255.5" >t4_intr</text>
</g>
<g >
<title>m_adj (2,955 samples, 0.41%)</title><rect x="205.3" y="149" width="4.8" height="15.0" fill="rgb(205,30,47)" rx="2" ry="2" />
<text  x="208.29" y="159.5" ></text>
</g>
<g >
<title>uma_zfree_arg (4,981 samples, 0.69%)</title><rect x="1114.7" y="37" width="8.1" height="15.0" fill="rgb(209,94,50)" rx="2" ry="2" />
<text  x="1117.66" y="47.5" ></text>
</g>
<g >
<title>m_freem (2,638 samples, 0.37%)</title><rect x="400.8" y="53" width="4.4" height="15.0" fill="rgb(226,177,27)" rx="2" ry="2" />
<text  x="403.84" y="63.5" ></text>
</g>
<g >
<title>lapic_handle_timer (859 samples, 0.12%)</title><rect x="1185.3" y="277" width="1.4" height="15.0" fill="rgb(235,185,13)" rx="2" ry="2" />
<text  x="1188.26" y="287.5" ></text>
</g>
<g >
<title>binuptime (75 samples, 0.01%)</title><rect x="1185.4" y="245" width="0.1" height="15.0" fill="rgb(231,70,3)" rx="2" ry="2" />
<text  x="1188.41" y="255.5" ></text>
</g>
<g >
<title>mlx5e_sq_xmit (9,921 samples, 1.38%)</title><rect x="1122.8" y="69" width="16.4" height="15.0" fill="rgb(232,229,27)" rx="2" ry="2" />
<text  x="1125.85" y="79.5" ></text>
</g>
<g >
<title>ether_output_frame (2,018 samples, 0.28%)</title><rect x="1186.7" y="117" width="3.3" height="15.0" fill="rgb(245,23,21)" rx="2" ry="2" />
<text  x="1189.68" y="127.5" ></text>
</g>
<g >
<title>pmclog_loop (146 samples, 0.02%)</title><rect x="1101.5" y="261" width="0.3" height="15.0" fill="rgb(254,67,44)" rx="2" ry="2" />
<text  x="1104.53" y="271.5" ></text>
</g>
</g>
</svg>
