<?xml version="1.0" standalone="no"?>
<!DOCTYPE svg PUBLIC "-//W3C//DTD SVG 1.1//EN" "http://www.w3.org/Graphics/SVG/1.1/DTD/svg11.dtd">
<svg version="1.1" width="1200" height="342" onload="init(evt)" viewBox="0 0 1200 342" xmlns="http://www.w3.org/2000/svg" xmlns:xlink="http://www.w3.org/1999/xlink">
<!-- Flame graph stack visualization. See https://github.com/brendangregg/FlameGraph for latest version, and http://www.brendangregg.com/flamegraphs.html for examples. -->
<!-- NOTES:  -->
<defs>
	<linearGradient id="background" y1="0" y2="1" x1="0" x2="0" >
		<stop stop-color="#eeeeee" offset="5%" />
		<stop stop-color="#eeeeb0" offset="95%" />
	</linearGradient>
</defs>
<style type="text/css">
	text { font-family:Verdana; font-size:12px; fill:rgb(0,0,0); }
	#search, #ignorecase { opacity:0.1; cursor:pointer; }
	#search:hover, #search.show, #ignorecase:hover, #ignorecase.show { opacity:1; }
	#subtitle { text-anchor:middle; font-color:rgb(160,160,160); }
	#title { text-anchor:middle; font-size:17px}
	#unzoom { cursor:pointer; }
	#frames > *:hover { stroke:black; stroke-width:0.5; cursor:pointer; }
	.hide { display:none; }
	.parent { opacity:0.5; }
</style>
<script type="text/ecmascript">
<![CDATA[
	"use strict";
	var details, searchbtn, unzoombtn, matchedtxt, svg, searching, currentSearchTerm, ignorecase, ignorecaseBtn;
	function init(evt) {
		details = document.getElementById("details").firstChild;
		searchbtn = document.getElementById("search");
		ignorecaseBtn = document.getElementById("ignorecase");
		unzoombtn = document.getElementById("unzoom");
		matchedtxt = document.getElementById("matched");
		svg = document.getElementsByTagName("svg")[0];
		searching = 0;
		currentSearchTerm = null;

		// use GET parameters to restore a flamegraphs state.
		var params = get_params();
		if (params.x && params.y)
			zoom(find_group(document.querySelector('[x="' + params.x + '"][y="' + params.y + '"]')));
                if (params.s) search(params.s);
	}

	// event listeners
	window.addEventListener("click", function(e) {
		var target = find_group(e.target);
		if (target) {
			if (target.nodeName == "a") {
				if (e.ctrlKey === false) return;
				e.preventDefault();
			}
			if (target.classList.contains("parent")) unzoom();
			zoom(target);
			if (!document.querySelector('.parent')) {
				clearzoom();
				return;
			}

			// set parameters for zoom state
			var el = target.querySelector("rect");
			if (el && el.attributes && el.attributes.y && el.attributes._orig_x) {
				var params = get_params()
				params.x = el.attributes._orig_x.value;
				params.y = el.attributes.y.value;
				history.replaceState(null, null, parse_params(params));
			}
		}
		else if (e.target.id == "unzoom") clearzoom();
		else if (e.target.id == "search") search_prompt();
		else if (e.target.id == "ignorecase") toggle_ignorecase();
	}, false)

	// mouse-over for info
	// show
	window.addEventListener("mouseover", function(e) {
		var target = find_group(e.target);
		if (target) details.nodeValue = "Function: " + g_to_text(target);
	}, false)

	// clear
	window.addEventListener("mouseout", function(e) {
		var target = find_group(e.target);
		if (target) details.nodeValue = ' ';
	}, false)

	// ctrl-F for search
	// ctrl-I to toggle case-sensitive search
	window.addEventListener("keydown",function (e) {
		if (e.keyCode === 114 || (e.ctrlKey && e.keyCode === 70)) {
			e.preventDefault();
			search_prompt();
		}
		else if (e.ctrlKey && e.keyCode === 73) {
			e.preventDefault();
			toggle_ignorecase();
		}
	}, false)

	// functions
	function get_params() {
		var params = {};
		var paramsarr = window.location.search.substr(1).split('&');
		for (var i = 0; i < paramsarr.length; ++i) {
			var tmp = paramsarr[i].split("=");
			if (!tmp[0] || !tmp[1]) continue;
			params[tmp[0]]  = decodeURIComponent(tmp[1]);
		}
		return params;
	}
	function parse_params(params) {
		var uri = "?";
		for (var key in params) {
			uri += key + '=' + encodeURIComponent(params[key]) + '&';
		}
		if (uri.slice(-1) == "&")
			uri = uri.substring(0, uri.length - 1);
		if (uri == '?')
			uri = window.location.href.split('?')[0];
		return uri;
	}
	function find_child(node, selector) {
		var children = node.querySelectorAll(selector);
		if (children.length) return children[0];
	}
	function find_group(node) {
		var parent = node.parentElement;
		if (!parent) return;
		if (parent.id == "frames") return node;
		return find_group(parent);
	}
	function orig_save(e, attr, val) {
		if (e.attributes["_orig_" + attr] != undefined) return;
		if (e.attributes[attr] == undefined) return;
		if (val == undefined) val = e.attributes[attr].value;
		e.setAttribute("_orig_" + attr, val);
	}
	function orig_load(e, attr) {
		if (e.attributes["_orig_"+attr] == undefined) return;
		e.attributes[attr].value = e.attributes["_orig_" + attr].value;
		e.removeAttribute("_orig_"+attr);
	}
	function g_to_text(e) {
		var text = find_child(e, "title").firstChild.nodeValue;
		return (text)
	}
	function g_to_func(e) {
		var func = g_to_text(e);
		// if there's any manipulation we want to do to the function
		// name before it's searched, do it here before returning.
		return (func);
	}
	function update_text(e) {
		var r = find_child(e, "rect");
		var t = find_child(e, "text");
		var w = parseFloat(r.attributes.width.value) -3;
		var txt = find_child(e, "title").textContent.replace(/\([^(]*\)$/,"");
		t.attributes.x.value = parseFloat(r.attributes.x.value) + 3;

		// Smaller than this size won't fit anything
		if (w < 2 * 12 * 0.59) {
			t.textContent = "";
			return;
		}

		t.textContent = txt;
		// Fit in full text width
		if (/^ *$/.test(txt) || t.getSubStringLength(0, txt.length) < w)
			return;

		for (var x = txt.length - 2; x > 0; x--) {
			if (t.getSubStringLength(0, x + 2) <= w) {
				t.textContent = txt.substring(0, x) + "..";
				return;
			}
		}
		t.textContent = "";
	}

	// zoom
	function zoom_reset(e) {
		if (e.attributes != undefined) {
			orig_load(e, "x");
			orig_load(e, "width");
		}
		if (e.childNodes == undefined) return;
		for (var i = 0, c = e.childNodes; i < c.length; i++) {
			zoom_reset(c[i]);
		}
	}
	function zoom_child(e, x, ratio) {
		if (e.attributes != undefined) {
			if (e.attributes.x != undefined) {
				orig_save(e, "x");
				e.attributes.x.value = (parseFloat(e.attributes.x.value) - x - 10) * ratio + 10;
				if (e.tagName == "text")
					e.attributes.x.value = find_child(e.parentNode, "rect[x]").attributes.x.value + 3;
			}
			if (e.attributes.width != undefined) {
				orig_save(e, "width");
				e.attributes.width.value = parseFloat(e.attributes.width.value) * ratio;
			}
		}

		if (e.childNodes == undefined) return;
		for (var i = 0, c = e.childNodes; i < c.length; i++) {
			zoom_child(c[i], x - 10, ratio);
		}
	}
	function zoom_parent(e) {
		if (e.attributes) {
			if (e.attributes.x != undefined) {
				orig_save(e, "x");
				e.attributes.x.value = 10;
			}
			if (e.attributes.width != undefined) {
				orig_save(e, "width");
				e.attributes.width.value = parseInt(svg.width.baseVal.value) - (10 * 2);
			}
		}
		if (e.childNodes == undefined) return;
		for (var i = 0, c = e.childNodes; i < c.length; i++) {
			zoom_parent(c[i]);
		}
	}
	function zoom(node) {
		var attr = find_child(node, "rect").attributes;
		var width = parseFloat(attr.width.value);
		var xmin = parseFloat(attr.x.value);
		var xmax = parseFloat(xmin + width);
		var ymin = parseFloat(attr.y.value);
		var ratio = (svg.width.baseVal.value - 2 * 10) / width;

		// XXX: Workaround for JavaScript float issues (fix me)
		var fudge = 0.0001;

		unzoombtn.classList.remove("hide");

		var el = document.getElementById("frames").children;
		for (var i = 0; i < el.length; i++) {
			var e = el[i];
			var a = find_child(e, "rect").attributes;
			var ex = parseFloat(a.x.value);
			var ew = parseFloat(a.width.value);
			var upstack;
			// Is it an ancestor
			if (0 == 0) {
				upstack = parseFloat(a.y.value) > ymin;
			} else {
				upstack = parseFloat(a.y.value) < ymin;
			}
			if (upstack) {
				// Direct ancestor
				if (ex <= xmin && (ex+ew+fudge) >= xmax) {
					e.classList.add("parent");
					zoom_parent(e);
					update_text(e);
				}
				// not in current path
				else
					e.classList.add("hide");
			}
			// Children maybe
			else {
				// no common path
				if (ex < xmin || ex + fudge >= xmax) {
					e.classList.add("hide");
				}
				else {
					zoom_child(e, xmin, ratio);
					update_text(e);
				}
			}
		}
		search();
	}
	function unzoom() {
		unzoombtn.classList.add("hide");
		var el = document.getElementById("frames").children;
		for(var i = 0; i < el.length; i++) {
			el[i].classList.remove("parent");
			el[i].classList.remove("hide");
			zoom_reset(el[i]);
			update_text(el[i]);
		}
		search();
	}
	function clearzoom() {
		unzoom();

		// remove zoom state
		var params = get_params();
		if (params.x) delete params.x;
		if (params.y) delete params.y;
		history.replaceState(null, null, parse_params(params));
	}

	// search
	function toggle_ignorecase() {
		ignorecase = !ignorecase;
		if (ignorecase) {
			ignorecaseBtn.classList.add("show");
		} else {
			ignorecaseBtn.classList.remove("show");
		}
		reset_search();
		search();
	}
	function reset_search() {
		var el = document.querySelectorAll("#frames rect");
		for (var i = 0; i < el.length; i++) {
			orig_load(el[i], "fill")
		}
		var params = get_params();
		delete params.s;
		history.replaceState(null, null, parse_params(params));
	}
	function search_prompt() {
		if (!searching) {
			var term = prompt("Enter a search term (regexp " +
			    "allowed, eg: ^ext4_)"
			    + (ignorecase ? ", ignoring case" : "")
			    + "\nPress Ctrl-i to toggle case sensitivity", "");
			if (term != null) search(term);
		} else {
			reset_search();
			searching = 0;
			currentSearchTerm = null;
			searchbtn.classList.remove("show");
			searchbtn.firstChild.nodeValue = "Search"
			matchedtxt.classList.add("hide");
			matchedtxt.firstChild.nodeValue = ""
		}
	}
	function search(term) {
		if (term) currentSearchTerm = term;

		var re = new RegExp(currentSearchTerm, ignorecase ? 'i' : '');
		var el = document.getElementById("frames").children;
		var matches = new Object();
		var maxwidth = 0;
		for (var i = 0; i < el.length; i++) {
			var e = el[i];
			var func = g_to_func(e);
			var rect = find_child(e, "rect");
			if (func == null || rect == null)
				continue;

			// Save max width. Only works as we have a root frame
			var w = parseFloat(rect.attributes.width.value);
			if (w > maxwidth)
				maxwidth = w;

			if (func.match(re)) {
				// highlight
				var x = parseFloat(rect.attributes.x.value);
				orig_save(rect, "fill");
				rect.attributes.fill.value = "rgb(230,0,230)";

				// remember matches
				if (matches[x] == undefined) {
					matches[x] = w;
				} else {
					if (w > matches[x]) {
						// overwrite with parent
						matches[x] = w;
					}
				}
				searching = 1;
			}
		}
		if (!searching)
			return;
		var params = get_params();
		params.s = currentSearchTerm;
		history.replaceState(null, null, parse_params(params));

		searchbtn.classList.add("show");
		searchbtn.firstChild.nodeValue = "Reset Search";

		// calculate percent matched, excluding vertical overlap
		var count = 0;
		var lastx = -1;
		var lastw = 0;
		var keys = Array();
		for (k in matches) {
			if (matches.hasOwnProperty(k))
				keys.push(k);
		}
		// sort the matched frames by their x location
		// ascending, then width descending
		keys.sort(function(a, b){
			return a - b;
		});
		// Step through frames saving only the biggest bottom-up frames
		// thanks to the sort order. This relies on the tree property
		// where children are always smaller than their parents.
		var fudge = 0.0001;	// JavaScript floating point
		for (var k in keys) {
			var x = parseFloat(keys[k]);
			var w = matches[keys[k]];
			if (x >= lastx + lastw - fudge) {
				count += w;
				lastx = x;
				lastw = w;
			}
		}
		// display matched percent
		matchedtxt.classList.remove("hide");
		var pct = 100 * count / maxwidth;
		if (pct != 100) pct = pct.toFixed(1)
		matchedtxt.firstChild.nodeValue = "Matched: " + pct + "%";
	}
]]>
</script>
<rect x="0.0" y="0" width="1200.0" height="342.0" fill="url(#background)"  />
<text id="title" x="600.00" y="24" >Flame Graph</text>
<text id="details" x="10.00" y="325" > </text>
<text id="unzoom" x="10.00" y="24" class="hide">Reset Zoom</text>
<text id="search" x="1090.00" y="24" >Search</text>
<text id="ignorecase" x="1174.00" y="24" >ic</text>
<text id="matched" x="1090.00" y="325" > </text>
<g id="frames">
<g >
<title>pmap_kextract (1,836 samples, 0.27%)</title><rect x="117.4" y="117" width="3.2" height="15.0" fill="rgb(229,87,0)" rx="2" ry="2" />
<text  x="120.39" y="127.5" ></text>
</g>
<g >
<title>m_free (701 samples, 0.10%)</title><rect x="767.0" y="37" width="1.2" height="15.0" fill="rgb(248,171,36)" rx="2" ry="2" />
<text  x="770.01" y="47.5" ></text>
</g>
<g >
<title>VOP_WRITE_APV (107 samples, 0.02%)</title><rect x="1112.7" y="213" width="0.2" height="15.0" fill="rgb(234,187,10)" rx="2" ry="2" />
<text  x="1115.75" y="223.5" ></text>
</g>
<g >
<title>keg_alloc_slab (310 samples, 0.05%)</title><rect x="1109.8" y="149" width="0.5" height="15.0" fill="rgb(218,56,44)" rx="2" ry="2" />
<text  x="1112.77" y="159.5" ></text>
</g>
<g >
<title>lapic_et_start (85 samples, 0.01%)</title><rect x="1185.4" y="229" width="0.1" height="15.0" fill="rgb(231,119,40)" rx="2" ry="2" />
<text  x="1188.35" y="239.5" ></text>
</g>
<g >
<title>arpresolve (23,265 samples, 3.45%)</title><rect x="545.6" y="85" width="40.7" height="15.0" fill="rgb(253,37,46)" rx="2" ry="2" />
<text  x="548.56" y="95.5" >arp..</text>
</g>
<g >
<title>fpu_activate_sw (852 samples, 0.13%)</title><rect x="130.1" y="213" width="1.5" height="15.0" fill="rgb(249,202,9)" rx="2" ry="2" />
<text  x="133.14" y="223.5" ></text>
</g>
<g >
<title>_mtx_lock_spin_cookie (1,767 samples, 0.26%)</title><rect x="1119.2" y="213" width="3.1" height="15.0" fill="rgb(207,221,4)" rx="2" ry="2" />
<text  x="1122.22" y="223.5" ></text>
</g>
<g >
<title>netisr_dispatch (601 samples, 0.09%)</title><rect x="323.4" y="197" width="1.0" height="15.0" fill="rgb(246,154,0)" rx="2" ry="2" />
<text  x="326.36" y="207.5" ></text>
</g>
<g >
<title>bus_dmamap_load_mbuf_sg (9,837 samples, 1.46%)</title><rect x="840.3" y="37" width="17.3" height="15.0" fill="rgb(253,24,54)" rx="2" ry="2" />
<text  x="843.32" y="47.5" ></text>
</g>
<g >
<title>bus_dmamap_load_mbuf_sg (2,024 samples, 0.30%)</title><rect x="1186.5" y="69" width="3.5" height="15.0" fill="rgb(212,204,32)" rx="2" ry="2" />
<text  x="1189.45" y="79.5" ></text>
</g>
<g >
<title>lkpi_irq_handler (62,933 samples, 9.34%)</title><rect x="18.3" y="245" width="110.3" height="15.0" fill="rgb(222,212,15)" rx="2" ry="2" />
<text  x="21.35" y="255.5" >lkpi_irq_hand..</text>
</g>
<g >
<title>lock_delay (257 samples, 0.04%)</title><rect x="1109.8" y="117" width="0.4" height="15.0" fill="rgb(242,202,50)" rx="2" ry="2" />
<text  x="1112.80" y="127.5" ></text>
</g>
<g >
<title>runq_add (148 samples, 0.02%)</title><rect x="141.8" y="181" width="0.2" height="15.0" fill="rgb(239,25,14)" rx="2" ry="2" />
<text  x="144.79" y="191.5" ></text>
</g>
<g >
<title>_epoch_enter_preempt (796 samples, 0.12%)</title><rect x="16.1" y="245" width="1.4" height="15.0" fill="rgb(247,80,21)" rx="2" ry="2" />
<text  x="19.08" y="255.5" ></text>
</g>
<g >
<title>ip_input (21,552 samples, 3.20%)</title><rect x="1146.1" y="149" width="37.7" height="15.0" fill="rgb(245,102,2)" rx="2" ry="2" />
<text  x="1149.08" y="159.5" >ip_..</text>
</g>
<g >
<title>_epoch_exit_preempt (73 samples, 0.01%)</title><rect x="17.5" y="245" width="0.1" height="15.0" fill="rgb(214,6,54)" rx="2" ry="2" />
<text  x="20.48" y="255.5" ></text>
</g>
<g >
<title>cpu_search_lowest (8,295 samples, 1.23%)</title><rect x="1125.3" y="181" width="14.5" height="15.0" fill="rgb(242,102,41)" rx="2" ry="2" />
<text  x="1128.31" y="191.5" ></text>
</g>
<g >
<title>runq_add (260 samples, 0.04%)</title><rect x="1140.3" y="197" width="0.4" height="15.0" fill="rgb(234,204,42)" rx="2" ry="2" />
<text  x="1143.25" y="207.5" ></text>
</g>
<g >
<title>mb_ctor_mbuf (11,401 samples, 1.69%)</title><rect x="1088.6" y="181" width="19.9" height="15.0" fill="rgb(243,130,34)" rx="2" ry="2" />
<text  x="1091.56" y="191.5" ></text>
</g>
<g >
<title>pmc_process_samples (440 samples, 0.07%)</title><rect x="1184.6" y="197" width="0.7" height="15.0" fill="rgb(231,85,8)" rx="2" ry="2" />
<text  x="1187.56" y="207.5" ></text>
</g>
<g >
<title>spinlock_enter (61 samples, 0.01%)</title><rect x="18.2" y="229" width="0.1" height="15.0" fill="rgb(249,73,21)" rx="2" ry="2" />
<text  x="21.20" y="239.5" ></text>
</g>
<g >
<title>hardclock (524 samples, 0.08%)</title><rect x="1184.4" y="229" width="1.0" height="15.0" fill="rgb(225,157,31)" rx="2" ry="2" />
<text  x="1187.44" y="239.5" ></text>
</g>
<g >
<title>ether_demux (21,552 samples, 3.20%)</title><rect x="1146.1" y="181" width="37.7" height="15.0" fill="rgb(248,178,21)" rx="2" ry="2" />
<text  x="1149.08" y="191.5" >eth..</text>
</g>
<g >
<title>lock_delay (401 samples, 0.06%)</title><rect x="136.2" y="197" width="0.7" height="15.0" fill="rgb(218,188,10)" rx="2" ry="2" />
<text  x="139.19" y="207.5" ></text>
</g>
<g >
<title>_epoch_exit_preempt (10,731 samples, 1.59%)</title><rect x="304.6" y="197" width="18.8" height="15.0" fill="rgb(231,69,6)" rx="2" ry="2" />
<text  x="307.56" y="207.5" ></text>
</g>
<g >
<title>fib4_lookup (23,698 samples, 3.52%)</title><rect x="928.6" y="85" width="41.5" height="15.0" fill="rgb(253,46,0)" rx="2" ry="2" />
<text  x="931.63" y="95.5" >fib..</text>
</g>
<g >
<title>cache_alloc_retry (342 samples, 0.05%)</title><rect x="1109.8" y="197" width="0.5" height="15.0" fill="rgb(207,167,9)" rx="2" ry="2" />
<text  x="1112.75" y="207.5" ></text>
</g>
<g >
<title>service_iq_fl (2,509 samples, 0.37%)</title><rect x="1185.6" y="261" width="4.4" height="15.0" fill="rgb(227,46,17)" rx="2" ry="2" />
<text  x="1188.60" y="271.5" ></text>
</g>
<g >
<title>netisr_dispatch_src (328,371 samples, 48.76%)</title><rect x="394.8" y="149" width="575.3" height="15.0" fill="rgb(251,109,43)" rx="2" ry="2" />
<text  x="397.80" y="159.5" >netisr_dispatch_src</text>
</g>
<g >
<title>choosethread (657 samples, 0.10%)</title><rect x="136.9" y="213" width="1.1" height="15.0" fill="rgb(233,108,54)" rx="2" ry="2" />
<text  x="139.90" y="223.5" ></text>
</g>
<g >
<title>cache_alloc_retry (638 samples, 0.09%)</title><rect x="1006.5" y="197" width="1.1" height="15.0" fill="rgb(236,148,13)" rx="2" ry="2" />
<text  x="1009.45" y="207.5" ></text>
</g>
<g >
<title>uma_zfree_arg (485 samples, 0.07%)</title><rect x="1185.6" y="53" width="0.9" height="15.0" fill="rgb(251,21,42)" rx="2" ry="2" />
<text  x="1188.60" y="63.5" ></text>
</g>
<g >
<title>vn_io_fault (107 samples, 0.02%)</title><rect x="1112.7" y="245" width="0.2" height="15.0" fill="rgb(238,160,15)" rx="2" ry="2" />
<text  x="1115.75" y="255.5" ></text>
</g>
<g >
<title>handleevents (724 samples, 0.11%)</title><rect x="1184.3" y="245" width="1.3" height="15.0" fill="rgb(238,155,8)" rx="2" ry="2" />
<text  x="1187.33" y="255.5" ></text>
</g>
<g >
<title>intr_execute_handlers (18,113 samples, 2.69%)</title><rect x="1114.2" y="277" width="31.8" height="15.0" fill="rgb(236,42,6)" rx="2" ry="2" />
<text  x="1117.23" y="287.5" >in..</text>
</g>
<g >
<title>bus_dmamap_load_mbuf_sg (14,371 samples, 2.13%)</title><rect x="1149.7" y="53" width="25.2" height="15.0" fill="rgb(248,134,28)" rx="2" ry="2" />
<text  x="1152.69" y="63.5" >b..</text>
</g>
<g >
<title>cpu_search_lowest (9,503 samples, 1.41%)</title><rect x="1123.2" y="197" width="16.6" height="15.0" fill="rgb(216,145,16)" rx="2" ry="2" />
<text  x="1126.20" y="207.5" ></text>
</g>
<g >
<title>get_scatter_segment (76,036 samples, 11.29%)</title><rect x="975.3" y="213" width="133.2" height="15.0" fill="rgb(227,24,34)" rx="2" ry="2" />
<text  x="978.31" y="223.5" >get_scatter_segm..</text>
</g>
<g >
<title>thread_lock_flags_ (1,351 samples, 0.20%)</title><rect x="1110.4" y="245" width="2.3" height="15.0" fill="rgb(224,196,12)" rx="2" ry="2" />
<text  x="1113.37" y="255.5" ></text>
</g>
<g >
<title>_epoch_enter_preempt (18,909 samples, 2.81%)</title><rect x="271.4" y="197" width="33.2" height="15.0" fill="rgb(229,46,7)" rx="2" ry="2" />
<text  x="274.43" y="207.5" >_e..</text>
</g>
<g >
<title>lock_delay (1,988 samples, 0.30%)</title><rect x="1142.3" y="213" width="3.5" height="15.0" fill="rgb(214,46,31)" rx="2" ry="2" />
<text  x="1145.28" y="223.5" ></text>
</g>
<g >
<title>bounce_bus_dmamap_load_buffer (14,308 samples, 2.12%)</title><rect x="1149.8" y="37" width="25.1" height="15.0" fill="rgb(247,134,43)" rx="2" ry="2" />
<text  x="1152.80" y="47.5" >b..</text>
</g>
<g >
<title>ether_input (411,801 samples, 61.15%)</title><rect x="253.8" y="213" width="721.5" height="15.0" fill="rgb(252,109,36)" rx="2" ry="2" />
<text  x="256.78" y="223.5" >ether_input</text>
</g>
<g >
<title>ip_findroute (26,350 samples, 3.91%)</title><rect x="924.0" y="101" width="46.1" height="15.0" fill="rgb(221,229,13)" rx="2" ry="2" />
<text  x="926.98" y="111.5" >ip_f..</text>
</g>
<g >
<title>_ck_epoch_addref (2,706 samples, 0.40%)</title><rect x="299.8" y="181" width="4.8" height="15.0" fill="rgb(248,99,45)" rx="2" ry="2" />
<text  x="302.82" y="191.5" ></text>
</g>
<g >
<title>uma_zfree_arg (2,059 samples, 0.31%)</title><rect x="1146.1" y="37" width="3.6" height="15.0" fill="rgb(206,77,52)" rx="2" ry="2" />
<text  x="1149.08" y="47.5" ></text>
</g>
<g >
<title>lapic_handle_timer (875 samples, 0.13%)</title><rect x="1184.1" y="277" width="1.5" height="15.0" fill="rgb(225,146,9)" rx="2" ry="2" />
<text  x="1187.06" y="287.5" ></text>
</g>
<g >
<title>mlx5e_get_l2_header_size (3,573 samples, 0.53%)</title><rect x="889.3" y="37" width="6.2" height="15.0" fill="rgb(228,43,23)" rx="2" ry="2" />
<text  x="892.27" y="47.5" ></text>
</g>
<g >
<title>netisr_dispatch_src (21,552 samples, 3.20%)</title><rect x="1146.1" y="213" width="37.7" height="15.0" fill="rgb(220,123,45)" rx="2" ry="2" />
<text  x="1149.08" y="223.5" >net..</text>
</g>
<g >
<title>zone_import (342 samples, 0.05%)</title><rect x="1109.8" y="165" width="0.5" height="15.0" fill="rgb(239,63,47)" rx="2" ry="2" />
<text  x="1112.75" y="175.5" ></text>
</g>
<g >
<title>in_localip (9,407 samples, 1.40%)</title><rect x="907.5" y="101" width="16.5" height="15.0" fill="rgb(226,113,19)" rx="2" ry="2" />
<text  x="910.50" y="111.5" ></text>
</g>
<g >
<title>ether_output_frame (2,509 samples, 0.37%)</title><rect x="1185.6" y="117" width="4.4" height="15.0" fill="rgb(243,162,10)" rx="2" ry="2" />
<text  x="1188.60" y="127.5" ></text>
</g>
<g >
<title>bounce_bus_dmamap_load_buffer (2,024 samples, 0.30%)</title><rect x="1186.5" y="53" width="3.5" height="15.0" fill="rgb(254,205,40)" rx="2" ry="2" />
<text  x="1189.45" y="63.5" ></text>
</g>
<g >
<title>pmclog_process_callchain (71 samples, 0.01%)</title><rect x="1185.0" y="181" width="0.2" height="15.0" fill="rgb(236,108,22)" rx="2" ry="2" />
<text  x="1188.03" y="191.5" ></text>
</g>
<g >
<title>mb_dtor_mbuf (159 samples, 0.02%)</title><rect x="1185.6" y="37" width="0.3" height="15.0" fill="rgb(238,195,21)" rx="2" ry="2" />
<text  x="1188.60" y="47.5" ></text>
</g>
<g >
<title>cpu_search_highest (127 samples, 0.02%)</title><rect x="1113.6" y="229" width="0.2" height="15.0" fill="rgb(232,95,20)" rx="2" ry="2" />
<text  x="1116.58" y="239.5" ></text>
</g>
<g >
<title>zone_put_bucket (377 samples, 0.06%)</title><rect x="115.2" y="101" width="0.7" height="15.0" fill="rgb(235,91,32)" rx="2" ry="2" />
<text  x="118.20" y="111.5" ></text>
</g>
<g >
<title>cpu_search_highest (1,274 samples, 0.19%)</title><rect x="138.0" y="213" width="2.3" height="15.0" fill="rgb(250,192,22)" rx="2" ry="2" />
<text  x="141.05" y="223.5" ></text>
</g>
<g >
<title>m_freem (485 samples, 0.07%)</title><rect x="1185.6" y="85" width="0.9" height="15.0" fill="rgb(233,140,35)" rx="2" ry="2" />
<text  x="1188.60" y="95.5" ></text>
</g>
<g >
<title>mlx5e_sq_xmit (19,493 samples, 2.89%)</title><rect x="1149.7" y="69" width="34.1" height="15.0" fill="rgb(247,41,30)" rx="2" ry="2" />
<text  x="1152.69" y="79.5" >ml..</text>
</g>
<g >
<title>m_pkthdr_init (5,136 samples, 0.76%)</title><rect x="1099.5" y="165" width="9.0" height="15.0" fill="rgb(240,96,2)" rx="2" ry="2" />
<text  x="1102.54" y="175.5" ></text>
</g>
<g >
<title>ip_input (2,509 samples, 0.37%)</title><rect x="1185.6" y="165" width="4.4" height="15.0" fill="rgb(230,210,24)" rx="2" ry="2" />
<text  x="1188.60" y="175.5" ></text>
</g>
<g >
<title>netisr_dispatch_src (2,509 samples, 0.37%)</title><rect x="1185.6" y="229" width="4.4" height="15.0" fill="rgb(233,6,27)" rx="2" ry="2" />
<text  x="1188.60" y="239.5" ></text>
</g>
<g >
<title>mlx5_cq_completion (61,527 samples, 9.14%)</title><rect x="20.8" y="197" width="107.8" height="15.0" fill="rgb(220,229,27)" rx="2" ry="2" />
<text  x="23.81" y="207.5" >mlx5_cq_compl..</text>
</g>
<g >
<title>ether_nh_input (21,552 samples, 3.20%)</title><rect x="1146.1" y="197" width="37.7" height="15.0" fill="rgb(244,92,52)" rx="2" ry="2" />
<text  x="1149.08" y="207.5" >eth..</text>
</g>
<g >
<title>lock_delay (1,159 samples, 0.17%)</title><rect x="1110.6" y="229" width="2.1" height="15.0" fill="rgb(236,78,0)" rx="2" ry="2" />
<text  x="1113.64" y="239.5" ></text>
</g>
<g >
<title>ether_demux (2,509 samples, 0.37%)</title><rect x="1185.6" y="197" width="4.4" height="15.0" fill="rgb(229,0,14)" rx="2" ry="2" />
<text  x="1188.60" y="207.5" ></text>
</g>
<g >
<title>tsc_get_config (64 samples, 0.01%)</title><rect x="1185.2" y="181" width="0.1" height="15.0" fill="rgb(205,35,36)" rx="2" ry="2" />
<text  x="1188.22" y="191.5" ></text>
</g>
<g >
<title>uma_zfree_arg (13,330 samples, 1.98%)</title><rect x="97.2" y="133" width="23.4" height="15.0" fill="rgb(211,89,19)" rx="2" ry="2" />
<text  x="100.25" y="143.5" >u..</text>
</g>
<g >
<title>pmc_hook_handler (462 samples, 0.07%)</title><rect x="1184.5" y="213" width="0.8" height="15.0" fill="rgb(230,154,52)" rx="2" ry="2" />
<text  x="1187.52" y="223.5" ></text>
</g>
<g >
<title>refill_fl (719 samples, 0.11%)</title><rect x="1109.1" y="213" width="1.3" height="15.0" fill="rgb(206,190,41)" rx="2" ry="2" />
<text  x="1112.11" y="223.5" ></text>
</g>
<g >
<title>ether_output_frame (179,477 samples, 26.65%)</title><rect x="586.3" y="85" width="314.5" height="15.0" fill="rgb(233,97,14)" rx="2" ry="2" />
<text  x="589.33" y="95.5" >ether_output_frame</text>
</g>
<g >
<title>cpu_switch (83 samples, 0.01%)</title><rect x="1113.8" y="229" width="0.2" height="15.0" fill="rgb(241,144,26)" rx="2" ry="2" />
<text  x="1116.82" y="239.5" ></text>
</g>
<g >
<title>sched_pickcpu (10,002 samples, 1.49%)</title><rect x="1122.3" y="213" width="17.5" height="15.0" fill="rgb(209,35,8)" rx="2" ry="2" />
<text  x="1125.32" y="223.5" ></text>
</g>
<g >
<title>spinlock_exit (252 samples, 0.04%)</title><rect x="140.4" y="213" width="0.4" height="15.0" fill="rgb(231,183,7)" rx="2" ry="2" />
<text  x="143.40" y="223.5" ></text>
</g>
<g >
<title>ithread_loop (21,554 samples, 3.20%)</title><rect x="1146.1" y="277" width="37.7" height="15.0" fill="rgb(228,79,3)" rx="2" ry="2" />
<text  x="1149.08" y="287.5" >ith..</text>
</g>
<g >
<title>m_adj (11,795 samples, 1.75%)</title><rect x="857.6" y="37" width="20.6" height="15.0" fill="rgb(250,160,25)" rx="2" ry="2" />
<text  x="860.56" y="47.5" ></text>
</g>
<g >
<title>Xapic_isr1 (497 samples, 0.07%)</title><rect x="10.0" y="277" width="0.9" height="15.0" fill="rgb(211,125,3)" rx="2" ry="2" />
<text  x="13.00" y="287.5" ></text>
</g>
<g >
<title>in_lltable_lookup (6,655 samples, 0.99%)</title><rect x="566.8" y="69" width="11.6" height="15.0" fill="rgb(241,19,35)" rx="2" ry="2" />
<text  x="569.75" y="79.5" ></text>
</g>
<g >
<title>ipi_bitmap_handler (63 samples, 0.01%)</title><rect x="1146.0" y="277" width="0.1" height="15.0" fill="rgb(226,21,36)" rx="2" ry="2" />
<text  x="1148.97" y="287.5" ></text>
</g>
<g >
<title>cpu_search_highest (952 samples, 0.14%)</title><rect x="138.6" y="197" width="1.7" height="15.0" fill="rgb(247,141,25)" rx="2" ry="2" />
<text  x="141.61" y="207.5" ></text>
</g>
<g >
<title>memcpy_erms (3,825 samples, 0.57%)</title><rect x="900.8" y="85" width="6.7" height="15.0" fill="rgb(210,25,51)" rx="2" ry="2" />
<text  x="903.80" y="95.5" ></text>
</g>
<g >
<title>pmap_activate_sw (386 samples, 0.06%)</title><rect x="131.6" y="213" width="0.7" height="15.0" fill="rgb(254,138,47)" rx="2" ry="2" />
<text  x="134.63" y="223.5" ></text>
</g>
<g >
<title>ether_nh_input (362,206 samples, 53.78%)</title><rect x="340.7" y="181" width="634.6" height="15.0" fill="rgb(210,58,27)" rx="2" ry="2" />
<text  x="343.68" y="191.5" >ether_nh_input</text>
</g>
<g >
<title>fork_exit (627,757 samples, 93.21%)</title><rect x="14.3" y="277" width="1099.9" height="15.0" fill="rgb(228,118,17)" rx="2" ry="2" />
<text  x="17.31" y="287.5" >fork_exit</text>
</g>
<g >
<title>memmove_erms (32,131 samples, 4.77%)</title><rect x="1007.6" y="197" width="56.3" height="15.0" fill="rgb(229,111,3)" rx="2" ry="2" />
<text  x="1010.57" y="207.5" >memmo..</text>
</g>
<g >
<title>mlx5_msix_handler (62,881 samples, 9.34%)</title><rect x="18.4" y="229" width="110.2" height="15.0" fill="rgb(252,0,34)" rx="2" ry="2" />
<text  x="21.44" y="239.5" >mlx5_msix_han..</text>
</g>
<g >
<title>memcmp (2,689 samples, 0.40%)</title><rect x="970.1" y="165" width="4.8" height="15.0" fill="rgb(206,218,44)" rx="2" ry="2" />
<text  x="973.15" y="175.5" ></text>
</g>
<g >
<title>t4_intr (552,127 samples, 81.98%)</title><rect x="143.0" y="245" width="967.4" height="15.0" fill="rgb(240,133,41)" rx="2" ry="2" />
<text  x="145.97" y="255.5" >t4_intr</text>
</g>
<g >
<title>mi_switch (7,782 samples, 1.16%)</title><rect x="128.6" y="245" width="13.6" height="15.0" fill="rgb(224,36,13)" rx="2" ry="2" />
<text  x="131.61" y="255.5" ></text>
</g>
<g >
<title>ether_output (235,035 samples, 34.90%)</title><rect x="495.7" y="101" width="411.8" height="15.0" fill="rgb(246,146,2)" rx="2" ry="2" />
<text  x="498.68" y="111.5" >ether_output</text>
</g>
<g >
<title>thread_lock_flags_ (2,330 samples, 0.35%)</title><rect x="1141.8" y="229" width="4.1" height="15.0" fill="rgb(205,48,7)" rx="2" ry="2" />
<text  x="1144.78" y="239.5" ></text>
</g>
<g >
<title>netisr_dispatch_src (21,552 samples, 3.20%)</title><rect x="1146.1" y="165" width="37.7" height="15.0" fill="rgb(227,134,47)" rx="2" ry="2" />
<text  x="1149.08" y="175.5" >net..</text>
</g>
<g >
<title>cpu_search_highest (147 samples, 0.02%)</title><rect x="1113.5" y="245" width="0.3" height="15.0" fill="rgb(248,156,43)" rx="2" ry="2" />
<text  x="1116.55" y="255.5" ></text>
</g>
<g >
<title>mlx5e_sq_xmit (75,653 samples, 11.23%)</title><rect x="768.2" y="53" width="132.6" height="15.0" fill="rgb(207,98,23)" rx="2" ry="2" />
<text  x="771.24" y="63.5" >mlx5e_sq_xmit</text>
</g>
<g >
<title>ether_output (2,509 samples, 0.37%)</title><rect x="1185.6" y="133" width="4.4" height="15.0" fill="rgb(210,221,38)" rx="2" ry="2" />
<text  x="1188.60" y="143.5" ></text>
</g>
<g >
<title>timercb (811 samples, 0.12%)</title><rect x="1184.2" y="261" width="1.4" height="15.0" fill="rgb(222,16,52)" rx="2" ry="2" />
<text  x="1187.18" y="271.5" ></text>
</g>
<g >
<title>_epoch_exit_preempt (487 samples, 0.07%)</title><rect x="252.9" y="213" width="0.9" height="15.0" fill="rgb(219,73,4)" rx="2" ry="2" />
<text  x="255.93" y="223.5" ></text>
</g>
<g >
<title>tdq_add (248 samples, 0.04%)</title><rect x="141.6" y="197" width="0.4" height="15.0" fill="rgb(215,43,0)" rx="2" ry="2" />
<text  x="144.61" y="207.5" ></text>
</g>
<g >
<title>service_iq_fl (552,085 samples, 81.98%)</title><rect x="143.0" y="229" width="967.4" height="15.0" fill="rgb(248,176,7)" rx="2" ry="2" />
<text  x="146.05" y="239.5" >service_iq_fl</text>
</g>
<g >
<title>Xapic_isr1_pti (1,689 samples, 0.25%)</title><rect x="10.9" y="277" width="2.9" height="15.0" fill="rgb(216,140,44)" rx="2" ry="2" />
<text  x="13.87" y="287.5" ></text>
</g>
<g >
<title>mlx5e_get_cqe (4,573 samples, 0.68%)</title><rect x="120.6" y="165" width="8.0" height="15.0" fill="rgb(208,157,54)" rx="2" ry="2" />
<text  x="123.60" y="175.5" ></text>
</g>
<g >
<title>tdq_move (712 samples, 0.11%)</title><rect x="140.8" y="213" width="1.3" height="15.0" fill="rgb(212,221,27)" rx="2" ry="2" />
<text  x="143.84" y="223.5" ></text>
</g>
<g >
<title>spinlock_exit (404 samples, 0.06%)</title><rect x="142.3" y="245" width="0.7" height="15.0" fill="rgb(235,62,3)" rx="2" ry="2" />
<text  x="145.26" y="255.5" ></text>
</g>
<g >
<title>bucket_alloc (166 samples, 0.02%)</title><rect x="114.9" y="101" width="0.3" height="15.0" fill="rgb(217,91,20)" rx="2" ry="2" />
<text  x="117.89" y="111.5" ></text>
</g>
<g >
<title>netisr_dispatch_src (371,485 samples, 55.16%)</title><rect x="324.4" y="197" width="650.9" height="15.0" fill="rgb(252,129,24)" rx="2" ry="2" />
<text  x="327.42" y="207.5" >netisr_dispatch_src</text>
</g>
<g >
<title>m_free (40,914 samples, 6.08%)</title><rect x="48.9" y="149" width="71.7" height="15.0" fill="rgb(251,154,36)" rx="2" ry="2" />
<text  x="51.91" y="159.5" >m_free</text>
</g>
<g >
<title>sched_add (13,374 samples, 1.99%)</title><rect x="1118.1" y="229" width="23.4" height="15.0" fill="rgb(218,131,16)" rx="2" ry="2" />
<text  x="1121.11" y="239.5" >s..</text>
</g>
<g >
<title>ip_tryforward (21,552 samples, 3.20%)</title><rect x="1146.1" y="133" width="37.7" height="15.0" fill="rgb(233,117,13)" rx="2" ry="2" />
<text  x="1149.08" y="143.5" >ip_..</text>
</g>
<g >
<title>tdq_add (415 samples, 0.06%)</title><rect x="1140.0" y="213" width="0.7" height="15.0" fill="rgb(238,179,27)" rx="2" ry="2" />
<text  x="1142.98" y="223.5" ></text>
</g>
<g >
<title>cpu_idle (251 samples, 0.04%)</title><rect x="1113.1" y="245" width="0.4" height="15.0" fill="rgb(231,224,36)" rx="2" ry="2" />
<text  x="1116.11" y="255.5" ></text>
</g>
<g >
<title>mb_dtor_mbuf (871 samples, 0.13%)</title><rect x="115.9" y="117" width="1.5" height="15.0" fill="rgb(232,190,33)" rx="2" ry="2" />
<text  x="118.86" y="127.5" ></text>
</g>
<g >
<title>ip_tryforward (2,509 samples, 0.37%)</title><rect x="1185.6" y="149" width="4.4" height="15.0" fill="rgb(235,190,27)" rx="2" ry="2" />
<text  x="1188.60" y="159.5" ></text>
</g>
<g >
<title>ether_output_frame (21,552 samples, 3.20%)</title><rect x="1146.1" y="101" width="37.7" height="15.0" fill="rgb(207,80,8)" rx="2" ry="2" />
<text  x="1149.08" y="111.5" >eth..</text>
</g>
<g >
<title>ether_nh_input (2,509 samples, 0.37%)</title><rect x="1185.6" y="213" width="4.4" height="15.0" fill="rgb(244,122,5)" rx="2" ry="2" />
<text  x="1188.60" y="223.5" ></text>
</g>
<g >
<title>_epoch_enter_preempt (110 samples, 0.02%)</title><rect x="21.5" y="181" width="0.2" height="15.0" fill="rgb(235,82,9)" rx="2" ry="2" />
<text  x="24.47" y="191.5" ></text>
</g>
<g >
<title>spinlock_exit (138 samples, 0.02%)</title><rect x="1141.5" y="229" width="0.3" height="15.0" fill="rgb(235,151,54)" rx="2" ry="2" />
<text  x="1144.54" y="239.5" ></text>
</g>
<g >
<title>runq_remove (129 samples, 0.02%)</title><rect x="141.4" y="181" width="0.2" height="15.0" fill="rgb(239,131,27)" rx="2" ry="2" />
<text  x="144.39" y="191.5" ></text>
</g>
<g >
<title>binuptime (72 samples, 0.01%)</title><rect x="1184.2" y="245" width="0.1" height="15.0" fill="rgb(212,220,9)" rx="2" ry="2" />
<text  x="1187.20" y="255.5" ></text>
</g>
<g >
<title>sched_switch (5,229 samples, 0.78%)</title><rect x="133.1" y="229" width="9.1" height="15.0" fill="rgb(206,142,6)" rx="2" ry="2" />
<text  x="136.09" y="239.5" ></text>
</g>
<g >
<title>cache_free (649 samples, 0.10%)</title><rect x="114.7" y="117" width="1.2" height="15.0" fill="rgb(234,195,14)" rx="2" ry="2" />
<text  x="117.72" y="127.5" ></text>
</g>
<g >
<title>pmclog_loop (107 samples, 0.02%)</title><rect x="1112.7" y="261" width="0.2" height="15.0" fill="rgb(253,82,32)" rx="2" ry="2" />
<text  x="1115.75" y="271.5" ></text>
</g>
<g >
<title>ether_input (2,509 samples, 0.37%)</title><rect x="1185.6" y="245" width="4.4" height="15.0" fill="rgb(245,149,15)" rx="2" ry="2" />
<text  x="1188.60" y="255.5" ></text>
</g>
<g >
<title>ip_input (318,038 samples, 47.22%)</title><rect x="412.9" y="133" width="557.2" height="15.0" fill="rgb(225,3,12)" rx="2" ry="2" />
<text  x="415.90" y="143.5" >ip_input</text>
</g>
<g >
<title>bsearch4_lookup (12,561 samples, 1.87%)</title><rect x="948.1" y="69" width="22.0" height="15.0" fill="rgb(205,161,9)" rx="2" ry="2" />
<text  x="951.14" y="79.5" >b..</text>
</g>
<g >
<title>_thread_lock (423 samples, 0.06%)</title><rect x="17.6" y="245" width="0.7" height="15.0" fill="rgb(211,138,8)" rx="2" ry="2" />
<text  x="20.60" y="255.5" ></text>
</g>
<g >
<title>ether_input (21,552 samples, 3.20%)</title><rect x="1146.1" y="229" width="37.7" height="15.0" fill="rgb(235,160,25)" rx="2" ry="2" />
<text  x="1149.08" y="239.5" >eth..</text>
</g>
<g >
<title>m_free (485 samples, 0.07%)</title><rect x="1185.6" y="69" width="0.9" height="15.0" fill="rgb(239,75,28)" rx="2" ry="2" />
<text  x="1188.60" y="79.5" ></text>
</g>
<g >
<title>bounce_bus_dmamap_complete (63 samples, 0.01%)</title><rect x="1149.7" y="37" width="0.1" height="15.0" fill="rgb(245,140,14)" rx="2" ry="2" />
<text  x="1152.69" y="47.5" ></text>
</g>
<g >
<title>zone_fetch_bucket (144 samples, 0.02%)</title><rect x="1007.2" y="165" width="0.3" height="15.0" fill="rgb(252,218,34)" rx="2" ry="2" />
<text  x="1010.24" y="175.5" ></text>
</g>
<g >
<title>uma_zfree_arg (109 samples, 0.02%)</title><rect x="1007.1" y="165" width="0.1" height="15.0" fill="rgb(226,115,31)" rx="2" ry="2" />
<text  x="1010.05" y="175.5" ></text>
</g>
<g >
<title>pmap_kextract (326 samples, 0.05%)</title><rect x="1185.9" y="37" width="0.6" height="15.0" fill="rgb(221,189,50)" rx="2" ry="2" />
<text  x="1188.88" y="47.5" ></text>
</g>
<g >
<title>thread_lock_block (93 samples, 0.01%)</title><rect x="142.1" y="213" width="0.1" height="15.0" fill="rgb(251,9,49)" rx="2" ry="2" />
<text  x="145.09" y="223.5" ></text>
</g>
<g >
<title>cache_alloc (557 samples, 0.08%)</title><rect x="1006.5" y="181" width="1.0" height="15.0" fill="rgb(215,124,47)" rx="2" ry="2" />
<text  x="1009.53" y="191.5" ></text>
</g>
<g >
<title>intr_event_schedule_thread (16,878 samples, 2.51%)</title><rect x="1116.3" y="245" width="29.6" height="15.0" fill="rgb(243,190,33)" rx="2" ry="2" />
<text  x="1119.29" y="255.5" >in..</text>
</g>
<g >
<title>mi_switch (152 samples, 0.02%)</title><rect x="1113.8" y="245" width="0.3" height="15.0" fill="rgb(234,192,6)" rx="2" ry="2" />
<text  x="1116.80" y="255.5" ></text>
</g>
<g >
<title>t4_intr (2,509 samples, 0.37%)</title><rect x="1185.6" y="277" width="4.4" height="15.0" fill="rgb(239,46,35)" rx="2" ry="2" />
<text  x="1188.60" y="287.5" ></text>
</g>
<g >
<title>tscp_get_timecount_low (59 samples, 0.01%)</title><rect x="1184.2" y="229" width="0.1" height="15.0" fill="rgb(247,128,6)" rx="2" ry="2" />
<text  x="1187.22" y="239.5" ></text>
</g>
<g >
<title>mlx5e_tx_cq_comp (60,980 samples, 9.05%)</title><rect x="21.8" y="181" width="106.8" height="15.0" fill="rgb(226,76,16)" rx="2" ry="2" />
<text  x="24.77" y="191.5" >mlx5e_tx_cq_c..</text>
</g>
<g >
<title>m_freem (1,095 samples, 0.16%)</title><rect x="766.3" y="53" width="1.9" height="15.0" fill="rgb(220,137,26)" rx="2" ry="2" />
<text  x="769.32" y="63.5" ></text>
</g>
<g >
<title>m_adj (4,515 samples, 0.67%)</title><rect x="385.0" y="149" width="7.9" height="15.0" fill="rgb(205,178,14)" rx="2" ry="2" />
<text  x="387.98" y="159.5" ></text>
</g>
<g >
<title>netisr_dispatch (329 samples, 0.05%)</title><rect x="1108.5" y="213" width="0.6" height="15.0" fill="rgb(235,31,1)" rx="2" ry="2" />
<text  x="1111.54" y="223.5" ></text>
</g>
<g >
<title>intr_event_handle (17,799 samples, 2.64%)</title><rect x="1114.8" y="261" width="31.1" height="15.0" fill="rgb(251,228,48)" rx="2" ry="2" />
<text  x="1117.76" y="271.5" >in..</text>
</g>
<g >
<title>cpu_switch (1,740 samples, 0.26%)</title><rect x="129.3" y="229" width="3.0" height="15.0" fill="rgb(205,21,14)" rx="2" ry="2" />
<text  x="132.26" y="239.5" ></text>
</g>
<g >
<title>sched_rem (366 samples, 0.05%)</title><rect x="141.0" y="197" width="0.6" height="15.0" fill="rgb(214,90,48)" rx="2" ry="2" />
<text  x="143.97" y="207.5" ></text>
</g>
<g >
<title>netisr_dispatch (257 samples, 0.04%)</title><rect x="974.9" y="165" width="0.4" height="15.0" fill="rgb(230,80,10)" rx="2" ry="2" />
<text  x="977.86" y="175.5" ></text>
</g>
<g >
<title>vn_write (107 samples, 0.02%)</title><rect x="1112.7" y="229" width="0.2" height="15.0" fill="rgb(238,22,32)" rx="2" ry="2" />
<text  x="1115.75" y="239.5" ></text>
</g>
<g >
<title>memmove_erms (4,517 samples, 0.67%)</title><rect x="578.4" y="69" width="7.9" height="15.0" fill="rgb(228,222,12)" rx="2" ry="2" />
<text  x="581.41" y="79.5" ></text>
</g>
<g >
<title>m_free (2,059 samples, 0.31%)</title><rect x="1146.1" y="53" width="3.6" height="15.0" fill="rgb(208,124,54)" rx="2" ry="2" />
<text  x="1149.08" y="63.5" ></text>
</g>
<g >
<title>sched_choose (628 samples, 0.09%)</title><rect x="136.9" y="197" width="1.1" height="15.0" fill="rgb(219,204,0)" rx="2" ry="2" />
<text  x="139.95" y="207.5" ></text>
</g>
<g >
<title>service_iq_fl (21,554 samples, 3.20%)</title><rect x="1146.1" y="245" width="37.7" height="15.0" fill="rgb(210,145,39)" rx="2" ry="2" />
<text  x="1149.08" y="255.5" >ser..</text>
</g>
<g >
<title>Xtimerint_pti (179 samples, 0.03%)</title><rect x="13.9" y="277" width="0.3" height="15.0" fill="rgb(223,12,46)" rx="2" ry="2" />
<text  x="16.89" y="287.5" ></text>
</g>
<g >
<title>m_freem (43,104 samples, 6.40%)</title><rect x="45.1" y="165" width="75.5" height="15.0" fill="rgb(221,41,50)" rx="2" ry="2" />
<text  x="48.08" y="175.5" >m_freem</text>
</g>
<g >
<title>m_copydata (5,122 samples, 0.76%)</title><rect x="1174.9" y="53" width="8.9" height="15.0" fill="rgb(233,201,20)" rx="2" ry="2" />
<text  x="1177.87" y="63.5" ></text>
</g>
<g >
<title>pmap_kextract (2,024 samples, 0.30%)</title><rect x="1186.5" y="37" width="3.5" height="15.0" fill="rgb(233,84,31)" rx="2" ry="2" />
<text  x="1189.45" y="47.5" ></text>
</g>
<g >
<title>sched_idletd (692 samples, 0.10%)</title><rect x="1112.9" y="261" width="1.2" height="15.0" fill="rgb(251,65,39)" rx="2" ry="2" />
<text  x="1115.94" y="271.5" ></text>
</g>
<g >
<title>t4_intr (21,554 samples, 3.20%)</title><rect x="1146.1" y="261" width="37.7" height="15.0" fill="rgb(215,130,34)" rx="2" ry="2" />
<text  x="1149.08" y="271.5" >t4_..</text>
</g>
<g >
<title>memmove_erms (5,122 samples, 0.76%)</title><rect x="1174.9" y="37" width="8.9" height="15.0" fill="rgb(242,6,21)" rx="2" ry="2" />
<text  x="1177.87" y="47.5" ></text>
</g>
<g >
<title>mlx5e_xmit (170,474 samples, 25.31%)</title><rect x="602.1" y="69" width="298.7" height="15.0" fill="rgb(236,192,5)" rx="2" ry="2" />
<text  x="605.10" y="79.5" >mlx5e_xmit</text>
</g>
<g >
<title>mlx5e_sq_xmit (2,024 samples, 0.30%)</title><rect x="1186.5" y="85" width="3.5" height="15.0" fill="rgb(217,177,11)" rx="2" ry="2" />
<text  x="1189.45" y="95.5" ></text>
</g>
<g >
<title>ether_output (21,552 samples, 3.20%)</title><rect x="1146.1" y="117" width="37.7" height="15.0" fill="rgb(211,148,31)" rx="2" ry="2" />
<text  x="1149.08" y="127.5" >eth..</text>
</g>
<g >
<title>ether_demux (345,312 samples, 51.27%)</title><rect x="365.1" y="165" width="605.0" height="15.0" fill="rgb(220,149,28)" rx="2" ry="2" />
<text  x="368.11" y="175.5" >ether_demux</text>
</g>
<g >
<title>bounce_bus_dmamap_complete (643 samples, 0.10%)</title><rect x="839.2" y="37" width="1.1" height="15.0" fill="rgb(228,191,54)" rx="2" ry="2" />
<text  x="842.20" y="47.5" ></text>
</g>
<g >
<title>__mtx_lock_sleep (268 samples, 0.04%)</title><rect x="1109.8" y="133" width="0.4" height="15.0" fill="rgb(208,111,2)" rx="2" ry="2" />
<text  x="1112.78" y="143.5" ></text>
</g>
<g >
<title>lock_delay (1,523 samples, 0.23%)</title><rect x="1119.6" y="197" width="2.7" height="15.0" fill="rgb(214,40,2)" rx="2" ry="2" />
<text  x="1122.62" y="207.5" ></text>
</g>
<g >
<title>_ck_epoch_delref (1,705 samples, 0.25%)</title><rect x="320.4" y="181" width="3.0" height="15.0" fill="rgb(219,0,45)" rx="2" ry="2" />
<text  x="323.38" y="191.5" ></text>
</g>
<g >
<title>all (673,463 samples, 100%)</title><rect x="10.0" y="293" width="1180.0" height="15.0" fill="rgb(254,20,7)" rx="2" ry="2" />
<text  x="13.00" y="303.5" ></text>
</g>
<g >
<title>m_freem (2,059 samples, 0.31%)</title><rect x="1146.1" y="69" width="3.6" height="15.0" fill="rgb(210,106,51)" rx="2" ry="2" />
<text  x="1149.08" y="79.5" ></text>
</g>
<g >
<title>ip_tryforward (300,132 samples, 44.57%)</title><rect x="444.3" y="117" width="525.8" height="15.0" fill="rgb(231,143,3)" rx="2" ry="2" />
<text  x="447.28" y="127.5" >ip_tryforward</text>
</g>
<g >
<title>mlx5e_xmit (21,552 samples, 3.20%)</title><rect x="1146.1" y="85" width="37.7" height="15.0" fill="rgb(243,205,8)" rx="2" ry="2" />
<text  x="1149.08" y="95.5" >mlx..</text>
</g>
<g >
<title>netisr_dispatch_src (2,509 samples, 0.37%)</title><rect x="1185.6" y="181" width="4.4" height="15.0" fill="rgb(232,216,19)" rx="2" ry="2" />
<text  x="1188.60" y="191.5" ></text>
</g>
<g >
<title>lapic_handle_intr (126 samples, 0.02%)</title><rect x="1183.8" y="277" width="0.3" height="15.0" fill="rgb(219,204,14)" rx="2" ry="2" />
<text  x="1186.84" y="287.5" ></text>
</g>
<g >
<title>runq_choose (154 samples, 0.02%)</title><rect x="137.6" y="181" width="0.3" height="15.0" fill="rgb(213,209,44)" rx="2" ry="2" />
<text  x="140.60" y="191.5" ></text>
</g>
<g >
<title>tdq_notify (458 samples, 0.07%)</title><rect x="1140.7" y="213" width="0.8" height="15.0" fill="rgb(228,52,52)" rx="2" ry="2" />
<text  x="1143.71" y="223.5" ></text>
</g>
<g >
<title>ithread_loop (626,899 samples, 93.09%)</title><rect x="14.3" y="261" width="1098.4" height="15.0" fill="rgb(228,206,35)" rx="2" ry="2" />
<text  x="17.33" y="271.5" >ithread_loop</text>
</g>
<g >
<title>runq_remove (93 samples, 0.01%)</title><rect x="137.9" y="181" width="0.1" height="15.0" fill="rgb(235,28,20)" rx="2" ry="2" />
<text  x="140.89" y="191.5" ></text>
</g>
<g >
<title>mlx5_eq_int (62,720 samples, 9.31%)</title><rect x="18.7" y="213" width="109.9" height="15.0" fill="rgb(212,197,51)" rx="2" ry="2" />
<text  x="21.72" y="223.5" >mlx5_eq_int</text>
</g>
<g >
<title>rsb_flush (392 samples, 0.06%)</title><rect x="132.4" y="229" width="0.7" height="15.0" fill="rgb(233,172,36)" rx="2" ry="2" />
<text  x="135.40" y="239.5" ></text>
</g>
<g >
<title>_mtx_lock_spin_cookie (455 samples, 0.07%)</title><rect x="136.1" y="213" width="0.8" height="15.0" fill="rgb(254,101,27)" rx="2" ry="2" />
<text  x="139.10" y="223.5" ></text>
</g>
<g >
<title>_thread_lock (820 samples, 0.12%)</title><rect x="1116.7" y="229" width="1.4" height="15.0" fill="rgb(223,63,5)" rx="2" ry="2" />
<text  x="1119.67" y="239.5" ></text>
</g>
<g >
<title>mlx5e_sq_tls_xmit (3,005 samples, 0.45%)</title><rect x="895.5" y="37" width="5.3" height="15.0" fill="rgb(205,151,14)" rx="2" ry="2" />
<text  x="898.53" y="47.5" ></text>
</g>
<g >
<title>spinlock_enter (66 samples, 0.01%)</title><rect x="140.3" y="213" width="0.1" height="15.0" fill="rgb(251,122,14)" rx="2" ry="2" />
<text  x="143.28" y="223.5" ></text>
</g>
<g >
<title>cache_alloc (342 samples, 0.05%)</title><rect x="1109.8" y="181" width="0.5" height="15.0" fill="rgb(212,75,26)" rx="2" ry="2" />
<text  x="1112.75" y="191.5" ></text>
</g>
<g >
<title>ffs_write (107 samples, 0.02%)</title><rect x="1112.7" y="197" width="0.2" height="15.0" fill="rgb(214,106,36)" rx="2" ry="2" />
<text  x="1115.75" y="207.5" ></text>
</g>
<g >
<title>netisr_dispatch (1,088 samples, 0.16%)</title><rect x="392.9" y="149" width="1.9" height="15.0" fill="rgb(208,153,42)" rx="2" ry="2" />
<text  x="395.89" y="159.5" ></text>
</g>
<g >
<title>mlx5e_xmit (2,509 samples, 0.37%)</title><rect x="1185.6" y="101" width="4.4" height="15.0" fill="rgb(210,143,48)" rx="2" ry="2" />
<text  x="1188.60" y="111.5" ></text>
</g>
<g >
<title>uma_zalloc_arg (25,493 samples, 3.79%)</title><rect x="1063.9" y="197" width="44.6" height="15.0" fill="rgb(237,64,31)" rx="2" ry="2" />
<text  x="1066.87" y="207.5" >uma_..</text>
</g>
<g >
<title>m_copydata (6,302 samples, 0.94%)</title><rect x="878.2" y="37" width="11.1" height="15.0" fill="rgb(232,154,20)" rx="2" ry="2" />
<text  x="881.23" y="47.5" ></text>
</g>
</g>
</svg>
